<svg width="100%" height="100%" viewBox="-259.097 -304.521 488.812 499.69"  xmlns="http://www.w3.org/2000/svg" xmlns:xlink="http://www.w3.org/1999/xlink" version="1.1">
<rect x="29.9388" y="-13.886" width="40" height="20" fill="yellow" stroke="black" stroke-width="0.5"><title>room 0</title></rect><rect x="36.6888" y="-11.136" width="2.5" height="2.5" fill="red" stroke="black" stroke-width="0.5"></rect>
<rect x="13.2849" y="-43.4036" width="30" height="30" fill="yellow" stroke="black" stroke-width="0.5"><title>room 1</title></rect><rect x="36.0349" y="-20.6536" width="2.5" height="2.5" fill="red" stroke="black" stroke-width="0.5"></rect><rect x="18.0349" y="-38.6536" width="2.5" height="2.5" fill="red" stroke="black" stroke-width="0.5"></rect>
<rect x="-6.23821" y="-53.9719" width="20" height="20" fill="yellow" stroke="black" stroke-width="0.5"><title>room 2</title></rect><rect x="8.51179" y="-39.2219" width="2.5" height="2.5" fill="red" stroke="black" stroke-width="0.5"></rect><rect x="-3.48821" y="-51.2219" width="2.5" height="2.5" fill="red" stroke="black" stroke-width="0.5"></rect>
<rect x="-35.2528" y="-73.6275" width="40" height="20" fill="yellow" stroke="black" stroke-width="0.5"><title>room 3</title></rect><rect x="-4.50276" y="-58.8775" width="2.5" height="2.5" fill="red" stroke="black" stroke-width="0.5"></rect><rect x="-4.50276" y="-70.8775" width="2.5" height="2.5" fill="red" stroke="black" stroke-width="0.5"></rect><rect x="-28.5028" y="-70.8775" width="2.5" height="2.5" fill="red" stroke="black" stroke-width="0.5"></rect><rect x="-28.5028" y="-58.8775" width="2.5" height="2.5" fill="red" stroke="black" stroke-width="0.5"></rect>
<rect x="-0.670787" y="-96.793" width="40" height="20" fill="yellow" stroke="black" stroke-width="0.5"><title>room 4</title></rect><rect x="6.07921" y="-82.043" width="2.5" height="2.5" fill="red" stroke="black" stroke-width="0.5"></rect><rect x="30.0792" y="-94.043" width="2.5" height="2.5" fill="red" stroke="black" stroke-width="0.5"></rect>
<rect x="-52.6847" y="-103.145" width="30" height="30" fill="yellow" stroke="black" stroke-width="0.5"><title>room 5</title></rect><rect x="-29.9347" y="-80.3954" width="2.5" height="2.5" fill="red" stroke="black" stroke-width="0.5"></rect><rect x="-47.9347" y="-98.3954" width="2.5" height="2.5" fill="red" stroke="black" stroke-width="0.5"></rect>
<rect x="-53.4644" y="-48.678" width="20" height="20" fill="yellow" stroke="black" stroke-width="0.5"><title>room 6</title></rect><rect x="-38.7144" y="-45.928" width="2.5" height="2.5" fill="red" stroke="black" stroke-width="0.5"></rect><rect x="-50.7144" y="-33.928" width="2.5" height="2.5" fill="red" stroke="black" stroke-width="0.5"></rect>
<rect x="37.852" y="-119.822" width="20" height="20" fill="yellow" stroke="black" stroke-width="0.5"><title>room 7</title></rect><rect x="40.602" y="-105.072" width="2.5" height="2.5" fill="red" stroke="black" stroke-width="0.5"></rect><rect x="52.602" y="-117.072" width="2.5" height="2.5" fill="red" stroke="black" stroke-width="0.5"></rect><rect x="52.602" y="-105.072" width="2.5" height="2.5" fill="red" stroke="black" stroke-width="0.5"></rect><rect x="40.602" y="-117.072" width="2.5" height="2.5" fill="red" stroke="black" stroke-width="0.5"></rect>
<rect x="-79.9699" y="-122.663" width="40" height="20" fill="yellow" stroke="black" stroke-width="0.5"><title>room 8</title></rect><rect x="-49.2199" y="-107.913" width="2.5" height="2.5" fill="red" stroke="black" stroke-width="0.5"></rect><rect x="-73.2199" y="-119.913" width="2.5" height="2.5" fill="red" stroke="black" stroke-width="0.5"></rect>
<rect x="-75.6545" y="-27.556" width="20" height="40" fill="yellow" stroke="black" stroke-width="0.5"><title>room 9</title></rect><rect x="-60.9045" y="-20.806" width="2.5" height="2.5" fill="red" stroke="black" stroke-width="0.5"></rect><rect x="-72.9045" y="3.19404" width="2.5" height="2.5" fill="red" stroke="black" stroke-width="0.5"></rect><rect x="-60.9045" y="3.19404" width="2.5" height="2.5" fill="red" stroke="black" stroke-width="0.5"></rect>
<rect x="59.23" y="-146.8" width="40" height="20" fill="yellow" stroke="black" stroke-width="0.5"><title>room 10</title></rect><rect x="65.98" y="-132.05" width="2.5" height="2.5" fill="red" stroke="black" stroke-width="0.5"></rect><rect x="76.1498" y="-132.05" width="2.5" height="2.5" fill="red" stroke="black" stroke-width="0.5"></rect><rect x="89.98" y="-144.05" width="2.5" height="2.5" fill="red" stroke="black" stroke-width="0.5"></rect><rect x="89.98" y="-133.67" width="2.5" height="2.5" fill="red" stroke="black" stroke-width="0.5"></rect>
<rect x="56.6078" y="-96.9742" width="40" height="20" fill="yellow" stroke="black" stroke-width="0.5"><title>room 11</title></rect><rect x="63.3578" y="-94.2242" width="2.5" height="2.5" fill="red" stroke="black" stroke-width="0.5"></rect><rect x="87.3578" y="-94.2242" width="2.5" height="2.5" fill="red" stroke="black" stroke-width="0.5"></rect><rect x="87.3578" y="-82.2242" width="2.5" height="2.5" fill="red" stroke="black" stroke-width="0.5"></rect>
<rect x="8.49515" y="-139.63" width="40" height="20" fill="yellow" stroke="black" stroke-width="0.5"><title>room 12</title></rect><rect x="39.2451" y="-124.88" width="2.5" height="2.5" fill="red" stroke="black" stroke-width="0.5"></rect><rect x="24.5266" y="-136.88" width="2.5" height="2.5" fill="red" stroke="black" stroke-width="0.5"></rect><rect x="39.2451" y="-136.88" width="2.5" height="2.5" fill="red" stroke="black" stroke-width="0.5"></rect><rect x="15.2451" y="-136.88" width="2.5" height="2.5" fill="red" stroke="black" stroke-width="0.5"></rect>
<rect x="-104.859" y="-142.342" width="40" height="20" fill="yellow" stroke="black" stroke-width="0.5"><title>room 13</title></rect><rect x="-74.1085" y="-127.592" width="2.5" height="2.5" fill="red" stroke="black" stroke-width="0.5"></rect><rect x="-98.1085" y="-139.592" width="2.5" height="2.5" fill="red" stroke="black" stroke-width="0.5"></rect>
<rect x="-114.987" y="-0.519654" width="30" height="30" fill="yellow" stroke="black" stroke-width="0.5"><title>room 14</title></rect><rect x="-92.2369" y="4.23035" width="2.5" height="2.5" fill="red" stroke="black" stroke-width="0.5"></rect><rect x="-110.237" y="22.2303" width="2.5" height="2.5" fill="red" stroke="black" stroke-width="0.5"></rect><rect x="-110.237" y="4.23035" width="2.5" height="2.5" fill="red" stroke="black" stroke-width="0.5"></rect>
<rect x="-54.46" y="23.5109" width="20" height="20" fill="yellow" stroke="black" stroke-width="0.5"><title>room 15</title></rect><rect x="-51.71" y="26.2609" width="2.5" height="2.5" fill="red" stroke="black" stroke-width="0.5"></rect><rect x="-51.71" y="28.4763" width="2.5" height="2.5" fill="red" stroke="black" stroke-width="0.5"></rect><rect x="-39.71" y="38.2609" width="2.5" height="2.5" fill="red" stroke="black" stroke-width="0.5"></rect><rect x="-51.71" y="38.2609" width="2.5" height="2.5" fill="red" stroke="black" stroke-width="0.5"></rect>
<rect x="57.5695" y="-127.066" width="30" height="30" fill="yellow" stroke="black" stroke-width="0.5"><title>room 16</title></rect><rect x="76.1498" y="-122.316" width="2.5" height="2.5" fill="red" stroke="black" stroke-width="0.5"></rect>
<rect x="89.2131" y="-181.085" width="30" height="30" fill="yellow" stroke="black" stroke-width="0.5"><title>room 17</title></rect><rect x="93.9631" y="-158.335" width="2.5" height="2.5" fill="red" stroke="black" stroke-width="0.5"></rect><rect x="111.963" y="-176.335" width="2.5" height="2.5" fill="red" stroke="black" stroke-width="0.5"></rect>
<rect x="98.9011" y="-146.041" width="30" height="30" fill="yellow" stroke="black" stroke-width="0.5"><title>room 18</title></rect><rect x="103.651" y="-133.67" width="2.5" height="2.5" fill="red" stroke="black" stroke-width="0.5"></rect><rect x="121.651" y="-123.291" width="2.5" height="2.5" fill="red" stroke="black" stroke-width="0.5"></rect><rect x="121.651" y="-132.27" width="2.5" height="2.5" fill="red" stroke="black" stroke-width="0.5"></rect><rect x="121.651" y="-141.291" width="2.5" height="2.5" fill="red" stroke="black" stroke-width="0.5"></rect>
<rect x="87.0954" y="-116.288" width="40" height="20" fill="yellow" stroke="black" stroke-width="0.5"><title>room 19</title></rect><rect x="93.8454" y="-101.538" width="2.5" height="2.5" fill="red" stroke="black" stroke-width="0.5"></rect>
<rect x="95.3272" y="-82.4643" width="20" height="40" fill="yellow" stroke="black" stroke-width="0.5"><title>room 20</title></rect><rect x="98.0772" y="-75.7143" width="2.5" height="2.5" fill="red" stroke="black" stroke-width="0.5"></rect><rect x="110.077" y="-51.7143" width="2.5" height="2.5" fill="red" stroke="black" stroke-width="0.5"></rect><rect x="110.077" y="-75.7143" width="2.5" height="2.5" fill="red" stroke="black" stroke-width="0.5"></rect><rect x="110.077" y="-61.8536" width="2.5" height="2.5" fill="red" stroke="black" stroke-width="0.5"></rect>
<rect x="19.058" y="-159.458" width="20" height="20" fill="yellow" stroke="black" stroke-width="0.5"><title>room 21</title></rect><rect x="24.5266" y="-144.708" width="2.5" height="2.5" fill="red" stroke="black" stroke-width="0.5"></rect>
<rect x="38.9336" y="-178.855" width="20" height="40" fill="yellow" stroke="black" stroke-width="0.5"><title>room 22</title></rect><rect x="41.6836" y="-148.105" width="2.5" height="2.5" fill="red" stroke="black" stroke-width="0.5"></rect><rect x="53.6836" y="-172.105" width="2.5" height="2.5" fill="red" stroke="black" stroke-width="0.5"></rect>
<rect x="-10.7884" y="-169.143" width="30" height="30" fill="yellow" stroke="black" stroke-width="0.5"><title>room 23</title></rect><rect x="11.9616" y="-146.393" width="2.5" height="2.5" fill="red" stroke="black" stroke-width="0.5"></rect><rect x="-6.03844" y="-164.393" width="2.5" height="2.5" fill="red" stroke="black" stroke-width="0.5"></rect><rect x="-6.03844" y="-146.393" width="2.5" height="2.5" fill="red" stroke="black" stroke-width="0.5"></rect>
<rect x="-121.533" y="-171.866" width="30" height="30" fill="yellow" stroke="black" stroke-width="0.5"><title>room 24</title></rect><rect x="-98.7828" y="-149.116" width="2.5" height="2.5" fill="red" stroke="black" stroke-width="0.5"></rect>
<rect x="-139.008" y="25.5892" width="20" height="40" fill="yellow" stroke="black" stroke-width="0.5"><title>room 25</title></rect><rect x="-124.258" y="32.3392" width="2.5" height="2.5" fill="red" stroke="black" stroke-width="0.5"></rect><rect x="-136.258" y="45.9375" width="2.5" height="2.5" fill="red" stroke="black" stroke-width="0.5"></rect><rect x="-135.442" y="32.3392" width="2.5" height="2.5" fill="red" stroke="black" stroke-width="0.5"></rect><rect x="-130.699" y="56.3392" width="2.5" height="2.5" fill="red" stroke="black" stroke-width="0.5"></rect>
<rect x="-134.243" y="-33.2108" width="20" height="40" fill="yellow" stroke="black" stroke-width="0.5"><title>room 26</title></rect><rect x="-119.493" y="-2.4608" width="2.5" height="2.5" fill="red" stroke="black" stroke-width="0.5"></rect><rect x="-131.493" y="-26.4608" width="2.5" height="2.5" fill="red" stroke="black" stroke-width="0.5"></rect>
<rect x="-74.2836" y="11.9417" width="20" height="40" fill="yellow" stroke="black" stroke-width="0.5"><title>room 27</title></rect><rect x="-59.5336" y="28.4763" width="2.5" height="2.5" fill="red" stroke="black" stroke-width="0.5"></rect>
<rect x="-30.2909" y="38.4134" width="30" height="30" fill="yellow" stroke="black" stroke-width="0.5"><title>room 28</title></rect><rect x="-25.5409" y="43.1634" width="2.5" height="2.5" fill="red" stroke="black" stroke-width="0.5"></rect><rect x="-7.54088" y="43.1634" width="2.5" height="2.5" fill="red" stroke="black" stroke-width="0.5"></rect><rect x="-16.5718" y="61.1634" width="2.5" height="2.5" fill="red" stroke="black" stroke-width="0.5"></rect><rect x="-7.54088" y="61.1634" width="2.5" height="2.5" fill="red" stroke="black" stroke-width="0.5"></rect>
<rect x="-79.7579" y="51.5222" width="30" height="30" fill="yellow" stroke="black" stroke-width="0.5"><title>room 29</title></rect><rect x="-57.0079" y="56.2722" width="2.5" height="2.5" fill="red" stroke="black" stroke-width="0.5"></rect><rect x="-75.0079" y="63.0425" width="2.5" height="2.5" fill="red" stroke="black" stroke-width="0.5"></rect><rect x="-75.0079" y="74.2722" width="2.5" height="2.5" fill="red" stroke="black" stroke-width="0.5"></rect><rect x="-67.1824" y="74.2722" width="2.5" height="2.5" fill="red" stroke="black" stroke-width="0.5"></rect>
<rect x="121.254" y="-204.926" width="20" height="20" fill="yellow" stroke="black" stroke-width="0.5"><title>room 30</title></rect><rect x="124.004" y="-190.176" width="2.5" height="2.5" fill="red" stroke="black" stroke-width="0.5"></rect><rect x="136.004" y="-202.176" width="2.5" height="2.5" fill="red" stroke="black" stroke-width="0.5"></rect><rect x="124.004" y="-202.176" width="2.5" height="2.5" fill="red" stroke="black" stroke-width="0.5"></rect><rect x="136.004" y="-190.176" width="2.5" height="2.5" fill="red" stroke="black" stroke-width="0.5"></rect>
<rect x="126.798" y="-116.294" width="20" height="20" fill="yellow" stroke="black" stroke-width="0.5"><title>room 31</title></rect><rect x="129.548" y="-113.544" width="2.5" height="2.5" fill="red" stroke="black" stroke-width="0.5"></rect>
<rect x="128.566" y="-145.999" width="30" height="30" fill="yellow" stroke="black" stroke-width="0.5"><title>room 32</title></rect><rect x="133.316" y="-132.27" width="2.5" height="2.5" fill="red" stroke="black" stroke-width="0.5"></rect>
<rect x="118.97" y="-185.258" width="20" height="40" fill="yellow" stroke="black" stroke-width="0.5"><title>room 33</title></rect><rect x="121.72" y="-154.508" width="2.5" height="2.5" fill="red" stroke="black" stroke-width="0.5"></rect>
<rect x="114.195" y="-47.1648" width="20" height="40" fill="yellow" stroke="black" stroke-width="0.5"><title>room 34</title></rect><rect x="116.945" y="-40.4148" width="2.5" height="2.5" fill="red" stroke="black" stroke-width="0.5"></rect><rect x="128.945" y="-16.4148" width="2.5" height="2.5" fill="red" stroke="black" stroke-width="0.5"></rect><rect x="128.945" y="-29.1193" width="2.5" height="2.5" fill="red" stroke="black" stroke-width="0.5"></rect>
<rect x="114.648" y="-96.4796" width="20" height="20" fill="yellow" stroke="black" stroke-width="0.5"><title>room 35</title></rect><rect x="117.398" y="-81.7296" width="2.5" height="2.5" fill="red" stroke="black" stroke-width="0.5"></rect>
<rect x="115.079" y="-76.7429" width="30" height="30" fill="yellow" stroke="black" stroke-width="0.5"><title>room 36</title></rect><rect x="119.829" y="-61.8536" width="2.5" height="2.5" fill="red" stroke="black" stroke-width="0.5"></rect>
<rect x="58.5966" y="-187.575" width="20" height="20" fill="yellow" stroke="black" stroke-width="0.5"><title>room 37</title></rect><rect x="61.3466" y="-172.825" width="2.5" height="2.5" fill="red" stroke="black" stroke-width="0.5"></rect>
<rect x="-22.3259" y="-188.681" width="20" height="20" fill="yellow" stroke="black" stroke-width="0.5"><title>room 38</title></rect><rect x="-7.57587" y="-173.931" width="2.5" height="2.5" fill="red" stroke="black" stroke-width="0.5"></rect><rect x="-19.5759" y="-175.882" width="2.5" height="2.5" fill="red" stroke="black" stroke-width="0.5"></rect><rect x="-18.1177" y="-185.931" width="2.5" height="2.5" fill="red" stroke="black" stroke-width="0.5"></rect>
<rect x="-37.2241" y="-139.627" width="40" height="20" fill="yellow" stroke="black" stroke-width="0.5"><title>room 39</title></rect><rect x="-6.47409" y="-136.877" width="2.5" height="2.5" fill="red" stroke="black" stroke-width="0.5"></rect>
<rect x="-179.837" y="33.5059" width="40" height="20" fill="yellow" stroke="black" stroke-width="0.5"><title>room 40</title></rect><rect x="-149.087" y="45.9375" width="2.5" height="2.5" fill="red" stroke="black" stroke-width="0.5"></rect><rect x="-156.827" y="48.2559" width="2.5" height="2.5" fill="red" stroke="black" stroke-width="0.5"></rect><rect x="-173.087" y="36.2559" width="2.5" height="2.5" fill="red" stroke="black" stroke-width="0.5"></rect><rect x="-173.087" y="48.2559" width="2.5" height="2.5" fill="red" stroke="black" stroke-width="0.5"></rect>
<rect x="-165.377" y="6.19271" width="40" height="20" fill="yellow" stroke="black" stroke-width="0.5"><title>room 41</title></rect><rect x="-135.442" y="20.9427" width="2.5" height="2.5" fill="red" stroke="black" stroke-width="0.5"></rect>
<rect x="-139.889" y="65.1237" width="20" height="40" fill="yellow" stroke="black" stroke-width="0.5"><title>room 42</title></rect><rect x="-130.699" y="71.8737" width="2.5" height="2.5" fill="red" stroke="black" stroke-width="0.5"></rect><rect x="-137.139" y="95.8737" width="2.5" height="2.5" fill="red" stroke="black" stroke-width="0.5"></rect><rect x="-137.139" y="87.0828" width="2.5" height="2.5" fill="red" stroke="black" stroke-width="0.5"></rect><rect x="-130.635" y="95.8737" width="2.5" height="2.5" fill="red" stroke="black" stroke-width="0.5"></rect>
<rect x="-163.768" y="-52.2145" width="30" height="30" fill="yellow" stroke="black" stroke-width="0.5"><title>room 43</title></rect><rect x="-141.018" y="-29.4645" width="2.5" height="2.5" fill="red" stroke="black" stroke-width="0.5"></rect><rect x="-159.018" y="-47.4645" width="2.5" height="2.5" fill="red" stroke="black" stroke-width="0.5"></rect><rect x="-159.018" y="-29.4645" width="2.5" height="2.5" fill="red" stroke="black" stroke-width="0.5"></rect><rect x="-141.018" y="-47.4645" width="2.5" height="2.5" fill="red" stroke="black" stroke-width="0.5"></rect>
<rect x="-1.16872" y="16.6319" width="30" height="30" fill="yellow" stroke="black" stroke-width="0.5"><title>room 44</title></rect><rect x="3.58128" y="39.3819" width="2.5" height="2.5" fill="red" stroke="black" stroke-width="0.5"></rect><rect x="21.5813" y="39.3819" width="2.5" height="2.5" fill="red" stroke="black" stroke-width="0.5"></rect><rect x="16.4535" y="21.3819" width="2.5" height="2.5" fill="red" stroke="black" stroke-width="0.5"></rect><rect x="21.5813" y="25.0998" width="2.5" height="2.5" fill="red" stroke="black" stroke-width="0.5"></rect>
<rect x="-30.3527" y="68.0483" width="30" height="30" fill="yellow" stroke="black" stroke-width="0.5"><title>room 45</title></rect><rect x="-16.5718" y="72.7983" width="2.5" height="2.5" fill="red" stroke="black" stroke-width="0.5"></rect><rect x="-7.6027" y="90.7983" width="2.5" height="2.5" fill="red" stroke="black" stroke-width="0.5"></rect><rect x="-7.6027" y="90.7983" width="2.5" height="2.5" fill="red" stroke="black" stroke-width="0.5"></rect>
<rect x="-0.828496" y="66.119" width="30" height="30" fill="yellow" stroke="black" stroke-width="0.5"><title>room 46</title></rect><rect x="3.9215" y="70.869" width="2.5" height="2.5" fill="red" stroke="black" stroke-width="0.5"></rect><rect x="3.9215" y="88.869" width="2.5" height="2.5" fill="red" stroke="black" stroke-width="0.5"></rect><rect x="16.4607" y="70.869" width="2.5" height="2.5" fill="red" stroke="black" stroke-width="0.5"></rect>
<rect x="-119.238" y="49.0629" width="40" height="20" fill="yellow" stroke="black" stroke-width="0.5"><title>room 47</title></rect><rect x="-88.4881" y="63.0425" width="2.5" height="2.5" fill="red" stroke="black" stroke-width="0.5"></rect><rect x="-108.546" y="63.8129" width="2.5" height="2.5" fill="red" stroke="black" stroke-width="0.5"></rect><rect x="-108.397" y="51.8129" width="2.5" height="2.5" fill="red" stroke="black" stroke-width="0.5"></rect>
<rect x="-99.4076" y="68.8021" width="20" height="40" fill="yellow" stroke="black" stroke-width="0.5"><title>room 48</title></rect><rect x="-84.6576" y="75.5521" width="2.5" height="2.5" fill="red" stroke="black" stroke-width="0.5"></rect>
<rect x="-79.599" y="81.1544" width="20" height="40" fill="yellow" stroke="black" stroke-width="0.5"><title>room 49</title></rect><rect x="-67.1824" y="87.9044" width="2.5" height="2.5" fill="red" stroke="black" stroke-width="0.5"></rect><rect x="-76.849" y="111.904" width="2.5" height="2.5" fill="red" stroke="black" stroke-width="0.5"></rect><rect x="-64.849" y="98.8756" width="2.5" height="2.5" fill="red" stroke="black" stroke-width="0.5"></rect><rect x="-64.849" y="111.904" width="2.5" height="2.5" fill="red" stroke="black" stroke-width="0.5"></rect>
<rect x="134.789" y="-224.345" width="40" height="20" fill="yellow" stroke="black" stroke-width="0.5"><title>room 50</title></rect><rect x="141.539" y="-209.595" width="2.5" height="2.5" fill="red" stroke="black" stroke-width="0.5"></rect><rect x="165.539" y="-209.595" width="2.5" height="2.5" fill="red" stroke="black" stroke-width="0.5"></rect><rect x="165.539" y="-221.595" width="2.5" height="2.5" fill="red" stroke="black" stroke-width="0.5"></rect>
<rect x="106.295" y="-244.396" width="20" height="40" fill="yellow" stroke="black" stroke-width="0.5"><title>room 51</title></rect><rect x="121.045" y="-213.646" width="2.5" height="2.5" fill="red" stroke="black" stroke-width="0.5"></rect><rect x="121.045" y="-233.525" width="2.5" height="2.5" fill="red" stroke="black" stroke-width="0.5"></rect><rect x="121.045" y="-237.646" width="2.5" height="2.5" fill="red" stroke="black" stroke-width="0.5"></rect>
<rect x="138.603" y="-185.058" width="40" height="20" fill="yellow" stroke="black" stroke-width="0.5"><title>room 52</title></rect><rect x="145.353" y="-182.308" width="2.5" height="2.5" fill="red" stroke="black" stroke-width="0.5"></rect>
<rect x="133.711" y="-19.6701" width="30" height="30" fill="yellow" stroke="black" stroke-width="0.5"><title>room 53</title></rect><rect x="138.461" y="-14.9201" width="2.5" height="2.5" fill="red" stroke="black" stroke-width="0.5"></rect><rect x="156.461" y="-10.1541" width="2.5" height="2.5" fill="red" stroke="black" stroke-width="0.5"></rect><rect x="156.461" y="3.07992" width="2.5" height="2.5" fill="red" stroke="black" stroke-width="0.5"></rect>
<rect x="133.855" y="-40.0255" width="40" height="20" fill="yellow" stroke="black" stroke-width="0.5"><title>room 54</title></rect><rect x="140.605" y="-29.1193" width="2.5" height="2.5" fill="red" stroke="black" stroke-width="0.5"></rect>
<rect x="-52.0673" y="-188.584" width="30" height="30" fill="yellow" stroke="black" stroke-width="0.5"><title>room 55</title></rect><rect x="-29.3173" y="-175.882" width="2.5" height="2.5" fill="red" stroke="black" stroke-width="0.5"></rect><rect x="-47.3173" y="-183.834" width="2.5" height="2.5" fill="red" stroke="black" stroke-width="0.5"></rect>
<rect x="-39.4095" y="-218.367" width="30" height="30" fill="yellow" stroke="black" stroke-width="0.5"><title>room 56</title></rect><rect x="-18.1177" y="-195.617" width="2.5" height="2.5" fill="red" stroke="black" stroke-width="0.5"></rect><rect x="-34.6595" y="-213.617" width="2.5" height="2.5" fill="red" stroke="black" stroke-width="0.5"></rect><rect x="-16.6595" y="-213.617" width="2.5" height="2.5" fill="red" stroke="black" stroke-width="0.5"></rect>
<rect x="-159.685" y="53.3015" width="20" height="20" fill="yellow" stroke="black" stroke-width="0.5"><title>room 57</title></rect><rect x="-156.827" y="56.0515" width="2.5" height="2.5" fill="red" stroke="black" stroke-width="0.5"></rect><rect x="-156.935" y="63.1955" width="2.5" height="2.5" fill="red" stroke="black" stroke-width="0.5"></rect>
<rect x="-205.118" y="13.7833" width="40" height="20" fill="yellow" stroke="black" stroke-width="0.5"><title>room 58</title></rect><rect x="-174.368" y="28.5333" width="2.5" height="2.5" fill="red" stroke="black" stroke-width="0.5"></rect>
<rect x="-199.403" y="48.7598" width="20" height="20" fill="yellow" stroke="black" stroke-width="0.5"><title>room 59</title></rect><rect x="-184.653" y="51.5098" width="2.5" height="2.5" fill="red" stroke="black" stroke-width="0.5"></rect><rect x="-196.653" y="53.7349" width="2.5" height="2.5" fill="red" stroke="black" stroke-width="0.5"></rect><rect x="-190.566" y="63.5098" width="2.5" height="2.5" fill="red" stroke="black" stroke-width="0.5"></rect><rect x="-196.653" y="63.5098" width="2.5" height="2.5" fill="red" stroke="black" stroke-width="0.5"></rect>
<rect x="-179.246" y="95.4699" width="40" height="20" fill="yellow" stroke="black" stroke-width="0.5"><title>room 60</title></rect><rect x="-148.496" y="98.2199" width="2.5" height="2.5" fill="red" stroke="black" stroke-width="0.5"></rect><rect x="-172.496" y="110.22" width="2.5" height="2.5" fill="red" stroke="black" stroke-width="0.5"></rect><rect x="-168.125" y="110.22" width="2.5" height="2.5" fill="red" stroke="black" stroke-width="0.5"></rect>
<rect x="-179.5" y="75.5419" width="40" height="20" fill="yellow" stroke="black" stroke-width="0.5"><title>room 61</title></rect><rect x="-148.75" y="87.0828" width="2.5" height="2.5" fill="red" stroke="black" stroke-width="0.5"></rect>
<rect x="-138.88" y="104.825" width="20" height="20" fill="yellow" stroke="black" stroke-width="0.5"><title>room 62</title></rect><rect x="-130.635" y="107.575" width="2.5" height="2.5" fill="red" stroke="black" stroke-width="0.5"></rect><rect x="-130.11" y="119.575" width="2.5" height="2.5" fill="red" stroke="black" stroke-width="0.5"></rect><rect x="-136.13" y="119.575" width="2.5" height="2.5" fill="red" stroke="black" stroke-width="0.5"></rect><rect x="-124.13" y="119.575" width="2.5" height="2.5" fill="red" stroke="black" stroke-width="0.5"></rect>
<rect x="-183.248" y="-64.1424" width="20" height="20" fill="yellow" stroke="black" stroke-width="0.5"><title>room 63</title></rect><rect x="-168.498" y="-49.3924" width="2.5" height="2.5" fill="red" stroke="black" stroke-width="0.5"></rect><rect x="-174.508" y="-61.3924" width="2.5" height="2.5" fill="red" stroke="black" stroke-width="0.5"></rect><rect x="-180.498" y="-61.3924" width="2.5" height="2.5" fill="red" stroke="black" stroke-width="0.5"></rect><rect x="-168.498" y="-61.3924" width="2.5" height="2.5" fill="red" stroke="black" stroke-width="0.5"></rect>
<rect x="-191.376" y="-22.7475" width="40" height="20" fill="yellow" stroke="black" stroke-width="0.5"><title>room 64</title></rect><rect x="-160.626" y="-19.9975" width="2.5" height="2.5" fill="red" stroke="black" stroke-width="0.5"></rect><rect x="-184.626" y="-19.9975" width="2.5" height="2.5" fill="red" stroke="black" stroke-width="0.5"></rect>
<rect x="-134.259" y="-78.8465" width="20" height="40" fill="yellow" stroke="black" stroke-width="0.5"><title>room 65</title></rect><rect x="-131.509" y="-48.0965" width="2.5" height="2.5" fill="red" stroke="black" stroke-width="0.5"></rect>
<rect x="28.1467" y="35.9521" width="30" height="30" fill="yellow" stroke="black" stroke-width="0.5"><title>room 66</title></rect><rect x="32.8967" y="40.7021" width="2.5" height="2.5" fill="red" stroke="black" stroke-width="0.5"></rect>
<rect x="8.57581" y="-3.09931" width="20" height="20" fill="yellow" stroke="black" stroke-width="0.5"><title>room 67</title></rect><rect x="16.4535" y="11.6507" width="2.5" height="2.5" fill="red" stroke="black" stroke-width="0.5"></rect>
<rect x="28.431" y="6.06761" width="30" height="30" fill="yellow" stroke="black" stroke-width="0.5"><title>room 68</title></rect><rect x="33.181" y="25.0998" width="2.5" height="2.5" fill="red" stroke="black" stroke-width="0.5"></rect>
<rect x="9.97677" y="95.6683" width="20" height="40" fill="yellow" stroke="black" stroke-width="0.5"><title>room 69</title></rect><rect x="12.7268" y="102.418" width="2.5" height="2.5" fill="red" stroke="black" stroke-width="0.5"></rect>
<rect x="-9.78461" y="97.1922" width="20" height="40" fill="yellow" stroke="black" stroke-width="0.5"><title>room 70</title></rect><rect x="-7.03461" y="103.942" width="2.5" height="2.5" fill="red" stroke="black" stroke-width="0.5"></rect>
<rect x="-29.5477" y="97.5713" width="20" height="40" fill="yellow" stroke="black" stroke-width="0.5"><title>room 71</title></rect><rect x="-14.7977" y="104.321" width="2.5" height="2.5" fill="red" stroke="black" stroke-width="0.5"></rect>
<rect x="8.24996" y="46.4231" width="20" height="20" fill="yellow" stroke="black" stroke-width="0.5"><title>room 72</title></rect><rect x="16.4607" y="61.1731" width="2.5" height="2.5" fill="red" stroke="black" stroke-width="0.5"></rect>
<rect x="-119.354" y="68.6645" width="20" height="40" fill="yellow" stroke="black" stroke-width="0.5"><title>room 73</title></rect><rect x="-108.546" y="75.4145" width="2.5" height="2.5" fill="red" stroke="black" stroke-width="0.5"></rect>
<rect x="-119.056" y="29.2859" width="20" height="20" fill="yellow" stroke="black" stroke-width="0.5"><title>room 74</title></rect><rect x="-108.397" y="44.0359" width="2.5" height="2.5" fill="red" stroke="black" stroke-width="0.5"></rect>
<rect x="-99.1584" y="108.502" width="20" height="40" fill="yellow" stroke="black" stroke-width="0.5"><title>room 75</title></rect><rect x="-84.4084" y="115.252" width="2.5" height="2.5" fill="red" stroke="black" stroke-width="0.5"></rect>
<rect x="-59.9256" y="81.0969" width="30" height="30" fill="yellow" stroke="black" stroke-width="0.5"><title>room 76</title></rect><rect x="-55.1756" y="98.8756" width="2.5" height="2.5" fill="red" stroke="black" stroke-width="0.5"></rect>
<rect x="-60.2385" y="110.884" width="30" height="30" fill="yellow" stroke="black" stroke-width="0.5"><title>room 77</title></rect><rect x="-55.4885" y="115.634" width="2.5" height="2.5" fill="red" stroke="black" stroke-width="0.5"></rect>
<rect x="159.7" y="-204.781" width="40" height="20" fill="yellow" stroke="black" stroke-width="0.5"><title>room 78</title></rect><rect x="166.45" y="-202.031" width="2.5" height="2.5" fill="red" stroke="black" stroke-width="0.5"></rect>
<rect x="165.544" y="-253.631" width="30" height="30" fill="yellow" stroke="black" stroke-width="0.5"><title>room 79</title></rect><rect x="170.294" y="-230.881" width="2.5" height="2.5" fill="red" stroke="black" stroke-width="0.5"></rect>
<rect x="125.855" y="-244.154" width="40" height="20" fill="yellow" stroke="black" stroke-width="0.5"><title>room 80</title></rect><rect x="132.605" y="-233.525" width="2.5" height="2.5" fill="red" stroke="black" stroke-width="0.5"></rect>
<rect x="116.655" y="-273.838" width="30" height="30" fill="yellow" stroke="black" stroke-width="0.5"><title>room 81</title></rect><rect x="121.405" y="-251.088" width="2.5" height="2.5" fill="red" stroke="black" stroke-width="0.5"></rect>
<rect x="163.45" y="-20.1381" width="20" height="20" fill="yellow" stroke="black" stroke-width="0.5"><title>room 82</title></rect><rect x="166.2" y="-10.1541" width="2.5" height="2.5" fill="red" stroke="black" stroke-width="0.5"></rect>
<rect x="163.01" y="-0.251095" width="30" height="30" fill="yellow" stroke="black" stroke-width="0.5"><title>room 83</title></rect><rect x="167.76" y="4.4989" width="2.5" height="2.5" fill="red" stroke="black" stroke-width="0.5"></rect>
<rect x="-79.2498" y="-208.092" width="40" height="20" fill="yellow" stroke="black" stroke-width="0.5"><title>room 84</title></rect><rect x="-48.4998" y="-193.342" width="2.5" height="2.5" fill="red" stroke="black" stroke-width="0.5"></rect>
<rect x="-65.8591" y="-237.902" width="40" height="20" fill="yellow" stroke="black" stroke-width="0.5"><title>room 85</title></rect><rect x="-35.1091" y="-223.152" width="2.5" height="2.5" fill="red" stroke="black" stroke-width="0.5"></rect>
<rect x="-9.90547" y="-245.272" width="20" height="40" fill="yellow" stroke="black" stroke-width="0.5"><title>room 86</title></rect><rect x="-7.15547" y="-214.522" width="2.5" height="2.5" fill="red" stroke="black" stroke-width="0.5"></rect>
<rect x="-179.499" y="55.5895" width="20" height="20" fill="yellow" stroke="black" stroke-width="0.5"><title>room 87</title></rect><rect x="-164.749" y="63.1955" width="2.5" height="2.5" fill="red" stroke="black" stroke-width="0.5"></rect>
<rect x="-229.082" y="32.8931" width="30" height="30" fill="yellow" stroke="black" stroke-width="0.5"><title>room 88</title></rect><rect x="-206.332" y="53.7349" width="2.5" height="2.5" fill="red" stroke="black" stroke-width="0.5"></rect>
<rect x="-199.229" y="68.4044" width="20" height="40" fill="yellow" stroke="black" stroke-width="0.5"><title>room 89</title></rect><rect x="-190.566" y="75.1544" width="2.5" height="2.5" fill="red" stroke="black" stroke-width="0.5"></rect>
<rect x="-228.965" y="62.6561" width="30" height="30" fill="yellow" stroke="black" stroke-width="0.5"><title>room 90</title></rect><rect x="-206.215" y="67.4061" width="2.5" height="2.5" fill="red" stroke="black" stroke-width="0.5"></rect>
<rect x="-208.273" y="108.183" width="30" height="30" fill="yellow" stroke="black" stroke-width="0.5"><title>room 91</title></rect><rect x="-185.523" y="112.933" width="2.5" height="2.5" fill="red" stroke="black" stroke-width="0.5"></rect>
<rect x="-178.503" y="115.08" width="20" height="40" fill="yellow" stroke="black" stroke-width="0.5"><title>room 92</title></rect><rect x="-168.125" y="121.83" width="2.5" height="2.5" fill="red" stroke="black" stroke-width="0.5"></rect>
<rect x="-138.84" y="124.487" width="20" height="40" fill="yellow" stroke="black" stroke-width="0.5"><title>room 93</title></rect><rect x="-130.11" y="131.237" width="2.5" height="2.5" fill="red" stroke="black" stroke-width="0.5"></rect>
<rect x="-158.64" y="115.26" width="20" height="40" fill="yellow" stroke="black" stroke-width="0.5"><title>room 94</title></rect><rect x="-143.89" y="122.01" width="2.5" height="2.5" fill="red" stroke="black" stroke-width="0.5"></rect>
<rect x="-119.045" y="113.42" width="20" height="40" fill="yellow" stroke="black" stroke-width="0.5"><title>room 95</title></rect><rect x="-116.295" y="120.17" width="2.5" height="2.5" fill="red" stroke="black" stroke-width="0.5"></rect>
<rect x="-183.269" y="-103.802" width="20" height="40" fill="yellow" stroke="black" stroke-width="0.5"><title>room 96</title></rect><rect x="-174.508" y="-73.052" width="2.5" height="2.5" fill="red" stroke="black" stroke-width="0.5"></rect>
<rect x="-212.974" y="-84.5022" width="30" height="30" fill="yellow" stroke="black" stroke-width="0.5"><title>room 97</title></rect><rect x="-190.224" y="-61.7522" width="2.5" height="2.5" fill="red" stroke="black" stroke-width="0.5"></rect>
<rect x="-163.453" y="-92.5398" width="20" height="40" fill="yellow" stroke="black" stroke-width="0.5"><title>room 98</title></rect><rect x="-160.703" y="-61.7898" width="2.5" height="2.5" fill="red" stroke="black" stroke-width="0.5"></rect>
<rect x="-200.259" y="-42.4081" width="20" height="20" fill="yellow" stroke="black" stroke-width="0.5"><title>room 99</title></rect><rect x="-185.509" y="-27.6581" width="2.5" height="2.5" fill="red" stroke="black" stroke-width="0.5"></rect>
<line x1="37.93883274603003" y1="-9.886001289885607" x2="37.28491934201507" y2="-19.40355584578384" stroke-width="0.5" stroke="blue" />
<line x1="19.284919342015073" y1="-37.40355584578384" x2="9.761787003823933" y2="-37.97185837666176" stroke-width="0.5" stroke="blue" />
<line x1="-2.238212996176066" y1="-49.97185837666176" x2="-3.2527601164309754" y2="-57.627536238915354" stroke-width="0.5" stroke="blue" />
<line x1="-3.2527601164309754" y1="-69.62753623891535" x2="7.329212679887295" y2="-80.79298318916004" stroke-width="0.5" stroke="blue" />
<line x1="-27.252760116430977" y1="-69.62753623891535" x2="-28.684703571841432" y2="-79.14537795254536" stroke-width="0.5" stroke="blue" />
<line x1="-27.252760116430977" y1="-57.627536238915354" x2="-37.46435791994943" y2="-44.67797509656353" stroke-width="0.5" stroke="blue" />
<line x1="31.329212679887295" y1="-92.79298318916004" x2="41.852019437021845" y2="-103.82208701081053" stroke-width="0.5" stroke="blue" />
<line x1="-46.68470357184143" y1="-97.14537795254536" x2="-47.969914257547885" y2="-106.6633550027204" stroke-width="0.5" stroke="blue" />
<line x1="-49.46435791994943" y1="-32.67797509656353" x2="-59.65445372955304" y2="-19.55596037112121" stroke-width="0.5" stroke="blue" />
<line x1="53.852019437021845" y1="-115.82208701081053" x2="67.23002392956587" y2="-130.80027305113938" stroke-width="0.5" stroke="blue" />
<line x1="53.852019437021845" y1="-103.82208701081053" x2="64.60783345581793" y2="-92.97419593677074" stroke-width="0.5" stroke="blue" />
<line x1="41.852019437021845" y1="-115.82208701081053" x2="40.49514844293521" y2="-123.62985199221166" stroke-width="0.5" stroke="blue" />
<line x1="-71.96991425754788" y1="-118.6633550027204" x2="-72.858541561537" y2="-126.34240881416525" stroke-width="0.5" stroke="blue" />
<line x1="-71.65445372955304" y1="4.444039628878791" x2="-90.9869201559561" y2="5.480346331211175" stroke-width="0.5" stroke="blue" />
<line x1="-59.65445372955304" y1="4.444039628878791" x2="-50.460024142999124" y2="27.510858337701627" stroke-width="0.5" stroke="blue" />
<line x1="77.39975615154712" y1="-130.80027305113938" x2="77.39975150562097" y2="-121.06642135699309" stroke-width="0.5" stroke="blue" />
<line x1="91.23002392956587" y1="-142.80027305113938" x2="95.2131343580617" y2="-157.08506485220977" stroke-width="0.5" stroke="blue" />
<line x1="91.23002392956587" y1="-132.42045321788393" x2="104.90107329328714" y2="-132.420456470557" stroke-width="0.5" stroke="blue" />
<line x1="88.60783345581793" y1="-92.97419593677074" x2="95.09538295407529" y2="-100.28842092895208" stroke-width="0.5" stroke="blue" />
<line x1="88.60783345581793" y1="-80.97419593677074" x2="99.32722475960588" y2="-74.46426002909527" stroke-width="0.5" stroke="blue" />
<line x1="25.776563746595585" y1="-135.62985199221166" x2="25.776564526061442" y2="-143.4577989795078" stroke-width="0.5" stroke="blue" />
<line x1="40.49514844293521" y1="-135.62985199221166" x2="42.93360403959962" y2="-146.8547398567778" stroke-width="0.5" stroke="blue" />
<line x1="16.49514844293521" y1="-135.62985199221166" x2="13.211560866141227" y2="-145.14303525726112" stroke-width="0.5" stroke="blue" />
<line x1="-96.858541561537" y1="-138.34240881416525" x2="-97.53283829666393" y2="-147.86640385063728" stroke-width="0.5" stroke="blue" />
<line x1="-108.9869201559561" y1="23.480346331211173" x2="-123.00816727220504" y2="33.589227973007944" stroke-width="0.5" stroke="blue" />
<line x1="-108.9869201559561" y1="5.480346331211175" x2="-118.2428943024059" y2="-1.2108041786770816" stroke-width="0.5" stroke="blue" />
<line x1="-50.460024142999124" y1="29.72630382383348" x2="-58.283635634521744" y2="29.726301062843895" stroke-width="0.5" stroke="blue" />
<line x1="-38.460024142999124" y1="39.51085833770163" x2="-24.290881779203236" y2="44.41338221479877" stroke-width="0.5" stroke="blue" />
<line x1="-50.460024142999124" y1="39.51085833770163" x2="-55.75794547896405" y2="57.52217326030289" stroke-width="0.5" stroke="blue" />
<line x1="113.2131343580617" y1="-175.08506485220977" x2="125.25396375615313" y2="-188.92558041466367" stroke-width="0.5" stroke="blue" />
<line x1="122.90107329328714" y1="-122.04063663730116" x2="130.79813224290513" y2="-112.29358134260097" stroke-width="0.5" stroke="blue" />
<line x1="122.90107329328714" y1="-131.0199389140188" x2="134.56609386921852" y2="-131.01993987283907" stroke-width="0.5" stroke="blue" />
<line x1="122.90107329328714" y1="-140.04063663730116" x2="122.97046740200346" y2="-153.25845923573135" stroke-width="0.5" stroke="blue" />
<line x1="111.32722475960588" y1="-50.464260029095264" x2="118.1954682668443" y2="-39.164825725829346" stroke-width="0.5" stroke="blue" />
<line x1="111.32722475960588" y1="-74.46426002909527" x2="118.6482482245006" y2="-80.47956017474948" stroke-width="0.5" stroke="blue" />
<line x1="111.32722475960588" y1="-60.60356912716802" x2="121.0786962149003" y2="-60.60356899396479" stroke-width="0.5" stroke="blue" />
<line x1="54.93360403959962" y1="-170.8547398567778" x2="62.59655717091444" y2="-171.57466009647243" stroke-width="0.5" stroke="blue" />
<line x1="-4.788439133858773" y1="-163.14303525726112" x2="-6.325865753757215" y2="-172.68124721235924" stroke-width="0.5" stroke="blue" />
<line x1="-4.788439133858773" y1="-145.14303525726112" x2="-5.224086026535737" y2="-135.62654534768774" stroke-width="0.5" stroke="blue" />
<line x1="-135.00816727220504" y1="47.1875301980875" x2="-147.8374271286024" y2="47.18753141493338" stroke-width="0.5" stroke="blue" />
<line x1="-134.1923663714137" y1="33.589227973007944" x2="-134.19236332978247" y2="22.192705906435705" stroke-width="0.5" stroke="blue" />
<line x1="-129.44855516423942" y1="57.589227973007944" x2="-129.4485635727815" y2="73.12374326546849" stroke-width="0.5" stroke="blue" />
<line x1="-130.2428943024059" y1="-25.21080417867708" x2="-139.76788840222" y2="-28.214534746049864" stroke-width="0.5" stroke="blue" />
<line x1="-6.290881779203236" y1="44.41338221479877" x2="4.8312764557097" y2="40.63194242621222" stroke-width="0.5" stroke="blue" />
<line x1="-15.321794657689027" y1="62.41338221479877" x2="-15.321786424498804" y2="74.04828659249472" stroke-width="0.5" stroke="blue" />
<line x1="-6.290881779203236" y1="62.41338221479877" x2="5.171503654841112" y2="72.1189986732286" stroke-width="0.5" stroke="blue" />
<line x1="-73.75794547896405" y1="64.29254544314843" x2="-87.2381162702067" y2="64.29254202413703" stroke-width="0.5" stroke="blue" />
<line x1="-73.75794547896405" y1="75.52217326030289" x2="-83.40756301240988" y2="76.80208106003172" stroke-width="0.5" stroke="blue" />
<line x1="-65.9324303917124" y1="75.52217326030289" x2="-65.9324260316603" y2="89.15438154598618" stroke-width="0.5" stroke="blue" />
<line x1="137.25396375615313" y1="-200.92558041466367" x2="142.7892841053551" y2="-208.34538742625736" stroke-width="0.5" stroke="blue" />
<line x1="125.25396375615313" y1="-200.92558041466367" x2="122.29536884943998" y2="-212.39575862856046" stroke-width="0.5" stroke="blue" />
<line x1="137.25396375615313" y1="-188.92558041466367" x2="146.6030818284027" y2="-181.0577947404459" stroke-width="0.5" stroke="blue" />
<line x1="130.1954682668443" y1="-15.164825725829346" x2="139.71054828380252" y2="-13.670077451615885" stroke-width="0.5" stroke="blue" />
<line x1="130.1954682668443" y1="-27.869274426238473" x2="141.85472963188968" y2="-27.869275057937404" stroke-width="0.5" stroke="blue" />
<line x1="-18.325865753757213" y1="-174.63245703064808" x2="-28.067330949080933" y2="-174.63245264660512" stroke-width="0.5" stroke="blue" />
<line x1="-16.86771074391058" y1="-184.68124721235924" x2="-16.867703588360122" y2="-194.36702972476357" stroke-width="0.5" stroke="blue" />
<line x1="-155.57731458929243" y1="49.505890069315704" x2="-155.5772880383024" y2="57.301548915832406" stroke-width="0.5" stroke="blue" />
<line x1="-171.8374271286024" y1="37.505890069315704" x2="-173.11803043618792" y2="29.783292628492763" stroke-width="0.5" stroke="blue" />
<line x1="-171.8374271286024" y1="49.505890069315704" x2="-183.403239354596" y2="52.75982805733934" stroke-width="0.5" stroke="blue" />
<line x1="-135.88895146481588" y1="97.12374326546849" x2="-147.24642115011565" y2="99.46994392022337" stroke-width="0.5" stroke="blue" />
<line x1="-135.88895146481588" y1="88.33280106860411" x2="-147.49998583245196" y2="88.33280032675712" stroke-width="0.5" stroke="blue" />
<line x1="-129.38452076695074" y1="97.12374326546849" x2="-129.38451846375273" y2="108.82477817296636" stroke-width="0.5" stroke="blue" />
<line x1="-157.76788840222" y1="-46.214534746049864" x2="-167.2479158518116" y2="-48.142402423693355" stroke-width="0.5" stroke="blue" />
<line x1="-157.76788840222" y1="-28.214534746049864" x2="-159.3762092308426" y2="-18.747481789879664" stroke-width="0.5" stroke="blue" />
<line x1="-139.76788840222" y1="-46.214534746049864" x2="-130.25861866099993" y2="-46.846514832056926" stroke-width="0.5" stroke="blue" />
<line x1="22.8312764557097" y1="40.63194242621222" x2="34.14668026033775" y2="41.95212122595356" stroke-width="0.5" stroke="blue" />
<line x1="17.703541663546176" y1="22.631942426212216" x2="17.703540041922327" y2="12.900692266410566" stroke-width="0.5" stroke="blue" />
<line x1="22.8312764557097" y1="26.349774294952503" x2="34.43099221508571" y2="26.349779840198522" stroke-width="0.5" stroke="blue" />
<line x1="-6.352699302984595" y1="92.04828659249472" x2="13.976771726522145" y2="103.66834523779002" stroke-width="0.5" stroke="blue" />
<line x1="-6.352699302984595" y1="92.04828659249472" x2="-5.7846095231399115" y2="105.19224059273269" stroke-width="0.5" stroke="blue" />
<line x1="5.171503654841112" y1="90.1189986732286" x2="-13.547690958306035" y2="105.57134208307151" stroke-width="0.5" stroke="blue" />
<line x1="17.710733311826964" y1="72.1189986732286" x2="17.710731442040913" y2="62.42312738462587" stroke-width="0.5" stroke="blue" />
<line x1="-107.29626843354117" y1="65.06291420698292" x2="-107.29626621033316" y2="76.6644686244959" stroke-width="0.5" stroke="blue" />
<line x1="-107.14698565209765" y1="53.06291420698293" x2="-107.14697605419518" y2="45.2858769337263" stroke-width="0.5" stroke="blue" />
<line x1="-75.59895727208723" y1="113.15438154598618" x2="-83.1584090076503" y2="116.50183258859056" stroke-width="0.5" stroke="blue" />
<line x1="-63.59895727208723" y1="100.1256355323166" x2="-53.925617803366336" y2="100.12563599848755" stroke-width="0.5" stroke="blue" />
<line x1="-63.59895727208723" y1="113.15438154598618" x2="-54.238461525104015" y2="116.88389828145901" stroke-width="0.5" stroke="blue" />
<line x1="166.7892841053551" y1="-208.34538742625736" x2="167.7002815886563" y2="-200.7807199612199" stroke-width="0.5" stroke="blue" />
<line x1="166.7892841053551" y1="-220.34538742625736" x2="171.54393499399242" y2="-229.63109676468306" stroke-width="0.5" stroke="blue" />
<line x1="122.29536884943998" y1="-232.27488675384072" x2="133.85517279846988" y2="-232.27488677579134" stroke-width="0.5" stroke="blue" />
<line x1="122.29536884943998" y1="-236.39575862856046" x2="122.655117817523" y2="-249.83790965096114" stroke-width="0.5" stroke="blue" />
<line x1="157.71054828380252" y1="-8.904091650988569" x2="167.44996242199196" y2="-8.90408427406301" stroke-width="0.5" stroke="blue" />
<line x1="157.71054828380252" y1="4.329922548384115" x2="169.00962717402243" y2="5.748904875619944" stroke-width="0.5" stroke="blue" />
<line x1="-46.06733094908093" y1="-182.58366246489345" x2="-47.24977818774103" y2="-192.09151817183047" stroke-width="0.5" stroke="blue" />
<line x1="-33.40954857851332" y1="-212.36702972476357" x2="-33.85909981606812" y2="-221.90244148126337" stroke-width="0.5" stroke="blue" />
<line x1="-15.409548578513323" y1="-212.36702972476357" x2="-5.905474404062552" y2="-213.27246685265752" stroke-width="0.5" stroke="blue" />
<line x1="-155.68455854911366" y1="64.44552429488095" x2="-163.49907845292074" y2="64.44553379463179" stroke-width="0.5" stroke="blue" />
<line x1="-195.403239354596" y1="54.984891756601876" x2="-205.08204535030637" y2="54.98488689369652" stroke-width="0.5" stroke="blue" />
<line x1="-189.31603416309238" y1="64.75982805733935" x2="-189.31603471799014" y2="76.40444494112725" stroke-width="0.5" stroke="blue" />
<line x1="-195.403239354596" y1="64.75982805733935" x2="-204.96541103791878" y2="68.65607086954445" stroke-width="0.5" stroke="blue" />
<line x1="-171.24642115011565" y1="111.46994392022337" x2="-184.27300618659294" y2="114.18299119499386" stroke-width="0.5" stroke="blue" />
<line x1="-166.87494496774937" y1="111.46994392022337" x2="-166.87494133176313" y2="123.0804289948237" stroke-width="0.5" stroke="blue" />
<line x1="-128.86004132772965" y1="120.82477817296636" x2="-128.86003937535156" y2="132.48667388077703" stroke-width="0.5" stroke="blue" />
<line x1="-134.8800877658876" y1="120.82477817296636" x2="-142.63988446371036" y2="123.25998647092143" stroke-width="0.5" stroke="blue" />
<line x1="-122.8800877658876" y1="120.82477817296636" x2="-115.04459937547297" y2="121.41973006088497" stroke-width="0.5" stroke="blue" />
<line x1="-173.25820701097507" y1="-60.142402423693355" x2="-173.25821137756327" y2="-71.80204917094035" stroke-width="0.5" stroke="blue" />
<line x1="-179.2479158518116" y1="-60.142402423693355" x2="-188.97429877497697" y2="-60.502222768188986" stroke-width="0.5" stroke="blue" />
<line x1="-167.2479158518116" y1="-60.142402423693355" x2="-159.45288612328747" y2="-60.53976332684604" stroke-width="0.5" stroke="blue" />
<line x1="-183.3762092308426" y1="-18.747481789879664" x2="-184.25882112889812" y2="-26.408101407886797" stroke-width="0.5" stroke="blue" />
</svg>