<svg width="100%" height="100%" viewBox="-282.969 -271.32 564.656 534.792"  xmlns="http://www.w3.org/2000/svg" xmlns:xlink="http://www.w3.org/1999/xlink" version="1.1">
<rect x="-166.4" y="79.6494" width="80" height="80" fill="yellow" stroke="black" stroke-width="0.5"><title>room 0</title></rect><rect x="-103.65" y="94.3994" width="2.5" height="2.5" fill="red" stroke="black" stroke-width="0.5"></rect><rect x="-151.65" y="112.762" width="2.5" height="2.5" fill="red" stroke="black" stroke-width="0.5"></rect><rect x="-151.65" y="142.399" width="2.5" height="2.5" fill="red" stroke="black" stroke-width="0.5"></rect><rect x="-151.65" y="94.3994" width="2.5" height="2.5" fill="red" stroke="black" stroke-width="0.5"></rect><rect x="-151.65" y="142.399" width="2.5" height="2.5" fill="red" stroke="black" stroke-width="0.5"></rect>
<rect x="-98.7443" y="25.4655" width="20" height="40" fill="yellow" stroke="black" stroke-width="0.5"><title>room 1</title></rect><rect x="-95.9943" y="56.2155" width="2.5" height="2.5" fill="red" stroke="black" stroke-width="0.5"></rect><rect x="-83.9943" y="32.2155" width="2.5" height="2.5" fill="red" stroke="black" stroke-width="0.5"></rect><rect x="-95.9943" y="44.0512" width="2.5" height="2.5" fill="red" stroke="black" stroke-width="0.5"></rect>
<rect x="-74.0095" y="-13.8392" width="30" height="30" fill="yellow" stroke="black" stroke-width="0.5"><title>room 2</title></rect><rect x="-69.2595" y="8.9108" width="2.5" height="2.5" fill="red" stroke="black" stroke-width="0.5"></rect><rect x="-69.2595" y="-9.0892" width="2.5" height="2.5" fill="red" stroke="black" stroke-width="0.5"></rect><rect x="-51.2595" y="8.9108" width="2.5" height="2.5" fill="red" stroke="black" stroke-width="0.5"></rect><rect x="-51.2595" y="-9.0892" width="2.5" height="2.5" fill="red" stroke="black" stroke-width="0.5"></rect><rect x="-69.2595" y="4.83154" width="2.5" height="2.5" fill="red" stroke="black" stroke-width="0.5"></rect><rect x="-69.2595" y="-9.0892" width="2.5" height="2.5" fill="red" stroke="black" stroke-width="0.5"></rect>
<rect x="-104.107" y="-63.1698" width="30" height="30" fill="yellow" stroke="black" stroke-width="0.5"><title>room 3</title></rect><rect x="-81.3566" y="-40.4198" width="2.5" height="2.5" fill="red" stroke="black" stroke-width="0.5"></rect><rect x="-99.3566" y="-58.4198" width="2.5" height="2.5" fill="red" stroke="black" stroke-width="0.5"></rect><rect x="-82.5476" y="-58.4198" width="2.5" height="2.5" fill="red" stroke="black" stroke-width="0.5"></rect><rect x="-81.3566" y="-45.0272" width="2.5" height="2.5" fill="red" stroke="black" stroke-width="0.5"></rect>
<rect x="-130.087" y="-79.9272" width="20" height="20" fill="yellow" stroke="black" stroke-width="0.5"><title>room 4</title></rect><rect x="-115.337" y="-65.1772" width="2.5" height="2.5" fill="red" stroke="black" stroke-width="0.5"></rect><rect x="-127.337" y="-77.1772" width="2.5" height="2.5" fill="red" stroke="black" stroke-width="0.5"></rect><rect x="-127.337" y="-65.1772" width="2.5" height="2.5" fill="red" stroke="black" stroke-width="0.5"></rect><rect x="-116.625" y="-77.1772" width="2.5" height="2.5" fill="red" stroke="black" stroke-width="0.5"></rect><rect x="-127.337" y="-71.1999" width="2.5" height="2.5" fill="red" stroke="black" stroke-width="0.5"></rect>
<rect x="-46.5444" y="23.7326" width="40" height="20" fill="yellow" stroke="black" stroke-width="0.5"><title>room 5</title></rect><rect x="-39.7944" y="26.4826" width="2.5" height="2.5" fill="red" stroke="black" stroke-width="0.5"></rect><rect x="-15.7944" y="38.4826" width="2.5" height="2.5" fill="red" stroke="black" stroke-width="0.5"></rect><rect x="-39.7944" y="38.4826" width="2.5" height="2.5" fill="red" stroke="black" stroke-width="0.5"></rect>
<rect x="1.93184" y="49.0285" width="30" height="30" fill="yellow" stroke="black" stroke-width="0.5"><title>room 6</title></rect><rect x="6.68184" y="53.7785" width="2.5" height="2.5" fill="red" stroke="black" stroke-width="0.5"></rect><rect x="24.6818" y="61.1529" width="2.5" height="2.5" fill="red" stroke="black" stroke-width="0.5"></rect><rect x="20.1001" y="53.7785" width="2.5" height="2.5" fill="red" stroke="black" stroke-width="0.5"></rect><rect x="20.2283" y="71.7785" width="2.5" height="2.5" fill="red" stroke="black" stroke-width="0.5"></rect><rect x="6.68184" y="71.7785" width="2.5" height="2.5" fill="red" stroke="black" stroke-width="0.5"></rect><rect x="24.6818" y="71.7785" width="2.5" height="2.5" fill="red" stroke="black" stroke-width="0.5"></rect>
<rect x="-40.6253" y="-42.3804" width="40" height="20" fill="yellow" stroke="black" stroke-width="0.5"><title>room 7</title></rect><rect x="-33.8753" y="-27.6304" width="2.5" height="2.5" fill="red" stroke="black" stroke-width="0.5"></rect><rect x="-9.87534" y="-39.6304" width="2.5" height="2.5" fill="red" stroke="black" stroke-width="0.5"></rect><rect x="-31.085" y="-39.6304" width="2.5" height="2.5" fill="red" stroke="black" stroke-width="0.5"></rect>
<rect x="10.1559" y="-76.6192" width="40" height="20" fill="yellow" stroke="black" stroke-width="0.5"><title>room 8</title></rect><rect x="16.9059" y="-61.8692" width="2.5" height="2.5" fill="red" stroke="black" stroke-width="0.5"></rect><rect x="40.9059" y="-61.8692" width="2.5" height="2.5" fill="red" stroke="black" stroke-width="0.5"></rect><rect x="16.9059" y="-73.8692" width="2.5" height="2.5" fill="red" stroke="black" stroke-width="0.5"></rect><rect x="40.9059" y="-73.8692" width="2.5" height="2.5" fill="red" stroke="black" stroke-width="0.5"></rect><rect x="19.1861" y="-61.8692" width="2.5" height="2.5" fill="red" stroke="black" stroke-width="0.5"></rect><rect x="40.9059" y="-73.8692" width="2.5" height="2.5" fill="red" stroke="black" stroke-width="0.5"></rect><rect x="21.7352" y="-73.8692" width="2.5" height="2.5" fill="red" stroke="black" stroke-width="0.5"></rect>
<rect x="56.23" y="-39.7271" width="20" height="20" fill="yellow" stroke="black" stroke-width="0.5"><title>room 9</title></rect><rect x="58.98" y="-36.9771" width="2.5" height="2.5" fill="red" stroke="black" stroke-width="0.5"></rect><rect x="70.98" y="-30.9547" width="2.5" height="2.5" fill="red" stroke="black" stroke-width="0.5"></rect><rect x="70.98" y="-24.9771" width="2.5" height="2.5" fill="red" stroke="black" stroke-width="0.5"></rect><rect x="58.98" y="-24.9771" width="2.5" height="2.5" fill="red" stroke="black" stroke-width="0.5"></rect><rect x="70.98" y="-36.9771" width="2.5" height="2.5" fill="red" stroke="black" stroke-width="0.5"></rect>
<rect x="-73.8239" y="33.6946" width="20" height="40" fill="yellow" stroke="black" stroke-width="0.5"><title>room 10</title></rect><rect x="-59.0739" y="40.4446" width="2.5" height="2.5" fill="red" stroke="black" stroke-width="0.5"></rect><rect x="-59.3854" y="64.4446" width="2.5" height="2.5" fill="red" stroke="black" stroke-width="0.5"></rect><rect x="-59.0739" y="61.6136" width="2.5" height="2.5" fill="red" stroke="black" stroke-width="0.5"></rect>
<rect x="-43.0446" y="-67.2593" width="20" height="20" fill="yellow" stroke="black" stroke-width="0.5"><title>room 11</title></rect><rect x="-31.085" y="-52.5093" width="2.5" height="2.5" fill="red" stroke="black" stroke-width="0.5"></rect><rect x="-40.2946" y="-64.5093" width="2.5" height="2.5" fill="red" stroke="black" stroke-width="0.5"></rect>
<rect x="-55.3315" y="-92.1225" width="20" height="20" fill="yellow" stroke="black" stroke-width="0.5"><title>room 12</title></rect><rect x="-40.5815" y="-77.3725" width="2.5" height="2.5" fill="red" stroke="black" stroke-width="0.5"></rect>
<rect x="-148.837" y="-114.036" width="20" height="20" fill="yellow" stroke="black" stroke-width="0.5"><title>room 13</title></rect><rect x="-134.087" y="-99.2858" width="2.5" height="2.5" fill="red" stroke="black" stroke-width="0.5"></rect><rect x="-146.087" y="-111.286" width="2.5" height="2.5" fill="red" stroke="black" stroke-width="0.5"></rect><rect x="-140.016" y="-111.286" width="2.5" height="2.5" fill="red" stroke="black" stroke-width="0.5"></rect>
<rect x="-123.65" y="25.1369" width="20" height="40" fill="yellow" stroke="black" stroke-width="0.5"><title>room 14</title></rect><rect x="-108.9" y="44.0512" width="2.5" height="2.5" fill="red" stroke="black" stroke-width="0.5"></rect>
<rect x="-28.5722" y="-103.342" width="30" height="30" fill="yellow" stroke="black" stroke-width="0.5"><title>room 15</title></rect><rect x="-5.82225" y="-80.5918" width="2.5" height="2.5" fill="red" stroke="black" stroke-width="0.5"></rect><rect x="-22.8749" y="-98.5918" width="2.5" height="2.5" fill="red" stroke="black" stroke-width="0.5"></rect>
<rect x="-86.4885" y="-111.698" width="20" height="40" fill="yellow" stroke="black" stroke-width="0.5"><title>room 16</title></rect><rect x="-82.5476" y="-80.9484" width="2.5" height="2.5" fill="red" stroke="black" stroke-width="0.5"></rect><rect x="-71.7385" y="-104.948" width="2.5" height="2.5" fill="red" stroke="black" stroke-width="0.5"></rect>
<rect x="59.6496" y="-126.752" width="40" height="20" fill="yellow" stroke="black" stroke-width="0.5"><title>room 17</title></rect><rect x="66.3996" y="-112.002" width="2.5" height="2.5" fill="red" stroke="black" stroke-width="0.5"></rect><rect x="90.3996" y="-124.002" width="2.5" height="2.5" fill="red" stroke="black" stroke-width="0.5"></rect><rect x="90.3996" y="-124.002" width="2.5" height="2.5" fill="red" stroke="black" stroke-width="0.5"></rect><rect x="66.3996" y="-124.002" width="2.5" height="2.5" fill="red" stroke="black" stroke-width="0.5"></rect><rect x="90.3996" y="-124.002" width="2.5" height="2.5" fill="red" stroke="black" stroke-width="0.5"></rect>
<rect x="-198.479" y="109.935" width="20" height="20" fill="yellow" stroke="black" stroke-width="0.5"><title>room 18</title></rect><rect x="-183.729" y="112.762" width="2.5" height="2.5" fill="red" stroke="black" stroke-width="0.5"></rect><rect x="-195.729" y="112.685" width="2.5" height="2.5" fill="red" stroke="black" stroke-width="0.5"></rect><rect x="-195.729" y="118.737" width="2.5" height="2.5" fill="red" stroke="black" stroke-width="0.5"></rect>
<rect x="-226.947" y="85.0717" width="40" height="20" fill="yellow" stroke="black" stroke-width="0.5"><title>room 19</title></rect><rect x="-196.197" y="99.8217" width="2.5" height="2.5" fill="red" stroke="black" stroke-width="0.5"></rect>
<rect x="40.4298" y="47.7773" width="40" height="20" fill="yellow" stroke="black" stroke-width="0.5"><title>room 20</title></rect><rect x="47.1798" y="61.1529" width="2.5" height="2.5" fill="red" stroke="black" stroke-width="0.5"></rect><rect x="71.1798" y="62.5273" width="2.5" height="2.5" fill="red" stroke="black" stroke-width="0.5"></rect>
<rect x="91.304" y="-151.505" width="20" height="20" fill="yellow" stroke="black" stroke-width="0.5"><title>room 21</title></rect><rect x="94.054" y="-136.755" width="2.5" height="2.5" fill="red" stroke="black" stroke-width="0.5"></rect><rect x="94.054" y="-148.755" width="2.5" height="2.5" fill="red" stroke="black" stroke-width="0.5"></rect><rect x="106.054" y="-148.755" width="2.5" height="2.5" fill="red" stroke="black" stroke-width="0.5"></rect><rect x="106.054" y="-136.755" width="2.5" height="2.5" fill="red" stroke="black" stroke-width="0.5"></rect><rect x="106.054" y="-136.755" width="2.5" height="2.5" fill="red" stroke="black" stroke-width="0.5"></rect><rect x="94.054" y="-146.08" width="2.5" height="2.5" fill="red" stroke="black" stroke-width="0.5"></rect>
<rect x="6.71619" y="-51.7548" width="20" height="20" fill="yellow" stroke="black" stroke-width="0.5"><title>room 22</title></rect><rect x="19.1861" y="-49.0048" width="2.5" height="2.5" fill="red" stroke="black" stroke-width="0.5"></rect>
<rect x="92.4704" y="-187.589" width="30" height="30" fill="yellow" stroke="black" stroke-width="0.5"><title>room 23</title></rect><rect x="97.2204" y="-164.839" width="2.5" height="2.5" fill="red" stroke="black" stroke-width="0.5"></rect><rect x="97.2204" y="-182.839" width="2.5" height="2.5" fill="red" stroke="black" stroke-width="0.5"></rect><rect x="114.014" y="-182.839" width="2.5" height="2.5" fill="red" stroke="black" stroke-width="0.5"></rect>
<rect x="8.76839" y="22.936" width="40" height="20" fill="yellow" stroke="black" stroke-width="0.5"><title>room 24</title></rect><rect x="20.1001" y="37.686" width="2.5" height="2.5" fill="red" stroke="black" stroke-width="0.5"></rect>
<rect x="-184.89" y="-135.386" width="30" height="30" fill="yellow" stroke="black" stroke-width="0.5"><title>room 25</title></rect><rect x="-162.14" y="-112.636" width="2.5" height="2.5" fill="red" stroke="black" stroke-width="0.5"></rect><rect x="-180.14" y="-130.636" width="2.5" height="2.5" fill="red" stroke="black" stroke-width="0.5"></rect>
<rect x="30.4633" y="-187.426" width="30" height="30" fill="yellow" stroke="black" stroke-width="0.5"><title>room 26</title></rect><rect x="53.2133" y="-164.676" width="2.5" height="2.5" fill="red" stroke="black" stroke-width="0.5"></rect>
<rect x="-36.6776" y="-129.424" width="20" height="20" fill="yellow" stroke="black" stroke-width="0.5"><title>room 27</title></rect><rect x="-22.8749" y="-114.674" width="2.5" height="2.5" fill="red" stroke="black" stroke-width="0.5"></rect><rect x="-33.9276" y="-126.674" width="2.5" height="2.5" fill="red" stroke="black" stroke-width="0.5"></rect>
<rect x="81.1427" y="-39.6824" width="20" height="20" fill="yellow" stroke="black" stroke-width="0.5"><title>room 28</title></rect><rect x="83.8927" y="-30.9547" width="2.5" height="2.5" fill="red" stroke="black" stroke-width="0.5"></rect><rect x="95.8927" y="-24.9324" width="2.5" height="2.5" fill="red" stroke="black" stroke-width="0.5"></rect>
<rect x="-49.2173" y="-154.291" width="20" height="20" fill="yellow" stroke="black" stroke-width="0.5"><title>room 29</title></rect><rect x="-34.4673" y="-139.541" width="2.5" height="2.5" fill="red" stroke="black" stroke-width="0.5"></rect><rect x="-46.4673" y="-151.541" width="2.5" height="2.5" fill="red" stroke="black" stroke-width="0.5"></rect>
<rect x="58.4948" y="-100.652" width="30" height="30" fill="yellow" stroke="black" stroke-width="0.5"><title>room 30</title></rect><rect x="63.2448" y="-77.9023" width="2.5" height="2.5" fill="red" stroke="black" stroke-width="0.5"></rect>
<rect x="-223.389" y="110.038" width="20" height="20" fill="yellow" stroke="black" stroke-width="0.5"><title>room 31</title></rect><rect x="-208.639" y="118.737" width="2.5" height="2.5" fill="red" stroke="black" stroke-width="0.5"></rect><rect x="-220.639" y="118.781" width="2.5" height="2.5" fill="red" stroke="black" stroke-width="0.5"></rect>
<rect x="19.1315" y="-151.315" width="40" height="20" fill="yellow" stroke="black" stroke-width="0.5"><title>room 32</title></rect><rect x="49.8815" y="-136.565" width="2.5" height="2.5" fill="red" stroke="black" stroke-width="0.5"></rect><rect x="25.8815" y="-148.565" width="2.5" height="2.5" fill="red" stroke="black" stroke-width="0.5"></rect>
<rect x="81.11" y="-12.3654" width="20" height="40" fill="yellow" stroke="black" stroke-width="0.5"><title>room 33</title></rect><rect x="83.86" y="-5.61543" width="2.5" height="2.5" fill="red" stroke="black" stroke-width="0.5"></rect><rect x="95.86" y="18.3846" width="2.5" height="2.5" fill="red" stroke="black" stroke-width="0.5"></rect>
<rect x="-158.618" y="-51.8881" width="40" height="20" fill="yellow" stroke="black" stroke-width="0.5"><title>room 34</title></rect><rect x="-127.868" y="-49.1381" width="2.5" height="2.5" fill="red" stroke="black" stroke-width="0.5"></rect>
<rect x="-71.7241" y="80.9834" width="40" height="20" fill="yellow" stroke="black" stroke-width="0.5"><title>room 35</title></rect><rect x="-59.3854" y="83.7334" width="2.5" height="2.5" fill="red" stroke="black" stroke-width="0.5"></rect><rect x="-62.0944" y="95.7334" width="2.5" height="2.5" fill="red" stroke="black" stroke-width="0.5"></rect>
<rect x="106.015" y="-27.5158" width="20" height="20" fill="yellow" stroke="black" stroke-width="0.5"><title>room 36</title></rect><rect x="108.765" y="-24.7658" width="2.5" height="2.5" fill="red" stroke="black" stroke-width="0.5"></rect><rect x="120.765" y="-13.6568" width="2.5" height="2.5" fill="red" stroke="black" stroke-width="0.5"></rect>
<rect x="13.0248" y="87.5761" width="20" height="40" fill="yellow" stroke="black" stroke-width="0.5"><title>room 37</title></rect><rect x="20.2283" y="94.3261" width="2.5" height="2.5" fill="red" stroke="black" stroke-width="0.5"></rect><rect x="27.7748" y="118.326" width="2.5" height="2.5" fill="red" stroke="black" stroke-width="0.5"></rect><rect x="15.7748" y="118.326" width="2.5" height="2.5" fill="red" stroke="black" stroke-width="0.5"></rect>
<rect x="-100.117" y="-1.99771" width="20" height="20" fill="yellow" stroke="black" stroke-width="0.5"><title>room 38</title></rect><rect x="-85.3667" y="4.83154" width="2.5" height="2.5" fill="red" stroke="black" stroke-width="0.5"></rect><rect x="-97.3667" y="6.66097" width="2.5" height="2.5" fill="red" stroke="black" stroke-width="0.5"></rect>
<rect x="-198.08" y="144.072" width="20" height="40" fill="yellow" stroke="black" stroke-width="0.5"><title>room 39</title></rect><rect x="-183.33" y="150.822" width="2.5" height="2.5" fill="red" stroke="black" stroke-width="0.5"></rect><rect x="-195.33" y="150.822" width="2.5" height="2.5" fill="red" stroke="black" stroke-width="0.5"></rect><rect x="-195.33" y="174.822" width="2.5" height="2.5" fill="red" stroke="black" stroke-width="0.5"></rect><rect x="-183.33" y="174.822" width="2.5" height="2.5" fill="red" stroke="black" stroke-width="0.5"></rect>
<rect x="-245.303" y="134.998" width="40" height="20" fill="yellow" stroke="black" stroke-width="0.5"><title>room 40</title></rect><rect x="-214.553" y="149.748" width="2.5" height="2.5" fill="red" stroke="black" stroke-width="0.5"></rect>
<rect x="118.645" y="-151.66" width="40" height="20" fill="yellow" stroke="black" stroke-width="0.5"><title>room 41</title></rect><rect x="125.395" y="-136.91" width="2.5" height="2.5" fill="red" stroke="black" stroke-width="0.5"></rect><rect x="149.395" y="-142.901" width="2.5" height="2.5" fill="red" stroke="black" stroke-width="0.5"></rect><rect x="149.395" y="-148.91" width="2.5" height="2.5" fill="red" stroke="black" stroke-width="0.5"></rect><rect x="149.395" y="-136.91" width="2.5" height="2.5" fill="red" stroke="black" stroke-width="0.5"></rect>
<rect x="4.31948" y="-198.414" width="20" height="40" fill="yellow" stroke="black" stroke-width="0.5"><title>room 42</title></rect><rect x="19.0695" y="-167.664" width="2.5" height="2.5" fill="red" stroke="black" stroke-width="0.5"></rect>
<rect x="-61.6352" y="-120.74" width="20" height="20" fill="yellow" stroke="black" stroke-width="0.5"><title>room 43</title></rect><rect x="-58.8852" y="-105.99" width="2.5" height="2.5" fill="red" stroke="black" stroke-width="0.5"></rect><rect x="-58.8852" y="-117.99" width="2.5" height="2.5" fill="red" stroke="black" stroke-width="0.5"></rect>
<rect x="7.52133" y="-101.503" width="20" height="20" fill="yellow" stroke="black" stroke-width="0.5"><title>room 44</title></rect><rect x="21.7352" y="-86.7535" width="2.5" height="2.5" fill="red" stroke="black" stroke-width="0.5"></rect><rect x="16.2078" y="-98.7535" width="2.5" height="2.5" fill="red" stroke="black" stroke-width="0.5"></rect><rect x="22.2713" y="-95.9805" width="2.5" height="2.5" fill="red" stroke="black" stroke-width="0.5"></rect>
<rect x="-148.695" y="-161.351" width="20" height="40" fill="yellow" stroke="black" stroke-width="0.5"><title>room 45</title></rect><rect x="-140.016" y="-130.601" width="2.5" height="2.5" fill="red" stroke="black" stroke-width="0.5"></rect><rect x="-145.945" y="-154.601" width="2.5" height="2.5" fill="red" stroke="black" stroke-width="0.5"></rect>
<rect x="-175.434" y="36.6503" width="30" height="30" fill="yellow" stroke="black" stroke-width="0.5"><title>room 46</title></rect><rect x="-152.684" y="59.4003" width="2.5" height="2.5" fill="red" stroke="black" stroke-width="0.5"></rect>
<rect x="-173.309" y="173.6" width="20" height="40" fill="yellow" stroke="black" stroke-width="0.5"><title>room 47</title></rect><rect x="-158.559" y="180.35" width="2.5" height="2.5" fill="red" stroke="black" stroke-width="0.5"></rect><rect x="-170.559" y="204.35" width="2.5" height="2.5" fill="red" stroke="black" stroke-width="0.5"></rect>
<rect x="-222.932" y="174.451" width="20" height="20" fill="yellow" stroke="black" stroke-width="0.5"><title>room 48</title></rect><rect x="-208.182" y="177.201" width="2.5" height="2.5" fill="red" stroke="black" stroke-width="0.5"></rect><rect x="-220.182" y="189.201" width="2.5" height="2.5" fill="red" stroke="black" stroke-width="0.5"></rect><rect x="-220.182" y="177.201" width="2.5" height="2.5" fill="red" stroke="black" stroke-width="0.5"></rect>
<rect x="31.3753" y="-30.9451" width="20" height="40" fill="yellow" stroke="black" stroke-width="0.5"><title>room 49</title></rect><rect x="46.1253" y="-24.1951" width="2.5" height="2.5" fill="red" stroke="black" stroke-width="0.5"></rect><rect x="34.1253" y="-8.92101" width="2.5" height="2.5" fill="red" stroke="black" stroke-width="0.5"></rect><rect x="46.1253" y="-0.195085" width="2.5" height="2.5" fill="red" stroke="black" stroke-width="0.5"></rect>
<rect x="-73.9647" y="105.874" width="20" height="20" fill="yellow" stroke="black" stroke-width="0.5"><title>room 50</title></rect><rect x="-62.0944" y="108.624" width="2.5" height="2.5" fill="red" stroke="black" stroke-width="0.5"></rect>
<rect x="132.089" y="-19.2979" width="30" height="30" fill="yellow" stroke="black" stroke-width="0.5"><title>room 51</title></rect><rect x="136.839" y="-13.6568" width="2.5" height="2.5" fill="red" stroke="black" stroke-width="0.5"></rect>
<rect x="21.6348" y="134.824" width="40" height="20" fill="yellow" stroke="black" stroke-width="0.5"><title>room 52</title></rect><rect x="28.3848" y="137.574" width="2.5" height="2.5" fill="red" stroke="black" stroke-width="0.5"></rect><rect x="52.3848" y="149.574" width="2.5" height="2.5" fill="red" stroke="black" stroke-width="0.5"></rect>
<rect x="165.979" y="-151.642" width="20" height="20" fill="yellow" stroke="black" stroke-width="0.5"><title>room 53</title></rect><rect x="168.729" y="-142.901" width="2.5" height="2.5" fill="red" stroke="black" stroke-width="0.5"></rect><rect x="180.729" y="-136.892" width="2.5" height="2.5" fill="red" stroke="black" stroke-width="0.5"></rect><rect x="180.729" y="-148.892" width="2.5" height="2.5" fill="red" stroke="black" stroke-width="0.5"></rect><rect x="180.729" y="-142.925" width="2.5" height="2.5" fill="red" stroke="black" stroke-width="0.5"></rect>
<rect x="153.453" y="-198.897" width="20" height="40" fill="yellow" stroke="black" stroke-width="0.5"><title>room 54</title></rect><rect x="156.203" y="-168.147" width="2.5" height="2.5" fill="red" stroke="black" stroke-width="0.5"></rect>
<rect x="108.334" y="16.906" width="40" height="20" fill="yellow" stroke="black" stroke-width="0.5"><title>room 55</title></rect><rect x="115.084" y="19.656" width="2.5" height="2.5" fill="red" stroke="black" stroke-width="0.5"></rect><rect x="139.084" y="31.656" width="2.5" height="2.5" fill="red" stroke="black" stroke-width="0.5"></rect>
<rect x="-122.663" y="-116.004" width="30" height="30" fill="yellow" stroke="black" stroke-width="0.5"><title>room 56</title></rect><rect x="-116.625" y="-93.2537" width="2.5" height="2.5" fill="red" stroke="black" stroke-width="0.5"></rect>
<rect x="45.9189" y="159.69" width="40" height="20" fill="yellow" stroke="black" stroke-width="0.5"><title>room 57</title></rect><rect x="52.6689" y="162.44" width="2.5" height="2.5" fill="red" stroke="black" stroke-width="0.5"></rect>
<rect x="87.6601" y="56.3694" width="20" height="40" fill="yellow" stroke="black" stroke-width="0.5"><title>room 58</title></rect><rect x="90.4101" y="63.1194" width="2.5" height="2.5" fill="red" stroke="black" stroke-width="0.5"></rect>
<rect x="-125.024" y="-2.18036" width="20" height="20" fill="yellow" stroke="black" stroke-width="0.5"><title>room 59</title></rect><rect x="-110.274" y="6.66097" width="2.5" height="2.5" fill="red" stroke="black" stroke-width="0.5"></rect><rect x="-122.274" y="8.25554" width="2.5" height="2.5" fill="red" stroke="black" stroke-width="0.5"></rect>
<rect x="-23.1072" y="86.084" width="30" height="30" fill="yellow" stroke="black" stroke-width="0.5"><title>room 60</title></rect><rect x="-0.357169" y="90.834" width="2.5" height="2.5" fill="red" stroke="black" stroke-width="0.5"></rect>
<rect x="132.908" y="41.7697" width="40" height="20" fill="yellow" stroke="black" stroke-width="0.5"><title>room 61</title></rect><rect x="139.658" y="44.5197" width="2.5" height="2.5" fill="red" stroke="black" stroke-width="0.5"></rect>
<rect x="184.105" y="-126.801" width="40" height="20" fill="yellow" stroke="black" stroke-width="0.5"><title>room 62</title></rect><rect x="190.855" y="-124.051" width="2.5" height="2.5" fill="red" stroke="black" stroke-width="0.5"></rect><rect x="214.855" y="-124.051" width="2.5" height="2.5" fill="red" stroke="black" stroke-width="0.5"></rect>
<rect x="178.446" y="-176.576" width="20" height="20" fill="yellow" stroke="black" stroke-width="0.5"><title>room 63</title></rect><rect x="181.196" y="-161.826" width="2.5" height="2.5" fill="red" stroke="black" stroke-width="0.5"></rect>
<rect x="-148.445" y="174.316" width="20" height="40" fill="yellow" stroke="black" stroke-width="0.5"><title>room 64</title></rect><rect x="-145.695" y="181.066" width="2.5" height="2.5" fill="red" stroke="black" stroke-width="0.5"></rect>
<rect x="-61.7419" y="-179.157" width="20" height="20" fill="yellow" stroke="black" stroke-width="0.5"><title>room 65</title></rect><rect x="-46.9919" y="-164.407" width="2.5" height="2.5" fill="red" stroke="black" stroke-width="0.5"></rect><rect x="-58.9919" y="-176.407" width="2.5" height="2.5" fill="red" stroke="black" stroke-width="0.5"></rect>
<rect x="128.54" y="-176.566" width="20" height="20" fill="yellow" stroke="black" stroke-width="0.5"><title>room 66</title></rect><rect x="131.29" y="-161.816" width="2.5" height="2.5" fill="red" stroke="black" stroke-width="0.5"></rect>
<rect x="39.1204" y="73.9123" width="30" height="30" fill="yellow" stroke="black" stroke-width="0.5"><title>room 67</title></rect><rect x="43.8704" y="78.6623" width="2.5" height="2.5" fill="red" stroke="black" stroke-width="0.5"></rect><rect x="61.8704" y="96.6623" width="2.5" height="2.5" fill="red" stroke="black" stroke-width="0.5"></rect>
<rect x="-166.199" y="-87.9726" width="30" height="30" fill="yellow" stroke="black" stroke-width="0.5"><title>room 68</title></rect><rect x="-143.449" y="-71.1999" width="2.5" height="2.5" fill="red" stroke="black" stroke-width="0.5"></rect>
<rect x="-222.122" y="-154.446" width="30" height="30" fill="yellow" stroke="black" stroke-width="0.5"><title>room 69</title></rect><rect x="-199.372" y="-131.696" width="2.5" height="2.5" fill="red" stroke="black" stroke-width="0.5"></rect><rect x="-217.372" y="-149.696" width="2.5" height="2.5" fill="red" stroke="black" stroke-width="0.5"></rect><rect x="-210.67" y="-149.696" width="2.5" height="2.5" fill="red" stroke="black" stroke-width="0.5"></rect>
<rect x="99.7633" y="-101.941" width="40" height="20" fill="yellow" stroke="black" stroke-width="0.5"><title>room 70</title></rect><rect x="106.513" y="-99.1911" width="2.5" height="2.5" fill="red" stroke="black" stroke-width="0.5"></rect>
<rect x="-209.356" y="200.634" width="30" height="30" fill="yellow" stroke="black" stroke-width="0.5"><title>room 71</title></rect><rect x="-186.606" y="205.384" width="2.5" height="2.5" fill="red" stroke="black" stroke-width="0.5"></rect>
<rect x="66.591" y="-224.01" width="20" height="40" fill="yellow" stroke="black" stroke-width="0.5"><title>room 72</title></rect><rect x="81.341" y="-193.26" width="2.5" height="2.5" fill="red" stroke="black" stroke-width="0.5"></rect><rect x="81.341" y="-217.26" width="2.5" height="2.5" fill="red" stroke="black" stroke-width="0.5"></rect>
<rect x="-247.757" y="187.324" width="20" height="40" fill="yellow" stroke="black" stroke-width="0.5"><title>room 73</title></rect><rect x="-233.007" y="194.074" width="2.5" height="2.5" fill="red" stroke="black" stroke-width="0.5"></rect>
<rect x="190.871" y="-151.709" width="20" height="20" fill="yellow" stroke="black" stroke-width="0.5"><title>room 74</title></rect><rect x="193.621" y="-142.925" width="2.5" height="2.5" fill="red" stroke="black" stroke-width="0.5"></rect>
<rect x="7.39436" y="-126.404" width="20" height="20" fill="yellow" stroke="black" stroke-width="0.5"><title>room 75</title></rect><rect x="16.2078" y="-111.654" width="2.5" height="2.5" fill="red" stroke="black" stroke-width="0.5"></rect>
<rect x="-247.769" y="159.94" width="20" height="20" fill="yellow" stroke="black" stroke-width="0.5"><title>room 76</title></rect><rect x="-233.019" y="174.69" width="2.5" height="2.5" fill="red" stroke="black" stroke-width="0.5"></rect>
<rect x="109.363" y="-126.8" width="40" height="20" fill="yellow" stroke="black" stroke-width="0.5"><title>room 77</title></rect><rect x="116.113" y="-124.05" width="2.5" height="2.5" fill="red" stroke="black" stroke-width="0.5"></rect>
<rect x="-248.176" y="-164.801" width="20" height="20" fill="yellow" stroke="black" stroke-width="0.5"><title>room 78</title></rect><rect x="-233.426" y="-150.051" width="2.5" height="2.5" fill="red" stroke="black" stroke-width="0.5"></rect>
<rect x="32.3653" y="-123.957" width="20" height="40" fill="yellow" stroke="black" stroke-width="0.5"><title>room 79</title></rect><rect x="35.1153" y="-95.9805" width="2.5" height="2.5" fill="red" stroke="black" stroke-width="0.5"></rect>
<rect x="-34.0721" y="122.235" width="40" height="20" fill="yellow" stroke="black" stroke-width="0.5"><title>room 80</title></rect><rect x="-3.32206" y="124.985" width="2.5" height="2.5" fill="red" stroke="black" stroke-width="0.5"></rect><rect x="-3.32206" y="136.985" width="2.5" height="2.5" fill="red" stroke="black" stroke-width="0.5"></rect>
<rect x="-248.297" y="110.025" width="20" height="20" fill="yellow" stroke="black" stroke-width="0.5"><title>room 81</title></rect><rect x="-233.547" y="118.781" width="2.5" height="2.5" fill="red" stroke="black" stroke-width="0.5"></rect>
<rect x="64.7731" y="-64.5722" width="40" height="20" fill="yellow" stroke="black" stroke-width="0.5"><title>room 82</title></rect><rect x="71.5231" y="-49.8222" width="2.5" height="2.5" fill="red" stroke="black" stroke-width="0.5"></rect>
<rect x="-5.84641" y="149.469" width="20" height="40" fill="yellow" stroke="black" stroke-width="0.5"><title>room 83</title></rect><rect x="-3.09641" y="156.219" width="2.5" height="2.5" fill="red" stroke="black" stroke-width="0.5"></rect>
<rect x="-161.13" y="-0.808566" width="30" height="30" fill="yellow" stroke="black" stroke-width="0.5"><title>room 84</title></rect><rect x="-138.38" y="8.25554" width="2.5" height="2.5" fill="red" stroke="black" stroke-width="0.5"></rect>
<rect x="91.3905" y="-238.482" width="20" height="20" fill="yellow" stroke="black" stroke-width="0.5"><title>room 85</title></rect><rect x="94.1405" y="-223.732" width="2.5" height="2.5" fill="red" stroke="black" stroke-width="0.5"></rect>
<rect x="-74.0472" y="-204.022" width="20" height="20" fill="yellow" stroke="black" stroke-width="0.5"><title>room 86</title></rect><rect x="-59.2972" y="-189.272" width="2.5" height="2.5" fill="red" stroke="black" stroke-width="0.5"></rect>
<rect x="217.015" y="-162.774" width="30" height="30" fill="yellow" stroke="black" stroke-width="0.5"><title>room 87</title></rect><rect x="221.765" y="-140.024" width="2.5" height="2.5" fill="red" stroke="black" stroke-width="0.5"></rect>
<rect x="6.48722" y="-24.3969" width="20" height="40" fill="yellow" stroke="black" stroke-width="0.5"><title>room 88</title></rect><rect x="21.2372" y="-8.921" width="2.5" height="2.5" fill="red" stroke="black" stroke-width="0.5"></rect>
<rect x="66.4572" y="-174.155" width="20" height="40" fill="yellow" stroke="black" stroke-width="0.5"><title>room 89</title></rect><rect x="81.2072" y="-146.08" width="2.5" height="2.5" fill="red" stroke="black" stroke-width="0.5"></rect>
<rect x="-223.237" y="-180.551" width="20" height="20" fill="yellow" stroke="black" stroke-width="0.5"><title>room 90</title></rect><rect x="-210.67" y="-165.801" width="2.5" height="2.5" fill="red" stroke="black" stroke-width="0.5"></rect>
<rect x="106.058" y="-213.641" width="40" height="20" fill="yellow" stroke="black" stroke-width="0.5"><title>room 91</title></rect><rect x="114.014" y="-198.891" width="2.5" height="2.5" fill="red" stroke="black" stroke-width="0.5"></rect>
<rect x="-184.744" y="-177.927" width="30" height="30" fill="yellow" stroke="black" stroke-width="0.5"><title>room 92</title></rect><rect x="-161.994" y="-155.177" width="2.5" height="2.5" fill="red" stroke="black" stroke-width="0.5"></rect>
<rect x="-68.0088" y="-62.3847" width="20" height="40" fill="yellow" stroke="black" stroke-width="0.5"><title>room 93</title></rect><rect x="-65.2588" y="-45.0272" width="2.5" height="2.5" fill="red" stroke="black" stroke-width="0.5"></rect>
<rect x="56.2055" y="-6.57383" width="20" height="40" fill="yellow" stroke="black" stroke-width="0.5"><title>room 94</title></rect><rect x="58.9555" y="0.176172" width="2.5" height="2.5" fill="red" stroke="black" stroke-width="0.5"></rect>
<rect x="55.5848" y="109.954" width="40" height="20" fill="yellow" stroke="black" stroke-width="0.5"><title>room 95</title></rect><rect x="62.3348" y="112.704" width="2.5" height="2.5" fill="red" stroke="black" stroke-width="0.5"></rect>
<rect x="156.702" y="-126.757" width="20" height="20" fill="yellow" stroke="black" stroke-width="0.5"><title>room 96</title></rect><rect x="159.452" y="-124.007" width="2.5" height="2.5" fill="red" stroke="black" stroke-width="0.5"></rect>
<rect x="-46.5947" y="56.0326" width="40" height="20" fill="yellow" stroke="black" stroke-width="0.5"><title>room 97</title></rect><rect x="-39.8447" y="61.6136" width="2.5" height="2.5" fill="red" stroke="black" stroke-width="0.5"></rect>
<rect x="-122.337" y="-27.0562" width="40" height="20" fill="yellow" stroke="black" stroke-width="0.5"><title>room 98</title></rect><rect x="-91.5867" y="-12.3062" width="2.5" height="2.5" fill="red" stroke="black" stroke-width="0.5"></rect>
<rect x="-74.1908" y="-145.602" width="20" height="20" fill="yellow" stroke="black" stroke-width="0.5"><title>room 99</title></rect><rect x="-59.4408" y="-130.852" width="2.5" height="2.5" fill="red" stroke="black" stroke-width="0.5"></rect>
<line x1="-102.40000903657287" y1="95.64941530543828" x2="-94.74428676102545" y2="57.4655035420531" stroke-width="0.5" stroke="blue" />
<line x1="-150.40000903657287" y1="114.01238144110502" x2="-182.4790638537651" y2="114.01238328102787" stroke-width="0.5" stroke="blue" />
<line x1="-150.40000903657287" y1="143.64941530543828" x2="-182.0799279472881" y2="152.07205198622657" stroke-width="0.5" stroke="blue" />
<line x1="-150.40000903657287" y1="95.64941530543828" x2="-151.4343250125224" y2="60.65032692589521" stroke-width="0.5" stroke="blue" />
<line x1="-150.40000903657287" y1="143.64941530543828" x2="-157.30899302215593" y2="181.5999251071813" stroke-width="0.5" stroke="blue" />
<line x1="-82.74428676102545" y1="33.4655035420531" x2="-68.00950574938068" y2="10.160797040496556" stroke-width="0.5" stroke="blue" />
<line x1="-94.74428676102545" y1="45.30122117185701" x2="-107.65030266687326" y2="45.30122036783806" stroke-width="0.5" stroke="blue" />
<line x1="-68.00950574938068" y1="-7.839202959503443" x2="-80.10659778065384" y2="-39.16977824023282" stroke-width="0.5" stroke="blue" />
<line x1="-50.009505749380686" y1="10.160797040496556" x2="-38.54444316865944" y2="27.732577719815858" stroke-width="0.5" stroke="blue" />
<line x1="-50.009505749380686" y1="-7.839202959503443" x2="-32.625339159572306" y2="-26.38036474370262" stroke-width="0.5" stroke="blue" />
<line x1="-68.00950574938068" y1="6.081543428328261" x2="-84.11673002318676" y2="6.081543250433954" stroke-width="0.5" stroke="blue" />
<line x1="-68.00950574938068" y1="-7.839202959503443" x2="-90.33666367887017" y2="-11.056222431404649" stroke-width="0.5" stroke="blue" />
<line x1="-98.10659778065384" y1="-57.16977824023282" x2="-114.08730344300885" y2="-63.927172099913264" stroke-width="0.5" stroke="blue" />
<line x1="-81.29755471887648" y1="-57.16977824023282" x2="-81.297557760215" y2="-79.69842999323738" stroke-width="0.5" stroke="blue" />
<line x1="-80.10659778065384" y1="-43.77723394736172" x2="-64.00880542269542" y2="-43.7772308815532" stroke-width="0.5" stroke="blue" />
<line x1="-126.08730344300885" y1="-75.92717209991326" x2="-132.83702651092014" y2="-98.03581620477682" stroke-width="0.5" stroke="blue" />
<line x1="-126.08730344300885" y1="-63.927172099913264" x2="-126.61789858994084" y2="-47.88806285215454" stroke-width="0.5" stroke="blue" />
<line x1="-115.3753911303587" y1="-75.92717209991326" x2="-115.37539019811902" y2="-92.003741544338" stroke-width="0.5" stroke="blue" />
<line x1="-126.08730344300885" y1="-69.94987847498429" x2="-142.1994860208308" y2="-69.94988059382221" stroke-width="0.5" stroke="blue" />
<line x1="-14.544443168659445" y1="39.73257771981586" x2="7.931843837865923" y2="55.028467320690694" stroke-width="0.5" stroke="blue" />
<line x1="-38.54444316865944" y1="39.73257771981586" x2="-57.82386595631812" y2="41.69460055215624" stroke-width="0.5" stroke="blue" />
<line x1="25.931843837865923" y1="62.402865315188635" x2="48.429751097535565" y2="62.402865617515516" stroke-width="0.5" stroke="blue" />
<line x1="21.350114272188453" y1="55.028467320690694" x2="21.35011955069021" y2="38.93595333796533" stroke-width="0.5" stroke="blue" />
<line x1="21.478322514708807" y1="73.0284673206907" x2="21.478321325693496" y2="95.57612321386662" stroke-width="0.5" stroke="blue" />
<line x1="7.931843837865923" y1="73.0284673206907" x2="0.8928310387668201" y2="92.0839655493108" stroke-width="0.5" stroke="blue" />
<line x1="25.931843837865923" y1="73.0284673206907" x2="45.12039877214076" y2="79.9122938157311" stroke-width="0.5" stroke="blue" />
<line x1="-8.62533915957231" y1="-38.38036474370262" x2="18.155919550663562" y2="-60.619226239450924" stroke-width="0.5" stroke="blue" />
<line x1="-29.834954387349658" y1="-38.38036474370262" x2="-29.83495493837318" y2="-51.259326338745204" stroke-width="0.5" stroke="blue" />
<line x1="42.15591955066356" y1="-60.619226239450924" x2="60.2299899503998" y2="-35.727084096608834" stroke-width="0.5" stroke="blue" />
<line x1="18.155919550663562" y1="-72.61922623945092" x2="-4.572249277140365" y2="-79.3418175028835" stroke-width="0.5" stroke="blue" />
<line x1="42.15591955066356" y1="-72.61922623945092" x2="67.64964620337746" y2="-110.7518573132636" stroke-width="0.5" stroke="blue" />
<line x1="20.436052860548184" y1="-60.619226239450924" x2="20.436052989697234" y2="-47.75476667334067" stroke-width="0.5" stroke="blue" />
<line x1="42.15591955066356" y1="-72.61922623945092" x2="64.49477116246504" y2="-76.65229865278472" stroke-width="0.5" stroke="blue" />
<line x1="22.985178670503196" y1="-72.61922623945092" x2="22.985178693405416" y2="-85.50345258367987" stroke-width="0.5" stroke="blue" />
<line x1="72.2299899503998" y1="-29.704744216212223" x2="85.14270880412906" y2="-29.704745019755848" stroke-width="0.5" stroke="blue" />
<line x1="72.2299899503998" y1="-23.727084096608834" x2="85.10995845983521" y2="-4.365432748657797" stroke-width="0.5" stroke="blue" />
<line x1="60.2299899503998" y1="-23.727084096608834" x2="47.375273259865025" y2="-22.945085403180226" stroke-width="0.5" stroke="blue" />
<line x1="72.2299899503998" y1="-35.727084096608834" x2="72.77311979098374" y2="-48.57224229290839" stroke-width="0.5" stroke="blue" />
<line x1="-58.13536219800532" y1="65.69460055215623" x2="-58.13536150011713" y2="84.98339117661223" stroke-width="0.5" stroke="blue" />
<line x1="-57.82386595631812" y1="62.8636074628995" x2="-38.594665551611435" y2="62.863607334102234" stroke-width="0.5" stroke="blue" />
<line x1="-39.044570166146016" y1="-63.259326338745204" x2="-39.33150531578531" y2="-76.12250442090166" stroke-width="0.5" stroke="blue" />
<line x1="-144.83702651092014" y1="-110.03581620477682" x2="-160.89005585613043" y2="-111.3864525277804" stroke-width="0.5" stroke="blue" />
<line x1="-138.765907724806" y1="-110.03581620477682" x2="-138.76590722755645" y2="-129.35149138787824" stroke-width="0.5" stroke="blue" />
<line x1="-21.624905292452766" y1="-97.3418175028835" x2="-21.6249016767185" y2="-113.42365645863082" stroke-width="0.5" stroke="blue" />
<line x1="-70.48851469843926" y1="-103.69842999323738" x2="-57.63520043309573" y2="-104.74039749515165" stroke-width="0.5" stroke="blue" />
<line x1="91.64964620337746" y1="-122.7518573132636" x2="95.30401541390462" y2="-135.50508417679805" stroke-width="0.5" stroke="blue" />
<line x1="91.64964620337746" y1="-122.7518573132636" x2="98.47037918504843" y2="-163.58949081403446" stroke-width="0.5" stroke="blue" />
<line x1="67.64964620337746" y1="-122.7518573132636" x2="51.13145814482779" y2="-135.31541432475916" stroke-width="0.5" stroke="blue" />
<line x1="91.64964620337746" y1="-122.7518573132636" x2="126.64544540419908" y2="-135.66039716886536" stroke-width="0.5" stroke="blue" />
<line x1="-194.4790638537651" y1="113.93500593608002" x2="-194.94654778699262" y2="101.07171067109861" stroke-width="0.5" stroke="blue" />
<line x1="-194.4790638537651" y1="119.98670466830517" x2="-207.3888295941728" y2="119.98670435774177" stroke-width="0.5" stroke="blue" />
<line x1="72.42975109753556" y1="63.777263612010174" x2="91.66005665182388" y2="64.36942392223558" stroke-width="0.5" stroke="blue" />
<line x1="95.30401541390462" y1="-147.50508417679805" x2="54.463293156959764" y2="-163.4259897294149" stroke-width="0.5" stroke="blue" />
<line x1="107.30401541390462" y1="-147.50508417679805" x2="132.53959349284818" y2="-160.5662259371429" stroke-width="0.5" stroke="blue" />
<line x1="107.30401541390462" y1="-135.50508417679805" x2="107.76331857785887" y2="-97.94105688152541" stroke-width="0.5" stroke="blue" />
<line x1="107.30401541390462" y1="-135.50508417679805" x2="117.36314876512233" y2="-122.79985575145623" stroke-width="0.5" stroke="blue" />
<line x1="95.30401541390462" y1="-144.8300948952589" x2="82.45716557173125" y2="-144.83009850863127" stroke-width="0.5" stroke="blue" />
<line x1="98.47037918504843" y1="-181.58949081403446" x2="82.59096858265968" y2="-192.00971679099433" stroke-width="0.5" stroke="blue" />
<line x1="115.26400524970829" y1="-181.58949081403446" x2="115.264005629667" y2="-197.6411363967508" stroke-width="0.5" stroke="blue" />
<line x1="-178.89005585613043" y1="-129.38645252778042" x2="-198.1221085388274" y2="-130.445780908745" stroke-width="0.5" stroke="blue" />
<line x1="-32.677557692030874" y1="-125.42365645863082" x2="-33.21728649894931" y2="-138.291319093565" stroke-width="0.5" stroke="blue" />
<line x1="97.14270880412906" y1="-23.682405139359236" x2="110.01531087605503" y2="-23.515765082914154" stroke-width="0.5" stroke="blue" />
<line x1="-45.21728649894931" y1="-150.291319093565" x2="-45.741857207623866" y2="-163.15673113325113" stroke-width="0.5" stroke="blue" />
<line x1="-219.3888295941728" y1="120.03147697603157" x2="-232.2974038119132" y2="120.03147741176068" stroke-width="0.5" stroke="blue" />
<line x1="27.13145814482779" y1="-147.31541432475916" x2="20.319482016686813" y2="-166.4142162600987" stroke-width="0.5" stroke="blue" />
<line x1="97.10995845983521" y1="19.634567251342204" x2="116.33395914605524" y2="20.90604007269309" stroke-width="0.5" stroke="blue" />
<line x1="-60.8443874065738" y1="96.98339117661223" x2="-60.84438787024377" y2="109.87414557311246" stroke-width="0.5" stroke="blue" />
<line x1="122.01531087605503" y1="-12.406837238105739" x2="138.0885642802259" y2="-12.406830543856438" stroke-width="0.5" stroke="blue" />
<line x1="29.02480000253712" y1="119.57612321386662" x2="29.634849182245283" y2="138.82435236062702" stroke-width="0.5" stroke="blue" />
<line x1="17.02480000253712" y1="119.57612321386662" x2="-2.072057778762618" y2="126.23510434025039" stroke-width="0.5" stroke="blue" />
<line x1="-96.11673002318676" y1="7.910966250499261" x2="-109.02415962947285" y2="7.910965252180143" stroke-width="0.5" stroke="blue" />
<line x1="-194.0799279472881" y1="152.07205198622657" x2="-213.30299064850658" y2="150.99843454189354" stroke-width="0.5" stroke="blue" />
<line x1="-194.0799279472881" y1="176.07205198622657" x2="-206.932121301318" y2="178.45066979862955" stroke-width="0.5" stroke="blue" />
<line x1="-182.0799279472881" y1="176.07205198622657" x2="-144.44528126658963" y2="182.31608382709086" stroke-width="0.5" stroke="blue" />
<line x1="150.64544540419908" y1="-141.65104017340826" x2="169.97852104544933" y2="-141.65104031153507" stroke-width="0.5" stroke="blue" />
<line x1="150.64544540419908" y1="-147.66039716886536" x2="157.45339298973138" y2="-166.89680036960416" stroke-width="0.5" stroke="blue" />
<line x1="150.64544540419908" y1="-135.66039716886536" x2="160.70220650311336" y2="-122.75651689326178" stroke-width="0.5" stroke="blue" />
<line x1="-57.63520043309573" y1="-116.74039749515165" x2="-58.19083685941844" y2="-129.6022713301668" stroke-width="0.5" stroke="blue" />
<line x1="17.457847671959684" y1="-97.50345258367987" x2="17.457847071972378" y2="-110.40434087562342" stroke-width="0.5" stroke="blue" />
<line x1="23.521332157524313" y1="-94.73045833700554" x2="36.3653127447987" y2="-94.7304593182171" stroke-width="0.5" stroke="blue" />
<line x1="-144.6947884414423" y1="-153.35149138787824" x2="-160.74359441453612" y2="-153.92738257766754" stroke-width="0.5" stroke="blue" />
<line x1="-169.30899302215593" y1="205.5999251071813" x2="-185.35628403030967" y2="206.63351769818848" stroke-width="0.5" stroke="blue" />
<line x1="-218.932121301318" y1="190.45066979862955" x2="-231.7565770885342" y2="195.3236024934434" stroke-width="0.5" stroke="blue" />
<line x1="-218.932121301318" y1="178.45066979862955" x2="-231.76912192018213" y2="175.9398325644755" stroke-width="0.5" stroke="blue" />
<line x1="35.375273259865025" y1="-7.6710075932960695" x2="22.487219806187934" y2="-7.670996435065202" stroke-width="0.5" stroke="blue" />
<line x1="47.375273259865025" y1="1.0549145968197742" x2="60.20553061574245" y2="1.4261722414371256" stroke-width="0.5" stroke="blue" />
<line x1="53.63484918224528" y1="150.82435236062702" x2="53.91893579391596" y2="163.69038551600158" stroke-width="0.5" stroke="blue" />
<line x1="181.97852104544933" y1="-135.64168331607797" x2="192.10518572594364" y2="-122.80050314664902" stroke-width="0.5" stroke="blue" />
<line x1="181.97852104544933" y1="-147.64168331607797" x2="182.445513419875" y2="-160.5764195650423" stroke-width="0.5" stroke="blue" />
<line x1="181.97852104544933" y1="-141.67547645215365" x2="194.87106971974072" y2="-141.67547296000765" stroke-width="0.5" stroke="blue" />
<line x1="140.33395914605524" y1="32.90604007269309" x2="140.90823956592152" y2="45.769743780408135" stroke-width="0.5" stroke="blue" />
<line x1="-121.02415962947285" y1="9.505535803639665" x2="-137.1298737594092" y2="9.505540134645734" stroke-width="0.5" stroke="blue" />
<line x1="216.10518572594364" y1="-122.80050314664902" x2="223.01502324429774" y2="-138.77363926357268" stroke-width="0.5" stroke="blue" />
<line x1="-57.741857207623866" y1="-175.15673113325113" x2="-58.04718798685636" y2="-188.02157844093037" stroke-width="0.5" stroke="blue" />
<line x1="63.12039877214076" y1="97.9122938157311" x2="63.58481674563353" y2="113.95448898332081" stroke-width="0.5" stroke="blue" />
<line x1="-216.1221085388274" y1="-148.445780908745" x2="-232.17632810086639" y2="-148.80052255680374" stroke-width="0.5" stroke="blue" />
<line x1="-209.4199949788009" y1="-148.445780908745" x2="-209.4199957719909" y2="-164.55124797674287" stroke-width="0.5" stroke="blue" />
<line x1="82.59096858265968" y1="-216.00971679099433" x2="95.39053015475353" y2="-222.48216719022167" stroke-width="0.5" stroke="blue" />
<line x1="-2.072057778762618" y1="138.2351043402504" x2="-1.8464135665578505" y2="157.4694474567352" stroke-width="0.5" stroke="blue" />
</svg>