<svg width="100%" height="100%" viewBox="-216.751 -230.8 529.383 406.377"  xmlns="http://www.w3.org/2000/svg" xmlns:xlink="http://www.w3.org/1999/xlink" version="1.1">
<rect x="50.6571" y="-52.6698" width="20" height="40" fill="yellow" stroke="black" stroke-width="0.5"><title>room 0</title></rect><rect x="53.4071" y="-21.9198" width="2.5" height="2.5" fill="red" stroke="black" stroke-width="0.5"></rect><rect x="65.4071" y="-21.9198" width="2.5" height="2.5" fill="red" stroke="black" stroke-width="0.5"></rect><rect x="53.4071" y="-45.9198" width="2.5" height="2.5" fill="red" stroke="black" stroke-width="0.5"></rect><rect x="65.4071" y="-45.9198" width="2.5" height="2.5" fill="red" stroke="black" stroke-width="0.5"></rect>
<rect x="-6.39535" y="-18.2659" width="30" height="30" fill="yellow" stroke="black" stroke-width="0.5"><title>room 1</title></rect><rect x="16.3546" y="-13.5159" width="2.5" height="2.5" fill="red" stroke="black" stroke-width="0.5"></rect><rect x="16.3546" y="4.48407" width="2.5" height="2.5" fill="red" stroke="black" stroke-width="0.5"></rect><rect x="-1.64535" y="4.48407" width="2.5" height="2.5" fill="red" stroke="black" stroke-width="0.5"></rect><rect x="-1.64535" y="-13.5159" width="2.5" height="2.5" fill="red" stroke="black" stroke-width="0.5"></rect>
<rect x="96.1685" y="-13.1334" width="30" height="30" fill="yellow" stroke="black" stroke-width="0.5"><title>room 2</title></rect><rect x="100.919" y="-8.38341" width="2.5" height="2.5" fill="red" stroke="black" stroke-width="0.5"></rect><rect x="100.919" y="9.61659" width="2.5" height="2.5" fill="red" stroke="black" stroke-width="0.5"></rect><rect x="118.919" y="-8.38341" width="2.5" height="2.5" fill="red" stroke="black" stroke-width="0.5"></rect><rect x="118.919" y="9.61659" width="2.5" height="2.5" fill="red" stroke="black" stroke-width="0.5"></rect>
<rect x="26.2131" y="-70.1694" width="20" height="20" fill="yellow" stroke="black" stroke-width="0.5"><title>room 3</title></rect><rect x="40.9631" y="-55.4194" width="2.5" height="2.5" fill="red" stroke="black" stroke-width="0.5"></rect><rect x="28.9631" y="-67.4194" width="2.5" height="2.5" fill="red" stroke="black" stroke-width="0.5"></rect>
<rect x="61.611" y="-79.7019" width="40" height="20" fill="yellow" stroke="black" stroke-width="0.5"><title>room 4</title></rect><rect x="68.361" y="-64.9519" width="2.5" height="2.5" fill="red" stroke="black" stroke-width="0.5"></rect><rect x="81.9945" y="-76.9519" width="2.5" height="2.5" fill="red" stroke="black" stroke-width="0.5"></rect><rect x="92.361" y="-76.9519" width="2.5" height="2.5" fill="red" stroke="black" stroke-width="0.5"></rect><rect x="68.361" y="-76.9519" width="2.5" height="2.5" fill="red" stroke="black" stroke-width="0.5"></rect>
<rect x="14.4199" y="18.6997" width="30" height="30" fill="yellow" stroke="black" stroke-width="0.5"><title>room 5</title></rect><rect x="19.1699" y="23.4497" width="2.5" height="2.5" fill="red" stroke="black" stroke-width="0.5"></rect><rect x="19.1699" y="41.4497" width="2.5" height="2.5" fill="red" stroke="black" stroke-width="0.5"></rect>
<rect x="-47.4814" y="16.6869" width="40" height="20" fill="yellow" stroke="black" stroke-width="0.5"><title>room 6</title></rect><rect x="-16.7314" y="19.4369" width="2.5" height="2.5" fill="red" stroke="black" stroke-width="0.5"></rect><rect x="-40.7314" y="19.4369" width="2.5" height="2.5" fill="red" stroke="black" stroke-width="0.5"></rect><rect x="-40.7314" y="31.4369" width="2.5" height="2.5" fill="red" stroke="black" stroke-width="0.5"></rect><rect x="-40.7314" y="25.4248" width="2.5" height="2.5" fill="red" stroke="black" stroke-width="0.5"></rect>
<rect x="-58.399" y="-32.8828" width="40" height="20" fill="yellow" stroke="black" stroke-width="0.5"><title>room 7</title></rect><rect x="-27.649" y="-18.1328" width="2.5" height="2.5" fill="red" stroke="black" stroke-width="0.5"></rect><rect x="-51.649" y="-30.1328" width="2.5" height="2.5" fill="red" stroke="black" stroke-width="0.5"></rect><rect x="-30.5429" y="-30.1328" width="2.5" height="2.5" fill="red" stroke="black" stroke-width="0.5"></rect><rect x="-48.9298" y="-30.1328" width="2.5" height="2.5" fill="red" stroke="black" stroke-width="0.5"></rect>
<rect x="75.9508" y="22.2852" width="20" height="20" fill="yellow" stroke="black" stroke-width="0.5"><title>room 8</title></rect><rect x="90.7008" y="25.0352" width="2.5" height="2.5" fill="red" stroke="black" stroke-width="0.5"></rect><rect x="90.7008" y="32.9377" width="2.5" height="2.5" fill="red" stroke="black" stroke-width="0.5"></rect><rect x="81.3271" y="37.0352" width="2.5" height="2.5" fill="red" stroke="black" stroke-width="0.5"></rect>
<rect x="139.601" y="-51.98" width="20" height="40" fill="yellow" stroke="black" stroke-width="0.5"><title>room 9</title></rect><rect x="142.351" y="-21.23" width="2.5" height="2.5" fill="red" stroke="black" stroke-width="0.5"></rect><rect x="154.351" y="-38.0151" width="2.5" height="2.5" fill="red" stroke="black" stroke-width="0.5"></rect><rect x="154.351" y="-45.23" width="2.5" height="2.5" fill="red" stroke="black" stroke-width="0.5"></rect>
<rect x="137.845" y="27.4593" width="20" height="20" fill="yellow" stroke="black" stroke-width="0.5"><title>room 10</title></rect><rect x="140.595" y="30.2093" width="2.5" height="2.5" fill="red" stroke="black" stroke-width="0.5"></rect><rect x="146.672" y="42.2093" width="2.5" height="2.5" fill="red" stroke="black" stroke-width="0.5"></rect><rect x="152.595" y="42.2093" width="2.5" height="2.5" fill="red" stroke="black" stroke-width="0.5"></rect><rect x="146.268" y="30.2093" width="2.5" height="2.5" fill="red" stroke="black" stroke-width="0.5"></rect>
<rect x="12.9601" y="-94.9529" width="20" height="20" fill="yellow" stroke="black" stroke-width="0.5"><title>room 11</title></rect><rect x="27.7101" y="-80.2029" width="2.5" height="2.5" fill="red" stroke="black" stroke-width="0.5"></rect><rect x="15.7101" y="-92.2029" width="2.5" height="2.5" fill="red" stroke="black" stroke-width="0.5"></rect>
<rect x="74.6497" y="-104.496" width="20" height="20" fill="yellow" stroke="black" stroke-width="0.5"><title>room 12</title></rect><rect x="81.9945" y="-89.7458" width="2.5" height="2.5" fill="red" stroke="black" stroke-width="0.5"></rect>
<rect x="99.3562" y="-126.329" width="20" height="40" fill="yellow" stroke="black" stroke-width="0.5"><title>room 13</title></rect><rect x="102.106" y="-95.5793" width="2.5" height="2.5" fill="red" stroke="black" stroke-width="0.5"></rect><rect x="107.849" y="-119.579" width="2.5" height="2.5" fill="red" stroke="black" stroke-width="0.5"></rect><rect x="114.106" y="-116.779" width="2.5" height="2.5" fill="red" stroke="black" stroke-width="0.5"></rect>
<rect x="38.7596" y="-115.36" width="30" height="30" fill="yellow" stroke="black" stroke-width="0.5"><title>room 14</title></rect><rect x="61.5096" y="-92.6097" width="2.5" height="2.5" fill="red" stroke="black" stroke-width="0.5"></rect>
<rect x="-11.0794" y="43.5934" width="20" height="40" fill="yellow" stroke="black" stroke-width="0.5"><title>room 15</title></rect><rect x="3.67063" y="50.3434" width="2.5" height="2.5" fill="red" stroke="black" stroke-width="0.5"></rect><rect x="3.67063" y="71.4237" width="2.5" height="2.5" fill="red" stroke="black" stroke-width="0.5"></rect><rect x="-5.46351" y="74.3434" width="2.5" height="2.5" fill="red" stroke="black" stroke-width="0.5"></rect>
<rect x="-71.871" y="-8.05548" width="40" height="20" fill="yellow" stroke="black" stroke-width="0.5"><title>room 16</title></rect><rect x="-41.121" y="6.69452" width="2.5" height="2.5" fill="red" stroke="black" stroke-width="0.5"></rect>
<rect x="-67.6092" y="41.5408" width="20" height="20" fill="yellow" stroke="black" stroke-width="0.5"><title>room 17</title></rect><rect x="-52.8592" y="44.2908" width="2.5" height="2.5" fill="red" stroke="black" stroke-width="0.5"></rect><rect x="-64.8592" y="56.2908" width="2.5" height="2.5" fill="red" stroke="black" stroke-width="0.5"></rect><rect x="-52.8592" y="50.3093" width="2.5" height="2.5" fill="red" stroke="black" stroke-width="0.5"></rect><rect x="-55.2982" y="56.2908" width="2.5" height="2.5" fill="red" stroke="black" stroke-width="0.5"></rect>
<rect x="-96.8316" y="16.6627" width="40" height="20" fill="yellow" stroke="black" stroke-width="0.5"><title>room 18</title></rect><rect x="-66.0816" y="25.4248" width="2.5" height="2.5" fill="red" stroke="black" stroke-width="0.5"></rect><rect x="-83.9344" y="31.4127" width="2.5" height="2.5" fill="red" stroke="black" stroke-width="0.5"></rect>
<rect x="-108.076" y="-57.3182" width="40" height="20" fill="yellow" stroke="black" stroke-width="0.5"><title>room 19</title></rect><rect x="-77.3264" y="-42.5682" width="2.5" height="2.5" fill="red" stroke="black" stroke-width="0.5"></rect><rect x="-92.0345" y="-54.5682" width="2.5" height="2.5" fill="red" stroke="black" stroke-width="0.5"></rect><rect x="-101.326" y="-42.5682" width="2.5" height="2.5" fill="red" stroke="black" stroke-width="0.5"></rect><rect x="-101.326" y="-54.5682" width="2.5" height="2.5" fill="red" stroke="black" stroke-width="0.5"></rect>
<rect x="-36.1867" y="-57.6056" width="20" height="20" fill="yellow" stroke="black" stroke-width="0.5"><title>room 20</title></rect><rect x="-30.5429" y="-42.8556" width="2.5" height="2.5" fill="red" stroke="black" stroke-width="0.5"></rect><rect x="-21.4367" y="-54.8556" width="2.5" height="2.5" fill="red" stroke="black" stroke-width="0.5"></rect>
<rect x="-60.9605" y="-57.6035" width="20" height="20" fill="yellow" stroke="black" stroke-width="0.5"><title>room 21</title></rect><rect x="-48.9298" y="-42.8535" width="2.5" height="2.5" fill="red" stroke="black" stroke-width="0.5"></rect><rect x="-58.0521" y="-54.8535" width="2.5" height="2.5" fill="red" stroke="black" stroke-width="0.5"></rect><rect x="-46.2105" y="-54.8535" width="2.5" height="2.5" fill="red" stroke="black" stroke-width="0.5"></rect>
<rect x="101.827" y="24.0902" width="30" height="30" fill="yellow" stroke="black" stroke-width="0.5"><title>room 22</title></rect><rect x="106.577" y="32.9377" width="2.5" height="2.5" fill="red" stroke="black" stroke-width="0.5"></rect><rect x="110.992" y="46.8402" width="2.5" height="2.5" fill="red" stroke="black" stroke-width="0.5"></rect>
<rect x="53.2033" y="47.1542" width="40" height="20" fill="yellow" stroke="black" stroke-width="0.5"><title>room 23</title></rect><rect x="81.3271" y="49.9042" width="2.5" height="2.5" fill="red" stroke="black" stroke-width="0.5"></rect><rect x="61.2242" y="61.9042" width="2.5" height="2.5" fill="red" stroke="black" stroke-width="0.5"></rect><rect x="78.9567" y="61.9042" width="2.5" height="2.5" fill="red" stroke="black" stroke-width="0.5"></rect>
<rect x="165.534" y="-53.5502" width="30" height="30" fill="yellow" stroke="black" stroke-width="0.5"><title>room 24</title></rect><rect x="170.284" y="-38.0151" width="2.5" height="2.5" fill="red" stroke="black" stroke-width="0.5"></rect><rect x="183.774" y="-30.8002" width="2.5" height="2.5" fill="red" stroke="black" stroke-width="0.5"></rect><rect x="188.284" y="-31.8814" width="2.5" height="2.5" fill="red" stroke="black" stroke-width="0.5"></rect><rect x="170.284" y="-48.8002" width="2.5" height="2.5" fill="red" stroke="black" stroke-width="0.5"></rect>
<rect x="174.507" y="-90.6528" width="30" height="30" fill="yellow" stroke="black" stroke-width="0.5"><title>room 25</title></rect><rect x="179.257" y="-67.9028" width="2.5" height="2.5" fill="red" stroke="black" stroke-width="0.5"></rect><rect x="197.257" y="-85.9028" width="2.5" height="2.5" fill="red" stroke="black" stroke-width="0.5"></rect><rect x="197.257" y="-81.253" width="2.5" height="2.5" fill="red" stroke="black" stroke-width="0.5"></rect>
<rect x="137.999" y="52.269" width="20" height="20" fill="yellow" stroke="black" stroke-width="0.5"><title>room 26</title></rect><rect x="146.672" y="55.019" width="2.5" height="2.5" fill="red" stroke="black" stroke-width="0.5"></rect><rect x="152.749" y="67.019" width="2.5" height="2.5" fill="red" stroke="black" stroke-width="0.5"></rect>
<rect x="175.367" y="56.6854" width="20" height="20" fill="yellow" stroke="black" stroke-width="0.5"><title>room 27</title></rect><rect x="178.117" y="59.4354" width="2.5" height="2.5" fill="red" stroke="black" stroke-width="0.5"></rect><rect x="190.117" y="71.4354" width="2.5" height="2.5" fill="red" stroke="black" stroke-width="0.5"></rect><rect x="180.96" y="59.4354" width="2.5" height="2.5" fill="red" stroke="black" stroke-width="0.5"></rect><rect x="190.117" y="59.4354" width="2.5" height="2.5" fill="red" stroke="black" stroke-width="0.5"></rect>
<rect x="137.191" y="2.66376" width="20" height="20" fill="yellow" stroke="black" stroke-width="0.5"><title>room 28</title></rect><rect x="146.268" y="17.4138" width="2.5" height="2.5" fill="red" stroke="black" stroke-width="0.5"></rect><rect x="151.941" y="13.6567" width="2.5" height="2.5" fill="red" stroke="black" stroke-width="0.5"></rect>
<rect x="-8.28363" y="-130.853" width="30" height="30" fill="yellow" stroke="black" stroke-width="0.5"><title>room 29</title></rect><rect x="14.4664" y="-108.103" width="2.5" height="2.5" fill="red" stroke="black" stroke-width="0.5"></rect><rect x="-3.53363" y="-126.103" width="2.5" height="2.5" fill="red" stroke="black" stroke-width="0.5"></rect><rect x="-3.53363" y="-121.625" width="2.5" height="2.5" fill="red" stroke="black" stroke-width="0.5"></rect>
<rect x="98.8409" y="-153.547" width="20" height="20" fill="yellow" stroke="black" stroke-width="0.5"><title>room 30</title></rect><rect x="107.849" y="-138.797" width="2.5" height="2.5" fill="red" stroke="black" stroke-width="0.5"></rect><rect x="101.591" y="-150.797" width="2.5" height="2.5" fill="red" stroke="black" stroke-width="0.5"></rect><rect x="113.591" y="-150.797" width="2.5" height="2.5" fill="red" stroke="black" stroke-width="0.5"></rect>
<rect x="126.351" y="-128.729" width="40" height="20" fill="yellow" stroke="black" stroke-width="0.5"><title>room 31</title></rect><rect x="133.101" y="-116.779" width="2.5" height="2.5" fill="red" stroke="black" stroke-width="0.5"></rect><rect x="145.012" y="-125.979" width="2.5" height="2.5" fill="red" stroke="black" stroke-width="0.5"></rect>
<rect x="13.6972" y="61.754" width="20" height="40" fill="yellow" stroke="black" stroke-width="0.5"><title>room 32</title></rect><rect x="16.4472" y="71.4237" width="2.5" height="2.5" fill="red" stroke="black" stroke-width="0.5"></rect>
<rect x="-33.3476" y="90.6645" width="40" height="20" fill="yellow" stroke="black" stroke-width="0.5"><title>room 33</title></rect><rect x="-5.46351" y="93.4145" width="2.5" height="2.5" fill="red" stroke="black" stroke-width="0.5"></rect><rect x="-26.5976" y="105.415" width="2.5" height="2.5" fill="red" stroke="black" stroke-width="0.5"></rect>
<rect x="-107.621" y="66.2115" width="40" height="20" fill="yellow" stroke="black" stroke-width="0.5"><title>room 34</title></rect><rect x="-76.8705" y="68.9615" width="2.5" height="2.5" fill="red" stroke="black" stroke-width="0.5"></rect><rect x="-100.871" y="80.9615" width="2.5" height="2.5" fill="red" stroke="black" stroke-width="0.5"></rect><rect x="-96.4301" y="80.9615" width="2.5" height="2.5" fill="red" stroke="black" stroke-width="0.5"></rect><rect x="-100.871" y="68.9615" width="2.5" height="2.5" fill="red" stroke="black" stroke-width="0.5"></rect>
<rect x="-42.8159" y="41.5777" width="20" height="20" fill="yellow" stroke="black" stroke-width="0.5"><title>room 35</title></rect><rect x="-40.0659" y="50.3093" width="2.5" height="2.5" fill="red" stroke="black" stroke-width="0.5"></rect>
<rect x="-60.4873" y="68.5833" width="20" height="40" fill="yellow" stroke="black" stroke-width="0.5"><title>room 36</title></rect><rect x="-55.2982" y="75.3333" width="2.5" height="2.5" fill="red" stroke="black" stroke-width="0.5"></rect>
<rect x="-92.5372" y="41.4067" width="20" height="20" fill="yellow" stroke="black" stroke-width="0.5"><title>room 37</title></rect><rect x="-83.9344" y="44.1567" width="2.5" height="2.5" fill="red" stroke="black" stroke-width="0.5"></rect>
<rect x="-97.4925" y="-104.734" width="20" height="40" fill="yellow" stroke="black" stroke-width="0.5"><title>room 38</title></rect><rect x="-92.0345" y="-73.9844" width="2.5" height="2.5" fill="red" stroke="black" stroke-width="0.5"></rect><rect x="-82.7425" y="-97.9844" width="2.5" height="2.5" fill="red" stroke="black" stroke-width="0.5"></rect><rect x="-94.7425" y="-90.3383" width="2.5" height="2.5" fill="red" stroke="black" stroke-width="0.5"></rect><rect x="-94.7425" y="-97.9844" width="2.5" height="2.5" fill="red" stroke="black" stroke-width="0.5"></rect>
<rect x="-133.241" y="-32.5596" width="40" height="20" fill="yellow" stroke="black" stroke-width="0.5"><title>room 39</title></rect><rect x="-102.491" y="-29.8096" width="2.5" height="2.5" fill="red" stroke="black" stroke-width="0.5"></rect><rect x="-126.491" y="-17.8096" width="2.5" height="2.5" fill="red" stroke="black" stroke-width="0.5"></rect>
<rect x="-157.247" y="-69.4887" width="40" height="20" fill="yellow" stroke="black" stroke-width="0.5"><title>room 40</title></rect><rect x="-126.497" y="-54.7387" width="2.5" height="2.5" fill="red" stroke="black" stroke-width="0.5"></rect><rect x="-150.497" y="-54.7387" width="2.5" height="2.5" fill="red" stroke="black" stroke-width="0.5"></rect><rect x="-150.497" y="-66.7387" width="2.5" height="2.5" fill="red" stroke="black" stroke-width="0.5"></rect><rect x="-147.595" y="-66.7387" width="2.5" height="2.5" fill="red" stroke="black" stroke-width="0.5"></rect>
<rect x="-11.7724" y="-92.2972" width="20" height="40" fill="yellow" stroke="black" stroke-width="0.5"><title>room 41</title></rect><rect x="-9.02243" y="-61.5472" width="2.5" height="2.5" fill="red" stroke="black" stroke-width="0.5"></rect><rect x="-9.02243" y="-85.5472" width="2.5" height="2.5" fill="red" stroke="black" stroke-width="0.5"></rect>
<rect x="-72.6438" y="-82.2546" width="20" height="20" fill="yellow" stroke="black" stroke-width="0.5"><title>room 42</title></rect><rect x="-58.0521" y="-67.5046" width="2.5" height="2.5" fill="red" stroke="black" stroke-width="0.5"></rect>
<rect x="-47.7639" y="-82.3136" width="20" height="20" fill="yellow" stroke="black" stroke-width="0.5"><title>room 43</title></rect><rect x="-45.0139" y="-67.5636" width="2.5" height="2.5" fill="red" stroke="black" stroke-width="0.5"></rect><rect x="-45.0139" y="-79.5636" width="2.5" height="2.5" fill="red" stroke="black" stroke-width="0.5"></rect>
<rect x="100.657" y="62.2422" width="20" height="40" fill="yellow" stroke="black" stroke-width="0.5"><title>room 44</title></rect><rect x="110.992" y="68.9922" width="2.5" height="2.5" fill="red" stroke="black" stroke-width="0.5"></rect>
<rect x="39.7451" y="72.9784" width="30" height="30" fill="yellow" stroke="black" stroke-width="0.5"><title>room 45</title></rect><rect x="61.2242" y="77.7284" width="2.5" height="2.5" fill="red" stroke="black" stroke-width="0.5"></rect>
<rect x="75.7961" y="74.3743" width="20" height="40" fill="yellow" stroke="black" stroke-width="0.5"><title>room 46</title></rect><rect x="78.9567" y="81.1243" width="2.5" height="2.5" fill="red" stroke="black" stroke-width="0.5"></rect><rect x="84.5873" y="105.124" width="2.5" height="2.5" fill="red" stroke="black" stroke-width="0.5"></rect><rect x="78.5461" y="105.124" width="2.5" height="2.5" fill="red" stroke="black" stroke-width="0.5"></rect><rect x="90.5461" y="105.124" width="2.5" height="2.5" fill="red" stroke="black" stroke-width="0.5"></rect>
<rect x="176.515" y="-17.6656" width="20" height="20" fill="yellow" stroke="black" stroke-width="0.5"><title>room 47</title></rect><rect x="183.774" y="-14.9156" width="2.5" height="2.5" fill="red" stroke="black" stroke-width="0.5"></rect>
<rect x="201.436" y="-39.7126" width="20" height="40" fill="yellow" stroke="black" stroke-width="0.5"><title>room 48</title></rect><rect x="204.186" y="-31.8814" width="2.5" height="2.5" fill="red" stroke="black" stroke-width="0.5"></rect><rect x="216.186" y="-20.6918" width="2.5" height="2.5" fill="red" stroke="black" stroke-width="0.5"></rect><rect x="216.186" y="-32.9626" width="2.5" height="2.5" fill="red" stroke="black" stroke-width="0.5"></rect>
<rect x="148.499" y="-79.1376" width="20" height="20" fill="yellow" stroke="black" stroke-width="0.5"><title>room 49</title></rect><rect x="163.249" y="-64.3876" width="2.5" height="2.5" fill="red" stroke="black" stroke-width="0.5"></rect><rect x="151.249" y="-70.3396" width="2.5" height="2.5" fill="red" stroke="black" stroke-width="0.5"></rect><rect x="151.709" y="-76.3876" width="2.5" height="2.5" fill="red" stroke="black" stroke-width="0.5"></rect>
<rect x="199.292" y="-127.411" width="30" height="30" fill="yellow" stroke="black" stroke-width="0.5"><title>room 50</title></rect><rect x="204.042" y="-104.661" width="2.5" height="2.5" fill="red" stroke="black" stroke-width="0.5"></rect><rect x="204.042" y="-122.661" width="2.5" height="2.5" fill="red" stroke="black" stroke-width="0.5"></rect><rect x="222.042" y="-122.661" width="2.5" height="2.5" fill="red" stroke="black" stroke-width="0.5"></rect>
<rect x="213.026" y="-91.3533" width="40" height="20" fill="yellow" stroke="black" stroke-width="0.5"><title>room 51</title></rect><rect x="219.776" y="-81.253" width="2.5" height="2.5" fill="red" stroke="black" stroke-width="0.5"></rect><rect x="243.776" y="-82.6492" width="2.5" height="2.5" fill="red" stroke="black" stroke-width="0.5"></rect><rect x="243.776" y="-76.6033" width="2.5" height="2.5" fill="red" stroke="black" stroke-width="0.5"></rect><rect x="243.776" y="-88.6033" width="2.5" height="2.5" fill="red" stroke="black" stroke-width="0.5"></rect>
<rect x="150.214" y="76.9907" width="20" height="20" fill="yellow" stroke="black" stroke-width="0.5"><title>room 52</title></rect><rect x="152.964" y="79.7407" width="2.5" height="2.5" fill="red" stroke="black" stroke-width="0.5"></rect><rect x="158.991" y="91.7407" width="2.5" height="2.5" fill="red" stroke="black" stroke-width="0.5"></rect><rect x="152.964" y="91.7407" width="2.5" height="2.5" fill="red" stroke="black" stroke-width="0.5"></rect><rect x="164.964" y="91.7407" width="2.5" height="2.5" fill="red" stroke="black" stroke-width="0.5"></rect>
<rect x="199.827" y="72.8012" width="20" height="40" fill="yellow" stroke="black" stroke-width="0.5"><title>room 53</title></rect><rect x="202.577" y="79.5512" width="2.5" height="2.5" fill="red" stroke="black" stroke-width="0.5"></rect><rect x="214.577" y="103.551" width="2.5" height="2.5" fill="red" stroke="black" stroke-width="0.5"></rect><rect x="202.577" y="103.551" width="2.5" height="2.5" fill="red" stroke="black" stroke-width="0.5"></rect>
<rect x="165.052" y="31.9446" width="40" height="20" fill="yellow" stroke="black" stroke-width="0.5"><title>room 54</title></rect><rect x="180.96" y="46.6946" width="2.5" height="2.5" fill="red" stroke="black" stroke-width="0.5"></rect>
<rect x="213.418" y="34.1363" width="30" height="30" fill="yellow" stroke="black" stroke-width="0.5"><title>room 55</title></rect><rect x="218.168" y="56.8863" width="2.5" height="2.5" fill="red" stroke="black" stroke-width="0.5"></rect><rect x="236.168" y="56.8863" width="2.5" height="2.5" fill="red" stroke="black" stroke-width="0.5"></rect><rect x="231.779" y="56.8863" width="2.5" height="2.5" fill="red" stroke="black" stroke-width="0.5"></rect><rect x="236.168" y="38.8863" width="2.5" height="2.5" fill="red" stroke="black" stroke-width="0.5"></rect>
<rect x="164.248" y="7.14956" width="40" height="20" fill="yellow" stroke="black" stroke-width="0.5"><title>room 56</title></rect><rect x="170.998" y="13.6567" width="2.5" height="2.5" fill="red" stroke="black" stroke-width="0.5"></rect><rect x="194.998" y="16.3407" width="2.5" height="2.5" fill="red" stroke="black" stroke-width="0.5"></rect>
<rect x="-19.2514" y="-178.917" width="20" height="40" fill="yellow" stroke="black" stroke-width="0.5"><title>room 57</title></rect><rect x="-4.50145" y="-148.167" width="2.5" height="2.5" fill="red" stroke="black" stroke-width="0.5"></rect><rect x="-16.5014" y="-169.183" width="2.5" height="2.5" fill="red" stroke="black" stroke-width="0.5"></rect><rect x="-16.5014" y="-172.167" width="2.5" height="2.5" fill="red" stroke="black" stroke-width="0.5"></rect>
<rect x="-34.2216" y="-131.896" width="20" height="20" fill="yellow" stroke="black" stroke-width="0.5"><title>room 58</title></rect><rect x="-19.4716" y="-121.625" width="2.5" height="2.5" fill="red" stroke="black" stroke-width="0.5"></rect>
<rect x="63.1046" y="-176.696" width="30" height="30" fill="yellow" stroke="black" stroke-width="0.5"><title>room 59</title></rect><rect x="85.8546" y="-153.946" width="2.5" height="2.5" fill="red" stroke="black" stroke-width="0.5"></rect><rect x="67.8546" y="-171.946" width="2.5" height="2.5" fill="red" stroke="black" stroke-width="0.5"></rect><rect x="85.8546" y="-171.946" width="2.5" height="2.5" fill="red" stroke="black" stroke-width="0.5"></rect>
<rect x="107.143" y="-178.323" width="40" height="20" fill="yellow" stroke="black" stroke-width="0.5"><title>room 60</title></rect><rect x="113.893" y="-163.573" width="2.5" height="2.5" fill="red" stroke="black" stroke-width="0.5"></rect>
<rect x="126.173" y="-153.493" width="40" height="20" fill="yellow" stroke="black" stroke-width="0.5"><title>room 61</title></rect><rect x="145.012" y="-138.743" width="2.5" height="2.5" fill="red" stroke="black" stroke-width="0.5"></rect>
<rect x="-41.4498" y="115.399" width="20" height="20" fill="yellow" stroke="black" stroke-width="0.5"><title>room 62</title></rect><rect x="-26.6998" y="118.149" width="2.5" height="2.5" fill="red" stroke="black" stroke-width="0.5"></rect>
<rect x="-134.538" y="74.9776" width="20" height="40" fill="yellow" stroke="black" stroke-width="0.5"><title>room 63</title></rect><rect x="-119.788" y="81.7276" width="2.5" height="2.5" fill="red" stroke="black" stroke-width="0.5"></rect>
<rect x="-109.609" y="90.9769" width="20" height="20" fill="yellow" stroke="black" stroke-width="0.5"><title>room 64</title></rect><rect x="-96.4301" y="93.7269" width="2.5" height="2.5" fill="red" stroke="black" stroke-width="0.5"></rect>
<rect x="-117.45" y="41.533" width="20" height="20" fill="yellow" stroke="black" stroke-width="0.5"><title>room 65</title></rect><rect x="-102.7" y="56.283" width="2.5" height="2.5" fill="red" stroke="black" stroke-width="0.5"></rect>
<rect x="-84.6806" y="-142.777" width="30" height="30" fill="yellow" stroke="black" stroke-width="0.5"><title>room 66</title></rect><rect x="-79.9306" y="-120.027" width="2.5" height="2.5" fill="red" stroke="black" stroke-width="0.5"></rect>
<rect x="-133.409" y="-105.442" width="30" height="30" fill="yellow" stroke="black" stroke-width="0.5"><title>room 67</title></rect><rect x="-110.659" y="-90.3383" width="2.5" height="2.5" fill="red" stroke="black" stroke-width="0.5"></rect>
<rect x="-121.951" y="-142.608" width="30" height="30" fill="yellow" stroke="black" stroke-width="0.5"><title>room 68</title></rect><rect x="-99.2008" y="-119.858" width="2.5" height="2.5" fill="red" stroke="black" stroke-width="0.5"></rect>
<rect x="-157.828" y="-7.7967" width="40" height="20" fill="yellow" stroke="black" stroke-width="0.5"><title>room 69</title></rect><rect x="-127.078" y="-5.0467" width="2.5" height="2.5" fill="red" stroke="black" stroke-width="0.5"></rect>
<rect x="-174.361" y="-43.7317" width="30" height="30" fill="yellow" stroke="black" stroke-width="0.5"><title>room 70</title></rect><rect x="-151.611" y="-38.9817" width="2.5" height="2.5" fill="red" stroke="black" stroke-width="0.5"></rect>
<rect x="-184.245" y="-97.8016" width="20" height="40" fill="yellow" stroke="black" stroke-width="0.5"><title>room 71</title></rect><rect x="-169.495" y="-67.0516" width="2.5" height="2.5" fill="red" stroke="black" stroke-width="0.5"></rect>
<rect x="-159.444" y="-116.52" width="20" height="40" fill="yellow" stroke="black" stroke-width="0.5"><title>room 72</title></rect><rect x="-147.595" y="-85.7702" width="2.5" height="2.5" fill="red" stroke="black" stroke-width="0.5"></rect>
<rect x="-36.3186" y="-107.044" width="20" height="20" fill="yellow" stroke="black" stroke-width="0.5"><title>room 73</title></rect><rect x="-21.5686" y="-92.2935" width="2.5" height="2.5" fill="red" stroke="black" stroke-width="0.5"></rect>
<rect x="-61.2336" y="-106.991" width="20" height="20" fill="yellow" stroke="black" stroke-width="0.5"><title>room 74</title></rect><rect x="-46.4836" y="-92.2413" width="2.5" height="2.5" fill="red" stroke="black" stroke-width="0.5"></rect>
<rect x="75.8785" y="121.476" width="20" height="20" fill="yellow" stroke="black" stroke-width="0.5"><title>room 75</title></rect><rect x="84.5873" y="124.226" width="2.5" height="2.5" fill="red" stroke="black" stroke-width="0.5"></rect>
<rect x="28.8949" y="109.013" width="40" height="20" fill="yellow" stroke="black" stroke-width="0.5"><title>room 76</title></rect><rect x="59.6449" y="111.763" width="2.5" height="2.5" fill="red" stroke="black" stroke-width="0.5"></rect>
<rect x="100.587" y="109.461" width="20" height="20" fill="yellow" stroke="black" stroke-width="0.5"><title>room 77</title></rect><rect x="103.337" y="112.211" width="2.5" height="2.5" fill="red" stroke="black" stroke-width="0.5"></rect>
<rect x="226.234" y="-39.171" width="20" height="40" fill="yellow" stroke="black" stroke-width="0.5"><title>room 78</title></rect><rect x="228.984" y="-20.6918" width="2.5" height="2.5" fill="red" stroke="black" stroke-width="0.5"></rect>
<rect x="212.295" y="-66.5015" width="40" height="20" fill="yellow" stroke="black" stroke-width="0.5"><title>room 79</title></rect><rect x="219.045" y="-51.7515" width="2.5" height="2.5" fill="red" stroke="black" stroke-width="0.5"></rect>
<rect x="123.706" y="-79.0417" width="20" height="20" fill="yellow" stroke="black" stroke-width="0.5"><title>room 80</title></rect><rect x="138.456" y="-70.3396" width="2.5" height="2.5" fill="red" stroke="black" stroke-width="0.5"></rect>
<rect x="126.472" y="-103.888" width="40" height="20" fill="yellow" stroke="black" stroke-width="0.5"><title>room 81</title></rect><rect x="151.709" y="-89.1378" width="2.5" height="2.5" fill="red" stroke="black" stroke-width="0.5"></rect>
<rect x="173.527" y="-154.269" width="20" height="40" fill="yellow" stroke="black" stroke-width="0.5"><title>room 82</title></rect><rect x="188.277" y="-123.519" width="2.5" height="2.5" fill="red" stroke="black" stroke-width="0.5"></rect>
<rect x="217.997" y="-164.37" width="30" height="30" fill="yellow" stroke="black" stroke-width="0.5"><title>room 83</title></rect><rect x="222.747" y="-141.62" width="2.5" height="2.5" fill="red" stroke="black" stroke-width="0.5"></rect>
<rect x="260.127" y="-91.4451" width="20" height="20" fill="yellow" stroke="black" stroke-width="0.5"><title>room 84</title></rect><rect x="262.877" y="-82.6492" width="2.5" height="2.5" fill="red" stroke="black" stroke-width="0.5"></rect>
<rect x="259.396" y="-66.6512" width="20" height="20" fill="yellow" stroke="black" stroke-width="0.5"><title>room 85</title></rect><rect x="262.146" y="-63.9012" width="2.5" height="2.5" fill="red" stroke="black" stroke-width="0.5"></rect>
<rect x="239.564" y="-127.284" width="30" height="30" fill="yellow" stroke="black" stroke-width="0.5"><title>room 86</title></rect><rect x="244.314" y="-104.534" width="2.5" height="2.5" fill="red" stroke="black" stroke-width="0.5"></rect>
<rect x="150.269" y="104.091" width="20" height="40" fill="yellow" stroke="black" stroke-width="0.5"><title>room 87</title></rect><rect x="158.991" y="110.841" width="2.5" height="2.5" fill="red" stroke="black" stroke-width="0.5"></rect>
<rect x="125.481" y="85.6009" width="20" height="40" fill="yellow" stroke="black" stroke-width="0.5"><title>room 88</title></rect><rect x="140.231" y="92.3509" width="2.5" height="2.5" fill="red" stroke="black" stroke-width="0.5"></rect>
<rect x="174.943" y="89.6014" width="20" height="20" fill="yellow" stroke="black" stroke-width="0.5"><title>room 89</title></rect><rect x="177.693" y="92.3514" width="2.5" height="2.5" fill="red" stroke="black" stroke-width="0.5"></rect>
<rect x="214.725" y="119.526" width="40" height="20" fill="yellow" stroke="black" stroke-width="0.5"><title>room 90</title></rect><rect x="221.475" y="122.276" width="2.5" height="2.5" fill="red" stroke="black" stroke-width="0.5"></rect>
<rect x="176.336" y="120.624" width="30" height="30" fill="yellow" stroke="black" stroke-width="0.5"><title>room 91</title></rect><rect x="199.086" y="125.374" width="2.5" height="2.5" fill="red" stroke="black" stroke-width="0.5"></rect>
<rect x="249.383" y="50.3986" width="20" height="40" fill="yellow" stroke="black" stroke-width="0.5"><title>room 92</title></rect><rect x="252.133" y="57.1486" width="2.5" height="2.5" fill="red" stroke="black" stroke-width="0.5"></rect>
<rect x="224.639" y="72.2937" width="20" height="40" fill="yellow" stroke="black" stroke-width="0.5"><title>room 93</title></rect><rect x="231.779" y="79.0437" width="2.5" height="2.5" fill="red" stroke="black" stroke-width="0.5"></rect>
<rect x="238.481" y="8.6003" width="40" height="20" fill="yellow" stroke="black" stroke-width="0.5"><title>room 94</title></rect><rect x="245.231" y="23.3503" width="2.5" height="2.5" fill="red" stroke="black" stroke-width="0.5"></rect>
<rect x="211.292" y="8.03192" width="20" height="20" fill="yellow" stroke="black" stroke-width="0.5"><title>room 95</title></rect><rect x="214.042" y="16.3407" width="2.5" height="2.5" fill="red" stroke="black" stroke-width="0.5"></rect>
<rect x="-66.2847" y="-180.949" width="40" height="20" fill="yellow" stroke="black" stroke-width="0.5"><title>room 96</title></rect><rect x="-35.5347" y="-169.183" width="2.5" height="2.5" fill="red" stroke="black" stroke-width="0.5"></rect>
<rect x="-47.7934" y="-205.847" width="40" height="20" fill="yellow" stroke="black" stroke-width="0.5"><title>room 97</title></rect><rect x="-17.0434" y="-191.097" width="2.5" height="2.5" fill="red" stroke="black" stroke-width="0.5"></rect>
<rect x="52.8297" y="-202.524" width="20" height="20" fill="yellow" stroke="black" stroke-width="0.5"><title>room 98</title></rect><rect x="67.5797" y="-187.774" width="2.5" height="2.5" fill="red" stroke="black" stroke-width="0.5"></rect>
<rect x="83.3182" y="-202.529" width="20" height="20" fill="yellow" stroke="black" stroke-width="0.5"><title>room 99</title></rect><rect x="86.0682" y="-187.779" width="2.5" height="2.5" fill="red" stroke="black" stroke-width="0.5"></rect>
<line x1="54.65713120871983" y1="-20.669806083252666" x2="17.604646287030523" y2="-12.26592752142276" stroke-width="0.5" stroke="blue" />
<line x1="66.65713120871983" y1="-20.669806083252666" x2="102.16854828713743" y2="-7.133413553243255" stroke-width="0.5" stroke="blue" />
<line x1="54.65713120871983" y1="-44.669806083252666" x2="42.213098782215866" y2="-54.169365461635536" stroke-width="0.5" stroke="blue" />
<line x1="66.65713120871983" y1="-44.669806083252666" x2="69.61103674140588" y2="-63.70189306462886" stroke-width="0.5" stroke="blue" />
<line x1="17.604646287030523" y1="5.734072478577239" x2="20.419945211491402" y2="24.699654985863134" stroke-width="0.5" stroke="blue" />
<line x1="-0.3953537129694773" y1="5.734072478577239" x2="-15.481379339767049" y2="20.686860359067232" stroke-width="0.5" stroke="blue" />
<line x1="-0.3953537129694773" y1="-12.26592752142276" x2="-26.399044012890563" y2="-16.882809083410837" stroke-width="0.5" stroke="blue" />
<line x1="102.16854828713743" y1="10.866586446756745" x2="91.9508346505138" y2="26.285230282457796" stroke-width="0.5" stroke="blue" />
<line x1="120.16854828713743" y1="-7.133413553243255" x2="143.60111031486136" y2="-19.980039023516216" stroke-width="0.5" stroke="blue" />
<line x1="120.16854828713743" y1="10.866586446756745" x2="141.84457323764133" y2="31.4593219440505" stroke-width="0.5" stroke="blue" />
<line x1="30.213098782215866" y1="-66.16936546163554" x2="28.960106324210162" y2="-78.95285397503281" stroke-width="0.5" stroke="blue" />
<line x1="83.24447008296865" y1="-75.70189306462886" x2="83.24446862219617" y2="-88.49581428206987" stroke-width="0.5" stroke="blue" />
<line x1="93.61103674140588" y1="-75.70189306462886" x2="103.35620951569167" y2="-94.32928880465134" stroke-width="0.5" stroke="blue" />
<line x1="69.61103674140588" y1="-75.70189306462886" x2="62.75959411519973" y2="-91.35966899201745" stroke-width="0.5" stroke="blue" />
<line x1="20.419945211491402" y1="42.699654985863134" x2="4.920625778474244" y2="51.593406548635265" stroke-width="0.5" stroke="blue" />
<line x1="-39.481379339767045" y1="20.686860359067232" x2="-39.87103945309038" y2="7.944517442055343" stroke-width="0.5" stroke="blue" />
<line x1="-39.481379339767045" y1="32.68686035906723" x2="-51.60916522985711" y2="45.540815659368924" stroke-width="0.5" stroke="blue" />
<line x1="-39.481379339767045" y1="26.674773913892906" x2="-64.83159803373003" y2="26.674773288902237" stroke-width="0.5" stroke="blue" />
<line x1="-50.39904401289056" y1="-28.882809083410837" x2="-76.07640277717466" y2="-41.318190672802224" stroke-width="0.5" stroke="blue" />
<line x1="-29.292867443529637" y1="-28.882809083410837" x2="-29.292865892333584" y2="-41.60556930455954" stroke-width="0.5" stroke="blue" />
<line x1="-47.67976161445697" y1="-28.882809083410837" x2="-47.67975800953082" y2="-41.603492421752755" stroke-width="0.5" stroke="blue" />
<line x1="91.9508346505138" y1="34.18771819408381" x2="107.82669742495194" y2="34.18771780816054" stroke-width="0.5" stroke="blue" />
<line x1="82.57708605773713" y1="38.285230282457796" x2="82.57708820160322" y2="51.154185075310835" stroke-width="0.5" stroke="blue" />
<line x1="155.60111031486136" y1="-36.76512181194181" x2="171.53389808737973" y2="-36.765125907874555" stroke-width="0.5" stroke="blue" />
<line x1="155.60111031486136" y1="-43.98003902351621" x2="180.5069835044043" y2="-66.65278642294786" stroke-width="0.5" stroke="blue" />
<line x1="147.92184342198135" y1="43.4593219440505" x2="147.92184739962423" y2="56.26900451960645" stroke-width="0.5" stroke="blue" />
<line x1="153.84457323764133" y1="43.4593219440505" x2="179.36686606331168" y2="60.685366458384806" stroke-width="0.5" stroke="blue" />
<line x1="147.5178748679771" y1="31.4593219440505" x2="147.5178675952384" y2="18.66375973581822" stroke-width="0.5" stroke="blue" />
<line x1="16.960106324210162" y1="-90.95285397503281" x2="15.71637271165018" y2="-106.85297808996583" stroke-width="0.5" stroke="blue" />
<line x1="109.09857361731439" y1="-118.32928880465134" x2="109.09856969089867" y2="-137.54705851264686" stroke-width="0.5" stroke="blue" />
<line x1="115.35620951569167" y1="-115.52922988844357" x2="134.3507075364168" y2="-115.52922729362136" stroke-width="0.5" stroke="blue" />
<line x1="4.920625778474244" y1="72.67369336216596" x2="17.69718807158556" y2="72.67369273847551" stroke-width="0.5" stroke="blue" />
<line x1="-4.213506472420057" y1="75.59340654863527" x2="-4.213508461493214" y2="94.66451963482795" stroke-width="0.5" stroke="blue" />
<line x1="-63.60916522985711" y1="57.540815659368924" x2="-75.62054530911657" y2="70.21151689039328" stroke-width="0.5" stroke="blue" />
<line x1="-51.60916522985711" y1="51.55926827036306" x2="-38.81588751567423" y2="51.55926713741793" stroke-width="0.5" stroke="blue" />
<line x1="-54.04822491955155" y1="57.540815659368924" x2="-54.04822817742045" y2="76.58328138879098" stroke-width="0.5" stroke="blue" />
<line x1="-82.6844093325694" y1="32.66268684372791" x2="-82.68440196804828" y2="45.40667319058726" stroke-width="0.5" stroke="blue" />
<line x1="-90.78445427459556" y1="-53.318190672802224" x2="-90.78445022574742" y2="-72.73440148583859" stroke-width="0.5" stroke="blue" />
<line x1="-100.07640277717466" y1="-41.318190672802224" x2="-101.24076809884406" y2="-28.559610523631548" stroke-width="0.5" stroke="blue" />
<line x1="-100.07640277717466" y1="-53.318190672802224" x2="-125.2472007832952" y2="-53.4887013967722" stroke-width="0.5" stroke="blue" />
<line x1="-20.186689322973777" y1="-53.60556930455954" x2="-7.7724340470040385" y2="-60.297224816751196" stroke-width="0.5" stroke="blue" />
<line x1="-56.802120803874345" y1="-53.603492421752755" x2="-56.80212137719687" y2="-66.25456897703825" stroke-width="0.5" stroke="blue" />
<line x1="-44.96047561109755" y1="-53.603492421752755" x2="-43.763874741731414" y2="-66.3135574945377" stroke-width="0.5" stroke="blue" />
<line x1="112.24199417956231" y1="48.09020571978563" x2="112.24199396557685" y2="70.24218118002268" stroke-width="0.5" stroke="blue" />
<line x1="62.47422776168111" y1="63.154185075310835" x2="62.4742272068265" y2="78.97843606278236" stroke-width="0.5" stroke="blue" />
<line x1="80.20672414448917" y1="63.154185075310835" x2="80.20672381698644" y2="82.3743188634487" stroke-width="0.5" stroke="blue" />
<line x1="185.0242171445394" y1="-29.550208696300444" x2="185.0242153374192" y2="-13.665588793191478" stroke-width="0.5" stroke="blue" />
<line x1="189.53389808737973" y1="-30.63140032255915" x2="205.43612228550916" y2="-30.631399600515707" stroke-width="0.5" stroke="blue" />
<line x1="171.53389808737973" y1="-47.550208696300444" x2="164.4994511856543" y2="-63.13756097547086" stroke-width="0.5" stroke="blue" />
<line x1="198.5069835044043" y1="-84.65278642294786" x2="205.29214421650047" y2="-103.41059272786521" stroke-width="0.5" stroke="blue" />
<line x1="198.5069835044043" y1="-80.00302545546319" x2="221.02636625368655" y2="-80.00302394584095" stroke-width="0.5" stroke="blue" />
<line x1="153.99911758396425" y1="68.26900451960645" x2="154.21415875315938" y2="80.99068797773785" stroke-width="0.5" stroke="blue" />
<line x1="191.36686606331168" y1="72.6853664583848" x2="203.82677056680276" y2="80.80116868642374" stroke-width="0.5" stroke="blue" />
<line x1="182.20955473785912" y1="60.685366458384806" x2="182.20955289539347" y2="47.94456406953268" stroke-width="0.5" stroke="blue" />
<line x1="191.36686606331168" y1="60.685366458384806" x2="219.418084407084" y2="58.1363210631723" stroke-width="0.5" stroke="blue" />
<line x1="153.19116922557419" y1="14.906659770848615" x2="172.24830412912314" y2="14.906663939559161" stroke-width="0.5" stroke="blue" />
<line x1="-2.2836272883498188" y1="-124.85297808996583" x2="-3.251449417432678" y2="-146.91748704419447" stroke-width="0.5" stroke="blue" />
<line x1="-2.2836272883498188" y1="-120.37469992160628" x2="-18.221644562774447" y2="-120.37469913494118" stroke-width="0.5" stroke="blue" />
<line x1="102.84093379252138" y1="-149.54705851264686" x2="87.10455798391644" y2="-152.6963834792233" stroke-width="0.5" stroke="blue" />
<line x1="114.84093379252138" y1="-149.54705851264686" x2="115.1427384856363" y2="-162.3228831738748" stroke-width="0.5" stroke="blue" />
<line x1="146.2617147722548" y1="-124.72916837741225" x2="146.2617104254325" y2="-137.49299220704043" stroke-width="0.5" stroke="blue" />
<line x1="-25.347640712386017" y1="106.66451963482795" x2="-25.44984092381104" y2="119.39932630740694" stroke-width="0.5" stroke="blue" />
<line x1="-99.62054530911657" y1="82.21151689039328" x2="-118.53829597912355" y2="82.9776016988808" stroke-width="0.5" stroke="blue" />
<line x1="-95.18011450395865" y1="82.21151689039328" x2="-95.18011491227982" y2="94.97685449708555" stroke-width="0.5" stroke="blue" />
<line x1="-99.62054530911657" y1="70.21151689039328" x2="-101.44951894231706" y2="57.532974165590595" stroke-width="0.5" stroke="blue" />
<line x1="-81.49250172316823" y1="-96.73440148583859" x2="-78.68061299218067" y2="-118.7772601839996" stroke-width="0.5" stroke="blue" />
<line x1="-93.49250172316823" y1="-89.08832522155339" x2="-109.40856015729806" y2="-89.08832178446124" stroke-width="0.5" stroke="blue" />
<line x1="-93.49250172316823" y1="-96.73440148583859" x2="-97.95083902144056" y2="-118.60833397488334" stroke-width="0.5" stroke="blue" />
<line x1="-125.24076809884406" y1="-16.559610523631548" x2="-125.82809511131515" y2="-3.796700305022827" stroke-width="0.5" stroke="blue" />
<line x1="-149.2472007832952" y1="-53.4887013967722" x2="-150.36082633929516" y2="-37.73174816418129" stroke-width="0.5" stroke="blue" />
<line x1="-149.2472007832952" y1="-65.4887013967722" x2="-168.24450229700855" y2="-65.8015874803571" stroke-width="0.5" stroke="blue" />
<line x1="-146.34536579484134" y1="-65.4887013967722" x2="-146.3453629864292" y2="-84.5201840405295" stroke-width="0.5" stroke="blue" />
<line x1="-7.7724340470040385" y1="-84.2972248167512" x2="-20.318645910060965" y2="-91.0435360606805" stroke-width="0.5" stroke="blue" />
<line x1="-43.763874741731414" y1="-78.3135574945377" x2="-45.23362453027844" y2="-90.9913362447341" stroke-width="0.5" stroke="blue" />
<line x1="85.83730372610928" y1="106.3743188634487" x2="85.83730354407408" y2="125.47585747994597" stroke-width="0.5" stroke="blue" />
<line x1="79.79609935060361" y1="106.3743188634487" x2="60.894934960677844" y2="113.01268027483371" stroke-width="0.5" stroke="blue" />
<line x1="91.79609935060361" y1="106.3743188634487" x2="104.58677326733802" y2="113.46120638328416" stroke-width="0.5" stroke="blue" />
<line x1="217.43612228550916" y1="-19.44180223787169" x2="230.23428258228788" y2="-19.441799562337316" stroke-width="0.5" stroke="blue" />
<line x1="217.43612228550916" y1="-31.71259122677453" x2="220.29502765868688" y2="-50.50152396928658" stroke-width="0.5" stroke="blue" />
<line x1="152.4994511856543" y1="-69.08963369289584" x2="139.70563971363578" y2="-69.08963280497758" stroke-width="0.5" stroke="blue" />
<line x1="152.95882037329784" y1="-75.13756097547086" x2="152.95882417799723" y2="-87.88780998760782" stroke-width="0.5" stroke="blue" />
<line x1="205.29214421650047" y1="-121.41059272786521" x2="189.52708130324206" y2="-122.26881418502563" stroke-width="0.5" stroke="blue" />
<line x1="223.29214421650047" y1="-121.41059272786521" x2="223.99711965071444" y2="-140.37001845259695" stroke-width="0.5" stroke="blue" />
<line x1="245.02636625368655" y1="-81.39916070678393" x2="264.1269777600429" y2="-81.3991571877029" stroke-width="0.5" stroke="blue" />
<line x1="245.02636625368655" y1="-75.35326297835573" x2="263.39590880400164" y2="-62.65123446008548" stroke-width="0.5" stroke="blue" />
<line x1="245.02636625368655" y1="-87.35326297835573" x2="245.56441616034618" y2="-103.28365012300291" stroke-width="0.5" stroke="blue" />
<line x1="160.24140642279073" y1="92.99068797773785" x2="160.24140578417146" y2="112.09063351105476" stroke-width="0.5" stroke="blue" />
<line x1="154.21415875315938" y1="92.99068797773785" x2="141.48146133671005" y2="93.60093007449456" stroke-width="0.5" stroke="blue" />
<line x1="166.21415875315938" y1="92.99068797773785" x2="178.94272839712931" y2="93.6014289025542" stroke-width="0.5" stroke="blue" />
<line x1="215.82677056680276" y1="104.80116868642374" x2="222.7250022654773" y2="123.52640008158889" stroke-width="0.5" stroke="blue" />
<line x1="203.82677056680276" y1="104.80116868642374" x2="200.33649678697634" y2="126.62399336132913" stroke-width="0.5" stroke="blue" />
<line x1="237.418084407084" y1="58.1363210631723" x2="253.38317561537008" y2="58.398605260899274" stroke-width="0.5" stroke="blue" />
<line x1="233.02872310757522" y1="58.1363210631723" x2="233.02872561093182" y2="80.29371305179605" stroke-width="0.5" stroke="blue" />
<line x1="237.418084407084" y1="40.1363210631723" x2="246.4811160464874" y2="24.60029946135023" stroke-width="0.5" stroke="blue" />
<line x1="196.24830412912314" y1="17.590739307952965" x2="215.29226205641314" y2="17.590741250066223" stroke-width="0.5" stroke="blue" />
<line x1="-15.251449417432678" y1="-167.93324966512543" x2="-34.28470118970404" y2="-167.93325022882544" stroke-width="0.5" stroke="blue" />
<line x1="-15.251449417432678" y1="-170.91748704419447" x2="-15.793411448359159" y2="-189.8471435583884" stroke-width="0.5" stroke="blue" />
<line x1="69.10455798391644" y1="-170.6963834792233" x2="68.82973425490184" y2="-186.5236732269588" stroke-width="0.5" stroke="blue" />
<line x1="87.10455798391644" y1="-170.6963834792233" x2="87.31820568452824" y2="-186.52888666651427" stroke-width="0.5" stroke="blue" />
</svg>