<svg width="100%" height="100%" viewBox="-240.507 -215.847 396.624 392.352"  xmlns="http://www.w3.org/2000/svg" xmlns:xlink="http://www.w3.org/1999/xlink" version="1.1">
<rect x="-73.1471" y="-85.1246" width="20" height="40" fill="yellow" stroke="black" stroke-width="0.5"><title>room 0</title></rect><rect x="-58.3971" y="-54.3746" width="2.5" height="2.5" fill="red" stroke="black" stroke-width="0.5"></rect><rect x="-70.3971" y="-59.3313" width="2.5" height="2.5" fill="red" stroke="black" stroke-width="0.5"></rect><rect x="-70.3971" y="-78.3746" width="2.5" height="2.5" fill="red" stroke="black" stroke-width="0.5"></rect>
<rect x="-46.5511" y="-43.1113" width="30" height="30" fill="yellow" stroke="black" stroke-width="0.5"><title>room 1</title></rect><rect x="-41.8011" y="-38.3613" width="2.5" height="2.5" fill="red" stroke="black" stroke-width="0.5"></rect><rect x="-31.5301" y="-38.3613" width="2.5" height="2.5" fill="red" stroke="black" stroke-width="0.5"></rect><rect x="-23.8011" y="-20.3613" width="2.5" height="2.5" fill="red" stroke="black" stroke-width="0.5"></rect>
<rect x="-109.098" y="-69.038" width="30" height="30" fill="yellow" stroke="black" stroke-width="0.5"><title>room 2</title></rect><rect x="-86.348" y="-59.3313" width="2.5" height="2.5" fill="red" stroke="black" stroke-width="0.5"></rect>
<rect x="-97.8405" y="-95.1561" width="20" height="20" fill="yellow" stroke="black" stroke-width="0.5"><title>room 3</title></rect><rect x="-83.0905" y="-80.4061" width="2.5" height="2.5" fill="red" stroke="black" stroke-width="0.5"></rect><rect x="-95.0905" y="-92.4061" width="2.5" height="2.5" fill="red" stroke="black" stroke-width="0.5"></rect>
<rect x="-46.009" y="-69.0689" width="40" height="20" fill="yellow" stroke="black" stroke-width="0.5"><title>room 4</title></rect><rect x="-31.5301" y="-54.3189" width="2.5" height="2.5" fill="red" stroke="black" stroke-width="0.5"></rect><rect x="-15.259" y="-66.3189" width="2.5" height="2.5" fill="red" stroke="black" stroke-width="0.5"></rect><rect x="-36.3919" y="-66.3189" width="2.5" height="2.5" fill="red" stroke="black" stroke-width="0.5"></rect>
<rect x="-11.697" y="-6.69633" width="30" height="30" fill="yellow" stroke="black" stroke-width="0.5"><title>room 5</title></rect><rect x="-6.947" y="-1.94633" width="2.5" height="2.5" fill="red" stroke="black" stroke-width="0.5"></rect><rect x="11.053" y="-1.94633" width="2.5" height="2.5" fill="red" stroke="black" stroke-width="0.5"></rect><rect x="11.053" y="16.0537" width="2.5" height="2.5" fill="red" stroke="black" stroke-width="0.5"></rect><rect x="-6.947" y="14.6808" width="2.5" height="2.5" fill="red" stroke="black" stroke-width="0.5"></rect>
<rect x="-127.597" y="-119.849" width="40" height="20" fill="yellow" stroke="black" stroke-width="0.5"><title>room 6</title></rect><rect x="-96.8467" y="-105.099" width="2.5" height="2.5" fill="red" stroke="black" stroke-width="0.5"></rect><rect x="-120.847" y="-105.099" width="2.5" height="2.5" fill="red" stroke="black" stroke-width="0.5"></rect><rect x="-120.847" y="-117.099" width="2.5" height="2.5" fill="red" stroke="black" stroke-width="0.5"></rect>
<rect x="-20.9174" y="-93.774" width="40" height="20" fill="yellow" stroke="black" stroke-width="0.5"><title>room 7</title></rect><rect x="-14.1674" y="-79.024" width="2.5" height="2.5" fill="red" stroke="black" stroke-width="0.5"></rect><rect x="9.83263" y="-91.024" width="2.5" height="2.5" fill="red" stroke="black" stroke-width="0.5"></rect>
<rect x="-48.2748" y="-93.832" width="20" height="20" fill="yellow" stroke="black" stroke-width="0.5"><title>room 8</title></rect><rect x="-36.3919" y="-79.082" width="2.5" height="2.5" fill="red" stroke="black" stroke-width="0.5"></rect>
<rect x="25.5881" y="-36.1859" width="20" height="40" fill="yellow" stroke="black" stroke-width="0.5"><title>room 9</title></rect><rect x="28.3381" y="-5.43589" width="2.5" height="2.5" fill="red" stroke="black" stroke-width="0.5"></rect><rect x="28.3381" y="-29.4359" width="2.5" height="2.5" fill="red" stroke="black" stroke-width="0.5"></rect><rect x="40.3381" y="-5.43589" width="2.5" height="2.5" fill="red" stroke="black" stroke-width="0.5"></rect><rect x="40.3381" y="-29.4359" width="2.5" height="2.5" fill="red" stroke="black" stroke-width="0.5"></rect>
<rect x="9.29954" y="35.2757" width="20" height="20" fill="yellow" stroke="black" stroke-width="0.5"><title>room 10</title></rect><rect x="12.0495" y="38.0257" width="2.5" height="2.5" fill="red" stroke="black" stroke-width="0.5"></rect><rect x="24.0495" y="50.0257" width="2.5" height="2.5" fill="red" stroke="black" stroke-width="0.5"></rect><rect x="12.0495" y="50.0257" width="2.5" height="2.5" fill="red" stroke="black" stroke-width="0.5"></rect>
<rect x="-37.5829" y="10.5579" width="20" height="20" fill="yellow" stroke="black" stroke-width="0.5"><title>room 11</title></rect><rect x="-22.8329" y="14.6808" width="2.5" height="2.5" fill="red" stroke="black" stroke-width="0.5"></rect><rect x="-34.8329" y="19.6305" width="2.5" height="2.5" fill="red" stroke="black" stroke-width="0.5"></rect><rect x="-30.1819" y="25.3079" width="2.5" height="2.5" fill="red" stroke="black" stroke-width="0.5"></rect>
<rect x="-136.118" y="-95.1493" width="20" height="20" fill="yellow" stroke="black" stroke-width="0.5"><title>room 12</title></rect><rect x="-121.368" y="-92.3993" width="2.5" height="2.5" fill="red" stroke="black" stroke-width="0.5"></rect>
<rect x="-154.507" y="-148.841" width="20" height="40" fill="yellow" stroke="black" stroke-width="0.5"><title>room 13</title></rect><rect x="-139.757" y="-118.091" width="2.5" height="2.5" fill="red" stroke="black" stroke-width="0.5"></rect><rect x="-151.757" y="-142.091" width="2.5" height="2.5" fill="red" stroke="black" stroke-width="0.5"></rect>
<rect x="5.37932" y="-129.601" width="30" height="30" fill="yellow" stroke="black" stroke-width="0.5"><title>room 14</title></rect><rect x="10.1293" y="-106.851" width="2.5" height="2.5" fill="red" stroke="black" stroke-width="0.5"></rect>
<rect x="0.962061" y="-60.4364" width="20" height="40" fill="yellow" stroke="black" stroke-width="0.5"><title>room 15</title></rect><rect x="15.7121" y="-29.6864" width="2.5" height="2.5" fill="red" stroke="black" stroke-width="0.5"></rect>
<rect x="52.2897" y="-2.00081" width="40" height="20" fill="yellow" stroke="black" stroke-width="0.5"><title>room 16</title></rect><rect x="59.0397" y="0.749191" width="2.5" height="2.5" fill="red" stroke="black" stroke-width="0.5"></rect><rect x="83.0397" y="0.749191" width="2.5" height="2.5" fill="red" stroke="black" stroke-width="0.5"></rect><rect x="61.8486" y="12.7492" width="2.5" height="2.5" fill="red" stroke="black" stroke-width="0.5"></rect><rect x="83.0397" y="12.7492" width="2.5" height="2.5" fill="red" stroke="black" stroke-width="0.5"></rect>
<rect x="42.1775" y="-62.9709" width="20" height="20" fill="yellow" stroke="black" stroke-width="0.5"><title>room 17</title></rect><rect x="44.9275" y="-48.2209" width="2.5" height="2.5" fill="red" stroke="black" stroke-width="0.5"></rect><rect x="56.9275" y="-60.2209" width="2.5" height="2.5" fill="red" stroke="black" stroke-width="0.5"></rect><rect x="55.0628" y="-48.2209" width="2.5" height="2.5" fill="red" stroke="black" stroke-width="0.5"></rect><rect x="44.9275" y="-60.2209" width="2.5" height="2.5" fill="red" stroke="black" stroke-width="0.5"></rect>
<rect x="24.8704" y="60.0147" width="40" height="20" fill="yellow" stroke="black" stroke-width="0.5"><title>room 18</title></rect><rect x="31.6204" y="62.7647" width="2.5" height="2.5" fill="red" stroke="black" stroke-width="0.5"></rect><rect x="48.2271" y="74.7647" width="2.5" height="2.5" fill="red" stroke="black" stroke-width="0.5"></rect><rect x="31.6204" y="74.7647" width="2.5" height="2.5" fill="red" stroke="black" stroke-width="0.5"></rect><rect x="55.6204" y="74.7647" width="2.5" height="2.5" fill="red" stroke="black" stroke-width="0.5"></rect>
<rect x="-25.4268" y="60.0562" width="40" height="20" fill="yellow" stroke="black" stroke-width="0.5"><title>room 19</title></rect><rect x="5.32316" y="62.8062" width="2.5" height="2.5" fill="red" stroke="black" stroke-width="0.5"></rect><rect x="-8.70848" y="74.8062" width="2.5" height="2.5" fill="red" stroke="black" stroke-width="0.5"></rect><rect x="-18.6768" y="74.8062" width="2.5" height="2.5" fill="red" stroke="black" stroke-width="0.5"></rect>
<rect x="-62.3825" y="11.2032" width="20" height="20" fill="yellow" stroke="black" stroke-width="0.5"><title>room 20</title></rect><rect x="-47.6325" y="19.6305" width="2.5" height="2.5" fill="red" stroke="black" stroke-width="0.5"></rect><rect x="-59.6325" y="19.9485" width="2.5" height="2.5" fill="red" stroke="black" stroke-width="0.5"></rect><rect x="-59.6325" y="25.9532" width="2.5" height="2.5" fill="red" stroke="black" stroke-width="0.5"></rect><rect x="-59.3733" y="13.9532" width="2.5" height="2.5" fill="red" stroke="black" stroke-width="0.5"></rect>
<rect x="-40.2809" y="35.3514" width="20" height="20" fill="yellow" stroke="black" stroke-width="0.5"><title>room 21</title></rect><rect x="-30.1819" y="38.1014" width="2.5" height="2.5" fill="red" stroke="black" stroke-width="0.5"></rect><rect x="-37.5309" y="50.1014" width="2.5" height="2.5" fill="red" stroke="black" stroke-width="0.5"></rect>
<rect x="-190.329" y="-165.428" width="30" height="30" fill="yellow" stroke="black" stroke-width="0.5"><title>room 22</title></rect><rect x="-167.579" y="-142.678" width="2.5" height="2.5" fill="red" stroke="black" stroke-width="0.5"></rect><rect x="-185.579" y="-160.678" width="2.5" height="2.5" fill="red" stroke="black" stroke-width="0.5"></rect>
<rect x="77.7653" y="-26.6497" width="40" height="20" fill="yellow" stroke="black" stroke-width="0.5"><title>room 23</title></rect><rect x="84.5153" y="-11.8997" width="2.5" height="2.5" fill="red" stroke="black" stroke-width="0.5"></rect>
<rect x="41.9075" y="23.8902" width="30" height="30" fill="yellow" stroke="black" stroke-width="0.5"><title>room 24</title></rect><rect x="61.8486" y="28.6402" width="2.5" height="2.5" fill="red" stroke="black" stroke-width="0.5"></rect>
<rect x="79.2993" y="23.8092" width="30" height="30" fill="yellow" stroke="black" stroke-width="0.5"><title>room 25</title></rect><rect x="84.0493" y="28.5592" width="2.5" height="2.5" fill="red" stroke="black" stroke-width="0.5"></rect>
<rect x="66.939" y="-76.0985" width="20" height="20" fill="yellow" stroke="black" stroke-width="0.5"><title>room 26</title></rect><rect x="69.689" y="-61.3485" width="2.5" height="2.5" fill="red" stroke="black" stroke-width="0.5"></rect><rect x="81.689" y="-61.3485" width="2.5" height="2.5" fill="red" stroke="black" stroke-width="0.5"></rect><rect x="81.689" y="-73.3485" width="2.5" height="2.5" fill="red" stroke="black" stroke-width="0.5"></rect>
<rect x="50.448" y="-38.2129" width="20" height="20" fill="yellow" stroke="black" stroke-width="0.5"><title>room 27</title></rect><rect x="55.0628" y="-35.4629" width="2.5" height="2.5" fill="red" stroke="black" stroke-width="0.5"></rect>
<rect x="27.0524" y="-87.6889" width="20" height="20" fill="yellow" stroke="black" stroke-width="0.5"><title>room 28</title></rect><rect x="41.8024" y="-72.9389" width="2.5" height="2.5" fill="red" stroke="black" stroke-width="0.5"></rect><rect x="41.8024" y="-84.9389" width="2.5" height="2.5" fill="red" stroke="black" stroke-width="0.5"></rect>
<rect x="36.0838" y="85.9688" width="30" height="30" fill="yellow" stroke="black" stroke-width="0.5"><title>room 29</title></rect><rect x="48.2271" y="90.7188" width="2.5" height="2.5" fill="red" stroke="black" stroke-width="0.5"></rect><rect x="56.149" y="108.719" width="2.5" height="2.5" fill="red" stroke="black" stroke-width="0.5"></rect><rect x="40.8338" y="108.719" width="2.5" height="2.5" fill="red" stroke="black" stroke-width="0.5"></rect>
<rect x="10.1187" y="84.6758" width="20" height="20" fill="yellow" stroke="black" stroke-width="0.5"><title>room 30</title></rect><rect x="24.8687" y="87.4258" width="2.5" height="2.5" fill="red" stroke="black" stroke-width="0.5"></rect>
<rect x="74.102" y="73.0111" width="40" height="20" fill="yellow" stroke="black" stroke-width="0.5"><title>room 31</title></rect><rect x="80.852" y="75.7611" width="2.5" height="2.5" fill="red" stroke="black" stroke-width="0.5"></rect><rect x="89.6277" y="87.7611" width="2.5" height="2.5" fill="red" stroke="black" stroke-width="0.5"></rect><rect x="104.852" y="87.7611" width="2.5" height="2.5" fill="red" stroke="black" stroke-width="0.5"></rect>
<rect x="-14.7074" y="87.1609" width="20" height="40" fill="yellow" stroke="black" stroke-width="0.5"><title>room 32</title></rect><rect x="-8.70849" y="93.9109" width="2.5" height="2.5" fill="red" stroke="black" stroke-width="0.5"></rect><rect x="-11.9574" y="117.911" width="2.5" height="2.5" fill="red" stroke="black" stroke-width="0.5"></rect>
<rect x="-62.0718" y="85.0484" width="40" height="20" fill="yellow" stroke="black" stroke-width="0.5"><title>room 33</title></rect><rect x="-31.3218" y="87.7984" width="2.5" height="2.5" fill="red" stroke="black" stroke-width="0.5"></rect><rect x="-55.3218" y="87.7984" width="2.5" height="2.5" fill="red" stroke="black" stroke-width="0.5"></rect><rect x="-55.3218" y="99.7984" width="2.5" height="2.5" fill="red" stroke="black" stroke-width="0.5"></rect><rect x="-52.3858" y="99.7984" width="2.5" height="2.5" fill="red" stroke="black" stroke-width="0.5"></rect>
<rect x="-109.482" y="11.1938" width="40" height="20" fill="yellow" stroke="black" stroke-width="0.5"><title>room 34</title></rect><rect x="-78.7316" y="19.9485" width="2.5" height="2.5" fill="red" stroke="black" stroke-width="0.5"></rect>
<rect x="-75.2792" y="35.8506" width="20" height="20" fill="yellow" stroke="black" stroke-width="0.5"><title>room 35</title></rect><rect x="-60.5292" y="38.6006" width="2.5" height="2.5" fill="red" stroke="black" stroke-width="0.5"></rect>
<rect x="-73.864" y="-35.663" width="20" height="40" fill="yellow" stroke="black" stroke-width="0.5"><title>room 36</title></rect><rect x="-59.3733" y="-4.91296" width="2.5" height="2.5" fill="red" stroke="black" stroke-width="0.5"></rect>
<rect x="-52.6506" y="60.0661" width="20" height="20" fill="yellow" stroke="black" stroke-width="0.5"><title>room 37</title></rect><rect x="-37.9006" y="62.8161" width="2.5" height="2.5" fill="red" stroke="black" stroke-width="0.5"></rect>
<rect x="-216.153" y="-191.755" width="20" height="40" fill="yellow" stroke="black" stroke-width="0.5"><title>room 38</title></rect><rect x="-201.403" y="-161.005" width="2.5" height="2.5" fill="red" stroke="black" stroke-width="0.5"></rect>
<rect x="77.6286" y="-51.4855" width="40" height="20" fill="yellow" stroke="black" stroke-width="0.5"><title>room 39</title></rect><rect x="84.3786" y="-48.7355" width="2.5" height="2.5" fill="red" stroke="black" stroke-width="0.5"></rect>
<rect x="78.7756" y="-100.743" width="40" height="20" fill="yellow" stroke="black" stroke-width="0.5"><title>room 40</title></rect><rect x="85.5256" y="-85.9933" width="2.5" height="2.5" fill="red" stroke="black" stroke-width="0.5"></rect>
<rect x="51.5471" y="-123.061" width="20" height="40" fill="yellow" stroke="black" stroke-width="0.5"><title>room 41</title></rect><rect x="54.2971" y="-92.3106" width="2.5" height="2.5" fill="red" stroke="black" stroke-width="0.5"></rect>
<rect x="50.7142" y="121.881" width="20" height="20" fill="yellow" stroke="black" stroke-width="0.5"><title>room 42</title></rect><rect x="56.149" y="124.631" width="2.5" height="2.5" fill="red" stroke="black" stroke-width="0.5"></rect>
<rect x="25.7692" y="121.794" width="20" height="20" fill="yellow" stroke="black" stroke-width="0.5"><title>room 43</title></rect><rect x="40.5192" y="124.544" width="2.5" height="2.5" fill="red" stroke="black" stroke-width="0.5"></rect>
<rect x="75.6323" y="100.079" width="20" height="40" fill="yellow" stroke="black" stroke-width="0.5"><title>room 44</title></rect><rect x="89.6277" y="106.829" width="2.5" height="2.5" fill="red" stroke="black" stroke-width="0.5"></rect>
<rect x="101.762" y="98.8113" width="30" height="30" fill="yellow" stroke="black" stroke-width="0.5"><title>room 45</title></rect><rect x="106.512" y="103.561" width="2.5" height="2.5" fill="red" stroke="black" stroke-width="0.5"></rect>
<rect x="-39.3713" y="112.413" width="20" height="40" fill="yellow" stroke="black" stroke-width="0.5"><title>room 46</title></rect><rect x="-24.6213" y="119.163" width="2.5" height="2.5" fill="red" stroke="black" stroke-width="0.5"></rect>
<rect x="-77.488" y="60.6413" width="20" height="20" fill="yellow" stroke="black" stroke-width="0.5"><title>room 47</title></rect><rect x="-62.738" y="75.3913" width="2.5" height="2.5" fill="red" stroke="black" stroke-width="0.5"></rect>
<rect x="-89.0445" y="93.6517" width="20" height="40" fill="yellow" stroke="black" stroke-width="0.5"><title>room 48</title></rect><rect x="-74.2945" y="100.402" width="2.5" height="2.5" fill="red" stroke="black" stroke-width="0.5"></rect>
<rect x="-64.1998" y="109.813" width="20" height="20" fill="yellow" stroke="black" stroke-width="0.5"><title>room 49</title></rect><rect x="-52.3858" y="112.563" width="2.5" height="2.5" fill="red" stroke="black" stroke-width="0.5"></rect>
<line x1="-57.14711521629839" y1="-53.1246413654811" x2="-40.55111481723152" y2="-37.111260833010476" stroke-width="0.5" stroke="blue" />
<line x1="-69.14711521629839" y1="-58.08131900496092" x2="-85.09798088109152" y2="-58.081318296501365" stroke-width="0.5" stroke="blue" />
<line x1="-69.14711521629839" y1="-77.1246413654811" x2="-81.84049791182807" y2="-79.15610976083828" stroke-width="0.5" stroke="blue" />
<line x1="-30.28005597858346" y1="-37.111260833010476" x2="-30.28008903059566" y2="-53.06887853793169" stroke-width="0.5" stroke="blue" />
<line x1="-22.551114817231518" y1="-19.11126083301048" x2="-5.696996440311693" y2="-0.6963329838861299" stroke-width="0.5" stroke="blue" />
<line x1="-93.84049791182807" y1="-91.15610976083828" x2="-95.59674971489126" y2="-103.84909188146104" stroke-width="0.5" stroke="blue" />
<line x1="-14.009030191947733" y1="-65.06887853793168" x2="-12.917374433216741" y2="-77.77397434963261" stroke-width="0.5" stroke="blue" />
<line x1="-35.14189794104062" y1="-65.06887853793168" x2="-35.14190244887462" y2="-77.83203557222409" stroke-width="0.5" stroke="blue" />
<line x1="12.303003559688307" y1="-0.6963329838861299" x2="29.588082095901946" y2="-4.185887331521435" stroke-width="0.5" stroke="blue" />
<line x1="12.303003559688307" y1="17.30366701611387" x2="13.299543744319944" y2="39.27566471303789" stroke-width="0.5" stroke="blue" />
<line x1="-5.696996440311693" y1="15.930792808176168" x2="-21.582941255175275" y2="15.930787152355231" stroke-width="0.5" stroke="blue" />
<line x1="-119.59674971489126" y1="-103.84909188146104" x2="-120.11827064577928" y2="-91.1492718564656" stroke-width="0.5" stroke="blue" />
<line x1="-119.59674971489126" y1="-115.84909188146104" x2="-138.50704680159728" y2="-116.8410904583505" stroke-width="0.5" stroke="blue" />
<line x1="11.082625566783259" y1="-89.77397434963261" x2="11.379319196783118" y2="-105.60062610669782" stroke-width="0.5" stroke="blue" />
<line x1="29.588082095901946" y1="-28.185887331521435" x2="16.962061264512577" y2="-28.43642871230211" stroke-width="0.5" stroke="blue" />
<line x1="41.588082095901946" y1="-4.185887331521435" x2="60.28966337847844" y2="1.9991911753851639" stroke-width="0.5" stroke="blue" />
<line x1="41.588082095901946" y1="-28.185887331521435" x2="46.177515964739975" y2="-46.97092774285969" stroke-width="0.5" stroke="blue" />
<line x1="25.299543744319944" y1="51.27566471303789" x2="32.870369353120644" y2="64.0146912854681" stroke-width="0.5" stroke="blue" />
<line x1="13.299543744319944" y1="51.27566471303789" x2="6.573157983427781" y2="64.05624802610205" stroke-width="0.5" stroke="blue" />
<line x1="-33.58294125517527" y1="20.880544019083732" x2="-46.38254900141898" y2="20.880545490745604" stroke-width="0.5" stroke="blue" />
<line x1="-28.931904095799034" y1="26.557912944418774" x2="-28.931924450986283" y2="39.351424453230905" stroke-width="0.5" stroke="blue" />
<line x1="-150.50704680159728" y1="-140.8410904583505" x2="-166.3293400751448" y2="-141.428124801278" stroke-width="0.5" stroke="blue" />
<line x1="84.28966337847844" y1="1.9991911753851639" x2="85.76529960832619" y2="-10.649656977534566" stroke-width="0.5" stroke="blue" />
<line x1="63.09860080980063" y1="13.999191175385164" x2="63.09859372569659" y2="29.89022900207354" stroke-width="0.5" stroke="blue" />
<line x1="84.28966337847844" y1="13.999191175385164" x2="85.29934969040306" y2="29.809211472861307" stroke-width="0.5" stroke="blue" />
<line x1="58.177515964739975" y1="-58.97092774285969" x2="70.93899279294968" y2="-60.09847910069105" stroke-width="0.5" stroke="blue" />
<line x1="56.31277473624445" y1="-46.97092774285969" x2="56.31277842031863" y2="-34.21292809864758" stroke-width="0.5" stroke="blue" />
<line x1="46.177515964739975" y1="-58.97092774285969" x2="43.05241409066331" y2="-71.68888961854009" stroke-width="0.5" stroke="blue" />
<line x1="49.47707412186693" y1="76.0146912854681" x2="49.47707156047353" y2="91.96884310335986" stroke-width="0.5" stroke="blue" />
<line x1="32.870369353120644" y1="76.0146912854681" x2="26.11869978849881" y2="88.67583891825915" stroke-width="0.5" stroke="blue" />
<line x1="56.870369353120644" y1="76.0146912854681" x2="82.10201988029316" y2="77.01106738753228" stroke-width="0.5" stroke="blue" />
<line x1="-7.4584833497335765" y1="76.05624802610205" x2="-7.458487357702657" y2="95.160888106619" stroke-width="0.5" stroke="blue" />
<line x1="-17.42684201657222" y1="76.05624802610205" x2="-30.071849060647757" y2="89.04839537858184" stroke-width="0.5" stroke="blue" />
<line x1="-58.38254900141898" y1="21.198466498350506" x2="-77.48161817724699" y2="21.198467324726586" stroke-width="0.5" stroke="blue" />
<line x1="-58.38254900141898" y1="27.203176565410562" x2="-59.27919288485988" y2="39.85058172323754" stroke-width="0.5" stroke="blue" />
<line x1="-58.12329072511403" y1="15.203176565410562" x2="-58.12328936328257" y2="-3.6629572784369078" stroke-width="0.5" stroke="blue" />
<line x1="-36.28088729161004" y1="51.351424453230905" x2="-36.65056795333321" y2="64.06607872104497" stroke-width="0.5" stroke="blue" />
<line x1="-184.3293400751448" y1="-159.428124801278" x2="-200.15338089491547" y2="-159.75511125741951" stroke-width="0.5" stroke="blue" />
<line x1="82.93899279294968" y1="-60.09847910069105" x2="85.62856873438356" y2="-47.485515004201815" stroke-width="0.5" stroke="blue" />
<line x1="82.93899279294968" y1="-72.09847910069105" x2="86.77555037101016" y2="-84.74334709047771" stroke-width="0.5" stroke="blue" />
<line x1="43.05241409066331" y1="-83.68888961854009" x2="55.547090064833746" y2="-91.0606272782299" stroke-width="0.5" stroke="blue" />
<line x1="57.3989642123669" y1="109.96884310335986" x2="57.398974870307065" y2="125.88087699777532" stroke-width="0.5" stroke="blue" />
<line x1="42.083776329219866" y1="109.96884310335986" x2="41.76918890681578" y2="125.79358759116533" stroke-width="0.5" stroke="blue" />
<line x1="90.87771090750722" y1="89.01106738753228" x2="90.87772180034396" y2="108.07923806638755" stroke-width="0.5" stroke="blue" />
<line x1="106.10201988029316" y1="89.01106738753228" x2="107.76231323383026" y2="104.81125161604693" stroke-width="0.5" stroke="blue" />
<line x1="-10.707356863958053" y1="119.160888106619" x2="-23.371319097215775" y2="120.41323191662235" stroke-width="0.5" stroke="blue" />
<line x1="-54.07184906064776" y1="89.04839537858184" x2="-61.48796276896533" y2="76.64126462026951" stroke-width="0.5" stroke="blue" />
<line x1="-54.07184906064776" y1="101.04839537858184" x2="-73.04451473356313" y2="101.65170500519328" stroke-width="0.5" stroke="blue" />
<line x1="-51.135804203219855" y1="101.04839537858184" x2="-51.13580173567237" y2="113.81292198942656" stroke-width="0.5" stroke="blue" />
</svg>