<svg width="100%" height="100%" viewBox="-158.053 -169.729 324.663 329.001"  xmlns="http://www.w3.org/2000/svg" xmlns:xlink="http://www.w3.org/1999/xlink" version="1.1">
<rect x="-22.2064" y="18.5583" width="40" height="20" fill="yellow" stroke="black" stroke-width="0.5"><title>room 0</title></rect><rect x="-3.45644" y="35.3083" width="2.5" height="2.5" fill="red" stroke="black" stroke-width="0.5"></rect><rect x="-19.4564" y="27.3083" width="2.5" height="2.5" fill="red" stroke="black" stroke-width="0.5"></rect><rect x="-3.45644" y="19.3083" width="2.5" height="2.5" fill="red" stroke="black" stroke-width="0.5"></rect><rect x="12.5436" y="27.3083" width="2.5" height="2.5" fill="red" stroke="black" stroke-width="0.5"></rect>
<rect x="24.6046" y="12.7045" width="30" height="30" fill="yellow" stroke="black" stroke-width="0.5"><title>room 1</title></rect><rect x="38.3546" y="38.4545" width="2.5" height="2.5" fill="red" stroke="black" stroke-width="0.5"></rect><rect x="26.3546" y="26.4545" width="2.5" height="2.5" fill="red" stroke="black" stroke-width="0.5"></rect><rect x="38.3546" y="14.4545" width="2.5" height="2.5" fill="red" stroke="black" stroke-width="0.5"></rect><rect x="50.3546" y="26.4545" width="2.5" height="2.5" fill="red" stroke="black" stroke-width="0.5"></rect>
<rect x="-30.2264" y="-20.6863" width="20" height="20" fill="yellow" stroke="black" stroke-width="0.5"><title>room 2</title></rect><rect x="-21.4764" y="-3.9363" width="2.5" height="2.5" fill="red" stroke="black" stroke-width="0.5"></rect><rect x="-29.4764" y="-11.9363" width="2.5" height="2.5" fill="red" stroke="black" stroke-width="0.5"></rect><rect x="-21.4764" y="-19.9363" width="2.5" height="2.5" fill="red" stroke="black" stroke-width="0.5"></rect><rect x="-13.4764" y="-11.9363" width="2.5" height="2.5" fill="red" stroke="black" stroke-width="0.5"></rect>
<rect x="63.2236" y="30.1224" width="40" height="20" fill="yellow" stroke="black" stroke-width="0.5"><title>room 3</title></rect><rect x="81.9736" y="46.8724" width="2.5" height="2.5" fill="red" stroke="black" stroke-width="0.5"></rect><rect x="65.9736" y="38.8724" width="2.5" height="2.5" fill="red" stroke="black" stroke-width="0.5"></rect><rect x="81.9736" y="30.8724" width="2.5" height="2.5" fill="red" stroke="black" stroke-width="0.5"></rect><rect x="97.9736" y="38.8724" width="2.5" height="2.5" fill="red" stroke="black" stroke-width="0.5"></rect>
<rect x="76.9928" y="61.059" width="40" height="20" fill="yellow" stroke="black" stroke-width="0.5"><title>room 4</title></rect><rect x="95.7428" y="77.809" width="2.5" height="2.5" fill="red" stroke="black" stroke-width="0.5"></rect><rect x="79.7428" y="69.809" width="2.5" height="2.5" fill="red" stroke="black" stroke-width="0.5"></rect><rect x="95.7428" y="61.809" width="2.5" height="2.5" fill="red" stroke="black" stroke-width="0.5"></rect><rect x="111.743" y="69.809" width="2.5" height="2.5" fill="red" stroke="black" stroke-width="0.5"></rect>
<rect x="68.7991" y="0.405346" width="30" height="30" fill="yellow" stroke="black" stroke-width="0.5"><title>room 5</title></rect><rect x="82.5491" y="26.1553" width="2.5" height="2.5" fill="red" stroke="black" stroke-width="0.5"></rect><rect x="70.5491" y="14.1553" width="2.5" height="2.5" fill="red" stroke="black" stroke-width="0.5"></rect><rect x="82.5491" y="2.15535" width="2.5" height="2.5" fill="red" stroke="black" stroke-width="0.5"></rect><rect x="94.5491" y="14.1553" width="2.5" height="2.5" fill="red" stroke="black" stroke-width="0.5"></rect>
<rect x="-31.525" y="-57.2054" width="20" height="20" fill="yellow" stroke="black" stroke-width="0.5"><title>room 6</title></rect><rect x="-22.775" y="-40.4554" width="2.5" height="2.5" fill="red" stroke="black" stroke-width="0.5"></rect><rect x="-30.775" y="-48.4554" width="2.5" height="2.5" fill="red" stroke="black" stroke-width="0.5"></rect><rect x="-22.775" y="-56.4554" width="2.5" height="2.5" fill="red" stroke="black" stroke-width="0.5"></rect><rect x="-14.775" y="-48.4554" width="2.5" height="2.5" fill="red" stroke="black" stroke-width="0.5"></rect>
<rect x="-10.4266" y="-20.9412" width="20" height="20" fill="yellow" stroke="black" stroke-width="0.5"><title>room 7</title></rect><rect x="-1.67657" y="-4.19118" width="2.5" height="2.5" fill="red" stroke="black" stroke-width="0.5"></rect><rect x="-9.67657" y="-12.1912" width="2.5" height="2.5" fill="red" stroke="black" stroke-width="0.5"></rect><rect x="-1.67657" y="-20.1912" width="2.5" height="2.5" fill="red" stroke="black" stroke-width="0.5"></rect><rect x="6.32343" y="-12.1912" width="2.5" height="2.5" fill="red" stroke="black" stroke-width="0.5"></rect>
<rect x="-71.2542" y="-57.5926" width="40" height="20" fill="yellow" stroke="black" stroke-width="0.5"><title>room 8</title></rect><rect x="-52.5042" y="-40.8426" width="2.5" height="2.5" fill="red" stroke="black" stroke-width="0.5"></rect><rect x="-68.5042" y="-48.8426" width="2.5" height="2.5" fill="red" stroke="black" stroke-width="0.5"></rect><rect x="-52.5042" y="-56.8426" width="2.5" height="2.5" fill="red" stroke="black" stroke-width="0.5"></rect><rect x="-36.5042" y="-48.8426" width="2.5" height="2.5" fill="red" stroke="black" stroke-width="0.5"></rect>
<rect x="-38.3226" y="-102.434" width="20" height="40" fill="yellow" stroke="black" stroke-width="0.5"><title>room 9</title></rect><rect x="-29.5726" y="-67.6836" width="2.5" height="2.5" fill="red" stroke="black" stroke-width="0.5"></rect><rect x="-37.5726" y="-83.6836" width="2.5" height="2.5" fill="red" stroke="black" stroke-width="0.5"></rect><rect x="-29.5726" y="-99.6836" width="2.5" height="2.5" fill="red" stroke="black" stroke-width="0.5"></rect><rect x="-21.5726" y="-83.6836" width="2.5" height="2.5" fill="red" stroke="black" stroke-width="0.5"></rect>
<rect x="8.05466" y="42.4726" width="40" height="20" fill="yellow" stroke="black" stroke-width="0.5"><title>room 10</title></rect><rect x="26.8047" y="59.2226" width="2.5" height="2.5" fill="red" stroke="black" stroke-width="0.5"></rect><rect x="10.8047" y="51.2226" width="2.5" height="2.5" fill="red" stroke="black" stroke-width="0.5"></rect><rect x="26.8047" y="43.2226" width="2.5" height="2.5" fill="red" stroke="black" stroke-width="0.5"></rect><rect x="42.8047" y="51.2226" width="2.5" height="2.5" fill="red" stroke="black" stroke-width="0.5"></rect>
<rect x="28.9984" y="-15.8467" width="40" height="20" fill="yellow" stroke="black" stroke-width="0.5"><title>room 11</title></rect><rect x="47.7484" y="0.903323" width="2.5" height="2.5" fill="red" stroke="black" stroke-width="0.5"></rect><rect x="31.7484" y="-7.09668" width="2.5" height="2.5" fill="red" stroke="black" stroke-width="0.5"></rect><rect x="47.7484" y="-15.0967" width="2.5" height="2.5" fill="red" stroke="black" stroke-width="0.5"></rect><rect x="63.7484" y="-7.09668" width="2.5" height="2.5" fill="red" stroke="black" stroke-width="0.5"></rect>
<rect x="80.2652" y="81.0702" width="40" height="20" fill="yellow" stroke="black" stroke-width="0.5"><title>room 12</title></rect><rect x="99.0152" y="97.8202" width="2.5" height="2.5" fill="red" stroke="black" stroke-width="0.5"></rect><rect x="83.0152" y="89.8202" width="2.5" height="2.5" fill="red" stroke="black" stroke-width="0.5"></rect><rect x="99.0152" y="81.8202" width="2.5" height="2.5" fill="red" stroke="black" stroke-width="0.5"></rect><rect x="115.015" y="89.8202" width="2.5" height="2.5" fill="red" stroke="black" stroke-width="0.5"></rect>
<rect x="40.643" y="79.3375" width="40" height="20" fill="yellow" stroke="black" stroke-width="0.5"><title>room 13</title></rect><rect x="59.393" y="96.0875" width="2.5" height="2.5" fill="red" stroke="black" stroke-width="0.5"></rect><rect x="43.393" y="88.0875" width="2.5" height="2.5" fill="red" stroke="black" stroke-width="0.5"></rect><rect x="59.393" y="80.0875" width="2.5" height="2.5" fill="red" stroke="black" stroke-width="0.5"></rect><rect x="75.393" y="88.0875" width="2.5" height="2.5" fill="red" stroke="black" stroke-width="0.5"></rect>
<rect x="-68.1623" y="-100.021" width="30" height="30" fill="yellow" stroke="black" stroke-width="0.5"><title>room 14</title></rect><rect x="-54.4123" y="-74.2706" width="2.5" height="2.5" fill="red" stroke="black" stroke-width="0.5"></rect><rect x="-66.4123" y="-86.2706" width="2.5" height="2.5" fill="red" stroke="black" stroke-width="0.5"></rect><rect x="-54.4123" y="-98.2706" width="2.5" height="2.5" fill="red" stroke="black" stroke-width="0.5"></rect><rect x="-42.4123" y="-86.2706" width="2.5" height="2.5" fill="red" stroke="black" stroke-width="0.5"></rect>
<rect x="39.5026" y="-35.7098" width="20" height="20" fill="yellow" stroke="black" stroke-width="0.5"><title>room 15</title></rect><rect x="48.2526" y="-18.9598" width="2.5" height="2.5" fill="red" stroke="black" stroke-width="0.5"></rect><rect x="40.2526" y="-26.9598" width="2.5" height="2.5" fill="red" stroke="black" stroke-width="0.5"></rect><rect x="48.2526" y="-34.9598" width="2.5" height="2.5" fill="red" stroke="black" stroke-width="0.5"></rect><rect x="56.2526" y="-26.9598" width="2.5" height="2.5" fill="red" stroke="black" stroke-width="0.5"></rect>
<rect x="68.5924" y="-29.2863" width="30" height="30" fill="yellow" stroke="black" stroke-width="0.5"><title>room 16</title></rect><rect x="82.3424" y="-3.53625" width="2.5" height="2.5" fill="red" stroke="black" stroke-width="0.5"></rect><rect x="70.3424" y="-15.5363" width="2.5" height="2.5" fill="red" stroke="black" stroke-width="0.5"></rect><rect x="82.3424" y="-27.5363" width="2.5" height="2.5" fill="red" stroke="black" stroke-width="0.5"></rect><rect x="94.3424" y="-15.5363" width="2.5" height="2.5" fill="red" stroke="black" stroke-width="0.5"></rect>
<rect x="-9.08096" y="-70.4086" width="30" height="30" fill="yellow" stroke="black" stroke-width="0.5"><title>room 17</title></rect><rect x="4.66904" y="-44.6586" width="2.5" height="2.5" fill="red" stroke="black" stroke-width="0.5"></rect><rect x="-7.33096" y="-56.6586" width="2.5" height="2.5" fill="red" stroke="black" stroke-width="0.5"></rect><rect x="4.66904" y="-68.6586" width="2.5" height="2.5" fill="red" stroke="black" stroke-width="0.5"></rect><rect x="16.669" y="-56.6586" width="2.5" height="2.5" fill="red" stroke="black" stroke-width="0.5"></rect>
<rect x="-64.1399" y="-15.3126" width="30" height="30" fill="yellow" stroke="black" stroke-width="0.5"><title>room 18</title></rect><rect x="-50.3899" y="10.4374" width="2.5" height="2.5" fill="red" stroke="black" stroke-width="0.5"></rect><rect x="-62.3899" y="-1.56265" width="2.5" height="2.5" fill="red" stroke="black" stroke-width="0.5"></rect><rect x="-50.3899" y="-13.5626" width="2.5" height="2.5" fill="red" stroke="black" stroke-width="0.5"></rect><rect x="-38.3899" y="-1.56265" width="2.5" height="2.5" fill="red" stroke="black" stroke-width="0.5"></rect>
<rect x="-107.834" y="-96.102" width="40" height="20" fill="yellow" stroke="black" stroke-width="0.5"><title>room 19</title></rect><rect x="-89.0839" y="-79.352" width="2.5" height="2.5" fill="red" stroke="black" stroke-width="0.5"></rect><rect x="-105.084" y="-87.352" width="2.5" height="2.5" fill="red" stroke="black" stroke-width="0.5"></rect><rect x="-89.0839" y="-95.352" width="2.5" height="2.5" fill="red" stroke="black" stroke-width="0.5"></rect><rect x="-73.0839" y="-87.352" width="2.5" height="2.5" fill="red" stroke="black" stroke-width="0.5"></rect>
<rect x="50.9899" y="99.0702" width="20" height="40" fill="yellow" stroke="black" stroke-width="0.5"><title>room 20</title></rect><rect x="59.7399" y="133.82" width="2.5" height="2.5" fill="red" stroke="black" stroke-width="0.5"></rect><rect x="51.7399" y="117.82" width="2.5" height="2.5" fill="red" stroke="black" stroke-width="0.5"></rect><rect x="59.7399" y="101.82" width="2.5" height="2.5" fill="red" stroke="black" stroke-width="0.5"></rect><rect x="67.7399" y="117.82" width="2.5" height="2.5" fill="red" stroke="black" stroke-width="0.5"></rect>
<rect x="9.39822" y="-20.8298" width="20" height="20" fill="yellow" stroke="black" stroke-width="0.5"><title>room 21</title></rect><rect x="18.1482" y="-4.07984" width="2.5" height="2.5" fill="red" stroke="black" stroke-width="0.5"></rect><rect x="10.1482" y="-12.0798" width="2.5" height="2.5" fill="red" stroke="black" stroke-width="0.5"></rect><rect x="18.1482" y="-20.0798" width="2.5" height="2.5" fill="red" stroke="black" stroke-width="0.5"></rect><rect x="26.1482" y="-12.0798" width="2.5" height="2.5" fill="red" stroke="black" stroke-width="0.5"></rect>
<rect x="-18.5102" y="-110.673" width="20" height="40" fill="yellow" stroke="black" stroke-width="0.5"><title>room 22</title></rect><rect x="-9.76017" y="-75.9225" width="2.5" height="2.5" fill="red" stroke="black" stroke-width="0.5"></rect><rect x="-17.7602" y="-91.9225" width="2.5" height="2.5" fill="red" stroke="black" stroke-width="0.5"></rect><rect x="-9.76017" y="-107.923" width="2.5" height="2.5" fill="red" stroke="black" stroke-width="0.5"></rect><rect x="-1.76017" y="-91.9225" width="2.5" height="2.5" fill="red" stroke="black" stroke-width="0.5"></rect>
<rect x="-71.4693" y="24.1027" width="30" height="30" fill="yellow" stroke="black" stroke-width="0.5"><title>room 23</title></rect><rect x="-57.7193" y="49.8527" width="2.5" height="2.5" fill="red" stroke="black" stroke-width="0.5"></rect><rect x="-69.7193" y="37.8527" width="2.5" height="2.5" fill="red" stroke="black" stroke-width="0.5"></rect><rect x="-57.7193" y="25.8527" width="2.5" height="2.5" fill="red" stroke="black" stroke-width="0.5"></rect><rect x="-45.7193" y="37.8527" width="2.5" height="2.5" fill="red" stroke="black" stroke-width="0.5"></rect>
<rect x="-137.499" y="-101.666" width="30" height="30" fill="yellow" stroke="black" stroke-width="0.5"><title>room 24</title></rect><rect x="-123.749" y="-75.9157" width="2.5" height="2.5" fill="red" stroke="black" stroke-width="0.5"></rect><rect x="-135.749" y="-87.9157" width="2.5" height="2.5" fill="red" stroke="black" stroke-width="0.5"></rect><rect x="-123.749" y="-99.9157" width="2.5" height="2.5" fill="red" stroke="black" stroke-width="0.5"></rect><rect x="-111.749" y="-87.9157" width="2.5" height="2.5" fill="red" stroke="black" stroke-width="0.5"></rect>
<rect x="-63.9098" y="-139.683" width="20" height="40" fill="yellow" stroke="black" stroke-width="0.5"><title>room 25</title></rect><rect x="-55.1598" y="-104.933" width="2.5" height="2.5" fill="red" stroke="black" stroke-width="0.5"></rect><rect x="-63.1598" y="-120.933" width="2.5" height="2.5" fill="red" stroke="black" stroke-width="0.5"></rect><rect x="-55.1598" y="-136.933" width="2.5" height="2.5" fill="red" stroke="black" stroke-width="0.5"></rect><rect x="-47.1598" y="-120.933" width="2.5" height="2.5" fill="red" stroke="black" stroke-width="0.5"></rect>
<rect x="-41.7704" y="26.1118" width="20" height="40" fill="yellow" stroke="black" stroke-width="0.5"><title>room 26</title></rect><rect x="-33.0204" y="60.8618" width="2.5" height="2.5" fill="red" stroke="black" stroke-width="0.5"></rect><rect x="-41.0204" y="44.8618" width="2.5" height="2.5" fill="red" stroke="black" stroke-width="0.5"></rect><rect x="-33.0204" y="28.8618" width="2.5" height="2.5" fill="red" stroke="black" stroke-width="0.5"></rect><rect x="-25.0204" y="44.8618" width="2.5" height="2.5" fill="red" stroke="black" stroke-width="0.5"></rect>
<rect x="-91.2795" y="24.117" width="20" height="40" fill="yellow" stroke="black" stroke-width="0.5"><title>room 27</title></rect><rect x="-82.5295" y="58.867" width="2.5" height="2.5" fill="red" stroke="black" stroke-width="0.5"></rect><rect x="-90.5295" y="42.867" width="2.5" height="2.5" fill="red" stroke="black" stroke-width="0.5"></rect><rect x="-82.5295" y="26.867" width="2.5" height="2.5" fill="red" stroke="black" stroke-width="0.5"></rect><rect x="-74.5295" y="42.867" width="2.5" height="2.5" fill="red" stroke="black" stroke-width="0.5"></rect>
<rect x="11.0013" y="74.9392" width="30" height="30" fill="yellow" stroke="black" stroke-width="0.5"><title>room 28</title></rect><rect x="24.7513" y="100.689" width="2.5" height="2.5" fill="red" stroke="black" stroke-width="0.5"></rect><rect x="12.7513" y="88.6892" width="2.5" height="2.5" fill="red" stroke="black" stroke-width="0.5"></rect><rect x="24.7513" y="76.6892" width="2.5" height="2.5" fill="red" stroke="black" stroke-width="0.5"></rect><rect x="36.7513" y="88.6892" width="2.5" height="2.5" fill="red" stroke="black" stroke-width="0.5"></rect>
<rect x="-138.117" y="-71.9442" width="30" height="30" fill="yellow" stroke="black" stroke-width="0.5"><title>room 29</title></rect><rect x="-124.367" y="-46.1942" width="2.5" height="2.5" fill="red" stroke="black" stroke-width="0.5"></rect><rect x="-136.367" y="-58.1942" width="2.5" height="2.5" fill="red" stroke="black" stroke-width="0.5"></rect><rect x="-124.367" y="-70.1942" width="2.5" height="2.5" fill="red" stroke="black" stroke-width="0.5"></rect><rect x="-112.367" y="-58.1942" width="2.5" height="2.5" fill="red" stroke="black" stroke-width="0.5"></rect>
<rect x="-83.9442" y="-15.4053" width="20" height="20" fill="yellow" stroke="black" stroke-width="0.5"><title>room 30</title></rect><rect x="-75.1942" y="1.34469" width="2.5" height="2.5" fill="red" stroke="black" stroke-width="0.5"></rect><rect x="-83.1942" y="-6.65531" width="2.5" height="2.5" fill="red" stroke="black" stroke-width="0.5"></rect><rect x="-75.1942" y="-14.6553" width="2.5" height="2.5" fill="red" stroke="black" stroke-width="0.5"></rect><rect x="-67.1942" y="-6.65531" width="2.5" height="2.5" fill="red" stroke="black" stroke-width="0.5"></rect>
<rect x="-18.2648" y="-132.409" width="20" height="20" fill="yellow" stroke="black" stroke-width="0.5"><title>room 31</title></rect><rect x="-9.51481" y="-115.659" width="2.5" height="2.5" fill="red" stroke="black" stroke-width="0.5"></rect><rect x="-17.5148" y="-123.659" width="2.5" height="2.5" fill="red" stroke="black" stroke-width="0.5"></rect><rect x="-9.51481" y="-131.659" width="2.5" height="2.5" fill="red" stroke="black" stroke-width="0.5"></rect><rect x="-1.51481" y="-123.659" width="2.5" height="2.5" fill="red" stroke="black" stroke-width="0.5"></rect>
<rect x="47.4405" y="49.6438" width="30" height="30" fill="yellow" stroke="black" stroke-width="0.5"><title>room 32</title></rect><rect x="61.1905" y="75.3938" width="2.5" height="2.5" fill="red" stroke="black" stroke-width="0.5"></rect><rect x="49.1905" y="63.3938" width="2.5" height="2.5" fill="red" stroke="black" stroke-width="0.5"></rect><rect x="61.1905" y="51.3938" width="2.5" height="2.5" fill="red" stroke="black" stroke-width="0.5"></rect><rect x="73.1905" y="63.3938" width="2.5" height="2.5" fill="red" stroke="black" stroke-width="0.5"></rect>
<rect x="-63.7226" y="53.79" width="20" height="40" fill="yellow" stroke="black" stroke-width="0.5"><title>room 33</title></rect><rect x="-54.9726" y="88.54" width="2.5" height="2.5" fill="red" stroke="black" stroke-width="0.5"></rect><rect x="-62.9726" y="72.54" width="2.5" height="2.5" fill="red" stroke="black" stroke-width="0.5"></rect><rect x="-54.9726" y="56.54" width="2.5" height="2.5" fill="red" stroke="black" stroke-width="0.5"></rect><rect x="-46.9726" y="72.54" width="2.5" height="2.5" fill="red" stroke="black" stroke-width="0.5"></rect>
<rect x="1.34625" y="-109.949" width="20" height="40" fill="yellow" stroke="black" stroke-width="0.5"><title>room 34</title></rect><rect x="10.0962" y="-75.1991" width="2.5" height="2.5" fill="red" stroke="black" stroke-width="0.5"></rect><rect x="2.09625" y="-91.1991" width="2.5" height="2.5" fill="red" stroke="black" stroke-width="0.5"></rect><rect x="10.0962" y="-107.199" width="2.5" height="2.5" fill="red" stroke="black" stroke-width="0.5"></rect><rect x="18.0962" y="-91.1991" width="2.5" height="2.5" fill="red" stroke="black" stroke-width="0.5"></rect>
<rect x="102.958" y="30.2411" width="20" height="20" fill="yellow" stroke="black" stroke-width="0.5"><title>room 35</title></rect><rect x="111.708" y="46.9911" width="2.5" height="2.5" fill="red" stroke="black" stroke-width="0.5"></rect><rect x="103.708" y="38.9911" width="2.5" height="2.5" fill="red" stroke="black" stroke-width="0.5"></rect><rect x="111.708" y="30.9911" width="2.5" height="2.5" fill="red" stroke="black" stroke-width="0.5"></rect><rect x="119.708" y="38.9911" width="2.5" height="2.5" fill="red" stroke="black" stroke-width="0.5"></rect>
<rect x="116.675" y="52.8653" width="30" height="30" fill="yellow" stroke="black" stroke-width="0.5"><title>room 36</title></rect><rect x="130.425" y="78.6153" width="2.5" height="2.5" fill="red" stroke="black" stroke-width="0.5"></rect><rect x="118.425" y="66.6153" width="2.5" height="2.5" fill="red" stroke="black" stroke-width="0.5"></rect><rect x="130.425" y="54.6153" width="2.5" height="2.5" fill="red" stroke="black" stroke-width="0.5"></rect><rect x="142.425" y="66.6153" width="2.5" height="2.5" fill="red" stroke="black" stroke-width="0.5"></rect>
<rect x="-84.5406" y="4.40973" width="20" height="20" fill="yellow" stroke="black" stroke-width="0.5"><title>room 37</title></rect><rect x="-75.7906" y="21.1597" width="2.5" height="2.5" fill="red" stroke="black" stroke-width="0.5"></rect><rect x="-83.7906" y="13.1597" width="2.5" height="2.5" fill="red" stroke="black" stroke-width="0.5"></rect><rect x="-75.7906" y="5.15973" width="2.5" height="2.5" fill="red" stroke="black" stroke-width="0.5"></rect><rect x="-67.7906" y="13.1597" width="2.5" height="2.5" fill="red" stroke="black" stroke-width="0.5"></rect>
<rect x="-43.7987" y="65.6849" width="20" height="20" fill="yellow" stroke="black" stroke-width="0.5"><title>room 38</title></rect><rect x="-35.0487" y="82.4349" width="2.5" height="2.5" fill="red" stroke="black" stroke-width="0.5"></rect><rect x="-43.0487" y="74.4349" width="2.5" height="2.5" fill="red" stroke="black" stroke-width="0.5"></rect><rect x="-35.0487" y="66.4349" width="2.5" height="2.5" fill="red" stroke="black" stroke-width="0.5"></rect><rect x="-27.0487" y="74.4349" width="2.5" height="2.5" fill="red" stroke="black" stroke-width="0.5"></rect>
<rect x="-12.3784" y="-40.7195" width="40" height="20" fill="yellow" stroke="black" stroke-width="0.5"><title>room 39</title></rect><rect x="6.37163" y="-23.9695" width="2.5" height="2.5" fill="red" stroke="black" stroke-width="0.5"></rect><rect x="-9.62837" y="-31.9695" width="2.5" height="2.5" fill="red" stroke="black" stroke-width="0.5"></rect><rect x="6.37163" y="-39.9695" width="2.5" height="2.5" fill="red" stroke="black" stroke-width="0.5"></rect><rect x="22.3716" y="-31.9695" width="2.5" height="2.5" fill="red" stroke="black" stroke-width="0.5"></rect>
<rect x="-131.013" y="34.4696" width="40" height="20" fill="yellow" stroke="black" stroke-width="0.5"><title>room 40</title></rect><rect x="-112.263" y="51.2196" width="2.5" height="2.5" fill="red" stroke="black" stroke-width="0.5"></rect><rect x="-128.263" y="43.2196" width="2.5" height="2.5" fill="red" stroke="black" stroke-width="0.5"></rect><rect x="-112.263" y="35.2196" width="2.5" height="2.5" fill="red" stroke="black" stroke-width="0.5"></rect><rect x="-96.2626" y="43.2196" width="2.5" height="2.5" fill="red" stroke="black" stroke-width="0.5"></rect>
<rect x="20.5686" y="-65.9075" width="40" height="20" fill="yellow" stroke="black" stroke-width="0.5"><title>room 41</title></rect><rect x="39.3186" y="-49.1575" width="2.5" height="2.5" fill="red" stroke="black" stroke-width="0.5"></rect><rect x="23.3186" y="-57.1575" width="2.5" height="2.5" fill="red" stroke="black" stroke-width="0.5"></rect><rect x="39.3186" y="-65.1575" width="2.5" height="2.5" fill="red" stroke="black" stroke-width="0.5"></rect><rect x="55.3186" y="-57.1575" width="2.5" height="2.5" fill="red" stroke="black" stroke-width="0.5"></rect>
<rect x="21.2169" y="-110.939" width="20" height="40" fill="yellow" stroke="black" stroke-width="0.5"><title>room 42</title></rect><rect x="29.9669" y="-76.1889" width="2.5" height="2.5" fill="red" stroke="black" stroke-width="0.5"></rect><rect x="21.9669" y="-92.1889" width="2.5" height="2.5" fill="red" stroke="black" stroke-width="0.5"></rect><rect x="29.9669" y="-108.189" width="2.5" height="2.5" fill="red" stroke="black" stroke-width="0.5"></rect><rect x="37.9669" y="-92.1889" width="2.5" height="2.5" fill="red" stroke="black" stroke-width="0.5"></rect>
<rect x="41.0201" y="-106.465" width="30" height="30" fill="yellow" stroke="black" stroke-width="0.5"><title>room 43</title></rect><rect x="54.7701" y="-80.7152" width="2.5" height="2.5" fill="red" stroke="black" stroke-width="0.5"></rect><rect x="42.7701" y="-92.7152" width="2.5" height="2.5" fill="red" stroke="black" stroke-width="0.5"></rect><rect x="54.7701" y="-104.715" width="2.5" height="2.5" fill="red" stroke="black" stroke-width="0.5"></rect><rect x="66.7701" y="-92.7152" width="2.5" height="2.5" fill="red" stroke="black" stroke-width="0.5"></rect>
<rect x="-23.9464" y="67.9714" width="30" height="30" fill="yellow" stroke="black" stroke-width="0.5"><title>room 44</title></rect><rect x="-10.1964" y="93.7214" width="2.5" height="2.5" fill="red" stroke="black" stroke-width="0.5"></rect><rect x="-22.1964" y="81.7214" width="2.5" height="2.5" fill="red" stroke="black" stroke-width="0.5"></rect><rect x="-10.1964" y="69.7214" width="2.5" height="2.5" fill="red" stroke="black" stroke-width="0.5"></rect><rect x="1.80362" y="81.7214" width="2.5" height="2.5" fill="red" stroke="black" stroke-width="0.5"></rect>
<rect x="-21.9301" y="38.3302" width="30" height="30" fill="yellow" stroke="black" stroke-width="0.5"><title>room 45</title></rect><rect x="-8.18008" y="64.0802" width="2.5" height="2.5" fill="red" stroke="black" stroke-width="0.5"></rect><rect x="-20.1801" y="52.0802" width="2.5" height="2.5" fill="red" stroke="black" stroke-width="0.5"></rect><rect x="-8.18008" y="40.0802" width="2.5" height="2.5" fill="red" stroke="black" stroke-width="0.5"></rect><rect x="3.81992" y="52.0802" width="2.5" height="2.5" fill="red" stroke="black" stroke-width="0.5"></rect>
<rect x="-93.712" y="-135.211" width="30" height="30" fill="yellow" stroke="black" stroke-width="0.5"><title>room 46</title></rect><rect x="-79.962" y="-109.461" width="2.5" height="2.5" fill="red" stroke="black" stroke-width="0.5"></rect><rect x="-91.962" y="-121.461" width="2.5" height="2.5" fill="red" stroke="black" stroke-width="0.5"></rect><rect x="-79.962" y="-133.461" width="2.5" height="2.5" fill="red" stroke="black" stroke-width="0.5"></rect><rect x="-67.962" y="-121.461" width="2.5" height="2.5" fill="red" stroke="black" stroke-width="0.5"></rect>
<rect x="-20.019" y="-1.16207" width="40" height="20" fill="yellow" stroke="black" stroke-width="0.5"><title>room 47</title></rect><rect x="-1.26902" y="15.5879" width="2.5" height="2.5" fill="red" stroke="black" stroke-width="0.5"></rect><rect x="-17.269" y="7.58793" width="2.5" height="2.5" fill="red" stroke="black" stroke-width="0.5"></rect><rect x="-1.26902" y="-0.412075" width="2.5" height="2.5" fill="red" stroke="black" stroke-width="0.5"></rect><rect x="14.731" y="7.58793" width="2.5" height="2.5" fill="red" stroke="black" stroke-width="0.5"></rect>
<rect x="-43.6633" y="85.2267" width="20" height="40" fill="yellow" stroke="black" stroke-width="0.5"><title>room 48</title></rect><rect x="-34.9133" y="119.977" width="2.5" height="2.5" fill="red" stroke="black" stroke-width="0.5"></rect><rect x="-42.9133" y="103.977" width="2.5" height="2.5" fill="red" stroke="black" stroke-width="0.5"></rect><rect x="-34.9133" y="87.9767" width="2.5" height="2.5" fill="red" stroke="black" stroke-width="0.5"></rect><rect x="-26.9133" y="103.977" width="2.5" height="2.5" fill="red" stroke="black" stroke-width="0.5"></rect>
<rect x="1.58657" y="-149.527" width="20" height="40" fill="yellow" stroke="black" stroke-width="0.5"><title>room 49</title></rect><rect x="10.3366" y="-114.777" width="2.5" height="2.5" fill="red" stroke="black" stroke-width="0.5"></rect><rect x="2.33657" y="-130.777" width="2.5" height="2.5" fill="red" stroke="black" stroke-width="0.5"></rect><rect x="10.3366" y="-146.777" width="2.5" height="2.5" fill="red" stroke="black" stroke-width="0.5"></rect><rect x="18.3366" y="-130.777" width="2.5" height="2.5" fill="red" stroke="black" stroke-width="0.5"></rect>
<line x1="27.60461396580972" y1="27.70450465878911" x2="13.793561288768334" y2="28.558340387864906" stroke-width="0.5" stroke="blue" />
<line x1="-20.22636059694974" y1="-2.6863049645234884" x2="-2.206438711231666" y2="20.558340387864906" stroke-width="0.5" stroke="blue" />
<line x1="67.22358339363232" y1="40.122361858824185" x2="51.60461396580972" y2="27.70450465878911" stroke-width="0.5" stroke="blue" />
<line x1="96.99283257022304" y1="63.059011801322015" x2="83.22358339363232" y2="48.122361858824185" stroke-width="0.5" stroke="blue" />
<line x1="83.7990889442949" y1="27.405345713668943" x2="83.22358339363232" y2="32.122361858824185" stroke-width="0.5" stroke="blue" />
<line x1="-21.524984446589958" y1="-39.20538358840782" x2="-20.22636059694974" y2="-18.686304964523487" stroke-width="0.5" stroke="blue" />
<line x1="-8.426567160122332" y1="-10.94117820549282" x2="-12.226360596949739" y2="-10.686304964523488" stroke-width="0.5" stroke="blue" />
<line x1="-35.25420019415463" y1="-47.592559531529105" x2="-29.524984446589958" y2="-47.20538358840782" stroke-width="0.5" stroke="blue" />
<line x1="-28.322614893752153" y1="-66.43364671264995" x2="-21.524984446589958" y2="-55.20538358840782" stroke-width="0.5" stroke="blue" />
<line x1="28.054663136441672" y1="44.47256472329923" x2="39.60461396580972" y2="39.704504658789105" stroke-width="0.5" stroke="blue" />
<line x1="48.99837129645183" y1="2.1533229078208524" x2="39.60461396580972" y2="15.704504658789109" stroke-width="0.5" stroke="blue" />
<line x1="100.26516366067561" y1="83.07015289422937" x2="96.99283257022304" y2="79.05901180132201" stroke-width="0.5" stroke="blue" />
<line x1="76.64302825370038" y1="89.33745953481642" x2="80.99283257022304" y2="71.05901180132201" stroke-width="0.5" stroke="blue" />
<line x1="-41.162303542288015" y1="-85.02055643796801" x2="-36.32261489375215" y2="-82.43364671264995" stroke-width="0.5" stroke="blue" />
<line x1="49.50262002698728" y1="-17.709778837798183" x2="48.99837129645183" y2="-13.846677092179148" stroke-width="0.5" stroke="blue" />
<line x1="71.59240683039984" y1="-14.286251523262871" x2="64.99837129645184" y2="-5.8466770921791476" stroke-width="0.5" stroke="blue" />
<line x1="-6.0809611255177485" y1="-55.40857398774976" x2="-13.524984446589958" y2="-47.20538358840782" stroke-width="0.5" stroke="blue" />
<line x1="-37.13987805639718" y1="-0.31264546603115034" x2="-28.22636059694974" y2="-10.686304964523488" stroke-width="0.5" stroke="blue" />
<line x1="-71.83391210996874" y1="-86.10201255016943" x2="-65.16230354228802" y2="-85.02055643796801" stroke-width="0.5" stroke="blue" />
<line x1="60.989857774621775" y1="103.0701654321833" x2="60.64302825370038" y2="97.33745953481642" stroke-width="0.5" stroke="blue" />
<line x1="27.398219513732535" y1="-10.829843189516803" x2="32.99837129645183" y2="-5.8466770921791476" stroke-width="0.5" stroke="blue" />
<line x1="-16.51017490553503" y1="-90.67252998133696" x2="-20.322614893752153" y2="-82.43364671264995" stroke-width="0.5" stroke="blue" />
<line x1="-56.46929183889988" y1="27.102733624345824" x2="-49.13987805639718" y2="11.68735453396885" stroke-width="0.5" stroke="blue" />
<line x1="-110.49905599301573" y1="-86.66569670062997" x2="-103.83391210996874" y2="-86.10201255016943" stroke-width="0.5" stroke="blue" />
<line x1="-53.90981645298051" y1="-103.68267815519027" x2="-53.162303542288015" y2="-97.02055643796801" stroke-width="0.5" stroke="blue" />
<line x1="-39.77043346936824" y1="46.11176993188025" x2="-44.46929183889988" y2="39.102733624345824" stroke-width="0.5" stroke="blue" />
<line x1="-73.27946911903219" y1="44.11703567186835" x2="-68.46929183889988" y2="39.102733624345824" stroke-width="0.5" stroke="blue" />
<line x1="38.00129403027759" y1="89.93918892608433" x2="44.64302825370038" y2="89.33745953481642" stroke-width="0.5" stroke="blue" />
<line x1="-123.11737791561437" y1="-68.94420514062809" x2="-122.49905599301573" y2="-74.66569670062997" stroke-width="0.5" stroke="blue" />
<line x1="-65.94415184305224" y1="-5.405310657972264" x2="-61.13987805639718" y2="-0.31264546603115034" stroke-width="0.5" stroke="blue" />
<line x1="-8.264814066627615" y1="-114.40881364862521" x2="-8.510174905535031" y2="-106.67252998133696" stroke-width="0.5" stroke="blue" />
<line x1="62.440510323313724" y1="76.64377303482826" x2="60.64302825370038" y2="81.33745953481642" stroke-width="0.5" stroke="blue" />
<line x1="-53.7225825300004" y1="57.79003546797743" x2="-56.46929183889988" y2="51.102733624345824" stroke-width="0.5" stroke="blue" />
<line x1="11.346245688595046" y1="-73.94910661993586" x2="5.9190388744822515" y2="-67.40857398774976" stroke-width="0.5" stroke="blue" />
<line x1="104.95800606255852" y1="40.24112533924848" x2="99.22358339363232" y2="40.122361858824185" stroke-width="0.5" stroke="blue" />
<line x1="119.67489204422651" y1="67.86531219808809" x2="112.99283257022304" y2="71.05901180132201" stroke-width="0.5" stroke="blue" />
<line x1="-74.54055917325002" y1="6.40973044238736" x2="-73.94415184305224" y2="2.5946893420277357" stroke-width="0.5" stroke="blue" />
<line x1="-41.79872577381432" y1="75.68485831343217" x2="-45.7225825300004" y2="73.79003546797743" stroke-width="0.5" stroke="blue" />
<line x1="7.621630138892308" y1="-38.71948381568434" x2="5.9190388744822515" y2="-43.40857398774976" stroke-width="0.5" stroke="blue" />
<line x1="-95.01258785131238" y1="44.469635834235966" x2="-89.27946911903219" y2="44.11703567186835" stroke-width="0.5" stroke="blue" />
<line x1="24.568592890809775" y1="-55.90745399171616" x2="17.91903887448225" y2="-55.40857398774976" stroke-width="0.5" stroke="blue" />
<line x1="23.216913666223725" y1="-90.9389042403157" x2="19.346245688595047" y2="-89.94910661993586" stroke-width="0.5" stroke="blue" />
<line x1="44.0201077108568" y1="-91.4651943212681" x2="39.216913666223725" y2="-90.9389042403157" stroke-width="0.5" stroke="blue" />
<line x1="-20.946377537986557" y1="82.97141136257804" x2="-25.79872577381432" y2="75.68485831343217" stroke-width="0.5" stroke="blue" />
<line x1="-6.930081629282445" y1="65.3302290493869" x2="-8.946377537986557" y2="70.97141136257804" stroke-width="0.5" stroke="blue" />
<line x1="-66.71200314811162" y1="-120.2111624232761" x2="-61.90981645298051" y2="-119.68267815519027" stroke-width="0.5" stroke="blue" />
<line x1="-0.019015198311747826" y1="0.8379250886484986" x2="-0.4265671601223314" y2="-2.94117820549282" stroke-width="0.5" stroke="blue" />
<line x1="-33.66325193605448" y1="89.22672503483528" x2="-31.770433469368246" y2="62.11176993188025" stroke-width="0.5" stroke="blue" />
<line x1="3.586570004993984" y1="-129.5272197943501" x2="-0.26481406662761486" y2="-122.40881364862521" stroke-width="0.5" stroke="blue" />
</svg>