<svg width="100%" height="100%" viewBox="-109.021 -107.041 211.229 204.994"  xmlns="http://www.w3.org/2000/svg" xmlns:xlink="http://www.w3.org/1999/xlink" version="1.1">
<rect x="-20.4493" y="4.54593" width="20" height="20" fill="yellow" stroke="black" stroke-width="0.5"><title>room 0</title></rect><rect x="-11.6993" y="21.2959" width="2.5" height="2.5" fill="red" stroke="black" stroke-width="0.5"></rect><rect x="-19.6993" y="13.2959" width="2.5" height="2.5" fill="red" stroke="black" stroke-width="0.5"></rect><rect x="-11.6993" y="5.29593" width="2.5" height="2.5" fill="red" stroke="black" stroke-width="0.5"></rect><rect x="-3.69927" y="13.2959" width="2.5" height="2.5" fill="red" stroke="black" stroke-width="0.5"></rect>
<rect x="19.1557" y="5.93195" width="20" height="20" fill="yellow" stroke="black" stroke-width="0.5"><title>room 1</title></rect><rect x="27.9057" y="22.682" width="2.5" height="2.5" fill="red" stroke="black" stroke-width="0.5"></rect><rect x="19.9057" y="14.682" width="2.5" height="2.5" fill="red" stroke="black" stroke-width="0.5"></rect><rect x="27.9057" y="6.68195" width="2.5" height="2.5" fill="red" stroke="black" stroke-width="0.5"></rect><rect x="35.9057" y="14.682" width="2.5" height="2.5" fill="red" stroke="black" stroke-width="0.5"></rect>
<rect x="-28.4596" y="-16.4486" width="20" height="20" fill="yellow" stroke="black" stroke-width="0.5"><title>room 2</title></rect><rect x="-19.7096" y="0.301411" width="2.5" height="2.5" fill="red" stroke="black" stroke-width="0.5"></rect><rect x="-27.7096" y="-7.69859" width="2.5" height="2.5" fill="red" stroke="black" stroke-width="0.5"></rect><rect x="-19.7096" y="-15.6986" width="2.5" height="2.5" fill="red" stroke="black" stroke-width="0.5"></rect><rect x="-11.7096" y="-7.69859" width="2.5" height="2.5" fill="red" stroke="black" stroke-width="0.5"></rect>
<rect x="49.1637" y="18.0096" width="20" height="20" fill="yellow" stroke="black" stroke-width="0.5"><title>room 3</title></rect><rect x="57.9137" y="34.7596" width="2.5" height="2.5" fill="red" stroke="black" stroke-width="0.5"></rect><rect x="49.9137" y="26.7596" width="2.5" height="2.5" fill="red" stroke="black" stroke-width="0.5"></rect><rect x="57.9137" y="18.7596" width="2.5" height="2.5" fill="red" stroke="black" stroke-width="0.5"></rect><rect x="65.9137" y="26.7596" width="2.5" height="2.5" fill="red" stroke="black" stroke-width="0.5"></rect>
<rect x="49.3777" y="39.7481" width="20" height="20" fill="yellow" stroke="black" stroke-width="0.5"><title>room 4</title></rect><rect x="58.1277" y="56.4981" width="2.5" height="2.5" fill="red" stroke="black" stroke-width="0.5"></rect><rect x="50.1277" y="48.4981" width="2.5" height="2.5" fill="red" stroke="black" stroke-width="0.5"></rect><rect x="58.1277" y="40.4981" width="2.5" height="2.5" fill="red" stroke="black" stroke-width="0.5"></rect><rect x="66.1277" y="48.4981" width="2.5" height="2.5" fill="red" stroke="black" stroke-width="0.5"></rect>
<rect x="50.6915" y="-1.79585" width="20" height="20" fill="yellow" stroke="black" stroke-width="0.5"><title>room 5</title></rect><rect x="59.4415" y="14.9541" width="2.5" height="2.5" fill="red" stroke="black" stroke-width="0.5"></rect><rect x="51.4415" y="6.95415" width="2.5" height="2.5" fill="red" stroke="black" stroke-width="0.5"></rect><rect x="59.4415" y="-1.04585" width="2.5" height="2.5" fill="red" stroke="black" stroke-width="0.5"></rect><rect x="67.4415" y="6.95415" width="2.5" height="2.5" fill="red" stroke="black" stroke-width="0.5"></rect>
<rect x="-28.5289" y="-46.4953" width="20" height="20" fill="yellow" stroke="black" stroke-width="0.5"><title>room 6</title></rect><rect x="-19.7789" y="-29.7453" width="2.5" height="2.5" fill="red" stroke="black" stroke-width="0.5"></rect><rect x="-27.7789" y="-37.7453" width="2.5" height="2.5" fill="red" stroke="black" stroke-width="0.5"></rect><rect x="-19.7789" y="-45.7453" width="2.5" height="2.5" fill="red" stroke="black" stroke-width="0.5"></rect><rect x="-11.7789" y="-37.7453" width="2.5" height="2.5" fill="red" stroke="black" stroke-width="0.5"></rect>
<rect x="-8.64481" y="-15.0979" width="20" height="20" fill="yellow" stroke="black" stroke-width="0.5"><title>room 7</title></rect><rect x="0.105187" y="1.65214" width="2.5" height="2.5" fill="red" stroke="black" stroke-width="0.5"></rect><rect x="-7.89481" y="-6.34786" width="2.5" height="2.5" fill="red" stroke="black" stroke-width="0.5"></rect><rect x="0.105187" y="-14.3479" width="2.5" height="2.5" fill="red" stroke="black" stroke-width="0.5"></rect><rect x="8.10519" y="-6.34786" width="2.5" height="2.5" fill="red" stroke="black" stroke-width="0.5"></rect>
<rect x="-48.3892" y="-46.4953" width="20" height="20" fill="yellow" stroke="black" stroke-width="0.5"><title>room 8</title></rect><rect x="-39.6392" y="-29.7453" width="2.5" height="2.5" fill="red" stroke="black" stroke-width="0.5"></rect><rect x="-47.6392" y="-37.7453" width="2.5" height="2.5" fill="red" stroke="black" stroke-width="0.5"></rect><rect x="-39.6392" y="-45.7453" width="2.5" height="2.5" fill="red" stroke="black" stroke-width="0.5"></rect><rect x="-31.6392" y="-37.7453" width="2.5" height="2.5" fill="red" stroke="black" stroke-width="0.5"></rect>
<rect x="-36.4698" y="-68.3835" width="20" height="20" fill="yellow" stroke="black" stroke-width="0.5"><title>room 9</title></rect><rect x="-27.7198" y="-51.6335" width="2.5" height="2.5" fill="red" stroke="black" stroke-width="0.5"></rect><rect x="-35.7198" y="-59.6335" width="2.5" height="2.5" fill="red" stroke="black" stroke-width="0.5"></rect><rect x="-27.7198" y="-67.6335" width="2.5" height="2.5" fill="red" stroke="black" stroke-width="0.5"></rect><rect x="-19.7198" y="-59.6335" width="2.5" height="2.5" fill="red" stroke="black" stroke-width="0.5"></rect>
<rect x="9.62301" y="25.7329" width="20" height="20" fill="yellow" stroke="black" stroke-width="0.5"><title>room 10</title></rect><rect x="18.373" y="42.4829" width="2.5" height="2.5" fill="red" stroke="black" stroke-width="0.5"></rect><rect x="10.373" y="34.4829" width="2.5" height="2.5" fill="red" stroke="black" stroke-width="0.5"></rect><rect x="18.373" y="26.4829" width="2.5" height="2.5" fill="red" stroke="black" stroke-width="0.5"></rect><rect x="26.373" y="34.4829" width="2.5" height="2.5" fill="red" stroke="black" stroke-width="0.5"></rect>
<rect x="30.917" y="-15.1725" width="20" height="20" fill="yellow" stroke="black" stroke-width="0.5"><title>room 11</title></rect><rect x="39.667" y="1.57751" width="2.5" height="2.5" fill="red" stroke="black" stroke-width="0.5"></rect><rect x="31.667" y="-6.42249" width="2.5" height="2.5" fill="red" stroke="black" stroke-width="0.5"></rect><rect x="39.667" y="-14.4225" width="2.5" height="2.5" fill="red" stroke="black" stroke-width="0.5"></rect><rect x="47.667" y="-6.42249" width="2.5" height="2.5" fill="red" stroke="black" stroke-width="0.5"></rect>
<rect x="49.4643" y="59.6084" width="20" height="20" fill="yellow" stroke="black" stroke-width="0.5"><title>room 12</title></rect><rect x="58.2143" y="76.3584" width="2.5" height="2.5" fill="red" stroke="black" stroke-width="0.5"></rect><rect x="50.2143" y="68.3584" width="2.5" height="2.5" fill="red" stroke="black" stroke-width="0.5"></rect><rect x="58.2143" y="60.3584" width="2.5" height="2.5" fill="red" stroke="black" stroke-width="0.5"></rect><rect x="66.2143" y="68.3584" width="2.5" height="2.5" fill="red" stroke="black" stroke-width="0.5"></rect>
<rect x="29.5355" y="45.5057" width="20" height="20" fill="yellow" stroke="black" stroke-width="0.5"><title>room 13</title></rect><rect x="38.2855" y="62.2557" width="2.5" height="2.5" fill="red" stroke="black" stroke-width="0.5"></rect><rect x="30.2855" y="54.2557" width="2.5" height="2.5" fill="red" stroke="black" stroke-width="0.5"></rect><rect x="38.2855" y="46.2557" width="2.5" height="2.5" fill="red" stroke="black" stroke-width="0.5"></rect><rect x="46.2855" y="54.2557" width="2.5" height="2.5" fill="red" stroke="black" stroke-width="0.5"></rect>
<rect x="-56.3301" y="-68.3836" width="20" height="20" fill="yellow" stroke="black" stroke-width="0.5"><title>room 14</title></rect><rect x="-47.5801" y="-51.6336" width="2.5" height="2.5" fill="red" stroke="black" stroke-width="0.5"></rect><rect x="-55.5801" y="-59.6336" width="2.5" height="2.5" fill="red" stroke="black" stroke-width="0.5"></rect><rect x="-47.5801" y="-67.6336" width="2.5" height="2.5" fill="red" stroke="black" stroke-width="0.5"></rect><rect x="-39.5801" y="-59.6336" width="2.5" height="2.5" fill="red" stroke="black" stroke-width="0.5"></rect>
<rect x="30.8483" y="-35.0187" width="20" height="20" fill="yellow" stroke="black" stroke-width="0.5"><title>room 15</title></rect><rect x="39.5983" y="-18.2687" width="2.5" height="2.5" fill="red" stroke="black" stroke-width="0.5"></rect><rect x="31.5983" y="-26.2687" width="2.5" height="2.5" fill="red" stroke="black" stroke-width="0.5"></rect><rect x="39.5983" y="-34.2687" width="2.5" height="2.5" fill="red" stroke="black" stroke-width="0.5"></rect><rect x="47.5983" y="-26.2687" width="2.5" height="2.5" fill="red" stroke="black" stroke-width="0.5"></rect>
<rect x="50.7562" y="-21.6315" width="20" height="20" fill="yellow" stroke="black" stroke-width="0.5"><title>room 16</title></rect><rect x="59.5062" y="-4.88152" width="2.5" height="2.5" fill="red" stroke="black" stroke-width="0.5"></rect><rect x="51.5062" y="-12.8815" width="2.5" height="2.5" fill="red" stroke="black" stroke-width="0.5"></rect><rect x="59.5062" y="-20.8815" width="2.5" height="2.5" fill="red" stroke="black" stroke-width="0.5"></rect><rect x="67.5062" y="-12.8815" width="2.5" height="2.5" fill="red" stroke="black" stroke-width="0.5"></rect>
<rect x="-4.65725" y="-54.6538" width="20" height="20" fill="yellow" stroke="black" stroke-width="0.5"><title>room 17</title></rect><rect x="4.09275" y="-37.9038" width="2.5" height="2.5" fill="red" stroke="black" stroke-width="0.5"></rect><rect x="-3.90725" y="-45.9038" width="2.5" height="2.5" fill="red" stroke="black" stroke-width="0.5"></rect><rect x="4.09275" y="-53.9038" width="2.5" height="2.5" fill="red" stroke="black" stroke-width="0.5"></rect><rect x="12.0927" y="-45.9038" width="2.5" height="2.5" fill="red" stroke="black" stroke-width="0.5"></rect>
<rect x="-48.3534" y="-8.73199" width="20" height="20" fill="yellow" stroke="black" stroke-width="0.5"><title>room 18</title></rect><rect x="-39.6034" y="8.01801" width="2.5" height="2.5" fill="red" stroke="black" stroke-width="0.5"></rect><rect x="-47.6034" y="0.0180089" width="2.5" height="2.5" fill="red" stroke="black" stroke-width="0.5"></rect><rect x="-39.6034" y="-7.98199" width="2.5" height="2.5" fill="red" stroke="black" stroke-width="0.5"></rect><rect x="-31.6034" y="0.0180089" width="2.5" height="2.5" fill="red" stroke="black" stroke-width="0.5"></rect>
<rect x="-76.1904" y="-68.328" width="20" height="20" fill="yellow" stroke="black" stroke-width="0.5"><title>room 19</title></rect><rect x="-67.4404" y="-51.578" width="2.5" height="2.5" fill="red" stroke="black" stroke-width="0.5"></rect><rect x="-75.4404" y="-59.578" width="2.5" height="2.5" fill="red" stroke="black" stroke-width="0.5"></rect><rect x="-67.4404" y="-67.578" width="2.5" height="2.5" fill="red" stroke="black" stroke-width="0.5"></rect><rect x="-59.4404" y="-59.578" width="2.5" height="2.5" fill="red" stroke="black" stroke-width="0.5"></rect>
<rect x="29.492" y="65.3661" width="20" height="20" fill="yellow" stroke="black" stroke-width="0.5"><title>room 20</title></rect><rect x="38.242" y="82.1161" width="2.5" height="2.5" fill="red" stroke="black" stroke-width="0.5"></rect><rect x="30.242" y="74.1161" width="2.5" height="2.5" fill="red" stroke="black" stroke-width="0.5"></rect><rect x="38.242" y="66.1161" width="2.5" height="2.5" fill="red" stroke="black" stroke-width="0.5"></rect><rect x="46.242" y="74.1161" width="2.5" height="2.5" fill="red" stroke="black" stroke-width="0.5"></rect>
<rect x="11.1457" y="-15.1438" width="20" height="20" fill="yellow" stroke="black" stroke-width="0.5"><title>room 21</title></rect><rect x="19.8957" y="1.60618" width="2.5" height="2.5" fill="red" stroke="black" stroke-width="0.5"></rect><rect x="11.8957" y="-6.39382" width="2.5" height="2.5" fill="red" stroke="black" stroke-width="0.5"></rect><rect x="19.8957" y="-14.3938" width="2.5" height="2.5" fill="red" stroke="black" stroke-width="0.5"></rect><rect x="27.8957" y="-6.39382" width="2.5" height="2.5" fill="red" stroke="black" stroke-width="0.5"></rect>
<rect x="-16.6989" y="-74.3602" width="20" height="20" fill="yellow" stroke="black" stroke-width="0.5"><title>room 22</title></rect><rect x="-7.94893" y="-57.6102" width="2.5" height="2.5" fill="red" stroke="black" stroke-width="0.5"></rect><rect x="-15.9489" y="-65.6102" width="2.5" height="2.5" fill="red" stroke="black" stroke-width="0.5"></rect><rect x="-7.94893" y="-73.6102" width="2.5" height="2.5" fill="red" stroke="black" stroke-width="0.5"></rect><rect x="0.051068" y="-65.6102" width="2.5" height="2.5" fill="red" stroke="black" stroke-width="0.5"></rect>
<rect x="-49.9526" y="20.3121" width="20" height="20" fill="yellow" stroke="black" stroke-width="0.5"><title>room 23</title></rect><rect x="-41.2026" y="37.0621" width="2.5" height="2.5" fill="red" stroke="black" stroke-width="0.5"></rect><rect x="-49.2026" y="29.0621" width="2.5" height="2.5" fill="red" stroke="black" stroke-width="0.5"></rect><rect x="-41.2026" y="21.0621" width="2.5" height="2.5" fill="red" stroke="black" stroke-width="0.5"></rect><rect x="-33.2026" y="29.0621" width="2.5" height="2.5" fill="red" stroke="black" stroke-width="0.5"></rect>
<rect x="-96.0508" y="-68.328" width="20" height="20" fill="yellow" stroke="black" stroke-width="0.5"><title>room 24</title></rect><rect x="-87.3008" y="-51.578" width="2.5" height="2.5" fill="red" stroke="black" stroke-width="0.5"></rect><rect x="-95.3008" y="-59.578" width="2.5" height="2.5" fill="red" stroke="black" stroke-width="0.5"></rect><rect x="-87.3008" y="-67.578" width="2.5" height="2.5" fill="red" stroke="black" stroke-width="0.5"></rect><rect x="-79.3008" y="-59.578" width="2.5" height="2.5" fill="red" stroke="black" stroke-width="0.5"></rect>
<rect x="-56.33" y="-88.2442" width="20" height="20" fill="yellow" stroke="black" stroke-width="0.5"><title>room 25</title></rect><rect x="-47.58" y="-71.4942" width="2.5" height="2.5" fill="red" stroke="black" stroke-width="0.5"></rect><rect x="-55.58" y="-79.4942" width="2.5" height="2.5" fill="red" stroke="black" stroke-width="0.5"></rect><rect x="-47.58" y="-87.4942" width="2.5" height="2.5" fill="red" stroke="black" stroke-width="0.5"></rect><rect x="-39.58" y="-79.4942" width="2.5" height="2.5" fill="red" stroke="black" stroke-width="0.5"></rect>
<rect x="-30.1282" y="24.2964" width="20" height="20" fill="yellow" stroke="black" stroke-width="0.5"><title>room 26</title></rect><rect x="-21.3782" y="41.0464" width="2.5" height="2.5" fill="red" stroke="black" stroke-width="0.5"></rect><rect x="-29.3782" y="33.0464" width="2.5" height="2.5" fill="red" stroke="black" stroke-width="0.5"></rect><rect x="-21.3782" y="25.0464" width="2.5" height="2.5" fill="red" stroke="black" stroke-width="0.5"></rect><rect x="-13.3782" y="33.0464" width="2.5" height="2.5" fill="red" stroke="black" stroke-width="0.5"></rect>
<rect x="-69.8033" y="25.5862" width="20" height="20" fill="yellow" stroke="black" stroke-width="0.5"><title>room 27</title></rect><rect x="-61.0533" y="42.3362" width="2.5" height="2.5" fill="red" stroke="black" stroke-width="0.5"></rect><rect x="-69.0533" y="34.3362" width="2.5" height="2.5" fill="red" stroke="black" stroke-width="0.5"></rect><rect x="-61.0533" y="26.3362" width="2.5" height="2.5" fill="red" stroke="black" stroke-width="0.5"></rect><rect x="-53.0533" y="34.3362" width="2.5" height="2.5" fill="red" stroke="black" stroke-width="0.5"></rect>
<rect x="9.67754" y="45.691" width="20" height="20" fill="yellow" stroke="black" stroke-width="0.5"><title>room 28</title></rect><rect x="18.4275" y="62.441" width="2.5" height="2.5" fill="red" stroke="black" stroke-width="0.5"></rect><rect x="10.4275" y="54.441" width="2.5" height="2.5" fill="red" stroke="black" stroke-width="0.5"></rect><rect x="18.4275" y="46.441" width="2.5" height="2.5" fill="red" stroke="black" stroke-width="0.5"></rect><rect x="26.4275" y="54.441" width="2.5" height="2.5" fill="red" stroke="black" stroke-width="0.5"></rect>
<rect x="-96.0508" y="-48.4677" width="20" height="20" fill="yellow" stroke="black" stroke-width="0.5"><title>room 29</title></rect><rect x="-87.3008" y="-31.7177" width="2.5" height="2.5" fill="red" stroke="black" stroke-width="0.5"></rect><rect x="-95.3008" y="-39.7177" width="2.5" height="2.5" fill="red" stroke="black" stroke-width="0.5"></rect><rect x="-87.3008" y="-47.7177" width="2.5" height="2.5" fill="red" stroke="black" stroke-width="0.5"></rect><rect x="-79.3008" y="-39.7177" width="2.5" height="2.5" fill="red" stroke="black" stroke-width="0.5"></rect>
<rect x="-68.2218" y="-14.0728" width="20" height="20" fill="yellow" stroke="black" stroke-width="0.5"><title>room 30</title></rect><rect x="-59.4718" y="2.67716" width="2.5" height="2.5" fill="red" stroke="black" stroke-width="0.5"></rect><rect x="-67.4718" y="-5.32284" width="2.5" height="2.5" fill="red" stroke="black" stroke-width="0.5"></rect><rect x="-59.4718" y="-13.3228" width="2.5" height="2.5" fill="red" stroke="black" stroke-width="0.5"></rect><rect x="-51.4718" y="-5.32284" width="2.5" height="2.5" fill="red" stroke="black" stroke-width="0.5"></rect>
<rect x="-16.6989" y="-94.2217" width="20" height="20" fill="yellow" stroke="black" stroke-width="0.5"><title>room 31</title></rect><rect x="-7.94891" y="-77.4717" width="2.5" height="2.5" fill="red" stroke="black" stroke-width="0.5"></rect><rect x="-15.9489" y="-85.4717" width="2.5" height="2.5" fill="red" stroke="black" stroke-width="0.5"></rect><rect x="-7.94891" y="-93.4717" width="2.5" height="2.5" fill="red" stroke="black" stroke-width="0.5"></rect><rect x="0.0510926" y="-85.4717" width="2.5" height="2.5" fill="red" stroke="black" stroke-width="0.5"></rect>
<rect x="29.4183" y="25.6941" width="20" height="20" fill="yellow" stroke="black" stroke-width="0.5"><title>room 32</title></rect><rect x="38.1683" y="42.4441" width="2.5" height="2.5" fill="red" stroke="black" stroke-width="0.5"></rect><rect x="30.1683" y="34.4441" width="2.5" height="2.5" fill="red" stroke="black" stroke-width="0.5"></rect><rect x="38.1683" y="26.4441" width="2.5" height="2.5" fill="red" stroke="black" stroke-width="0.5"></rect><rect x="46.1683" y="34.4441" width="2.5" height="2.5" fill="red" stroke="black" stroke-width="0.5"></rect>
<rect x="-49.9765" y="40.2678" width="20" height="20" fill="yellow" stroke="black" stroke-width="0.5"><title>room 33</title></rect><rect x="-41.2265" y="57.0178" width="2.5" height="2.5" fill="red" stroke="black" stroke-width="0.5"></rect><rect x="-49.2265" y="49.0178" width="2.5" height="2.5" fill="red" stroke="black" stroke-width="0.5"></rect><rect x="-41.2265" y="41.0178" width="2.5" height="2.5" fill="red" stroke="black" stroke-width="0.5"></rect><rect x="-33.2265" y="49.0178" width="2.5" height="2.5" fill="red" stroke="black" stroke-width="0.5"></rect>
<rect x="3.12537" y="-74.4993" width="20" height="20" fill="yellow" stroke="black" stroke-width="0.5"><title>room 34</title></rect><rect x="11.8754" y="-57.7493" width="2.5" height="2.5" fill="red" stroke="black" stroke-width="0.5"></rect><rect x="3.87537" y="-65.7493" width="2.5" height="2.5" fill="red" stroke="black" stroke-width="0.5"></rect><rect x="11.8754" y="-73.7493" width="2.5" height="2.5" fill="red" stroke="black" stroke-width="0.5"></rect><rect x="19.8754" y="-65.7493" width="2.5" height="2.5" fill="red" stroke="black" stroke-width="0.5"></rect>
<rect x="69.024" y="18.0172" width="20" height="20" fill="yellow" stroke="black" stroke-width="0.5"><title>room 35</title></rect><rect x="77.774" y="34.7672" width="2.5" height="2.5" fill="red" stroke="black" stroke-width="0.5"></rect><rect x="69.774" y="26.7672" width="2.5" height="2.5" fill="red" stroke="black" stroke-width="0.5"></rect><rect x="77.774" y="18.7672" width="2.5" height="2.5" fill="red" stroke="black" stroke-width="0.5"></rect><rect x="85.774" y="26.7672" width="2.5" height="2.5" fill="red" stroke="black" stroke-width="0.5"></rect>
<rect x="69.238" y="39.7481" width="20" height="20" fill="yellow" stroke="black" stroke-width="0.5"><title>room 36</title></rect><rect x="77.988" y="56.4981" width="2.5" height="2.5" fill="red" stroke="black" stroke-width="0.5"></rect><rect x="69.988" y="48.4981" width="2.5" height="2.5" fill="red" stroke="black" stroke-width="0.5"></rect><rect x="77.988" y="40.4981" width="2.5" height="2.5" fill="red" stroke="black" stroke-width="0.5"></rect><rect x="85.988" y="48.4981" width="2.5" height="2.5" fill="red" stroke="black" stroke-width="0.5"></rect>
<rect x="-69.6736" y="5.74004" width="20" height="20" fill="yellow" stroke="black" stroke-width="0.5"><title>room 37</title></rect><rect x="-60.9236" y="22.49" width="2.5" height="2.5" fill="red" stroke="black" stroke-width="0.5"></rect><rect x="-68.9236" y="14.49" width="2.5" height="2.5" fill="red" stroke="black" stroke-width="0.5"></rect><rect x="-60.9236" y="6.49004" width="2.5" height="2.5" fill="red" stroke="black" stroke-width="0.5"></rect><rect x="-52.9236" y="14.49" width="2.5" height="2.5" fill="red" stroke="black" stroke-width="0.5"></rect>
<rect x="-30.126" y="44.0288" width="20" height="20" fill="yellow" stroke="black" stroke-width="0.5"><title>room 38</title></rect><rect x="-21.376" y="60.7788" width="2.5" height="2.5" fill="red" stroke="black" stroke-width="0.5"></rect><rect x="-29.376" y="52.7788" width="2.5" height="2.5" fill="red" stroke="black" stroke-width="0.5"></rect><rect x="-21.376" y="44.7788" width="2.5" height="2.5" fill="red" stroke="black" stroke-width="0.5"></rect><rect x="-13.376" y="52.7788" width="2.5" height="2.5" fill="red" stroke="black" stroke-width="0.5"></rect>
<rect x="-4.63135" y="-34.8811" width="20" height="20" fill="yellow" stroke="black" stroke-width="0.5"><title>room 39</title></rect><rect x="4.11865" y="-18.1311" width="2.5" height="2.5" fill="red" stroke="black" stroke-width="0.5"></rect><rect x="-3.88135" y="-26.1311" width="2.5" height="2.5" fill="red" stroke="black" stroke-width="0.5"></rect><rect x="4.11865" y="-34.1311" width="2.5" height="2.5" fill="red" stroke="black" stroke-width="0.5"></rect><rect x="12.1186" y="-26.1311" width="2.5" height="2.5" fill="red" stroke="black" stroke-width="0.5"></rect>
<rect x="-89.6636" y="25.5862" width="20" height="20" fill="yellow" stroke="black" stroke-width="0.5"><title>room 40</title></rect><rect x="-80.9136" y="42.3362" width="2.5" height="2.5" fill="red" stroke="black" stroke-width="0.5"></rect><rect x="-88.9136" y="34.3362" width="2.5" height="2.5" fill="red" stroke="black" stroke-width="0.5"></rect><rect x="-80.9136" y="26.3362" width="2.5" height="2.5" fill="red" stroke="black" stroke-width="0.5"></rect><rect x="-72.9136" y="34.3362" width="2.5" height="2.5" fill="red" stroke="black" stroke-width="0.5"></rect>
<rect x="15.2033" y="-54.6733" width="20" height="20" fill="yellow" stroke="black" stroke-width="0.5"><title>room 41</title></rect><rect x="23.9533" y="-37.9233" width="2.5" height="2.5" fill="red" stroke="black" stroke-width="0.5"></rect><rect x="15.9533" y="-45.9233" width="2.5" height="2.5" fill="red" stroke="black" stroke-width="0.5"></rect><rect x="23.9533" y="-53.9233" width="2.5" height="2.5" fill="red" stroke="black" stroke-width="0.5"></rect><rect x="31.9533" y="-45.9233" width="2.5" height="2.5" fill="red" stroke="black" stroke-width="0.5"></rect>
<rect x="22.9857" y="-74.6262" width="20" height="20" fill="yellow" stroke="black" stroke-width="0.5"><title>room 42</title></rect><rect x="31.7357" y="-57.8762" width="2.5" height="2.5" fill="red" stroke="black" stroke-width="0.5"></rect><rect x="23.7357" y="-65.8762" width="2.5" height="2.5" fill="red" stroke="black" stroke-width="0.5"></rect><rect x="31.7357" y="-73.8762" width="2.5" height="2.5" fill="red" stroke="black" stroke-width="0.5"></rect><rect x="39.7357" y="-65.8762" width="2.5" height="2.5" fill="red" stroke="black" stroke-width="0.5"></rect>
<rect x="42.846" y="-74.6262" width="20" height="20" fill="yellow" stroke="black" stroke-width="0.5"><title>room 43</title></rect><rect x="51.596" y="-57.8762" width="2.5" height="2.5" fill="red" stroke="black" stroke-width="0.5"></rect><rect x="43.596" y="-65.8762" width="2.5" height="2.5" fill="red" stroke="black" stroke-width="0.5"></rect><rect x="51.596" y="-73.8762" width="2.5" height="2.5" fill="red" stroke="black" stroke-width="0.5"></rect><rect x="59.596" y="-65.8762" width="2.5" height="2.5" fill="red" stroke="black" stroke-width="0.5"></rect>
<rect x="-10.2686" y="44.5053" width="20" height="20" fill="yellow" stroke="black" stroke-width="0.5"><title>room 44</title></rect><rect x="-1.51858" y="61.2553" width="2.5" height="2.5" fill="red" stroke="black" stroke-width="0.5"></rect><rect x="-9.51858" y="53.2553" width="2.5" height="2.5" fill="red" stroke="black" stroke-width="0.5"></rect><rect x="-1.51858" y="45.2553" width="2.5" height="2.5" fill="red" stroke="black" stroke-width="0.5"></rect><rect x="6.48142" y="53.2553" width="2.5" height="2.5" fill="red" stroke="black" stroke-width="0.5"></rect>
<rect x="-10.252" y="24.6473" width="20" height="20" fill="yellow" stroke="black" stroke-width="0.5"><title>room 45</title></rect><rect x="-1.50199" y="41.3973" width="2.5" height="2.5" fill="red" stroke="black" stroke-width="0.5"></rect><rect x="-9.50199" y="33.3973" width="2.5" height="2.5" fill="red" stroke="black" stroke-width="0.5"></rect><rect x="-1.50199" y="25.3973" width="2.5" height="2.5" fill="red" stroke="black" stroke-width="0.5"></rect><rect x="6.49801" y="33.3973" width="2.5" height="2.5" fill="red" stroke="black" stroke-width="0.5"></rect>
<rect x="-76.1904" y="-88.2998" width="20" height="20" fill="yellow" stroke="black" stroke-width="0.5"><title>room 46</title></rect><rect x="-67.4404" y="-71.5498" width="2.5" height="2.5" fill="red" stroke="black" stroke-width="0.5"></rect><rect x="-75.4404" y="-79.5498" width="2.5" height="2.5" fill="red" stroke="black" stroke-width="0.5"></rect><rect x="-67.4404" y="-87.5498" width="2.5" height="2.5" fill="red" stroke="black" stroke-width="0.5"></rect><rect x="-59.4404" y="-79.5498" width="2.5" height="2.5" fill="red" stroke="black" stroke-width="0.5"></rect>
<rect x="-0.670333" y="4.73052" width="20" height="20" fill="yellow" stroke="black" stroke-width="0.5"><title>room 47</title></rect><rect x="8.07967" y="21.4805" width="2.5" height="2.5" fill="red" stroke="black" stroke-width="0.5"></rect><rect x="0.0796673" y="13.4805" width="2.5" height="2.5" fill="red" stroke="black" stroke-width="0.5"></rect><rect x="8.07967" y="5.48052" width="2.5" height="2.5" fill="red" stroke="black" stroke-width="0.5"></rect><rect x="16.0797" y="13.4805" width="2.5" height="2.5" fill="red" stroke="black" stroke-width="0.5"></rect>
<rect x="-30.129" y="63.7742" width="20" height="20" fill="yellow" stroke="black" stroke-width="0.5"><title>room 48</title></rect><rect x="-21.379" y="80.5242" width="2.5" height="2.5" fill="red" stroke="black" stroke-width="0.5"></rect><rect x="-29.379" y="72.5242" width="2.5" height="2.5" fill="red" stroke="black" stroke-width="0.5"></rect><rect x="-21.379" y="64.5242" width="2.5" height="2.5" fill="red" stroke="black" stroke-width="0.5"></rect><rect x="-13.379" y="72.5242" width="2.5" height="2.5" fill="red" stroke="black" stroke-width="0.5"></rect>
<rect x="3.16142" y="-94.4533" width="20" height="20" fill="yellow" stroke="black" stroke-width="0.5"><title>room 49</title></rect><rect x="11.9114" y="-77.7033" width="2.5" height="2.5" fill="red" stroke="black" stroke-width="0.5"></rect><rect x="3.91142" y="-85.7033" width="2.5" height="2.5" fill="red" stroke="black" stroke-width="0.5"></rect><rect x="11.9114" y="-93.7033" width="2.5" height="2.5" fill="red" stroke="black" stroke-width="0.5"></rect><rect x="19.9114" y="-85.7033" width="2.5" height="2.5" fill="red" stroke="black" stroke-width="0.5"></rect>
<line x1="21.155742114153508" y1="15.931954164299043" x2="-2.44926823083175" y2="14.5459320006537" stroke-width="0.5" stroke="blue" />
<line x1="-18.459571155435743" y1="1.5514105548185047" x2="-10.44926823083175" y2="6.5459320006537" stroke-width="0.5" stroke="blue" />
<line x1="51.163669294754996" y1="28.009568001502412" x2="37.15574211415351" y2="15.931954164299043" stroke-width="0.5" stroke="blue" />
<line x1="59.37768960242092" y1="41.748091065900525" x2="59.163669294754996" y2="36.009568001502416" stroke-width="0.5" stroke="blue" />
<line x1="60.69148588928715" y1="16.2041481316956" x2="59.163669294754996" y2="20.009568001502412" stroke-width="0.5" stroke="blue" />
<line x1="-18.528859327611073" y1="-28.495279763054455" x2="-18.459571155435743" y2="-14.448589445181495" stroke-width="0.5" stroke="blue" />
<line x1="-6.644813346139673" y1="-5.097863557675888" x2="-10.459571155435743" y2="-6.448589445181495" stroke-width="0.5" stroke="blue" />
<line x1="-30.38919971674411" y1="-36.495276938136904" x2="-26.528859327611073" y2="-36.495279763054455" stroke-width="0.5" stroke="blue" />
<line x1="-26.469752798482464" y1="-50.38350433889426" x2="-18.528859327611073" y2="-44.495279763054455" stroke-width="0.5" stroke="blue" />
<line x1="19.623008821001296" y1="27.73287203672743" x2="29.155742114153508" y2="23.931954164299043" stroke-width="0.5" stroke="blue" />
<line x1="40.916972329417774" y1="2.82750508658646" x2="29.155742114153508" y2="7.931954164299043" stroke-width="0.5" stroke="blue" />
<line x1="59.464304433422484" y1="61.60842157585908" x2="59.37768960242092" y2="57.748091065900525" stroke-width="0.5" stroke="blue" />
<line x1="47.53546430519233" y1="55.50573632062907" x2="51.37768960242092" y2="49.748091065900525" stroke-width="0.5" stroke="blue" />
<line x1="-38.330094203303645" y1="-58.383563288578465" x2="-34.46975279848246" y2="-58.38350433889426" stroke-width="0.5" stroke="blue" />
<line x1="40.8482944865678" y1="-17.018718666288038" x2="40.916972329417774" y2="-13.17249491341354" stroke-width="0.5" stroke="blue" />
<line x1="52.756165982311096" y1="-11.631524421701773" x2="48.916972329417774" y2="-5.17249491341354" stroke-width="0.5" stroke="blue" />
<line x1="-2.6572530898483695" y1="-44.653751641569585" x2="-10.528859327611073" y2="-36.495279763054455" stroke-width="0.5" stroke="blue" />
<line x1="-30.35340510448431" y1="1.268008892725275" x2="-26.459571155435743" y2="-6.448589445181495" stroke-width="0.5" stroke="blue" />
<line x1="-58.190435147650774" y1="-58.327985464184806" x2="-54.330094203303645" y2="-58.383563288578465" stroke-width="0.5" stroke="blue" />
<line x1="39.492010824258465" y1="67.36605906638505" x2="39.53546430519233" y2="63.50573632062907" stroke-width="0.5" stroke="blue" />
<line x1="29.145694801076505" y1="-5.143817651015759" x2="32.916972329417774" y2="-5.17249491341354" stroke-width="0.5" stroke="blue" />
<line x1="-14.698932047015457" y1="-64.36024268498919" x2="-18.469752798482464" y2="-58.38350433889426" stroke-width="0.5" stroke="blue" />
<line x1="-39.952562371924415" y1="22.312097183803857" x2="-38.35340510448431" y2="9.268008892725275" stroke-width="0.5" stroke="blue" />
<line x1="-78.05077529398075" y1="-58.3279994958575" x2="-74.19043514765077" y2="-58.327985464184806" stroke-width="0.5" stroke="blue" />
<line x1="-46.33002496640024" y1="-70.24415220094981" x2="-46.330094203303645" y2="-66.38356328857847" stroke-width="0.5" stroke="blue" />
<line x1="-28.12818708166116" y1="34.296373012478455" x2="-31.952562371924415" y2="30.312097183803857" stroke-width="0.5" stroke="blue" />
<line x1="-51.8032559197536" y1="35.586159381619964" x2="-47.952562371924415" y2="30.312097183803857" stroke-width="0.5" stroke="blue" />
<line x1="27.67753515534735" y1="55.69096946077096" x2="31.535464305192328" y2="55.50573632062907" stroke-width="0.5" stroke="blue" />
<line x1="-86.05078291761146" y1="-46.467658693180816" x2="-86.05077529398075" y2="-50.3279994958575" stroke-width="0.5" stroke="blue" />
<line x1="-50.22180063846299" y1="-4.072837819433865" x2="-46.35340510448431" y2="1.268008892725275" stroke-width="0.5" stroke="blue" />
<line x1="-6.698907374705776" y1="-76.22173472360278" x2="-6.698932047015458" y2="-72.36024268498919" stroke-width="0.5" stroke="blue" />
<line x1="39.418291870387705" y1="43.69414257364566" x2="39.53546430519233" y2="47.50573632062907" stroke-width="0.5" stroke="blue" />
<line x1="-39.97649152788181" y1="42.26775402213978" x2="-39.952562371924415" y2="38.31209718380386" stroke-width="0.5" stroke="blue" />
<line x1="13.125365241337303" y1="-56.499297863150716" x2="5.3427469101516305" y2="-52.653751641569585" stroke-width="0.5" stroke="blue" />
<line x1="71.0239990546493" y1="28.017180688234244" x2="67.163669294755" y2="28.009568001502412" stroke-width="0.5" stroke="blue" />
<line x1="71.23802714779532" y1="49.74807541532434" x2="67.37768960242093" y2="49.748091065900525" stroke-width="0.5" stroke="blue" />
<line x1="-59.67358402148803" y1="7.740042134151883" x2="-58.22180063846299" y2="3.9271621805661354" stroke-width="0.5" stroke="blue" />
<line x1="-28.12603692959986" y1="54.028845003118484" x2="-31.976491527881812" y2="50.26775402213978" stroke-width="0.5" stroke="blue" />
<line x1="5.368647281763124" y1="-32.88108644972775" x2="5.3427469101516305" y2="-36.653751641569585" stroke-width="0.5" stroke="blue" />
<line x1="-71.6635958005974" y1="35.58616063907453" x2="-67.80325591975361" y2="35.586159381619964" stroke-width="0.5" stroke="blue" />
<line x1="17.20326393790349" y1="-44.67333483988423" x2="13.34274691015163" y2="-44.653751641569585" stroke-width="0.5" stroke="blue" />
<line x1="24.985678135422937" y1="-64.62617397351502" x2="21.125365241337303" y2="-64.49929786315072" stroke-width="0.5" stroke="blue" />
<line x1="44.846018154783046" y1="-64.62617670760284" x2="40.98567813542294" y2="-64.62617397351502" stroke-width="0.5" stroke="blue" />
<line x1="-8.268575268774374" y1="54.5052789176004" x2="-12.12603692959986" y2="54.028845003118484" stroke-width="0.5" stroke="blue" />
<line x1="-0.2519942422485845" y1="42.64732272447726" x2="-0.2685752687743733" y2="46.5052789176004" stroke-width="0.5" stroke="blue" />
<line x1="-58.19036417602206" y1="-78.29976619066949" x2="-54.33002496640024" y2="-78.24415220094981" stroke-width="0.5" stroke="blue" />
<line x1="9.32966730161244" y1="6.730518322068415" x2="1.3551866538603272" y2="2.902136442324112" stroke-width="0.5" stroke="blue" />
<line x1="-20.12904923206513" y1="65.77418974061688" x2="-20.12818708166116" y2="42.296373012478455" stroke-width="0.5" stroke="blue" />
<line x1="5.161420943229448" y1="-84.45328516389317" x2="1.301092625294224" y2="-84.22173472360278" stroke-width="0.5" stroke="blue" />
</svg>