<svg width="100%" height="100%" viewBox="-111.882 -115.789 218.154 233.029"  xmlns="http://www.w3.org/2000/svg" xmlns:xlink="http://www.w3.org/1999/xlink" version="1.1">
<rect x="-11.1399" y="18.064" width="20" height="20" fill="yellow" stroke="black" stroke-width="0.5"><title>room 0</title></rect><rect x="-2.38987" y="34.814" width="2.5" height="2.5" fill="red" stroke="black" stroke-width="0.5"></rect><rect x="-10.3899" y="26.814" width="2.5" height="2.5" fill="red" stroke="black" stroke-width="0.5"></rect><rect x="-2.38987" y="18.814" width="2.5" height="2.5" fill="red" stroke="black" stroke-width="0.5"></rect><rect x="5.61013" y="26.814" width="2.5" height="2.5" fill="red" stroke="black" stroke-width="0.5"></rect>
<rect x="21.1898" y="23.4095" width="20" height="20" fill="yellow" stroke="black" stroke-width="0.5"><title>room 1</title></rect><rect x="29.9398" y="40.1595" width="2.5" height="2.5" fill="red" stroke="black" stroke-width="0.5"></rect><rect x="21.9398" y="32.1595" width="2.5" height="2.5" fill="red" stroke="black" stroke-width="0.5"></rect><rect x="29.9398" y="24.1595" width="2.5" height="2.5" fill="red" stroke="black" stroke-width="0.5"></rect><rect x="37.9398" y="32.1595" width="2.5" height="2.5" fill="red" stroke="black" stroke-width="0.5"></rect>
<rect x="-27.3594" y="-16.1397" width="20" height="20" fill="yellow" stroke="black" stroke-width="0.5"><title>room 2</title></rect><rect x="-18.6094" y="0.610294" width="2.5" height="2.5" fill="red" stroke="black" stroke-width="0.5"></rect><rect x="-26.6094" y="-7.38971" width="2.5" height="2.5" fill="red" stroke="black" stroke-width="0.5"></rect><rect x="-18.6094" y="-15.3897" width="2.5" height="2.5" fill="red" stroke="black" stroke-width="0.5"></rect><rect x="-10.6094" y="-7.38971" width="2.5" height="2.5" fill="red" stroke="black" stroke-width="0.5"></rect>
<rect x="51.6668" y="35.7762" width="20" height="20" fill="yellow" stroke="black" stroke-width="0.5"><title>room 3</title></rect><rect x="60.4168" y="52.5262" width="2.5" height="2.5" fill="red" stroke="black" stroke-width="0.5"></rect><rect x="52.4168" y="44.5262" width="2.5" height="2.5" fill="red" stroke="black" stroke-width="0.5"></rect><rect x="60.4168" y="36.5262" width="2.5" height="2.5" fill="red" stroke="black" stroke-width="0.5"></rect><rect x="68.4168" y="44.5262" width="2.5" height="2.5" fill="red" stroke="black" stroke-width="0.5"></rect>
<rect x="53.0074" y="58.2303" width="20" height="20" fill="yellow" stroke="black" stroke-width="0.5"><title>room 4</title></rect><rect x="61.7574" y="74.9803" width="2.5" height="2.5" fill="red" stroke="black" stroke-width="0.5"></rect><rect x="53.7574" y="66.9803" width="2.5" height="2.5" fill="red" stroke="black" stroke-width="0.5"></rect><rect x="61.7574" y="58.9803" width="2.5" height="2.5" fill="red" stroke="black" stroke-width="0.5"></rect><rect x="69.7574" y="66.9803" width="2.5" height="2.5" fill="red" stroke="black" stroke-width="0.5"></rect>
<rect x="52.4132" y="15.9636" width="20" height="20" fill="yellow" stroke="black" stroke-width="0.5"><title>room 5</title></rect><rect x="61.1632" y="32.7136" width="2.5" height="2.5" fill="red" stroke="black" stroke-width="0.5"></rect><rect x="53.1632" y="24.7136" width="2.5" height="2.5" fill="red" stroke="black" stroke-width="0.5"></rect><rect x="61.1632" y="16.7136" width="2.5" height="2.5" fill="red" stroke="black" stroke-width="0.5"></rect><rect x="69.1632" y="24.7136" width="2.5" height="2.5" fill="red" stroke="black" stroke-width="0.5"></rect>
<rect x="-29.0974" y="-51.2785" width="20" height="20" fill="yellow" stroke="black" stroke-width="0.5"><title>room 6</title></rect><rect x="-20.3474" y="-34.5285" width="2.5" height="2.5" fill="red" stroke="black" stroke-width="0.5"></rect><rect x="-28.3474" y="-42.5285" width="2.5" height="2.5" fill="red" stroke="black" stroke-width="0.5"></rect><rect x="-20.3474" y="-50.5285" width="2.5" height="2.5" fill="red" stroke="black" stroke-width="0.5"></rect><rect x="-12.3474" y="-42.5285" width="2.5" height="2.5" fill="red" stroke="black" stroke-width="0.5"></rect>
<rect x="-7.51437" y="-21.4738" width="20" height="20" fill="yellow" stroke="black" stroke-width="0.5"><title>room 7</title></rect><rect x="1.23563" y="-4.72383" width="2.5" height="2.5" fill="red" stroke="black" stroke-width="0.5"></rect><rect x="-6.76437" y="-12.7238" width="2.5" height="2.5" fill="red" stroke="black" stroke-width="0.5"></rect><rect x="1.23563" y="-20.7238" width="2.5" height="2.5" fill="red" stroke="black" stroke-width="0.5"></rect><rect x="9.23563" y="-12.7238" width="2.5" height="2.5" fill="red" stroke="black" stroke-width="0.5"></rect>
<rect x="-48.9627" y="-51.643" width="20" height="20" fill="yellow" stroke="black" stroke-width="0.5"><title>room 8</title></rect><rect x="-40.2127" y="-34.893" width="2.5" height="2.5" fill="red" stroke="black" stroke-width="0.5"></rect><rect x="-48.2127" y="-42.893" width="2.5" height="2.5" fill="red" stroke="black" stroke-width="0.5"></rect><rect x="-40.2127" y="-50.893" width="2.5" height="2.5" fill="red" stroke="black" stroke-width="0.5"></rect><rect x="-32.2127" y="-42.893" width="2.5" height="2.5" fill="red" stroke="black" stroke-width="0.5"></rect>
<rect x="-38.0296" y="-75.846" width="20" height="20" fill="yellow" stroke="black" stroke-width="0.5"><title>room 9</title></rect><rect x="-29.2796" y="-59.096" width="2.5" height="2.5" fill="red" stroke="black" stroke-width="0.5"></rect><rect x="-37.2796" y="-67.096" width="2.5" height="2.5" fill="red" stroke="black" stroke-width="0.5"></rect><rect x="-29.2796" y="-75.096" width="2.5" height="2.5" fill="red" stroke="black" stroke-width="0.5"></rect><rect x="-21.2796" y="-67.096" width="2.5" height="2.5" fill="red" stroke="black" stroke-width="0.5"></rect>
<rect x="12.0947" y="43.2275" width="20" height="20" fill="yellow" stroke="black" stroke-width="0.5"><title>room 10</title></rect><rect x="20.8447" y="59.9775" width="2.5" height="2.5" fill="red" stroke="black" stroke-width="0.5"></rect><rect x="12.8447" y="51.9775" width="2.5" height="2.5" fill="red" stroke="black" stroke-width="0.5"></rect><rect x="20.8447" y="43.9775" width="2.5" height="2.5" fill="red" stroke="black" stroke-width="0.5"></rect><rect x="28.8447" y="51.9775" width="2.5" height="2.5" fill="red" stroke="black" stroke-width="0.5"></rect>
<rect x="31.7616" y="1.65618" width="20" height="20" fill="yellow" stroke="black" stroke-width="0.5"><title>room 11</title></rect><rect x="40.5116" y="18.4062" width="2.5" height="2.5" fill="red" stroke="black" stroke-width="0.5"></rect><rect x="32.5116" y="10.4062" width="2.5" height="2.5" fill="red" stroke="black" stroke-width="0.5"></rect><rect x="40.5116" y="2.40618" width="2.5" height="2.5" fill="red" stroke="black" stroke-width="0.5"></rect><rect x="48.5116" y="10.4062" width="2.5" height="2.5" fill="red" stroke="black" stroke-width="0.5"></rect>
<rect x="53.4973" y="78.0988" width="20" height="20" fill="yellow" stroke="black" stroke-width="0.5"><title>room 12</title></rect><rect x="62.2473" y="94.8488" width="2.5" height="2.5" fill="red" stroke="black" stroke-width="0.5"></rect><rect x="54.2473" y="86.8488" width="2.5" height="2.5" fill="red" stroke="black" stroke-width="0.5"></rect><rect x="62.2473" y="78.8488" width="2.5" height="2.5" fill="red" stroke="black" stroke-width="0.5"></rect><rect x="70.2473" y="86.8488" width="2.5" height="2.5" fill="red" stroke="black" stroke-width="0.5"></rect>
<rect x="33.1527" y="63.0615" width="20" height="20" fill="yellow" stroke="black" stroke-width="0.5"><title>room 13</title></rect><rect x="41.9027" y="79.8115" width="2.5" height="2.5" fill="red" stroke="black" stroke-width="0.5"></rect><rect x="33.9027" y="71.8115" width="2.5" height="2.5" fill="red" stroke="black" stroke-width="0.5"></rect><rect x="41.9027" y="63.8115" width="2.5" height="2.5" fill="red" stroke="black" stroke-width="0.5"></rect><rect x="49.9027" y="71.8115" width="2.5" height="2.5" fill="red" stroke="black" stroke-width="0.5"></rect>
<rect x="-57.9512" y="-78.9089" width="20" height="20" fill="yellow" stroke="black" stroke-width="0.5"><title>room 14</title></rect><rect x="-49.2012" y="-62.1589" width="2.5" height="2.5" fill="red" stroke="black" stroke-width="0.5"></rect><rect x="-57.2012" y="-70.1589" width="2.5" height="2.5" fill="red" stroke="black" stroke-width="0.5"></rect><rect x="-49.2012" y="-78.1589" width="2.5" height="2.5" fill="red" stroke="black" stroke-width="0.5"></rect><rect x="-41.2012" y="-70.1589" width="2.5" height="2.5" fill="red" stroke="black" stroke-width="0.5"></rect>
<rect x="31.8187" y="-18.2068" width="20" height="20" fill="yellow" stroke="black" stroke-width="0.5"><title>room 15</title></rect><rect x="40.5687" y="-1.4568" width="2.5" height="2.5" fill="red" stroke="black" stroke-width="0.5"></rect><rect x="32.5687" y="-9.4568" width="2.5" height="2.5" fill="red" stroke="black" stroke-width="0.5"></rect><rect x="40.5687" y="-17.4568" width="2.5" height="2.5" fill="red" stroke="black" stroke-width="0.5"></rect><rect x="48.5687" y="-9.4568" width="2.5" height="2.5" fill="red" stroke="black" stroke-width="0.5"></rect>
<rect x="51.6259" y="-3.88097" width="20" height="20" fill="yellow" stroke="black" stroke-width="0.5"><title>room 16</title></rect><rect x="60.3759" y="12.869" width="2.5" height="2.5" fill="red" stroke="black" stroke-width="0.5"></rect><rect x="52.3759" y="4.86903" width="2.5" height="2.5" fill="red" stroke="black" stroke-width="0.5"></rect><rect x="60.3759" y="-3.13097" width="2.5" height="2.5" fill="red" stroke="black" stroke-width="0.5"></rect><rect x="68.3759" y="4.86903" width="2.5" height="2.5" fill="red" stroke="black" stroke-width="0.5"></rect>
<rect x="-5.31378" y="-61.0709" width="20" height="20" fill="yellow" stroke="black" stroke-width="0.5"><title>room 17</title></rect><rect x="3.43622" y="-44.3209" width="2.5" height="2.5" fill="red" stroke="black" stroke-width="0.5"></rect><rect x="-4.56378" y="-52.3209" width="2.5" height="2.5" fill="red" stroke="black" stroke-width="0.5"></rect><rect x="3.43622" y="-60.3209" width="2.5" height="2.5" fill="red" stroke="black" stroke-width="0.5"></rect><rect x="11.4362" y="-52.3209" width="2.5" height="2.5" fill="red" stroke="black" stroke-width="0.5"></rect>
<rect x="-49.4215" y="-9.22084" width="20" height="20" fill="yellow" stroke="black" stroke-width="0.5"><title>room 18</title></rect><rect x="-40.6715" y="7.52916" width="2.5" height="2.5" fill="red" stroke="black" stroke-width="0.5"></rect><rect x="-48.6715" y="-0.470838" width="2.5" height="2.5" fill="red" stroke="black" stroke-width="0.5"></rect><rect x="-40.6715" y="-8.47084" width="2.5" height="2.5" fill="red" stroke="black" stroke-width="0.5"></rect><rect x="-32.6715" y="-0.470838" width="2.5" height="2.5" fill="red" stroke="black" stroke-width="0.5"></rect>
<rect x="-77.8424" y="-79.7515" width="20" height="20" fill="yellow" stroke="black" stroke-width="0.5"><title>room 19</title></rect><rect x="-69.0924" y="-63.0015" width="2.5" height="2.5" fill="red" stroke="black" stroke-width="0.5"></rect><rect x="-77.0924" y="-71.0015" width="2.5" height="2.5" fill="red" stroke="black" stroke-width="0.5"></rect><rect x="-69.0924" y="-79.0015" width="2.5" height="2.5" fill="red" stroke="black" stroke-width="0.5"></rect><rect x="-61.0924" y="-71.0015" width="2.5" height="2.5" fill="red" stroke="black" stroke-width="0.5"></rect>
<rect x="33.442" y="82.9315" width="20" height="20" fill="yellow" stroke="black" stroke-width="0.5"><title>room 20</title></rect><rect x="42.192" y="99.6815" width="2.5" height="2.5" fill="red" stroke="black" stroke-width="0.5"></rect><rect x="34.192" y="91.6815" width="2.5" height="2.5" fill="red" stroke="black" stroke-width="0.5"></rect><rect x="42.192" y="83.6815" width="2.5" height="2.5" fill="red" stroke="black" stroke-width="0.5"></rect><rect x="50.192" y="91.6815" width="2.5" height="2.5" fill="red" stroke="black" stroke-width="0.5"></rect>
<rect x="11.9687" y="1.70012" width="20" height="20" fill="yellow" stroke="black" stroke-width="0.5"><title>room 21</title></rect><rect x="20.7187" y="18.4501" width="2.5" height="2.5" fill="red" stroke="black" stroke-width="0.5"></rect><rect x="12.7187" y="10.4501" width="2.5" height="2.5" fill="red" stroke="black" stroke-width="0.5"></rect><rect x="20.7187" y="2.45012" width="2.5" height="2.5" fill="red" stroke="black" stroke-width="0.5"></rect><rect x="28.7187" y="10.4501" width="2.5" height="2.5" fill="red" stroke="black" stroke-width="0.5"></rect>
<rect x="-18.233" y="-80.8111" width="20" height="20" fill="yellow" stroke="black" stroke-width="0.5"><title>room 22</title></rect><rect x="-9.483" y="-64.0611" width="2.5" height="2.5" fill="red" stroke="black" stroke-width="0.5"></rect><rect x="-17.483" y="-72.0611" width="2.5" height="2.5" fill="red" stroke="black" stroke-width="0.5"></rect><rect x="-9.483" y="-80.0611" width="2.5" height="2.5" fill="red" stroke="black" stroke-width="0.5"></rect><rect x="-1.483" y="-72.0611" width="2.5" height="2.5" fill="red" stroke="black" stroke-width="0.5"></rect>
<rect x="-51.9154" y="18.9438" width="20" height="20" fill="yellow" stroke="black" stroke-width="0.5"><title>room 23</title></rect><rect x="-43.1654" y="35.6938" width="2.5" height="2.5" fill="red" stroke="black" stroke-width="0.5"></rect><rect x="-51.1654" y="27.6938" width="2.5" height="2.5" fill="red" stroke="black" stroke-width="0.5"></rect><rect x="-43.1654" y="19.6938" width="2.5" height="2.5" fill="red" stroke="black" stroke-width="0.5"></rect><rect x="-35.1654" y="27.6938" width="2.5" height="2.5" fill="red" stroke="black" stroke-width="0.5"></rect>
<rect x="-97.7221" y="-80.4211" width="20" height="20" fill="yellow" stroke="black" stroke-width="0.5"><title>room 24</title></rect><rect x="-88.9721" y="-63.6711" width="2.5" height="2.5" fill="red" stroke="black" stroke-width="0.5"></rect><rect x="-96.9721" y="-71.6711" width="2.5" height="2.5" fill="red" stroke="black" stroke-width="0.5"></rect><rect x="-88.9721" y="-79.6711" width="2.5" height="2.5" fill="red" stroke="black" stroke-width="0.5"></rect><rect x="-80.9721" y="-71.6711" width="2.5" height="2.5" fill="red" stroke="black" stroke-width="0.5"></rect>
<rect x="-58.7601" y="-98.7912" width="20" height="20" fill="yellow" stroke="black" stroke-width="0.5"><title>room 25</title></rect><rect x="-50.0101" y="-82.0412" width="2.5" height="2.5" fill="red" stroke="black" stroke-width="0.5"></rect><rect x="-58.0101" y="-90.0412" width="2.5" height="2.5" fill="red" stroke="black" stroke-width="0.5"></rect><rect x="-50.0101" y="-98.0412" width="2.5" height="2.5" fill="red" stroke="black" stroke-width="0.5"></rect><rect x="-42.0101" y="-90.0412" width="2.5" height="2.5" fill="red" stroke="black" stroke-width="0.5"></rect>
<rect x="-32.0697" y="14.6205" width="20" height="20" fill="yellow" stroke="black" stroke-width="0.5"><title>room 26</title></rect><rect x="-23.3197" y="31.3705" width="2.5" height="2.5" fill="red" stroke="black" stroke-width="0.5"></rect><rect x="-31.3197" y="23.3705" width="2.5" height="2.5" fill="red" stroke="black" stroke-width="0.5"></rect><rect x="-23.3197" y="15.3705" width="2.5" height="2.5" fill="red" stroke="black" stroke-width="0.5"></rect><rect x="-15.3197" y="23.3705" width="2.5" height="2.5" fill="red" stroke="black" stroke-width="0.5"></rect>
<rect x="-71.7791" y="25.1409" width="20" height="20" fill="yellow" stroke="black" stroke-width="0.5"><title>room 27</title></rect><rect x="-63.0291" y="41.8909" width="2.5" height="2.5" fill="red" stroke="black" stroke-width="0.5"></rect><rect x="-71.0291" y="33.8909" width="2.5" height="2.5" fill="red" stroke="black" stroke-width="0.5"></rect><rect x="-63.0291" y="25.8909" width="2.5" height="2.5" fill="red" stroke="black" stroke-width="0.5"></rect><rect x="-55.0291" y="33.8909" width="2.5" height="2.5" fill="red" stroke="black" stroke-width="0.5"></rect>
<rect x="13.2944" y="63.8048" width="20" height="20" fill="yellow" stroke="black" stroke-width="0.5"><title>room 28</title></rect><rect x="22.0444" y="80.5548" width="2.5" height="2.5" fill="red" stroke="black" stroke-width="0.5"></rect><rect x="14.0444" y="72.5548" width="2.5" height="2.5" fill="red" stroke="black" stroke-width="0.5"></rect><rect x="22.0444" y="64.5548" width="2.5" height="2.5" fill="red" stroke="black" stroke-width="0.5"></rect><rect x="30.0444" y="72.5548" width="2.5" height="2.5" fill="red" stroke="black" stroke-width="0.5"></rect>
<rect x="-98.4864" y="-60.5644" width="20" height="20" fill="yellow" stroke="black" stroke-width="0.5"><title>room 29</title></rect><rect x="-89.7364" y="-43.8144" width="2.5" height="2.5" fill="red" stroke="black" stroke-width="0.5"></rect><rect x="-97.7364" y="-51.8144" width="2.5" height="2.5" fill="red" stroke="black" stroke-width="0.5"></rect><rect x="-89.7364" y="-59.8144" width="2.5" height="2.5" fill="red" stroke="black" stroke-width="0.5"></rect><rect x="-81.7364" y="-51.8144" width="2.5" height="2.5" fill="red" stroke="black" stroke-width="0.5"></rect>
<rect x="-69.3277" y="-14.5134" width="20" height="20" fill="yellow" stroke="black" stroke-width="0.5"><title>room 30</title></rect><rect x="-60.5777" y="2.23656" width="2.5" height="2.5" fill="red" stroke="black" stroke-width="0.5"></rect><rect x="-68.5777" y="-5.76344" width="2.5" height="2.5" fill="red" stroke="black" stroke-width="0.5"></rect><rect x="-60.5777" y="-13.7634" width="2.5" height="2.5" fill="red" stroke="black" stroke-width="0.5"></rect><rect x="-52.5777" y="-5.76344" width="2.5" height="2.5" fill="red" stroke="black" stroke-width="0.5"></rect>
<rect x="-17.9462" y="-100.693" width="20" height="20" fill="yellow" stroke="black" stroke-width="0.5"><title>room 31</title></rect><rect x="-9.19619" y="-83.9425" width="2.5" height="2.5" fill="red" stroke="black" stroke-width="0.5"></rect><rect x="-17.1962" y="-91.9425" width="2.5" height="2.5" fill="red" stroke="black" stroke-width="0.5"></rect><rect x="-9.19619" y="-99.9425" width="2.5" height="2.5" fill="red" stroke="black" stroke-width="0.5"></rect><rect x="-1.19619" y="-91.9425" width="2.5" height="2.5" fill="red" stroke="black" stroke-width="0.5"></rect>
<rect x="31.908" y="43.2285" width="20" height="20" fill="yellow" stroke="black" stroke-width="0.5"><title>room 32</title></rect><rect x="40.658" y="59.9785" width="2.5" height="2.5" fill="red" stroke="black" stroke-width="0.5"></rect><rect x="32.658" y="51.9785" width="2.5" height="2.5" fill="red" stroke="black" stroke-width="0.5"></rect><rect x="40.658" y="43.9785" width="2.5" height="2.5" fill="red" stroke="black" stroke-width="0.5"></rect><rect x="48.658" y="51.9785" width="2.5" height="2.5" fill="red" stroke="black" stroke-width="0.5"></rect>
<rect x="-52.4849" y="44.8887" width="20" height="20" fill="yellow" stroke="black" stroke-width="0.5"><title>room 33</title></rect><rect x="-43.7349" y="61.6387" width="2.5" height="2.5" fill="red" stroke="black" stroke-width="0.5"></rect><rect x="-51.7349" y="53.6387" width="2.5" height="2.5" fill="red" stroke="black" stroke-width="0.5"></rect><rect x="-43.7349" y="45.6387" width="2.5" height="2.5" fill="red" stroke="black" stroke-width="0.5"></rect><rect x="-35.7349" y="53.6387" width="2.5" height="2.5" fill="red" stroke="black" stroke-width="0.5"></rect>
<rect x="1.60946" y="-80.9505" width="20" height="20" fill="yellow" stroke="black" stroke-width="0.5"><title>room 34</title></rect><rect x="10.3595" y="-64.2005" width="2.5" height="2.5" fill="red" stroke="black" stroke-width="0.5"></rect><rect x="2.35946" y="-72.2005" width="2.5" height="2.5" fill="red" stroke="black" stroke-width="0.5"></rect><rect x="10.3595" y="-80.2005" width="2.5" height="2.5" fill="red" stroke="black" stroke-width="0.5"></rect><rect x="18.3595" y="-72.2005" width="2.5" height="2.5" fill="red" stroke="black" stroke-width="0.5"></rect>
<rect x="71.5369" y="36.0081" width="20" height="20" fill="yellow" stroke="black" stroke-width="0.5"><title>room 35</title></rect><rect x="80.2869" y="52.7581" width="2.5" height="2.5" fill="red" stroke="black" stroke-width="0.5"></rect><rect x="72.2869" y="44.7581" width="2.5" height="2.5" fill="red" stroke="black" stroke-width="0.5"></rect><rect x="80.2869" y="36.7581" width="2.5" height="2.5" fill="red" stroke="black" stroke-width="0.5"></rect><rect x="88.2869" y="44.7581" width="2.5" height="2.5" fill="red" stroke="black" stroke-width="0.5"></rect>
<rect x="72.8764" y="58.6679" width="20" height="20" fill="yellow" stroke="black" stroke-width="0.5"><title>room 36</title></rect><rect x="81.6264" y="75.4179" width="2.5" height="2.5" fill="red" stroke="black" stroke-width="0.5"></rect><rect x="73.6264" y="67.4179" width="2.5" height="2.5" fill="red" stroke="black" stroke-width="0.5"></rect><rect x="81.6264" y="59.4179" width="2.5" height="2.5" fill="red" stroke="black" stroke-width="0.5"></rect><rect x="89.6264" y="67.4179" width="2.5" height="2.5" fill="red" stroke="black" stroke-width="0.5"></rect>
<rect x="-71.6753" y="5.29698" width="20" height="20" fill="yellow" stroke="black" stroke-width="0.5"><title>room 37</title></rect><rect x="-62.9253" y="22.047" width="2.5" height="2.5" fill="red" stroke="black" stroke-width="0.5"></rect><rect x="-70.9253" y="14.047" width="2.5" height="2.5" fill="red" stroke="black" stroke-width="0.5"></rect><rect x="-62.9253" y="6.04698" width="2.5" height="2.5" fill="red" stroke="black" stroke-width="0.5"></rect><rect x="-54.9253" y="14.047" width="2.5" height="2.5" fill="red" stroke="black" stroke-width="0.5"></rect>
<rect x="-32.6808" y="54.2862" width="20" height="20" fill="yellow" stroke="black" stroke-width="0.5"><title>room 38</title></rect><rect x="-23.9308" y="71.0362" width="2.5" height="2.5" fill="red" stroke="black" stroke-width="0.5"></rect><rect x="-31.9308" y="63.0362" width="2.5" height="2.5" fill="red" stroke="black" stroke-width="0.5"></rect><rect x="-23.9308" y="55.0362" width="2.5" height="2.5" fill="red" stroke="black" stroke-width="0.5"></rect><rect x="-15.9308" y="63.0362" width="2.5" height="2.5" fill="red" stroke="black" stroke-width="0.5"></rect>
<rect x="-5.1308" y="-41.2832" width="20" height="20" fill="yellow" stroke="black" stroke-width="0.5"><title>room 39</title></rect><rect x="3.6192" y="-24.5332" width="2.5" height="2.5" fill="red" stroke="black" stroke-width="0.5"></rect><rect x="-4.3808" y="-32.5332" width="2.5" height="2.5" fill="red" stroke="black" stroke-width="0.5"></rect><rect x="3.6192" y="-40.5332" width="2.5" height="2.5" fill="red" stroke="black" stroke-width="0.5"></rect><rect x="11.6192" y="-32.5332" width="2.5" height="2.5" fill="red" stroke="black" stroke-width="0.5"></rect>
<rect x="-91.6492" y="25.4909" width="20" height="20" fill="yellow" stroke="black" stroke-width="0.5"><title>room 40</title></rect><rect x="-82.8992" y="42.2409" width="2.5" height="2.5" fill="red" stroke="black" stroke-width="0.5"></rect><rect x="-90.8992" y="34.2409" width="2.5" height="2.5" fill="red" stroke="black" stroke-width="0.5"></rect><rect x="-82.8992" y="26.2409" width="2.5" height="2.5" fill="red" stroke="black" stroke-width="0.5"></rect><rect x="-74.8992" y="34.2409" width="2.5" height="2.5" fill="red" stroke="black" stroke-width="0.5"></rect>
<rect x="14.5516" y="-61.0981" width="20" height="20" fill="yellow" stroke="black" stroke-width="0.5"><title>room 41</title></rect><rect x="23.3016" y="-44.3481" width="2.5" height="2.5" fill="red" stroke="black" stroke-width="0.5"></rect><rect x="15.3016" y="-52.3481" width="2.5" height="2.5" fill="red" stroke="black" stroke-width="0.5"></rect><rect x="23.3016" y="-60.3481" width="2.5" height="2.5" fill="red" stroke="black" stroke-width="0.5"></rect><rect x="31.3016" y="-52.3481" width="2.5" height="2.5" fill="red" stroke="black" stroke-width="0.5"></rect>
<rect x="21.4829" y="-82.2079" width="20" height="20" fill="yellow" stroke="black" stroke-width="0.5"><title>room 42</title></rect><rect x="30.2329" y="-65.4579" width="2.5" height="2.5" fill="red" stroke="black" stroke-width="0.5"></rect><rect x="22.2329" y="-73.4579" width="2.5" height="2.5" fill="red" stroke="black" stroke-width="0.5"></rect><rect x="30.2329" y="-81.4579" width="2.5" height="2.5" fill="red" stroke="black" stroke-width="0.5"></rect><rect x="38.2329" y="-73.4579" width="2.5" height="2.5" fill="red" stroke="black" stroke-width="0.5"></rect>
<rect x="41.3503" y="-82.8093" width="20" height="20" fill="yellow" stroke="black" stroke-width="0.5"><title>room 43</title></rect><rect x="50.1003" y="-66.0593" width="2.5" height="2.5" fill="red" stroke="black" stroke-width="0.5"></rect><rect x="42.1003" y="-74.0593" width="2.5" height="2.5" fill="red" stroke="black" stroke-width="0.5"></rect><rect x="50.1003" y="-82.0593" width="2.5" height="2.5" fill="red" stroke="black" stroke-width="0.5"></rect><rect x="58.1003" y="-74.0593" width="2.5" height="2.5" fill="red" stroke="black" stroke-width="0.5"></rect>
<rect x="-12.8224" y="57.7803" width="20" height="20" fill="yellow" stroke="black" stroke-width="0.5"><title>room 44</title></rect><rect x="-4.07237" y="74.5303" width="2.5" height="2.5" fill="red" stroke="black" stroke-width="0.5"></rect><rect x="-12.0724" y="66.5303" width="2.5" height="2.5" fill="red" stroke="black" stroke-width="0.5"></rect><rect x="-4.07237" y="58.5303" width="2.5" height="2.5" fill="red" stroke="black" stroke-width="0.5"></rect><rect x="3.92763" y="66.5303" width="2.5" height="2.5" fill="red" stroke="black" stroke-width="0.5"></rect>
<rect x="-12.2922" y="37.9476" width="20" height="20" fill="yellow" stroke="black" stroke-width="0.5"><title>room 45</title></rect><rect x="-3.54221" y="54.6976" width="2.5" height="2.5" fill="red" stroke="black" stroke-width="0.5"></rect><rect x="-11.5422" y="46.6976" width="2.5" height="2.5" fill="red" stroke="black" stroke-width="0.5"></rect><rect x="-3.54221" y="38.6976" width="2.5" height="2.5" fill="red" stroke="black" stroke-width="0.5"></rect><rect x="4.45779" y="46.6976" width="2.5" height="2.5" fill="red" stroke="black" stroke-width="0.5"></rect>
<rect x="-78.6258" y="-99.6971" width="20" height="20" fill="yellow" stroke="black" stroke-width="0.5"><title>room 46</title></rect><rect x="-69.8758" y="-82.9471" width="2.5" height="2.5" fill="red" stroke="black" stroke-width="0.5"></rect><rect x="-77.8758" y="-90.9471" width="2.5" height="2.5" fill="red" stroke="black" stroke-width="0.5"></rect><rect x="-69.8758" y="-98.9471" width="2.5" height="2.5" fill="red" stroke="black" stroke-width="0.5"></rect><rect x="-61.8758" y="-90.9471" width="2.5" height="2.5" fill="red" stroke="black" stroke-width="0.5"></rect>
<rect x="-7.84334" y="-1.70913" width="20" height="20" fill="yellow" stroke="black" stroke-width="0.5"><title>room 47</title></rect><rect x="0.906665" y="15.0409" width="2.5" height="2.5" fill="red" stroke="black" stroke-width="0.5"></rect><rect x="-7.09334" y="7.04087" width="2.5" height="2.5" fill="red" stroke="black" stroke-width="0.5"></rect><rect x="0.906665" y="-0.959128" width="2.5" height="2.5" fill="red" stroke="black" stroke-width="0.5"></rect><rect x="8.90666" y="7.04087" width="2.5" height="2.5" fill="red" stroke="black" stroke-width="0.5"></rect>
<rect x="-32.2137" y="34.4392" width="20" height="20" fill="yellow" stroke="black" stroke-width="0.5"><title>room 48</title></rect><rect x="-23.4637" y="51.1892" width="2.5" height="2.5" fill="red" stroke="black" stroke-width="0.5"></rect><rect x="-31.4637" y="43.1892" width="2.5" height="2.5" fill="red" stroke="black" stroke-width="0.5"></rect><rect x="-23.4637" y="35.1892" width="2.5" height="2.5" fill="red" stroke="black" stroke-width="0.5"></rect><rect x="-15.4637" y="43.1892" width="2.5" height="2.5" fill="red" stroke="black" stroke-width="0.5"></rect>
<rect x="1.91657" y="-101.48" width="20" height="20" fill="yellow" stroke="black" stroke-width="0.5"><title>room 49</title></rect><rect x="10.6666" y="-84.7297" width="2.5" height="2.5" fill="red" stroke="black" stroke-width="0.5"></rect><rect x="2.66657" y="-92.7297" width="2.5" height="2.5" fill="red" stroke="black" stroke-width="0.5"></rect><rect x="10.6666" y="-100.73" width="2.5" height="2.5" fill="red" stroke="black" stroke-width="0.5"></rect><rect x="18.6666" y="-92.7297" width="2.5" height="2.5" fill="red" stroke="black" stroke-width="0.5"></rect>
<line x1="23.189775393373655" y1="33.40951253165093" x2="6.860132042904835" y2="28.06399855548274" stroke-width="0.5" stroke="blue" />
<line x1="-17.35943735877291" y1="1.860294330096619" x2="-1.1398679570951649" y2="20.06399855548274" stroke-width="0.5" stroke="blue" />
<line x1="53.66677383050712" y1="45.776168256117074" x2="39.18977539337365" y2="33.40951253165093" stroke-width="0.5" stroke="blue" />
<line x1="63.00741282593321" y1="60.23030789089145" x2="61.66677383050712" y2="53.776168256117074" stroke-width="0.5" stroke="blue" />
<line x1="62.41315322221614" y1="33.96357909663745" x2="61.66677383050712" y2="37.776168256117074" stroke-width="0.5" stroke="blue" />
<line x1="-19.097441590599004" y1="-33.2785096498298" x2="-17.35943735877291" y2="-14.139705669903382" stroke-width="0.5" stroke="blue" />
<line x1="-5.51436676383133" y1="-11.473832505923548" x2="-9.359437358772912" y2="-6.139705669903381" stroke-width="0.5" stroke="blue" />
<line x1="-30.962723192533005" y1="-41.64303723630952" x2="-27.097441590599004" y2="-41.2785096498298" stroke-width="0.5" stroke="blue" />
<line x1="-28.029619352458916" y1="-57.84603276048955" x2="-19.097441590599004" y2="-49.2785096498298" stroke-width="0.5" stroke="blue" />
<line x1="22.094675003383646" y1="45.22750294076562" x2="31.189775393373655" y2="41.40951253165093" stroke-width="0.5" stroke="blue" />
<line x1="41.76157106212144" y1="19.65617650338322" x2="31.189775393373655" y2="25.409512531650932" stroke-width="0.5" stroke="blue" />
<line x1="63.497297995736815" y1="80.09875946307803" x2="63.00741282593321" y2="76.23030789089145" stroke-width="0.5" stroke="blue" />
<line x1="51.15272255011336" y1="73.061482272652" x2="55.00741282593321" y2="68.23030789089145" stroke-width="0.5" stroke="blue" />
<line x1="-39.95118014999706" y1="-68.9089042154356" x2="-36.029619352458916" y2="-65.84603276048955" stroke-width="0.5" stroke="blue" />
<line x1="41.81865449174824" y1="-0.2068042267840351" x2="41.76157106212144" y2="3.6561765033832216" stroke-width="0.5" stroke="blue" />
<line x1="53.62588621017981" y1="6.119025525783377" x2="49.76157106212144" y2="11.656176503383222" stroke-width="0.5" stroke="blue" />
<line x1="-3.3137810512673074" y1="-51.07091490469863" x2="-11.097441590599004" y2="-41.2785096498298" stroke-width="0.5" stroke="blue" />
<line x1="-31.421459581352295" y1="0.7791622525415047" x2="-25.35943735877291" y2="-6.139705669903381" stroke-width="0.5" stroke="blue" />
<line x1="-59.84242679339151" y1="-69.75154784435114" x2="-55.95118014999706" y2="-68.9089042154356" stroke-width="0.5" stroke="blue" />
<line x1="43.44199072964262" y1="84.93146565003927" x2="43.15272255011336" y2="81.061482272652" stroke-width="0.5" stroke="blue" />
<line x1="29.968662797357307" y1="11.700120800477668" x2="33.76157106212144" y2="11.656176503383222" stroke-width="0.5" stroke="blue" />
<line x1="-16.23299732853242" y1="-70.81108933673129" x2="-20.029619352458916" y2="-65.84603276048955" stroke-width="0.5" stroke="blue" />
<line x1="-41.91535110211203" y1="20.94375614000824" x2="-39.421459581352295" y2="8.779162252541505" stroke-width="0.5" stroke="blue" />
<line x1="-79.72213445134507" y1="-70.42112474875668" x2="-75.84242679339151" y2="-69.75154784435114" stroke-width="0.5" stroke="blue" />
<line x1="-48.760119301963215" y1="-80.79124221015" x2="-47.95118014999706" y2="-76.9089042154356" stroke-width="0.5" stroke="blue" />
<line x1="-30.06972143789514" y1="24.62045147962099" x2="-33.91535110211203" y2="28.94375614000824" stroke-width="0.5" stroke="blue" />
<line x1="-53.77906261423689" y1="35.140869525157385" x2="-49.91535110211203" y2="28.94375614000824" stroke-width="0.5" stroke="blue" />
<line x1="31.294359066300494" y1="73.80480153113206" x2="35.15272255011336" y2="73.061482272652" stroke-width="0.5" stroke="blue" />
<line x1="-88.48637579941011" y1="-58.56439568644922" x2="-87.72213445134507" y2="-62.42112474875668" stroke-width="0.5" stroke="blue" />
<line x1="-51.32767367951059" y1="-4.5134423355200965" x2="-47.421459581352295" y2="0.7791622525415047" stroke-width="0.5" stroke="blue" />
<line x1="-7.9461890833213245" y1="-82.69250870598175" x2="-8.232997328532422" y2="-78.81108933673129" stroke-width="0.5" stroke="blue" />
<line x1="41.90796398124201" y1="61.22847481396264" x2="43.15272255011336" y2="65.061482272652" stroke-width="0.5" stroke="blue" />
<line x1="-42.484937152852076" y1="46.88869768807846" x2="-41.91535110211203" y2="36.94375614000824" stroke-width="0.5" stroke="blue" />
<line x1="11.609457628982781" y1="-62.95051277461684" x2="4.686218948732693" y2="-59.07091490469863" stroke-width="0.5" stroke="blue" />
<line x1="73.53687620598167" y1="46.00813576369646" x2="69.66677383050711" y2="45.776168256117074" stroke-width="0.5" stroke="blue" />
<line x1="74.87636113018183" y1="68.66790124572516" x2="71.00741282593322" y2="68.23030789089145" stroke-width="0.5" stroke="blue" />
<line x1="-61.6752576438464" y1="7.296980818024352" x2="-59.32767367951059" y2="3.4865576644799035" stroke-width="0.5" stroke="blue" />
<line x1="-30.68084139184089" y1="64.2862429268669" x2="-34.484937152852076" y2="54.88869768807846" stroke-width="0.5" stroke="blue" />
<line x1="4.869202109958413" y1="-39.2832132300871" x2="4.686218948732693" y2="-43.07091490469863" stroke-width="0.5" stroke="blue" />
<line x1="-73.64920718960376" y1="35.49090870099767" x2="-69.77906261423689" y2="35.140869525157385" stroke-width="0.5" stroke="blue" />
<line x1="16.551616656445354" y1="-51.09811305043356" x2="12.686218948732693" y2="-51.07091490469863" stroke-width="0.5" stroke="blue" />
<line x1="23.482889446084954" y1="-72.2078781134899" x2="19.60945762898278" y2="-70.95051277461684" stroke-width="0.5" stroke="blue" />
<line x1="43.350321017793526" y1="-72.80928535046166" x2="39.482889446084954" y2="-72.2078781134899" stroke-width="0.5" stroke="blue" />
<line x1="-10.822371301946582" y1="67.78028134213305" x2="-14.68084139184089" y2="64.2862429268669" stroke-width="0.5" stroke="blue" />
<line x1="-2.292210105407917" y1="55.94760106585704" x2="-2.8223713019465824" y2="59.78028134213305" stroke-width="0.5" stroke="blue" />
<line x1="-60.6258252876665" y1="-89.69713004242647" x2="-56.760119301963215" y2="-88.79124221015" stroke-width="0.5" stroke="blue" />
<line x1="2.1566645677582184" y1="0.29087154308746044" x2="2.4856332361686704" y2="-3.473832505923548" stroke-width="0.5" stroke="blue" />
<line x1="-22.213740402186033" y1="36.439212633647" x2="-22.06972143789514" y2="32.62045147962099" stroke-width="0.5" stroke="blue" />
<line x1="3.9165667518424545" y1="-91.47974047281352" x2="0.05381091667867555" y2="-90.69250870598175" stroke-width="0.5" stroke="blue" />
</svg>