<svg width="100%" height="100%" viewBox="-319.17 -282.701 665.686 613.261"  xmlns="http://www.w3.org/2000/svg" xmlns:xlink="http://www.w3.org/1999/xlink" version="1.1">
<rect x="-39.0254" y="11.6735" width="40" height="20" fill="yellow" stroke="black" stroke-width="0.5"><title>room 0</title></rect><rect x="-8.27536" y="14.4235" width="2.5" height="2.5" fill="red" stroke="black" stroke-width="0.5"></rect><rect x="-32.2754" y="26.4235" width="2.5" height="2.5" fill="red" stroke="black" stroke-width="0.5"></rect><rect x="-32.2754" y="14.4235" width="2.5" height="2.5" fill="red" stroke="black" stroke-width="0.5"></rect><rect x="-8.27536" y="26.4235" width="2.5" height="2.5" fill="red" stroke="black" stroke-width="0.5"></rect><rect x="-32.2754" y="14.4235" width="2.5" height="2.5" fill="red" stroke="black" stroke-width="0.5"></rect><rect x="-30.6342" y="26.4235" width="2.5" height="2.5" fill="red" stroke="black" stroke-width="0.5"></rect><rect x="-10.9309" y="26.4235" width="2.5" height="2.5" fill="red" stroke="black" stroke-width="0.5"></rect><rect x="-32.2754" y="26.4235" width="2.5" height="2.5" fill="red" stroke="black" stroke-width="0.5"></rect>
<rect x="45.36" y="-22.8863" width="20" height="20" fill="yellow" stroke="black" stroke-width="0.5"><title>room 1</title></rect><rect x="48.11" y="-8.13632" width="2.5" height="2.5" fill="red" stroke="black" stroke-width="0.5"></rect><rect x="60.11" y="-20.1363" width="2.5" height="2.5" fill="red" stroke="black" stroke-width="0.5"></rect><rect x="48.11" y="-20.1363" width="2.5" height="2.5" fill="red" stroke="black" stroke-width="0.5"></rect><rect x="54.674" y="-20.1363" width="2.5" height="2.5" fill="red" stroke="black" stroke-width="0.5"></rect><rect x="60.11" y="-8.61775" width="2.5" height="2.5" fill="red" stroke="black" stroke-width="0.5"></rect><rect x="60.11" y="-8.13632" width="2.5" height="2.5" fill="red" stroke="black" stroke-width="0.5"></rect><rect x="48.11" y="-8.13632" width="2.5" height="2.5" fill="red" stroke="black" stroke-width="0.5"></rect>
<rect x="115.567" y="-41.6815" width="40" height="20" fill="yellow" stroke="black" stroke-width="0.5"><title>room 2</title></rect><rect x="122.317" y="-26.9315" width="2.5" height="2.5" fill="red" stroke="black" stroke-width="0.5"></rect><rect x="146.317" y="-38.9315" width="2.5" height="2.5" fill="red" stroke="black" stroke-width="0.5"></rect><rect x="146.317" y="-26.9315" width="2.5" height="2.5" fill="red" stroke="black" stroke-width="0.5"></rect><rect x="146.317" y="-33.3843" width="2.5" height="2.5" fill="red" stroke="black" stroke-width="0.5"></rect><rect x="146.317" y="-26.9315" width="2.5" height="2.5" fill="red" stroke="black" stroke-width="0.5"></rect><rect x="141.8" y="-26.9315" width="2.5" height="2.5" fill="red" stroke="black" stroke-width="0.5"></rect>
<rect x="166.012" y="-97.3495" width="20" height="40" fill="yellow" stroke="black" stroke-width="0.5"><title>room 3</title></rect><rect x="168.762" y="-66.5995" width="2.5" height="2.5" fill="red" stroke="black" stroke-width="0.5"></rect><rect x="180.762" y="-90.5995" width="2.5" height="2.5" fill="red" stroke="black" stroke-width="0.5"></rect>
<rect x="-56.0318" y="80.7008" width="30" height="30" fill="yellow" stroke="black" stroke-width="0.5"><title>room 4</title></rect><rect x="-33.2818" y="85.4508" width="2.5" height="2.5" fill="red" stroke="black" stroke-width="0.5"></rect><rect x="-42.2861" y="103.451" width="2.5" height="2.5" fill="red" stroke="black" stroke-width="0.5"></rect><rect x="-33.2818" y="103.451" width="2.5" height="2.5" fill="red" stroke="black" stroke-width="0.5"></rect><rect x="-51.2818" y="85.4508" width="2.5" height="2.5" fill="red" stroke="black" stroke-width="0.5"></rect><rect x="-51.2818" y="103.451" width="2.5" height="2.5" fill="red" stroke="black" stroke-width="0.5"></rect><rect x="-33.2818" y="85.9389" width="2.5" height="2.5" fill="red" stroke="black" stroke-width="0.5"></rect><rect x="-51.2818" y="103.451" width="2.5" height="2.5" fill="red" stroke="black" stroke-width="0.5"></rect>
<rect x="196.49" y="-119.664" width="20" height="20" fill="yellow" stroke="black" stroke-width="0.5"><title>room 5</title></rect><rect x="199.24" y="-104.914" width="2.5" height="2.5" fill="red" stroke="black" stroke-width="0.5"></rect><rect x="204.655" y="-116.914" width="2.5" height="2.5" fill="red" stroke="black" stroke-width="0.5"></rect><rect x="211.24" y="-109.688" width="2.5" height="2.5" fill="red" stroke="black" stroke-width="0.5"></rect><rect x="211.24" y="-104.914" width="2.5" height="2.5" fill="red" stroke="black" stroke-width="0.5"></rect><rect x="199.24" y="-116.914" width="2.5" height="2.5" fill="red" stroke="black" stroke-width="0.5"></rect><rect x="211.24" y="-116.914" width="2.5" height="2.5" fill="red" stroke="black" stroke-width="0.5"></rect>
<rect x="-56.0404" y="125.437" width="30" height="30" fill="yellow" stroke="black" stroke-width="0.5"><title>room 6</title></rect><rect x="-42.2861" y="130.187" width="2.5" height="2.5" fill="red" stroke="black" stroke-width="0.5"></rect><rect x="-39.9048" y="148.187" width="2.5" height="2.5" fill="red" stroke="black" stroke-width="0.5"></rect>
<rect x="-11.3798" y="103.734" width="30" height="30" fill="yellow" stroke="black" stroke-width="0.5"><title>room 7</title></rect><rect x="-6.62983" y="108.484" width="2.5" height="2.5" fill="red" stroke="black" stroke-width="0.5"></rect><rect x="11.3702" y="126.484" width="2.5" height="2.5" fill="red" stroke="black" stroke-width="0.5"></rect>
<rect x="-88.2402" y="66.7385" width="20" height="20" fill="yellow" stroke="black" stroke-width="0.5"><title>room 8</title></rect><rect x="-73.4902" y="81.4885" width="2.5" height="2.5" fill="red" stroke="black" stroke-width="0.5"></rect>
<rect x="16.5066" y="-73.5115" width="20" height="40" fill="yellow" stroke="black" stroke-width="0.5"><title>room 9</title></rect><rect x="31.2566" y="-42.7615" width="2.5" height="2.5" fill="red" stroke="black" stroke-width="0.5"></rect><rect x="19.2566" y="-66.7615" width="2.5" height="2.5" fill="red" stroke="black" stroke-width="0.5"></rect>
<rect x="-88.1668" y="157.706" width="20" height="20" fill="yellow" stroke="black" stroke-width="0.5"><title>room 10</title></rect><rect x="-73.4168" y="160.456" width="2.5" height="2.5" fill="red" stroke="black" stroke-width="0.5"></rect><rect x="-73.4168" y="172.456" width="2.5" height="2.5" fill="red" stroke="black" stroke-width="0.5"></rect><rect x="-85.4168" y="172.456" width="2.5" height="2.5" fill="red" stroke="black" stroke-width="0.5"></rect><rect x="-85.4168" y="172.456" width="2.5" height="2.5" fill="red" stroke="black" stroke-width="0.5"></rect><rect x="-85.4168" y="160.456" width="2.5" height="2.5" fill="red" stroke="black" stroke-width="0.5"></rect>
<rect x="46.4879" y="-77.7711" width="20" height="40" fill="yellow" stroke="black" stroke-width="0.5"><title>room 11</title></rect><rect x="54.6739" y="-47.0211" width="2.5" height="2.5" fill="red" stroke="black" stroke-width="0.5"></rect><rect x="61.2379" y="-71.0211" width="2.5" height="2.5" fill="red" stroke="black" stroke-width="0.5"></rect><rect x="49.2379" y="-71.0211" width="2.5" height="2.5" fill="red" stroke="black" stroke-width="0.5"></rect>
<rect x="79.9065" y="-11.8492" width="40" height="20" fill="yellow" stroke="black" stroke-width="0.5"><title>room 12</title></rect><rect x="86.6565" y="-8.61777" width="2.5" height="2.5" fill="red" stroke="black" stroke-width="0.5"></rect><rect x="90.6534" y="-9.0992" width="2.5" height="2.5" fill="red" stroke="black" stroke-width="0.5"></rect>
<rect x="-97.5909" y="-31.0742" width="20" height="20" fill="yellow" stroke="black" stroke-width="0.5"><title>room 13</title></rect><rect x="-82.8409" y="-16.3242" width="2.5" height="2.5" fill="red" stroke="black" stroke-width="0.5"></rect><rect x="-82.8409" y="-28.3242" width="2.5" height="2.5" fill="red" stroke="black" stroke-width="0.5"></rect><rect x="-94.8409" y="-28.3242" width="2.5" height="2.5" fill="red" stroke="black" stroke-width="0.5"></rect><rect x="-94.8409" y="-16.3242" width="2.5" height="2.5" fill="red" stroke="black" stroke-width="0.5"></rect>
<rect x="-53.2693" y="167.735" width="40" height="20" fill="yellow" stroke="black" stroke-width="0.5"><title>room 14</title></rect><rect x="-39.9048" y="170.485" width="2.5" height="2.5" fill="red" stroke="black" stroke-width="0.5"></rect><rect x="-22.5193" y="182.485" width="2.5" height="2.5" fill="red" stroke="black" stroke-width="0.5"></rect>
<rect x="76.4175" y="-66.4817" width="20" height="40" fill="yellow" stroke="black" stroke-width="0.5"><title>room 15</title></rect><rect x="90.6534" y="-35.7317" width="2.5" height="2.5" fill="red" stroke="black" stroke-width="0.5"></rect><rect x="91.1675" y="-59.7317" width="2.5" height="2.5" fill="red" stroke="black" stroke-width="0.5"></rect>
<rect x="195.32" y="-174.439" width="20" height="40" fill="yellow" stroke="black" stroke-width="0.5"><title>room 16</title></rect><rect x="204.655" y="-143.689" width="2.5" height="2.5" fill="red" stroke="black" stroke-width="0.5"></rect><rect x="198.07" y="-167.689" width="2.5" height="2.5" fill="red" stroke="black" stroke-width="0.5"></rect><rect x="210.07" y="-167.689" width="2.5" height="2.5" fill="red" stroke="black" stroke-width="0.5"></rect>
<rect x="-68.8699" y="197.779" width="20" height="20" fill="yellow" stroke="black" stroke-width="0.5"><title>room 17</title></rect><rect x="-66.1199" y="200.529" width="2.5" height="2.5" fill="red" stroke="black" stroke-width="0.5"></rect><rect x="-66.1199" y="212.529" width="2.5" height="2.5" fill="red" stroke="black" stroke-width="0.5"></rect><rect x="-54.1199" y="206.462" width="2.5" height="2.5" fill="red" stroke="black" stroke-width="0.5"></rect><rect x="-54.1199" y="212.529" width="2.5" height="2.5" fill="red" stroke="black" stroke-width="0.5"></rect>
<rect x="164.372" y="17.1716" width="20" height="20" fill="yellow" stroke="black" stroke-width="0.5"><title>room 18</title></rect><rect x="167.122" y="19.9216" width="2.5" height="2.5" fill="red" stroke="black" stroke-width="0.5"></rect><rect x="179.122" y="31.9216" width="2.5" height="2.5" fill="red" stroke="black" stroke-width="0.5"></rect><rect x="167.122" y="31.9216" width="2.5" height="2.5" fill="red" stroke="black" stroke-width="0.5"></rect><rect x="179.122" y="25.8982" width="2.5" height="2.5" fill="red" stroke="black" stroke-width="0.5"></rect>
<rect x="-76.0926" y="-87.8622" width="20" height="40" fill="yellow" stroke="black" stroke-width="0.5"><title>room 19</title></rect><rect x="-73.3426" y="-57.1122" width="2.5" height="2.5" fill="red" stroke="black" stroke-width="0.5"></rect><rect x="-73.3426" y="-81.1122" width="2.5" height="2.5" fill="red" stroke="black" stroke-width="0.5"></rect><rect x="-61.3426" y="-81.1122" width="2.5" height="2.5" fill="red" stroke="black" stroke-width="0.5"></rect>
<rect x="-163.235" y="-79.3678" width="30" height="30" fill="yellow" stroke="black" stroke-width="0.5"><title>room 20</title></rect><rect x="-140.485" y="-56.6178" width="2.5" height="2.5" fill="red" stroke="black" stroke-width="0.5"></rect><rect x="-158.485" y="-56.6178" width="2.5" height="2.5" fill="red" stroke="black" stroke-width="0.5"></rect><rect x="-158.485" y="-74.6178" width="2.5" height="2.5" fill="red" stroke="black" stroke-width="0.5"></rect><rect x="-150.922" y="-74.6178" width="2.5" height="2.5" fill="red" stroke="black" stroke-width="0.5"></rect><rect x="-158.485" y="-56.6178" width="2.5" height="2.5" fill="red" stroke="black" stroke-width="0.5"></rect>
<rect x="15.9262" y="40.9105" width="20" height="20" fill="yellow" stroke="black" stroke-width="0.5"><title>room 21</title></rect><rect x="18.6762" y="43.6605" width="2.5" height="2.5" fill="red" stroke="black" stroke-width="0.5"></rect>
<rect x="61.5086" y="17.973" width="40" height="20" fill="yellow" stroke="black" stroke-width="0.5"><title>room 22</title></rect><rect x="68.2586" y="20.723" width="2.5" height="2.5" fill="red" stroke="black" stroke-width="0.5"></rect><rect x="85.3548" y="32.723" width="2.5" height="2.5" fill="red" stroke="black" stroke-width="0.5"></rect><rect x="92.2586" y="32.723" width="2.5" height="2.5" fill="red" stroke="black" stroke-width="0.5"></rect><rect x="68.2586" y="32.723" width="2.5" height="2.5" fill="red" stroke="black" stroke-width="0.5"></rect>
<rect x="75.701" y="47.838" width="20" height="20" fill="yellow" stroke="black" stroke-width="0.5"><title>room 23</title></rect><rect x="85.3548" y="50.588" width="2.5" height="2.5" fill="red" stroke="black" stroke-width="0.5"></rect><rect x="85.4676" y="62.588" width="2.5" height="2.5" fill="red" stroke="black" stroke-width="0.5"></rect>
<rect x="-83.5612" y="230.65" width="20" height="20" fill="yellow" stroke="black" stroke-width="0.5"><title>room 24</title></rect><rect x="-68.8112" y="233.4" width="2.5" height="2.5" fill="red" stroke="black" stroke-width="0.5"></rect><rect x="-80.8112" y="245.4" width="2.5" height="2.5" fill="red" stroke="black" stroke-width="0.5"></rect>
<rect x="-206.946" y="-55.0697" width="20" height="40" fill="yellow" stroke="black" stroke-width="0.5"><title>room 25</title></rect><rect x="-192.196" y="-48.3197" width="2.5" height="2.5" fill="red" stroke="black" stroke-width="0.5"></rect><rect x="-204.196" y="-24.3197" width="2.5" height="2.5" fill="red" stroke="black" stroke-width="0.5"></rect>
<rect x="-103.761" y="262.904" width="30" height="30" fill="yellow" stroke="black" stroke-width="0.5"><title>room 26</title></rect><rect x="-81.0112" y="267.654" width="2.5" height="2.5" fill="red" stroke="black" stroke-width="0.5"></rect>
<rect x="231.334" y="-117.212" width="40" height="20" fill="yellow" stroke="black" stroke-width="0.5"><title>room 27</title></rect><rect x="238.084" y="-109.688" width="2.5" height="2.5" fill="red" stroke="black" stroke-width="0.5"></rect><rect x="262.084" y="-102.462" width="2.5" height="2.5" fill="red" stroke="black" stroke-width="0.5"></rect><rect x="262.084" y="-114.462" width="2.5" height="2.5" fill="red" stroke="black" stroke-width="0.5"></rect>
<rect x="-64.0857" y="-30.6471" width="30" height="30" fill="yellow" stroke="black" stroke-width="0.5"><title>room 28</title></rect><rect x="-41.3357" y="-7.8971" width="2.5" height="2.5" fill="red" stroke="black" stroke-width="0.5"></rect><rect x="-59.3357" y="-25.8971" width="2.5" height="2.5" fill="red" stroke="black" stroke-width="0.5"></rect><rect x="-41.3357" y="-19.197" width="2.5" height="2.5" fill="red" stroke="black" stroke-width="0.5"></rect><rect x="-42.4305" y="-25.8971" width="2.5" height="2.5" fill="red" stroke="black" stroke-width="0.5"></rect>
<rect x="205.922" y="-87.3919" width="40" height="20" fill="yellow" stroke="black" stroke-width="0.5"><title>room 29</title></rect><rect x="212.672" y="-84.6419" width="2.5" height="2.5" fill="red" stroke="black" stroke-width="0.5"></rect><rect x="236.672" y="-72.6419" width="2.5" height="2.5" fill="red" stroke="black" stroke-width="0.5"></rect>
<rect x="244.88" y="-52.8796" width="20" height="40" fill="yellow" stroke="black" stroke-width="0.5"><title>room 30</title></rect><rect x="247.63" y="-46.1296" width="2.5" height="2.5" fill="red" stroke="black" stroke-width="0.5"></rect>
<rect x="153.116" y="-144.655" width="30" height="30" fill="yellow" stroke="black" stroke-width="0.5"><title>room 31</title></rect><rect x="175.866" y="-121.905" width="2.5" height="2.5" fill="red" stroke="black" stroke-width="0.5"></rect>
<rect x="-105.63" y="-111.66" width="20" height="20" fill="yellow" stroke="black" stroke-width="0.5"><title>room 32</title></rect><rect x="-90.8802" y="-96.9096" width="2.5" height="2.5" fill="red" stroke="black" stroke-width="0.5"></rect><rect x="-94.6013" y="-108.91" width="2.5" height="2.5" fill="red" stroke="black" stroke-width="0.5"></rect>
<rect x="-142.812" y="171.182" width="40" height="20" fill="yellow" stroke="black" stroke-width="0.5"><title>room 33</title></rect><rect x="-112.062" y="173.932" width="2.5" height="2.5" fill="red" stroke="black" stroke-width="0.5"></rect><rect x="-136.062" y="185.932" width="2.5" height="2.5" fill="red" stroke="black" stroke-width="0.5"></rect>
<rect x="-195.41" y="-114.97" width="20" height="40" fill="yellow" stroke="black" stroke-width="0.5"><title>room 34</title></rect><rect x="-180.66" y="-84.2204" width="2.5" height="2.5" fill="red" stroke="black" stroke-width="0.5"></rect><rect x="-192.66" y="-87.2653" width="2.5" height="2.5" fill="red" stroke="black" stroke-width="0.5"></rect><rect x="-192.66" y="-108.22" width="2.5" height="2.5" fill="red" stroke="black" stroke-width="0.5"></rect>
<rect x="180.526" y="49.4426" width="30" height="30" fill="yellow" stroke="black" stroke-width="0.5"><title>room 35</title></rect><rect x="185.276" y="54.1926" width="2.5" height="2.5" fill="red" stroke="black" stroke-width="0.5"></rect>
<rect x="-43.743" y="41.5162" width="20" height="20" fill="yellow" stroke="black" stroke-width="0.5"><title>room 36</title></rect><rect x="-30.6342" y="44.2662" width="2.5" height="2.5" fill="red" stroke="black" stroke-width="0.5"></rect>
<rect x="106.239" y="-74.7848" width="20" height="20" fill="yellow" stroke="black" stroke-width="0.5"><title>room 37</title></rect><rect x="108.989" y="-60.0348" width="2.5" height="2.5" fill="red" stroke="black" stroke-width="0.5"></rect><rect x="120.989" y="-68.9339" width="2.5" height="2.5" fill="red" stroke="black" stroke-width="0.5"></rect>
<rect x="-13.9084" y="41.4957" width="20" height="20" fill="yellow" stroke="black" stroke-width="0.5"><title>room 38</title></rect><rect x="-10.9309" y="44.2457" width="2.5" height="2.5" fill="red" stroke="black" stroke-width="0.5"></rect>
<rect x="75.9956" y="-126.119" width="20" height="40" fill="yellow" stroke="black" stroke-width="0.5"><title>room 39</title></rect><rect x="78.7456" y="-95.3686" width="2.5" height="2.5" fill="red" stroke="black" stroke-width="0.5"></rect><rect x="90.7456" y="-119.369" width="2.5" height="2.5" fill="red" stroke="black" stroke-width="0.5"></rect><rect x="82.5753" y="-119.369" width="2.5" height="2.5" fill="red" stroke="black" stroke-width="0.5"></rect>
<rect x="-165.481" y="-136.51" width="20" height="40" fill="yellow" stroke="black" stroke-width="0.5"><title>room 40</title></rect><rect x="-150.922" y="-105.76" width="2.5" height="2.5" fill="red" stroke="black" stroke-width="0.5"></rect><rect x="-162.731" y="-129.76" width="2.5" height="2.5" fill="red" stroke="black" stroke-width="0.5"></rect>
<rect x="-261.481" y="-18.5433" width="40" height="20" fill="yellow" stroke="black" stroke-width="0.5"><title>room 41</title></rect><rect x="-230.731" y="-15.7933" width="2.5" height="2.5" fill="red" stroke="black" stroke-width="0.5"></rect><rect x="-254.731" y="-15.7933" width="2.5" height="2.5" fill="red" stroke="black" stroke-width="0.5"></rect>
<rect x="165.588" y="-194.432" width="20" height="20" fill="yellow" stroke="black" stroke-width="0.5"><title>room 42</title></rect><rect x="180.338" y="-179.682" width="2.5" height="2.5" fill="red" stroke="black" stroke-width="0.5"></rect><rect x="180.338" y="-191.682" width="2.5" height="2.5" fill="red" stroke="black" stroke-width="0.5"></rect>
<rect x="227.596" y="-159.494" width="30" height="30" fill="yellow" stroke="black" stroke-width="0.5"><title>room 43</title></rect><rect x="232.346" y="-136.744" width="2.5" height="2.5" fill="red" stroke="black" stroke-width="0.5"></rect>
<rect x="170.272" y="-42.5872" width="20" height="20" fill="yellow" stroke="black" stroke-width="0.5"><title>room 44</title></rect><rect x="173.022" y="-33.3843" width="2.5" height="2.5" fill="red" stroke="black" stroke-width="0.5"></rect><rect x="185.022" y="-36.7823" width="2.5" height="2.5" fill="red" stroke="black" stroke-width="0.5"></rect>
<rect x="-142.785" y="7.39923" width="40" height="20" fill="yellow" stroke="black" stroke-width="0.5"><title>room 45</title></rect><rect x="-112.035" y="10.1492" width="2.5" height="2.5" fill="red" stroke="black" stroke-width="0.5"></rect>
<rect x="202.537" y="-55.0254" width="30" height="30" fill="yellow" stroke="black" stroke-width="0.5"><title>room 46</title></rect><rect x="207.287" y="-36.7823" width="2.5" height="2.5" fill="red" stroke="black" stroke-width="0.5"></rect>
<rect x="-39.005" y="197.645" width="20" height="20" fill="yellow" stroke="black" stroke-width="0.5"><title>room 47</title></rect><rect x="-36.255" y="206.462" width="2.5" height="2.5" fill="red" stroke="black" stroke-width="0.5"></rect>
<rect x="31.6789" y="-137.147" width="20" height="40" fill="yellow" stroke="black" stroke-width="0.5"><title>room 48</title></rect><rect x="46.4289" y="-106.397" width="2.5" height="2.5" fill="red" stroke="black" stroke-width="0.5"></rect>
<rect x="105.574" y="47.5559" width="20" height="20" fill="yellow" stroke="black" stroke-width="0.5"><title>room 49</title></rect><rect x="108.324" y="50.3059" width="2.5" height="2.5" fill="red" stroke="black" stroke-width="0.5"></rect><rect x="120.324" y="62.3059" width="2.5" height="2.5" fill="red" stroke="black" stroke-width="0.5"></rect>
<rect x="-8.8984" y="71.3782" width="40" height="20" fill="yellow" stroke="black" stroke-width="0.5"><title>room 50</title></rect><rect x="-2.1484" y="85.9389" width="2.5" height="2.5" fill="red" stroke="black" stroke-width="0.5"></rect><rect x="21.8516" y="86.1282" width="2.5" height="2.5" fill="red" stroke="black" stroke-width="0.5"></rect>
<rect x="-186.7" y="-183.562" width="30" height="30" fill="yellow" stroke="black" stroke-width="0.5"><title>room 51</title></rect><rect x="-163.95" y="-160.812" width="2.5" height="2.5" fill="red" stroke="black" stroke-width="0.5"></rect><rect x="-181.95" y="-178.812" width="2.5" height="2.5" fill="red" stroke="black" stroke-width="0.5"></rect>
<rect x="-103.072" y="-153.958" width="30" height="30" fill="yellow" stroke="black" stroke-width="0.5"><title>room 52</title></rect><rect x="-94.6013" y="-131.208" width="2.5" height="2.5" fill="red" stroke="black" stroke-width="0.5"></rect><rect x="-80.3223" y="-149.208" width="2.5" height="2.5" fill="red" stroke="black" stroke-width="0.5"></rect>
<rect x="-123.696" y="200.961" width="40" height="20" fill="yellow" stroke="black" stroke-width="0.5"><title>room 53</title></rect><rect x="-92.9461" y="203.711" width="2.5" height="2.5" fill="red" stroke="black" stroke-width="0.5"></rect><rect x="-116.946" y="215.711" width="2.5" height="2.5" fill="red" stroke="black" stroke-width="0.5"></rect>
<rect x="-177.149" y="-32.4044" width="20" height="40" fill="yellow" stroke="black" stroke-width="0.5"><title>room 54</title></rect><rect x="-162.399" y="-25.6544" width="2.5" height="2.5" fill="red" stroke="black" stroke-width="0.5"></rect><rect x="-174.399" y="-1.65444" width="2.5" height="2.5" fill="red" stroke="black" stroke-width="0.5"></rect>
<rect x="-118.375" y="-79.3385" width="30" height="30" fill="yellow" stroke="black" stroke-width="0.5"><title>room 55</title></rect><rect x="-95.6255" y="-56.5885" width="2.5" height="2.5" fill="red" stroke="black" stroke-width="0.5"></rect><rect x="-113.625" y="-74.5885" width="2.5" height="2.5" fill="red" stroke="black" stroke-width="0.5"></rect><rect x="-113.625" y="-56.5885" width="2.5" height="2.5" fill="red" stroke="black" stroke-width="0.5"></rect>
<rect x="-135.515" y="-136.362" width="20" height="40" fill="yellow" stroke="black" stroke-width="0.5"><title>room 56</title></rect><rect x="-120.765" y="-105.612" width="2.5" height="2.5" fill="red" stroke="black" stroke-width="0.5"></rect>
<rect x="-177.472" y="180.059" width="20" height="40" fill="yellow" stroke="black" stroke-width="0.5"><title>room 57</title></rect><rect x="-162.722" y="186.809" width="2.5" height="2.5" fill="red" stroke="black" stroke-width="0.5"></rect><rect x="-174.722" y="210.809" width="2.5" height="2.5" fill="red" stroke="black" stroke-width="0.5"></rect>
<rect x="265.641" y="-87.4722" width="40" height="20" fill="yellow" stroke="black" stroke-width="0.5"><title>room 58</title></rect><rect x="272.391" y="-84.7222" width="2.5" height="2.5" fill="red" stroke="black" stroke-width="0.5"></rect>
<rect x="169.21" y="-12.7293" width="40" height="20" fill="yellow" stroke="black" stroke-width="0.5"><title>room 59</title></rect><rect x="175.96" y="-9.97928" width="2.5" height="2.5" fill="red" stroke="black" stroke-width="0.5"></rect>
<rect x="-218.949" y="-210.382" width="20" height="40" fill="yellow" stroke="black" stroke-width="0.5"><title>room 60</title></rect><rect x="-204.199" y="-179.632" width="2.5" height="2.5" fill="red" stroke="black" stroke-width="0.5"></rect><rect x="-216.199" y="-203.632" width="2.5" height="2.5" fill="red" stroke="black" stroke-width="0.5"></rect>
<rect x="136.084" y="-96.583" width="20" height="40" fill="yellow" stroke="black" stroke-width="0.5"><title>room 61</title></rect><rect x="138.834" y="-68.9339" width="2.5" height="2.5" fill="red" stroke="black" stroke-width="0.5"></rect>
<rect x="195.271" y="-234.147" width="20" height="40" fill="yellow" stroke="black" stroke-width="0.5"><title>room 62</title></rect><rect x="198.021" y="-203.397" width="2.5" height="2.5" fill="red" stroke="black" stroke-width="0.5"></rect>
<rect x="-142.819" y="141.374" width="40" height="20" fill="yellow" stroke="black" stroke-width="0.5"><title>room 63</title></rect><rect x="-112.069" y="156.124" width="2.5" height="2.5" fill="red" stroke="black" stroke-width="0.5"></rect><rect x="-136.069" y="144.124" width="2.5" height="2.5" fill="red" stroke="black" stroke-width="0.5"></rect>
<rect x="-16.6111" y="-43.2469" width="20" height="40" fill="yellow" stroke="black" stroke-width="0.5"><title>room 64</title></rect><rect x="-13.8611" y="-19.197" width="2.5" height="2.5" fill="red" stroke="black" stroke-width="0.5"></rect><rect x="-7.70157" y="-36.4969" width="2.5" height="2.5" fill="red" stroke="black" stroke-width="0.5"></rect>
<rect x="-100.688" y="99.1307" width="30" height="30" fill="yellow" stroke="black" stroke-width="0.5"><title>room 65</title></rect><rect x="-77.9378" y="103.881" width="2.5" height="2.5" fill="red" stroke="black" stroke-width="0.5"></rect>
<rect x="-85.9806" y="23.8061" width="30" height="30" fill="yellow" stroke="black" stroke-width="0.5"><title>room 66</title></rect><rect x="-63.2306" y="28.5561" width="2.5" height="2.5" fill="red" stroke="black" stroke-width="0.5"></rect><rect x="-81.2306" y="45.4817" width="2.5" height="2.5" fill="red" stroke="black" stroke-width="0.5"></rect>
<rect x="-162.884" y="111.691" width="20" height="20" fill="yellow" stroke="black" stroke-width="0.5"><title>room 67</title></rect><rect x="-148.134" y="126.441" width="2.5" height="2.5" fill="red" stroke="black" stroke-width="0.5"></rect>
<rect x="-16.2921" y="-77.98" width="20" height="20" fill="yellow" stroke="black" stroke-width="0.5"><title>room 68</title></rect><rect x="-7.70156" y="-63.23" width="2.5" height="2.5" fill="red" stroke="black" stroke-width="0.5"></rect>
<rect x="-130.674" y="39.6574" width="30" height="30" fill="yellow" stroke="black" stroke-width="0.5"><title>room 69</title></rect><rect x="-107.924" y="45.4817" width="2.5" height="2.5" fill="red" stroke="black" stroke-width="0.5"></rect><rect x="-125.924" y="62.4074" width="2.5" height="2.5" fill="red" stroke="black" stroke-width="0.5"></rect><rect x="-122.097" y="62.4074" width="2.5" height="2.5" fill="red" stroke="black" stroke-width="0.5"></rect>
<rect x="108.259" y="-143.863" width="30" height="30" fill="yellow" stroke="black" stroke-width="0.5"><title>room 70</title></rect><rect x="113.009" y="-121.113" width="2.5" height="2.5" fill="red" stroke="black" stroke-width="0.5"></rect>
<rect x="-219.723" y="206.509" width="30" height="30" fill="yellow" stroke="black" stroke-width="0.5"><title>room 71</title></rect><rect x="-196.973" y="211.259" width="2.5" height="2.5" fill="red" stroke="black" stroke-width="0.5"></rect>
<rect x="269.935" y="-146.942" width="20" height="20" fill="yellow" stroke="black" stroke-width="0.5"><title>room 72</title></rect><rect x="272.685" y="-132.192" width="2.5" height="2.5" fill="red" stroke="black" stroke-width="0.5"></rect>
<rect x="45.8268" y="47.744" width="20" height="20" fill="yellow" stroke="black" stroke-width="0.5"><title>room 73</title></rect><rect x="60.5768" y="50.494" width="2.5" height="2.5" fill="red" stroke="black" stroke-width="0.5"></rect>
<rect x="15.619" y="-13.8586" width="20" height="40" fill="yellow" stroke="black" stroke-width="0.5"><title>room 74</title></rect><rect x="30.369" y="-7.10862" width="2.5" height="2.5" fill="red" stroke="black" stroke-width="0.5"></rect>
<rect x="6.34222" y="145.962" width="40" height="20" fill="yellow" stroke="black" stroke-width="0.5"><title>room 75</title></rect><rect x="13.0922" y="148.712" width="2.5" height="2.5" fill="red" stroke="black" stroke-width="0.5"></rect>
<rect x="-53.6414" y="232.417" width="20" height="40" fill="yellow" stroke="black" stroke-width="0.5"><title>room 76</title></rect><rect x="-50.8914" y="239.167" width="2.5" height="2.5" fill="red" stroke="black" stroke-width="0.5"></rect>
<rect x="-87.0544" y="-186.213" width="40" height="20" fill="yellow" stroke="black" stroke-width="0.5"><title>room 77</title></rect><rect x="-80.3044" y="-171.463" width="2.5" height="2.5" fill="red" stroke="black" stroke-width="0.5"></rect>
<rect x="148.151" y="52.4282" width="20" height="40" fill="yellow" stroke="black" stroke-width="0.5"><title>room 78</title></rect><rect x="162.901" y="59.1782" width="2.5" height="2.5" fill="red" stroke="black" stroke-width="0.5"></rect>
<rect x="-250.124" y="-92.9808" width="40" height="20" fill="yellow" stroke="black" stroke-width="0.5"><title>room 79</title></rect><rect x="-219.374" y="-87.2653" width="2.5" height="2.5" fill="red" stroke="black" stroke-width="0.5"></rect><rect x="-243.374" y="-90.2308" width="2.5" height="2.5" fill="red" stroke="black" stroke-width="0.5"></rect>
<rect x="-206.016" y="22.2342" width="40" height="20" fill="yellow" stroke="black" stroke-width="0.5"><title>room 80</title></rect><rect x="-175.266" y="24.9842" width="2.5" height="2.5" fill="red" stroke="black" stroke-width="0.5"></rect>
<rect x="-10.6816" y="-120.407" width="30" height="30" fill="yellow" stroke="black" stroke-width="0.5"><title>room 81</title></rect><rect x="12.0684" y="-97.6569" width="2.5" height="2.5" fill="red" stroke="black" stroke-width="0.5"></rect>
<rect x="30.9531" y="101.086" width="20" height="20" fill="yellow" stroke="black" stroke-width="0.5"><title>room 82</title></rect><rect x="33.7031" y="103.836" width="2.5" height="2.5" fill="red" stroke="black" stroke-width="0.5"></rect>
<rect x="-278.294" y="-60.7621" width="30" height="30" fill="yellow" stroke="black" stroke-width="0.5"><title>room 83</title></rect><rect x="-255.544" y="-38.0121" width="2.5" height="2.5" fill="red" stroke="black" stroke-width="0.5"></rect>
<rect x="-162.927" y="56.8208" width="20" height="40" fill="yellow" stroke="black" stroke-width="0.5"><title>room 84</title></rect><rect x="-148.177" y="63.5708" width="2.5" height="2.5" fill="red" stroke="black" stroke-width="0.5"></rect>
<rect x="134.532" y="-7.037" width="20" height="40" fill="yellow" stroke="black" stroke-width="0.5"><title>room 85</title></rect><rect x="141.8" y="-0.287" width="2.5" height="2.5" fill="red" stroke="black" stroke-width="0.5"></rect>
<rect x="1.3329" y="180.792" width="20" height="40" fill="yellow" stroke="black" stroke-width="0.5"><title>room 86</title></rect><rect x="4.0829" y="187.542" width="2.5" height="2.5" fill="red" stroke="black" stroke-width="0.5"></rect>
<rect x="-267.619" y="-135.224" width="30" height="30" fill="yellow" stroke="black" stroke-width="0.5"><title>room 87</title></rect><rect x="-244.869" y="-112.474" width="2.5" height="2.5" fill="red" stroke="black" stroke-width="0.5"></rect>
<rect x="-225.19" y="-147.765" width="20" height="40" fill="yellow" stroke="black" stroke-width="0.5"><title>room 88</title></rect><rect x="-210.44" y="-117.015" width="2.5" height="2.5" fill="red" stroke="black" stroke-width="0.5"></rect>
<rect x="75.7342" y="80.1381" width="30" height="30" fill="yellow" stroke="black" stroke-width="0.5"><title>room 89</title></rect><rect x="85.4676" y="84.8881" width="2.5" height="2.5" fill="red" stroke="black" stroke-width="0.5"></rect>
<rect x="229.862" y="-191.846" width="40" height="20" fill="yellow" stroke="black" stroke-width="0.5"><title>room 90</title></rect><rect x="236.612" y="-177.096" width="2.5" height="2.5" fill="red" stroke="black" stroke-width="0.5"></rect>
<rect x="-247.334" y="-245.044" width="40" height="20" fill="yellow" stroke="black" stroke-width="0.5"><title>room 91</title></rect><rect x="-216.584" y="-230.294" width="2.5" height="2.5" fill="red" stroke="black" stroke-width="0.5"></rect>
<rect x="-133.02" y="86.6792" width="20" height="40" fill="yellow" stroke="black" stroke-width="0.5"><title>room 92</title></rect><rect x="-122.097" y="93.4292" width="2.5" height="2.5" fill="red" stroke="black" stroke-width="0.5"></rect>
<rect x="-46.2753" y="-62.8988" width="20" height="20" fill="yellow" stroke="black" stroke-width="0.5"><title>room 93</title></rect><rect x="-42.4305" y="-48.1488" width="2.5" height="2.5" fill="red" stroke="black" stroke-width="0.5"></rect>
<rect x="63.655" y="-173.26" width="30" height="30" fill="yellow" stroke="black" stroke-width="0.5"><title>room 94</title></rect><rect x="82.5753" y="-150.51" width="2.5" height="2.5" fill="red" stroke="black" stroke-width="0.5"></rect>
<rect x="118.181" y="77.3814" width="20" height="20" fill="yellow" stroke="black" stroke-width="0.5"><title>room 95</title></rect><rect x="120.931" y="80.1314" width="2.5" height="2.5" fill="red" stroke="black" stroke-width="0.5"></rect>
<rect x="-46.2901" y="-117.742" width="20" height="40" fill="yellow" stroke="black" stroke-width="0.5"><title>room 96</title></rect><rect x="-43.5401" y="-86.9918" width="2.5" height="2.5" fill="red" stroke="black" stroke-width="0.5"></rect>
<rect x="-132.03" y="230.789" width="20" height="20" fill="yellow" stroke="black" stroke-width="0.5"><title>room 97</title></rect><rect x="-117.28" y="233.539" width="2.5" height="2.5" fill="red" stroke="black" stroke-width="0.5"></rect>
<rect x="-139.991" y="-34.819" width="30" height="30" fill="yellow" stroke="black" stroke-width="0.5"><title>room 98</title></rect><rect x="-117.241" y="-30.069" width="2.5" height="2.5" fill="red" stroke="black" stroke-width="0.5"></rect>
<rect x="194.238" y="17.1248" width="20" height="20" fill="yellow" stroke="black" stroke-width="0.5"><title>room 99</title></rect><rect x="196.988" y="25.8982" width="2.5" height="2.5" fill="red" stroke="black" stroke-width="0.5"></rect>
<line x1="-7.025359708869065" y1="15.67350092600735" x2="49.359956513919585" y2="-6.886317115151543" stroke-width="0.5" stroke="blue" />
<line x1="-31.025359708869065" y1="27.67350092600735" x2="-32.03175617515783" y2="86.70082738592788" stroke-width="0.5" stroke="blue" />
<line x1="-31.025359708869065" y1="15.67350092600735" x2="-81.5908747942546" y2="-15.074162445917366" stroke-width="0.5" stroke="blue" />
<line x1="-7.025359708869065" y1="27.67350092600735" x2="19.926157979488007" y2="44.91054220375117" stroke-width="0.5" stroke="blue" />
<line x1="-31.025359708869065" y1="15.67350092600735" x2="-40.0857436909487" y2="-6.647101243041119" stroke-width="0.5" stroke="blue" />
<line x1="-29.384171695550165" y1="27.67350092600735" x2="-29.384161418937563" y2="45.516191773631405" stroke-width="0.5" stroke="blue" />
<line x1="-9.680924265807555" y1="27.67350092600735" x2="-9.680923730183943" y2="45.495671823335506" stroke-width="0.5" stroke="blue" />
<line x1="-31.025359708869065" y1="27.67350092600735" x2="-61.98057485544476" y2="29.80605416801857" stroke-width="0.5" stroke="blue" />
<line x1="61.359956513919585" y1="-18.88631711515154" x2="123.56737957606973" y2="-25.68153541162407" stroke-width="0.5" stroke="blue" />
<line x1="49.359956513919585" y1="-18.88631711515154" x2="32.50662201102094" y2="-41.5115474159642" stroke-width="0.5" stroke="blue" />
<line x1="55.92395108609073" y1="-18.88631711515154" x2="55.92394842850938" y2="-45.77107361332702" stroke-width="0.5" stroke="blue" />
<line x1="61.359956513919585" y1="-7.3677502391464005" x2="87.90648551609797" y2="-7.367769706028351" stroke-width="0.5" stroke="blue" />
<line x1="61.359956513919585" y1="-6.886317115151543" x2="69.50864849887444" y2="21.972988472124545" stroke-width="0.5" stroke="blue" />
<line x1="49.359956513919585" y1="-6.886317115151543" x2="31.61903255196433" y2="-5.858624606984506" stroke-width="0.5" stroke="blue" />
<line x1="147.56737957606973" y1="-37.68153541162407" x2="170.01224746074294" y2="-65.34953153774276" stroke-width="0.5" stroke="blue" />
<line x1="147.56737957606973" y1="-25.68153541162407" x2="168.3722212884947" y2="21.171591199041686" stroke-width="0.5" stroke="blue" />
<line x1="147.56737957606973" y1="-32.13434803514816" x2="174.27214913907568" y2="-32.134344152516945" stroke-width="0.5" stroke="blue" />
<line x1="147.56737957606973" y1="-25.68153541162407" x2="177.20981798554328" y2="-8.72928204114981" stroke-width="0.5" stroke="blue" />
<line x1="143.04957629399314" y1="-25.68153541162407" x2="143.04957093649566" y2="0.9630003845581196" stroke-width="0.5" stroke="blue" />
<line x1="182.01224746074294" y1="-89.34953153774276" x2="200.4896236761728" y2="-103.66375454557377" stroke-width="0.5" stroke="blue" />
<line x1="-41.036065021936615" y1="104.70082738592788" x2="-41.03605480719055" y2="131.43684213906303" stroke-width="0.5" stroke="blue" />
<line x1="-32.03175617515783" y1="104.70082738592788" x2="-5.37983176405554" y2="109.734186502259" stroke-width="0.5" stroke="blue" />
<line x1="-50.03175617515783" y1="86.70082738592788" x2="-72.24023296213178" y2="82.73850378325075" stroke-width="0.5" stroke="blue" />
<line x1="-50.03175617515783" y1="104.70082738592788" x2="-72.16676568708309" y2="161.70562958922685" stroke-width="0.5" stroke="blue" />
<line x1="-32.03175617515783" y1="87.1889186208445" x2="-0.8983970415438876" y2="87.1889104254999" stroke-width="0.5" stroke="blue" />
<line x1="-50.03175617515783" y1="104.70082738592788" x2="-76.68776344055871" y2="105.13069136223434" stroke-width="0.5" stroke="blue" />
<line x1="205.90492963132357" y1="-115.66375454557377" x2="205.90492762665397" y2="-142.43864583201022" stroke-width="0.5" stroke="blue" />
<line x1="212.4896236761728" y1="-108.43790068700642" x2="239.33419145158814" y2="-108.43791161006938" stroke-width="0.5" stroke="blue" />
<line x1="212.4896236761728" y1="-103.66375454557377" x2="213.92177886774954" y2="-83.39193557645953" stroke-width="0.5" stroke="blue" />
<line x1="200.4896236761728" y1="-115.66375454557377" x2="177.116202105948" y2="-120.65547265303789" stroke-width="0.5" stroke="blue" />
<line x1="212.4896236761728" y1="-115.66375454557377" x2="233.5958050939076" y2="-135.49406778510874" stroke-width="0.5" stroke="blue" />
<line x1="-38.65481554750499" y1="149.43684213906303" x2="-38.65481702324499" y2="171.73543575790322" stroke-width="0.5" stroke="blue" />
<line x1="12.62016823594446" y1="127.734186502259" x2="14.342224004966123" y2="149.96169217232824" stroke-width="0.5" stroke="blue" />
<line x1="20.506622011020934" y1="-65.5115474159642" x2="13.318415505955079" y2="-96.40686626517538" stroke-width="0.5" stroke="blue" />
<line x1="-72.16676568708309" y1="173.70562958922685" x2="-64.86986389341688" y2="201.77940827255821" stroke-width="0.5" stroke="blue" />
<line x1="-84.16676568708309" y1="173.70562958922685" x2="-110.81207832059273" y2="175.18205541487498" stroke-width="0.5" stroke="blue" />
<line x1="-84.16676568708309" y1="173.70562958922685" x2="-91.69614635819408" y2="204.96066707637294" stroke-width="0.5" stroke="blue" />
<line x1="-84.16676568708309" y1="161.70562958922685" x2="-110.81860609081663" y2="157.37428066759938" stroke-width="0.5" stroke="blue" />
<line x1="62.487943000680524" y1="-69.77107361332702" x2="79.99560629579851" y2="-94.11857523544262" stroke-width="0.5" stroke="blue" />
<line x1="50.487943000680524" y1="-69.77107361332702" x2="47.67891564782158" y2="-105.14675926687909" stroke-width="0.5" stroke="blue" />
<line x1="91.9033916102086" y1="-7.849202830023208" x2="91.90339905274062" y2="-34.48167845285359" stroke-width="0.5" stroke="blue" />
<line x1="-81.5908747942546" y1="-27.074162445917366" x2="-72.09264407293618" y2="-55.86224182811985" stroke-width="0.5" stroke="blue" />
<line x1="-93.5908747942546" y1="-27.074162445917366" x2="-139.23461234196517" y2="-55.367821872335085" stroke-width="0.5" stroke="blue" />
<line x1="-93.5908747942546" y1="-15.074162445917366" x2="-110.7845713397849" y2="11.39923432380527" stroke-width="0.5" stroke="blue" />
<line x1="-21.26926891677992" y1="183.73543575790322" x2="5.332895075698737" y2="188.7924456699698" stroke-width="0.5" stroke="blue" />
<line x1="92.41751159371205" y1="-58.48167845285359" x2="110.23884853865628" y2="-58.78480950620056" stroke-width="0.5" stroke="blue" />
<line x1="199.32023358180473" y1="-166.43864583201022" x2="181.5877926327703" y2="-178.43246382232516" stroke-width="0.5" stroke="blue" />
<line x1="211.32023358180473" y1="-166.43864583201022" x2="237.8619479648099" y2="-175.84553105954907" stroke-width="0.5" stroke="blue" />
<line x1="-64.86986389341688" y1="213.77940827255821" x2="-67.56116701527417" y2="234.64970588114025" stroke-width="0.5" stroke="blue" />
<line x1="-52.86986389341688" y1="207.7122008128643" x2="-35.00504202245153" y2="207.71218685826003" stroke-width="0.5" stroke="blue" />
<line x1="-52.86986389341688" y1="213.77940827255821" x2="-49.64136207511953" y2="240.4165964364027" stroke-width="0.5" stroke="blue" />
<line x1="180.3722212884947" y1="33.171591199041686" x2="186.5263207789413" y2="55.44258213197993" stroke-width="0.5" stroke="blue" />
<line x1="168.3722212884947" y1="33.171591199041686" x2="164.15113825599843" y2="60.42822108200701" stroke-width="0.5" stroke="blue" />
<line x1="180.3722212884947" y1="27.14819065764946" x2="198.23827246347184" y2="27.148201336126057" stroke-width="0.5" stroke="blue" />
<line x1="-72.09264407293618" y1="-79.86224182811985" x2="-89.63023310158007" y2="-95.65964288350308" stroke-width="0.5" stroke="blue" />
<line x1="-60.09264407293618" y1="-79.86224182811985" x2="-42.29008345889201" y2="-85.74183247322267" stroke-width="0.5" stroke="blue" />
<line x1="-157.23461234196517" y1="-55.367821872335085" x2="-190.94561114452256" y2="-47.06967790110881" stroke-width="0.5" stroke="blue" />
<line x1="-157.23461234196517" y1="-73.36782187233509" x2="-179.41006364995954" y2="-82.97040568243527" stroke-width="0.5" stroke="blue" />
<line x1="-149.67236710576506" y1="-73.36782187233509" x2="-149.67237032682587" y2="-104.51037780821768" stroke-width="0.5" stroke="blue" />
<line x1="-157.23461234196517" y1="-55.367821872335085" x2="-161.14851818304902" y2="-24.40444388151226" stroke-width="0.5" stroke="blue" />
<line x1="86.60482199581728" y1="33.97298847212454" x2="86.60481943710758" y2="51.838035411606384" stroke-width="0.5" stroke="blue" />
<line x1="93.50864849887444" y1="33.97298847212454" x2="109.57437632283178" y2="51.555887177874546" stroke-width="0.5" stroke="blue" />
<line x1="69.50864849887444" y1="33.97298847212454" x2="61.82683226802492" y2="51.74402645561822" stroke-width="0.5" stroke="blue" />
<line x1="86.71760722489299" y1="63.838035411606384" x2="86.71760760862344" y2="86.13813925425325" stroke-width="0.5" stroke="blue" />
<line x1="-79.56116701527417" y1="246.64970588114025" x2="-79.76117919360424" y2="268.90370904916057" stroke-width="0.5" stroke="blue" />
<line x1="-202.94561114452256" y1="-23.06967790110881" x2="-229.48056330417933" y2="-14.543324341744738" stroke-width="0.5" stroke="blue" />
<line x1="263.33419145158814" y1="-101.21205775150203" x2="273.64121203684994" y2="-83.47223874777643" stroke-width="0.5" stroke="blue" />
<line x1="263.33419145158814" y1="-113.21205775150203" x2="273.9353154885016" y2="-130.94158897588582" stroke-width="0.5" stroke="blue" />
<line x1="-58.0857436909487" y1="-24.64710124304112" x2="-94.37548025077005" y2="-55.338494406159185" stroke-width="0.5" stroke="blue" />
<line x1="-40.0857436909487" y1="-17.94701322671161" x2="-12.611058128878431" y2="-17.947037967114987" stroke-width="0.5" stroke="blue" />
<line x1="-41.18054032629749" y1="-24.64710124304112" x2="-41.180539631304676" y2="-46.8988321736521" stroke-width="0.5" stroke="blue" />
<line x1="237.92177886774954" y1="-71.39193557645953" x2="248.88044311236183" y2="-44.87959649977997" stroke-width="0.5" stroke="blue" />
<line x1="-93.35125662940881" y1="-107.65964288350308" x2="-93.3512572978921" y2="-129.9584597965977" stroke-width="0.5" stroke="blue" />
<line x1="-134.81207832059272" y1="187.18205541487498" x2="-161.47185645569886" y2="188.0589023151057" stroke-width="0.5" stroke="blue" />
<line x1="-191.41006364995954" y1="-86.0152566723315" x2="-218.1236611429736" y2="-86.01525779806522" stroke-width="0.5" stroke="blue" />
<line x1="-191.41006364995954" y1="-106.97040568243527" x2="-209.18991228145546" y2="-115.76528716985702" stroke-width="0.5" stroke="blue" />
<line x1="122.23884853865628" y1="-67.68388228639346" x2="140.08407242954522" y2="-67.68388090619713" stroke-width="0.5" stroke="blue" />
<line x1="91.99560629579851" y1="-118.11857523544262" x2="114.2585788272115" y2="-119.86290693573662" stroke-width="0.5" stroke="blue" />
<line x1="83.82530670429186" y1="-118.11857523544262" x2="83.82531974903942" y2="-149.25963588653772" stroke-width="0.5" stroke="blue" />
<line x1="-161.48065136912712" y1="-128.5103778082177" x2="-162.69970557136898" y2="-159.56185451519548" stroke-width="0.5" stroke="blue" />
<line x1="-253.48056330417933" y1="-14.543324341744738" x2="-254.29416201325387" y2="-36.76210867071549" stroke-width="0.5" stroke="blue" />
<line x1="181.5877926327703" y1="-190.43246382232516" x2="199.27110164226426" y2="-202.14678444155552" stroke-width="0.5" stroke="blue" />
<line x1="186.27214913907568" y1="-35.53232894111235" x2="208.53745348212905" y2="-35.53233170846191" stroke-width="0.5" stroke="blue" />
<line x1="121.57437632283178" y1="63.555887177874546" x2="122.18136710460476" y2="81.3814020342549" stroke-width="0.5" stroke="blue" />
<line x1="23.101602958456112" y1="87.37818425290074" x2="34.95311265050525" y2="105.08596801132111" stroke-width="0.5" stroke="blue" />
<line x1="-180.69970557136898" y1="-177.56185451519548" x2="-202.94898928931013" y2="-178.3818677995669" stroke-width="0.5" stroke="blue" />
<line x1="-79.07228082571761" y1="-147.9584597965977" x2="-79.05443723454522" y2="-170.212898744234" stroke-width="0.5" stroke="blue" />
<line x1="-115.69614635819408" y1="216.96066707637294" x2="-116.03039969177384" y2="234.7887552466116" stroke-width="0.5" stroke="blue" />
<line x1="-173.14851818304902" y1="-0.40444388151226107" x2="-174.01601186128582" y2="26.23418027929028" stroke-width="0.5" stroke="blue" />
<line x1="-112.37548025077005" y1="-73.33849440615919" x2="-119.51451734382042" y2="-104.36172011061291" stroke-width="0.5" stroke="blue" />
<line x1="-112.37548025077005" y1="-55.338494406159185" x2="-115.99115388154456" y2="-28.81897276683011" stroke-width="0.5" stroke="blue" />
<line x1="-173.47185645569886" y1="212.0589023151057" x2="-195.72294643839737" y2="212.50923297492594" stroke-width="0.5" stroke="blue" />
<line x1="-214.94898928931013" y1="-202.3818677995669" x2="-215.3337196444925" y2="-229.0442233873992" stroke-width="0.5" stroke="blue" />
<line x1="-134.81860609081662" y1="145.37428066759938" x2="-146.88393542168615" y2="127.69051127612691" stroke-width="0.5" stroke="blue" />
<line x1="-6.451569101710196" y1="-35.24694995078535" x2="-6.4515560078092475" y2="-61.97996561370128" stroke-width="0.5" stroke="blue" />
<line x1="-79.98057485544476" y1="46.73173498848093" x2="-106.67385258113235" y2="46.73173655641209" stroke-width="0.5" stroke="blue" />
<line x1="-124.67385258113235" y1="63.65741737687445" x2="-146.927276661488" y2="64.8208481263707" stroke-width="0.5" stroke="blue" />
<line x1="-120.84717474444209" y1="63.65741737687445" x2="-120.8471729702886" y2="94.67921530551845" stroke-width="0.5" stroke="blue" />
<line x1="-242.1236611429736" y1="-88.98084866142287" x2="-243.61928709804414" y2="-111.22422327765149" stroke-width="0.5" stroke="blue" />
</svg>