<svg width="100%" height="100%" viewBox="-189.778 -168.883 317.627 304.391"  xmlns="http://www.w3.org/2000/svg" xmlns:xlink="http://www.w3.org/1999/xlink" version="1.1">
<rect x="-94.1483" y="6.45351" width="40" height="20" fill="yellow" stroke="black" stroke-width="0.5"><title>room 0</title></rect><rect x="-63.3983" y="9.20351" width="2.5" height="2.5" fill="red" stroke="black" stroke-width="0.5"></rect><rect x="-87.3983" y="21.2035" width="2.5" height="2.5" fill="red" stroke="black" stroke-width="0.5"></rect><rect x="-76.4396" y="21.2035" width="2.5" height="2.5" fill="red" stroke="black" stroke-width="0.5"></rect>
<rect x="-62.6111" y="-32.6618" width="30" height="30" fill="yellow" stroke="black" stroke-width="0.5"><title>room 1</title></rect><rect x="-57.8611" y="-9.91177" width="2.5" height="2.5" fill="red" stroke="black" stroke-width="0.5"></rect><rect x="-57.8611" y="-10.4095" width="2.5" height="2.5" fill="red" stroke="black" stroke-width="0.5"></rect><rect x="-39.8611" y="-27.9118" width="2.5" height="2.5" fill="red" stroke="black" stroke-width="0.5"></rect><rect x="-57.8611" y="-27.9118" width="2.5" height="2.5" fill="red" stroke="black" stroke-width="0.5"></rect><rect x="-39.8611" y="-9.91177" width="2.5" height="2.5" fill="red" stroke="black" stroke-width="0.5"></rect><rect x="-57.8611" y="-24.0792" width="2.5" height="2.5" fill="red" stroke="black" stroke-width="0.5"></rect><rect x="-50.2736" y="-27.9118" width="2.5" height="2.5" fill="red" stroke="black" stroke-width="0.5"></rect><rect x="-44.8673" y="-9.91177" width="2.5" height="2.5" fill="red" stroke="black" stroke-width="0.5"></rect>
<rect x="-92.0821" y="-13.3062" width="20" height="20" fill="yellow" stroke="black" stroke-width="0.5"><title>room 2</title></rect><rect x="-77.3321" y="-10.4095" width="2.5" height="2.5" fill="red" stroke="black" stroke-width="0.5"></rect><rect x="-89.3321" y="1.42158" width="2.5" height="2.5" fill="red" stroke="black" stroke-width="0.5"></rect><rect x="-89.3321" y="-10.5562" width="2.5" height="2.5" fill="red" stroke="black" stroke-width="0.5"></rect>
<rect x="-37.7461" y="-51.4798" width="40" height="20" fill="yellow" stroke="black" stroke-width="0.5"><title>room 3</title></rect><rect x="-30.9961" y="-36.7298" width="2.5" height="2.5" fill="red" stroke="black" stroke-width="0.5"></rect><rect x="-6.99613" y="-48.7298" width="2.5" height="2.5" fill="red" stroke="black" stroke-width="0.5"></rect>
<rect x="-10.522" y="-71.168" width="40" height="20" fill="yellow" stroke="black" stroke-width="0.5"><title>room 4</title></rect><rect x="-3.77195" y="-56.418" width="2.5" height="2.5" fill="red" stroke="black" stroke-width="0.5"></rect><rect x="20.228" y="-68.418" width="2.5" height="2.5" fill="red" stroke="black" stroke-width="0.5"></rect>
<rect x="-87.2253" y="-72.5922" width="30" height="30" fill="yellow" stroke="black" stroke-width="0.5"><title>room 5</title></rect><rect x="-64.4753" y="-49.8422" width="2.5" height="2.5" fill="red" stroke="black" stroke-width="0.5"></rect><rect x="-82.4753" y="-67.8422" width="2.5" height="2.5" fill="red" stroke="black" stroke-width="0.5"></rect>
<rect x="-24.9134" y="2.33512" width="20" height="20" fill="yellow" stroke="black" stroke-width="0.5"><title>room 6</title></rect><rect x="-22.1634" y="5.08512" width="2.5" height="2.5" fill="red" stroke="black" stroke-width="0.5"></rect><rect x="-10.1634" y="5.08512" width="2.5" height="2.5" fill="red" stroke="black" stroke-width="0.5"></rect><rect x="-10.1634" y="17.0851" width="2.5" height="2.5" fill="red" stroke="black" stroke-width="0.5"></rect><rect x="-22.1634" y="17.0851" width="2.5" height="2.5" fill="red" stroke="black" stroke-width="0.5"></rect>
<rect x="-5.21633" y="-9.85464" width="20" height="20" fill="yellow" stroke="black" stroke-width="0.5"><title>room 7</title></rect><rect x="-2.46633" y="4.89536" width="2.5" height="2.5" fill="red" stroke="black" stroke-width="0.5"></rect><rect x="9.53367" y="-0.999327" width="2.5" height="2.5" fill="red" stroke="black" stroke-width="0.5"></rect>
<rect x="-120.139" y="26.2157" width="40" height="20" fill="yellow" stroke="black" stroke-width="0.5"><title>room 8</title></rect><rect x="-89.3893" y="28.9657" width="2.5" height="2.5" fill="red" stroke="black" stroke-width="0.5"></rect><rect x="-113.389" y="40.9657" width="2.5" height="2.5" fill="red" stroke="black" stroke-width="0.5"></rect>
<rect x="-106.488" y="-103.887" width="20" height="40" fill="yellow" stroke="black" stroke-width="0.5"><title>room 9</title></rect><rect x="-91.7376" y="-73.1367" width="2.5" height="2.5" fill="red" stroke="black" stroke-width="0.5"></rect><rect x="-103.738" y="-97.1367" width="2.5" height="2.5" fill="red" stroke="black" stroke-width="0.5"></rect><rect x="-103.738" y="-83.563" width="2.5" height="2.5" fill="red" stroke="black" stroke-width="0.5"></rect>
<rect x="-145.65" y="45.8783" width="40" height="20" fill="yellow" stroke="black" stroke-width="0.5"><title>room 10</title></rect><rect x="-114.9" y="48.6283" width="2.5" height="2.5" fill="red" stroke="black" stroke-width="0.5"></rect><rect x="-138.9" y="60.6283" width="2.5" height="2.5" fill="red" stroke="black" stroke-width="0.5"></rect><rect x="-138.9" y="48.6283" width="2.5" height="2.5" fill="red" stroke="black" stroke-width="0.5"></rect>
<rect x="20.0078" y="-90.7145" width="40" height="20" fill="yellow" stroke="black" stroke-width="0.5"><title>room 11</title></rect><rect x="26.7578" y="-75.9645" width="2.5" height="2.5" fill="red" stroke="black" stroke-width="0.5"></rect><rect x="50.7578" y="-75.9645" width="2.5" height="2.5" fill="red" stroke="black" stroke-width="0.5"></rect><rect x="40.5694" y="-87.9645" width="2.5" height="2.5" fill="red" stroke="black" stroke-width="0.5"></rect><rect x="41.3754" y="-75.9645" width="2.5" height="2.5" fill="red" stroke="black" stroke-width="0.5"></rect><rect x="50.7578" y="-87.9645" width="2.5" height="2.5" fill="red" stroke="black" stroke-width="0.5"></rect><rect x="26.7578" y="-87.9645" width="2.5" height="2.5" fill="red" stroke="black" stroke-width="0.5"></rect>
<rect x="-14.0124" y="21.9563" width="40" height="20" fill="yellow" stroke="black" stroke-width="0.5"><title>room 12</title></rect><rect x="-7.26242" y="24.7063" width="2.5" height="2.5" fill="red" stroke="black" stroke-width="0.5"></rect><rect x="16.7376" y="36.7063" width="2.5" height="2.5" fill="red" stroke="black" stroke-width="0.5"></rect>
<rect x="-53.8135" y="26.6417" width="40" height="20" fill="yellow" stroke="black" stroke-width="0.5"><title>room 13</title></rect><rect x="-23.0635" y="29.3917" width="2.5" height="2.5" fill="red" stroke="black" stroke-width="0.5"></rect><rect x="-47.0635" y="41.3917" width="2.5" height="2.5" fill="red" stroke="black" stroke-width="0.5"></rect><rect x="-23.0635" y="41.3917" width="2.5" height="2.5" fill="red" stroke="black" stroke-width="0.5"></rect><rect x="-32.131" y="41.3917" width="2.5" height="2.5" fill="red" stroke="black" stroke-width="0.5"></rect>
<rect x="14.2704" y="41.4415" width="30" height="30" fill="yellow" stroke="black" stroke-width="0.5"><title>room 14</title></rect><rect x="19.0204" y="46.1915" width="2.5" height="2.5" fill="red" stroke="black" stroke-width="0.5"></rect><rect x="37.0204" y="64.1915" width="2.5" height="2.5" fill="red" stroke="black" stroke-width="0.5"></rect><rect x="37.0204" y="53.35" width="2.5" height="2.5" fill="red" stroke="black" stroke-width="0.5"></rect>
<rect x="-80.2309" y="26.2635" width="20" height="20" fill="yellow" stroke="black" stroke-width="0.5"><title>room 15</title></rect><rect x="-76.4396" y="29.0135" width="2.5" height="2.5" fill="red" stroke="black" stroke-width="0.5"></rect>
<rect x="-92.1351" y="-42.9967" width="30" height="30" fill="yellow" stroke="black" stroke-width="0.5"><title>room 16</title></rect><rect x="-69.3851" y="-24.0792" width="2.5" height="2.5" fill="red" stroke="black" stroke-width="0.5"></rect><rect x="-87.3851" y="-38.2467" width="2.5" height="2.5" fill="red" stroke="black" stroke-width="0.5"></rect>
<rect x="-123.714" y="-3.57233" width="30" height="30" fill="yellow" stroke="black" stroke-width="0.5"><title>room 17</title></rect><rect x="-100.964" y="1.42158" width="2.5" height="2.5" fill="red" stroke="black" stroke-width="0.5"></rect><rect x="-118.964" y="1.17767" width="2.5" height="2.5" fill="red" stroke="black" stroke-width="0.5"></rect>
<rect x="-162.396" y="65.3932" width="30" height="30" fill="yellow" stroke="black" stroke-width="0.5"><title>room 18</title></rect><rect x="-139.646" y="70.1432" width="2.5" height="2.5" fill="red" stroke="black" stroke-width="0.5"></rect>
<rect x="49.0014" y="-71.2054" width="40" height="20" fill="yellow" stroke="black" stroke-width="0.5"><title>room 19</title></rect><rect x="55.7514" y="-68.4554" width="2.5" height="2.5" fill="red" stroke="black" stroke-width="0.5"></rect><rect x="79.7514" y="-68.4554" width="2.5" height="2.5" fill="red" stroke="black" stroke-width="0.5"></rect>
<rect x="-57.4362" y="-72.2164" width="20" height="40" fill="yellow" stroke="black" stroke-width="0.5"><title>room 20</title></rect><rect x="-50.2736" y="-41.4664" width="2.5" height="2.5" fill="red" stroke="black" stroke-width="0.5"></rect>
<rect x="27.6309" y="-110.543" width="20" height="20" fill="yellow" stroke="black" stroke-width="0.5"><title>room 21</title></rect><rect x="40.5694" y="-95.7934" width="2.5" height="2.5" fill="red" stroke="black" stroke-width="0.5"></rect><rect x="34.8618" y="-107.793" width="2.5" height="2.5" fill="red" stroke="black" stroke-width="0.5"></rect>
<rect x="-126.043" y="-132.433" width="20" height="40" fill="yellow" stroke="black" stroke-width="0.5"><title>room 22</title></rect><rect x="-111.293" y="-101.683" width="2.5" height="2.5" fill="red" stroke="black" stroke-width="0.5"></rect><rect x="-123.293" y="-125.683" width="2.5" height="2.5" fill="red" stroke="black" stroke-width="0.5"></rect>
<rect x="-73.7623" y="46.0712" width="30" height="30" fill="yellow" stroke="black" stroke-width="0.5"><title>room 23</title></rect><rect x="-51.0123" y="50.8212" width="2.5" height="2.5" fill="red" stroke="black" stroke-width="0.5"></rect><rect x="-69.0123" y="68.8212" width="2.5" height="2.5" fill="red" stroke="black" stroke-width="0.5"></rect><rect x="-51.0123" y="68.8212" width="2.5" height="2.5" fill="red" stroke="black" stroke-width="0.5"></rect><rect x="-60.853" y="68.8212" width="2.5" height="2.5" fill="red" stroke="black" stroke-width="0.5"></rect>
<rect x="-54.6236" y="-3.11437" width="30" height="30" fill="yellow" stroke="black" stroke-width="0.5"><title>room 24</title></rect><rect x="-44.8674" y="1.63563" width="2.5" height="2.5" fill="red" stroke="black" stroke-width="0.5"></rect>
<rect x="-93.3156" y="62.6941" width="20" height="40" fill="yellow" stroke="black" stroke-width="0.5"><title>room 25</title></rect><rect x="-78.5656" y="69.4441" width="2.5" height="2.5" fill="red" stroke="black" stroke-width="0.5"></rect>
<rect x="-143.25" y="-29.8447" width="20" height="40" fill="yellow" stroke="black" stroke-width="0.5"><title>room 26</title></rect><rect x="-128.5" y="0.90529" width="2.5" height="2.5" fill="red" stroke="black" stroke-width="0.5"></rect>
<rect x="24.5928" y="-150.192" width="20" height="40" fill="yellow" stroke="black" stroke-width="0.5"><title>room 27</title></rect><rect x="34.8618" y="-119.442" width="2.5" height="2.5" fill="red" stroke="black" stroke-width="0.5"></rect>
<rect x="-53.5911" y="75.3062" width="30" height="30" fill="yellow" stroke="black" stroke-width="0.5"><title>room 28</title></rect><rect x="-48.8411" y="80.0562" width="2.5" height="2.5" fill="red" stroke="black" stroke-width="0.5"></rect>
<rect x="-24.1354" y="46.0063" width="30" height="30" fill="yellow" stroke="black" stroke-width="0.5"><title>room 29</title></rect><rect x="-19.3854" y="50.7563" width="2.5" height="2.5" fill="red" stroke="black" stroke-width="0.5"></rect>
<rect x="29.2429" y="-70.8931" width="20" height="20" fill="yellow" stroke="black" stroke-width="0.5"><title>room 30</title></rect><rect x="41.3754" y="-68.1431" width="2.5" height="2.5" fill="red" stroke="black" stroke-width="0.5"></rect>
<rect x="-43.9485" y="46.469" width="20" height="20" fill="yellow" stroke="black" stroke-width="0.5"><title>room 31</title></rect><rect x="-32.131" y="49.219" width="2.5" height="2.5" fill="red" stroke="black" stroke-width="0.5"></rect>
<rect x="47.5657" y="-120.215" width="30" height="30" fill="yellow" stroke="black" stroke-width="0.5"><title>room 32</title></rect><rect x="52.3157" y="-97.4652" width="2.5" height="2.5" fill="red" stroke="black" stroke-width="0.5"></rect><rect x="55.805" y="-115.465" width="2.5" height="2.5" fill="red" stroke="black" stroke-width="0.5"></rect><rect x="70.3157" y="-115.465" width="2.5" height="2.5" fill="red" stroke="black" stroke-width="0.5"></rect>
<rect x="43.7385" y="59.6342" width="20" height="40" fill="yellow" stroke="black" stroke-width="0.5"><title>room 33</title></rect><rect x="46.4885" y="66.3842" width="2.5" height="2.5" fill="red" stroke="black" stroke-width="0.5"></rect><rect x="58.4885" y="80.0221" width="2.5" height="2.5" fill="red" stroke="black" stroke-width="0.5"></rect><rect x="58.4885" y="90.3842" width="2.5" height="2.5" fill="red" stroke="black" stroke-width="0.5"></rect>
<rect x="-73.4437" y="75.6055" width="20" height="40" fill="yellow" stroke="black" stroke-width="0.5"><title>room 34</title></rect><rect x="-60.853" y="82.3555" width="2.5" height="2.5" fill="red" stroke="black" stroke-width="0.5"></rect>
<rect x="44.5444" y="-139.925" width="20" height="20" fill="yellow" stroke="black" stroke-width="0.5"><title>room 35</title></rect><rect x="55.805" y="-125.175" width="2.5" height="2.5" fill="red" stroke="black" stroke-width="0.5"></rect>
<rect x="-121.796" y="-33.3228" width="30" height="30" fill="yellow" stroke="black" stroke-width="0.5"><title>room 36</title></rect><rect x="-99.0459" y="-10.5728" width="2.5" height="2.5" fill="red" stroke="black" stroke-width="0.5"></rect>
<rect x="-145.71" y="-141.016" width="20" height="20" fill="yellow" stroke="black" stroke-width="0.5"><title>room 37</title></rect><rect x="-130.96" y="-126.266" width="2.5" height="2.5" fill="red" stroke="black" stroke-width="0.5"></rect>
<rect x="43.9915" y="39.7586" width="20" height="20" fill="yellow" stroke="black" stroke-width="0.5"><title>room 38</title></rect><rect x="46.7415" y="53.3501" width="2.5" height="2.5" fill="red" stroke="black" stroke-width="0.5"></rect>
<rect x="64.4292" y="-139.727" width="40" height="20" fill="yellow" stroke="black" stroke-width="0.5"><title>room 39</title></rect><rect x="71.1792" y="-124.977" width="2.5" height="2.5" fill="red" stroke="black" stroke-width="0.5"></rect>
<rect x="63.3913" y="66.91" width="40" height="20" fill="yellow" stroke="black" stroke-width="0.5"><title>room 40</title></rect><rect x="70.1413" y="80.0221" width="2.5" height="2.5" fill="red" stroke="black" stroke-width="0.5"></rect>
<rect x="14.4515" y="-9.64402" width="40" height="20" fill="yellow" stroke="black" stroke-width="0.5"><title>room 41</title></rect><rect x="21.2015" y="-0.999334" width="2.5" height="2.5" fill="red" stroke="black" stroke-width="0.5"></rect><rect x="45.2015" y="5.10598" width="2.5" height="2.5" fill="red" stroke="black" stroke-width="0.5"></rect>
<rect x="0.699269" y="-119.69" width="20" height="40" fill="yellow" stroke="black" stroke-width="0.5"><title>room 42</title></rect><rect x="15.4493" y="-88.9395" width="2.5" height="2.5" fill="red" stroke="black" stroke-width="0.5"></rect>
<rect x="63.2361" y="86.8169" width="30" height="30" fill="yellow" stroke="black" stroke-width="0.5"><title>room 43</title></rect><rect x="67.9861" y="91.5669" width="2.5" height="2.5" fill="red" stroke="black" stroke-width="0.5"></rect>
<rect x="-136.225" y="-92.7392" width="30" height="30" fill="yellow" stroke="black" stroke-width="0.5"><title>room 44</title></rect><rect x="-113.475" y="-83.5629" width="2.5" height="2.5" fill="red" stroke="black" stroke-width="0.5"></rect>
<rect x="-121.372" y="-63.0706" width="30" height="30" fill="yellow" stroke="black" stroke-width="0.5"><title>room 45</title></rect><rect x="-98.6224" y="-40.3206" width="2.5" height="2.5" fill="red" stroke="black" stroke-width="0.5"></rect>
<rect x="41.8556" y="9.83928" width="30" height="30" fill="yellow" stroke="black" stroke-width="0.5"><title>room 46</title></rect><rect x="46.6056" y="14.5893" width="2.5" height="2.5" fill="red" stroke="black" stroke-width="0.5"></rect><rect x="64.6056" y="32.5893" width="2.5" height="2.5" fill="red" stroke="black" stroke-width="0.5"></rect>
<rect x="-170.274" y="26.2159" width="40" height="20" fill="yellow" stroke="black" stroke-width="0.5"><title>room 47</title></rect><rect x="-139.524" y="40.9659" width="2.5" height="2.5" fill="red" stroke="black" stroke-width="0.5"></rect>
<rect x="88.3455" y="-99.8693" width="20" height="40" fill="yellow" stroke="black" stroke-width="0.5"><title>room 48</title></rect><rect x="91.0955" y="-69.1193" width="2.5" height="2.5" fill="red" stroke="black" stroke-width="0.5"></rect>
<rect x="71.3852" y="26.2705" width="20" height="40" fill="yellow" stroke="black" stroke-width="0.5"><title>room 49</title></rect><rect x="74.1352" y="33.0205" width="2.5" height="2.5" fill="red" stroke="black" stroke-width="0.5"></rect>
<line x1="-62.14834564210145" y1="10.453505904595023" x2="-56.611080821864725" y2="-8.661769587022903" stroke-width="0.5" stroke="blue" />
<line x1="-86.14834564210145" y1="22.453505904595023" x2="-88.13929533358456" y2="30.215665106097298" stroke-width="0.5" stroke="blue" />
<line x1="-75.18961123264587" y1="22.453505904595023" x2="-75.18961713730879" y2="30.263458932137645" stroke-width="0.5" stroke="blue" />
<line x1="-56.611080821864725" y1="-9.159532115625588" x2="-76.08210712805132" y2="-9.159538028548328" stroke-width="0.5" stroke="blue" />
<line x1="-38.611080821864725" y1="-26.661769587022903" x2="-29.746126270724858" y2="-35.47980467789765" stroke-width="0.5" stroke="blue" />
<line x1="-56.611080821864725" y1="-26.661769587022903" x2="-63.22533529217796" y2="-48.59220198254709" stroke-width="0.5" stroke="blue" />
<line x1="-38.611080821864725" y1="-8.661769587022903" x2="-20.913370349017313" y2="6.335117577888628" stroke-width="0.5" stroke="blue" />
<line x1="-56.611080821864725" y1="-22.829239667758056" x2="-68.13513662207312" y2="-22.82924056084776" stroke-width="0.5" stroke="blue" />
<line x1="-49.02364825273956" y1="-26.661769587022903" x2="-49.02364218399621" y2="-40.21637124855125" stroke-width="0.5" stroke="blue" />
<line x1="-43.61734145112079" y1="-8.661769587022903" x2="-43.61735490330821" y2="2.8856266997413673" stroke-width="0.5" stroke="blue" />
<line x1="-88.08210712805132" y1="2.6715797282935214" x2="-99.71416961495237" y2="2.6715783784684106" stroke-width="0.5" stroke="blue" />
<line x1="-88.08210712805132" y1="-9.30623260209616" x2="-97.7959472281374" y2="-9.322769406031103" stroke-width="0.5" stroke="blue" />
<line x1="-5.746126270724858" y1="-47.47980467789765" x2="-2.521954991865533" y2="-55.167999255004354" stroke-width="0.5" stroke="blue" />
<line x1="21.478045008134465" y1="-67.16799925500436" x2="28.007816239324256" y2="-74.71454195803646" stroke-width="0.5" stroke="blue" />
<line x1="-81.22533529217796" y1="-66.5922019825471" x2="-90.48764658906599" y2="-71.88673663528246" stroke-width="0.5" stroke="blue" />
<line x1="-8.913370349017312" y1="6.335117577888628" x2="-1.2163283120350856" y2="6.145357601237348" stroke-width="0.5" stroke="blue" />
<line x1="-8.913370349017312" y1="18.335117577888628" x2="-6.012418591113705" y2="25.956336694981484" stroke-width="0.5" stroke="blue" />
<line x1="-20.913370349017313" y1="18.335117577888628" x2="-21.813476024654484" y2="30.641735013354072" stroke-width="0.5" stroke="blue" />
<line x1="10.783671687964915" y1="0.2506727839443779" x2="22.45151620575688" y2="0.25066633355784224" stroke-width="0.5" stroke="blue" />
<line x1="-112.13929533358456" y1="42.2156651060973" x2="-113.65015362634286" y2="49.87830761009241" stroke-width="0.5" stroke="blue" />
<line x1="-102.48764658906599" y1="-95.88673663528246" x2="-110.04282119045803" y2="-100.43270450711503" stroke-width="0.5" stroke="blue" />
<line x1="-102.48764658906599" y1="-82.31295277862856" x2="-112.22495717560068" y2="-82.31293900861874" stroke-width="0.5" stroke="blue" />
<line x1="-137.65015362634284" y1="61.87830761009241" x2="-138.39587128680688" y2="71.39324180354039" stroke-width="0.5" stroke="blue" />
<line x1="-137.65015362634284" y1="49.87830761009241" x2="-138.27446541770635" y2="42.21588267962249" stroke-width="0.5" stroke="blue" />
<line x1="52.00781623932426" y1="-74.71454195803646" x2="57.001418558044875" y2="-67.2054056997965" stroke-width="0.5" stroke="blue" />
<line x1="41.819367385598845" y1="-86.71454195803646" x2="41.81936418768391" y2="-94.54338164897213" stroke-width="0.5" stroke="blue" />
<line x1="42.62537048262288" y1="-74.71454195803646" x2="42.625375819725456" y2="-66.89308152232812" stroke-width="0.5" stroke="blue" />
<line x1="52.00781623932426" y1="-86.71454195803646" x2="53.56565132917013" y2="-96.21522255772085" stroke-width="0.5" stroke="blue" />
<line x1="28.007816239324256" y1="-86.71454195803646" x2="16.69926880394973" y2="-87.68953269682706" stroke-width="0.5" stroke="blue" />
<line x1="17.987581408886296" y1="37.95633669498149" x2="20.270375278944705" y2="47.44147954267094" stroke-width="0.5" stroke="blue" />
<line x1="-45.813476024654484" y1="42.64173501335407" x2="-49.76225385110159" y2="52.071200875898256" stroke-width="0.5" stroke="blue" />
<line x1="-21.813476024654484" y1="42.64173501335407" x2="-18.135440041420196" y2="52.006288223892945" stroke-width="0.5" stroke="blue" />
<line x1="-30.88100473583065" y1="42.64173501335407" x2="-30.88099759073125" y2="50.468977000583145" stroke-width="0.5" stroke="blue" />
<line x1="38.270375278944705" y1="65.44147954267095" x2="47.738517344621414" y2="67.63417730793999" stroke-width="0.5" stroke="blue" />
<line x1="38.270375278944705" y1="54.60003461968599" x2="47.99153634118882" y2="54.60005153935363" stroke-width="0.5" stroke="blue" />
<line x1="-86.13513662207312" y1="-36.996710641582915" x2="-97.3723854505279" y2="-39.07062013217838" stroke-width="0.5" stroke="blue" />
<line x1="-117.71416961495237" y1="2.42767467245117" x2="-127.24964385847755" y2="2.1552898361215007" stroke-width="0.5" stroke="blue" />
<line x1="81.00141855804488" y1="-67.2054056997965" x2="92.34551690466635" y2="-67.86927245124201" stroke-width="0.5" stroke="blue" />
<line x1="36.11184288847834" y1="-106.54338164897213" x2="36.11184099364622" y2="-118.19243541345679" stroke-width="0.5" stroke="blue" />
<line x1="-122.04282119045803" y1="-124.43270450711503" x2="-129.71043951911452" y2="-125.01642280656986" stroke-width="0.5" stroke="blue" />
<line x1="-67.76225385110159" y1="70.07120087589826" x2="-77.3156394005124" y2="70.69414948165264" stroke-width="0.5" stroke="blue" />
<line x1="-49.76225385110159" y1="70.07120087589826" x2="-47.59105709546792" y2="81.30622048130839" stroke-width="0.5" stroke="blue" />
<line x1="-59.603001212565786" y1="70.07120087589826" x2="-59.60299522614465" y2="83.60548612167698" stroke-width="0.5" stroke="blue" />
<line x1="57.055024544503375" y1="-114.21522255772085" x2="57.05503047311954" y2="-123.92465186823861" stroke-width="0.5" stroke="blue" />
<line x1="71.56565132917012" y1="-114.21522255772085" x2="72.42915954514675" y2="-123.7267623068793" stroke-width="0.5" stroke="blue" />
<line x1="59.738517344621414" y1="81.27207536585475" x2="71.39132976133375" y2="81.27207251070959" stroke-width="0.5" stroke="blue" />
<line x1="59.738517344621414" y1="91.63417730793999" x2="69.23605466833065" y2="92.81691756179643" stroke-width="0.5" stroke="blue" />
<line x1="46.45151620575688" y1="6.3559815162648725" x2="47.85562972434371" y2="15.839276682914484" stroke-width="0.5" stroke="blue" />
<line x1="65.85562972434371" y1="33.83927668291449" x2="75.38519935438761" y2="34.270452831791346" stroke-width="0.5" stroke="blue" />
</svg>