<svg width="100%" height="100%" viewBox="-120.682 -152.121 291.168 256.313"  xmlns="http://www.w3.org/2000/svg" xmlns:xlink="http://www.w3.org/1999/xlink" version="1.1">
<rect x="34.9704" y="8.61424" width="40" height="20" fill="yellow" stroke="black" stroke-width="0.5"><title>room 0</title></rect><rect x="41.7204" y="11.3642" width="2.5" height="2.5" fill="red" stroke="black" stroke-width="0.5"></rect><rect x="61.3865" y="11.3642" width="2.5" height="2.5" fill="red" stroke="black" stroke-width="0.5"></rect><rect x="65.7204" y="23.3642" width="2.5" height="2.5" fill="red" stroke="black" stroke-width="0.5"></rect><rect x="48.7597" y="23.3642" width="2.5" height="2.5" fill="red" stroke="black" stroke-width="0.5"></rect><rect x="65.7204" y="11.3642" width="2.5" height="2.5" fill="red" stroke="black" stroke-width="0.5"></rect>
<rect x="5.40482" y="-12.4453" width="30" height="30" fill="yellow" stroke="black" stroke-width="0.5"><title>room 1</title></rect><rect x="28.1548" y="10.3047" width="2.5" height="2.5" fill="red" stroke="black" stroke-width="0.5"></rect><rect x="28.1548" y="-7.69525" width="2.5" height="2.5" fill="red" stroke="black" stroke-width="0.5"></rect><rect x="10.1548" y="10.3047" width="2.5" height="2.5" fill="red" stroke="black" stroke-width="0.5"></rect><rect x="15.0246" y="-7.69525" width="2.5" height="2.5" fill="red" stroke="black" stroke-width="0.5"></rect><rect x="18.1332" y="10.3047" width="2.5" height="2.5" fill="red" stroke="black" stroke-width="0.5"></rect><rect x="10.1548" y="-2.92374" width="2.5" height="2.5" fill="red" stroke="black" stroke-width="0.5"></rect>
<rect x="54.3026" y="-11.1848" width="20" height="20" fill="yellow" stroke="black" stroke-width="0.5"><title>room 2</title></rect><rect x="61.3865" y="3.56516" width="2.5" height="2.5" fill="red" stroke="black" stroke-width="0.5"></rect><rect x="69.0526" y="-8.43484" width="2.5" height="2.5" fill="red" stroke="black" stroke-width="0.5"></rect>
<rect x="24.9378" y="-31.8449" width="40" height="20" fill="yellow" stroke="black" stroke-width="0.5"><title>room 3</title></rect><rect x="31.6878" y="-17.0949" width="2.5" height="2.5" fill="red" stroke="black" stroke-width="0.5"></rect><rect x="55.6878" y="-29.0949" width="2.5" height="2.5" fill="red" stroke="black" stroke-width="0.5"></rect><rect x="39.8222" y="-29.0949" width="2.5" height="2.5" fill="red" stroke="black" stroke-width="0.5"></rect>
<rect x="-34.0612" y="9.05201" width="40" height="20" fill="yellow" stroke="black" stroke-width="0.5"><title>room 4</title></rect><rect x="-3.31121" y="11.802" width="2.5" height="2.5" fill="red" stroke="black" stroke-width="0.5"></rect><rect x="-27.3112" y="11.802" width="2.5" height="2.5" fill="red" stroke="black" stroke-width="0.5"></rect><rect x="-9.19732" y="23.802" width="2.5" height="2.5" fill="red" stroke="black" stroke-width="0.5"></rect><rect x="-27.3112" y="23.802" width="2.5" height="2.5" fill="red" stroke="black" stroke-width="0.5"></rect>
<rect x="54.7205" y="-61.2162" width="30" height="30" fill="yellow" stroke="black" stroke-width="0.5"><title>room 5</title></rect><rect x="59.4705" y="-38.4662" width="2.5" height="2.5" fill="red" stroke="black" stroke-width="0.5"></rect><rect x="77.4705" y="-56.4662" width="2.5" height="2.5" fill="red" stroke="black" stroke-width="0.5"></rect>
<rect x="-44.19" y="-10.6381" width="20" height="20" fill="yellow" stroke="black" stroke-width="0.5"><title>room 6</title></rect><rect x="-29.44" y="4.11188" width="2.5" height="2.5" fill="red" stroke="black" stroke-width="0.5"></rect><rect x="-41.44" y="4.11188" width="2.5" height="2.5" fill="red" stroke="black" stroke-width="0.5"></rect>
<rect x="-14.6116" y="28.8538" width="20" height="20" fill="yellow" stroke="black" stroke-width="0.5"><title>room 7</title></rect><rect x="-9.19732" y="31.6038" width="2.5" height="2.5" fill="red" stroke="black" stroke-width="0.5"></rect><rect x="-9.11417" y="43.6038" width="2.5" height="2.5" fill="red" stroke="black" stroke-width="0.5"></rect>
<rect x="64.5889" y="28.1066" width="40" height="20" fill="yellow" stroke="black" stroke-width="0.5"><title>room 8</title></rect><rect x="71.3389" y="30.8566" width="2.5" height="2.5" fill="red" stroke="black" stroke-width="0.5"></rect>
<rect x="5.14431" y="-51.9812" width="20" height="40" fill="yellow" stroke="black" stroke-width="0.5"><title>room 9</title></rect><rect x="15.0246" y="-21.2312" width="2.5" height="2.5" fill="red" stroke="black" stroke-width="0.5"></rect><rect x="7.89431" y="-45.2312" width="2.5" height="2.5" fill="red" stroke="black" stroke-width="0.5"></rect>
<rect x="25.049" y="28.4251" width="40" height="20" fill="yellow" stroke="black" stroke-width="0.5"><title>room 10</title></rect><rect x="48.7597" y="31.1751" width="2.5" height="2.5" fill="red" stroke="black" stroke-width="0.5"></rect>
<rect x="74.0623" y="-3.89824" width="40" height="20" fill="yellow" stroke="black" stroke-width="0.5"><title>room 11</title></rect><rect x="80.8123" y="10.8518" width="2.5" height="2.5" fill="red" stroke="black" stroke-width="0.5"></rect><rect x="104.812" y="10.8518" width="2.5" height="2.5" fill="red" stroke="black" stroke-width="0.5"></rect><rect x="104.812" y="-1.14824" width="2.5" height="2.5" fill="red" stroke="black" stroke-width="0.5"></rect>
<rect x="-74.1191" y="8.92271" width="40" height="20" fill="yellow" stroke="black" stroke-width="0.5"><title>room 12</title></rect><rect x="-43.3691" y="11.6727" width="2.5" height="2.5" fill="red" stroke="black" stroke-width="0.5"></rect><rect x="-67.3691" y="23.6727" width="2.5" height="2.5" fill="red" stroke="black" stroke-width="0.5"></rect><rect x="-67.3691" y="11.6727" width="2.5" height="2.5" fill="red" stroke="black" stroke-width="0.5"></rect>
<rect x="64.6739" y="-30.7885" width="40" height="20" fill="yellow" stroke="black" stroke-width="0.5"><title>room 13</title></rect><rect x="71.4239" y="-16.0385" width="2.5" height="2.5" fill="red" stroke="black" stroke-width="0.5"></rect>
<rect x="84.0229" y="-80.6033" width="30" height="30" fill="yellow" stroke="black" stroke-width="0.5"><title>room 14</title></rect><rect x="88.7729" y="-57.8533" width="2.5" height="2.5" fill="red" stroke="black" stroke-width="0.5"></rect><rect x="106.773" y="-75.8533" width="2.5" height="2.5" fill="red" stroke="black" stroke-width="0.5"></rect>
<rect x="-83.1367" y="28.5618" width="20" height="20" fill="yellow" stroke="black" stroke-width="0.5"><title>room 15</title></rect><rect x="-68.3867" y="31.3118" width="2.5" height="2.5" fill="red" stroke="black" stroke-width="0.5"></rect><rect x="-80.3867" y="43.3118" width="2.5" height="2.5" fill="red" stroke="black" stroke-width="0.5"></rect>
<rect x="104.276" y="15.4274" width="30" height="30" fill="yellow" stroke="black" stroke-width="0.5"><title>room 16</title></rect><rect x="109.026" y="20.1774" width="2.5" height="2.5" fill="red" stroke="black" stroke-width="0.5"></rect>
<rect x="103.084" y="-109.922" width="30" height="30" fill="yellow" stroke="black" stroke-width="0.5"><title>room 17</title></rect><rect x="107.834" y="-87.1722" width="2.5" height="2.5" fill="red" stroke="black" stroke-width="0.5"></rect><rect x="125.834" y="-105.172" width="2.5" height="2.5" fill="red" stroke="black" stroke-width="0.5"></rect>
<rect x="-50.9529" y="28.6556" width="30" height="30" fill="yellow" stroke="black" stroke-width="0.5"><title>room 18</title></rect><rect x="-28.2029" y="33.4056" width="2.5" height="2.5" fill="red" stroke="black" stroke-width="0.5"></rect><rect x="-46.2029" y="51.4056" width="2.5" height="2.5" fill="red" stroke="black" stroke-width="0.5"></rect>
<rect x="-23.7266" y="-71.3171" width="40" height="20" fill="yellow" stroke="black" stroke-width="0.5"><title>room 19</title></rect><rect x="7.02336" y="-56.5671" width="2.5" height="2.5" fill="red" stroke="black" stroke-width="0.5"></rect><rect x="-16.9766" y="-68.5671" width="2.5" height="2.5" fill="red" stroke="black" stroke-width="0.5"></rect>
<rect x="132.607" y="-136.382" width="20" height="40" fill="yellow" stroke="black" stroke-width="0.5"><title>room 20</title></rect><rect x="135.357" y="-105.632" width="2.5" height="2.5" fill="red" stroke="black" stroke-width="0.5"></rect>
<rect x="-102.803" y="41.0193" width="20" height="20" fill="yellow" stroke="black" stroke-width="0.5"><title>room 21</title></rect><rect x="-88.0534" y="43.7693" width="2.5" height="2.5" fill="red" stroke="black" stroke-width="0.5"></rect>
<rect x="-43.0546" y="-100.15" width="20" height="40" fill="yellow" stroke="black" stroke-width="0.5"><title>room 22</title></rect><rect x="-28.3046" y="-69.4004" width="2.5" height="2.5" fill="red" stroke="black" stroke-width="0.5"></rect>
<rect x="-80.2138" y="48.4147" width="30" height="30" fill="yellow" stroke="black" stroke-width="0.5"><title>room 23</title></rect><rect x="-57.4638" y="53.1647" width="2.5" height="2.5" fill="red" stroke="black" stroke-width="0.5"></rect>
<rect x="24.9318" y="-61.5846" width="30" height="30" fill="yellow" stroke="black" stroke-width="0.5"><title>room 24</title></rect><rect x="39.8222" y="-38.8346" width="2.5" height="2.5" fill="red" stroke="black" stroke-width="0.5"></rect>
<rect x="113.414" y="-32.3736" width="20" height="40" fill="yellow" stroke="black" stroke-width="0.5"><title>room 25</title></rect><rect x="116.164" y="-1.62364" width="2.5" height="2.5" fill="red" stroke="black" stroke-width="0.5"></rect>
<rect x="-21.1168" y="48.454" width="20" height="40" fill="yellow" stroke="black" stroke-width="0.5"><title>room 26</title></rect><rect x="-9.11414" y="55.204" width="2.5" height="2.5" fill="red" stroke="black" stroke-width="0.5"></rect>
<rect x="5.36149" y="17.0847" width="20" height="40" fill="yellow" stroke="black" stroke-width="0.5"><title>room 27</title></rect><rect x="18.1332" y="23.8347" width="2.5" height="2.5" fill="red" stroke="black" stroke-width="0.5"></rect>
<rect x="-90.7864" y="-20.5901" width="30" height="30" fill="yellow" stroke="black" stroke-width="0.5"><title>room 28</title></rect><rect x="-68.0364" y="2.15991" width="2.5" height="2.5" fill="red" stroke="black" stroke-width="0.5"></rect>
<rect x="-24.2648" y="-20.9022" width="30" height="30" fill="yellow" stroke="black" stroke-width="0.5"><title>room 29</title></rect><rect x="-1.51476" y="-2.92376" width="2.5" height="2.5" fill="red" stroke="black" stroke-width="0.5"></rect>
<line x1="42.97036310070064" y1="12.614236393749042" x2="29.404823312096372" y2="11.55474960876207" stroke-width="0.5" stroke="blue" />
<line x1="62.63649458887433" y1="12.614236393749042" x2="62.636463156289636" y2="4.815159251321154" stroke-width="0.5" stroke="blue" />
<line x1="66.97036310070064" y1="24.614236393749042" x2="72.58889944179249" y2="32.10655595828473" stroke-width="0.5" stroke="blue" />
<line x1="50.00971835978696" y1="24.614236393749042" x2="50.00966375884225" y2="32.425062266562925" stroke-width="0.5" stroke="blue" />
<line x1="66.97036310070064" y1="12.614236393749042" x2="82.06226630150734" y2="12.101761172708386" stroke-width="0.5" stroke="blue" />
<line x1="29.404823312096372" y1="-6.44525039123793" x2="32.93784168941561" y2="-15.844872417342692" stroke-width="0.5" stroke="blue" />
<line x1="11.404823312096372" y1="11.55474960876207" x2="-2.0612101708413704" y2="13.052012223433" stroke-width="0.5" stroke="blue" />
<line x1="16.27457000870018" y1="-6.44525039123793" x2="16.27455924219461" y2="-19.981165370861856" stroke-width="0.5" stroke="blue" />
<line x1="19.38315964508781" y1="11.55474960876207" x2="19.383158390223006" y2="25.084728350305575" stroke-width="0.5" stroke="blue" />
<line x1="11.404823312096372" y1="-1.6737398342734382" x2="-0.2647616925276086" y2="-1.6737582469849146" stroke-width="0.5" stroke="blue" />
<line x1="70.30259464446327" y1="-7.184840748678846" x2="72.67387924135453" y2="-14.788505912368567" stroke-width="0.5" stroke="blue" />
<line x1="56.93784168941561" y1="-27.844872417342692" x2="60.720526744264035" y2="-37.21618175302856" stroke-width="0.5" stroke="blue" />
<line x1="41.0721922205676" y1="-27.844872417342692" x2="41.07216677796137" y2="-37.58460984360476" stroke-width="0.5" stroke="blue" />
<line x1="-26.06121017084137" y1="13.052012223433" x2="-28.18999933394872" y2="5.361878224165519" stroke-width="0.5" stroke="blue" />
<line x1="-7.947316994928955" y1="25.052012223433" x2="-7.947323928243408" y2="32.853828560473524" stroke-width="0.5" stroke="blue" />
<line x1="-26.06121017084137" y1="25.052012223433" x2="-26.952853062035324" y2="34.65564461611381" stroke-width="0.5" stroke="blue" />
<line x1="78.72052674426403" y1="-55.21618175302856" x2="90.02285892939685" y2="-56.60327679083373" stroke-width="0.5" stroke="blue" />
<line x1="-40.18999933394872" y1="5.361878224165519" x2="-42.119145932125235" y2="12.92271411092289" stroke-width="0.5" stroke="blue" />
<line x1="-7.864167045055426" y1="44.853828560473524" x2="-7.864138508398042" y2="56.45402671705776" stroke-width="0.5" stroke="blue" />
<line x1="9.144305938798434" y1="-43.98116537086186" x2="8.273362452358024" y2="-55.31706049328434" stroke-width="0.5" stroke="blue" />
<line x1="106.06226630150734" y1="12.101761172708386" x2="110.27564331710116" y2="21.427418712380224" stroke-width="0.5" stroke="blue" />
<line x1="106.06226630150734" y1="0.10176117270838514" x2="117.4136219917552" y2="-0.37364174942086414" stroke-width="0.5" stroke="blue" />
<line x1="-66.11914593212524" y1="24.92271411092289" x2="-67.1367296033657" y2="32.56182584889022" stroke-width="0.5" stroke="blue" />
<line x1="-66.11914593212524" y1="12.92271411092289" x2="-66.78642818671973" y2="3.409905527288511" stroke-width="0.5" stroke="blue" />
<line x1="108.02285892939685" y1="-74.60327679083373" x2="109.08394497045859" y2="-85.92221552393578" stroke-width="0.5" stroke="blue" />
<line x1="-79.1367296033657" y1="44.56182584889022" x2="-86.80335788689291" y2="45.0192504608732" stroke-width="0.5" stroke="blue" />
<line x1="127.08394497045859" y1="-103.92221552393578" x2="136.60749573209114" y2="-104.38211907208245" stroke-width="0.5" stroke="blue" />
<line x1="-44.952853062035324" y1="52.65564461611381" x2="-56.21381754078105" y2="54.41471431261094" stroke-width="0.5" stroke="blue" />
<line x1="-15.726637547641976" y1="-67.31706049328434" x2="-27.054646457863527" y2="-68.15036352320575" stroke-width="0.5" stroke="blue" />
</svg>