<svg width="100%" height="100%" viewBox="-245.913 -239.704 453.218 469.088"  xmlns="http://www.w3.org/2000/svg" xmlns:xlink="http://www.w3.org/1999/xlink" version="1.1">
<rect x="-45.0888" y="28.3105" width="40" height="20" fill="yellow" stroke="black" stroke-width="0.5"><title>room 0</title></rect><rect x="-14.3388" y="31.0605" width="2.5" height="2.5" fill="red" stroke="black" stroke-width="0.5"></rect><rect x="-14.3388" y="43.0605" width="2.5" height="2.5" fill="red" stroke="black" stroke-width="0.5"></rect><rect x="-38.3388" y="43.0605" width="2.5" height="2.5" fill="red" stroke="black" stroke-width="0.5"></rect><rect x="-38.3388" y="31.0605" width="2.5" height="2.5" fill="red" stroke="black" stroke-width="0.5"></rect><rect x="-18.9111" y="43.0605" width="2.5" height="2.5" fill="red" stroke="black" stroke-width="0.5"></rect><rect x="-14.3388" y="31.0605" width="2.5" height="2.5" fill="red" stroke="black" stroke-width="0.5"></rect><rect x="-38.3388" y="31.0605" width="2.5" height="2.5" fill="red" stroke="black" stroke-width="0.5"></rect><rect x="-36.6097" y="43.0605" width="2.5" height="2.5" fill="red" stroke="black" stroke-width="0.5"></rect>
<rect x="7.46578" y="-32.3013" width="30" height="30" fill="yellow" stroke="black" stroke-width="0.5"><title>room 1</title></rect><rect x="12.2158" y="-9.55131" width="2.5" height="2.5" fill="red" stroke="black" stroke-width="0.5"></rect><rect x="30.2158" y="-27.5513" width="2.5" height="2.5" fill="red" stroke="black" stroke-width="0.5"></rect><rect x="12.2158" y="-27.5513" width="2.5" height="2.5" fill="red" stroke="black" stroke-width="0.5"></rect><rect x="12.2158" y="-27.221" width="2.5" height="2.5" fill="red" stroke="black" stroke-width="0.5"></rect><rect x="30.2158" y="-9.55131" width="2.5" height="2.5" fill="red" stroke="black" stroke-width="0.5"></rect>
<rect x="41.8977" y="-71.8212" width="20" height="20" fill="yellow" stroke="black" stroke-width="0.5"><title>room 2</title></rect><rect x="44.6477" y="-57.0712" width="2.5" height="2.5" fill="red" stroke="black" stroke-width="0.5"></rect><rect x="56.6477" y="-69.0712" width="2.5" height="2.5" fill="red" stroke="black" stroke-width="0.5"></rect><rect x="56.6477" y="-64.1017" width="2.5" height="2.5" fill="red" stroke="black" stroke-width="0.5"></rect><rect x="44.6477" y="-69.0712" width="2.5" height="2.5" fill="red" stroke="black" stroke-width="0.5"></rect><rect x="56.6477" y="-57.0712" width="2.5" height="2.5" fill="red" stroke="black" stroke-width="0.5"></rect><rect x="50.623" y="-69.0712" width="2.5" height="2.5" fill="red" stroke="black" stroke-width="0.5"></rect><rect x="44.6477" y="-64.0491" width="2.5" height="2.5" fill="red" stroke="black" stroke-width="0.5"></rect><rect x="46.2587" y="-57.0712" width="2.5" height="2.5" fill="red" stroke="black" stroke-width="0.5"></rect>
<rect x="3.24932" y="57.0456" width="40" height="20" fill="yellow" stroke="black" stroke-width="0.5"><title>room 3</title></rect><rect x="9.99932" y="59.7956" width="2.5" height="2.5" fill="red" stroke="black" stroke-width="0.5"></rect><rect x="17.5647" y="59.7956" width="2.5" height="2.5" fill="red" stroke="black" stroke-width="0.5"></rect><rect x="33.9993" y="71.7956" width="2.5" height="2.5" fill="red" stroke="black" stroke-width="0.5"></rect><rect x="33.9993" y="59.7956" width="2.5" height="2.5" fill="red" stroke="black" stroke-width="0.5"></rect><rect x="13.1812" y="71.7956" width="2.5" height="2.5" fill="red" stroke="black" stroke-width="0.5"></rect>
<rect x="-5.61992" y="37.2162" width="40" height="20" fill="yellow" stroke="black" stroke-width="0.5"><title>room 4</title></rect><rect x="17.5647" y="51.9662" width="2.5" height="2.5" fill="red" stroke="black" stroke-width="0.5"></rect><rect x="5.13206" y="39.9662" width="2.5" height="2.5" fill="red" stroke="black" stroke-width="0.5"></rect><rect x="1.13008" y="39.9662" width="2.5" height="2.5" fill="red" stroke="black" stroke-width="0.5"></rect>
<rect x="61.6528" y="-111.661" width="30" height="30" fill="yellow" stroke="black" stroke-width="0.5"><title>room 5</title></rect><rect x="66.4028" y="-88.911" width="2.5" height="2.5" fill="red" stroke="black" stroke-width="0.5"></rect><rect x="84.4028" y="-106.911" width="2.5" height="2.5" fill="red" stroke="black" stroke-width="0.5"></rect><rect x="79.3281" y="-106.911" width="2.5" height="2.5" fill="red" stroke="black" stroke-width="0.5"></rect><rect x="66.4028" y="-106.911" width="2.5" height="2.5" fill="red" stroke="black" stroke-width="0.5"></rect>
<rect x="43.2115" y="83.5179" width="20" height="20" fill="yellow" stroke="black" stroke-width="0.5"><title>room 6</title></rect><rect x="45.9615" y="86.2679" width="2.5" height="2.5" fill="red" stroke="black" stroke-width="0.5"></rect><rect x="57.9615" y="98.2679" width="2.5" height="2.5" fill="red" stroke="black" stroke-width="0.5"></rect><rect x="45.9615" y="88.9711" width="2.5" height="2.5" fill="red" stroke="black" stroke-width="0.5"></rect><rect x="52.0472" y="98.2679" width="2.5" height="2.5" fill="red" stroke="black" stroke-width="0.5"></rect><rect x="57.9615" y="92.2868" width="2.5" height="2.5" fill="red" stroke="black" stroke-width="0.5"></rect><rect x="53.847" y="86.2679" width="2.5" height="2.5" fill="red" stroke="black" stroke-width="0.5"></rect><rect x="45.9615" y="98.2679" width="2.5" height="2.5" fill="red" stroke="black" stroke-width="0.5"></rect>
<rect x="-85.3719" y="48.5883" width="20" height="20" fill="yellow" stroke="black" stroke-width="0.5"><title>room 7</title></rect><rect x="-70.6219" y="51.3383" width="2.5" height="2.5" fill="red" stroke="black" stroke-width="0.5"></rect><rect x="-82.6219" y="63.3383" width="2.5" height="2.5" fill="red" stroke="black" stroke-width="0.5"></rect><rect x="-82.6219" y="58.3164" width="2.5" height="2.5" fill="red" stroke="black" stroke-width="0.5"></rect><rect x="-82.6219" y="51.3383" width="2.5" height="2.5" fill="red" stroke="black" stroke-width="0.5"></rect><rect x="-71.0071" y="51.3383" width="2.5" height="2.5" fill="red" stroke="black" stroke-width="0.5"></rect>
<rect x="42.9108" y="43.489" width="40" height="20" fill="yellow" stroke="black" stroke-width="0.5"><title>room 8</title></rect><rect x="49.6608" y="58.239" width="2.5" height="2.5" fill="red" stroke="black" stroke-width="0.5"></rect><rect x="73.6608" y="46.239" width="2.5" height="2.5" fill="red" stroke="black" stroke-width="0.5"></rect><rect x="73.6608" y="54.3548" width="2.5" height="2.5" fill="red" stroke="black" stroke-width="0.5"></rect>
<rect x="-103.62" y="78.151" width="20" height="40" fill="yellow" stroke="black" stroke-width="0.5"><title>room 9</title></rect><rect x="-88.87" y="84.901" width="2.5" height="2.5" fill="red" stroke="black" stroke-width="0.5"></rect><rect x="-92.2197" y="108.901" width="2.5" height="2.5" fill="red" stroke="black" stroke-width="0.5"></rect><rect x="-100.87" y="98.775" width="2.5" height="2.5" fill="red" stroke="black" stroke-width="0.5"></rect><rect x="-100.87" y="108.901" width="2.5" height="2.5" fill="red" stroke="black" stroke-width="0.5"></rect><rect x="-88.87" y="108.901" width="2.5" height="2.5" fill="red" stroke="black" stroke-width="0.5"></rect>
<rect x="73.0105" y="23.8549" width="40" height="20" fill="yellow" stroke="black" stroke-width="0.5"><title>room 10</title></rect><rect x="79.7605" y="38.6049" width="2.5" height="2.5" fill="red" stroke="black" stroke-width="0.5"></rect><rect x="103.761" y="26.6049" width="2.5" height="2.5" fill="red" stroke="black" stroke-width="0.5"></rect><rect x="103.761" y="37.8091" width="2.5" height="2.5" fill="red" stroke="black" stroke-width="0.5"></rect>
<rect x="-104.747" y="2.06987" width="40" height="20" fill="yellow" stroke="black" stroke-width="0.5"><title>room 11</title></rect><rect x="-73.997" y="16.8199" width="2.5" height="2.5" fill="red" stroke="black" stroke-width="0.5"></rect><rect x="-97.997" y="4.81987" width="2.5" height="2.5" fill="red" stroke="black" stroke-width="0.5"></rect><rect x="-97.2296" y="4.81987" width="2.5" height="2.5" fill="red" stroke="black" stroke-width="0.5"></rect><rect x="-97.997" y="14.2733" width="2.5" height="2.5" fill="red" stroke="black" stroke-width="0.5"></rect>
<rect x="63.2557" y="103.451" width="40" height="20" fill="yellow" stroke="black" stroke-width="0.5"><title>room 12</title></rect><rect x="70.0057" y="106.201" width="2.5" height="2.5" fill="red" stroke="black" stroke-width="0.5"></rect><rect x="94.0057" y="106.432" width="2.5" height="2.5" fill="red" stroke="black" stroke-width="0.5"></rect><rect x="94.0057" y="118.201" width="2.5" height="2.5" fill="red" stroke="black" stroke-width="0.5"></rect><rect x="89.856" y="118.201" width="2.5" height="2.5" fill="red" stroke="black" stroke-width="0.5"></rect>
<rect x="100.018" y="4.14746" width="40" height="20" fill="yellow" stroke="black" stroke-width="0.5"><title>room 13</title></rect><rect x="106.768" y="18.8975" width="2.5" height="2.5" fill="red" stroke="black" stroke-width="0.5"></rect><rect x="130.768" y="16.3899" width="2.5" height="2.5" fill="red" stroke="black" stroke-width="0.5"></rect>
<rect x="-17.6516" y="-71.3849" width="30" height="30" fill="yellow" stroke="black" stroke-width="0.5"><title>room 14</title></rect><rect x="5.09839" y="-48.6349" width="2.5" height="2.5" fill="red" stroke="black" stroke-width="0.5"></rect><rect x="-12.9016" y="-66.6349" width="2.5" height="2.5" fill="red" stroke="black" stroke-width="0.5"></rect><rect x="-1.61352" y="-66.6349" width="2.5" height="2.5" fill="red" stroke="black" stroke-width="0.5"></rect>
<rect x="91.3909" y="-122.149" width="20" height="20" fill="yellow" stroke="black" stroke-width="0.5"><title>room 15</title></rect><rect x="94.1409" y="-107.399" width="2.5" height="2.5" fill="red" stroke="black" stroke-width="0.5"></rect><rect x="106.141" y="-118.956" width="2.5" height="2.5" fill="red" stroke="black" stroke-width="0.5"></rect>
<rect x="-140.983" y="-20.8373" width="30" height="30" fill="yellow" stroke="black" stroke-width="0.5"><title>room 16</title></rect><rect x="-118.233" y="1.91265" width="2.5" height="2.5" fill="red" stroke="black" stroke-width="0.5"></rect><rect x="-136.233" y="-16.0873" width="2.5" height="2.5" fill="red" stroke="black" stroke-width="0.5"></rect><rect x="-136.233" y="-8.42042" width="2.5" height="2.5" fill="red" stroke="black" stroke-width="0.5"></rect>
<rect x="61.7794" y="-81.8821" width="30" height="30" fill="yellow" stroke="black" stroke-width="0.5"><title>room 17</title></rect><rect x="66.5294" y="-64.1017" width="2.5" height="2.5" fill="red" stroke="black" stroke-width="0.5"></rect><rect x="84.5294" y="-77.1321" width="2.5" height="2.5" fill="red" stroke="black" stroke-width="0.5"></rect>
<rect x="-115.191" y="48.5445" width="30" height="30" fill="yellow" stroke="black" stroke-width="0.5"><title>room 18</title></rect><rect x="-92.4411" y="58.3164" width="2.5" height="2.5" fill="red" stroke="black" stroke-width="0.5"></rect><rect x="-110.441" y="66.0008" width="2.5" height="2.5" fill="red" stroke="black" stroke-width="0.5"></rect>
<rect x="-124.375" y="28.7759" width="40" height="20" fill="yellow" stroke="black" stroke-width="0.5"><title>room 19</title></rect><rect x="-93.6253" y="43.5259" width="2.5" height="2.5" fill="red" stroke="black" stroke-width="0.5"></rect>
<rect x="82.7202" y="43.7207" width="20" height="40" fill="yellow" stroke="black" stroke-width="0.5"><title>room 20</title></rect><rect x="85.4702" y="54.3548" width="2.5" height="2.5" fill="red" stroke="black" stroke-width="0.5"></rect><rect x="97.4702" y="66.6992" width="2.5" height="2.5" fill="red" stroke="black" stroke-width="0.5"></rect>
<rect x="71.5035" y="-131.515" width="20" height="20" fill="yellow" stroke="black" stroke-width="0.5"><title>room 21</title></rect><rect x="79.3281" y="-116.765" width="2.5" height="2.5" fill="red" stroke="black" stroke-width="0.5"></rect><rect x="80.2816" y="-128.765" width="2.5" height="2.5" fill="red" stroke="black" stroke-width="0.5"></rect>
<rect x="-5.61595" y="-2.37631" width="20" height="40" fill="yellow" stroke="black" stroke-width="0.5"><title>room 22</title></rect><rect x="5.13206" y="28.3737" width="2.5" height="2.5" fill="red" stroke="black" stroke-width="0.5"></rect><rect x="-2.13009" y="4.37369" width="2.5" height="2.5" fill="red" stroke="black" stroke-width="0.5"></rect>
<rect x="-106.319" y="117.733" width="30" height="30" fill="yellow" stroke="black" stroke-width="0.5"><title>room 23</title></rect><rect x="-92.2197" y="122.483" width="2.5" height="2.5" fill="red" stroke="black" stroke-width="0.5"></rect><rect x="-101.569" y="140.483" width="2.5" height="2.5" fill="red" stroke="black" stroke-width="0.5"></rect>
<rect x="-37.8402" y="-100.852" width="30" height="30" fill="yellow" stroke="black" stroke-width="0.5"><title>room 24</title></rect><rect x="-15.0902" y="-78.1017" width="2.5" height="2.5" fill="red" stroke="black" stroke-width="0.5"></rect><rect x="-33.0902" y="-96.1017" width="2.5" height="2.5" fill="red" stroke="black" stroke-width="0.5"></rect><rect x="-33.0902" y="-83.9449" width="2.5" height="2.5" fill="red" stroke="black" stroke-width="0.5"></rect>
<rect x="-25.9301" y="48.2793" width="20" height="40" fill="yellow" stroke="black" stroke-width="0.5"><title>room 25</title></rect><rect x="-18.9111" y="55.0293" width="2.5" height="2.5" fill="red" stroke="black" stroke-width="0.5"></rect><rect x="-22.9312" y="79.0293" width="2.5" height="2.5" fill="red" stroke="black" stroke-width="0.5"></rect>
<rect x="139.704" y="7.13232" width="20" height="40" fill="yellow" stroke="black" stroke-width="0.5"><title>room 26</title></rect><rect x="142.454" y="16.3899" width="2.5" height="2.5" fill="red" stroke="black" stroke-width="0.5"></rect><rect x="154.454" y="37.8823" width="2.5" height="2.5" fill="red" stroke="black" stroke-width="0.5"></rect>
<rect x="71.5598" y="-171.306" width="20" height="40" fill="yellow" stroke="black" stroke-width="0.5"><title>room 27</title></rect><rect x="80.2816" y="-140.556" width="2.5" height="2.5" fill="red" stroke="black" stroke-width="0.5"></rect><rect x="86.3098" y="-164.556" width="2.5" height="2.5" fill="red" stroke="black" stroke-width="0.5"></rect><rect x="74.3098" y="-164.556" width="2.5" height="2.5" fill="red" stroke="black" stroke-width="0.5"></rect><rect x="80.2905" y="-164.556" width="2.5" height="2.5" fill="red" stroke="black" stroke-width="0.5"></rect>
<rect x="-161.268" y="-50.2873" width="30" height="30" fill="yellow" stroke="black" stroke-width="0.5"><title>room 28</title></rect><rect x="-138.518" y="-27.5373" width="2.5" height="2.5" fill="red" stroke="black" stroke-width="0.5"></rect>
<rect x="12.0306" y="-111.498" width="30" height="30" fill="yellow" stroke="black" stroke-width="0.5"><title>room 29</title></rect><rect x="34.7806" y="-88.7482" width="2.5" height="2.5" fill="red" stroke="black" stroke-width="0.5"></rect><rect x="16.7806" y="-106.748" width="2.5" height="2.5" fill="red" stroke="black" stroke-width="0.5"></rect><rect x="30.6125" y="-106.748" width="2.5" height="2.5" fill="red" stroke="black" stroke-width="0.5"></rect>
<rect x="-111.212" y="-20.7489" width="20" height="20" fill="yellow" stroke="black" stroke-width="0.5"><title>room 30</title></rect><rect x="-97.2296" y="-5.99888" width="2.5" height="2.5" fill="red" stroke="black" stroke-width="0.5"></rect><rect x="-97.5881" y="-17.9989" width="2.5" height="2.5" fill="red" stroke="black" stroke-width="0.5"></rect><rect x="-108.462" y="-17.9989" width="2.5" height="2.5" fill="red" stroke="black" stroke-width="0.5"></rect>
<rect x="57.0008" y="-52.0793" width="20" height="20" fill="yellow" stroke="black" stroke-width="0.5"><title>room 31</title></rect><rect x="59.7508" y="-49.3293" width="2.5" height="2.5" fill="red" stroke="black" stroke-width="0.5"></rect><rect x="71.7508" y="-43.1575" width="2.5" height="2.5" fill="red" stroke="black" stroke-width="0.5"></rect>
<rect x="102.738" y="84.0601" width="30" height="30" fill="yellow" stroke="black" stroke-width="0.5"><title>room 32</title></rect><rect x="107.488" y="106.432" width="2.5" height="2.5" fill="red" stroke="black" stroke-width="0.5"></rect>
<rect x="-125.915" y="135.648" width="20" height="40" fill="yellow" stroke="black" stroke-width="0.5"><title>room 33</title></rect><rect x="-111.165" y="142.398" width="2.5" height="2.5" fill="red" stroke="black" stroke-width="0.5"></rect>
<rect x="14.1782" y="-2.53018" width="20" height="40" fill="yellow" stroke="black" stroke-width="0.5"><title>room 34</title></rect><rect x="16.9282" y="28.2198" width="2.5" height="2.5" fill="red" stroke="black" stroke-width="0.5"></rect>
<rect x="23.4003" y="76.9242" width="20" height="20" fill="yellow" stroke="black" stroke-width="0.5"><title>room 35</title></rect><rect x="38.1503" y="88.9711" width="2.5" height="2.5" fill="red" stroke="black" stroke-width="0.5"></rect>
<rect x="-35.3593" y="-1.53115" width="30" height="30" fill="yellow" stroke="black" stroke-width="0.5"><title>room 36</title></rect><rect x="-12.6093" y="21.2189" width="2.5" height="2.5" fill="red" stroke="black" stroke-width="0.5"></rect><rect x="-30.6093" y="3.21885" width="2.5" height="2.5" fill="red" stroke="black" stroke-width="0.5"></rect>
<rect x="111.219" y="-133.263" width="20" height="20" fill="yellow" stroke="black" stroke-width="0.5"><title>room 37</title></rect><rect x="113.969" y="-118.956" width="2.5" height="2.5" fill="red" stroke="black" stroke-width="0.5"></rect><rect x="125.969" y="-123.365" width="2.5" height="2.5" fill="red" stroke="black" stroke-width="0.5"></rect><rect x="113.969" y="-130.513" width="2.5" height="2.5" fill="red" stroke="black" stroke-width="0.5"></rect><rect x="125.969" y="-130.513" width="2.5" height="2.5" fill="red" stroke="black" stroke-width="0.5"></rect>
<rect x="-101.464" y="-40.5783" width="20" height="20" fill="yellow" stroke="black" stroke-width="0.5"><title>room 38</title></rect><rect x="-97.5881" y="-25.8283" width="2.5" height="2.5" fill="red" stroke="black" stroke-width="0.5"></rect>
<rect x="-143.454" y="85.8991" width="40" height="20" fill="yellow" stroke="black" stroke-width="0.5"><title>room 39</title></rect><rect x="-112.704" y="98.775" width="2.5" height="2.5" fill="red" stroke="black" stroke-width="0.5"></rect><rect x="-136.704" y="100.649" width="2.5" height="2.5" fill="red" stroke="black" stroke-width="0.5"></rect>
<rect x="-180.657" y="-20.4034" width="40" height="20" fill="yellow" stroke="black" stroke-width="0.5"><title>room 40</title></rect><rect x="-149.907" y="-8.42042" width="2.5" height="2.5" fill="red" stroke="black" stroke-width="0.5"></rect><rect x="-173.907" y="-17.6534" width="2.5" height="2.5" fill="red" stroke="black" stroke-width="0.5"></rect>
<rect x="91.1069" y="-182.498" width="40" height="20" fill="yellow" stroke="black" stroke-width="0.5"><title>room 41</title></rect><rect x="97.8569" y="-167.748" width="2.5" height="2.5" fill="red" stroke="black" stroke-width="0.5"></rect>
<rect x="-57.4585" y="-128.495" width="20" height="40" fill="yellow" stroke="black" stroke-width="0.5"><title>room 42</title></rect><rect x="-42.7085" y="-97.7449" width="2.5" height="2.5" fill="red" stroke="black" stroke-width="0.5"></rect>
<rect x="-45.4323" y="87.9844" width="30" height="30" fill="yellow" stroke="black" stroke-width="0.5"><title>room 43</title></rect><rect x="-22.9312" y="92.7344" width="2.5" height="2.5" fill="red" stroke="black" stroke-width="0.5"></rect><rect x="-37.2784" y="110.734" width="2.5" height="2.5" fill="red" stroke="black" stroke-width="0.5"></rect><rect x="-40.6823" y="92.7344" width="2.5" height="2.5" fill="red" stroke="black" stroke-width="0.5"></rect><rect x="-22.6823" y="110.734" width="2.5" height="2.5" fill="red" stroke="black" stroke-width="0.5"></rect>
<rect x="-56.6246" y="117.736" width="30" height="30" fill="yellow" stroke="black" stroke-width="0.5"><title>room 44</title></rect><rect x="-37.2784" y="122.486" width="2.5" height="2.5" fill="red" stroke="black" stroke-width="0.5"></rect><rect x="-51.8746" y="140.486" width="2.5" height="2.5" fill="red" stroke="black" stroke-width="0.5"></rect>
<rect x="-198.428" y="-50.0199" width="30" height="30" fill="yellow" stroke="black" stroke-width="0.5"><title>room 45</title></rect><rect x="-175.678" y="-27.2699" width="2.5" height="2.5" fill="red" stroke="black" stroke-width="0.5"></rect><rect x="-193.678" y="-45.2699" width="2.5" height="2.5" fill="red" stroke="black" stroke-width="0.5"></rect>
<rect x="-65.0759" y="-1.09885" width="30" height="30" fill="yellow" stroke="black" stroke-width="0.5"><title>room 46</title></rect><rect x="-42.3259" y="21.6512" width="2.5" height="2.5" fill="red" stroke="black" stroke-width="0.5"></rect><rect x="-60.3259" y="3.65115" width="2.5" height="2.5" fill="red" stroke="black" stroke-width="0.5"></rect>
<rect x="-31.9511" y="-41.6407" width="40" height="20" fill="yellow" stroke="black" stroke-width="0.5"><title>room 47</title></rect><rect x="-1.20109" y="-27.221" width="2.5" height="2.5" fill="red" stroke="black" stroke-width="0.5"></rect>
<rect x="41.8483" y="-111.531" width="20" height="40" fill="yellow" stroke="black" stroke-width="0.5"><title>room 48</title></rect><rect x="50.623" y="-80.7807" width="2.5" height="2.5" fill="red" stroke="black" stroke-width="0.5"></rect>
<rect x="43.383" y="103.274" width="20" height="40" fill="yellow" stroke="black" stroke-width="0.5"><title>room 49</title></rect><rect x="52.0472" y="110.024" width="2.5" height="2.5" fill="red" stroke="black" stroke-width="0.5"></rect><rect x="58.133" y="134.024" width="2.5" height="2.5" fill="red" stroke="black" stroke-width="0.5"></rect>
<rect x="-84.7342" y="28.6964" width="40" height="20" fill="yellow" stroke="black" stroke-width="0.5"><title>room 50</title></rect><rect x="-71.0071" y="43.4464" width="2.5" height="2.5" fill="red" stroke="black" stroke-width="0.5"></rect>
<rect x="37.1243" y="-16.1744" width="20" height="40" fill="yellow" stroke="black" stroke-width="0.5"><title>room 51</title></rect><rect x="39.8743" y="-9.42436" width="2.5" height="2.5" fill="red" stroke="black" stroke-width="0.5"></rect>
<rect x="62.9413" y="83.5556" width="40" height="20" fill="yellow" stroke="black" stroke-width="0.5"><title>room 52</title></rect><rect x="69.6913" y="92.2868" width="2.5" height="2.5" fill="red" stroke="black" stroke-width="0.5"></rect>
<rect x="-144.928" y="55.9571" width="30" height="30" fill="yellow" stroke="black" stroke-width="0.5"><title>room 53</title></rect><rect x="-122.178" y="66.0008" width="2.5" height="2.5" fill="red" stroke="black" stroke-width="0.5"></rect><rect x="-140.178" y="78.4582" width="2.5" height="2.5" fill="red" stroke="black" stroke-width="0.5"></rect>
<rect x="-32.1442" y="-21.8103" width="40" height="20" fill="yellow" stroke="black" stroke-width="0.5"><title>room 54</title></rect><rect x="-2.13009" y="-7.06035" width="2.5" height="2.5" fill="red" stroke="black" stroke-width="0.5"></rect>
<rect x="131.027" y="-132.966" width="30" height="30" fill="yellow" stroke="black" stroke-width="0.5"><title>room 55</title></rect><rect x="135.777" y="-123.365" width="2.5" height="2.5" fill="red" stroke="black" stroke-width="0.5"></rect>
<rect x="-135.952" y="105.796" width="30" height="30" fill="yellow" stroke="black" stroke-width="0.5"><title>room 56</title></rect><rect x="-113.202" y="110.546" width="2.5" height="2.5" fill="red" stroke="black" stroke-width="0.5"></rect><rect x="-131.202" y="128.546" width="2.5" height="2.5" fill="red" stroke="black" stroke-width="0.5"></rect>
<rect x="-76.5485" y="121.198" width="20" height="20" fill="yellow" stroke="black" stroke-width="0.5"><title>room 57</title></rect><rect x="-73.7985" y="123.948" width="2.5" height="2.5" fill="red" stroke="black" stroke-width="0.5"></rect><rect x="-67.5762" y="135.948" width="2.5" height="2.5" fill="red" stroke="black" stroke-width="0.5"></rect><rect x="-73.7985" y="135.948" width="2.5" height="2.5" fill="red" stroke="black" stroke-width="0.5"></rect><rect x="-61.7985" y="135.948" width="2.5" height="2.5" fill="red" stroke="black" stroke-width="0.5"></rect>
<rect x="76.7821" y="-51.7357" width="40" height="20" fill="yellow" stroke="black" stroke-width="0.5"><title>room 58</title></rect><rect x="83.5321" y="-43.1575" width="2.5" height="2.5" fill="red" stroke="black" stroke-width="0.5"></rect><rect x="107.532" y="-36.9857" width="2.5" height="2.5" fill="red" stroke="black" stroke-width="0.5"></rect><rect x="107.532" y="-45.0034" width="2.5" height="2.5" fill="red" stroke="black" stroke-width="0.5"></rect>
<rect x="112.652" y="34.2633" width="20" height="20" fill="yellow" stroke="black" stroke-width="0.5"><title>room 59</title></rect><rect x="115.402" y="37.8091" width="2.5" height="2.5" fill="red" stroke="black" stroke-width="0.5"></rect><rect x="127.402" y="49.0133" width="2.5" height="2.5" fill="red" stroke="black" stroke-width="0.5"></rect>
<rect x="-72.0089" y="68.3884" width="40" height="20" fill="yellow" stroke="black" stroke-width="0.5"><title>room 60</title></rect><rect x="-41.2589" y="83.1384" width="2.5" height="2.5" fill="red" stroke="black" stroke-width="0.5"></rect>
<rect x="-175.666" y="105.388" width="40" height="20" fill="yellow" stroke="black" stroke-width="0.5"><title>room 61</title></rect><rect x="-144.916" y="108.138" width="2.5" height="2.5" fill="red" stroke="black" stroke-width="0.5"></rect>
<rect x="-57.6316" y="-88.5953" width="20" height="20" fill="yellow" stroke="black" stroke-width="0.5"><title>room 62</title></rect><rect x="-42.8816" y="-83.9449" width="2.5" height="2.5" fill="red" stroke="black" stroke-width="0.5"></rect>
<rect x="63.0734" y="132.419" width="20" height="20" fill="yellow" stroke="black" stroke-width="0.5"><title>room 63</title></rect><rect x="65.8234" y="135.169" width="2.5" height="2.5" fill="red" stroke="black" stroke-width="0.5"></rect>
<rect x="-144.275" y="8.97671" width="40" height="20" fill="yellow" stroke="black" stroke-width="0.5"><title>room 64</title></rect><rect x="-113.525" y="14.2733" width="2.5" height="2.5" fill="red" stroke="black" stroke-width="0.5"></rect><rect x="-137.525" y="23.7267" width="2.5" height="2.5" fill="red" stroke="black" stroke-width="0.5"></rect>
<rect x="-164.693" y="65.4593" width="20" height="40" fill="yellow" stroke="black" stroke-width="0.5"><title>room 65</title></rect><rect x="-149.943" y="78.4582" width="2.5" height="2.5" fill="red" stroke="black" stroke-width="0.5"></rect>
<rect x="102.526" y="54.1776" width="30" height="30" fill="yellow" stroke="black" stroke-width="0.5"><title>room 66</title></rect><rect x="107.276" y="66.6992" width="2.5" height="2.5" fill="red" stroke="black" stroke-width="0.5"></rect>
<rect x="105.684" y="-31.9828" width="20" height="20" fill="yellow" stroke="black" stroke-width="0.5"><title>room 67</title></rect><rect x="108.434" y="-29.2328" width="2.5" height="2.5" fill="red" stroke="black" stroke-width="0.5"></rect>
<rect x="12.1176" y="-81.7771" width="30" height="30" fill="yellow" stroke="black" stroke-width="0.5"><title>room 68</title></rect><rect x="34.8676" y="-64.0491" width="2.5" height="2.5" fill="red" stroke="black" stroke-width="0.5"></rect>
<rect x="51.675" y="-196.022" width="20" height="40" fill="yellow" stroke="black" stroke-width="0.5"><title>room 69</title></rect><rect x="66.425" y="-165.272" width="2.5" height="2.5" fill="red" stroke="black" stroke-width="0.5"></rect>
<rect x="51.5914" y="-151.143" width="20" height="40" fill="yellow" stroke="black" stroke-width="0.5"><title>room 70</title></rect><rect x="66.3414" y="-120.393" width="2.5" height="2.5" fill="red" stroke="black" stroke-width="0.5"></rect>
<rect x="-7.91256" y="-111.041" width="20" height="40" fill="yellow" stroke="black" stroke-width="0.5"><title>room 71</title></rect><rect x="-1.61351" y="-80.2914" width="2.5" height="2.5" fill="red" stroke="black" stroke-width="0.5"></rect>
<rect x="-75.8391" y="160.819" width="20" height="20" fill="yellow" stroke="black" stroke-width="0.5"><title>room 72</title></rect><rect x="-61.0891" y="163.569" width="2.5" height="2.5" fill="red" stroke="black" stroke-width="0.5"></rect><rect x="-73.0891" y="175.569" width="2.5" height="2.5" fill="red" stroke="black" stroke-width="0.5"></rect>
<rect x="102.826" y="113.894" width="20" height="40" fill="yellow" stroke="black" stroke-width="0.5"><title>room 73</title></rect><rect x="105.576" y="120.644" width="2.5" height="2.5" fill="red" stroke="black" stroke-width="0.5"></rect>
<rect x="-76.1039" y="141" width="20" height="20" fill="yellow" stroke="black" stroke-width="0.5"><title>room 74</title></rect><rect x="-67.5762" y="143.75" width="2.5" height="2.5" fill="red" stroke="black" stroke-width="0.5"></rect>
<rect x="82.9563" y="123.161" width="20" height="40" fill="yellow" stroke="black" stroke-width="0.5"><title>room 75</title></rect><rect x="89.856" y="129.911" width="2.5" height="2.5" fill="red" stroke="black" stroke-width="0.5"></rect>
<rect x="-105.847" y="147.454" width="30" height="30" fill="yellow" stroke="black" stroke-width="0.5"><title>room 76</title></rect><rect x="-83.0965" y="152.204" width="2.5" height="2.5" fill="red" stroke="black" stroke-width="0.5"></rect>
<rect x="-155.822" y="135.252" width="30" height="30" fill="yellow" stroke="black" stroke-width="0.5"><title>room 77</title></rect><rect x="-133.072" y="140.002" width="2.5" height="2.5" fill="red" stroke="black" stroke-width="0.5"></rect>
<rect x="42.9825" y="63.662" width="40" height="20" fill="yellow" stroke="black" stroke-width="0.5"><title>room 78</title></rect><rect x="53.847" y="78.412" width="2.5" height="2.5" fill="red" stroke="black" stroke-width="0.5"></rect>
<rect x="-6.38694" y="76.8089" width="30" height="30" fill="yellow" stroke="black" stroke-width="0.5"><title>room 79</title></rect><rect x="13.1812" y="81.5589" width="2.5" height="2.5" fill="red" stroke="black" stroke-width="0.5"></rect>
<rect x="17.0646" y="-52.0187" width="40" height="20" fill="yellow" stroke="black" stroke-width="0.5"><title>room 80</title></rect><rect x="46.2587" y="-49.2687" width="2.5" height="2.5" fill="red" stroke="black" stroke-width="0.5"></rect>
<rect x="-8.17645" y="-140.943" width="30" height="30" fill="yellow" stroke="black" stroke-width="0.5"><title>room 81</title></rect><rect x="14.5736" y="-118.193" width="2.5" height="2.5" fill="red" stroke="black" stroke-width="0.5"></rect>
<rect x="-88.2288" y="180.58" width="20" height="20" fill="yellow" stroke="black" stroke-width="0.5"><title>room 82</title></rect><rect x="-73.4788" y="183.33" width="2.5" height="2.5" fill="red" stroke="black" stroke-width="0.5"></rect>
<rect x="91.4005" y="-101.18" width="30" height="30" fill="yellow" stroke="black" stroke-width="0.5"><title>room 83</title></rect><rect x="96.1505" y="-78.4303" width="2.5" height="2.5" fill="red" stroke="black" stroke-width="0.5"></rect>
<rect x="-91.4853" y="-20.735" width="40" height="20" fill="yellow" stroke="black" stroke-width="0.5"><title>room 84</title></rect><rect x="-60.7353" y="-5.98502" width="2.5" height="2.5" fill="red" stroke="black" stroke-width="0.5"></rect>
<rect x="-65.6307" y="48.4903" width="40" height="20" fill="yellow" stroke="black" stroke-width="0.5"><title>room 85</title></rect><rect x="-36.6097" y="51.2403" width="2.5" height="2.5" fill="red" stroke="black" stroke-width="0.5"></rect>
<rect x="-51.8046" y="-40.7274" width="20" height="40" fill="yellow" stroke="black" stroke-width="0.5"><title>room 86</title></rect><rect x="-37.0546" y="-9.97738" width="2.5" height="2.5" fill="red" stroke="black" stroke-width="0.5"></rect>
<rect x="132.411" y="47.0451" width="20" height="20" fill="yellow" stroke="black" stroke-width="0.5"><title>room 87</title></rect><rect x="135.161" y="49.7951" width="2.5" height="2.5" fill="red" stroke="black" stroke-width="0.5"></rect>
<rect x="-131.386" y="-50.5767" width="30" height="30" fill="yellow" stroke="black" stroke-width="0.5"><title>room 88</title></rect><rect x="-108.636" y="-27.8267" width="2.5" height="2.5" fill="red" stroke="black" stroke-width="0.5"></rect>
<rect x="159.476" y="31.3796" width="20" height="40" fill="yellow" stroke="black" stroke-width="0.5"><title>room 89</title></rect><rect x="162.226" y="38.1296" width="2.5" height="2.5" fill="red" stroke="black" stroke-width="0.5"></rect>
<rect x="21.6944" y="-141.225" width="30" height="30" fill="yellow" stroke="black" stroke-width="0.5"><title>room 90</title></rect><rect x="30.6125" y="-118.475" width="2.5" height="2.5" fill="red" stroke="black" stroke-width="0.5"></rect>
<rect x="-26.7068" y="117.504" width="30" height="30" fill="yellow" stroke="black" stroke-width="0.5"><title>room 91</title></rect><rect x="-21.9568" y="122.254" width="2.5" height="2.5" fill="red" stroke="black" stroke-width="0.5"></rect>
<rect x="23.5051" y="96.737" width="20" height="40" fill="yellow" stroke="black" stroke-width="0.5"><title>room 92</title></rect><rect x="38.2551" y="103.487" width="2.5" height="2.5" fill="red" stroke="black" stroke-width="0.5"></rect>
<rect x="-218.084" y="-76.4662" width="20" height="40" fill="yellow" stroke="black" stroke-width="0.5"><title>room 93</title></rect><rect x="-203.334" y="-45.7162" width="2.5" height="2.5" fill="red" stroke="black" stroke-width="0.5"></rect>
<rect x="116.524" y="-71.7711" width="20" height="40" fill="yellow" stroke="black" stroke-width="0.5"><title>room 94</title></rect><rect x="119.274" y="-45.0034" width="2.5" height="2.5" fill="red" stroke="black" stroke-width="0.5"></rect>
<rect x="91.49" y="-162.111" width="20" height="40" fill="yellow" stroke="black" stroke-width="0.5"><title>room 95</title></rect><rect x="106.24" y="-131.361" width="2.5" height="2.5" fill="red" stroke="black" stroke-width="0.5"></rect>
<rect x="-55.9747" y="147.362" width="20" height="40" fill="yellow" stroke="black" stroke-width="0.5"><title>room 96</title></rect><rect x="-53.2247" y="154.112" width="2.5" height="2.5" fill="red" stroke="black" stroke-width="0.5"></rect>
<rect x="122.314" y="-162.862" width="30" height="30" fill="yellow" stroke="black" stroke-width="0.5"><title>room 97</title></rect><rect x="127.064" y="-140.112" width="2.5" height="2.5" fill="red" stroke="black" stroke-width="0.5"></rect>
<rect x="71.5212" y="-210.901" width="20" height="40" fill="yellow" stroke="black" stroke-width="0.5"><title>room 98</title></rect><rect x="80.2905" y="-180.151" width="2.5" height="2.5" fill="red" stroke="black" stroke-width="0.5"></rect>
<rect x="-153.251" y="28.7201" width="20" height="20" fill="yellow" stroke="black" stroke-width="0.5"><title>room 99</title></rect><rect x="-138.501" y="31.4701" width="2.5" height="2.5" fill="red" stroke="black" stroke-width="0.5"></rect>
<line x1="-13.088762880233741" y1="32.31045250974471" x2="13.465781587393753" y2="-8.301305483409468" stroke-width="0.5" stroke="blue" />
<line x1="-13.088762880233741" y1="44.31045250974471" x2="11.249316614417797" y2="61.04557524405293" stroke-width="0.5" stroke="blue" />
<line x1="-37.088762880233745" y1="44.31045250974471" x2="-69.37192202505014" y2="52.58829051333111" stroke-width="0.5" stroke="blue" />
<line x1="-37.088762880233745" y1="32.31045250974471" x2="-72.74703309228993" y2="18.069869425116217" stroke-width="0.5" stroke="blue" />
<line x1="-17.6610995670503" y1="44.31045250974471" x2="-17.661108480328213" y2="56.27931654113418" stroke-width="0.5" stroke="blue" />
<line x1="-13.088762880233741" y1="32.31045250974471" x2="18.17819637580415" y2="29.46981921310839" stroke-width="0.5" stroke="blue" />
<line x1="-37.088762880233745" y1="32.31045250974471" x2="-41.075909576389456" y2="22.90115411659088" stroke-width="0.5" stroke="blue" />
<line x1="-35.359720108803245" y1="44.31045250974471" x2="-35.35973035842678" y2="52.490313462398255" stroke-width="0.5" stroke="blue" />
<line x1="31.465781587393753" y1="-26.301305483409468" x2="45.897668341600024" y2="-55.82123325845842" stroke-width="0.5" stroke="blue" />
<line x1="13.465781587393753" y1="-26.301305483409468" x2="6.348389043346278" y2="-47.38490631872769" stroke-width="0.5" stroke="blue" />
<line x1="13.465781587393753" y1="-25.971000730728186" x2="0.04890636964526607" y2="-25.971000352100674" stroke-width="0.5" stroke="blue" />
<line x1="31.465781587393753" y1="-8.301305483409468" x2="41.124331566142565" y2="-8.174361973971852" stroke-width="0.5" stroke="blue" />
<line x1="57.897668341600024" y1="-67.82123325845842" x2="67.65277129871033" y2="-87.66099036361756" stroke-width="0.5" stroke="blue" />
<line x1="57.897668341600024" y1="-62.85168490590829" x2="67.77936342794283" y2="-62.8516791638775" stroke-width="0.5" stroke="blue" />
<line x1="45.897668341600024" y1="-67.82123325845842" x2="36.03060917688863" y2="-87.49818563710475" stroke-width="0.5" stroke="blue" />
<line x1="57.897668341600024" y1="-55.82123325845842" x2="61.000759855344654" y2="-48.07928355711322" stroke-width="0.5" stroke="blue" />
<line x1="51.87298396841178" y1="-67.82123325845842" x2="51.87298503981064" y2="-79.53067830401126" stroke-width="0.5" stroke="blue" />
<line x1="45.897668341600024" y1="-62.79914581657012" x2="36.1175947314631" y2="-62.79914631810734" stroke-width="0.5" stroke="blue" />
<line x1="47.508666039047476" y1="-55.82123325845842" x2="47.508677130226594" y2="-48.01872589855247" stroke-width="0.5" stroke="blue" />
<line x1="18.81469722069614" y1="61.04557524405293" x2="18.814697523497323" y2="53.216240034741794" stroke-width="0.5" stroke="blue" />
<line x1="35.24931661441779" y1="73.04557524405293" x2="47.21147318832693" y2="87.5179403294706" stroke-width="0.5" stroke="blue" />
<line x1="35.24931661441779" y1="61.04557524405293" x2="50.91082003120546" y2="59.489029722279646" stroke-width="0.5" stroke="blue" />
<line x1="14.43119253391331" y1="73.04557524405293" x2="14.43118636191031" y2="82.80886123565209" stroke-width="0.5" stroke="blue" />
<line x1="6.382064474624838" y1="41.216240034741794" x2="6.3820631778814745" y2="29.623687217150838" stroke-width="0.5" stroke="blue" />
<line x1="2.3800781297756686" y1="41.216240034741794" x2="-11.359322307198418" y2="22.46885108131349" stroke-width="0.5" stroke="blue" />
<line x1="85.65277129871033" y1="-105.66099036361756" x2="95.39094732354086" y2="-106.14902215805108" stroke-width="0.5" stroke="blue" />
<line x1="80.57811272357843" y1="-105.66099036361756" x2="80.57811479927031" y2="-115.51543284063634" stroke-width="0.5" stroke="blue" />
<line x1="67.65277129871033" y1="-105.66099036361756" x2="67.5913889844137" y2="-119.1426368852432" stroke-width="0.5" stroke="blue" />
<line x1="59.21147318832693" y1="99.5179403294706" x2="71.25574011985229" y2="107.45133309120905" stroke-width="0.5" stroke="blue" />
<line x1="47.21147318832693" y1="90.22105808987241" x2="39.40027706404125" y2="90.22106033254067" stroke-width="0.5" stroke="blue" />
<line x1="53.297218309895676" y1="99.5179403294706" x2="53.29721629440076" y2="111.27412482228486" stroke-width="0.5" stroke="blue" />
<line x1="59.21147318832693" y1="93.53675548242627" x2="70.94129202196198" y2="93.53675737982007" stroke-width="0.5" stroke="blue" />
<line x1="55.09700066115163" y1="87.5179403294706" x2="55.09699597914198" y2="79.66202591542546" stroke-width="0.5" stroke="blue" />
<line x1="47.21147318832693" y1="99.5179403294706" x2="39.50505759518676" y2="104.73699842871619" stroke-width="0.5" stroke="blue" />
<line x1="-81.37192202505014" y1="64.58829051333112" x2="-87.61996361003388" y2="86.15097551407523" stroke-width="0.5" stroke="blue" />
<line x1="-81.37192202505014" y1="59.566382777748466" x2="-91.1911291148834" y2="59.5663865556455" stroke-width="0.5" stroke="blue" />
<line x1="-81.37192202505014" y1="52.58829051333111" x2="-92.37530695575917" y2="44.77594352872396" stroke-width="0.5" stroke="blue" />
<line x1="-69.75710913849987" y1="52.58829051333111" x2="-69.75710069852708" y2="44.69636568067877" stroke-width="0.5" stroke="blue" />
<line x1="74.91082003120546" y1="47.489029722279646" x2="81.010517730031" y2="39.854918362401165" stroke-width="0.5" stroke="blue" />
<line x1="74.91082003120546" y1="55.60484820063802" x2="86.72018936398365" y2="55.60484573619158" stroke-width="0.5" stroke="blue" />
<line x1="-90.96965044675467" y1="110.15097551407523" x2="-90.96965218105258" y2="123.73302991290447" stroke-width="0.5" stroke="blue" />
<line x1="-99.61996361003388" y1="100.02503652908938" x2="-111.45448301944666" y2="100.02503419913694" stroke-width="0.5" stroke="blue" />
<line x1="-99.61996361003388" y1="110.15097551407523" x2="-111.95245583299582" y2="111.79573309678702" stroke-width="0.5" stroke="blue" />
<line x1="-87.61996361003388" y1="110.15097551407523" x2="-72.54853941366206" y2="125.19839271538726" stroke-width="0.5" stroke="blue" />
<line x1="105.010517730031" y1="27.854918362401165" x2="108.01804932690791" y2="20.147461478617878" stroke-width="0.5" stroke="blue" />
<line x1="105.010517730031" y1="39.05909382611135" x2="116.65195676573737" y2="39.059101680862675" stroke-width="0.5" stroke="blue" />
<line x1="-96.74703309228993" y1="6.069869425116217" x2="-116.98282192334207" y2="3.1626520336721633" stroke-width="0.5" stroke="blue" />
<line x1="-95.97960602961555" y1="6.069869425116217" x2="-95.97960764212387" y2="-4.748883000518914" stroke-width="0.5" stroke="blue" />
<line x1="-96.74703309228993" y1="15.523286131290215" x2="-112.27452905040492" y2="15.52329269539266" stroke-width="0.5" stroke="blue" />
<line x1="95.25574011985229" y1="107.68209661127011" x2="108.73768072738503" y2="107.68210609645803" stroke-width="0.5" stroke="blue" />
<line x1="95.25574011985229" y1="119.45133309120905" x2="106.82575766936792" y2="121.89373070742656" stroke-width="0.5" stroke="blue" />
<line x1="91.10604279439241" y1="119.45133309120905" x2="91.10604006930738" y2="131.16062368447214" stroke-width="0.5" stroke="blue" />
<line x1="132.0180493269079" y1="17.639887325845862" x2="143.7043051358421" y2="17.63989020067841" stroke-width="0.5" stroke="blue" />
<line x1="-11.651610956653723" y1="-65.38490631872769" x2="-13.840222303392704" y2="-76.85167643897994" stroke-width="0.5" stroke="blue" />
<line x1="-0.3635152918310065" y1="-65.38490631872769" x2="-0.3635128630229487" y2="-79.04138052799807" stroke-width="0.5" stroke="blue" />
<line x1="107.39094732354086" y1="-117.70582713210109" x2="115.2185266474795" y2="-117.70585085935733" stroke-width="0.5" stroke="blue" />
<line x1="-134.98282192334207" y1="-14.837347966327837" x2="-137.26754530872995" y2="-26.287271145800453" stroke-width="0.5" stroke="blue" />
<line x1="-134.98282192334207" y1="-7.170423931478953" x2="-148.65666666000578" y2="-7.170423598092234" stroke-width="0.5" stroke="blue" />
<line x1="85.77936342794283" y1="-75.88213081132764" x2="97.40049424563163" y2="-77.18034361371042" stroke-width="0.5" stroke="blue" />
<line x1="-109.1911291148834" y1="67.25081115484856" x2="-120.92752301305546" y2="67.25080561351044" stroke-width="0.5" stroke="blue" />
<line x1="98.72018936398365" y1="67.94915150108153" x2="108.52606225687707" y2="67.94916025612645" stroke-width="0.5" stroke="blue" />
<line x1="81.53163312437303" y1="-127.51543284063634" x2="81.5316307272358" y2="-139.3061931593054" stroke-width="0.5" stroke="blue" />
<line x1="-0.8800924872301614" y1="5.623687217150838" x2="-0.8800912751736103" y2="-5.810347371438159" stroke-width="0.5" stroke="blue" />
<line x1="-100.31933901777339" y1="141.73302991290447" x2="-109.91461406754216" y2="143.6483500888328" stroke-width="0.5" stroke="blue" />
<line x1="-31.840222303392704" y1="-94.85167643897994" x2="-41.458463235750216" y2="-96.49489918143644" stroke-width="0.5" stroke="blue" />
<line x1="-31.840222303392704" y1="-82.69488604447675" x2="-41.63157921000926" y2="-82.69487033271409" stroke-width="0.5" stroke="blue" />
<line x1="-21.6811911276285" y1="80.27931654113418" x2="-21.681178468649872" y2="93.98444669543177" stroke-width="0.5" stroke="blue" />
<line x1="155.7043051358421" y1="39.13231604790616" x2="163.47608334315763" y2="39.379563343388334" stroke-width="0.5" stroke="blue" />
<line x1="87.5598076274703" y1="-163.3061931593054" x2="99.10692116623515" y2="-166.4979741926017" stroke-width="0.5" stroke="blue" />
<line x1="75.5598076274703" y1="-163.3061931593054" x2="67.67499640063022" y2="-164.02226194180523" stroke-width="0.5" stroke="blue" />
<line x1="81.54049346531949" y1="-163.3061931593054" x2="81.54049571325201" y2="-178.9005338239064" stroke-width="0.5" stroke="blue" />
<line x1="18.030609176888635" y1="-105.49818563710475" x2="15.823552962264817" y2="-116.94273993668702" stroke-width="0.5" stroke="blue" />
<line x1="31.86250950012359" y1="-105.49818563710475" x2="31.862513068973335" y2="-117.22539446513079" stroke-width="0.5" stroke="blue" />
<line x1="-96.33806546851405" y1="-16.748883000518916" x2="-96.33806180811328" y2="-24.578267815089248" stroke-width="0.5" stroke="blue" />
<line x1="-107.21218057945067" y1="-16.748883000518916" x2="-107.38630651891788" y2="-26.576687628179194" stroke-width="0.5" stroke="blue" />
<line x1="73.00075985534465" y1="-41.90749135593548" x2="84.7820673880573" y2="-41.907491734283546" stroke-width="0.5" stroke="blue" />
<line x1="-29.35932230719842" y1="4.468851081313488" x2="-35.80459210561978" y2="-8.727379329607533" stroke-width="0.5" stroke="blue" />
<line x1="127.2185266474795" y1="-122.1145184717084" x2="137.02724709619608" y2="-122.11452568990558" stroke-width="0.5" stroke="blue" />
<line x1="115.2185266474795" y1="-129.26265583340734" x2="107.49004613910189" y2="-130.11082894697864" stroke-width="0.5" stroke="blue" />
<line x1="127.2185266474795" y1="-129.26265583340734" x2="128.31429789990588" y2="-138.86164601849404" stroke-width="0.5" stroke="blue" />
<line x1="-135.45448301944666" y1="101.89909521415119" x2="-143.66649731578738" y2="109.38833894700947" stroke-width="0.5" stroke="blue" />
<line x1="-172.65666666000578" y1="-16.403424995999547" x2="-174.4277917247274" y2="-26.019918871039934" stroke-width="0.5" stroke="blue" />
<line x1="-36.028418612955576" y1="111.98444669543177" x2="-36.02841581247604" y2="123.73578581831134" stroke-width="0.5" stroke="blue" />
<line x1="-39.43227777740677" y1="93.98444669543177" x2="-40.00888859638893" y2="84.38839070427433" stroke-width="0.5" stroke="blue" />
<line x1="-21.432277777406764" y1="111.98444669543177" x2="-20.70681801623644" y2="123.5035418384" stroke-width="0.5" stroke="blue" />
<line x1="-50.62455664802486" y1="141.73578581831134" x2="-59.83914213241735" y2="164.81859017348893" stroke-width="0.5" stroke="blue" />
<line x1="-192.4277917247274" y1="-44.019918871039934" x2="-202.0836762939623" y2="-44.4662322267026" stroke-width="0.5" stroke="blue" />
<line x1="-59.075909576389456" y1="4.901154116590883" x2="-59.4853287829187" y2="-4.7350179713596" stroke-width="0.5" stroke="blue" />
<line x1="59.38296141596951" y1="135.27412482228488" x2="67.07339962788902" y2="136.4193283566567" stroke-width="0.5" stroke="blue" />
<line x1="-138.92752301305546" y1="79.70824152389423" x2="-148.69266891766267" y2="79.70824153537504" stroke-width="0.5" stroke="blue" />
<line x1="-129.95245583299584" y1="129.79573309678702" x2="-131.82184908644166" y2="141.2521592060581" stroke-width="0.5" stroke="blue" />
<line x1="-66.32624141415981" y1="137.19839271538726" x2="-66.32624361560187" y2="144.99964390285066" stroke-width="0.5" stroke="blue" />
<line x1="-72.54853941366206" y1="137.19839271538726" x2="-81.84654042722673" y2="153.4535859923152" stroke-width="0.5" stroke="blue" />
<line x1="-60.548539413662056" y1="137.19839271538726" x2="-51.97465390027452" y2="155.3618762994943" stroke-width="0.5" stroke="blue" />
<line x1="108.7820673880573" y1="-35.7356995331058" x2="109.6839331057305" y2="-27.982817101387433" stroke-width="0.5" stroke="blue" />
<line x1="108.7820673880573" y1="-43.75341814966624" x2="120.5238505484641" y2="-43.75342730304101" stroke-width="0.5" stroke="blue" />
<line x1="128.65195676573737" y1="50.26327714457286" x2="136.41100972862012" y2="51.04511486911961" stroke-width="0.5" stroke="blue" />
<line x1="-136.2745290504049" y1="24.97670940156666" x2="-137.25113933071694" y2="32.72009583274555" stroke-width="0.5" stroke="blue" />
<line x1="-71.83914213241735" y1="176.81859017348893" x2="-72.22882917851634" y2="184.58037079963998" stroke-width="0.5" stroke="blue" />
</svg>