<svg width="100%" height="100%" viewBox="-213.699 -253.917 459.526 455.8"  xmlns="http://www.w3.org/2000/svg" xmlns:xlink="http://www.w3.org/1999/xlink" version="1.1">
<rect x="-26.7462" y="-47.1952" width="20" height="20" fill="yellow" stroke="black" stroke-width="0.5"><title>room 0</title></rect><rect x="-11.9962" y="-32.4452" width="2.5" height="2.5" fill="red" stroke="black" stroke-width="0.5"></rect><rect x="-23.9962" y="-32.4452" width="2.5" height="2.5" fill="red" stroke="black" stroke-width="0.5"></rect><rect x="-23.9962" y="-44.4452" width="2.5" height="2.5" fill="red" stroke="black" stroke-width="0.5"></rect><rect x="-23.9962" y="-44.4452" width="2.5" height="2.5" fill="red" stroke="black" stroke-width="0.5"></rect><rect x="-11.9962" y="-44.4452" width="2.5" height="2.5" fill="red" stroke="black" stroke-width="0.5"></rect><rect x="-17.8192" y="-32.4452" width="2.5" height="2.5" fill="red" stroke="black" stroke-width="0.5"></rect><rect x="-11.9962" y="-38.6105" width="2.5" height="2.5" fill="red" stroke="black" stroke-width="0.5"></rect><rect x="-23.9962" y="-32.4452" width="2.5" height="2.5" fill="red" stroke="black" stroke-width="0.5"></rect>
<rect x="33.2242" y="-11.3779" width="20" height="20" fill="yellow" stroke="black" stroke-width="0.5"><title>room 1</title></rect><rect x="35.9742" y="-8.62789" width="2.5" height="2.5" fill="red" stroke="black" stroke-width="0.5"></rect><rect x="47.9742" y="3.37211" width="2.5" height="2.5" fill="red" stroke="black" stroke-width="0.5"></rect><rect x="35.9742" y="-5.83973" width="2.5" height="2.5" fill="red" stroke="black" stroke-width="0.5"></rect><rect x="47.9742" y="-8.62789" width="2.5" height="2.5" fill="red" stroke="black" stroke-width="0.5"></rect><rect x="35.9742" y="3.37211" width="2.5" height="2.5" fill="red" stroke="black" stroke-width="0.5"></rect><rect x="47.9742" y="-5.199" width="2.5" height="2.5" fill="red" stroke="black" stroke-width="0.5"></rect><rect x="42.3177" y="3.37211" width="2.5" height="2.5" fill="red" stroke="black" stroke-width="0.5"></rect>
<rect x="64.436" y="42.9178" width="20" height="20" fill="yellow" stroke="black" stroke-width="0.5"><title>room 2</title></rect><rect x="67.186" y="45.6678" width="2.5" height="2.5" fill="red" stroke="black" stroke-width="0.5"></rect><rect x="79.186" y="57.6678" width="2.5" height="2.5" fill="red" stroke="black" stroke-width="0.5"></rect><rect x="72.936" y="57.6678" width="2.5" height="2.5" fill="red" stroke="black" stroke-width="0.5"></rect><rect x="79.186" y="54.0407" width="2.5" height="2.5" fill="red" stroke="black" stroke-width="0.5"></rect><rect x="79.186" y="45.6678" width="2.5" height="2.5" fill="red" stroke="black" stroke-width="0.5"></rect><rect x="67.186" y="54.2022" width="2.5" height="2.5" fill="red" stroke="black" stroke-width="0.5"></rect>
<rect x="93.8573" y="77.3485" width="20" height="20" fill="yellow" stroke="black" stroke-width="0.5"><title>room 3</title></rect><rect x="96.6073" y="80.0985" width="2.5" height="2.5" fill="red" stroke="black" stroke-width="0.5"></rect><rect x="108.607" y="92.0985" width="2.5" height="2.5" fill="red" stroke="black" stroke-width="0.5"></rect>
<rect x="-66.9027" y="11.2185" width="20" height="20" fill="yellow" stroke="black" stroke-width="0.5"><title>room 4</title></rect><rect x="-52.1527" y="13.9685" width="2.5" height="2.5" fill="red" stroke="black" stroke-width="0.5"></rect><rect x="-52.1527" y="20.394" width="2.5" height="2.5" fill="red" stroke="black" stroke-width="0.5"></rect><rect x="-52.1527" y="25.9685" width="2.5" height="2.5" fill="red" stroke="black" stroke-width="0.5"></rect><rect x="-64.1527" y="13.9685" width="2.5" height="2.5" fill="red" stroke="black" stroke-width="0.5"></rect><rect x="-64.1527" y="25.9685" width="2.5" height="2.5" fill="red" stroke="black" stroke-width="0.5"></rect><rect x="-64.1527" y="25.9685" width="2.5" height="2.5" fill="red" stroke="black" stroke-width="0.5"></rect><rect x="-64.1527" y="20.0235" width="2.5" height="2.5" fill="red" stroke="black" stroke-width="0.5"></rect>
<rect x="125.608" y="94.5447" width="20" height="20" fill="yellow" stroke="black" stroke-width="0.5"><title>room 5</title></rect><rect x="128.358" y="97.2947" width="2.5" height="2.5" fill="red" stroke="black" stroke-width="0.5"></rect><rect x="140.358" y="103.349" width="2.5" height="2.5" fill="red" stroke="black" stroke-width="0.5"></rect><rect x="128.358" y="109.295" width="2.5" height="2.5" fill="red" stroke="black" stroke-width="0.5"></rect><rect x="140.358" y="97.2947" width="2.5" height="2.5" fill="red" stroke="black" stroke-width="0.5"></rect><rect x="140.358" y="109.295" width="2.5" height="2.5" fill="red" stroke="black" stroke-width="0.5"></rect><rect x="133.381" y="97.2947" width="2.5" height="2.5" fill="red" stroke="black" stroke-width="0.5"></rect>
<rect x="-37.1971" y="12.0695" width="20" height="20" fill="yellow" stroke="black" stroke-width="0.5"><title>room 6</title></rect><rect x="-34.4471" y="20.394" width="2.5" height="2.5" fill="red" stroke="black" stroke-width="0.5"></rect><rect x="-22.4471" y="26.8195" width="2.5" height="2.5" fill="red" stroke="black" stroke-width="0.5"></rect>
<rect x="-54.8742" y="41.5388" width="20" height="20" fill="yellow" stroke="black" stroke-width="0.5"><title>room 7</title></rect><rect x="-52.1242" y="44.2888" width="2.5" height="2.5" fill="red" stroke="black" stroke-width="0.5"></rect><rect x="-52.1242" y="56.2888" width="2.5" height="2.5" fill="red" stroke="black" stroke-width="0.5"></rect>
<rect x="-85.9144" y="-18.2648" width="20" height="20" fill="yellow" stroke="black" stroke-width="0.5"><title>room 8</title></rect><rect x="-71.1644" y="-3.5148" width="2.5" height="2.5" fill="red" stroke="black" stroke-width="0.5"></rect>
<rect x="3.54396" y="-17.8016" width="20" height="20" fill="yellow" stroke="black" stroke-width="0.5"><title>room 9</title></rect><rect x="18.294" y="-5.83973" width="2.5" height="2.5" fill="red" stroke="black" stroke-width="0.5"></rect><rect x="18.294" y="-15.0516" width="2.5" height="2.5" fill="red" stroke="black" stroke-width="0.5"></rect>
<rect x="-114.502" y="40.9015" width="20" height="20" fill="yellow" stroke="black" stroke-width="0.5"><title>room 10</title></rect><rect x="-99.7521" y="43.6515" width="2.5" height="2.5" fill="red" stroke="black" stroke-width="0.5"></rect><rect x="-111.752" y="55.6515" width="2.5" height="2.5" fill="red" stroke="black" stroke-width="0.5"></rect><rect x="-111.61" y="43.6515" width="2.5" height="2.5" fill="red" stroke="black" stroke-width="0.5"></rect><rect x="-111.752" y="53.2048" width="2.5" height="2.5" fill="red" stroke="black" stroke-width="0.5"></rect><rect x="-111.752" y="43.6515" width="2.5" height="2.5" fill="red" stroke="black" stroke-width="0.5"></rect>
<rect x="62.2344" y="-46.2133" width="20" height="20" fill="yellow" stroke="black" stroke-width="0.5"><title>room 11</title></rect><rect x="64.9844" y="-31.4633" width="2.5" height="2.5" fill="red" stroke="black" stroke-width="0.5"></rect><rect x="76.9844" y="-43.4633" width="2.5" height="2.5" fill="red" stroke="black" stroke-width="0.5"></rect><rect x="65.3475" y="-43.4633" width="2.5" height="2.5" fill="red" stroke="black" stroke-width="0.5"></rect>
<rect x="4.12511" y="12.0091" width="20" height="20" fill="yellow" stroke="black" stroke-width="0.5"><title>room 12</title></rect><rect x="18.8751" y="14.7591" width="2.5" height="2.5" fill="red" stroke="black" stroke-width="0.5"></rect><rect x="13.1562" y="26.7591" width="2.5" height="2.5" fill="red" stroke="black" stroke-width="0.5"></rect>
<rect x="-56.189" y="-92.424" width="20" height="20" fill="yellow" stroke="black" stroke-width="0.5"><title>room 13</title></rect><rect x="-41.439" y="-77.674" width="2.5" height="2.5" fill="red" stroke="black" stroke-width="0.5"></rect><rect x="-53.439" y="-77.674" width="2.5" height="2.5" fill="red" stroke="black" stroke-width="0.5"></rect><rect x="-53.439" y="-89.674" width="2.5" height="2.5" fill="red" stroke="black" stroke-width="0.5"></rect><rect x="-47.3287" y="-89.674" width="2.5" height="2.5" fill="red" stroke="black" stroke-width="0.5"></rect>
<rect x="-25.0931" y="41.6947" width="20" height="20" fill="yellow" stroke="black" stroke-width="0.5"><title>room 14</title></rect><rect x="-22.3431" y="44.4447" width="2.5" height="2.5" fill="red" stroke="black" stroke-width="0.5"></rect><rect x="-22.3431" y="56.4447" width="2.5" height="2.5" fill="red" stroke="black" stroke-width="0.5"></rect>
<rect x="4.68724" y="41.7479" width="20" height="20" fill="yellow" stroke="black" stroke-width="0.5"><title>room 15</title></rect><rect x="13.1562" y="44.4979" width="2.5" height="2.5" fill="red" stroke="black" stroke-width="0.5"></rect><rect x="7.43724" y="56.4979" width="2.5" height="2.5" fill="red" stroke="black" stroke-width="0.5"></rect>
<rect x="155.329" y="94.6542" width="20" height="20" fill="yellow" stroke="black" stroke-width="0.5"><title>room 16</title></rect><rect x="158.079" y="103.349" width="2.5" height="2.5" fill="red" stroke="black" stroke-width="0.5"></rect><rect x="170.079" y="109.404" width="2.5" height="2.5" fill="red" stroke="black" stroke-width="0.5"></rect><rect x="170.079" y="97.4042" width="2.5" height="2.5" fill="red" stroke="black" stroke-width="0.5"></rect>
<rect x="-128.465" y="77.6124" width="20" height="20" fill="yellow" stroke="black" stroke-width="0.5"><title>room 17</title></rect><rect x="-113.715" y="80.3624" width="2.5" height="2.5" fill="red" stroke="black" stroke-width="0.5"></rect><rect x="-125.715" y="92.3624" width="2.5" height="2.5" fill="red" stroke="black" stroke-width="0.5"></rect><rect x="-119.846" y="92.3624" width="2.5" height="2.5" fill="red" stroke="black" stroke-width="0.5"></rect><rect x="-113.715" y="92.3624" width="2.5" height="2.5" fill="red" stroke="black" stroke-width="0.5"></rect>
<rect x="63.936" y="77.4572" width="20" height="20" fill="yellow" stroke="black" stroke-width="0.5"><title>room 18</title></rect><rect x="72.936" y="80.2072" width="2.5" height="2.5" fill="red" stroke="black" stroke-width="0.5"></rect><rect x="78.686" y="92.2072" width="2.5" height="2.5" fill="red" stroke="black" stroke-width="0.5"></rect><rect x="66.686" y="86.3327" width="2.5" height="2.5" fill="red" stroke="black" stroke-width="0.5"></rect><rect x="66.686" y="92.2072" width="2.5" height="2.5" fill="red" stroke="black" stroke-width="0.5"></rect>
<rect x="-85.8993" y="-77.6573" width="20" height="20" fill="yellow" stroke="black" stroke-width="0.5"><title>room 19</title></rect><rect x="-71.1493" y="-74.9073" width="2.5" height="2.5" fill="red" stroke="black" stroke-width="0.5"></rect><rect x="-83.1493" y="-74.9073" width="2.5" height="2.5" fill="red" stroke="black" stroke-width="0.5"></rect><rect x="-77.1054" y="-74.9073" width="2.5" height="2.5" fill="red" stroke="black" stroke-width="0.5"></rect>
<rect x="-85.6952" y="-136.948" width="20" height="20" fill="yellow" stroke="black" stroke-width="0.5"><title>room 20</title></rect><rect x="-70.9452" y="-122.198" width="2.5" height="2.5" fill="red" stroke="black" stroke-width="0.5"></rect><rect x="-76.9612" y="-134.198" width="2.5" height="2.5" fill="red" stroke="black" stroke-width="0.5"></rect><rect x="-70.9452" y="-134.198" width="2.5" height="2.5" fill="red" stroke="black" stroke-width="0.5"></rect><rect x="-82.9452" y="-134.198" width="2.5" height="2.5" fill="red" stroke="black" stroke-width="0.5"></rect><rect x="-82.9452" y="-122.198" width="2.5" height="2.5" fill="red" stroke="black" stroke-width="0.5"></rect>
<rect x="-56.2302" y="-62.5762" width="20" height="20" fill="yellow" stroke="black" stroke-width="0.5"><title>room 21</title></rect><rect x="-41.4802" y="-47.8262" width="2.5" height="2.5" fill="red" stroke="black" stroke-width="0.5"></rect>
<rect x="63.0741" y="-16.5201" width="20" height="20" fill="yellow" stroke="black" stroke-width="0.5"><title>room 22</title></rect><rect x="65.8241" y="-5.199" width="2.5" height="2.5" fill="red" stroke="black" stroke-width="0.5"></rect><rect x="77.8241" y="-13.7701" width="2.5" height="2.5" fill="red" stroke="black" stroke-width="0.5"></rect><rect x="77.8241" y="-5.39586" width="2.5" height="2.5" fill="red" stroke="black" stroke-width="0.5"></rect><rect x="72.1051" y="-1.77011" width="2.5" height="2.5" fill="red" stroke="black" stroke-width="0.5"></rect>
<rect x="91.9959" y="-41.5199" width="20" height="20" fill="yellow" stroke="black" stroke-width="0.5"><title>room 23</title></rect><rect x="94.7459" y="-26.7699" width="2.5" height="2.5" fill="red" stroke="black" stroke-width="0.5"></rect><rect x="106.746" y="-38.7699" width="2.5" height="2.5" fill="red" stroke="black" stroke-width="0.5"></rect>
<rect x="-158.27" y="90.4796" width="20" height="20" fill="yellow" stroke="black" stroke-width="0.5"><title>room 24</title></rect><rect x="-143.52" y="93.2296" width="2.5" height="2.5" fill="red" stroke="black" stroke-width="0.5"></rect><rect x="-155.52" y="105.23" width="2.5" height="2.5" fill="red" stroke="black" stroke-width="0.5"></rect>
<rect x="-85.7271" y="-166.667" width="20" height="20" fill="yellow" stroke="black" stroke-width="0.5"><title>room 25</title></rect><rect x="-76.9612" y="-151.917" width="2.5" height="2.5" fill="red" stroke="black" stroke-width="0.5"></rect><rect x="-82.9771" y="-163.917" width="2.5" height="2.5" fill="red" stroke="black" stroke-width="0.5"></rect>
<rect x="-170.966" y="120.103" width="20" height="20" fill="yellow" stroke="black" stroke-width="0.5"><title>room 26</title></rect><rect x="-156.216" y="122.853" width="2.5" height="2.5" fill="red" stroke="black" stroke-width="0.5"></rect>
<rect x="111.062" y="124.233" width="20" height="20" fill="yellow" stroke="black" stroke-width="0.5"><title>room 27</title></rect><rect x="125.812" y="126.983" width="2.5" height="2.5" fill="red" stroke="black" stroke-width="0.5"></rect><rect x="113.812" y="138.983" width="2.5" height="2.5" fill="red" stroke="black" stroke-width="0.5"></rect><rect x="125.812" y="138.983" width="2.5" height="2.5" fill="red" stroke="black" stroke-width="0.5"></rect>
<rect x="-8.55453" y="-77.3511" width="20" height="20" fill="yellow" stroke="black" stroke-width="0.5"><title>room 28</title></rect><rect x="-5.80453" y="-62.6011" width="2.5" height="2.5" fill="red" stroke="black" stroke-width="0.5"></rect><rect x="-3.96125" y="-74.6011" width="2.5" height="2.5" fill="red" stroke="black" stroke-width="0.5"></rect><rect x="6.19547" y="-74.6011" width="2.5" height="2.5" fill="red" stroke="black" stroke-width="0.5"></rect><rect x="6.19547" y="-68.4438" width="2.5" height="2.5" fill="red" stroke="black" stroke-width="0.5"></rect>
<rect x="153.381" y="64.9395" width="20" height="20" fill="yellow" stroke="black" stroke-width="0.5"><title>room 29</title></rect><rect x="156.131" y="79.6895" width="2.5" height="2.5" fill="red" stroke="black" stroke-width="0.5"></rect><rect x="168.131" y="67.6895" width="2.5" height="2.5" fill="red" stroke="black" stroke-width="0.5"></rect>
<rect x="182.984" y="51.1272" width="20" height="20" fill="yellow" stroke="black" stroke-width="0.5"><title>room 30</title></rect><rect x="185.734" y="65.8772" width="2.5" height="2.5" fill="red" stroke="black" stroke-width="0.5"></rect>
<rect x="140.9" y="124.228" width="20" height="20" fill="yellow" stroke="black" stroke-width="0.5"><title>room 31</title></rect><rect x="143.65" y="126.978" width="2.5" height="2.5" fill="red" stroke="black" stroke-width="0.5"></rect>
<rect x="-115.556" y="-92.0458" width="20" height="20" fill="yellow" stroke="black" stroke-width="0.5"><title>room 32</title></rect><rect x="-100.806" y="-77.2958" width="2.5" height="2.5" fill="red" stroke="black" stroke-width="0.5"></rect><rect x="-112.806" y="-89.2958" width="2.5" height="2.5" fill="red" stroke="black" stroke-width="0.5"></rect>
<rect x="-126.218" y="11.2682" width="20" height="20" fill="yellow" stroke="black" stroke-width="0.5"><title>room 33</title></rect><rect x="-111.61" y="26.0182" width="2.5" height="2.5" fill="red" stroke="black" stroke-width="0.5"></rect><rect x="-123.468" y="14.0182" width="2.5" height="2.5" fill="red" stroke="black" stroke-width="0.5"></rect>
<rect x="-56.0222" y="-152.92" width="20" height="20" fill="yellow" stroke="black" stroke-width="0.5"><title>room 34</title></rect><rect x="-53.2722" y="-138.17" width="2.5" height="2.5" fill="red" stroke="black" stroke-width="0.5"></rect><rect x="-47.2837" y="-150.17" width="2.5" height="2.5" fill="red" stroke="black" stroke-width="0.5"></rect><rect x="-41.2722" y="-150.17" width="2.5" height="2.5" fill="red" stroke="black" stroke-width="0.5"></rect>
<rect x="79.1767" y="107.073" width="20" height="20" fill="yellow" stroke="black" stroke-width="0.5"><title>room 35</title></rect><rect x="81.9267" y="109.823" width="2.5" height="2.5" fill="red" stroke="black" stroke-width="0.5"></rect>
<rect x="-26.3922" y="-17.5684" width="20" height="20" fill="yellow" stroke="black" stroke-width="0.5"><title>room 36</title></rect><rect x="-17.8192" y="-14.8184" width="2.5" height="2.5" fill="red" stroke="black" stroke-width="0.5"></rect>
<rect x="-7.44882" y="71.4091" width="20" height="20" fill="yellow" stroke="black" stroke-width="0.5"><title>room 37</title></rect><rect x="7.30118" y="74.1591" width="2.5" height="2.5" fill="red" stroke="black" stroke-width="0.5"></rect><rect x="7.19977" y="86.1591" width="2.5" height="2.5" fill="red" stroke="black" stroke-width="0.5"></rect>
<rect x="2.87636" y="-47.5259" width="20" height="20" fill="yellow" stroke="black" stroke-width="0.5"><title>room 38</title></rect><rect x="5.62636" y="-38.6105" width="2.5" height="2.5" fill="red" stroke="black" stroke-width="0.5"></rect>
<rect x="80.7798" y="-75.6756" width="20" height="20" fill="yellow" stroke="black" stroke-width="0.5"><title>room 39</title></rect><rect x="83.5298" y="-60.9256" width="2.5" height="2.5" fill="red" stroke="black" stroke-width="0.5"></rect><rect x="95.5298" y="-72.9256" width="2.5" height="2.5" fill="red" stroke="black" stroke-width="0.5"></rect><rect x="89.4221" y="-72.9256" width="2.5" height="2.5" fill="red" stroke="black" stroke-width="0.5"></rect>
<rect x="-115.367" y="-153.36" width="20" height="20" fill="yellow" stroke="black" stroke-width="0.5"><title>room 40</title></rect><rect x="-100.617" y="-138.61" width="2.5" height="2.5" fill="red" stroke="black" stroke-width="0.5"></rect><rect x="-112.617" y="-150.61" width="2.5" height="2.5" fill="red" stroke="black" stroke-width="0.5"></rect>
<rect x="-98.3001" y="-196.299" width="20" height="20" fill="yellow" stroke="black" stroke-width="0.5"><title>room 41</title></rect><rect x="-83.5501" y="-181.549" width="2.5" height="2.5" fill="red" stroke="black" stroke-width="0.5"></rect><rect x="-95.5501" y="-193.549" width="2.5" height="2.5" fill="red" stroke="black" stroke-width="0.5"></rect>
<rect x="184.875" y="110.825" width="20" height="20" fill="yellow" stroke="black" stroke-width="0.5"><title>room 42</title></rect><rect x="187.625" y="113.575" width="2.5" height="2.5" fill="red" stroke="black" stroke-width="0.5"></rect><rect x="199.625" y="125.575" width="2.5" height="2.5" fill="red" stroke="black" stroke-width="0.5"></rect>
<rect x="123.654" y="64.8444" width="20" height="20" fill="yellow" stroke="black" stroke-width="0.5"><title>room 43</title></rect><rect x="133.381" y="79.5944" width="2.5" height="2.5" fill="red" stroke="black" stroke-width="0.5"></rect>
<rect x="94.083" y="47.6636" width="20" height="20" fill="yellow" stroke="black" stroke-width="0.5"><title>room 44</title></rect><rect x="96.833" y="54.0407" width="2.5" height="2.5" fill="red" stroke="black" stroke-width="0.5"></rect><rect x="108.833" y="50.4136" width="2.5" height="2.5" fill="red" stroke="black" stroke-width="0.5"></rect>
<rect x="-55.9684" y="-122.134" width="20" height="20" fill="yellow" stroke="black" stroke-width="0.5"><title>room 45</title></rect><rect x="-47.3287" y="-107.384" width="2.5" height="2.5" fill="red" stroke="black" stroke-width="0.5"></rect>
<rect x="123.706" y="34.9449" width="20" height="20" fill="yellow" stroke="black" stroke-width="0.5"><title>room 46</title></rect><rect x="126.456" y="49.6949" width="2.5" height="2.5" fill="red" stroke="black" stroke-width="0.5"></rect>
<rect x="-128.727" y="107.324" width="20" height="20" fill="yellow" stroke="black" stroke-width="0.5"><title>room 47</title></rect><rect x="-119.846" y="110.074" width="2.5" height="2.5" fill="red" stroke="black" stroke-width="0.5"></rect>
<rect x="50.9606" y="-75.8563" width="20" height="20" fill="yellow" stroke="black" stroke-width="0.5"><title>room 48</title></rect><rect x="65.3475" y="-61.1063" width="2.5" height="2.5" fill="red" stroke="black" stroke-width="0.5"></rect>
<rect x="92.8032" y="-11.7716" width="20" height="20" fill="yellow" stroke="black" stroke-width="0.5"><title>room 49</title></rect><rect x="95.5532" y="-5.39586" width="2.5" height="2.5" fill="red" stroke="black" stroke-width="0.5"></rect><rect x="107.553" y="-9.02161" width="2.5" height="2.5" fill="red" stroke="black" stroke-width="0.5"></rect>
<rect x="-84.6518" y="40.957" width="20" height="20" fill="yellow" stroke="black" stroke-width="0.5"><title>room 50</title></rect><rect x="-69.9018" y="43.707" width="2.5" height="2.5" fill="red" stroke="black" stroke-width="0.5"></rect><rect x="-81.9018" y="55.707" width="2.5" height="2.5" fill="red" stroke="black" stroke-width="0.5"></rect>
<rect x="-128.853" y="-182.977" width="20" height="20" fill="yellow" stroke="black" stroke-width="0.5"><title>room 51</title></rect><rect x="-114.103" y="-168.227" width="2.5" height="2.5" fill="red" stroke="black" stroke-width="0.5"></rect><rect x="-126.103" y="-180.227" width="2.5" height="2.5" fill="red" stroke="black" stroke-width="0.5"></rect>
<rect x="-145.204" y="-104.656" width="20" height="20" fill="yellow" stroke="black" stroke-width="0.5"><title>room 52</title></rect><rect x="-130.454" y="-89.9064" width="2.5" height="2.5" fill="red" stroke="black" stroke-width="0.5"></rect><rect x="-142.454" y="-101.906" width="2.5" height="2.5" fill="red" stroke="black" stroke-width="0.5"></rect>
<rect x="-144.194" y="48.0082" width="20" height="20" fill="yellow" stroke="black" stroke-width="0.5"><title>room 53</title></rect><rect x="-129.444" y="53.2049" width="2.5" height="2.5" fill="red" stroke="black" stroke-width="0.5"></rect><rect x="-141.444" y="62.7582" width="2.5" height="2.5" fill="red" stroke="black" stroke-width="0.5"></rect>
<rect x="-115.429" y="-123.506" width="20" height="20" fill="yellow" stroke="black" stroke-width="0.5"><title>room 54</title></rect><rect x="-100.679" y="-120.756" width="2.5" height="2.5" fill="red" stroke="black" stroke-width="0.5"></rect><rect x="-112.679" y="-120.756" width="2.5" height="2.5" fill="red" stroke="black" stroke-width="0.5"></rect>
<rect x="-16.868" y="-107.076" width="20" height="20" fill="yellow" stroke="black" stroke-width="0.5"><title>room 55</title></rect><rect x="-3.96125" y="-92.3257" width="2.5" height="2.5" fill="red" stroke="black" stroke-width="0.5"></rect><rect x="-2.11797" y="-104.326" width="2.5" height="2.5" fill="red" stroke="black" stroke-width="0.5"></rect><rect x="-12.8105" y="-104.326" width="2.5" height="2.5" fill="red" stroke="black" stroke-width="0.5"></rect>
<rect x="3.52405" y="-136.504" width="20" height="20" fill="yellow" stroke="black" stroke-width="0.5"><title>room 56</title></rect><rect x="6.27405" y="-121.754" width="2.5" height="2.5" fill="red" stroke="black" stroke-width="0.5"></rect>
<rect x="-145.323" y="-18.1497" width="20" height="20" fill="yellow" stroke="black" stroke-width="0.5"><title>room 57</title></rect><rect x="-130.573" y="-3.39966" width="2.5" height="2.5" fill="red" stroke="black" stroke-width="0.5"></rect><rect x="-142.573" y="-15.3997" width="2.5" height="2.5" fill="red" stroke="black" stroke-width="0.5"></rect>
<rect x="96.1832" y="153.812" width="20" height="20" fill="yellow" stroke="black" stroke-width="0.5"><title>room 58</title></rect><rect x="110.933" y="156.562" width="2.5" height="2.5" fill="red" stroke="black" stroke-width="0.5"></rect>
<rect x="93.3873" y="17.9814" width="20" height="20" fill="yellow" stroke="black" stroke-width="0.5"><title>room 59</title></rect><rect x="96.1373" y="32.7314" width="2.5" height="2.5" fill="red" stroke="black" stroke-width="0.5"></rect>
<rect x="-141.894" y="-212.598" width="20" height="20" fill="yellow" stroke="black" stroke-width="0.5"><title>room 60</title></rect><rect x="-127.144" y="-197.848" width="2.5" height="2.5" fill="red" stroke="black" stroke-width="0.5"></rect><rect x="-139.144" y="-209.848" width="2.5" height="2.5" fill="red" stroke="black" stroke-width="0.5"></rect>
<rect x="4.34836" y="101.048" width="20" height="20" fill="yellow" stroke="black" stroke-width="0.5"><title>room 61</title></rect><rect x="7.19978" y="103.798" width="2.5" height="2.5" fill="red" stroke="black" stroke-width="0.5"></rect>
<rect x="197.611" y="140.447" width="20" height="20" fill="yellow" stroke="black" stroke-width="0.5"><title>room 62</title></rect><rect x="200.361" y="143.197" width="2.5" height="2.5" fill="red" stroke="black" stroke-width="0.5"></rect>
<rect x="-155.851" y="18.3207" width="20" height="20" fill="yellow" stroke="black" stroke-width="0.5"><title>room 63</title></rect><rect x="-141.101" y="33.0707" width="2.5" height="2.5" fill="red" stroke="black" stroke-width="0.5"></rect><rect x="-153.101" y="33.0707" width="2.5" height="2.5" fill="red" stroke="black" stroke-width="0.5"></rect>
<rect x="12.904" y="-106.739" width="20" height="20" fill="yellow" stroke="black" stroke-width="0.5"><title>room 64</title></rect><rect x="15.654" y="-91.9892" width="2.5" height="2.5" fill="red" stroke="black" stroke-width="0.5"></rect><rect x="27.654" y="-103.989" width="2.5" height="2.5" fill="red" stroke="black" stroke-width="0.5"></rect>
<rect x="-96.5258" y="11.3284" width="20" height="20" fill="yellow" stroke="black" stroke-width="0.5"><title>room 65</title></rect><rect x="-81.7758" y="20.0235" width="2.5" height="2.5" fill="red" stroke="black" stroke-width="0.5"></rect>
<rect x="-56.3088" y="-32.7749" width="20" height="20" fill="yellow" stroke="black" stroke-width="0.5"><title>room 66</title></rect><rect x="-41.5588" y="-30.0249" width="2.5" height="2.5" fill="red" stroke="black" stroke-width="0.5"></rect><rect x="-53.5588" y="-30.0249" width="2.5" height="2.5" fill="red" stroke="black" stroke-width="0.5"></rect>
<rect x="-185.482" y="30.5705" width="20" height="20" fill="yellow" stroke="black" stroke-width="0.5"><title>room 67</title></rect><rect x="-170.732" y="33.3205" width="2.5" height="2.5" fill="red" stroke="black" stroke-width="0.5"></rect>
<rect x="42.5234" y="-119.651" width="20" height="20" fill="yellow" stroke="black" stroke-width="0.5"><title>room 68</title></rect><rect x="45.2734" y="-104.901" width="2.5" height="2.5" fill="red" stroke="black" stroke-width="0.5"></rect>
<rect x="-86.0047" y="-47.95" width="20" height="20" fill="yellow" stroke="black" stroke-width="0.5"><title>room 69</title></rect><rect x="-71.2547" y="-33.2" width="2.5" height="2.5" fill="red" stroke="black" stroke-width="0.5"></rect><rect x="-83.2547" y="-45.2" width="2.5" height="2.5" fill="red" stroke="black" stroke-width="0.5"></rect><rect x="-83.2547" y="-33.2" width="2.5" height="2.5" fill="red" stroke="black" stroke-width="0.5"></rect>
<rect x="110.408" y="-88.3921" width="20" height="20" fill="yellow" stroke="black" stroke-width="0.5"><title>room 70</title></rect><rect x="113.158" y="-73.6421" width="2.5" height="2.5" fill="red" stroke="black" stroke-width="0.5"></rect>
<rect x="-174.956" y="-30.3926" width="20" height="20" fill="yellow" stroke="black" stroke-width="0.5"><title>room 71</title></rect><rect x="-160.206" y="-15.6426" width="2.5" height="2.5" fill="red" stroke="black" stroke-width="0.5"></rect>
<rect x="126.024" y="153.895" width="20" height="20" fill="yellow" stroke="black" stroke-width="0.5"><title>room 72</title></rect><rect x="128.774" y="156.645" width="2.5" height="2.5" fill="red" stroke="black" stroke-width="0.5"></rect>
<rect x="63.6362" y="13.1473" width="20" height="20" fill="yellow" stroke="black" stroke-width="0.5"><title>room 73</title></rect><rect x="72.1051" y="15.8973" width="2.5" height="2.5" fill="red" stroke="black" stroke-width="0.5"></rect>
<rect x="33.9113" y="18.2624" width="20" height="20" fill="yellow" stroke="black" stroke-width="0.5"><title>room 74</title></rect><rect x="42.3177" y="21.0124" width="2.5" height="2.5" fill="red" stroke="black" stroke-width="0.5"></rect>
<rect x="-67.3454" y="71.165" width="20" height="20" fill="yellow" stroke="black" stroke-width="0.5"><title>room 75</title></rect><rect x="-52.5954" y="73.915" width="2.5" height="2.5" fill="red" stroke="black" stroke-width="0.5"></rect>
<rect x="-99.0188" y="100.312" width="20" height="20" fill="yellow" stroke="black" stroke-width="0.5"><title>room 76</title></rect><rect x="-96.2688" y="103.062" width="2.5" height="2.5" fill="red" stroke="black" stroke-width="0.5"></rect>
<rect x="-174.842" y="-117.059" width="20" height="20" fill="yellow" stroke="black" stroke-width="0.5"><title>room 77</title></rect><rect x="-160.092" y="-102.309" width="2.5" height="2.5" fill="red" stroke="black" stroke-width="0.5"></rect>
<rect x="34.2284" y="77.7082" width="20" height="20" fill="yellow" stroke="black" stroke-width="0.5"><title>room 78</title></rect><rect x="48.9784" y="86.3327" width="2.5" height="2.5" fill="red" stroke="black" stroke-width="0.5"></rect>
<rect x="-56.0451" y="-182.636" width="20" height="20" fill="yellow" stroke="black" stroke-width="0.5"><title>room 79</title></rect><rect x="-47.2837" y="-167.886" width="2.5" height="2.5" fill="red" stroke="black" stroke-width="0.5"></rect><rect x="-53.2951" y="-179.886" width="2.5" height="2.5" fill="red" stroke="black" stroke-width="0.5"></rect>
<rect x="-145.074" y="-135.996" width="20" height="20" fill="yellow" stroke="black" stroke-width="0.5"><title>room 80</title></rect><rect x="-130.324" y="-121.246" width="2.5" height="2.5" fill="red" stroke="black" stroke-width="0.5"></rect>
<rect x="32.5495" y="-41.1381" width="20" height="20" fill="yellow" stroke="black" stroke-width="0.5"><title>room 81</title></rect><rect x="35.2995" y="-26.3881" width="2.5" height="2.5" fill="red" stroke="black" stroke-width="0.5"></rect>
<rect x="-97.2995" y="70.554" width="20" height="20" fill="yellow" stroke="black" stroke-width="0.5"><title>room 82</title></rect><rect x="-82.5495" y="73.304" width="2.5" height="2.5" fill="red" stroke="black" stroke-width="0.5"></rect>
<rect x="-110.69" y="-225.929" width="20" height="20" fill="yellow" stroke="black" stroke-width="0.5"><title>room 83</title></rect><rect x="-95.9402" y="-211.179" width="2.5" height="2.5" fill="red" stroke="black" stroke-width="0.5"></rect>
<rect x="-115.631" y="-62.1745" width="20" height="20" fill="yellow" stroke="black" stroke-width="0.5"><title>room 84</title></rect><rect x="-100.881" y="-47.4245" width="2.5" height="2.5" fill="red" stroke="black" stroke-width="0.5"></rect>
<rect x="34.7405" y="47.9867" width="20" height="20" fill="yellow" stroke="black" stroke-width="0.5"><title>room 85</title></rect><rect x="49.4905" y="54.2022" width="2.5" height="2.5" fill="red" stroke="black" stroke-width="0.5"></rect>
<rect x="-37.3973" y="71.3335" width="20" height="20" fill="yellow" stroke="black" stroke-width="0.5"><title>room 86</title></rect><rect x="-22.6473" y="74.0835" width="2.5" height="2.5" fill="red" stroke="black" stroke-width="0.5"></rect>
<rect x="-68.1902" y="-212.27" width="20" height="20" fill="yellow" stroke="black" stroke-width="0.5"><title>room 87</title></rect><rect x="-53.4402" y="-197.52" width="2.5" height="2.5" fill="red" stroke="black" stroke-width="0.5"></rect>
<rect x="-26.3673" y="-166.626" width="20" height="20" fill="yellow" stroke="black" stroke-width="0.5"><title>room 88</title></rect><rect x="-23.6173" y="-151.876" width="2.5" height="2.5" fill="red" stroke="black" stroke-width="0.5"></rect>
<rect x="121.622" y="-54.1449" width="20" height="20" fill="yellow" stroke="black" stroke-width="0.5"><title>room 89</title></rect><rect x="124.372" y="-39.3949" width="2.5" height="2.5" fill="red" stroke="black" stroke-width="0.5"></rect>
<rect x="184.935" y="80.9944" width="20" height="20" fill="yellow" stroke="black" stroke-width="0.5"><title>room 90</title></rect><rect x="187.685" y="95.7444" width="2.5" height="2.5" fill="red" stroke="black" stroke-width="0.5"></rect>
<rect x="-171.517" y="-225.286" width="20" height="20" fill="yellow" stroke="black" stroke-width="0.5"><title>room 91</title></rect><rect x="-156.767" y="-210.536" width="2.5" height="2.5" fill="red" stroke="black" stroke-width="0.5"></rect>
<rect x="-115.594" y="-32.3467" width="20" height="20" fill="yellow" stroke="black" stroke-width="0.5"><title>room 92</title></rect><rect x="-100.844" y="-29.5967" width="2.5" height="2.5" fill="red" stroke="black" stroke-width="0.5"></rect>
<rect x="21.1352" y="-77.0364" width="20" height="20" fill="yellow" stroke="black" stroke-width="0.5"><title>room 93</title></rect><rect x="23.8852" y="-68.4438" width="2.5" height="2.5" fill="red" stroke="black" stroke-width="0.5"></rect>
<rect x="80.5644" y="-105.386" width="20" height="20" fill="yellow" stroke="black" stroke-width="0.5"><title>room 94</title></rect><rect x="89.4221" y="-90.6362" width="2.5" height="2.5" fill="red" stroke="black" stroke-width="0.5"></rect>
<rect x="122.433" y="-24.1722" width="20" height="20" fill="yellow" stroke="black" stroke-width="0.5"><title>room 95</title></rect><rect x="125.183" y="-9.42218" width="2.5" height="2.5" fill="red" stroke="black" stroke-width="0.5"></rect>
<rect x="-85.8116" y="-107.27" width="20" height="20" fill="yellow" stroke="black" stroke-width="0.5"><title>room 96</title></rect><rect x="-77.1054" y="-92.5201" width="2.5" height="2.5" fill="red" stroke="black" stroke-width="0.5"></rect>
<rect x="-173.821" y="60.5292" width="20" height="20" fill="yellow" stroke="black" stroke-width="0.5"><title>room 97</title></rect><rect x="-159.071" y="63.2792" width="2.5" height="2.5" fill="red" stroke="black" stroke-width="0.5"></rect>
<rect x="-26.253" y="-136.737" width="20" height="20" fill="yellow" stroke="black" stroke-width="0.5"><title>room 98</title></rect><rect x="-12.8105" y="-121.987" width="2.5" height="2.5" fill="red" stroke="black" stroke-width="0.5"></rect>
<rect x="49.3368" y="107.29" width="20" height="20" fill="yellow" stroke="black" stroke-width="0.5"><title>room 99</title></rect><rect x="64.0868" y="110.04" width="2.5" height="2.5" fill="red" stroke="black" stroke-width="0.5"></rect>
<line x1="-10.74622284081806" y1="-31.195174940761795" x2="37.224169625871255" y2="-7.377893330560024" stroke-width="0.5" stroke="blue" />
<line x1="-22.74622284081806" y1="-31.195174940761795" x2="-50.90267952584795" y2="15.218531066340411" stroke-width="0.5" stroke="blue" />
<line x1="-22.74622284081806" y1="-43.195174940761795" x2="-40.18899750552578" y2="-76.42403499936594" stroke-width="0.5" stroke="blue" />
<line x1="-22.74622284081806" y1="-43.195174940761795" x2="-40.23023614524327" y2="-46.57624292932995" stroke-width="0.5" stroke="blue" />
<line x1="-10.74622284081806" y1="-43.195174940761795" x2="-4.554529662544535" y2="-61.35114917004529" stroke-width="0.5" stroke="blue" />
<line x1="-16.569190713744494" y1="-31.195174940761795" x2="-16.56919318901656" y2="-13.568441405302945" stroke-width="0.5" stroke="blue" />
<line x1="-10.74622284081806" y1="-37.36054921826799" x2="6.876361077052994" y2="-37.36054779921852" stroke-width="0.5" stroke="blue" />
<line x1="-22.74622284081806" y1="-31.195174940761795" x2="-40.30881484200248" y2="-28.774852329560193" stroke-width="0.5" stroke="blue" />
<line x1="49.224169625871255" y1="4.622106669439976" x2="68.4359907330664" y2="46.91784068936353" stroke-width="0.5" stroke="blue" />
<line x1="37.224169625871255" y1="-4.5897256086256775" x2="19.543961737358654" y2="-4.589728985080252" stroke-width="0.5" stroke="blue" />
<line x1="49.224169625871255" y1="-7.377893330560024" x2="66.23439633606839" y2="-30.21332635696958" stroke-width="0.5" stroke="blue" />
<line x1="37.224169625871255" y1="4.622106669439976" x2="20.12511323970933" y2="16.009091494413347" stroke-width="0.5" stroke="blue" />
<line x1="49.224169625871255" y1="-3.9490011722701963" x2="67.07407285704149" y2="-3.949001817060109" stroke-width="0.5" stroke="blue" />
<line x1="43.567723851791655" y1="4.622106669439976" x2="43.567724831797236" y2="22.26241660123285" stroke-width="0.5" stroke="blue" />
<line x1="80.4359907330664" y1="58.91784068936353" x2="97.85733460617378" y2="81.34847059396016" stroke-width="0.5" stroke="blue" />
<line x1="74.18599835746" y1="58.91784068936353" x2="74.1860019935605" y2="81.45718364487061" stroke-width="0.5" stroke="blue" />
<line x1="80.4359907330664" y1="55.2907462140797" x2="98.08296959930632" y2="55.29074138500877" stroke-width="0.5" stroke="blue" />
<line x1="80.4359907330664" y1="46.91784068936353" x2="97.38725729833395" y2="33.98135468227531" stroke-width="0.5" stroke="blue" />
<line x1="68.4359907330664" y1="55.45224746955255" x2="50.740501433761565" y2="55.45224989369817" stroke-width="0.5" stroke="blue" />
<line x1="109.85733460617378" y1="93.34847059396016" x2="129.60812941491446" y2="98.54471504308454" stroke-width="0.5" stroke="blue" />
<line x1="-50.90267952584795" y1="21.64403616515547" x2="-33.197112417059415" y2="21.644037662640432" stroke-width="0.5" stroke="blue" />
<line x1="-50.90267952584795" y1="27.21853106634041" x2="-50.874179830386524" y2="45.53875692653979" stroke-width="0.5" stroke="blue" />
<line x1="-62.90267952584795" y1="15.218531066340411" x2="-69.91440947353752" y2="-2.264802697980695" stroke-width="0.5" stroke="blue" />
<line x1="-62.90267952584795" y1="27.21853106634041" x2="-98.50208555570113" y2="44.90151119084221" stroke-width="0.5" stroke="blue" />
<line x1="-62.90267952584795" y1="27.21853106634041" x2="-68.65182856025909" y2="44.95700418804428" stroke-width="0.5" stroke="blue" />
<line x1="-62.90267952584795" y1="21.273456940305028" x2="-80.5258280218521" y2="21.273453882719398" stroke-width="0.5" stroke="blue" />
<line x1="141.60812941491446" y1="104.59946922893145" x2="159.32931365214958" y2="104.5994667847263" stroke-width="0.5" stroke="blue" />
<line x1="129.60812941491446" y1="110.54471504308454" x2="127.06231159890295" y2="128.23347711688973" stroke-width="0.5" stroke="blue" />
<line x1="141.60812941491446" y1="98.54471504308454" x2="157.38073547442127" y2="80.93954913738489" stroke-width="0.5" stroke="blue" />
<line x1="141.60812941491446" y1="110.54471504308454" x2="144.89974246233012" y2="128.22808986356637" stroke-width="0.5" stroke="blue" />
<line x1="134.63113479679168" y1="98.54471504308454" x2="134.63113588892233" y2="80.8444021743458" stroke-width="0.5" stroke="blue" />
<line x1="-21.197112417059415" y1="28.06954276145549" x2="-21.09311444598908" y2="45.694653357669324" stroke-width="0.5" stroke="blue" />
<line x1="-50.874179830386524" y1="57.53875692653979" x2="-51.34543594030861" y2="75.16495395389806" stroke-width="0.5" stroke="blue" />
<line x1="19.543961737358654" y1="-13.801561263145906" x2="36.54953793055385" y2="-25.13813926236359" stroke-width="0.5" stroke="blue" />
<line x1="-110.50208555570113" y1="56.90151119084221" x2="-112.46452401800241" y2="81.61244946810804" stroke-width="0.5" stroke="blue" />
<line x1="-110.36014628903462" y1="44.90151119084221" x2="-110.3601463939059" y2="27.268175349752546" stroke-width="0.5" stroke="blue" />
<line x1="-110.50208555570113" y1="54.454849483810214" x2="-128.19424663903666" y2="54.45485315449513" stroke-width="0.5" stroke="blue" />
<line x1="-110.50208555570113" y1="44.90151119084221" x2="-139.85061231472145" y2="34.32067672646036" stroke-width="0.5" stroke="blue" />
<line x1="78.23439633606839" y1="-42.21332635696958" x2="84.77979360770229" y2="-59.67555293954719" stroke-width="0.5" stroke="blue" />
<line x1="66.59750036763249" y1="-42.21332635696958" x2="66.59749794535823" y2="-59.8562619520698" stroke-width="0.5" stroke="blue" />
<line x1="14.406177224765194" y1="28.009091494413347" x2="14.406176052006405" y2="45.747892066288266" stroke-width="0.5" stroke="blue" />
<line x1="-52.18899750552578" y1="-76.42403499936594" x2="-69.89928361339007" y2="-73.65728862460644" stroke-width="0.5" stroke="blue" />
<line x1="-52.18899750552578" y1="-88.42403499936594" x2="-69.69523883078908" y2="-120.9483944023476" stroke-width="0.5" stroke="blue" />
<line x1="-46.0787088853552" y1="-88.42403499936594" x2="-46.07869902851081" y2="-106.13404227110716" stroke-width="0.5" stroke="blue" />
<line x1="-21.09311444598908" y1="57.694653357669324" x2="-21.397328778549614" y2="75.33352257287622" stroke-width="0.5" stroke="blue" />
<line x1="8.68724003706227" y1="57.747892066288266" x2="8.551183394887804" y2="75.40909445691817" stroke-width="0.5" stroke="blue" />
<line x1="171.32931365214958" y1="110.65422097057322" x2="188.87497660347796" y2="114.82523191115023" stroke-width="0.5" stroke="blue" />
<line x1="171.32931365214958" y1="98.65422097057322" x2="188.93458993889405" y2="96.99438834799466" stroke-width="0.5" stroke="blue" />
<line x1="-124.46452401800241" y1="93.61244946810804" x2="-142.27004334270922" y2="94.4796248233508" stroke-width="0.5" stroke="blue" />
<line x1="-118.59580795010919" y1="93.61244946810804" x2="-118.59580783633608" y2="111.32447683969421" stroke-width="0.5" stroke="blue" />
<line x1="-112.46452401800241" y1="93.61244946810804" x2="-95.01881102040169" y2="104.3116873117058" stroke-width="0.5" stroke="blue" />
<line x1="79.93600961795408" y1="93.45718364487061" x2="83.17674987299685" y2="111.07282196500938" stroke-width="0.5" stroke="blue" />
<line x1="67.93600961795408" y1="87.58269023919146" x2="50.22838041047741" y2="87.58269028900905" stroke-width="0.5" stroke="blue" />
<line x1="67.93600961795408" y1="93.45718364487061" x2="65.33684402358381" y2="111.29031612301385" stroke-width="0.5" stroke="blue" />
<line x1="-81.89928361339007" y1="-73.65728862460644" x2="-99.55605527808267" y2="-76.045840003974" stroke-width="0.5" stroke="blue" />
<line x1="-75.85544393213765" y1="-73.65728862460644" x2="-75.85544580358975" y2="-91.27012543744853" stroke-width="0.5" stroke="blue" />
<line x1="-75.71118970333775" y1="-132.94839440234762" x2="-75.71118016365307" y2="-150.66749115257062" stroke-width="0.5" stroke="blue" />
<line x1="-69.69523883078908" y1="-132.94839440234762" x2="-52.02221479242744" y2="-136.9199890487262" stroke-width="0.5" stroke="blue" />
<line x1="-81.69523883078908" y1="-132.94839440234762" x2="-99.36742158925311" y2="-137.3598208699251" stroke-width="0.5" stroke="blue" />
<line x1="-81.69523883078908" y1="-120.9483944023476" x2="-99.42875776099694" y2="-119.50635593565937" stroke-width="0.5" stroke="blue" />
<line x1="79.07407285704149" y1="-12.52010965877028" x2="95.99585929256634" y2="-25.519903925867247" stroke-width="0.5" stroke="blue" />
<line x1="79.07407285704149" y1="-4.145861498720188" x2="96.80318397879901" y2="-4.145861870892576" stroke-width="0.5" stroke="blue" />
<line x1="73.3551132179279" y1="-0.5201096587702816" x2="73.3551180271646" y2="17.147263518767346" stroke-width="0.5" stroke="blue" />
<line x1="107.99585929256634" y1="-37.51990392586725" x2="125.62243618941639" y2="-38.14490811341769" stroke-width="0.5" stroke="blue" />
<line x1="-154.27004334270922" y1="106.4796248233508" x2="-154.96647232057916" y2="124.1032442437415" stroke-width="0.5" stroke="blue" />
<line x1="-81.72713103620174" y1="-162.66749115257062" x2="-82.30014949703745" y2="-180.29922303977963" stroke-width="0.5" stroke="blue" />
<line x1="115.06231159890295" y1="140.23347711688973" x2="112.18318385843587" y2="157.81235198064036" stroke-width="0.5" stroke="blue" />
<line x1="127.06231159890295" y1="140.23347711688973" x2="130.0240985078154" y2="157.89534060378028" stroke-width="0.5" stroke="blue" />
<line x1="-2.711248636999531" y1="-73.35114917004529" x2="-2.7112492257197562" y2="-91.07573372418624" stroke-width="0.5" stroke="blue" />
<line x1="7.445470337455465" y1="-73.35114917004529" x2="16.90399828994227" y2="-90.73915492982755" stroke-width="0.5" stroke="blue" />
<line x1="7.445470337455465" y1="-67.19378966181063" x2="25.135216502028722" y2="-67.19378998644382" stroke-width="0.5" stroke="blue" />
<line x1="169.38073547442127" y1="68.93954913738489" x2="186.98401976817428" y2="67.12716000152946" stroke-width="0.5" stroke="blue" />
<line x1="-111.55605527808267" y1="-88.045840003974" x2="-129.20432203057263" y2="-88.65644245392255" stroke-width="0.5" stroke="blue" />
<line x1="-122.21820712723938" y1="15.268175349752546" x2="-129.32309778432426" y2="-2.1496607909942718" stroke-width="0.5" stroke="blue" />
<line x1="-46.03366202447137" y1="-148.9199890487262" x2="-46.033657693440155" y2="-166.63594200265993" stroke-width="0.5" stroke="blue" />
<line x1="-40.02221479242744" y1="-148.9199890487262" x2="-22.36729658972966" y2="-150.62641710768386" stroke-width="0.5" stroke="blue" />
<line x1="8.449768346860559" y1="87.40909445691817" x2="8.449777865959302" y2="105.04782612541175" stroke-width="0.5" stroke="blue" />
<line x1="96.77979360770229" y1="-71.67555293954719" x2="114.40818744313324" y2="-72.39212779015023" stroke-width="0.5" stroke="blue" />
<line x1="90.67210172126511" y1="-71.67555293954719" x2="90.67211879310005" y2="-89.38617924937775" stroke-width="0.5" stroke="blue" />
<line x1="-111.36742158925311" y1="-149.3598208699251" x2="-112.85302641240544" y2="-166.97720907718394" stroke-width="0.5" stroke="blue" />
<line x1="-94.30014949703745" y1="-192.29922303977963" x2="-94.69020289086069" y2="-209.92889712137466" stroke-width="0.5" stroke="blue" />
<line x1="200.87497660347796" y1="126.82523191115023" x2="201.61074802184902" y2="144.447161437266" stroke-width="0.5" stroke="blue" />
<line x1="110.08296959930632" y1="51.66364690972494" x2="127.70591022112362" y2="50.94487546050545" stroke-width="0.5" stroke="blue" />
<line x1="108.80318397879901" y1="-7.771613710842482" x2="126.43294289202456" y2="-8.172181466322915" stroke-width="0.5" stroke="blue" />
<line x1="-80.65182856025909" y1="56.95700418804428" x2="-81.29951645667276" y2="74.55399660981396" stroke-width="0.5" stroke="blue" />
<line x1="-124.85302641240544" y1="-178.97720907718394" x2="-125.89386912569611" y2="-196.59840292534136" stroke-width="0.5" stroke="blue" />
<line x1="-141.20432203057263" y1="-100.65644245392255" x2="-158.842280728036" y2="-101.05915416527708" stroke-width="0.5" stroke="blue" />
<line x1="-140.19424663903666" y1="64.00819144746313" x2="-157.82119931668004" y2="64.52921560870811" stroke-width="0.5" stroke="blue" />
<line x1="-111.42875776099694" y1="-119.50635593565937" x2="-129.07406300544383" y2="-119.99602254858321" stroke-width="0.5" stroke="blue" />
<line x1="-0.8679682001747517" y1="-103.07573372418624" x2="7.5240499100866245" y2="-120.50359366608053" stroke-width="0.5" stroke="blue" />
<line x1="-11.560462535836226" y1="-103.07573372418624" x2="-11.560461173886981" y2="-120.73745194231273" stroke-width="0.5" stroke="blue" />
<line x1="-141.32309778432426" y1="-14.149660790994272" x2="-158.9559897162763" y2="-14.39258725123284" stroke-width="0.5" stroke="blue" />
<line x1="-137.8938691256961" y1="-208.59840292534136" x2="-155.51679440133952" y2="-209.2863427007916" stroke-width="0.5" stroke="blue" />
<line x1="-151.85061231472145" y1="34.32067672646036" x2="-169.48214592068317" y2="34.570466773663576" stroke-width="0.5" stroke="blue" />
<line x1="28.90399828994227" y1="-102.73915492982755" x2="46.52339548924197" y2="-103.65135431365799" stroke-width="0.5" stroke="blue" />
<line x1="-52.30881484200248" y1="-28.774852329560193" x2="-70.0047289108389" y2="-31.950040543335547" stroke-width="0.5" stroke="blue" />
<line x1="-82.0047289108389" y1="-43.95004054333555" x2="-99.63132761043352" y2="-46.17446325484882" stroke-width="0.5" stroke="blue" />
<line x1="-82.0047289108389" y1="-31.950040543335547" x2="-99.59429989531341" y2="-28.34668046022514" stroke-width="0.5" stroke="blue" />
<line x1="-52.04510492548408" y1="-178.63594200265993" x2="-52.19024128337684" y2="-196.26976830747975" stroke-width="0.5" stroke="blue" />
</svg>