<svg width="100%" height="100%" viewBox="-94.0362 -109.908 177.073 181.727"  xmlns="http://www.w3.org/2000/svg" xmlns:xlink="http://www.w3.org/1999/xlink" version="1.1">
<rect x="-25.6587" y="-50.5648" width="40" height="20" fill="yellow" stroke="black" stroke-width="0.5"><title>room 0</title></rect><rect x="5.09129" y="-47.8148" width="2.5" height="2.5" fill="red" stroke="black" stroke-width="0.5"></rect><rect x="-18.9087" y="-35.8148" width="2.5" height="2.5" fill="red" stroke="black" stroke-width="0.5"></rect>
<rect x="0.699438" y="-80.0915" width="30" height="30" fill="yellow" stroke="black" stroke-width="0.5"><title>room 1</title></rect><rect x="5.44944" y="-57.3415" width="2.5" height="2.5" fill="red" stroke="black" stroke-width="0.5"></rect><rect x="23.4494" y="-75.3415" width="2.5" height="2.5" fill="red" stroke="black" stroke-width="0.5"></rect>
<rect x="-33.9191" y="-30.8866" width="20" height="20" fill="yellow" stroke="black" stroke-width="0.5"><title>room 2</title></rect><rect x="-19.1691" y="-28.1366" width="2.5" height="2.5" fill="red" stroke="black" stroke-width="0.5"></rect><rect x="-31.1691" y="-16.1366" width="2.5" height="2.5" fill="red" stroke="black" stroke-width="0.5"></rect><rect x="-19.1691" y="-16.1366" width="2.5" height="2.5" fill="red" stroke="black" stroke-width="0.5"></rect>
<rect x="-63.8196" y="-11.2706" width="40" height="20" fill="yellow" stroke="black" stroke-width="0.5"><title>room 3</title></rect><rect x="-33.0696" y="-8.52062" width="2.5" height="2.5" fill="red" stroke="black" stroke-width="0.5"></rect><rect x="-57.0696" y="3.47938" width="2.5" height="2.5" fill="red" stroke="black" stroke-width="0.5"></rect>
<rect x="-24.0827" y="-11.2621" width="40" height="20" fill="yellow" stroke="black" stroke-width="0.5"><title>room 4</title></rect><rect x="-17.3327" y="-8.51208" width="2.5" height="2.5" fill="red" stroke="black" stroke-width="0.5"></rect><rect x="6.66732" y="3.48792" width="2.5" height="2.5" fill="red" stroke="black" stroke-width="0.5"></rect>
<rect x="30.0341" y="-98.7497" width="30" height="30" fill="yellow" stroke="black" stroke-width="0.5"><title>room 5</title></rect><rect x="34.7841" y="-75.9997" width="2.5" height="2.5" fill="red" stroke="black" stroke-width="0.5"></rect>
<rect x="4.28094" y="8.41272" width="20" height="20" fill="yellow" stroke="black" stroke-width="0.5"><title>room 6</title></rect><rect x="7.03094" y="11.1627" width="2.5" height="2.5" fill="red" stroke="black" stroke-width="0.5"></rect><rect x="19.0309" y="23.1627" width="2.5" height="2.5" fill="red" stroke="black" stroke-width="0.5"></rect>
<rect x="23.9384" y="20.9849" width="20" height="20" fill="yellow" stroke="black" stroke-width="0.5"><title>room 7</title></rect><rect x="26.6884" y="23.7349" width="2.5" height="2.5" fill="red" stroke="black" stroke-width="0.5"></rect><rect x="38.6884" y="35.7349" width="2.5" height="2.5" fill="red" stroke="black" stroke-width="0.5"></rect>
<rect x="32.1637" y="40.6604" width="40" height="20" fill="yellow" stroke="black" stroke-width="0.5"><title>room 8</title></rect><rect x="38.9137" y="43.4104" width="2.5" height="2.5" fill="red" stroke="black" stroke-width="0.5"></rect>
<rect x="-83.1633" y="-2.73796" width="20" height="40" fill="yellow" stroke="black" stroke-width="0.5"><title>room 9</title></rect><rect x="-68.4133" y="4.01204" width="2.5" height="2.5" fill="red" stroke="black" stroke-width="0.5"></rect>
<line x1="6.341286901859295" y1="-46.564763790650744" x2="6.699438421699526" y2="-56.09153921484497" stroke-width="0.5" stroke="blue" />
<line x1="-17.658713098140705" y1="-34.564763790650744" x2="-17.9190673316142" y2="-26.886610641399066" stroke-width="0.5" stroke="blue" />
<line x1="24.699438421699526" y1="-74.09153921484497" x2="36.03406558128372" y2="-74.74965982725104" stroke-width="0.5" stroke="blue" />
<line x1="-29.9190673316142" y1="-14.886610641399066" x2="-31.819585313265677" y2="-7.270618348957882" stroke-width="0.5" stroke="blue" />
<line x1="-17.9190673316142" y1="-14.886610641399066" x2="-16.082677075476624" y2="-7.262083990802871" stroke-width="0.5" stroke="blue" />
<line x1="-55.81958531326568" y1="4.729381651042118" x2="-67.16330639318255" y2="5.262044748846041" stroke-width="0.5" stroke="blue" />
<line x1="7.9173229245233765" y1="4.737916009197129" x2="8.280940736216499" y2="12.412719767756148" stroke-width="0.5" stroke="blue" />
<line x1="20.2809407362165" y1="24.412719767756148" x2="27.938447617265922" y2="24.98491622657138" stroke-width="0.5" stroke="blue" />
<line x1="39.93844761726592" y1="36.98491622657138" x2="40.16368988874807" y2="44.660396921069704" stroke-width="0.5" stroke="blue" />
</svg>