<svg width="100%" height="100%" viewBox="-403.838 -310.431 741.816 697.136"  xmlns="http://www.w3.org/2000/svg" xmlns:xlink="http://www.w3.org/1999/xlink" version="1.1">
<rect x="-16.9317" y="6.54997" width="60" height="60" fill="yellow" stroke="black" stroke-width="0.5"><title>room 0</title></rect><rect x="-6.18174" y="17.3" width="2.5" height="2.5" fill="red" stroke="black" stroke-width="0.5"></rect><rect x="29.8183" y="17.3" width="2.5" height="2.5" fill="red" stroke="black" stroke-width="0.5"></rect><rect x="-6.18174" y="36.089" width="2.5" height="2.5" fill="red" stroke="black" stroke-width="0.5"></rect><rect x="-6.18174" y="17.3" width="2.5" height="2.5" fill="red" stroke="black" stroke-width="0.5"></rect><rect x="-6.18174" y="53.3" width="2.5" height="2.5" fill="red" stroke="black" stroke-width="0.5"></rect><rect x="29.8183" y="53.3" width="2.5" height="2.5" fill="red" stroke="black" stroke-width="0.5"></rect><rect x="29.8183" y="47.9243" width="2.5" height="2.5" fill="red" stroke="black" stroke-width="0.5"></rect><rect x="27.4346" y="17.3" width="2.5" height="2.5" fill="red" stroke="black" stroke-width="0.5"></rect><rect x="21.1023" y="53.3" width="2.5" height="2.5" fill="red" stroke="black" stroke-width="0.5"></rect><rect x="29.8183" y="17.3" width="2.5" height="2.5" fill="red" stroke="black" stroke-width="0.5"></rect>
<rect x="-54.3189" y="-44.5172" width="30" height="30" fill="yellow" stroke="black" stroke-width="0.5"><title>room 1</title></rect><rect x="-31.5689" y="-21.7672" width="2.5" height="2.5" fill="red" stroke="black" stroke-width="0.5"></rect><rect x="-49.5689" y="-25.5458" width="2.5" height="2.5" fill="red" stroke="black" stroke-width="0.5"></rect><rect x="-49.5689" y="-39.7672" width="2.5" height="2.5" fill="red" stroke="black" stroke-width="0.5"></rect><rect x="-49.5689" y="-39.7672" width="2.5" height="2.5" fill="red" stroke="black" stroke-width="0.5"></rect><rect x="-49.5689" y="-21.7672" width="2.5" height="2.5" fill="red" stroke="black" stroke-width="0.5"></rect>
<rect x="91.0748" y="-28.6895" width="20" height="20" fill="yellow" stroke="black" stroke-width="0.5"><title>room 2</title></rect><rect x="93.8248" y="-13.9395" width="2.5" height="2.5" fill="red" stroke="black" stroke-width="0.5"></rect><rect x="105.825" y="-25.9395" width="2.5" height="2.5" fill="red" stroke="black" stroke-width="0.5"></rect><rect x="105.825" y="-13.9395" width="2.5" height="2.5" fill="red" stroke="black" stroke-width="0.5"></rect>
<rect x="-86.5367" y="-32.0743" width="20" height="20" fill="yellow" stroke="black" stroke-width="0.5"><title>room 3</title></rect><rect x="-71.7867" y="-25.5458" width="2.5" height="2.5" fill="red" stroke="black" stroke-width="0.5"></rect><rect x="-83.7867" y="-17.3243" width="2.5" height="2.5" fill="red" stroke="black" stroke-width="0.5"></rect>
<rect x="-56.438" y="27.5594" width="20" height="20" fill="yellow" stroke="black" stroke-width="0.5"><title>room 4</title></rect><rect x="-41.688" y="36.089" width="2.5" height="2.5" fill="red" stroke="black" stroke-width="0.5"></rect><rect x="-52.2316" y="42.3094" width="2.5" height="2.5" fill="red" stroke="black" stroke-width="0.5"></rect>
<rect x="-81.1995" y="-2.29633" width="40" height="20" fill="yellow" stroke="black" stroke-width="0.5"><title>room 5</title></rect><rect x="-50.4495" y="12.4537" width="2.5" height="2.5" fill="red" stroke="black" stroke-width="0.5"></rect><rect x="-74.4495" y="0.453665" width="2.5" height="2.5" fill="red" stroke="black" stroke-width="0.5"></rect>
<rect x="-27.5059" y="85.9185" width="20" height="20" fill="yellow" stroke="black" stroke-width="0.5"><title>room 6</title></rect><rect x="-12.7559" y="88.6685" width="2.5" height="2.5" fill="red" stroke="black" stroke-width="0.5"></rect><rect x="-24.7559" y="100.668" width="2.5" height="2.5" fill="red" stroke="black" stroke-width="0.5"></rect><rect x="-17.1291" y="100.668" width="2.5" height="2.5" fill="red" stroke="black" stroke-width="0.5"></rect><rect x="-24.7559" y="95.3218" width="2.5" height="2.5" fill="red" stroke="black" stroke-width="0.5"></rect>
<rect x="-86.5438" y="-61.9317" width="20" height="20" fill="yellow" stroke="black" stroke-width="0.5"><title>room 7</title></rect><rect x="-71.7938" y="-47.1817" width="2.5" height="2.5" fill="red" stroke="black" stroke-width="0.5"></rect><rect x="-83.7938" y="-59.1817" width="2.5" height="2.5" fill="red" stroke="black" stroke-width="0.5"></rect>
<rect x="-89.5024" y="-104.223" width="30" height="30" fill="yellow" stroke="black" stroke-width="0.5"><title>room 8</title></rect><rect x="-66.7524" y="-81.4726" width="2.5" height="2.5" fill="red" stroke="black" stroke-width="0.5"></rect><rect x="-81.2555" y="-99.4726" width="2.5" height="2.5" fill="red" stroke="black" stroke-width="0.5"></rect><rect x="-66.7524" y="-99.4726" width="2.5" height="2.5" fill="red" stroke="black" stroke-width="0.5"></rect><rect x="-84.7524" y="-99.4726" width="2.5" height="2.5" fill="red" stroke="black" stroke-width="0.5"></rect><rect x="-84.7524" y="-81.4726" width="2.5" height="2.5" fill="red" stroke="black" stroke-width="0.5"></rect><rect x="-66.7524" y="-99.4726" width="2.5" height="2.5" fill="red" stroke="black" stroke-width="0.5"></rect>
<rect x="137.266" y="-59.5389" width="30" height="30" fill="yellow" stroke="black" stroke-width="0.5"><title>room 9</title></rect><rect x="142.016" y="-36.7889" width="2.5" height="2.5" fill="red" stroke="black" stroke-width="0.5"></rect><rect x="160.016" y="-54.7889" width="2.5" height="2.5" fill="red" stroke="black" stroke-width="0.5"></rect><rect x="146.191" y="-54.7889" width="2.5" height="2.5" fill="red" stroke="black" stroke-width="0.5"></rect><rect x="160.016" y="-36.7889" width="2.5" height="2.5" fill="red" stroke="black" stroke-width="0.5"></rect>
<rect x="-92.5085" y="-136.604" width="20" height="20" fill="yellow" stroke="black" stroke-width="0.5"><title>room 10</title></rect><rect x="-81.2555" y="-121.854" width="2.5" height="2.5" fill="red" stroke="black" stroke-width="0.5"></rect><rect x="-89.7585" y="-133.854" width="2.5" height="2.5" fill="red" stroke="black" stroke-width="0.5"></rect>
<rect x="179.511" y="-71.6151" width="20" height="20" fill="yellow" stroke="black" stroke-width="0.5"><title>room 11</title></rect><rect x="182.261" y="-56.8651" width="2.5" height="2.5" fill="red" stroke="black" stroke-width="0.5"></rect><rect x="194.261" y="-68.8651" width="2.5" height="2.5" fill="red" stroke="black" stroke-width="0.5"></rect><rect x="194.261" y="-62.8366" width="2.5" height="2.5" fill="red" stroke="black" stroke-width="0.5"></rect><rect x="182.261" y="-68.8651" width="2.5" height="2.5" fill="red" stroke="black" stroke-width="0.5"></rect>
<rect x="49.9291" y="120.351" width="20" height="20" fill="yellow" stroke="black" stroke-width="0.5"><title>room 12</title></rect><rect x="52.6791" y="123.101" width="2.5" height="2.5" fill="red" stroke="black" stroke-width="0.5"></rect><rect x="64.6791" y="135.101" width="2.5" height="2.5" fill="red" stroke="black" stroke-width="0.5"></rect><rect x="58.623" y="135.101" width="2.5" height="2.5" fill="red" stroke="black" stroke-width="0.5"></rect><rect x="64.6791" y="123.101" width="2.5" height="2.5" fill="red" stroke="black" stroke-width="0.5"></rect><rect x="52.6791" y="135.101" width="2.5" height="2.5" fill="red" stroke="black" stroke-width="0.5"></rect>
<rect x="-30.4375" y="-130.868" width="30" height="30" fill="yellow" stroke="black" stroke-width="0.5"><title>room 13</title></rect><rect x="-25.6875" y="-108.118" width="2.5" height="2.5" fill="red" stroke="black" stroke-width="0.5"></rect><rect x="-7.68751" y="-126.118" width="2.5" height="2.5" fill="red" stroke="black" stroke-width="0.5"></rect><rect x="-7.68751" y="-108.118" width="2.5" height="2.5" fill="red" stroke="black" stroke-width="0.5"></rect>
<rect x="67.3634" y="35.7987" width="40" height="40" fill="yellow" stroke="black" stroke-width="0.5"><title>room 14</title></rect><rect x="74.1134" y="47.9243" width="2.5" height="2.5" fill="red" stroke="black" stroke-width="0.5"></rect><rect x="98.1134" y="64.8072" width="2.5" height="2.5" fill="red" stroke="black" stroke-width="0.5"></rect>
<rect x="-134.805" y="-139.768" width="30" height="30" fill="yellow" stroke="black" stroke-width="0.5"><title>room 15</title></rect><rect x="-112.055" y="-117.018" width="2.5" height="2.5" fill="red" stroke="black" stroke-width="0.5"></rect><rect x="-130.055" y="-135.018" width="2.5" height="2.5" fill="red" stroke="black" stroke-width="0.5"></rect><rect x="-130.055" y="-128.37" width="2.5" height="2.5" fill="red" stroke="black" stroke-width="0.5"></rect>
<rect x="135.617" y="-116.709" width="20" height="40" fill="yellow" stroke="black" stroke-width="0.5"><title>room 16</title></rect><rect x="146.191" y="-85.9589" width="2.5" height="2.5" fill="red" stroke="black" stroke-width="0.5"></rect><rect x="150.367" y="-109.959" width="2.5" height="2.5" fill="red" stroke="black" stroke-width="0.5"></rect><rect x="138.367" y="-109.959" width="2.5" height="2.5" fill="red" stroke="black" stroke-width="0.5"></rect>
<rect x="20.2062" y="-45.4279" width="30" height="30" fill="yellow" stroke="black" stroke-width="0.5"><title>room 17</title></rect><rect x="27.4346" y="-22.6779" width="2.5" height="2.5" fill="red" stroke="black" stroke-width="0.5"></rect><rect x="24.9562" y="-40.6779" width="2.5" height="2.5" fill="red" stroke="black" stroke-width="0.5"></rect><rect x="42.9562" y="-40.6779" width="2.5" height="2.5" fill="red" stroke="black" stroke-width="0.5"></rect>
<rect x="-122.161" y="-172.061" width="20" height="20" fill="yellow" stroke="black" stroke-width="0.5"><title>room 18</title></rect><rect x="-107.411" y="-157.311" width="2.5" height="2.5" fill="red" stroke="black" stroke-width="0.5"></rect><rect x="-119.411" y="-169.311" width="2.5" height="2.5" fill="red" stroke="black" stroke-width="0.5"></rect>
<rect x="-2.32105" y="-163.213" width="20" height="20" fill="yellow" stroke="black" stroke-width="0.5"><title>room 19</title></rect><rect x="0.428954" y="-148.463" width="2.5" height="2.5" fill="red" stroke="black" stroke-width="0.5"></rect><rect x="12.429" y="-160.463" width="2.5" height="2.5" fill="red" stroke="black" stroke-width="0.5"></rect><rect x="1.77961" y="-160.463" width="2.5" height="2.5" fill="red" stroke="black" stroke-width="0.5"></rect><rect x="12.429" y="-148.463" width="2.5" height="2.5" fill="red" stroke="black" stroke-width="0.5"></rect>
<rect x="-116.339" y="-47.9423" width="20" height="40" fill="yellow" stroke="black" stroke-width="0.5"><title>room 20</title></rect><rect x="-101.589" y="-17.1923" width="2.5" height="2.5" fill="red" stroke="black" stroke-width="0.5"></rect><rect x="-113.589" y="-41.1923" width="2.5" height="2.5" fill="red" stroke="black" stroke-width="0.5"></rect>
<rect x="-158.515" y="-50.4846" width="30" height="30" fill="yellow" stroke="black" stroke-width="0.5"><title>room 21</title></rect><rect x="-135.765" y="-45.7346" width="2.5" height="2.5" fill="red" stroke="black" stroke-width="0.5"></rect><rect x="-153.765" y="-27.7346" width="2.5" height="2.5" fill="red" stroke="black" stroke-width="0.5"></rect><rect x="-144.7" y="-27.7346" width="2.5" height="2.5" fill="red" stroke="black" stroke-width="0.5"></rect>
<rect x="-116.003" y="6.77073" width="20" height="20" fill="yellow" stroke="black" stroke-width="0.5"><title>room 22</title></rect><rect x="-101.253" y="9.52073" width="2.5" height="2.5" fill="red" stroke="black" stroke-width="0.5"></rect>
<rect x="-150.889" y="-201.89" width="40" height="20" fill="yellow" stroke="black" stroke-width="0.5"><title>room 23</title></rect><rect x="-120.139" y="-187.14" width="2.5" height="2.5" fill="red" stroke="black" stroke-width="0.5"></rect><rect x="-144.139" y="-199.14" width="2.5" height="2.5" fill="red" stroke="black" stroke-width="0.5"></rect>
<rect x="7.91724" y="88.5097" width="30" height="30" fill="yellow" stroke="black" stroke-width="0.5"><title>room 24</title></rect><rect x="21.1023" y="93.2597" width="2.5" height="2.5" fill="red" stroke="black" stroke-width="0.5"></rect>
<rect x="-66.5528" y="119.52" width="30" height="30" fill="yellow" stroke="black" stroke-width="0.5"><title>room 25</title></rect><rect x="-43.8028" y="124.27" width="2.5" height="2.5" fill="red" stroke="black" stroke-width="0.5"></rect><rect x="-61.8028" y="142.27" width="2.5" height="2.5" fill="red" stroke="black" stroke-width="0.5"></rect><rect x="-61.8028" y="137.33" width="2.5" height="2.5" fill="red" stroke="black" stroke-width="0.5"></rect>
<rect x="124.325" y="149.969" width="20" height="20" fill="yellow" stroke="black" stroke-width="0.5"><title>room 26</title></rect><rect x="127.075" y="152.719" width="2.5" height="2.5" fill="red" stroke="black" stroke-width="0.5"></rect><rect x="139.075" y="152.719" width="2.5" height="2.5" fill="red" stroke="black" stroke-width="0.5"></rect><rect x="139.075" y="164.719" width="2.5" height="2.5" fill="red" stroke="black" stroke-width="0.5"></rect><rect x="127.075" y="161.055" width="2.5" height="2.5" fill="red" stroke="black" stroke-width="0.5"></rect><rect x="127.075" y="152.719" width="2.5" height="2.5" fill="red" stroke="black" stroke-width="0.5"></rect><rect x="139.075" y="153.887" width="2.5" height="2.5" fill="red" stroke="black" stroke-width="0.5"></rect>
<rect x="-86.3017" y="27.4774" width="20" height="20" fill="yellow" stroke="black" stroke-width="0.5"><title>room 27</title></rect><rect x="-71.5517" y="30.2274" width="2.5" height="2.5" fill="red" stroke="black" stroke-width="0.5"></rect><rect x="-83.5517" y="42.2274" width="2.5" height="2.5" fill="red" stroke="black" stroke-width="0.5"></rect>
<rect x="139.339" y="120.11" width="20" height="20" fill="yellow" stroke="black" stroke-width="0.5"><title>room 28</title></rect><rect x="142.089" y="134.86" width="2.5" height="2.5" fill="red" stroke="black" stroke-width="0.5"></rect><rect x="154.089" y="122.86" width="2.5" height="2.5" fill="red" stroke="black" stroke-width="0.5"></rect>
<rect x="-92.9137" y="161.774" width="40" height="20" fill="yellow" stroke="black" stroke-width="0.5"><title>room 29</title></rect><rect x="-62.1637" y="164.524" width="2.5" height="2.5" fill="red" stroke="black" stroke-width="0.5"></rect>
<rect x="165.403" y="-131.317" width="20" height="20" fill="yellow" stroke="black" stroke-width="0.5"><title>room 30</title></rect><rect x="168.153" y="-116.567" width="2.5" height="2.5" fill="red" stroke="black" stroke-width="0.5"></rect><rect x="180.153" y="-128.567" width="2.5" height="2.5" fill="red" stroke="black" stroke-width="0.5"></rect>
<rect x="-24.2522" y="115.74" width="20" height="20" fill="yellow" stroke="black" stroke-width="0.5"><title>room 31</title></rect><rect x="-17.1291" y="118.49" width="2.5" height="2.5" fill="red" stroke="black" stroke-width="0.5"></rect>
<rect x="-203.022" y="-72.3839" width="30" height="30" fill="yellow" stroke="black" stroke-width="0.5"><title>room 32</title></rect><rect x="-180.272" y="-49.6339" width="2.5" height="2.5" fill="red" stroke="black" stroke-width="0.5"></rect><rect x="-198.272" y="-67.6339" width="2.5" height="2.5" fill="red" stroke="black" stroke-width="0.5"></rect>
<rect x="-7.01576" y="-88.6642" width="40" height="20" fill="yellow" stroke="black" stroke-width="0.5"><title>room 33</title></rect><rect x="-0.265763" y="-85.9142" width="2.5" height="2.5" fill="red" stroke="black" stroke-width="0.5"></rect>
<rect x="27.3601" y="-193.181" width="20" height="20" fill="yellow" stroke="black" stroke-width="0.5"><title>room 34</title></rect><rect x="30.1101" y="-178.431" width="2.5" height="2.5" fill="red" stroke="black" stroke-width="0.5"></rect><rect x="30.1101" y="-190.431" width="2.5" height="2.5" fill="red" stroke="black" stroke-width="0.5"></rect><rect x="36.2038" y="-178.431" width="2.5" height="2.5" fill="red" stroke="black" stroke-width="0.5"></rect><rect x="42.1101" y="-182.071" width="2.5" height="2.5" fill="red" stroke="black" stroke-width="0.5"></rect><rect x="42.1101" y="-190.431" width="2.5" height="2.5" fill="red" stroke="black" stroke-width="0.5"></rect>
<rect x="195.479" y="-101.43" width="20" height="20" fill="yellow" stroke="black" stroke-width="0.5"><title>room 35</title></rect><rect x="198.229" y="-86.6802" width="2.5" height="2.5" fill="red" stroke="black" stroke-width="0.5"></rect>
<rect x="-82.1989" y="87.2251" width="40" height="20" fill="yellow" stroke="black" stroke-width="0.5"><title>room 36</title></rect><rect x="-51.4489" y="95.3218" width="2.5" height="2.5" fill="red" stroke="black" stroke-width="0.5"></rect>
<rect x="126.5" y="-12.2665" width="40" height="40" fill="yellow" stroke="black" stroke-width="0.5"><title>room 37</title></rect><rect x="133.25" y="-5.51648" width="2.5" height="2.5" fill="red" stroke="black" stroke-width="0.5"></rect>
<rect x="-176.938" y="-171.777" width="40" height="20" fill="yellow" stroke="black" stroke-width="0.5"><title>room 38</title></rect><rect x="-146.188" y="-157.027" width="2.5" height="2.5" fill="red" stroke="black" stroke-width="0.5"></rect>
<rect x="-235.312" y="-82.6297" width="20" height="20" fill="yellow" stroke="black" stroke-width="0.5"><title>room 39</title></rect><rect x="-220.562" y="-67.8797" width="2.5" height="2.5" fill="red" stroke="black" stroke-width="0.5"></rect><rect x="-232.562" y="-79.8797" width="2.5" height="2.5" fill="red" stroke="black" stroke-width="0.5"></rect><rect x="-221.957" y="-79.8797" width="2.5" height="2.5" fill="red" stroke="black" stroke-width="0.5"></rect><rect x="-232.562" y="-67.8797" width="2.5" height="2.5" fill="red" stroke="black" stroke-width="0.5"></rect>
<rect x="143.977" y="184.521" width="40" height="40" fill="yellow" stroke="black" stroke-width="0.5"><title>room 40</title></rect><rect x="150.727" y="191.271" width="2.5" height="2.5" fill="red" stroke="black" stroke-width="0.5"></rect><rect x="174.727" y="215.271" width="2.5" height="2.5" fill="red" stroke="black" stroke-width="0.5"></rect>
<rect x="10.5354" y="-222.969" width="20" height="20" fill="yellow" stroke="black" stroke-width="0.5"><title>room 41</title></rect><rect x="25.2854" y="-208.219" width="2.5" height="2.5" fill="red" stroke="black" stroke-width="0.5"></rect><rect x="13.2854" y="-220.219" width="2.5" height="2.5" fill="red" stroke="black" stroke-width="0.5"></rect>
<rect x="82.0755" y="152.641" width="30" height="30" fill="yellow" stroke="black" stroke-width="0.5"><title>room 42</title></rect><rect x="104.826" y="161.055" width="2.5" height="2.5" fill="red" stroke="black" stroke-width="0.5"></rect><rect x="86.8255" y="175.391" width="2.5" height="2.5" fill="red" stroke="black" stroke-width="0.5"></rect>
<rect x="-9.52874" y="-265.224" width="30" height="30" fill="yellow" stroke="black" stroke-width="0.5"><title>room 43</title></rect><rect x="13.2213" y="-242.474" width="2.5" height="2.5" fill="red" stroke="black" stroke-width="0.5"></rect>
<rect x="-12.013" y="-58.7511" width="20" height="20" fill="yellow" stroke="black" stroke-width="0.5"><title>room 44</title></rect><rect x="2.73701" y="-44.0011" width="2.5" height="2.5" fill="red" stroke="black" stroke-width="0.5"></rect><rect x="-9.26299" y="-56.0011" width="2.5" height="2.5" fill="red" stroke="black" stroke-width="0.5"></rect>
<rect x="67.0361" y="-83.4588" width="40" height="40" fill="yellow" stroke="black" stroke-width="0.5"><title>room 45</title></rect><rect x="73.7861" y="-52.7088" width="2.5" height="2.5" fill="red" stroke="black" stroke-width="0.5"></rect>
<rect x="203.424" y="209.773" width="40" height="40" fill="yellow" stroke="black" stroke-width="0.5"><title>room 46</title></rect><rect x="210.174" y="216.523" width="2.5" height="2.5" fill="red" stroke="black" stroke-width="0.5"></rect><rect x="234.174" y="240.523" width="2.5" height="2.5" fill="red" stroke="black" stroke-width="0.5"></rect>
<rect x="-41.8021" y="-76.8817" width="20" height="20" fill="yellow" stroke="black" stroke-width="0.5"><title>room 47</title></rect><rect x="-27.0521" y="-62.1317" width="2.5" height="2.5" fill="red" stroke="black" stroke-width="0.5"></rect>
<rect x="84.6501" y="120.327" width="40" height="20" fill="yellow" stroke="black" stroke-width="0.5"><title>room 48</title></rect><rect x="115.4" y="135.077" width="2.5" height="2.5" fill="red" stroke="black" stroke-width="0.5"></rect>
<rect x="-215.55" y="-25.1143" width="40" height="40" fill="yellow" stroke="black" stroke-width="0.5"><title>room 49</title></rect><rect x="-184.8" y="-18.3643" width="2.5" height="2.5" fill="red" stroke="black" stroke-width="0.5"></rect><rect x="-208.8" y="5.63571" width="2.5" height="2.5" fill="red" stroke="black" stroke-width="0.5"></rect>
<rect x="-158.385" y="-5.74943" width="30" height="30" fill="yellow" stroke="black" stroke-width="0.5"><title>room 50</title></rect><rect x="-144.7" y="-0.999434" width="2.5" height="2.5" fill="red" stroke="black" stroke-width="0.5"></rect>
<rect x="27.5474" y="-163.343" width="20" height="20" fill="yellow" stroke="black" stroke-width="0.5"><title>room 51</title></rect><rect x="36.2038" y="-160.593" width="2.5" height="2.5" fill="red" stroke="black" stroke-width="0.5"></rect>
<rect x="-134.282" y="-95.0663" width="30" height="30" fill="yellow" stroke="black" stroke-width="0.5"><title>room 52</title></rect><rect x="-111.532" y="-72.3163" width="2.5" height="2.5" fill="red" stroke="black" stroke-width="0.5"></rect><rect x="-129.532" y="-90.0638" width="2.5" height="2.5" fill="red" stroke="black" stroke-width="0.5"></rect>
<rect x="-81.5252" y="57.3671" width="40" height="20" fill="yellow" stroke="black" stroke-width="0.5"><title>room 53</title></rect><rect x="-52.2316" y="60.1171" width="2.5" height="2.5" fill="red" stroke="black" stroke-width="0.5"></rect>
<rect x="49.8169" y="153.151" width="20" height="20" fill="yellow" stroke="black" stroke-width="0.5"><title>room 54</title></rect><rect x="58.623" y="155.901" width="2.5" height="2.5" fill="red" stroke="black" stroke-width="0.5"></rect><rect x="64.5669" y="167.901" width="2.5" height="2.5" fill="red" stroke="black" stroke-width="0.5"></rect>
<rect x="-262.614" y="1.71087" width="30" height="30" fill="yellow" stroke="black" stroke-width="0.5"><title>room 55</title></rect><rect x="-239.864" y="6.46087" width="2.5" height="2.5" fill="red" stroke="black" stroke-width="0.5"></rect><rect x="-257.864" y="24.4609" width="2.5" height="2.5" fill="red" stroke="black" stroke-width="0.5"></rect>
<rect x="209.377" y="-71.5581" width="20" height="20" fill="yellow" stroke="black" stroke-width="0.5"><title>room 56</title></rect><rect x="212.127" y="-62.8366" width="2.5" height="2.5" fill="red" stroke="black" stroke-width="0.5"></rect>
<rect x="93.3682" y="-133.111" width="30" height="30" fill="yellow" stroke="black" stroke-width="0.5"><title>room 57</title></rect><rect x="116.118" y="-110.361" width="2.5" height="2.5" fill="red" stroke="black" stroke-width="0.5"></rect>
<rect x="228.032" y="264.435" width="40" height="20" fill="yellow" stroke="black" stroke-width="0.5"><title>room 58</title></rect><rect x="234.782" y="267.185" width="2.5" height="2.5" fill="red" stroke="black" stroke-width="0.5"></rect><rect x="258.782" y="279.185" width="2.5" height="2.5" fill="red" stroke="black" stroke-width="0.5"></rect>
<rect x="-167.101" y="-141.809" width="20" height="20" fill="yellow" stroke="black" stroke-width="0.5"><title>room 59</title></rect><rect x="-152.351" y="-128.37" width="2.5" height="2.5" fill="red" stroke="black" stroke-width="0.5"></rect>
<rect x="-27.6197" y="-193.086" width="40" height="20" fill="yellow" stroke="black" stroke-width="0.5"><title>room 60</title></rect><rect x="1.77961" y="-178.336" width="2.5" height="2.5" fill="red" stroke="black" stroke-width="0.5"></rect><rect x="-20.8697" y="-190.336" width="2.5" height="2.5" fill="red" stroke="black" stroke-width="0.5"></rect>
<rect x="67.0029" y="1.10637" width="40" height="20" fill="yellow" stroke="black" stroke-width="0.5"><title>room 61</title></rect><rect x="73.7529" y="15.8564" width="2.5" height="2.5" fill="red" stroke="black" stroke-width="0.5"></rect>
<rect x="173.981" y="124.968" width="40" height="40" fill="yellow" stroke="black" stroke-width="0.5"><title>room 62</title></rect><rect x="180.731" y="153.887" width="2.5" height="2.5" fill="red" stroke="black" stroke-width="0.5"></rect><rect x="204.731" y="155.718" width="2.5" height="2.5" fill="red" stroke="black" stroke-width="0.5"></rect>
<rect x="59.7307" y="-190.461" width="30" height="30" fill="yellow" stroke="black" stroke-width="0.5"><title>room 63</title></rect><rect x="64.4807" y="-182.071" width="2.5" height="2.5" fill="red" stroke="black" stroke-width="0.5"></rect>
<rect x="148.712" y="90.2338" width="40" height="20" fill="yellow" stroke="black" stroke-width="0.5"><title>room 64</title></rect><rect x="155.462" y="104.984" width="2.5" height="2.5" fill="red" stroke="black" stroke-width="0.5"></rect><rect x="179.462" y="92.9838" width="2.5" height="2.5" fill="red" stroke="black" stroke-width="0.5"></rect>
<rect x="195.23" y="-143.749" width="20" height="20" fill="yellow" stroke="black" stroke-width="0.5"><title>room 65</title></rect><rect x="197.98" y="-128.999" width="2.5" height="2.5" fill="red" stroke="black" stroke-width="0.5"></rect>
<rect x="84.2902" y="199.768" width="40" height="40" fill="yellow" stroke="black" stroke-width="0.5"><title>room 66</title></rect><rect x="91.0402" y="206.518" width="2.5" height="2.5" fill="red" stroke="black" stroke-width="0.5"></rect><rect x="115.04" y="230.518" width="2.5" height="2.5" fill="red" stroke="black" stroke-width="0.5"></rect>
<rect x="49.6027" y="187.917" width="20" height="40" fill="yellow" stroke="black" stroke-width="0.5"><title>room 67</title></rect><rect x="64.3527" y="194.667" width="2.5" height="2.5" fill="red" stroke="black" stroke-width="0.5"></rect><rect x="52.3527" y="218.667" width="2.5" height="2.5" fill="red" stroke="black" stroke-width="0.5"></rect>
<rect x="165.558" y="-101.41" width="20" height="20" fill="yellow" stroke="black" stroke-width="0.5"><title>room 68</title></rect><rect x="180.308" y="-86.66" width="2.5" height="2.5" fill="red" stroke="black" stroke-width="0.5"></rect>
<rect x="-5.05683" y="212.633" width="40" height="40" fill="yellow" stroke="black" stroke-width="0.5"><title>room 69</title></rect><rect x="25.6932" y="219.383" width="2.5" height="2.5" fill="red" stroke="black" stroke-width="0.5"></rect>
<rect x="-116.387" y="41.604" width="20" height="40" fill="yellow" stroke="black" stroke-width="0.5"><title>room 70</title></rect><rect x="-101.637" y="48.354" width="2.5" height="2.5" fill="red" stroke="black" stroke-width="0.5"></rect>
<rect x="175.864" y="47.9895" width="30" height="30" fill="yellow" stroke="black" stroke-width="0.5"><title>room 71</title></rect><rect x="180.614" y="70.7395" width="2.5" height="2.5" fill="red" stroke="black" stroke-width="0.5"></rect><rect x="198.614" y="70.7395" width="2.5" height="2.5" fill="red" stroke="black" stroke-width="0.5"></rect>
<rect x="233.435" y="149.479" width="40" height="40" fill="yellow" stroke="black" stroke-width="0.5"><title>room 72</title></rect><rect x="240.185" y="156.229" width="2.5" height="2.5" fill="red" stroke="black" stroke-width="0.5"></rect>
<rect x="110.818" y="256.834" width="30" height="30" fill="yellow" stroke="black" stroke-width="0.5"><title>room 73</title></rect><rect x="115.568" y="261.584" width="2.5" height="2.5" fill="red" stroke="black" stroke-width="0.5"></rect><rect x="133.568" y="279.584" width="2.5" height="2.5" fill="red" stroke="black" stroke-width="0.5"></rect>
<rect x="222.929" y="64.308" width="40" height="40" fill="yellow" stroke="black" stroke-width="0.5"><title>room 74</title></rect><rect x="229.679" y="71.058" width="2.5" height="2.5" fill="red" stroke="black" stroke-width="0.5"></rect>
<rect x="-289.976" y="-111.179" width="40" height="40" fill="yellow" stroke="black" stroke-width="0.5"><title>room 75</title></rect><rect x="-259.226" y="-80.4293" width="2.5" height="2.5" fill="red" stroke="black" stroke-width="0.5"></rect><rect x="-283.226" y="-104.429" width="2.5" height="2.5" fill="red" stroke="black" stroke-width="0.5"></rect>
<rect x="-35.7224" y="-222.916" width="20" height="20" fill="yellow" stroke="black" stroke-width="0.5"><title>room 76</title></rect><rect x="-20.9724" y="-208.166" width="2.5" height="2.5" fill="red" stroke="black" stroke-width="0.5"></rect>
<rect x="-62.6203" y="-161.164" width="20" height="40" fill="yellow" stroke="black" stroke-width="0.5"><title>room 77</title></rect><rect x="-59.8703" y="-130.414" width="2.5" height="2.5" fill="red" stroke="black" stroke-width="0.5"></rect><rect x="-47.8703" y="-151.439" width="2.5" height="2.5" fill="red" stroke="black" stroke-width="0.5"></rect><rect x="-59.8703" y="-154.414" width="2.5" height="2.5" fill="red" stroke="black" stroke-width="0.5"></rect>
<rect x="185.969" y="-36.7372" width="40" height="40" fill="yellow" stroke="black" stroke-width="0.5"><title>room 78</title></rect><rect x="192.719" y="-29.9872" width="2.5" height="2.5" fill="red" stroke="black" stroke-width="0.5"></rect>
<rect x="122.057" y="60.3156" width="20" height="20" fill="yellow" stroke="black" stroke-width="0.5"><title>room 79</title></rect><rect x="124.807" y="64.8072" width="2.5" height="2.5" fill="red" stroke="black" stroke-width="0.5"></rect>
<rect x="-314.764" y="-170.629" width="40" height="40" fill="yellow" stroke="black" stroke-width="0.5"><title>room 80</title></rect><rect x="-284.014" y="-139.879" width="2.5" height="2.5" fill="red" stroke="black" stroke-width="0.5"></rect>
<rect x="-32.7691" y="-163.215" width="20" height="20" fill="yellow" stroke="black" stroke-width="0.5"><title>room 81</title></rect><rect x="-30.0191" y="-151.439" width="2.5" height="2.5" fill="red" stroke="black" stroke-width="0.5"></rect>
<rect x="62.3478" y="90.5511" width="20" height="20" fill="yellow" stroke="black" stroke-width="0.5"><title>room 82</title></rect><rect x="65.0978" y="105.301" width="2.5" height="2.5" fill="red" stroke="black" stroke-width="0.5"></rect><rect x="77.0978" y="99.2677" width="2.5" height="2.5" fill="red" stroke="black" stroke-width="0.5"></rect>
<rect x="42.9093" y="-235.372" width="30" height="30" fill="yellow" stroke="black" stroke-width="0.5"><title>room 83</title></rect><rect x="47.6593" y="-212.622" width="2.5" height="2.5" fill="red" stroke="black" stroke-width="0.5"></rect><rect x="65.6593" y="-230.622" width="2.5" height="2.5" fill="red" stroke="black" stroke-width="0.5"></rect>
<rect x="-230.102" y="-137.317" width="40" height="40" fill="yellow" stroke="black" stroke-width="0.5"><title>room 84</title></rect><rect x="-221.957" y="-106.567" width="2.5" height="2.5" fill="red" stroke="black" stroke-width="0.5"></rect>
<rect x="127.281" y="303.898" width="40" height="40" fill="yellow" stroke="black" stroke-width="0.5"><title>room 85</title></rect><rect x="134.031" y="310.648" width="2.5" height="2.5" fill="red" stroke="black" stroke-width="0.5"></rect><rect x="158.031" y="310.648" width="2.5" height="2.5" fill="red" stroke="black" stroke-width="0.5"></rect>
<rect x="-166.61" y="-104.561" width="20" height="20" fill="yellow" stroke="black" stroke-width="0.5"><title>room 86</title></rect><rect x="-151.86" y="-90.0638" width="2.5" height="2.5" fill="red" stroke="black" stroke-width="0.5"></rect>
<rect x="252.428" y="299.098" width="40" height="40" fill="yellow" stroke="black" stroke-width="0.5"><title>room 87</title></rect><rect x="259.178" y="305.848" width="2.5" height="2.5" fill="red" stroke="black" stroke-width="0.5"></rect>
<rect x="-185.549" y="-230.474" width="20" height="40" fill="yellow" stroke="black" stroke-width="0.5"><title>room 88</title></rect><rect x="-170.799" y="-199.724" width="2.5" height="2.5" fill="red" stroke="black" stroke-width="0.5"></rect>
<rect x="-319.678" y="18.3684" width="40" height="40" fill="yellow" stroke="black" stroke-width="0.5"><title>room 89</title></rect><rect x="-288.928" y="25.1184" width="2.5" height="2.5" fill="red" stroke="black" stroke-width="0.5"></rect><rect x="-312.928" y="49.1184" width="2.5" height="2.5" fill="red" stroke="black" stroke-width="0.5"></rect>
<rect x="92.2131" y="90.4842" width="20" height="20" fill="yellow" stroke="black" stroke-width="0.5"><title>room 90</title></rect><rect x="94.9631" y="99.2677" width="2.5" height="2.5" fill="red" stroke="black" stroke-width="0.5"></rect>
<rect x="-123.691" y="131.837" width="40" height="20" fill="yellow" stroke="black" stroke-width="0.5"><title>room 91</title></rect><rect x="-92.9413" y="137.33" width="2.5" height="2.5" fill="red" stroke="black" stroke-width="0.5"></rect>
<rect x="155.603" y="269.239" width="20" height="20" fill="yellow" stroke="black" stroke-width="0.5"><title>room 92</title></rect><rect x="158.353" y="283.989" width="2.5" height="2.5" fill="red" stroke="black" stroke-width="0.5"></rect>
<rect x="59.1825" y="-267.625" width="40" height="20" fill="yellow" stroke="black" stroke-width="0.5"><title>room 93</title></rect><rect x="65.9325" y="-252.875" width="2.5" height="2.5" fill="red" stroke="black" stroke-width="0.5"></rect>
<rect x="-4.97002" y="150.222" width="40" height="40" fill="yellow" stroke="black" stroke-width="0.5"><title>room 94</title></rect><rect x="25.78" y="156.972" width="2.5" height="2.5" fill="red" stroke="black" stroke-width="0.5"></rect>
<rect x="14.3973" y="-131.017" width="30" height="30" fill="yellow" stroke="black" stroke-width="0.5"><title>room 95</title></rect><rect x="19.1473" y="-126.267" width="2.5" height="2.5" fill="red" stroke="black" stroke-width="0.5"></rect>
<rect x="-92.337" y="-191.447" width="20" height="40" fill="yellow" stroke="black" stroke-width="0.5"><title>room 96</title></rect><rect x="-77.587" y="-160.697" width="2.5" height="2.5" fill="red" stroke="black" stroke-width="0.5"></rect>
<rect x="-262.693" y="-50.4839" width="30" height="30" fill="yellow" stroke="black" stroke-width="0.5"><title>room 97</title></rect><rect x="-239.943" y="-45.7339" width="2.5" height="2.5" fill="red" stroke="black" stroke-width="0.5"></rect>
<rect x="-328.458" y="73.0262" width="20" height="20" fill="yellow" stroke="black" stroke-width="0.5"><title>room 98</title></rect><rect x="-313.708" y="75.7762" width="2.5" height="2.5" fill="red" stroke="black" stroke-width="0.5"></rect><rect x="-325.708" y="87.7762" width="2.5" height="2.5" fill="red" stroke="black" stroke-width="0.5"></rect>
<rect x="-358.288" y="81.1955" width="20" height="40" fill="yellow" stroke="black" stroke-width="0.5"><title>room 99</title></rect><rect x="-343.538" y="87.9455" width="2.5" height="2.5" fill="red" stroke="black" stroke-width="0.5"></rect>
<line x1="-4.931735750389617" y1="18.549974748686182" x2="-30.318906838720345" y2="-20.51723790044546" stroke-width="0.5" stroke="blue" />
<line x1="31.068264249610383" y1="18.549974748686182" x2="95.07480145371304" y2="-12.689532243504686" stroke-width="0.5" stroke="blue" />
<line x1="-4.931735750389617" y1="37.33899168136528" x2="-40.43800547167623" y2="37.33897853533187" stroke-width="0.5" stroke="blue" />
<line x1="-4.931735750389617" y1="18.549974748686182" x2="-49.19947116197789" y2="13.70366547694237" stroke-width="0.5" stroke="blue" />
<line x1="-4.931735750389617" y1="54.54997474868618" x2="-11.505947663332911" y2="89.91846532512054" stroke-width="0.5" stroke="blue" />
<line x1="31.068264249610383" y1="54.54997474868618" x2="53.92906363412815" y2="124.35101944976566" stroke-width="0.5" stroke="blue" />
<line x1="31.068264249610383" y1="49.17432944764828" x2="75.36344169004728" y2="49.17432421010111" stroke-width="0.5" stroke="blue" />
<line x1="28.684647688897314" y1="18.549974748686182" x2="28.68464106167928" y2="-21.427901576664272" stroke-width="0.5" stroke="blue" />
<line x1="22.352343788424747" y1="54.54997474868618" x2="22.352339067493308" y2="94.50970741322729" stroke-width="0.5" stroke="blue" />
<line x1="31.068264249610383" y1="18.549974748686182" x2="75.00292005325929" y2="17.106369833813844" stroke-width="0.5" stroke="blue" />
<line x1="-48.318906838720345" y1="-24.2957948267949" x2="-70.53671790555043" y2="-24.29577703834322" stroke-width="0.5" stroke="blue" />
<line x1="-48.318906838720345" y1="-38.51723790044546" x2="-70.5437813402617" y2="-45.93170774615351" stroke-width="0.5" stroke="blue" />
<line x1="-48.318906838720345" y1="-38.51723790044546" x2="-65.50241578830776" y2="-80.22260737403128" stroke-width="0.5" stroke="blue" />
<line x1="-48.318906838720345" y1="-20.51723790044546" x2="-70.30170795038494" y2="31.477353195965357" stroke-width="0.5" stroke="blue" />
<line x1="107.07480145371304" y1="-24.689532243504686" x2="143.26560865097917" y2="-35.53887608610143" stroke-width="0.5" stroke="blue" />
<line x1="107.07480145371304" y1="-12.689532243504686" x2="134.50044722436724" y2="-4.26647603638023" stroke-width="0.5" stroke="blue" />
<line x1="-82.53671790555043" y1="-16.074333964692258" x2="-100.00346693799844" y2="10.770725223419973" stroke-width="0.5" stroke="blue" />
<line x1="-50.981620406821925" y1="43.55935942104066" x2="-50.98161937678505" y2="61.36708253216736" stroke-width="0.5" stroke="blue" />
<line x1="-73.1994711619779" y1="1.70366547694237" x2="-100.3391409996311" y2="-15.942328034699528" stroke-width="0.5" stroke="blue" />
<line x1="-23.50594766333291" y1="101.91846532512054" x2="-42.55281100220849" y2="125.51994918685145" stroke-width="0.5" stroke="blue" />
<line x1="-15.879069130682373" y1="101.91846532512054" x2="-15.879073725220248" y2="119.7403382385248" stroke-width="0.5" stroke="blue" />
<line x1="-23.50594766333291" y1="96.57177111148796" x2="-50.19887799987094" y2="96.57176127948348" stroke-width="0.5" stroke="blue" />
<line x1="-82.5437813402617" y1="-57.93170774615351" x2="-110.28150351732342" y2="-71.06634415600125" stroke-width="0.5" stroke="blue" />
<line x1="-80.00546071048564" y1="-98.22260737403128" x2="-80.00546405091012" y2="-120.60420762235985" stroke-width="0.5" stroke="blue" />
<line x1="-65.50241578830776" y1="-98.22260737403128" x2="-24.43751481355722" y2="-106.86790051586989" stroke-width="0.5" stroke="blue" />
<line x1="-83.50241578830776" y1="-98.22260737403128" x2="-110.80542551590906" y2="-115.7683853768836" stroke-width="0.5" stroke="blue" />
<line x1="-83.50241578830776" y1="-80.22260737403128" x2="-134.5152769676418" y2="-44.48457524971579" stroke-width="0.5" stroke="blue" />
<line x1="-65.50241578830776" y1="-98.22260737403128" x2="-58.6203279951259" y2="-129.16423892929825" stroke-width="0.5" stroke="blue" />
<line x1="161.26560865097917" y1="-53.53887608610143" x2="183.51072355595514" y2="-55.61511847669371" stroke-width="0.5" stroke="blue" />
<line x1="147.4412078079834" y1="-53.53887608610143" x2="147.441208439418" y2="-84.70892753631315" stroke-width="0.5" stroke="blue" />
<line x1="161.26560865097917" y1="-35.53887608610143" x2="193.96901665907038" y2="-28.737208444644782" stroke-width="0.5" stroke="blue" />
<line x1="-88.50850897308766" y1="-132.60420762235987" x2="-106.16111979696359" y2="-156.06125281163503" stroke-width="0.5" stroke="blue" />
<line x1="195.51072355595514" y1="-67.61511847669371" x2="199.47902272826877" y2="-85.43023391151304" stroke-width="0.5" stroke="blue" />
<line x1="195.51072355595514" y1="-61.58661769672633" x2="213.37664789224513" y2="-61.586620784365635" stroke-width="0.5" stroke="blue" />
<line x1="183.51072355595514" y1="-67.61511847669371" x2="181.5583212970203" y2="-85.41004258491269" stroke-width="0.5" stroke="blue" />
<line x1="65.92906363412814" y1="136.35101944976566" x2="128.3250428725653" y2="153.96912912564667" stroke-width="0.5" stroke="blue" />
<line x1="59.87297326415265" y1="136.35101944976566" x2="59.87297579307207" y2="157.15118686165246" stroke-width="0.5" stroke="blue" />
<line x1="65.92906363412814" y1="124.35101944976566" x2="66.3478105753522" y2="106.55109451793417" stroke-width="0.5" stroke="blue" />
<line x1="53.92906363412815" y1="136.35101944976566" x2="27.02997682473439" y2="158.2218684980214" stroke-width="0.5" stroke="blue" />
<line x1="-6.437514813557222" y1="-124.86790051586989" x2="1.678953703228145" y2="-147.21266520552714" stroke-width="0.5" stroke="blue" />
<line x1="-6.437514813557222" y1="-106.86790051586989" x2="0.9842374845636748" y2="-84.66423224474713" stroke-width="0.5" stroke="blue" />
<line x1="99.36344169004728" y1="66.0571509285723" x2="126.05670441333555" y2="66.05715127766692" stroke-width="0.5" stroke="blue" />
<line x1="-128.80542551590906" y1="-133.7683853768836" x2="-144.93797014744288" y2="-155.7772881894948" stroke-width="0.5" stroke="blue" />
<line x1="-128.80542551590906" y1="-127.1199572227468" x2="-151.1008481919892" y2="-127.11995836797652" stroke-width="0.5" stroke="blue" />
<line x1="151.61682083618447" y1="-108.70892753631315" x2="169.40255051002953" y2="-115.31736172621417" stroke-width="0.5" stroke="blue" />
<line x1="139.61682083618447" y1="-108.70892753631315" x2="117.36817259282846" y2="-109.11070851826784" stroke-width="0.5" stroke="blue" />
<line x1="26.206185845628326" y1="-39.42790157666427" x2="3.9870115377114415" y2="-42.75105939602349" stroke-width="0.5" stroke="blue" />
<line x1="44.206185845628326" y1="-39.42790157666427" x2="75.03607625773411" y2="-51.45877335405945" stroke-width="0.5" stroke="blue" />
<line x1="-118.16111979696359" y1="-168.06125281163503" x2="-118.88887570577603" y2="-185.89004589859692" stroke-width="0.5" stroke="blue" />
<line x1="13.678953703228146" y1="-159.21266520552714" x2="31.36007405586445" y2="-177.180639332565" stroke-width="0.5" stroke="blue" />
<line x1="3.0296148466548374" y1="-159.21266520552714" x2="3.0296125239081695" y2="-177.08572625152334" stroke-width="0.5" stroke="blue" />
<line x1="13.678953703228146" y1="-147.21266520552714" x2="20.397301193743566" y2="-125.01667988982945" stroke-width="0.5" stroke="blue" />
<line x1="-112.3391409996311" y1="-39.94232803469953" x2="-179.0218528979174" y2="-48.38394208776666" stroke-width="0.5" stroke="blue" />
<line x1="-152.5152769676418" y1="-26.48457524971579" x2="-183.5504949397606" y2="-17.114292696668773" stroke-width="0.5" stroke="blue" />
<line x1="-143.45038016732556" y1="-26.48457524971579" x2="-143.45038756239356" y2="0.2505655875573378" stroke-width="0.5" stroke="blue" />
<line x1="-142.88887570577603" y1="-197.89004589859692" x2="-169.54925203154033" y2="-198.47428060797145" stroke-width="0.5" stroke="blue" />
<line x1="-60.55281100220849" y1="143.51994918685145" x2="-60.91374200058907" y2="165.7739323640827" stroke-width="0.5" stroke="blue" />
<line x1="-60.55281100220849" y1="138.57980197337417" x2="-91.69128849723626" y2="138.57980504159025" stroke-width="0.5" stroke="blue" />
<line x1="140.3250428725653" y1="153.96912912564667" x2="143.33934258713342" y2="136.1096715788942" stroke-width="0.5" stroke="blue" />
<line x1="140.3250428725653" y1="165.96912912564667" x2="151.97697579985862" y2="192.5209158428968" stroke-width="0.5" stroke="blue" />
<line x1="128.3250428725653" y1="162.3051701165808" x2="106.07550779494015" y2="162.30519041700722" stroke-width="0.5" stroke="blue" />
<line x1="128.3250428725653" y1="153.96912912564667" x2="116.65010645972826" y2="136.32654697986897" stroke-width="0.5" stroke="blue" />
<line x1="140.3250428725653" y1="155.13695944224926" x2="181.98116837355664" y2="155.1369529424752" stroke-width="0.5" stroke="blue" />
<line x1="-82.30170795038494" y1="43.47735319596536" x2="-100.38659257353322" y2="49.60399150249286" stroke-width="0.5" stroke="blue" />
<line x1="155.33934258713342" y1="124.1096715788942" x2="156.7116609657143" y2="106.23384719123322" stroke-width="0.5" stroke="blue" />
<line x1="181.40255051002953" y1="-127.31736172621417" x2="199.2299764879364" y2="-127.74942712731823" stroke-width="0.5" stroke="blue" />
<line x1="-197.0218528979174" y1="-66.38394208776666" x2="-219.31165134328072" y2="-66.62973283253682" stroke-width="0.5" stroke="blue" />
<line x1="31.36007405586445" y1="-189.180639332565" x2="26.535392350994147" y2="-206.96905325367698" stroke-width="0.5" stroke="blue" />
<line x1="37.45375198611549" y1="-177.180639332565" x2="37.45376867293345" y2="-159.34297674396856" stroke-width="0.5" stroke="blue" />
<line x1="43.36007405586445" y1="-180.820812362326" x2="65.73068738082775" y2="-180.8208097352391" stroke-width="0.5" stroke="blue" />
<line x1="43.36007405586445" y1="-189.180639332565" x2="48.909259291951855" y2="-211.37199566643957" stroke-width="0.5" stroke="blue" />
<line x1="-231.31165134328072" y1="-78.62973283253682" x2="-257.97646365528533" y2="-79.17929249072013" stroke-width="0.5" stroke="blue" />
<line x1="-220.7067741189431" y1="-78.62973283253682" x2="-220.70677872561683" y2="-105.31656896871856" stroke-width="0.5" stroke="blue" />
<line x1="-231.31165134328072" y1="-66.62973283253682" x2="-238.6931189831363" y2="-44.483908721082635" stroke-width="0.5" stroke="blue" />
<line x1="175.97697579985862" y1="216.5209158428968" x2="211.42387894102353" y2="217.7726696902148" stroke-width="0.5" stroke="blue" />
<line x1="14.535392350994147" y1="-218.96905325367698" x2="14.471260046929821" y2="-241.22389204073144" stroke-width="0.5" stroke="blue" />
<line x1="88.07550779494015" y1="176.64123140794086" x2="65.60274078486512" y2="195.9169953704319" stroke-width="0.5" stroke="blue" />
<line x1="-8.012988462288558" y1="-54.75105939602349" x2="-25.802107307203286" y2="-60.88167706527193" stroke-width="0.5" stroke="blue" />
<line x1="235.42387894102353" y1="241.7726696902148" x2="236.03241901703188" y2="268.4349779950267" stroke-width="0.5" stroke="blue" />
<line x1="-207.5504949397606" y1="6.885707303331226" x2="-238.61439200265235" y2="7.710866144582425" stroke-width="0.5" stroke="blue" />
<line x1="-128.28150351732342" y1="-88.81381720288354" x2="-150.61046137599263" y2="-88.81381179197376" stroke-width="0.5" stroke="blue" />
<line x1="65.81688542309658" y1="169.15118686165246" x2="92.29020278205184" y2="207.76771333715317" stroke-width="0.5" stroke="blue" />
<line x1="-256.6143920026524" y1="25.710866144582425" x2="-287.6780059065423" y2="26.368386275106495" stroke-width="0.5" stroke="blue" />
<line x1="260.0324190170319" y1="280.4349779950267" x2="260.4279565971017" y2="307.09750611198007" stroke-width="0.5" stroke="blue" />
<line x1="-19.61972633266419" y1="-189.08572625152334" x2="-19.72237438466389" y2="-206.9156152454604" stroke-width="0.5" stroke="blue" />
<line x1="205.98116837355664" y1="156.96834113103233" x2="241.43487959955917" y2="157.4790147966698" stroke-width="0.5" stroke="blue" />
<line x1="180.7116609657143" y1="94.23384719123322" x2="181.86386523352644" y2="71.9894789363515" stroke-width="0.5" stroke="blue" />
<line x1="116.29020278205184" y1="231.76771333715317" x2="116.81814503053602" y2="262.8337635746004" stroke-width="0.5" stroke="blue" />
<line x1="53.60274078486513" y1="219.9169953704319" x2="26.943166144930373" y2="220.63300202810407" stroke-width="0.5" stroke="blue" />
<line x1="199.86386523352644" y1="71.9894789363515" x2="230.92869301011777" y2="72.30799204219413" stroke-width="0.5" stroke="blue" />
<line x1="134.81814503053602" y1="280.8337635746004" x2="135.28103145930473" y2="311.89838207243827" stroke-width="0.5" stroke="blue" />
<line x1="-281.97646365528533" y1="-103.17929249072013" x2="-282.76423465825144" y2="-138.62870206402408" stroke-width="0.5" stroke="blue" />
<line x1="-46.6203279951259" y1="-150.18939403265625" x2="-28.769082892124615" y2="-150.18939708508742" stroke-width="0.5" stroke="blue" />
<line x1="-58.6203279951259" y1="-153.16423892929825" x2="-76.337000956847" y2="-159.44679747426036" stroke-width="0.5" stroke="blue" />
<line x1="78.3478105753522" y1="100.51766210472186" x2="96.21305954668456" y2="100.51766566007201" stroke-width="0.5" stroke="blue" />
<line x1="66.90925929195186" y1="-229.37199566643957" x2="67.18252936251136" y2="-251.6247869832174" stroke-width="0.5" stroke="blue" />
<line x1="159.28103145930473" y1="311.89838207243827" x2="159.6029666980392" y2="285.23853359626423" stroke-width="0.5" stroke="blue" />
<line x1="-311.6780059065423" y1="50.368386275106495" x2="-312.45826557929826" y2="77.02618255899746" stroke-width="0.5" stroke="blue" />
<line x1="-324.45826557929826" y1="89.02618255899746" x2="-342.2876680731069" y2="89.19549684536995" stroke-width="0.5" stroke="blue" />
</svg>