<svg width="100%" height="100%" viewBox="-306.13 -310.233 571.576 612.276"  xmlns="http://www.w3.org/2000/svg" xmlns:xlink="http://www.w3.org/1999/xlink" version="1.1">
<rect x="-44.0616" y="-24.4083" width="60" height="60" fill="yellow" stroke="black" stroke-width="0.5"><title>room 0</title></rect><rect x="-33.3116" y="22.3417" width="2.5" height="2.5" fill="red" stroke="black" stroke-width="0.5"></rect><rect x="-7.51967" y="-13.6583" width="2.5" height="2.5" fill="red" stroke="black" stroke-width="0.5"></rect><rect x="-33.3116" y="-13.6583" width="2.5" height="2.5" fill="red" stroke="black" stroke-width="0.5"></rect><rect x="-33.3116" y="-4.40548" width="2.5" height="2.5" fill="red" stroke="black" stroke-width="0.5"></rect><rect x="-33.3116" y="22.3417" width="2.5" height="2.5" fill="red" stroke="black" stroke-width="0.5"></rect><rect x="2.68843" y="-13.6583" width="2.5" height="2.5" fill="red" stroke="black" stroke-width="0.5"></rect><rect x="2.68843" y="12.7229" width="2.5" height="2.5" fill="red" stroke="black" stroke-width="0.5"></rect><rect x="2.68843" y="22.3417" width="2.5" height="2.5" fill="red" stroke="black" stroke-width="0.5"></rect>
<rect x="-108.174" y="24.4151" width="40" height="20" fill="yellow" stroke="black" stroke-width="0.5"><title>room 1</title></rect><rect x="-77.4239" y="27.1651" width="2.5" height="2.5" fill="red" stroke="black" stroke-width="0.5"></rect><rect x="-101.424" y="33.0869" width="2.5" height="2.5" fill="red" stroke="black" stroke-width="0.5"></rect>
<rect x="-12.6004" y="-64.0302" width="20" height="20" fill="yellow" stroke="black" stroke-width="0.5"><title>room 2</title></rect><rect x="-7.51967" y="-49.2802" width="2.5" height="2.5" fill="red" stroke="black" stroke-width="0.5"></rect><rect x="2.14962" y="-61.2802" width="2.5" height="2.5" fill="red" stroke="black" stroke-width="0.5"></rect><rect x="-9.85038" y="-55.2774" width="2.5" height="2.5" fill="red" stroke="black" stroke-width="0.5"></rect><rect x="-9.85038" y="-61.2802" width="2.5" height="2.5" fill="red" stroke="black" stroke-width="0.5"></rect>
<rect x="-107.515" y="-50.2214" width="40" height="20" fill="yellow" stroke="black" stroke-width="0.5"><title>room 3</title></rect><rect x="-76.7653" y="-35.4714" width="2.5" height="2.5" fill="red" stroke="black" stroke-width="0.5"></rect><rect x="-100.765" y="-35.4714" width="2.5" height="2.5" fill="red" stroke="black" stroke-width="0.5"></rect><rect x="-100.765" y="-47.4714" width="2.5" height="2.5" fill="red" stroke="black" stroke-width="0.5"></rect><rect x="-90.8725" y="-47.4714" width="2.5" height="2.5" fill="red" stroke="black" stroke-width="0.5"></rect>
<rect x="-96.0282" y="-17.9027" width="30" height="30" fill="yellow" stroke="black" stroke-width="0.5"><title>room 4</title></rect><rect x="-73.2782" y="-4.40547" width="2.5" height="2.5" fill="red" stroke="black" stroke-width="0.5"></rect>
<rect x="-77.057" y="56.9502" width="30" height="30" fill="yellow" stroke="black" stroke-width="0.5"><title>room 5</title></rect><rect x="-54.307" y="61.7002" width="2.5" height="2.5" fill="red" stroke="black" stroke-width="0.5"></rect><rect x="-72.307" y="70.5879" width="2.5" height="2.5" fill="red" stroke="black" stroke-width="0.5"></rect><rect x="-72.307" y="79.7002" width="2.5" height="2.5" fill="red" stroke="black" stroke-width="0.5"></rect>
<rect x="36.4456" y="-63.7997" width="20" height="20" fill="yellow" stroke="black" stroke-width="0.5"><title>room 6</title></rect><rect x="39.1956" y="-49.0497" width="2.5" height="2.5" fill="red" stroke="black" stroke-width="0.5"></rect><rect x="43.2313" y="-61.0497" width="2.5" height="2.5" fill="red" stroke="black" stroke-width="0.5"></rect><rect x="51.1956" y="-61.0497" width="2.5" height="2.5" fill="red" stroke="black" stroke-width="0.5"></rect><rect x="51.1956" y="-49.0497" width="2.5" height="2.5" fill="red" stroke="black" stroke-width="0.5"></rect>
<rect x="37.909" y="-1.64591" width="30" height="30" fill="yellow" stroke="black" stroke-width="0.5"><title>room 7</title></rect><rect x="42.659" y="12.7229" width="2.5" height="2.5" fill="red" stroke="black" stroke-width="0.5"></rect><rect x="49.6546" y="3.10409" width="2.5" height="2.5" fill="red" stroke="black" stroke-width="0.5"></rect><rect x="60.659" y="10.026" width="2.5" height="2.5" fill="red" stroke="black" stroke-width="0.5"></rect>
<rect x="9.09601" y="55.2909" width="20" height="20" fill="yellow" stroke="black" stroke-width="0.5"><title>room 8</title></rect><rect x="11.846" y="58.0409" width="2.5" height="2.5" fill="red" stroke="black" stroke-width="0.5"></rect><rect x="23.846" y="62.9159" width="2.5" height="2.5" fill="red" stroke="black" stroke-width="0.5"></rect><rect x="23.846" y="70.0409" width="2.5" height="2.5" fill="red" stroke="black" stroke-width="0.5"></rect>
<rect x="-142.909" y="24.2588" width="20" height="20" fill="yellow" stroke="black" stroke-width="0.5"><title>room 9</title></rect><rect x="-128.159" y="33.0869" width="2.5" height="2.5" fill="red" stroke="black" stroke-width="0.5"></rect>
<rect x="2.63227" y="-118.676" width="20" height="40" fill="yellow" stroke="black" stroke-width="0.5"><title>room 10</title></rect><rect x="5.38227" y="-87.9264" width="2.5" height="2.5" fill="red" stroke="black" stroke-width="0.5"></rect><rect x="17.3823" y="-111.926" width="2.5" height="2.5" fill="red" stroke="black" stroke-width="0.5"></rect>
<rect x="-42.4657" y="-64.0246" width="20" height="20" fill="yellow" stroke="black" stroke-width="0.5"><title>room 11</title></rect><rect x="-27.7157" y="-55.2774" width="2.5" height="2.5" fill="red" stroke="black" stroke-width="0.5"></rect>
<rect x="-27.2281" y="-118.683" width="20" height="40" fill="yellow" stroke="black" stroke-width="0.5"><title>room 12</title></rect><rect x="-12.4781" y="-87.9334" width="2.5" height="2.5" fill="red" stroke="black" stroke-width="0.5"></rect>
<rect x="-166.784" y="-35.5432" width="40" height="40" fill="yellow" stroke="black" stroke-width="0.5"><title>room 13</title></rect><rect x="-136.034" y="-28.7932" width="2.5" height="2.5" fill="red" stroke="black" stroke-width="0.5"></rect>
<rect x="-146.362" y="-70.5406" width="20" height="20" fill="yellow" stroke="black" stroke-width="0.5"><title>room 14</title></rect><rect x="-131.612" y="-55.7906" width="2.5" height="2.5" fill="red" stroke="black" stroke-width="0.5"></rect><rect x="-143.612" y="-67.7906" width="2.5" height="2.5" fill="red" stroke="black" stroke-width="0.5"></rect>
<rect x="-111.73" y="-104.957" width="40" height="40" fill="yellow" stroke="black" stroke-width="0.5"><title>room 15</title></rect><rect x="-90.8725" y="-74.2074" width="2.5" height="2.5" fill="red" stroke="black" stroke-width="0.5"></rect><rect x="-80.9798" y="-94.9056" width="2.5" height="2.5" fill="red" stroke="black" stroke-width="0.5"></rect><rect x="-80.9798" y="-98.2074" width="2.5" height="2.5" fill="red" stroke="black" stroke-width="0.5"></rect><rect x="-104.98" y="-98.2074" width="2.5" height="2.5" fill="red" stroke="black" stroke-width="0.5"></rect>
<rect x="-121.818" y="56.7256" width="30" height="30" fill="yellow" stroke="black" stroke-width="0.5"><title>room 16</title></rect><rect x="-99.068" y="70.5879" width="2.5" height="2.5" fill="red" stroke="black" stroke-width="0.5"></rect><rect x="-117.068" y="79.4756" width="2.5" height="2.5" fill="red" stroke="black" stroke-width="0.5"></rect>
<rect x="-107.891" y="101.489" width="30" height="30" fill="yellow" stroke="black" stroke-width="0.5"><title>room 17</title></rect><rect x="-85.1406" y="106.239" width="2.5" height="2.5" fill="red" stroke="black" stroke-width="0.5"></rect><rect x="-85.1406" y="120.415" width="2.5" height="2.5" fill="red" stroke="black" stroke-width="0.5"></rect><rect x="-103.141" y="124.239" width="2.5" height="2.5" fill="red" stroke="black" stroke-width="0.5"></rect>
<rect x="32.5169" y="-93.6613" width="20" height="20" fill="yellow" stroke="black" stroke-width="0.5"><title>room 18</title></rect><rect x="43.2313" y="-78.9113" width="2.5" height="2.5" fill="red" stroke="black" stroke-width="0.5"></rect>
<rect x="62.3738" y="-108.252" width="20" height="20" fill="yellow" stroke="black" stroke-width="0.5"><title>room 19</title></rect><rect x="65.1238" y="-93.5022" width="2.5" height="2.5" fill="red" stroke="black" stroke-width="0.5"></rect><rect x="77.1238" y="-93.5022" width="2.5" height="2.5" fill="red" stroke="black" stroke-width="0.5"></rect><rect x="77.1238" y="-105.502" width="2.5" height="2.5" fill="red" stroke="black" stroke-width="0.5"></rect>
<rect x="68.9306" y="-46.1906" width="30" height="30" fill="yellow" stroke="black" stroke-width="0.5"><title>room 20</title></rect><rect x="73.6806" y="-41.4406" width="2.5" height="2.5" fill="red" stroke="black" stroke-width="0.5"></rect><rect x="91.6806" y="-41.4406" width="2.5" height="2.5" fill="red" stroke="black" stroke-width="0.5"></rect><rect x="91.6806" y="-23.4406" width="2.5" height="2.5" fill="red" stroke="black" stroke-width="0.5"></rect>
<rect x="35.9001" y="-33.912" width="20" height="20" fill="yellow" stroke="black" stroke-width="0.5"><title>room 21</title></rect><rect x="49.6546" y="-19.162" width="2.5" height="2.5" fill="red" stroke="black" stroke-width="0.5"></rect>
<rect x="80.204" y="-3.80214" width="20" height="20" fill="yellow" stroke="black" stroke-width="0.5"><title>room 22</title></rect><rect x="82.954" y="10.026" width="2.5" height="2.5" fill="red" stroke="black" stroke-width="0.5"></rect>
<rect x="43.8499" y="45.5374" width="40" height="40" fill="yellow" stroke="black" stroke-width="0.5"><title>room 23</title></rect><rect x="50.5999" y="62.9159" width="2.5" height="2.5" fill="red" stroke="black" stroke-width="0.5"></rect><rect x="74.5999" y="76.2874" width="2.5" height="2.5" fill="red" stroke="black" stroke-width="0.5"></rect><rect x="74.5999" y="52.2874" width="2.5" height="2.5" fill="red" stroke="black" stroke-width="0.5"></rect><rect x="74.5999" y="67.482" width="2.5" height="2.5" fill="red" stroke="black" stroke-width="0.5"></rect>
<rect x="23.9321" y="100.109" width="20" height="20" fill="yellow" stroke="black" stroke-width="0.5"><title>room 24</title></rect><rect x="26.6821" y="102.859" width="2.5" height="2.5" fill="red" stroke="black" stroke-width="0.5"></rect><rect x="32.6765" y="114.859" width="2.5" height="2.5" fill="red" stroke="black" stroke-width="0.5"></rect><rect x="38.6821" y="111.198" width="2.5" height="2.5" fill="red" stroke="black" stroke-width="0.5"></rect>
<rect x="14.9818" y="-153.392" width="20" height="20" fill="yellow" stroke="black" stroke-width="0.5"><title>room 25</title></rect><rect x="17.7318" y="-138.642" width="2.5" height="2.5" fill="red" stroke="black" stroke-width="0.5"></rect><rect x="17.7318" y="-150.642" width="2.5" height="2.5" fill="red" stroke="black" stroke-width="0.5"></rect><rect x="29.7318" y="-138.642" width="2.5" height="2.5" fill="red" stroke="black" stroke-width="0.5"></rect><rect x="17.7318" y="-144.663" width="2.5" height="2.5" fill="red" stroke="black" stroke-width="0.5"></rect>
<rect x="-179.162" y="-112.554" width="30" height="30" fill="yellow" stroke="black" stroke-width="0.5"><title>room 26</title></rect><rect x="-156.412" y="-89.8041" width="2.5" height="2.5" fill="red" stroke="black" stroke-width="0.5"></rect><rect x="-174.412" y="-91.0663" width="2.5" height="2.5" fill="red" stroke="black" stroke-width="0.5"></rect><rect x="-174.412" y="-107.804" width="2.5" height="2.5" fill="red" stroke="black" stroke-width="0.5"></rect><rect x="-170.813" y="-89.8041" width="2.5" height="2.5" fill="red" stroke="black" stroke-width="0.5"></rect>
<rect x="-57.0948" y="-109.454" width="20" height="20" fill="yellow" stroke="black" stroke-width="0.5"><title>room 27</title></rect><rect x="-54.3448" y="-94.9056" width="2.5" height="2.5" fill="red" stroke="black" stroke-width="0.5"></rect>
<rect x="-84.1967" y="-164.372" width="40" height="40" fill="yellow" stroke="black" stroke-width="0.5"><title>room 28</title></rect><rect x="-77.4467" y="-133.622" width="2.5" height="2.5" fill="red" stroke="black" stroke-width="0.5"></rect>
<rect x="-131.524" y="-151.977" width="30" height="30" fill="yellow" stroke="black" stroke-width="0.5"><title>room 29</title></rect><rect x="-108.774" y="-129.227" width="2.5" height="2.5" fill="red" stroke="black" stroke-width="0.5"></rect>
<rect x="-178.904" y="77.8611" width="40" height="20" fill="yellow" stroke="black" stroke-width="0.5"><title>room 30</title></rect><rect x="-148.154" y="80.6111" width="2.5" height="2.5" fill="red" stroke="black" stroke-width="0.5"></rect><rect x="-163.772" y="92.6111" width="2.5" height="2.5" fill="red" stroke="black" stroke-width="0.5"></rect><rect x="-172.154" y="92.6111" width="2.5" height="2.5" fill="red" stroke="black" stroke-width="0.5"></rect><rect x="-148.154" y="92.6111" width="2.5" height="2.5" fill="red" stroke="black" stroke-width="0.5"></rect>
<rect x="-65.6233" y="109.842" width="20" height="40" fill="yellow" stroke="black" stroke-width="0.5"><title>room 31</title></rect><rect x="-62.8733" y="120.415" width="2.5" height="2.5" fill="red" stroke="black" stroke-width="0.5"></rect>
<rect x="-137.521" y="145.939" width="30" height="30" fill="yellow" stroke="black" stroke-width="0.5"><title>room 32</title></rect><rect x="-114.771" y="150.689" width="2.5" height="2.5" fill="red" stroke="black" stroke-width="0.5"></rect><rect x="-132.771" y="168.689" width="2.5" height="2.5" fill="red" stroke="black" stroke-width="0.5"></rect><rect x="-114.771" y="168.689" width="2.5" height="2.5" fill="red" stroke="black" stroke-width="0.5"></rect>
<rect x="77.5105" y="-78.4899" width="20" height="20" fill="yellow" stroke="black" stroke-width="0.5"><title>room 33</title></rect><rect x="80.2605" y="-75.7399" width="2.5" height="2.5" fill="red" stroke="black" stroke-width="0.5"></rect><rect x="92.2605" y="-75.7399" width="2.5" height="2.5" fill="red" stroke="black" stroke-width="0.5"></rect>
<rect x="71.242" y="-163.04" width="40" height="40" fill="yellow" stroke="black" stroke-width="0.5"><title>room 34</title></rect><rect x="77.992" y="-132.29" width="2.5" height="2.5" fill="red" stroke="black" stroke-width="0.5"></rect><rect x="101.992" y="-156.29" width="2.5" height="2.5" fill="red" stroke="black" stroke-width="0.5"></rect><rect x="77.992" y="-156.29" width="2.5" height="2.5" fill="red" stroke="black" stroke-width="0.5"></rect>
<rect x="113.72" y="-67.1893" width="30" height="30" fill="yellow" stroke="black" stroke-width="0.5"><title>room 35</title></rect><rect x="118.47" y="-44.4393" width="2.5" height="2.5" fill="red" stroke="black" stroke-width="0.5"></rect><rect x="136.47" y="-62.4393" width="2.5" height="2.5" fill="red" stroke="black" stroke-width="0.5"></rect><rect x="136.47" y="-44.4393" width="2.5" height="2.5" fill="red" stroke="black" stroke-width="0.5"></rect>
<rect x="111.171" y="-24.7708" width="20" height="20" fill="yellow" stroke="black" stroke-width="0.5"><title>room 36</title></rect><rect x="113.921" y="-22.0208" width="2.5" height="2.5" fill="red" stroke="black" stroke-width="0.5"></rect>
<rect x="98.4297" y="85.8076" width="20" height="20" fill="yellow" stroke="black" stroke-width="0.5"><title>room 37</title></rect><rect x="101.18" y="88.5576" width="2.5" height="2.5" fill="red" stroke="black" stroke-width="0.5"></rect><rect x="113.18" y="93.6044" width="2.5" height="2.5" fill="red" stroke="black" stroke-width="0.5"></rect>
<rect x="98.2677" y="26.0546" width="20" height="20" fill="yellow" stroke="black" stroke-width="0.5"><title>room 38</title></rect><rect x="101.018" y="40.8046" width="2.5" height="2.5" fill="red" stroke="black" stroke-width="0.5"></rect>
<rect x="98.555" y="55.9265" width="20" height="20" fill="yellow" stroke="black" stroke-width="0.5"><title>room 39</title></rect><rect x="101.305" y="67.4819" width="2.5" height="2.5" fill="red" stroke="black" stroke-width="0.5"></rect><rect x="113.305" y="58.6765" width="2.5" height="2.5" fill="red" stroke="black" stroke-width="0.5"></rect>
<rect x="23.921" y="134.956" width="20" height="40" fill="yellow" stroke="black" stroke-width="0.5"><title>room 40</title></rect><rect x="32.6765" y="141.706" width="2.5" height="2.5" fill="red" stroke="black" stroke-width="0.5"></rect><rect x="38.671" y="165.706" width="2.5" height="2.5" fill="red" stroke="black" stroke-width="0.5"></rect><rect x="26.671" y="156.245" width="2.5" height="2.5" fill="red" stroke="black" stroke-width="0.5"></rect>
<rect x="56.2339" y="102.788" width="30" height="30" fill="yellow" stroke="black" stroke-width="0.5"><title>room 41</title></rect><rect x="60.9839" y="111.198" width="2.5" height="2.5" fill="red" stroke="black" stroke-width="0.5"></rect><rect x="78.9839" y="125.538" width="2.5" height="2.5" fill="red" stroke="black" stroke-width="0.5"></rect><rect x="69.9885" y="125.538" width="2.5" height="2.5" fill="red" stroke="black" stroke-width="0.5"></rect>
<rect x="-17.7294" y="-183.304" width="40" height="20" fill="yellow" stroke="black" stroke-width="0.5"><title>room 42</title></rect><rect x="13.0206" y="-168.554" width="2.5" height="2.5" fill="red" stroke="black" stroke-width="0.5"></rect><rect x="-10.9794" y="-180.554" width="2.5" height="2.5" fill="red" stroke="black" stroke-width="0.5"></rect>
<rect x="32.502" y="-123.631" width="20" height="20" fill="yellow" stroke="black" stroke-width="0.5"><title>room 43</title></rect><rect x="35.252" y="-120.881" width="2.5" height="2.5" fill="red" stroke="black" stroke-width="0.5"></rect>
<rect x="-14.8831" y="-153.435" width="20" height="20" fill="yellow" stroke="black" stroke-width="0.5"><title>room 44</title></rect><rect x="-0.133105" y="-144.663" width="2.5" height="2.5" fill="red" stroke="black" stroke-width="0.5"></rect>
<rect x="-211.47" y="-95.0784" width="20" height="20" fill="yellow" stroke="black" stroke-width="0.5"><title>room 45</title></rect><rect x="-196.72" y="-91.0663" width="2.5" height="2.5" fill="red" stroke="black" stroke-width="0.5"></rect><rect x="-208.72" y="-80.3284" width="2.5" height="2.5" fill="red" stroke="black" stroke-width="0.5"></rect>
<rect x="-211.307" y="-150.007" width="20" height="40" fill="yellow" stroke="black" stroke-width="0.5"><title>room 46</title></rect><rect x="-196.557" y="-119.257" width="2.5" height="2.5" fill="red" stroke="black" stroke-width="0.5"></rect><rect x="-196.557" y="-135.324" width="2.5" height="2.5" fill="red" stroke="black" stroke-width="0.5"></rect><rect x="-196.557" y="-143.257" width="2.5" height="2.5" fill="red" stroke="black" stroke-width="0.5"></rect><rect x="-208.557" y="-143.257" width="2.5" height="2.5" fill="red" stroke="black" stroke-width="0.5"></rect>
<rect x="-181.964" y="-70.2776" width="20" height="20" fill="yellow" stroke="black" stroke-width="0.5"><title>room 47</title></rect><rect x="-170.813" y="-67.5276" width="2.5" height="2.5" fill="red" stroke="black" stroke-width="0.5"></rect><rect x="-179.214" y="-55.5276" width="2.5" height="2.5" fill="red" stroke="black" stroke-width="0.5"></rect>
<rect x="-170.14" y="107.726" width="20" height="20" fill="yellow" stroke="black" stroke-width="0.5"><title>room 48</title></rect><rect x="-163.772" y="110.476" width="2.5" height="2.5" fill="red" stroke="black" stroke-width="0.5"></rect>
<rect x="-212.453" y="109.809" width="30" height="30" fill="yellow" stroke="black" stroke-width="0.5"><title>room 49</title></rect><rect x="-189.703" y="114.559" width="2.5" height="2.5" fill="red" stroke="black" stroke-width="0.5"></rect><rect x="-207.703" y="132.559" width="2.5" height="2.5" fill="red" stroke="black" stroke-width="0.5"></rect>
<rect x="-140.27" y="107.591" width="20" height="20" fill="yellow" stroke="black" stroke-width="0.5"><title>room 50</title></rect><rect x="-137.52" y="110.341" width="2.5" height="2.5" fill="red" stroke="black" stroke-width="0.5"></rect>
<rect x="-179.819" y="187.947" width="40" height="20" fill="yellow" stroke="black" stroke-width="0.5"><title>room 51</title></rect><rect x="-149.069" y="190.697" width="2.5" height="2.5" fill="red" stroke="black" stroke-width="0.5"></rect><rect x="-154.354" y="202.697" width="2.5" height="2.5" fill="red" stroke="black" stroke-width="0.5"></rect><rect x="-173.069" y="202.697" width="2.5" height="2.5" fill="red" stroke="black" stroke-width="0.5"></rect><rect x="-173.069" y="190.697" width="2.5" height="2.5" fill="red" stroke="black" stroke-width="0.5"></rect>
<rect x="-92.9311" y="171.046" width="30" height="30" fill="yellow" stroke="black" stroke-width="0.5"><title>room 52</title></rect><rect x="-88.1811" y="175.796" width="2.5" height="2.5" fill="red" stroke="black" stroke-width="0.5"></rect><rect x="-70.1811" y="193.796" width="2.5" height="2.5" fill="red" stroke="black" stroke-width="0.5"></rect><rect x="-88.1811" y="193.796" width="2.5" height="2.5" fill="red" stroke="black" stroke-width="0.5"></rect>
<rect x="92.3058" y="-108.258" width="20" height="20" fill="yellow" stroke="black" stroke-width="0.5"><title>room 53</title></rect><rect x="95.0558" y="-93.5085" width="2.5" height="2.5" fill="red" stroke="black" stroke-width="0.5"></rect>
<rect x="130.688" y="-188.264" width="40" height="40" fill="yellow" stroke="black" stroke-width="0.5"><title>room 54</title></rect><rect x="137.438" y="-157.514" width="2.5" height="2.5" fill="red" stroke="black" stroke-width="0.5"></rect><rect x="161.438" y="-181.514" width="2.5" height="2.5" fill="red" stroke="black" stroke-width="0.5"></rect>
<rect x="37.0944" y="-207.929" width="20" height="40" fill="yellow" stroke="black" stroke-width="0.5"><title>room 55</title></rect><rect x="51.8444" y="-177.179" width="2.5" height="2.5" fill="red" stroke="black" stroke-width="0.5"></rect><rect x="51.8444" y="-194.354" width="2.5" height="2.5" fill="red" stroke="black" stroke-width="0.5"></rect><rect x="51.8444" y="-201.179" width="2.5" height="2.5" fill="red" stroke="black" stroke-width="0.5"></rect>
<rect x="155.687" y="-90.557" width="20" height="20" fill="yellow" stroke="black" stroke-width="0.5"><title>room 56</title></rect><rect x="158.437" y="-75.807" width="2.5" height="2.5" fill="red" stroke="black" stroke-width="0.5"></rect><rect x="158.437" y="-87.807" width="2.5" height="2.5" fill="red" stroke="black" stroke-width="0.5"></rect><rect x="170.437" y="-87.807" width="2.5" height="2.5" fill="red" stroke="black" stroke-width="0.5"></rect><rect x="170.437" y="-75.807" width="2.5" height="2.5" fill="red" stroke="black" stroke-width="0.5"></rect>
<rect x="145.59" y="-22.8177" width="30" height="30" fill="yellow" stroke="black" stroke-width="0.5"><title>room 57</title></rect><rect x="150.34" y="-18.0677" width="2.5" height="2.5" fill="red" stroke="black" stroke-width="0.5"></rect><rect x="168.34" y="-0.0676595" width="2.5" height="2.5" fill="red" stroke="black" stroke-width="0.5"></rect><rect x="168.34" y="-17.0873" width="2.5" height="2.5" fill="red" stroke="black" stroke-width="0.5"></rect>
<rect x="130.739" y="81.9012" width="30" height="30" fill="yellow" stroke="black" stroke-width="0.5"><title>room 58</title></rect><rect x="135.489" y="93.6044" width="2.5" height="2.5" fill="red" stroke="black" stroke-width="0.5"></rect><rect x="153.489" y="104.651" width="2.5" height="2.5" fill="red" stroke="black" stroke-width="0.5"></rect>
<rect x="133.142" y="24.5822" width="40" height="40" fill="yellow" stroke="black" stroke-width="0.5"><title>room 59</title></rect><rect x="139.892" y="55.3322" width="2.5" height="2.5" fill="red" stroke="black" stroke-width="0.5"></rect>
<rect x="32.4848" y="189.755" width="40" height="20" fill="yellow" stroke="black" stroke-width="0.5"><title>room 60</title></rect><rect x="39.2348" y="192.505" width="2.5" height="2.5" fill="red" stroke="black" stroke-width="0.5"></rect><rect x="42.4614" y="204.505" width="2.5" height="2.5" fill="red" stroke="black" stroke-width="0.5"></rect><rect x="39.2348" y="204.505" width="2.5" height="2.5" fill="red" stroke="black" stroke-width="0.5"></rect><rect x="63.2348" y="204.505" width="2.5" height="2.5" fill="red" stroke="black" stroke-width="0.5"></rect>
<rect x="-5.91029" y="140.035" width="20" height="40" fill="yellow" stroke="black" stroke-width="0.5"><title>room 61</title></rect><rect x="8.83971" y="156.245" width="2.5" height="2.5" fill="red" stroke="black" stroke-width="0.5"></rect><rect x="-3.16029" y="148.147" width="2.5" height="2.5" fill="red" stroke="black" stroke-width="0.5"></rect><rect x="-3.16029" y="170.785" width="2.5" height="2.5" fill="red" stroke="black" stroke-width="0.5"></rect>
<rect x="100.935" y="126.578" width="30" height="30" fill="yellow" stroke="black" stroke-width="0.5"><title>room 62</title></rect><rect x="105.685" y="131.328" width="2.5" height="2.5" fill="red" stroke="black" stroke-width="0.5"></rect><rect x="123.685" y="142.563" width="2.5" height="2.5" fill="red" stroke="black" stroke-width="0.5"></rect><rect x="123.685" y="149.328" width="2.5" height="2.5" fill="red" stroke="black" stroke-width="0.5"></rect>
<rect x="56.2431" y="147.473" width="30" height="30" fill="yellow" stroke="black" stroke-width="0.5"><title>room 63</title></rect><rect x="69.9885" y="152.223" width="2.5" height="2.5" fill="red" stroke="black" stroke-width="0.5"></rect>
<rect x="-41.897" y="-237.972" width="40" height="40" fill="yellow" stroke="black" stroke-width="0.5"><title>room 64</title></rect><rect x="-11.147" y="-207.222" width="2.5" height="2.5" fill="red" stroke="black" stroke-width="0.5"></rect><rect x="-11.147" y="-231.222" width="2.5" height="2.5" fill="red" stroke="black" stroke-width="0.5"></rect>
<rect x="-253.723" y="-84.9454" width="30" height="30" fill="yellow" stroke="black" stroke-width="0.5"><title>room 65</title></rect><rect x="-230.973" y="-80.1954" width="2.5" height="2.5" fill="red" stroke="black" stroke-width="0.5"></rect>
<rect x="-181.445" y="-144.907" width="20" height="20" fill="yellow" stroke="black" stroke-width="0.5"><title>room 66</title></rect><rect x="-178.695" y="-135.324" width="2.5" height="2.5" fill="red" stroke="black" stroke-width="0.5"></rect>
<rect x="-181.77" y="-174.802" width="20" height="20" fill="yellow" stroke="black" stroke-width="0.5"><title>room 67</title></rect><rect x="-179.02" y="-160.052" width="2.5" height="2.5" fill="red" stroke="black" stroke-width="0.5"></rect><rect x="-179.02" y="-172.052" width="2.5" height="2.5" fill="red" stroke="black" stroke-width="0.5"></rect><rect x="-167.02" y="-172.052" width="2.5" height="2.5" fill="red" stroke="black" stroke-width="0.5"></rect><rect x="-172.992" y="-172.052" width="2.5" height="2.5" fill="red" stroke="black" stroke-width="0.5"></rect>
<rect x="-241.207" y="-158.764" width="20" height="20" fill="yellow" stroke="black" stroke-width="0.5"><title>room 68</title></rect><rect x="-226.457" y="-144.014" width="2.5" height="2.5" fill="red" stroke="black" stroke-width="0.5"></rect><rect x="-238.457" y="-144.014" width="2.5" height="2.5" fill="red" stroke="black" stroke-width="0.5"></rect><rect x="-238.457" y="-156.014" width="2.5" height="2.5" fill="red" stroke="black" stroke-width="0.5"></rect><rect x="-232.443" y="-144.014" width="2.5" height="2.5" fill="red" stroke="black" stroke-width="0.5"></rect>
<rect x="-201.584" y="-40.5652" width="20" height="20" fill="yellow" stroke="black" stroke-width="0.5"><title>room 69</title></rect><rect x="-186.834" y="-37.8152" width="2.5" height="2.5" fill="red" stroke="black" stroke-width="0.5"></rect><rect x="-198.834" y="-25.8152" width="2.5" height="2.5" fill="red" stroke="black" stroke-width="0.5"></rect>
<rect x="-244.705" y="130.112" width="20" height="20" fill="yellow" stroke="black" stroke-width="0.5"><title>room 70</title></rect><rect x="-229.955" y="132.862" width="2.5" height="2.5" fill="red" stroke="black" stroke-width="0.5"></rect>
<rect x="-158.451" y="217.8" width="20" height="20" fill="yellow" stroke="black" stroke-width="0.5"><title>room 71</title></rect><rect x="-154.354" y="220.55" width="2.5" height="2.5" fill="red" stroke="black" stroke-width="0.5"></rect>
<rect x="-188.42" y="217.774" width="20" height="20" fill="yellow" stroke="black" stroke-width="0.5"><title>room 72</title></rect><rect x="-173.67" y="220.524" width="2.5" height="2.5" fill="red" stroke="black" stroke-width="0.5"></rect>
<rect x="-188.268" y="158.121" width="20" height="20" fill="yellow" stroke="black" stroke-width="0.5"><title>room 73</title></rect><rect x="-173.518" y="172.871" width="2.5" height="2.5" fill="red" stroke="black" stroke-width="0.5"></rect>
<rect x="-72.8907" y="213.299" width="20" height="20" fill="yellow" stroke="black" stroke-width="0.5"><title>room 74</title></rect><rect x="-70.1407" y="216.049" width="2.5" height="2.5" fill="red" stroke="black" stroke-width="0.5"></rect>
<rect x="-125.077" y="193.232" width="20" height="40" fill="yellow" stroke="black" stroke-width="0.5"><title>room 75</title></rect><rect x="-110.327" y="199.982" width="2.5" height="2.5" fill="red" stroke="black" stroke-width="0.5"></rect>
<rect x="155.121" y="-222.927" width="40" height="20" fill="yellow" stroke="black" stroke-width="0.5"><title>room 76</title></rect><rect x="161.871" y="-208.177" width="2.5" height="2.5" fill="red" stroke="black" stroke-width="0.5"></rect>
<rect x="69.3937" y="-210.278" width="30" height="30" fill="yellow" stroke="black" stroke-width="0.5"><title>room 77</title></rect><rect x="74.1437" y="-194.354" width="2.5" height="2.5" fill="red" stroke="black" stroke-width="0.5"></rect>
<rect x="45.4189" y="-267.465" width="40" height="40" fill="yellow" stroke="black" stroke-width="0.5"><title>room 78</title></rect><rect x="52.1689" y="-236.715" width="2.5" height="2.5" fill="red" stroke="black" stroke-width="0.5"></rect>
<rect x="125.92" y="-124.482" width="20" height="40" fill="yellow" stroke="black" stroke-width="0.5"><title>room 79</title></rect><rect x="140.67" y="-93.7317" width="2.5" height="2.5" fill="red" stroke="black" stroke-width="0.5"></rect>
<rect x="190.35" y="-118.993" width="40" height="40" fill="yellow" stroke="black" stroke-width="0.5"><title>room 80</title></rect><rect x="197.1" y="-88.2431" width="2.5" height="2.5" fill="red" stroke="black" stroke-width="0.5"></rect>
<rect x="164.297" y="-60.7491" width="40" height="20" fill="yellow" stroke="black" stroke-width="0.5"><title>room 81</title></rect><rect x="171.047" y="-57.9991" width="2.5" height="2.5" fill="red" stroke="black" stroke-width="0.5"></rect>
<rect x="190.249" y="1.50805" width="30" height="30" fill="yellow" stroke="black" stroke-width="0.5"><title>room 82</title></rect><rect x="194.999" y="6.25805" width="2.5" height="2.5" fill="red" stroke="black" stroke-width="0.5"></rect>
<rect x="187.858" y="-30.857" width="20" height="20" fill="yellow" stroke="black" stroke-width="0.5"><title>room 83</title></rect><rect x="190.608" y="-17.0873" width="2.5" height="2.5" fill="red" stroke="black" stroke-width="0.5"></rect>
<rect x="172.99" y="102.279" width="20" height="20" fill="yellow" stroke="black" stroke-width="0.5"><title>room 84</title></rect><rect x="175.74" y="105.029" width="2.5" height="2.5" fill="red" stroke="black" stroke-width="0.5"></rect>
<rect x="27.7681" y="224.447" width="20" height="40" fill="yellow" stroke="black" stroke-width="0.5"><title>room 85</title></rect><rect x="42.4614" y="231.197" width="2.5" height="2.5" fill="red" stroke="black" stroke-width="0.5"></rect>
<rect x="-2.16183" y="199.883" width="20" height="40" fill="yellow" stroke="black" stroke-width="0.5"><title>room 86</title></rect><rect x="12.5882" y="206.633" width="2.5" height="2.5" fill="red" stroke="black" stroke-width="0.5"></rect>
<rect x="60.1907" y="221.998" width="30" height="30" fill="yellow" stroke="black" stroke-width="0.5"><title>room 87</title></rect><rect x="64.9407" y="226.748" width="2.5" height="2.5" fill="red" stroke="black" stroke-width="0.5"></rect>
<rect x="-35.7344" y="134.759" width="20" height="20" fill="yellow" stroke="black" stroke-width="0.5"><title>room 88</title></rect><rect x="-20.9844" y="148.147" width="2.5" height="2.5" fill="red" stroke="black" stroke-width="0.5"></rect>
<rect x="-48.1225" y="167.211" width="30" height="30" fill="yellow" stroke="black" stroke-width="0.5"><title>room 89</title></rect><rect x="-25.3725" y="171.961" width="2.5" height="2.5" fill="red" stroke="black" stroke-width="0.5"></rect>
<rect x="143.23" y="138.716" width="20" height="20" fill="yellow" stroke="black" stroke-width="0.5"><title>room 90</title></rect><rect x="145.98" y="142.563" width="2.5" height="2.5" fill="red" stroke="black" stroke-width="0.5"></rect>
<rect x="117.59" y="173.641" width="40" height="40" fill="yellow" stroke="black" stroke-width="0.5"><title>room 91</title></rect><rect x="124.34" y="180.391" width="2.5" height="2.5" fill="red" stroke="black" stroke-width="0.5"></rect>
<rect x="-17.7522" y="-272.637" width="40" height="20" fill="yellow" stroke="black" stroke-width="0.5"><title>room 92</title></rect><rect x="-11.0022" y="-257.887" width="2.5" height="2.5" fill="red" stroke="black" stroke-width="0.5"></rect>
<rect x="-211.6" y="-209.761" width="20" height="40" fill="yellow" stroke="black" stroke-width="0.5"><title>room 93</title></rect><rect x="-196.85" y="-179.011" width="2.5" height="2.5" fill="red" stroke="black" stroke-width="0.5"></rect>
<rect x="-151.905" y="-187.156" width="20" height="20" fill="yellow" stroke="black" stroke-width="0.5"><title>room 94</title></rect><rect x="-149.155" y="-172.406" width="2.5" height="2.5" fill="red" stroke="black" stroke-width="0.5"></rect>
<rect x="-181.713" y="-204.668" width="20" height="20" fill="yellow" stroke="black" stroke-width="0.5"><title>room 95</title></rect><rect x="-172.992" y="-189.918" width="2.5" height="2.5" fill="red" stroke="black" stroke-width="0.5"></rect>
<rect x="-271.033" y="-139.621" width="20" height="20" fill="yellow" stroke="black" stroke-width="0.5"><title>room 96</title></rect><rect x="-256.283" y="-136.871" width="2.5" height="2.5" fill="red" stroke="black" stroke-width="0.5"></rect>
<rect x="-270.981" y="-194.448" width="20" height="40" fill="yellow" stroke="black" stroke-width="0.5"><title>room 97</title></rect><rect x="-256.231" y="-163.698" width="2.5" height="2.5" fill="red" stroke="black" stroke-width="0.5"></rect>
<rect x="-241.178" y="-128.9" width="20" height="20" fill="yellow" stroke="black" stroke-width="0.5"><title>room 98</title></rect><rect x="-232.443" y="-126.15" width="2.5" height="2.5" fill="red" stroke="black" stroke-width="0.5"></rect>
<rect x="-243.836" y="-30.3233" width="30" height="30" fill="yellow" stroke="black" stroke-width="0.5"><title>room 99</title></rect><rect x="-221.086" y="-25.5733" width="2.5" height="2.5" fill="red" stroke="black" stroke-width="0.5"></rect>
<line x1="-32.061574382454864" y1="23.591702736960812" x2="-76.1739325513214" y2="28.41508833436123" stroke-width="0.5" stroke="blue" />
<line x1="-6.269667456448033" y1="-12.408297263039188" x2="-6.269665138161894" y2="-48.03022696580989" stroke-width="0.5" stroke="blue" />
<line x1="-32.061574382454864" y1="-12.408297263039188" x2="-75.5152961556202" y2="-34.221373221813444" stroke-width="0.5" stroke="blue" />
<line x1="-32.061574382454864" y1="-3.155475019916543" x2="-72.02817116113407" y2="-3.1554742445531807" stroke-width="0.5" stroke="blue" />
<line x1="-32.061574382454864" y1="23.591702736960812" x2="-53.057040249841656" y2="62.95015813810882" stroke-width="0.5" stroke="blue" />
<line x1="3.9384256175451338" y1="-12.408297263039188" x2="40.44564439684784" y2="-47.79971116833133" stroke-width="0.5" stroke="blue" />
<line x1="3.9384256175451338" y1="13.972897090591122" x2="43.90899888932716" y2="13.97289775217472" stroke-width="0.5" stroke="blue" />
<line x1="3.9384256175451338" y1="23.591702736960812" x2="13.096013951417788" y2="59.290882573665044" stroke-width="0.5" stroke="blue" />
<line x1="-100.1739325513214" y1="34.33694239785128" x2="-126.90865795635503" y2="34.33693853284979" stroke-width="0.5" stroke="blue" />
<line x1="3.399619085859186" y1="-60.03022696580989" x2="6.632267044513906" y2="-86.6763932238621" stroke-width="0.5" stroke="blue" />
<line x1="-8.600380914140814" y1="-54.027428868399795" x2="-26.46571370691983" y2="-54.02742882397324" stroke-width="0.5" stroke="blue" />
<line x1="-8.600380914140814" y1="-60.03022696580989" x2="-11.228069737460189" y2="-86.68341708098153" stroke-width="0.5" stroke="blue" />
<line x1="-99.5152961556202" y1="-34.221373221813444" x2="-134.78380652309076" y2="-27.543175465249618" stroke-width="0.5" stroke="blue" />
<line x1="-99.5152961556202" y1="-46.221373221813444" x2="-130.36162147782355" y2="-54.540611103289955" stroke-width="0.5" stroke="blue" />
<line x1="-89.62253062928944" y1="-46.221373221813444" x2="-89.62253209663024" y2="-72.9574295588686" stroke-width="0.5" stroke="blue" />
<line x1="-71.05704024984166" y1="71.83787695811552" x2="-97.81801591215961" y2="71.8378779721043" stroke-width="0.5" stroke="blue" />
<line x1="-71.05704024984166" y1="80.95015813810882" x2="-83.89059548123335" y2="107.48884555659299" stroke-width="0.5" stroke="blue" />
<line x1="44.48128197201869" y1="-59.79971116833133" x2="44.48127257940878" y2="-77.66127381811354" stroke-width="0.5" stroke="blue" />
<line x1="52.44564439684784" y1="-59.79971116833133" x2="66.3737909098665" y2="-92.25217380773577" stroke-width="0.5" stroke="blue" />
<line x1="52.44564439684784" y1="-47.79971116833133" x2="74.93055721413651" y2="-40.190587893649656" stroke-width="0.5" stroke="blue" />
<line x1="50.90456377670461" y1="4.354092105804449" x2="50.90457754134956" y2="-17.912029346425903" stroke-width="0.5" stroke="blue" />
<line x1="61.90899888932716" y1="11.275977535971176" x2="84.20401335676326" y2="11.275978452100638" stroke-width="0.5" stroke="blue" />
<line x1="25.09601395141779" y1="64.16585319423605" x2="51.84987042794374" y2="64.16585194669676" stroke-width="0.5" stroke="blue" />
<line x1="25.09601395141779" y1="71.29088257366504" x2="27.932088557710983" y2="104.10869802085651" stroke-width="0.5" stroke="blue" />
<line x1="18.632267044513906" y1="-110.6763932238621" x2="18.9817704632486" y2="-137.39201886730888" stroke-width="0.5" stroke="blue" />
<line x1="-142.36162147782355" y1="-66.54061110328996" x2="-155.16222707260894" y2="-88.55410431865228" stroke-width="0.5" stroke="blue" />
<line x1="-79.72976657029947" y1="-93.65560522983877" x2="-53.09476993926214" y2="-93.65560365679532" stroke-width="0.5" stroke="blue" />
<line x1="-79.72976657029947" y1="-96.9574295588686" x2="-76.19668255379997" y2="-132.37156142608043" stroke-width="0.5" stroke="blue" />
<line x1="-103.72976657029947" y1="-96.9574295588686" x2="-107.5240801969984" y2="-127.97678066051509" stroke-width="0.5" stroke="blue" />
<line x1="-115.81801591215961" y1="80.72559679211099" x2="-146.90358245360082" y2="81.861089032121" stroke-width="0.5" stroke="blue" />
<line x1="-83.89059548123335" y1="121.66529988941802" x2="-61.62328104540308" y2="121.66530539460007" stroke-width="0.5" stroke="blue" />
<line x1="-101.89059548123335" y1="125.48884555659299" x2="-113.52135159569369" y2="151.9392820795023" stroke-width="0.5" stroke="blue" />
<line x1="78.3737909098665" y1="-92.25217380773577" x2="81.51049780062085" y2="-74.48994896308572" stroke-width="0.5" stroke="blue" />
<line x1="78.3737909098665" y1="-104.25217380773577" x2="79.24201805357242" y2="-131.04025357836613" stroke-width="0.5" stroke="blue" />
<line x1="92.93055721413651" y1="-40.190587893649656" x2="119.7195625213694" y2="-43.189261671179985" stroke-width="0.5" stroke="blue" />
<line x1="92.93055721413651" y1="-22.190587893649656" x2="115.17119551426886" y2="-20.770757155734678" stroke-width="0.5" stroke="blue" />
<line x1="75.84987042794374" y1="77.53742050810665" x2="102.42967676252825" y2="89.80761005955567" stroke-width="0.5" stroke="blue" />
<line x1="75.84987042794374" y1="53.53742050810665" x2="102.26765944234171" y2="42.05459432617283" stroke-width="0.5" stroke="blue" />
<line x1="75.84987042794374" y1="68.73195749815444" x2="102.55495983236156" y2="68.73194648584584" stroke-width="0.5" stroke="blue" />
<line x1="33.92654229962708" y1="116.10869802085651" x2="33.92654494035369" y2="142.95564816564482" stroke-width="0.5" stroke="blue" />
<line x1="39.93208855771098" y1="112.44827824140879" x2="62.23388579633169" y2="112.44827844568425" stroke-width="0.5" stroke="blue" />
<line x1="18.9817704632486" y1="-149.39201886730888" x2="14.27056161466581" y2="-167.30393436255778" stroke-width="0.5" stroke="blue" />
<line x1="30.9817704632486" y1="-137.39201886730888" x2="36.50199988674118" y2="-119.6310210823874" stroke-width="0.5" stroke="blue" />
<line x1="18.9817704632486" y1="-143.413363723689" x2="1.1168947708998376" y2="-143.41337019957618" stroke-width="0.5" stroke="blue" />
<line x1="-173.16222707260894" y1="-89.816250796224" x2="-195.4697654443177" y2="-89.81626031090873" stroke-width="0.5" stroke="blue" />
<line x1="-173.16222707260894" y1="-106.55410431865228" x2="-195.30747316003576" y2="-118.00658107500223" stroke-width="0.5" stroke="blue" />
<line x1="-169.56291044108707" y1="-88.55410431865228" x2="-169.5629099838418" y2="-66.27760826583327" stroke-width="0.5" stroke="blue" />
<line x1="-162.5215984038731" y1="93.861089032121" x2="-162.52159667179032" y2="111.72596315046997" stroke-width="0.5" stroke="blue" />
<line x1="-170.90358245360082" y1="93.861089032121" x2="-188.45337722591609" y2="115.80860786785323" stroke-width="0.5" stroke="blue" />
<line x1="-146.90358245360082" y1="93.861089032121" x2="-136.27023264955858" y2="111.59084690894967" stroke-width="0.5" stroke="blue" />
<line x1="-131.5213515956937" y1="169.9392820795023" x2="-147.81920108455498" y2="191.94669592289748" stroke-width="0.5" stroke="blue" />
<line x1="-113.52135159569369" y1="169.9392820795023" x2="-86.93107021011879" y2="177.04594725786208" stroke-width="0.5" stroke="blue" />
<line x1="93.51049780062085" y1="-74.48994896308572" x2="96.30579987777239" y2="-92.25845449193885" stroke-width="0.5" stroke="blue" />
<line x1="103.24201805357242" y1="-155.04025357836613" x2="138.68840935042653" y2="-156.26442241650963" stroke-width="0.5" stroke="blue" />
<line x1="79.24201805357242" y1="-155.04025357836613" x2="53.09441493902586" y2="-175.9288859986383" stroke-width="0.5" stroke="blue" />
<line x1="137.7195625213694" y1="-61.189261671179985" x2="159.6869829742107" y2="-74.55699832852211" stroke-width="0.5" stroke="blue" />
<line x1="137.7195625213694" y1="-43.189261671179985" x2="151.58991512461617" y2="-16.817659486239798" stroke-width="0.5" stroke="blue" />
<line x1="114.42967676252825" y1="94.85443127544409" x2="136.73900346932697" y2="94.85442531803997" stroke-width="0.5" stroke="blue" />
<line x1="114.55495983236156" y1="59.92648347589345" x2="141.1423630091543" y2="56.58219350596038" stroke-width="0.5" stroke="blue" />
<line x1="39.92099868226979" y1="166.95564816564482" x2="40.484827751037336" y2="193.75472266833805" stroke-width="0.5" stroke="blue" />
<line x1="27.92099868226979" y1="157.49516647577045" x2="10.089712472762688" y2="157.49516136138604" stroke-width="0.5" stroke="blue" />
<line x1="80.23388579633169" y1="126.78785866623667" x2="106.93549613762289" y2="132.57827483650232" stroke-width="0.5" stroke="blue" />
<line x1="71.2385094765264" y1="126.78785866623667" x2="71.23851328464646" y2="153.47343696409757" stroke-width="0.5" stroke="blue" />
<line x1="-9.72943838533419" y1="-179.30393436255778" x2="-9.896987233426547" y2="-205.97192088427215" stroke-width="0.5" stroke="blue" />
<line x1="-207.4697654443177" y1="-79.07840678848034" x2="-229.7230337923079" y2="-78.94536109156216" stroke-width="0.5" stroke="blue" />
<line x1="-195.30747316003576" y1="-134.07433996109685" x2="-177.4454567745562" y2="-134.07433955488457" stroke-width="0.5" stroke="blue" />
<line x1="-195.30747316003576" y1="-142.00658107500223" x2="-177.77042843752307" y2="-158.80188969193244" stroke-width="0.5" stroke="blue" />
<line x1="-207.30747316003576" y1="-142.00658107500223" x2="-225.20748877607105" y2="-142.764479266332" stroke-width="0.5" stroke="blue" />
<line x1="-177.96359335231926" y1="-54.27760826583327" x2="-185.5837374259103" y2="-36.56522871737416" stroke-width="0.5" stroke="blue" />
<line x1="-206.45337722591609" y1="133.80860786785323" x2="-228.7048857992262" y2="134.11158728490236" stroke-width="0.5" stroke="blue" />
<line x1="-153.1035880095049" y1="203.94669592289748" x2="-153.1035779557209" y2="221.80009541793237" stroke-width="0.5" stroke="blue" />
<line x1="-171.81920108455498" y1="203.94669592289748" x2="-172.42039540999883" y2="221.7741989529626" stroke-width="0.5" stroke="blue" />
<line x1="-171.81920108455498" y1="191.94669592289748" x2="-172.26778595188406" y2="174.12054097181104" stroke-width="0.5" stroke="blue" />
<line x1="-68.93107021011879" y1="195.04594725786208" x2="-68.89067821521917" y2="217.29926692189972" stroke-width="0.5" stroke="blue" />
<line x1="-86.93107021011879" y1="195.04594725786208" x2="-109.0772191826538" y2="201.2320274522043" stroke-width="0.5" stroke="blue" />
<line x1="162.68840935042653" y1="-180.26442241650963" x2="163.12064525001978" y2="-206.92729484047732" stroke-width="0.5" stroke="blue" />
<line x1="53.09441493902586" y1="-193.10358665573216" x2="75.39372962782508" y2="-193.10358628272803" stroke-width="0.5" stroke="blue" />
<line x1="53.09441493902586" y1="-199.9288859986383" x2="53.41893341482013" y2="-235.46503278186938" stroke-width="0.5" stroke="blue" />
<line x1="159.6869829742107" y1="-86.55699832852211" x2="141.91995130820536" y2="-92.48169672476077" stroke-width="0.5" stroke="blue" />
<line x1="171.6869829742107" y1="-86.55699832852211" x2="198.34968135112476" y2="-86.99310124140725" stroke-width="0.5" stroke="blue" />
<line x1="171.6869829742107" y1="-74.55699832852211" x2="172.2971261549115" y2="-56.749076615714266" stroke-width="0.5" stroke="blue" />
<line x1="169.58991512461617" y1="1.1823405137602023" x2="196.2488559004663" y2="7.5080479648125795" stroke-width="0.5" stroke="blue" />
<line x1="169.58991512461617" y1="-15.837305438215186" x2="191.8582904479709" y2="-15.837310226034568" stroke-width="0.5" stroke="blue" />
<line x1="154.73900346932697" y1="105.90124653392775" x2="176.99003545935352" y2="106.27867310929683" stroke-width="0.5" stroke="blue" />
<line x1="43.71136324192135" y1="205.75472266833805" x2="43.71136153435403" y2="232.44655464850987" stroke-width="0.5" stroke="blue" />
<line x1="40.484827751037336" y1="205.75472266833805" x2="13.838165124545082" y2="207.8831203134476" stroke-width="0.5" stroke="blue" />
<line x1="64.48482775103733" y1="205.75472266833805" x2="66.19065819091026" y2="227.99805775418525" stroke-width="0.5" stroke="blue" />
<line x1="-1.910287527237311" y1="149.3968422189027" x2="-19.73444285936932" y2="149.39685352837984" stroke-width="0.5" stroke="blue" />
<line x1="-1.910287527237311" y1="172.03467967151167" x2="-24.12254748401498" y2="173.2114123480171" stroke-width="0.5" stroke="blue" />
<line x1="124.93549613762289" y1="143.81288086055048" x2="147.23034058533258" y2="143.81288607319678" stroke-width="0.5" stroke="blue" />
<line x1="124.93549613762289" y1="150.57827483650232" x2="125.5904579948506" y2="181.64102933792145" stroke-width="0.5" stroke="blue" />
<line x1="-9.896987233426547" y1="-229.97192088427215" x2="-9.752249112280284" y2="-256.63747857543245" stroke-width="0.5" stroke="blue" />
<line x1="-177.77042843752307" y1="-170.80188969193244" x2="-195.6003724504953" y2="-177.76050912228703" stroke-width="0.5" stroke="blue" />
<line x1="-165.77042843752307" y1="-170.80188969193244" x2="-147.90501613823326" y2="-171.15551312551133" stroke-width="0.5" stroke="blue" />
<line x1="-171.74158742234562" y1="-170.80188969193244" x2="-171.74158592894952" y2="-188.66780352672487" stroke-width="0.5" stroke="blue" />
<line x1="-237.20748877607105" y1="-142.764479266332" x2="-255.03305289874157" y2="-135.62103266513415" stroke-width="0.5" stroke="blue" />
<line x1="-237.20748877607105" y1="-154.764479266332" x2="-254.980581561282" y2="-162.44791929527923" stroke-width="0.5" stroke="blue" />
<line x1="-231.1926679919853" y1="-142.764479266332" x2="-231.19266792756457" y2="-124.90013449106856" stroke-width="0.5" stroke="blue" />
<line x1="-197.5837374259103" y1="-24.56522871737416" x2="-219.83607152066338" y2="-24.32326118215649" stroke-width="0.5" stroke="blue" />
</svg>