<svg width="100%" height="100%" viewBox="-128.397 -126.072 249.782 257.412"  xmlns="http://www.w3.org/2000/svg" xmlns:xlink="http://www.w3.org/1999/xlink" version="1.1">
<rect x="-13.9255" y="16.5411" width="20" height="20" fill="yellow" stroke="black" stroke-width="0.5"><title>room 0</title></rect><rect x="-5.1755" y="33.2911" width="2.5" height="2.5" fill="red" stroke="black" stroke-width="0.5"></rect><rect x="-13.1755" y="25.2911" width="2.5" height="2.5" fill="red" stroke="black" stroke-width="0.5"></rect><rect x="-5.1755" y="17.2911" width="2.5" height="2.5" fill="red" stroke="black" stroke-width="0.5"></rect><rect x="2.8245" y="25.2911" width="2.5" height="2.5" fill="red" stroke="black" stroke-width="0.5"></rect>
<rect x="23.8867" y="21.3513" width="20" height="20" fill="yellow" stroke="black" stroke-width="0.5"><title>room 1</title></rect><rect x="32.6367" y="38.1013" width="2.5" height="2.5" fill="red" stroke="black" stroke-width="0.5"></rect><rect x="24.6367" y="30.1013" width="2.5" height="2.5" fill="red" stroke="black" stroke-width="0.5"></rect><rect x="32.6367" y="22.1013" width="2.5" height="2.5" fill="red" stroke="black" stroke-width="0.5"></rect><rect x="40.6367" y="30.1013" width="2.5" height="2.5" fill="red" stroke="black" stroke-width="0.5"></rect>
<rect x="-35.8869" y="-21.802" width="20" height="20" fill="yellow" stroke="black" stroke-width="0.5"><title>room 2</title></rect><rect x="-27.1369" y="-5.05198" width="2.5" height="2.5" fill="red" stroke="black" stroke-width="0.5"></rect><rect x="-35.1369" y="-13.052" width="2.5" height="2.5" fill="red" stroke="black" stroke-width="0.5"></rect><rect x="-27.1369" y="-21.052" width="2.5" height="2.5" fill="red" stroke="black" stroke-width="0.5"></rect><rect x="-19.1369" y="-13.052" width="2.5" height="2.5" fill="red" stroke="black" stroke-width="0.5"></rect>
<rect x="60.1826" y="38.324" width="20" height="20" fill="yellow" stroke="black" stroke-width="0.5"><title>room 3</title></rect><rect x="68.9326" y="55.074" width="2.5" height="2.5" fill="red" stroke="black" stroke-width="0.5"></rect><rect x="60.9326" y="47.074" width="2.5" height="2.5" fill="red" stroke="black" stroke-width="0.5"></rect><rect x="68.9326" y="39.074" width="2.5" height="2.5" fill="red" stroke="black" stroke-width="0.5"></rect><rect x="76.9326" y="47.074" width="2.5" height="2.5" fill="red" stroke="black" stroke-width="0.5"></rect>
<rect x="61.2894" y="63.2812" width="20" height="20" fill="yellow" stroke="black" stroke-width="0.5"><title>room 4</title></rect><rect x="70.0394" y="80.0312" width="2.5" height="2.5" fill="red" stroke="black" stroke-width="0.5"></rect><rect x="62.0394" y="72.0312" width="2.5" height="2.5" fill="red" stroke="black" stroke-width="0.5"></rect><rect x="70.0394" y="64.0312" width="2.5" height="2.5" fill="red" stroke="black" stroke-width="0.5"></rect><rect x="78.0394" y="72.0312" width="2.5" height="2.5" fill="red" stroke="black" stroke-width="0.5"></rect>
<rect x="62.7162" y="13.633" width="20" height="20" fill="yellow" stroke="black" stroke-width="0.5"><title>room 5</title></rect><rect x="71.4662" y="30.383" width="2.5" height="2.5" fill="red" stroke="black" stroke-width="0.5"></rect><rect x="63.4662" y="22.383" width="2.5" height="2.5" fill="red" stroke="black" stroke-width="0.5"></rect><rect x="71.4662" y="14.383" width="2.5" height="2.5" fill="red" stroke="black" stroke-width="0.5"></rect><rect x="79.4662" y="22.383" width="2.5" height="2.5" fill="red" stroke="black" stroke-width="0.5"></rect>
<rect x="-28.8718" y="-57.0874" width="20" height="20" fill="yellow" stroke="black" stroke-width="0.5"><title>room 6</title></rect><rect x="-20.1218" y="-40.3374" width="2.5" height="2.5" fill="red" stroke="black" stroke-width="0.5"></rect><rect x="-28.1218" y="-48.3374" width="2.5" height="2.5" fill="red" stroke="black" stroke-width="0.5"></rect><rect x="-20.1218" y="-56.3374" width="2.5" height="2.5" fill="red" stroke="black" stroke-width="0.5"></rect><rect x="-12.1218" y="-48.3374" width="2.5" height="2.5" fill="red" stroke="black" stroke-width="0.5"></rect>
<rect x="-11.3183" y="-32.7469" width="20" height="20" fill="yellow" stroke="black" stroke-width="0.5"><title>room 7</title></rect><rect x="-2.56829" y="-15.9969" width="2.5" height="2.5" fill="red" stroke="black" stroke-width="0.5"></rect><rect x="-10.5683" y="-23.9969" width="2.5" height="2.5" fill="red" stroke="black" stroke-width="0.5"></rect><rect x="-2.56829" y="-31.9969" width="2.5" height="2.5" fill="red" stroke="black" stroke-width="0.5"></rect><rect x="5.43171" y="-23.9969" width="2.5" height="2.5" fill="red" stroke="black" stroke-width="0.5"></rect>
<rect x="-53.6282" y="-57.0534" width="20" height="20" fill="yellow" stroke="black" stroke-width="0.5"><title>room 8</title></rect><rect x="-44.8782" y="-40.3034" width="2.5" height="2.5" fill="red" stroke="black" stroke-width="0.5"></rect><rect x="-52.8782" y="-48.3034" width="2.5" height="2.5" fill="red" stroke="black" stroke-width="0.5"></rect><rect x="-44.8782" y="-56.3034" width="2.5" height="2.5" fill="red" stroke="black" stroke-width="0.5"></rect><rect x="-36.8782" y="-48.3034" width="2.5" height="2.5" fill="red" stroke="black" stroke-width="0.5"></rect>
<rect x="-37.7536" y="-81.8834" width="20" height="20" fill="yellow" stroke="black" stroke-width="0.5"><title>room 9</title></rect><rect x="-29.0036" y="-65.1334" width="2.5" height="2.5" fill="red" stroke="black" stroke-width="0.5"></rect><rect x="-37.0036" y="-73.1334" width="2.5" height="2.5" fill="red" stroke="black" stroke-width="0.5"></rect><rect x="-29.0036" y="-81.1334" width="2.5" height="2.5" fill="red" stroke="black" stroke-width="0.5"></rect><rect x="-21.0036" y="-73.1334" width="2.5" height="2.5" fill="red" stroke="black" stroke-width="0.5"></rect>
<rect x="10.8125" y="45.9784" width="20" height="20" fill="yellow" stroke="black" stroke-width="0.5"><title>room 10</title></rect><rect x="19.5625" y="62.7284" width="2.5" height="2.5" fill="red" stroke="black" stroke-width="0.5"></rect><rect x="11.5625" y="54.7284" width="2.5" height="2.5" fill="red" stroke="black" stroke-width="0.5"></rect><rect x="19.5625" y="46.7284" width="2.5" height="2.5" fill="red" stroke="black" stroke-width="0.5"></rect><rect x="27.5625" y="54.7284" width="2.5" height="2.5" fill="red" stroke="black" stroke-width="0.5"></rect>
<rect x="38.0631" y="-3.4678" width="20" height="20" fill="yellow" stroke="black" stroke-width="0.5"><title>room 11</title></rect><rect x="46.8131" y="13.2822" width="2.5" height="2.5" fill="red" stroke="black" stroke-width="0.5"></rect><rect x="38.8131" y="5.2822" width="2.5" height="2.5" fill="red" stroke="black" stroke-width="0.5"></rect><rect x="46.8131" y="-2.7178" width="2.5" height="2.5" fill="red" stroke="black" stroke-width="0.5"></rect><rect x="54.8131" y="5.2822" width="2.5" height="2.5" fill="red" stroke="black" stroke-width="0.5"></rect>
<rect x="61.7338" y="88.0397" width="20" height="20" fill="yellow" stroke="black" stroke-width="0.5"><title>room 12</title></rect><rect x="70.4838" y="104.79" width="2.5" height="2.5" fill="red" stroke="black" stroke-width="0.5"></rect><rect x="62.4838" y="96.7897" width="2.5" height="2.5" fill="red" stroke="black" stroke-width="0.5"></rect><rect x="70.4838" y="88.7897" width="2.5" height="2.5" fill="red" stroke="black" stroke-width="0.5"></rect><rect x="78.4838" y="96.7897" width="2.5" height="2.5" fill="red" stroke="black" stroke-width="0.5"></rect>
<rect x="36.5653" y="70.7742" width="20" height="20" fill="yellow" stroke="black" stroke-width="0.5"><title>room 13</title></rect><rect x="45.3153" y="87.5242" width="2.5" height="2.5" fill="red" stroke="black" stroke-width="0.5"></rect><rect x="37.3153" y="79.5242" width="2.5" height="2.5" fill="red" stroke="black" stroke-width="0.5"></rect><rect x="45.3153" y="71.5242" width="2.5" height="2.5" fill="red" stroke="black" stroke-width="0.5"></rect><rect x="53.3153" y="79.5242" width="2.5" height="2.5" fill="red" stroke="black" stroke-width="0.5"></rect>
<rect x="-62.5333" y="-84.6328" width="20" height="20" fill="yellow" stroke="black" stroke-width="0.5"><title>room 14</title></rect><rect x="-53.7833" y="-67.8828" width="2.5" height="2.5" fill="red" stroke="black" stroke-width="0.5"></rect><rect x="-61.7833" y="-75.8828" width="2.5" height="2.5" fill="red" stroke="black" stroke-width="0.5"></rect><rect x="-53.7833" y="-83.8828" width="2.5" height="2.5" fill="red" stroke="black" stroke-width="0.5"></rect><rect x="-45.7833" y="-75.8828" width="2.5" height="2.5" fill="red" stroke="black" stroke-width="0.5"></rect>
<rect x="38.2315" y="-28.2232" width="20" height="20" fill="yellow" stroke="black" stroke-width="0.5"><title>room 15</title></rect><rect x="46.9815" y="-11.4732" width="2.5" height="2.5" fill="red" stroke="black" stroke-width="0.5"></rect><rect x="38.9815" y="-19.4732" width="2.5" height="2.5" fill="red" stroke="black" stroke-width="0.5"></rect><rect x="46.9815" y="-27.4732" width="2.5" height="2.5" fill="red" stroke="black" stroke-width="0.5"></rect><rect x="54.9815" y="-19.4732" width="2.5" height="2.5" fill="red" stroke="black" stroke-width="0.5"></rect>
<rect x="62.8279" y="-11.1325" width="20" height="20" fill="yellow" stroke="black" stroke-width="0.5"><title>room 16</title></rect><rect x="71.5779" y="5.61745" width="2.5" height="2.5" fill="red" stroke="black" stroke-width="0.5"></rect><rect x="63.5779" y="-2.38255" width="2.5" height="2.5" fill="red" stroke="black" stroke-width="0.5"></rect><rect x="71.5779" y="-10.3825" width="2.5" height="2.5" fill="red" stroke="black" stroke-width="0.5"></rect><rect x="79.5779" y="-2.38255" width="2.5" height="2.5" fill="red" stroke="black" stroke-width="0.5"></rect>
<rect x="4.29674" y="-59.5491" width="20" height="20" fill="yellow" stroke="black" stroke-width="0.5"><title>room 17</title></rect><rect x="13.0467" y="-42.7991" width="2.5" height="2.5" fill="red" stroke="black" stroke-width="0.5"></rect><rect x="5.04674" y="-50.7991" width="2.5" height="2.5" fill="red" stroke="black" stroke-width="0.5"></rect><rect x="13.0467" y="-58.7991" width="2.5" height="2.5" fill="red" stroke="black" stroke-width="0.5"></rect><rect x="21.0467" y="-50.7991" width="2.5" height="2.5" fill="red" stroke="black" stroke-width="0.5"></rect>
<rect x="-60.7074" y="-13.8645" width="20" height="20" fill="yellow" stroke="black" stroke-width="0.5"><title>room 18</title></rect><rect x="-51.9574" y="2.88547" width="2.5" height="2.5" fill="red" stroke="black" stroke-width="0.5"></rect><rect x="-59.9574" y="-5.11453" width="2.5" height="2.5" fill="red" stroke="black" stroke-width="0.5"></rect><rect x="-51.9574" y="-13.1145" width="2.5" height="2.5" fill="red" stroke="black" stroke-width="0.5"></rect><rect x="-43.9574" y="-5.11453" width="2.5" height="2.5" fill="red" stroke="black" stroke-width="0.5"></rect>
<rect x="-87.3039" y="-85.3409" width="20" height="20" fill="yellow" stroke="black" stroke-width="0.5"><title>room 19</title></rect><rect x="-78.5539" y="-68.5909" width="2.5" height="2.5" fill="red" stroke="black" stroke-width="0.5"></rect><rect x="-86.5539" y="-76.5909" width="2.5" height="2.5" fill="red" stroke="black" stroke-width="0.5"></rect><rect x="-78.5539" y="-84.5909" width="2.5" height="2.5" fill="red" stroke="black" stroke-width="0.5"></rect><rect x="-70.5539" y="-76.5909" width="2.5" height="2.5" fill="red" stroke="black" stroke-width="0.5"></rect>
<rect x="36.756" y="95.5337" width="20" height="20" fill="yellow" stroke="black" stroke-width="0.5"><title>room 20</title></rect><rect x="45.506" y="112.284" width="2.5" height="2.5" fill="red" stroke="black" stroke-width="0.5"></rect><rect x="37.506" y="104.284" width="2.5" height="2.5" fill="red" stroke="black" stroke-width="0.5"></rect><rect x="45.506" y="96.2837" width="2.5" height="2.5" fill="red" stroke="black" stroke-width="0.5"></rect><rect x="53.506" y="104.284" width="2.5" height="2.5" fill="red" stroke="black" stroke-width="0.5"></rect>
<rect x="13.3915" y="-3.57145" width="20" height="20" fill="yellow" stroke="black" stroke-width="0.5"><title>room 21</title></rect><rect x="22.1415" y="13.1786" width="2.5" height="2.5" fill="red" stroke="black" stroke-width="0.5"></rect><rect x="14.1415" y="5.17855" width="2.5" height="2.5" fill="red" stroke="black" stroke-width="0.5"></rect><rect x="22.1415" y="-2.82145" width="2.5" height="2.5" fill="red" stroke="black" stroke-width="0.5"></rect><rect x="30.1415" y="5.17855" width="2.5" height="2.5" fill="red" stroke="black" stroke-width="0.5"></rect>
<rect x="-13.0502" y="-84.342" width="20" height="20" fill="yellow" stroke="black" stroke-width="0.5"><title>room 22</title></rect><rect x="-4.30018" y="-67.592" width="2.5" height="2.5" fill="red" stroke="black" stroke-width="0.5"></rect><rect x="-12.3002" y="-75.592" width="2.5" height="2.5" fill="red" stroke="black" stroke-width="0.5"></rect><rect x="-4.30018" y="-83.592" width="2.5" height="2.5" fill="red" stroke="black" stroke-width="0.5"></rect><rect x="3.69982" y="-75.592" width="2.5" height="2.5" fill="red" stroke="black" stroke-width="0.5"></rect>
<rect x="-63.5708" y="18.3048" width="20" height="20" fill="yellow" stroke="black" stroke-width="0.5"><title>room 23</title></rect><rect x="-54.8208" y="35.0548" width="2.5" height="2.5" fill="red" stroke="black" stroke-width="0.5"></rect><rect x="-62.8208" y="27.0548" width="2.5" height="2.5" fill="red" stroke="black" stroke-width="0.5"></rect><rect x="-54.8208" y="19.0548" width="2.5" height="2.5" fill="red" stroke="black" stroke-width="0.5"></rect><rect x="-46.8208" y="27.0548" width="2.5" height="2.5" fill="red" stroke="black" stroke-width="0.5"></rect>
<rect x="-112.069" y="-85.9183" width="20" height="20" fill="yellow" stroke="black" stroke-width="0.5"><title>room 24</title></rect><rect x="-103.319" y="-69.1683" width="2.5" height="2.5" fill="red" stroke="black" stroke-width="0.5"></rect><rect x="-111.319" y="-77.1683" width="2.5" height="2.5" fill="red" stroke="black" stroke-width="0.5"></rect><rect x="-103.319" y="-85.1683" width="2.5" height="2.5" fill="red" stroke="black" stroke-width="0.5"></rect><rect x="-95.319" y="-77.1683" width="2.5" height="2.5" fill="red" stroke="black" stroke-width="0.5"></rect>
<rect x="-63.2705" y="-109.4" width="20" height="20" fill="yellow" stroke="black" stroke-width="0.5"><title>room 25</title></rect><rect x="-54.5205" y="-92.6495" width="2.5" height="2.5" fill="red" stroke="black" stroke-width="0.5"></rect><rect x="-62.5205" y="-100.65" width="2.5" height="2.5" fill="red" stroke="black" stroke-width="0.5"></rect><rect x="-54.5205" y="-108.65" width="2.5" height="2.5" fill="red" stroke="black" stroke-width="0.5"></rect><rect x="-46.5205" y="-100.65" width="2.5" height="2.5" fill="red" stroke="black" stroke-width="0.5"></rect>
<rect x="-38.8499" y="11.6143" width="20" height="20" fill="yellow" stroke="black" stroke-width="0.5"><title>room 26</title></rect><rect x="-30.0999" y="28.3643" width="2.5" height="2.5" fill="red" stroke="black" stroke-width="0.5"></rect><rect x="-38.0999" y="20.3643" width="2.5" height="2.5" fill="red" stroke="black" stroke-width="0.5"></rect><rect x="-30.0999" y="12.3643" width="2.5" height="2.5" fill="red" stroke="black" stroke-width="0.5"></rect><rect x="-22.0999" y="20.3643" width="2.5" height="2.5" fill="red" stroke="black" stroke-width="0.5"></rect>
<rect x="-88.2998" y="27.2717" width="20" height="20" fill="yellow" stroke="black" stroke-width="0.5"><title>room 27</title></rect><rect x="-79.5498" y="44.0217" width="2.5" height="2.5" fill="red" stroke="black" stroke-width="0.5"></rect><rect x="-87.5498" y="36.0217" width="2.5" height="2.5" fill="red" stroke="black" stroke-width="0.5"></rect><rect x="-79.5498" y="28.0217" width="2.5" height="2.5" fill="red" stroke="black" stroke-width="0.5"></rect><rect x="-71.5498" y="36.0217" width="2.5" height="2.5" fill="red" stroke="black" stroke-width="0.5"></rect>
<rect x="11.8132" y="71.46" width="20" height="20" fill="yellow" stroke="black" stroke-width="0.5"><title>room 28</title></rect><rect x="20.5632" y="88.21" width="2.5" height="2.5" fill="red" stroke="black" stroke-width="0.5"></rect><rect x="12.5632" y="80.21" width="2.5" height="2.5" fill="red" stroke="black" stroke-width="0.5"></rect><rect x="20.5632" y="72.21" width="2.5" height="2.5" fill="red" stroke="black" stroke-width="0.5"></rect><rect x="28.5632" y="80.21" width="2.5" height="2.5" fill="red" stroke="black" stroke-width="0.5"></rect>
<rect x="-112.757" y="-61.1677" width="20" height="20" fill="yellow" stroke="black" stroke-width="0.5"><title>room 29</title></rect><rect x="-104.007" y="-44.4177" width="2.5" height="2.5" fill="red" stroke="black" stroke-width="0.5"></rect><rect x="-112.007" y="-52.4177" width="2.5" height="2.5" fill="red" stroke="black" stroke-width="0.5"></rect><rect x="-104.007" y="-60.4177" width="2.5" height="2.5" fill="red" stroke="black" stroke-width="0.5"></rect><rect x="-96.007" y="-52.4177" width="2.5" height="2.5" fill="red" stroke="black" stroke-width="0.5"></rect>
<rect x="-85.4612" y="-22.1724" width="20" height="20" fill="yellow" stroke="black" stroke-width="0.5"><title>room 30</title></rect><rect x="-76.7112" y="-5.42241" width="2.5" height="2.5" fill="red" stroke="black" stroke-width="0.5"></rect><rect x="-84.7112" y="-13.4224" width="2.5" height="2.5" fill="red" stroke="black" stroke-width="0.5"></rect><rect x="-76.7112" y="-21.4224" width="2.5" height="2.5" fill="red" stroke="black" stroke-width="0.5"></rect><rect x="-68.7112" y="-13.4224" width="2.5" height="2.5" fill="red" stroke="black" stroke-width="0.5"></rect>
<rect x="-12.7371" y="-109.109" width="20" height="20" fill="yellow" stroke="black" stroke-width="0.5"><title>room 31</title></rect><rect x="-3.98714" y="-92.3586" width="2.5" height="2.5" fill="red" stroke="black" stroke-width="0.5"></rect><rect x="-11.9871" y="-100.359" width="2.5" height="2.5" fill="red" stroke="black" stroke-width="0.5"></rect><rect x="-3.98714" y="-108.359" width="2.5" height="2.5" fill="red" stroke="black" stroke-width="0.5"></rect><rect x="4.01286" y="-100.359" width="2.5" height="2.5" fill="red" stroke="black" stroke-width="0.5"></rect>
<rect x="35.5239" y="46.0655" width="20" height="20" fill="yellow" stroke="black" stroke-width="0.5"><title>room 32</title></rect><rect x="44.2739" y="62.8155" width="2.5" height="2.5" fill="red" stroke="black" stroke-width="0.5"></rect><rect x="36.2739" y="54.8155" width="2.5" height="2.5" fill="red" stroke="black" stroke-width="0.5"></rect><rect x="44.2739" y="46.8155" width="2.5" height="2.5" fill="red" stroke="black" stroke-width="0.5"></rect><rect x="52.2739" y="54.8155" width="2.5" height="2.5" fill="red" stroke="black" stroke-width="0.5"></rect>
<rect x="-63.821" y="47.8987" width="20" height="20" fill="yellow" stroke="black" stroke-width="0.5"><title>room 33</title></rect><rect x="-55.071" y="64.6487" width="2.5" height="2.5" fill="red" stroke="black" stroke-width="0.5"></rect><rect x="-63.071" y="56.6487" width="2.5" height="2.5" fill="red" stroke="black" stroke-width="0.5"></rect><rect x="-55.071" y="48.6487" width="2.5" height="2.5" fill="red" stroke="black" stroke-width="0.5"></rect><rect x="-47.071" y="56.6487" width="2.5" height="2.5" fill="red" stroke="black" stroke-width="0.5"></rect>
<rect x="11.7309" y="-84.3042" width="20" height="20" fill="yellow" stroke="black" stroke-width="0.5"><title>room 34</title></rect><rect x="20.4809" y="-67.5542" width="2.5" height="2.5" fill="red" stroke="black" stroke-width="0.5"></rect><rect x="12.4809" y="-75.5542" width="2.5" height="2.5" fill="red" stroke="black" stroke-width="0.5"></rect><rect x="20.4809" y="-83.5542" width="2.5" height="2.5" fill="red" stroke="black" stroke-width="0.5"></rect><rect x="28.4809" y="-75.5542" width="2.5" height="2.5" fill="red" stroke="black" stroke-width="0.5"></rect>
<rect x="84.9422" y="38.532" width="20" height="20" fill="yellow" stroke="black" stroke-width="0.5"><title>room 35</title></rect><rect x="93.6922" y="55.282" width="2.5" height="2.5" fill="red" stroke="black" stroke-width="0.5"></rect><rect x="85.6922" y="47.282" width="2.5" height="2.5" fill="red" stroke="black" stroke-width="0.5"></rect><rect x="93.6922" y="39.282" width="2.5" height="2.5" fill="red" stroke="black" stroke-width="0.5"></rect><rect x="101.692" y="47.282" width="2.5" height="2.5" fill="red" stroke="black" stroke-width="0.5"></rect>
<rect x="86.0482" y="63.6602" width="20" height="20" fill="yellow" stroke="black" stroke-width="0.5"><title>room 36</title></rect><rect x="94.7982" y="80.4102" width="2.5" height="2.5" fill="red" stroke="black" stroke-width="0.5"></rect><rect x="86.7982" y="72.4102" width="2.5" height="2.5" fill="red" stroke="black" stroke-width="0.5"></rect><rect x="94.7982" y="64.4102" width="2.5" height="2.5" fill="red" stroke="black" stroke-width="0.5"></rect><rect x="102.798" y="72.4102" width="2.5" height="2.5" fill="red" stroke="black" stroke-width="0.5"></rect>
<rect x="-88.2702" y="2.51422" width="20" height="20" fill="yellow" stroke="black" stroke-width="0.5"><title>room 37</title></rect><rect x="-79.5202" y="19.2642" width="2.5" height="2.5" fill="red" stroke="black" stroke-width="0.5"></rect><rect x="-87.5202" y="11.2642" width="2.5" height="2.5" fill="red" stroke="black" stroke-width="0.5"></rect><rect x="-79.5202" y="3.26422" width="2.5" height="2.5" fill="red" stroke="black" stroke-width="0.5"></rect><rect x="-71.5202" y="11.2642" width="2.5" height="2.5" fill="red" stroke="black" stroke-width="0.5"></rect>
<rect x="-39.2082" y="61.0825" width="20" height="20" fill="yellow" stroke="black" stroke-width="0.5"><title>room 38</title></rect><rect x="-30.4582" y="77.8325" width="2.5" height="2.5" fill="red" stroke="black" stroke-width="0.5"></rect><rect x="-38.4582" y="69.8325" width="2.5" height="2.5" fill="red" stroke="black" stroke-width="0.5"></rect><rect x="-30.4582" y="61.8325" width="2.5" height="2.5" fill="red" stroke="black" stroke-width="0.5"></rect><rect x="-22.4582" y="69.8325" width="2.5" height="2.5" fill="red" stroke="black" stroke-width="0.5"></rect>
<rect x="13.4121" y="-34.8407" width="20" height="20" fill="yellow" stroke="black" stroke-width="0.5"><title>room 39</title></rect><rect x="22.1621" y="-18.0907" width="2.5" height="2.5" fill="red" stroke="black" stroke-width="0.5"></rect><rect x="14.1621" y="-26.0907" width="2.5" height="2.5" fill="red" stroke="black" stroke-width="0.5"></rect><rect x="22.1621" y="-34.0907" width="2.5" height="2.5" fill="red" stroke="black" stroke-width="0.5"></rect><rect x="30.1621" y="-26.0907" width="2.5" height="2.5" fill="red" stroke="black" stroke-width="0.5"></rect>
<rect x="-113.059" y="27.5695" width="20" height="20" fill="yellow" stroke="black" stroke-width="0.5"><title>room 40</title></rect><rect x="-104.309" y="44.3195" width="2.5" height="2.5" fill="red" stroke="black" stroke-width="0.5"></rect><rect x="-112.309" y="36.3195" width="2.5" height="2.5" fill="red" stroke="black" stroke-width="0.5"></rect><rect x="-104.309" y="28.3195" width="2.5" height="2.5" fill="red" stroke="black" stroke-width="0.5"></rect><rect x="-96.3092" y="36.3195" width="2.5" height="2.5" fill="red" stroke="black" stroke-width="0.5"></rect>
<rect x="29.0541" y="-59.6173" width="20" height="20" fill="yellow" stroke="black" stroke-width="0.5"><title>room 41</title></rect><rect x="37.8041" y="-42.8673" width="2.5" height="2.5" fill="red" stroke="black" stroke-width="0.5"></rect><rect x="29.8041" y="-50.8673" width="2.5" height="2.5" fill="red" stroke="black" stroke-width="0.5"></rect><rect x="37.8041" y="-58.8673" width="2.5" height="2.5" fill="red" stroke="black" stroke-width="0.5"></rect><rect x="45.8041" y="-50.8673" width="2.5" height="2.5" fill="red" stroke="black" stroke-width="0.5"></rect>
<rect x="36.4934" y="-85.3762" width="20" height="20" fill="yellow" stroke="black" stroke-width="0.5"><title>room 42</title></rect><rect x="45.2434" y="-68.6262" width="2.5" height="2.5" fill="red" stroke="black" stroke-width="0.5"></rect><rect x="37.2434" y="-76.6262" width="2.5" height="2.5" fill="red" stroke="black" stroke-width="0.5"></rect><rect x="45.2434" y="-84.6262" width="2.5" height="2.5" fill="red" stroke="black" stroke-width="0.5"></rect><rect x="53.2434" y="-76.6262" width="2.5" height="2.5" fill="red" stroke="black" stroke-width="0.5"></rect>
<rect x="61.2517" y="-85.8765" width="20" height="20" fill="yellow" stroke="black" stroke-width="0.5"><title>room 43</title></rect><rect x="70.0017" y="-69.1265" width="2.5" height="2.5" fill="red" stroke="black" stroke-width="0.5"></rect><rect x="62.0017" y="-77.1265" width="2.5" height="2.5" fill="red" stroke="black" stroke-width="0.5"></rect><rect x="70.0017" y="-85.1265" width="2.5" height="2.5" fill="red" stroke="black" stroke-width="0.5"></rect><rect x="78.0017" y="-77.1265" width="2.5" height="2.5" fill="red" stroke="black" stroke-width="0.5"></rect>
<rect x="-14.4688" y="66.0702" width="20" height="20" fill="yellow" stroke="black" stroke-width="0.5"><title>room 44</title></rect><rect x="-5.7188" y="82.8202" width="2.5" height="2.5" fill="red" stroke="black" stroke-width="0.5"></rect><rect x="-13.7188" y="74.8202" width="2.5" height="2.5" fill="red" stroke="black" stroke-width="0.5"></rect><rect x="-5.7188" y="66.8202" width="2.5" height="2.5" fill="red" stroke="black" stroke-width="0.5"></rect><rect x="2.2812" y="74.8202" width="2.5" height="2.5" fill="red" stroke="black" stroke-width="0.5"></rect>
<rect x="-14.0638" y="41.3531" width="20" height="20" fill="yellow" stroke="black" stroke-width="0.5"><title>room 45</title></rect><rect x="-5.3138" y="58.1031" width="2.5" height="2.5" fill="red" stroke="black" stroke-width="0.5"></rect><rect x="-13.3138" y="50.1031" width="2.5" height="2.5" fill="red" stroke="black" stroke-width="0.5"></rect><rect x="-5.3138" y="42.1031" width="2.5" height="2.5" fill="red" stroke="black" stroke-width="0.5"></rect><rect x="2.6862" y="50.1031" width="2.5" height="2.5" fill="red" stroke="black" stroke-width="0.5"></rect>
<rect x="-88.027" y="-110.266" width="20" height="20" fill="yellow" stroke="black" stroke-width="0.5"><title>room 46</title></rect><rect x="-79.277" y="-93.5164" width="2.5" height="2.5" fill="red" stroke="black" stroke-width="0.5"></rect><rect x="-87.277" y="-101.516" width="2.5" height="2.5" fill="red" stroke="black" stroke-width="0.5"></rect><rect x="-79.277" y="-109.516" width="2.5" height="2.5" fill="red" stroke="black" stroke-width="0.5"></rect><rect x="-71.277" y="-101.516" width="2.5" height="2.5" fill="red" stroke="black" stroke-width="0.5"></rect>
<rect x="-11.3254" y="-8.12057" width="20" height="20" fill="yellow" stroke="black" stroke-width="0.5"><title>room 47</title></rect><rect x="-2.57543" y="8.62943" width="2.5" height="2.5" fill="red" stroke="black" stroke-width="0.5"></rect><rect x="-10.5754" y="0.629434" width="2.5" height="2.5" fill="red" stroke="black" stroke-width="0.5"></rect><rect x="-2.57543" y="-7.37057" width="2.5" height="2.5" fill="red" stroke="black" stroke-width="0.5"></rect><rect x="5.42457" y="0.629434" width="2.5" height="2.5" fill="red" stroke="black" stroke-width="0.5"></rect>
<rect x="-38.9258" y="36.3147" width="20" height="20" fill="yellow" stroke="black" stroke-width="0.5"><title>room 48</title></rect><rect x="-30.1758" y="53.0647" width="2.5" height="2.5" fill="red" stroke="black" stroke-width="0.5"></rect><rect x="-38.1758" y="45.0647" width="2.5" height="2.5" fill="red" stroke="black" stroke-width="0.5"></rect><rect x="-30.1758" y="37.0647" width="2.5" height="2.5" fill="red" stroke="black" stroke-width="0.5"></rect><rect x="-22.1758" y="45.0647" width="2.5" height="2.5" fill="red" stroke="black" stroke-width="0.5"></rect>
<rect x="12.0178" y="-109.825" width="20" height="20" fill="yellow" stroke="black" stroke-width="0.5"><title>room 49</title></rect><rect x="20.7678" y="-93.0752" width="2.5" height="2.5" fill="red" stroke="black" stroke-width="0.5"></rect><rect x="12.7678" y="-101.075" width="2.5" height="2.5" fill="red" stroke="black" stroke-width="0.5"></rect><rect x="20.7678" y="-109.075" width="2.5" height="2.5" fill="red" stroke="black" stroke-width="0.5"></rect><rect x="28.7678" y="-101.075" width="2.5" height="2.5" fill="red" stroke="black" stroke-width="0.5"></rect>
<line x1="25.886731484976345" y1="31.35126706568831" x2="4.074496608759565" y2="26.541119975268646" stroke-width="0.5" stroke="blue" />
<line x1="-25.886939853828135" y1="-3.8019830069368954" x2="-3.9255033912404347" y2="18.541119975268646" stroke-width="0.5" stroke="blue" />
<line x1="62.18264993297592" y1="48.32404068970023" x2="41.886731484976345" y2="31.35126706568831" stroke-width="0.5" stroke="blue" />
<line x1="71.28942159599198" y1="65.2812308042132" x2="70.18264993297592" y2="56.32404068970023" stroke-width="0.5" stroke="blue" />
<line x1="72.7162350553012" y1="31.633003152097327" x2="70.18264993297592" y2="40.32404068970023" stroke-width="0.5" stroke="blue" />
<line x1="-18.871763624155633" y1="-39.08735976026261" x2="-25.886939853828135" y2="-19.801983006936894" stroke-width="0.5" stroke="blue" />
<line x1="-9.318287683022543" y1="-22.746879338099102" x2="-17.886939853828135" y2="-11.801983006936895" stroke-width="0.5" stroke="blue" />
<line x1="-35.62816574913182" y1="-47.05335571972202" x2="-26.871763624155633" y2="-47.08735976026261" stroke-width="0.5" stroke="blue" />
<line x1="-27.753646412830346" y1="-63.88340901034542" x2="-18.871763624155633" y2="-55.08735976026261" stroke-width="0.5" stroke="blue" />
<line x1="20.812549153918" y1="47.97843360780607" x2="33.886731484976345" y2="39.35126706568831" stroke-width="0.5" stroke="blue" />
<line x1="48.063057546656005" y1="14.532203148087554" x2="33.886731484976345" y2="23.35126706568831" stroke-width="0.5" stroke="blue" />
<line x1="71.73378363809125" y1="90.03968242699052" x2="71.28942159599198" y2="81.2812308042132" stroke-width="0.5" stroke="blue" />
<line x1="54.565251840260245" y1="80.77416525279122" x2="63.28942159599198" y2="73.2812308042132" stroke-width="0.5" stroke="blue" />
<line x1="-44.53331203118802" y1="-74.63279870799673" x2="-35.75364641283035" y2="-71.88340901034542" stroke-width="0.5" stroke="blue" />
<line x1="48.2314883582287" y1="-10.223238092650679" x2="48.063057546656005" y2="-1.4677968519124471" stroke-width="0.5" stroke="blue" />
<line x1="64.8278945546945" y1="-1.132549844713961" x2="56.063057546656005" y2="6.532203148087553" stroke-width="0.5" stroke="blue" />
<line x1="6.2967361328812235" y1="-49.549069957400924" x2="-10.871763624155633" y2="-47.08735976026261" stroke-width="0.5" stroke="blue" />
<line x1="-42.7073507864578" y1="-3.864534066679689" x2="-33.88693985382814" y2="-11.801983006936895" stroke-width="0.5" stroke="blue" />
<line x1="-69.30392070384906" y1="-75.34089602959592" x2="-60.53331203118802" y2="-74.63279870799673" stroke-width="0.5" stroke="blue" />
<line x1="46.75602394550499" y1="97.53372977931512" x2="46.565251840260245" y2="88.77416525279122" stroke-width="0.5" stroke="blue" />
<line x1="31.391546980316896" y1="6.428552842104329" x2="40.063057546656005" y2="6.532203148087553" stroke-width="0.5" stroke="blue" />
<line x1="-11.050180864326975" y1="-74.34204072823597" x2="-19.753646412830346" y2="-71.88340901034542" stroke-width="0.5" stroke="blue" />
<line x1="-53.57079211744642" y1="20.304790990187897" x2="-50.7073507864578" y2="4.135465933320312" stroke-width="0.5" stroke="blue" />
<line x1="-94.06902893510505" y1="-75.91832054985649" x2="-85.30392070384906" y2="-75.34089602959592" stroke-width="0.5" stroke="blue" />
<line x1="-53.270478843772395" y1="-91.39953160347726" x2="-52.53331203118802" y2="-82.63279870799673" stroke-width="0.5" stroke="blue" />
<line x1="-36.84992579206681" y1="21.614295906295418" x2="-45.57079211744642" y2="28.304790990187897" stroke-width="0.5" stroke="blue" />
<line x1="-70.29977790265747" y1="37.27169831247922" x2="-61.57079211744642" y2="28.304790990187897" stroke-width="0.5" stroke="blue" />
<line x1="29.813203988396843" y1="81.45998732614188" x2="38.565251840260245" y2="80.77416525279122" stroke-width="0.5" stroke="blue" />
<line x1="-102.75701686990081" y1="-59.16767343659052" x2="-102.06902893510505" y2="-67.91832054985649" stroke-width="0.5" stroke="blue" />
<line x1="-67.46121827791536" y1="-12.172411890079346" x2="-58.7073507864578" y2="-3.864534066679689" stroke-width="0.5" stroke="blue" />
<line x1="-2.7371370387268477" y1="-91.10863111559013" x2="-3.0501808643269754" y2="-82.34204072823597" stroke-width="0.5" stroke="blue" />
<line x1="45.52390407548467" y1="64.06553176963178" x2="46.565251840260245" y2="72.77416525279122" stroke-width="0.5" stroke="blue" />
<line x1="-53.820951403457684" y1="49.898656813520695" x2="-53.57079211744642" y2="36.3047909901879" stroke-width="0.5" stroke="blue" />
<line x1="21.730882288415646" y1="-66.30422548823942" x2="14.296736132881223" y2="-57.549069957400924" stroke-width="0.5" stroke="blue" />
<line x1="86.94215961729444" y1="48.53196232203976" x2="78.18264993297592" y2="48.32404068970023" stroke-width="0.5" stroke="blue" />
<line x1="88.04816124619515" y1="73.66016572903216" x2="79.28942159599198" y2="73.2812308042132" stroke-width="0.5" stroke="blue" />
<line x1="-78.27023462905899" y1="4.514218115628889" x2="-75.46121827791536" y2="-4.172411890079346" stroke-width="0.5" stroke="blue" />
<line x1="-37.20824625238971" y1="71.08247255384077" x2="-45.820951403457684" y2="57.898656813520695" stroke-width="0.5" stroke="blue" />
<line x1="23.412091368996293" y1="-32.84065786664577" x2="14.296736132881223" y2="-41.549069957400924" stroke-width="0.5" stroke="blue" />
<line x1="-95.0591726017468" y1="37.56946899103322" x2="-86.29977790265747" y2="37.27169831247922" stroke-width="0.5" stroke="blue" />
<line x1="31.0541014539098" y1="-49.61727991540229" x2="22.29673613288122" y2="-49.549069957400924" stroke-width="0.5" stroke="blue" />
<line x1="38.49337502746405" y1="-75.37621884897754" x2="29.730882288415646" y2="-74.30422548823942" stroke-width="0.5" stroke="blue" />
<line x1="63.251650524862654" y1="-75.87653413839222" x2="54.49337502746405" y2="-75.37621884897754" stroke-width="0.5" stroke="blue" />
<line x1="-12.468801347203918" y1="76.07024523254725" x2="-21.20824625238971" y2="71.08247255384077" stroke-width="0.5" stroke="blue" />
<line x1="-4.063796472413689" y1="59.35312767131144" x2="-4.468801347203919" y2="68.07024523254725" stroke-width="0.5" stroke="blue" />
<line x1="-70.02701994042897" y1="-100.2664355383083" x2="-61.270478843772395" y2="-99.39953160347726" stroke-width="0.5" stroke="blue" />
<line x1="-1.3254261324942858" y1="-6.120566461633666" x2="-1.3182876830225434" y2="-14.746879338099102" stroke-width="0.5" stroke="blue" />
<line x1="-28.92581980259959" y1="38.314701607945146" x2="-28.849925792066816" y2="29.614295906295418" stroke-width="0.5" stroke="blue" />
<line x1="14.017824039133743" y1="-99.82515114065748" x2="5.262862961273152" y2="-99.10863111559013" stroke-width="0.5" stroke="blue" />
</svg>