<svg width="100%" height="100%" viewBox="-354.159 -376.015 684.314 783.236"  xmlns="http://www.w3.org/2000/svg" xmlns:xlink="http://www.w3.org/1999/xlink" version="1.1">
<rect x="-15.6624" y="14.5668" width="60" height="60" fill="yellow" stroke="black" stroke-width="0.5"><title>room 0</title></rect><rect x="-4.91243" y="25.3168" width="2.5" height="2.5" fill="red" stroke="black" stroke-width="0.5"></rect><rect x="31.0876" y="25.3168" width="2.5" height="2.5" fill="red" stroke="black" stroke-width="0.5"></rect><rect x="31.0876" y="25.3168" width="2.5" height="2.5" fill="red" stroke="black" stroke-width="0.5"></rect><rect x="-4.91243" y="25.3168" width="2.5" height="2.5" fill="red" stroke="black" stroke-width="0.5"></rect><rect x="-4.91243" y="61.3168" width="2.5" height="2.5" fill="red" stroke="black" stroke-width="0.5"></rect><rect x="31.0876" y="61.3168" width="2.5" height="2.5" fill="red" stroke="black" stroke-width="0.5"></rect><rect x="-4.91243" y="53.9802" width="2.5" height="2.5" fill="red" stroke="black" stroke-width="0.5"></rect><rect x="8.26037" y="61.3168" width="2.5" height="2.5" fill="red" stroke="black" stroke-width="0.5"></rect><rect x="28.3669" y="25.3168" width="2.5" height="2.5" fill="red" stroke="black" stroke-width="0.5"></rect><rect x="-4.91243" y="25.3168" width="2.5" height="2.5" fill="red" stroke="black" stroke-width="0.5"></rect>
<rect x="-47.1108" y="-67.0026" width="30" height="30" fill="yellow" stroke="black" stroke-width="0.5"><title>room 1</title></rect><rect x="-24.3608" y="-44.2526" width="2.5" height="2.5" fill="red" stroke="black" stroke-width="0.5"></rect><rect x="-42.3608" y="-48.1203" width="2.5" height="2.5" fill="red" stroke="black" stroke-width="0.5"></rect><rect x="-24.3608" y="-58.3997" width="2.5" height="2.5" fill="red" stroke="black" stroke-width="0.5"></rect><rect x="-42.3608" y="-62.2526" width="2.5" height="2.5" fill="red" stroke="black" stroke-width="0.5"></rect><rect x="-24.3608" y="-62.2526" width="2.5" height="2.5" fill="red" stroke="black" stroke-width="0.5"></rect>
<rect x="63.3338" y="-32.0124" width="20" height="20" fill="yellow" stroke="black" stroke-width="0.5"><title>room 2</title></rect><rect x="66.0838" y="-17.2624" width="2.5" height="2.5" fill="red" stroke="black" stroke-width="0.5"></rect><rect x="78.0838" y="-29.2624" width="2.5" height="2.5" fill="red" stroke="black" stroke-width="0.5"></rect><rect x="78.0838" y="-18.793" width="2.5" height="2.5" fill="red" stroke="black" stroke-width="0.5"></rect>
<rect x="-79.4052" y="-54.7381" width="20" height="20" fill="yellow" stroke="black" stroke-width="0.5"><title>room 3</title></rect><rect x="-64.6552" y="-48.1203" width="2.5" height="2.5" fill="red" stroke="black" stroke-width="0.5"></rect><rect x="-76.6552" y="-39.9881" width="2.5" height="2.5" fill="red" stroke="black" stroke-width="0.5"></rect>
<rect x="63.3446" y="-2.15297" width="20" height="20" fill="yellow" stroke="black" stroke-width="0.5"><title>room 4</title></rect><rect x="66.0946" y="12.597" width="2.5" height="2.5" fill="red" stroke="black" stroke-width="0.5"></rect><rect x="78.0946" y="12.597" width="2.5" height="2.5" fill="red" stroke="black" stroke-width="0.5"></rect>
<rect x="-79.8315" y="5.06767" width="40" height="20" fill="yellow" stroke="black" stroke-width="0.5"><title>room 5</title></rect><rect x="-49.0815" y="19.8177" width="2.5" height="2.5" fill="red" stroke="black" stroke-width="0.5"></rect><rect x="-73.0815" y="19.8177" width="2.5" height="2.5" fill="red" stroke="black" stroke-width="0.5"></rect>
<rect x="-53.0732" y="94.5624" width="20" height="20" fill="yellow" stroke="black" stroke-width="0.5"><title>room 6</title></rect><rect x="-38.3232" y="97.3124" width="2.5" height="2.5" fill="red" stroke="black" stroke-width="0.5"></rect><rect x="-49.0837" y="109.312" width="2.5" height="2.5" fill="red" stroke="black" stroke-width="0.5"></rect><rect x="-50.3232" y="103.356" width="2.5" height="2.5" fill="red" stroke="black" stroke-width="0.5"></rect><rect x="-50.3232" y="97.3124" width="2.5" height="2.5" fill="red" stroke="black" stroke-width="0.5"></rect>
<rect x="-4.81638" y="-69.2967" width="20" height="20" fill="yellow" stroke="black" stroke-width="0.5"><title>room 7</title></rect><rect x="-2.06638" y="-58.3996" width="2.5" height="2.5" fill="red" stroke="black" stroke-width="0.5"></rect><rect x="9.93362" y="-66.5467" width="2.5" height="2.5" fill="red" stroke="black" stroke-width="0.5"></rect>
<rect x="-91.6787" y="-117.098" width="30" height="30" fill="yellow" stroke="black" stroke-width="0.5"><title>room 8</title></rect><rect x="-68.9287" y="-94.3476" width="2.5" height="2.5" fill="red" stroke="black" stroke-width="0.5"></rect><rect x="-86.9287" y="-101.285" width="2.5" height="2.5" fill="red" stroke="black" stroke-width="0.5"></rect><rect x="-68.9287" y="-112.348" width="2.5" height="2.5" fill="red" stroke="black" stroke-width="0.5"></rect><rect x="-86.9287" y="-112.348" width="2.5" height="2.5" fill="red" stroke="black" stroke-width="0.5"></rect><rect x="-86.9287" y="-94.3476" width="2.5" height="2.5" fill="red" stroke="black" stroke-width="0.5"></rect><rect x="-82.107" y="-112.348" width="2.5" height="2.5" fill="red" stroke="black" stroke-width="0.5"></rect>
<rect x="109.135" y="-74.2701" width="30" height="30" fill="yellow" stroke="black" stroke-width="0.5"><title>room 9</title></rect><rect x="113.885" y="-51.5201" width="2.5" height="2.5" fill="red" stroke="black" stroke-width="0.5"></rect><rect x="131.885" y="-66.6083" width="2.5" height="2.5" fill="red" stroke="black" stroke-width="0.5"></rect><rect x="131.885" y="-69.5201" width="2.5" height="2.5" fill="red" stroke="black" stroke-width="0.5"></rect><rect x="131.885" y="-51.5201" width="2.5" height="2.5" fill="red" stroke="black" stroke-width="0.5"></rect>
<rect x="-124.053" y="-104.972" width="20" height="20" fill="yellow" stroke="black" stroke-width="0.5"><title>room 10</title></rect><rect x="-109.303" y="-101.285" width="2.5" height="2.5" fill="red" stroke="black" stroke-width="0.5"></rect><rect x="-121.303" y="-102.222" width="2.5" height="2.5" fill="red" stroke="black" stroke-width="0.5"></rect>
<rect x="151.388" y="-78.4465" width="20" height="20" fill="yellow" stroke="black" stroke-width="0.5"><title>room 11</title></rect><rect x="154.138" y="-66.6083" width="2.5" height="2.5" fill="red" stroke="black" stroke-width="0.5"></rect><rect x="154.138" y="-75.6965" width="2.5" height="2.5" fill="red" stroke="black" stroke-width="0.5"></rect><rect x="166.138" y="-75.6965" width="2.5" height="2.5" fill="red" stroke="black" stroke-width="0.5"></rect><rect x="166.138" y="-69.6293" width="2.5" height="2.5" fill="red" stroke="black" stroke-width="0.5"></rect>
<rect x="64.3017" y="116.992" width="20" height="20" fill="yellow" stroke="black" stroke-width="0.5"><title>room 12</title></rect><rect x="67.0517" y="119.742" width="2.5" height="2.5" fill="red" stroke="black" stroke-width="0.5"></rect><rect x="79.0517" y="131.742" width="2.5" height="2.5" fill="red" stroke="black" stroke-width="0.5"></rect><rect x="79.0517" y="125.675" width="2.5" height="2.5" fill="red" stroke="black" stroke-width="0.5"></rect><rect x="79.0517" y="131.742" width="2.5" height="2.5" fill="red" stroke="black" stroke-width="0.5"></rect><rect x="77.1958" y="119.742" width="2.5" height="2.5" fill="red" stroke="black" stroke-width="0.5"></rect>
<rect x="-59.6387" y="-176.491" width="30" height="30" fill="yellow" stroke="black" stroke-width="0.5"><title>room 13</title></rect><rect x="-54.8887" y="-153.741" width="2.5" height="2.5" fill="red" stroke="black" stroke-width="0.5"></rect><rect x="-36.8887" y="-171.741" width="2.5" height="2.5" fill="red" stroke="black" stroke-width="0.5"></rect><rect x="-51.7018" y="-171.741" width="2.5" height="2.5" fill="red" stroke="black" stroke-width="0.5"></rect>
<rect x="-79.8234" y="39.8936" width="40" height="40" fill="yellow" stroke="black" stroke-width="0.5"><title>room 14</title></rect><rect x="-49.0734" y="53.9802" width="2.5" height="2.5" fill="red" stroke="black" stroke-width="0.5"></rect><rect x="-73.0734" y="70.6436" width="2.5" height="2.5" fill="red" stroke="black" stroke-width="0.5"></rect>
<rect x="-136.082" y="-147.243" width="30" height="30" fill="yellow" stroke="black" stroke-width="0.5"><title>room 15</title></rect><rect x="-113.332" y="-124.493" width="2.5" height="2.5" fill="red" stroke="black" stroke-width="0.5"></rect><rect x="-131.332" y="-124.493" width="2.5" height="2.5" fill="red" stroke="black" stroke-width="0.5"></rect><rect x="-131.332" y="-142.493" width="2.5" height="2.5" fill="red" stroke="black" stroke-width="0.5"></rect>
<rect x="144.649" y="-133.145" width="20" height="40" fill="yellow" stroke="black" stroke-width="0.5"><title>room 16</title></rect><rect x="147.399" y="-102.395" width="2.5" height="2.5" fill="red" stroke="black" stroke-width="0.5"></rect><rect x="159.399" y="-126.395" width="2.5" height="2.5" fill="red" stroke="black" stroke-width="0.5"></rect><rect x="147.399" y="-126.395" width="2.5" height="2.5" fill="red" stroke="black" stroke-width="0.5"></rect>
<rect x="-10.6015" y="96.5638" width="30" height="30" fill="yellow" stroke="black" stroke-width="0.5"><title>room 17</title></rect><rect x="8.26038" y="101.314" width="2.5" height="2.5" fill="red" stroke="black" stroke-width="0.5"></rect><rect x="12.1485" y="119.314" width="2.5" height="2.5" fill="red" stroke="black" stroke-width="0.5"></rect><rect x="0.764957" y="119.314" width="2.5" height="2.5" fill="red" stroke="black" stroke-width="0.5"></rect>
<rect x="-168.375" y="-135.232" width="20" height="20" fill="yellow" stroke="black" stroke-width="0.5"><title>room 18</title></rect><rect x="-153.625" y="-120.482" width="2.5" height="2.5" fill="red" stroke="black" stroke-width="0.5"></rect><rect x="-165.625" y="-132.482" width="2.5" height="2.5" fill="red" stroke="black" stroke-width="0.5"></rect>
<rect x="-24.4978" y="-219.903" width="20" height="20" fill="yellow" stroke="black" stroke-width="0.5"><title>room 19</title></rect><rect x="-21.7478" y="-205.153" width="2.5" height="2.5" fill="red" stroke="black" stroke-width="0.5"></rect><rect x="-9.74782" y="-217.153" width="2.5" height="2.5" fill="red" stroke="black" stroke-width="0.5"></rect><rect x="-9.74782" y="-205.153" width="2.5" height="2.5" fill="red" stroke="black" stroke-width="0.5"></rect><rect x="-21.7478" y="-217.153" width="2.5" height="2.5" fill="red" stroke="black" stroke-width="0.5"></rect>
<rect x="-114.542" y="13.4509" width="20" height="40" fill="yellow" stroke="black" stroke-width="0.5"><title>room 20</title></rect><rect x="-99.7919" y="20.2009" width="2.5" height="2.5" fill="red" stroke="black" stroke-width="0.5"></rect><rect x="-111.792" y="40.0872" width="2.5" height="2.5" fill="red" stroke="black" stroke-width="0.5"></rect>
<rect x="-126.398" y="-72.6349" width="30" height="30" fill="yellow" stroke="black" stroke-width="0.5"><title>room 21</title></rect><rect x="-103.648" y="-67.8849" width="2.5" height="2.5" fill="red" stroke="black" stroke-width="0.5"></rect><rect x="-121.648" y="-49.8849" width="2.5" height="2.5" fill="red" stroke="black" stroke-width="0.5"></rect><rect x="-121.648" y="-59.1128" width="2.5" height="2.5" fill="red" stroke="black" stroke-width="0.5"></rect>
<rect x="-91.6622" y="-24.9106" width="20" height="20" fill="yellow" stroke="black" stroke-width="0.5"><title>room 22</title></rect><rect x="-76.9122" y="-22.1606" width="2.5" height="2.5" fill="red" stroke="black" stroke-width="0.5"></rect>
<rect x="-206.452" y="-164.973" width="40" height="20" fill="yellow" stroke="black" stroke-width="0.5"><title>room 23</title></rect><rect x="-175.702" y="-150.223" width="2.5" height="2.5" fill="red" stroke="black" stroke-width="0.5"></rect><rect x="-199.702" y="-162.223" width="2.5" height="2.5" fill="red" stroke="black" stroke-width="0.5"></rect>
<rect x="20.8962" y="-37.3085" width="30" height="30" fill="yellow" stroke="black" stroke-width="0.5"><title>room 24</title></rect><rect x="28.3669" y="-14.5585" width="2.5" height="2.5" fill="red" stroke="black" stroke-width="0.5"></rect>
<rect x="-70.5942" y="126.913" width="30" height="30" fill="yellow" stroke="black" stroke-width="0.5"><title>room 25</title></rect><rect x="-49.0837" y="131.663" width="2.5" height="2.5" fill="red" stroke="black" stroke-width="0.5"></rect><rect x="-65.8442" y="145.157" width="2.5" height="2.5" fill="red" stroke="black" stroke-width="0.5"></rect><rect x="-65.8442" y="149.663" width="2.5" height="2.5" fill="red" stroke="black" stroke-width="0.5"></rect>
<rect x="93.7015" y="176.529" width="20" height="20" fill="yellow" stroke="black" stroke-width="0.5"><title>room 26</title></rect><rect x="96.4515" y="179.279" width="2.5" height="2.5" fill="red" stroke="black" stroke-width="0.5"></rect><rect x="108.452" y="181.812" width="2.5" height="2.5" fill="red" stroke="black" stroke-width="0.5"></rect><rect x="108.452" y="191.279" width="2.5" height="2.5" fill="red" stroke="black" stroke-width="0.5"></rect><rect x="104.387" y="191.279" width="2.5" height="2.5" fill="red" stroke="black" stroke-width="0.5"></rect><rect x="96.4515" y="179.279" width="2.5" height="2.5" fill="red" stroke="black" stroke-width="0.5"></rect><rect x="96.4515" y="191.279" width="2.5" height="2.5" fill="red" stroke="black" stroke-width="0.5"></rect>
<rect x="-19.5075" y="-99.172" width="20" height="20" fill="yellow" stroke="black" stroke-width="0.5"><title>room 27</title></rect><rect x="-16.7575" y="-84.422" width="2.5" height="2.5" fill="red" stroke="black" stroke-width="0.5"></rect><rect x="-16.7575" y="-96.422" width="2.5" height="2.5" fill="red" stroke="black" stroke-width="0.5"></rect>
<rect x="123.752" y="169.595" width="20" height="20" fill="yellow" stroke="black" stroke-width="0.5"><title>room 28</title></rect><rect x="126.502" y="181.812" width="2.5" height="2.5" fill="red" stroke="black" stroke-width="0.5"></rect><rect x="138.502" y="178.417" width="2.5" height="2.5" fill="red" stroke="black" stroke-width="0.5"></rect>
<rect x="-127.703" y="139.239" width="40" height="20" fill="yellow" stroke="black" stroke-width="0.5"><title>room 29</title></rect><rect x="-96.9528" y="145.157" width="2.5" height="2.5" fill="red" stroke="black" stroke-width="0.5"></rect>
<rect x="174.477" y="-141.812" width="20" height="20" fill="yellow" stroke="black" stroke-width="0.5"><title>room 30</title></rect><rect x="177.227" y="-127.062" width="2.5" height="2.5" fill="red" stroke="black" stroke-width="0.5"></rect><rect x="189.227" y="-139.062" width="2.5" height="2.5" fill="red" stroke="black" stroke-width="0.5"></rect>
<rect x="-82.8928" y="94.6492" width="20" height="20" fill="yellow" stroke="black" stroke-width="0.5"><title>room 31</title></rect><rect x="-68.1428" y="103.356" width="2.5" height="2.5" fill="red" stroke="black" stroke-width="0.5"></rect>
<rect x="-156.87" y="31.2235" width="30" height="30" fill="yellow" stroke="black" stroke-width="0.5"><title>room 32</title></rect><rect x="-134.12" y="40.0872" width="2.5" height="2.5" fill="red" stroke="black" stroke-width="0.5"></rect><rect x="-152.12" y="53.9735" width="2.5" height="2.5" fill="red" stroke="black" stroke-width="0.5"></rect>
<rect x="-79.2648" y="-208.804" width="40" height="20" fill="yellow" stroke="black" stroke-width="0.5"><title>room 33</title></rect><rect x="-51.7018" y="-194.054" width="2.5" height="2.5" fill="red" stroke="black" stroke-width="0.5"></rect>
<rect x="5.51645" y="-253.262" width="20" height="20" fill="yellow" stroke="black" stroke-width="0.5"><title>room 34</title></rect><rect x="8.26645" y="-238.512" width="2.5" height="2.5" fill="red" stroke="black" stroke-width="0.5"></rect><rect x="8.26645" y="-244.633" width="2.5" height="2.5" fill="red" stroke="black" stroke-width="0.5"></rect><rect x="20.2665" y="-238.512" width="2.5" height="2.5" fill="red" stroke="black" stroke-width="0.5"></rect><rect x="20.2665" y="-250.512" width="2.5" height="2.5" fill="red" stroke="black" stroke-width="0.5"></rect><rect x="8.98677" y="-250.512" width="2.5" height="2.5" fill="red" stroke="black" stroke-width="0.5"></rect>
<rect x="114.833" y="-106.594" width="20" height="20" fill="yellow" stroke="black" stroke-width="0.5"><title>room 35</title></rect><rect x="129.583" y="-91.844" width="2.5" height="2.5" fill="red" stroke="black" stroke-width="0.5"></rect>
<rect x="-139.042" y="73.4409" width="40" height="20" fill="yellow" stroke="black" stroke-width="0.5"><title>room 36</title></rect><rect x="-108.292" y="88.1909" width="2.5" height="2.5" fill="red" stroke="black" stroke-width="0.5"></rect>
<rect x="98.0185" y="-27.0736" width="40" height="40" fill="yellow" stroke="black" stroke-width="0.5"><title>room 37</title></rect><rect x="104.768" y="-18.793" width="2.5" height="2.5" fill="red" stroke="black" stroke-width="0.5"></rect>
<rect x="-178.83" y="-105.366" width="40" height="20" fill="yellow" stroke="black" stroke-width="0.5"><title>room 38</title></rect><rect x="-148.08" y="-102.616" width="2.5" height="2.5" fill="red" stroke="black" stroke-width="0.5"></rect>
<rect x="-177.291" y="73.305" width="20" height="20" fill="yellow" stroke="black" stroke-width="0.5"><title>room 39</title></rect><rect x="-162.541" y="76.055" width="2.5" height="2.5" fill="red" stroke="black" stroke-width="0.5"></rect><rect x="-174.541" y="88.055" width="2.5" height="2.5" fill="red" stroke="black" stroke-width="0.5"></rect><rect x="-174.541" y="76.055" width="2.5" height="2.5" fill="red" stroke="black" stroke-width="0.5"></rect><rect x="-166.143" y="88.055" width="2.5" height="2.5" fill="red" stroke="black" stroke-width="0.5"></rect>
<rect x="139.761" y="204.471" width="40" height="40" fill="yellow" stroke="black" stroke-width="0.5"><title>room 40</title></rect><rect x="146.511" y="211.221" width="2.5" height="2.5" fill="red" stroke="black" stroke-width="0.5"></rect><rect x="170.511" y="235.221" width="2.5" height="2.5" fill="red" stroke="black" stroke-width="0.5"></rect>
<rect x="-24.3334" y="-253.504" width="20" height="20" fill="yellow" stroke="black" stroke-width="0.5"><title>room 41</title></rect><rect x="-9.58344" y="-244.633" width="2.5" height="2.5" fill="red" stroke="black" stroke-width="0.5"></rect><rect x="-21.5834" y="-250.754" width="2.5" height="2.5" fill="red" stroke="black" stroke-width="0.5"></rect>
<rect x="92.6261" y="208.834" width="30" height="30" fill="yellow" stroke="black" stroke-width="0.5"><title>room 42</title></rect><rect x="104.387" y="213.584" width="2.5" height="2.5" fill="red" stroke="black" stroke-width="0.5"></rect><rect x="97.3761" y="231.584" width="2.5" height="2.5" fill="red" stroke="black" stroke-width="0.5"></rect>
<rect x="-51.8694" y="-295.81" width="30" height="30" fill="yellow" stroke="black" stroke-width="0.5"><title>room 43</title></rect><rect x="-29.1194" y="-273.06" width="2.5" height="2.5" fill="red" stroke="black" stroke-width="0.5"></rect>
<rect x="31.5421" y="124.057" width="20" height="20" fill="yellow" stroke="black" stroke-width="0.5"><title>room 44</title></rect><rect x="34.2921" y="126.807" width="2.5" height="2.5" fill="red" stroke="black" stroke-width="0.5"></rect><rect x="41.3295" y="126.807" width="2.5" height="2.5" fill="red" stroke="black" stroke-width="0.5"></rect>
<rect x="-23.3686" y="143.709" width="40" height="40" fill="yellow" stroke="black" stroke-width="0.5"><title>room 45</title></rect><rect x="0.764955" y="150.459" width="2.5" height="2.5" fill="red" stroke="black" stroke-width="0.5"></rect>
<rect x="199.206" y="229.802" width="40" height="40" fill="yellow" stroke="black" stroke-width="0.5"><title>room 46</title></rect><rect x="205.956" y="236.552" width="2.5" height="2.5" fill="red" stroke="black" stroke-width="0.5"></rect><rect x="229.956" y="260.552" width="2.5" height="2.5" fill="red" stroke="black" stroke-width="0.5"></rect>
<rect x="33.6169" y="94.2087" width="20" height="20" fill="yellow" stroke="black" stroke-width="0.5"><title>room 47</title></rect><rect x="41.3295" y="108.959" width="2.5" height="2.5" fill="red" stroke="black" stroke-width="0.5"></rect>
<rect x="39.1502" y="157.889" width="40" height="20" fill="yellow" stroke="black" stroke-width="0.5"><title>room 48</title></rect><rect x="69.9002" y="172.639" width="2.5" height="2.5" fill="red" stroke="black" stroke-width="0.5"></rect>
<rect x="-169.085" y="-25.9503" width="40" height="40" fill="yellow" stroke="black" stroke-width="0.5"><title>room 49</title></rect><rect x="-138.335" y="-19.2003" width="2.5" height="2.5" fill="red" stroke="black" stroke-width="0.5"></rect><rect x="-162.335" y="-19.2003" width="2.5" height="2.5" fill="red" stroke="black" stroke-width="0.5"></rect>
<rect x="-171.134" y="-73.0906" width="30" height="30" fill="yellow" stroke="black" stroke-width="0.5"><title>room 50</title></rect><rect x="-148.384" y="-59.1128" width="2.5" height="2.5" fill="red" stroke="black" stroke-width="0.5"></rect>
<rect x="35.3074" y="-236.478" width="20" height="20" fill="yellow" stroke="black" stroke-width="0.5"><title>room 51</title></rect><rect x="38.0574" y="-233.728" width="2.5" height="2.5" fill="red" stroke="black" stroke-width="0.5"></rect>
<rect x="27.4324" y="-89.8617" width="30" height="30" fill="yellow" stroke="black" stroke-width="0.5"><title>room 52</title></rect><rect x="32.1824" y="-67.1117" width="2.5" height="2.5" fill="red" stroke="black" stroke-width="0.5"></rect><rect x="50.1824" y="-85.1117" width="2.5" height="2.5" fill="red" stroke="black" stroke-width="0.5"></rect>
<rect x="71.742" y="27.6038" width="40" height="20" fill="yellow" stroke="black" stroke-width="0.5"><title>room 53</title></rect><rect x="78.492" y="30.3538" width="2.5" height="2.5" fill="red" stroke="black" stroke-width="0.5"></rect>
<rect x="94.1669" y="116.859" width="20" height="20" fill="yellow" stroke="black" stroke-width="0.5"><title>room 54</title></rect><rect x="96.9169" y="125.675" width="2.5" height="2.5" fill="red" stroke="black" stroke-width="0.5"></rect><rect x="108.917" y="119.609" width="2.5" height="2.5" fill="red" stroke="black" stroke-width="0.5"></rect>
<rect x="-216.156" y="-42.2915" width="30" height="30" fill="yellow" stroke="black" stroke-width="0.5"><title>room 55</title></rect><rect x="-193.406" y="-19.5415" width="2.5" height="2.5" fill="red" stroke="black" stroke-width="0.5"></rect><rect x="-211.406" y="-19.5415" width="2.5" height="2.5" fill="red" stroke="black" stroke-width="0.5"></rect>
<rect x="174.516" y="-108.179" width="20" height="20" fill="yellow" stroke="black" stroke-width="0.5"><title>room 56</title></rect><rect x="177.266" y="-93.4286" width="2.5" height="2.5" fill="red" stroke="black" stroke-width="0.5"></rect>
<rect x="102.401" y="-149.578" width="30" height="30" fill="yellow" stroke="black" stroke-width="0.5"><title>room 57</title></rect><rect x="125.151" y="-126.828" width="2.5" height="2.5" fill="red" stroke="black" stroke-width="0.5"></rect>
<rect x="223.766" y="284.465" width="40" height="20" fill="yellow" stroke="black" stroke-width="0.5"><title>room 58</title></rect><rect x="230.516" y="287.215" width="2.5" height="2.5" fill="red" stroke="black" stroke-width="0.5"></rect><rect x="254.516" y="299.215" width="2.5" height="2.5" fill="red" stroke="black" stroke-width="0.5"></rect>
<rect x="-151.717" y="-179.428" width="20" height="20" fill="yellow" stroke="black" stroke-width="0.5"><title>room 59</title></rect><rect x="-136.967" y="-164.678" width="2.5" height="2.5" fill="red" stroke="black" stroke-width="0.5"></rect>
<rect x="-12.3946" y="-190.101" width="40" height="20" fill="yellow" stroke="black" stroke-width="0.5"><title>room 60</title></rect><rect x="-5.64461" y="-187.351" width="2.5" height="2.5" fill="red" stroke="black" stroke-width="0.5"></rect><rect x="11.6628" y="-187.351" width="2.5" height="2.5" fill="red" stroke="black" stroke-width="0.5"></rect>
<rect x="-36.531" y="-24.7546" width="40" height="20" fill="yellow" stroke="black" stroke-width="0.5"><title>room 61</title></rect><rect x="-5.78098" y="-10.0046" width="2.5" height="2.5" fill="red" stroke="black" stroke-width="0.5"></rect>
<rect x="35.5138" y="192.72" width="40" height="40" fill="yellow" stroke="black" stroke-width="0.5"><title>room 62</title></rect><rect x="66.2638" y="199.47" width="2.5" height="2.5" fill="red" stroke="black" stroke-width="0.5"></rect><rect x="42.2638" y="223.47" width="2.5" height="2.5" fill="red" stroke="black" stroke-width="0.5"></rect>
<rect x="37.7424" y="-278.851" width="30" height="30" fill="yellow" stroke="black" stroke-width="0.5"><title>room 63</title></rect><rect x="42.4924" y="-256.101" width="2.5" height="2.5" fill="red" stroke="black" stroke-width="0.5"></rect>
<rect x="158.56" y="169.739" width="40" height="20" fill="yellow" stroke="black" stroke-width="0.5"><title>room 64</title></rect><rect x="165.31" y="178.417" width="2.5" height="2.5" fill="red" stroke="black" stroke-width="0.5"></rect><rect x="189.31" y="172.489" width="2.5" height="2.5" fill="red" stroke="black" stroke-width="0.5"></rect>
<rect x="186.944" y="-171.638" width="20" height="20" fill="yellow" stroke="black" stroke-width="0.5"><title>room 65</title></rect><rect x="189.694" y="-156.888" width="2.5" height="2.5" fill="red" stroke="black" stroke-width="0.5"></rect>
<rect x="128.205" y="70.4397" width="40" height="40" fill="yellow" stroke="black" stroke-width="0.5"><title>room 66</title></rect><rect x="134.955" y="101.19" width="2.5" height="2.5" fill="red" stroke="black" stroke-width="0.5"></rect><rect x="158.955" y="101.19" width="2.5" height="2.5" fill="red" stroke="black" stroke-width="0.5"></rect>
<rect x="82.4462" y="255.902" width="20" height="40" fill="yellow" stroke="black" stroke-width="0.5"><title>room 67</title></rect><rect x="97.1962" y="262.652" width="2.5" height="2.5" fill="red" stroke="black" stroke-width="0.5"></rect><rect x="97.1962" y="286.652" width="2.5" height="2.5" fill="red" stroke="black" stroke-width="0.5"></rect>
<rect x="181.254" y="-78.3122" width="20" height="20" fill="yellow" stroke="black" stroke-width="0.5"><title>room 68</title></rect><rect x="184.004" y="-69.6293" width="2.5" height="2.5" fill="red" stroke="black" stroke-width="0.5"></rect>
<rect x="117.106" y="280.546" width="40" height="40" fill="yellow" stroke="black" stroke-width="0.5"><title>room 69</title></rect><rect x="123.856" y="287.296" width="2.5" height="2.5" fill="red" stroke="black" stroke-width="0.5"></rect>
<rect x="-49.3145" y="-127.451" width="20" height="40" fill="yellow" stroke="black" stroke-width="0.5"><title>room 70</title></rect><rect x="-34.5645" y="-96.7011" width="2.5" height="2.5" fill="red" stroke="black" stroke-width="0.5"></rect>
<rect x="201.363" y="127.805" width="30" height="30" fill="yellow" stroke="black" stroke-width="0.5"><title>room 71</title></rect><rect x="206.113" y="150.555" width="2.5" height="2.5" fill="red" stroke="black" stroke-width="0.5"></rect><rect x="224.113" y="132.555" width="2.5" height="2.5" fill="red" stroke="black" stroke-width="0.5"></rect>
<rect x="11.1012" y="252.176" width="40" height="40" fill="yellow" stroke="black" stroke-width="0.5"><title>room 72</title></rect><rect x="41.8512" y="258.926" width="2.5" height="2.5" fill="red" stroke="black" stroke-width="0.5"></rect>
<rect x="156.573" y="127.403" width="30" height="30" fill="yellow" stroke="black" stroke-width="0.5"><title>room 73</title></rect><rect x="161.323" y="132.153" width="2.5" height="2.5" fill="red" stroke="black" stroke-width="0.5"></rect><rect x="179.323" y="132.153" width="2.5" height="2.5" fill="red" stroke="black" stroke-width="0.5"></rect>
<rect x="247.466" y="72.873" width="40" height="40" fill="yellow" stroke="black" stroke-width="0.5"><title>room 74</title></rect><rect x="254.216" y="103.623" width="2.5" height="2.5" fill="red" stroke="black" stroke-width="0.5"></rect>
<rect x="-231.766" y="93.4524" width="40" height="40" fill="yellow" stroke="black" stroke-width="0.5"><title>room 75</title></rect><rect x="-201.016" y="100.202" width="2.5" height="2.5" fill="red" stroke="black" stroke-width="0.5"></rect><rect x="-225.016" y="124.202" width="2.5" height="2.5" fill="red" stroke="black" stroke-width="0.5"></rect>
<rect x="5.42897" y="-219.961" width="20" height="20" fill="yellow" stroke="black" stroke-width="0.5"><title>room 76</title></rect><rect x="11.6628" y="-205.211" width="2.5" height="2.5" fill="red" stroke="black" stroke-width="0.5"></rect>
<rect x="-92.0353" y="-174.243" width="20" height="40" fill="yellow" stroke="black" stroke-width="0.5"><title>room 77</title></rect><rect x="-82.107" y="-143.493" width="2.5" height="2.5" fill="red" stroke="black" stroke-width="0.5"></rect><rect x="-89.2853" y="-166.118" width="2.5" height="2.5" fill="red" stroke="black" stroke-width="0.5"></rect><rect x="-89.2853" y="-167.493" width="2.5" height="2.5" fill="red" stroke="black" stroke-width="0.5"></rect>
<rect x="157.557" y="-43.5555" width="40" height="40" fill="yellow" stroke="black" stroke-width="0.5"><title>room 78</title></rect><rect x="164.307" y="-36.8055" width="2.5" height="2.5" fill="red" stroke="black" stroke-width="0.5"></rect>
<rect x="-112.723" y="103.235" width="20" height="20" fill="yellow" stroke="black" stroke-width="0.5"><title>room 79</title></rect><rect x="-97.9734" y="105.985" width="2.5" height="2.5" fill="red" stroke="black" stroke-width="0.5"></rect>
<rect x="-291.211" y="118.036" width="40" height="40" fill="yellow" stroke="black" stroke-width="0.5"><title>room 80</title></rect><rect x="-260.461" y="124.786" width="2.5" height="2.5" fill="red" stroke="black" stroke-width="0.5"></rect>
<rect x="-121.842" y="-179.494" width="20" height="20" fill="yellow" stroke="black" stroke-width="0.5"><title>room 81</title></rect><rect x="-107.092" y="-166.118" width="2.5" height="2.5" fill="red" stroke="black" stroke-width="0.5"></rect>
<rect x="93.9274" y="146.679" width="20" height="20" fill="yellow" stroke="black" stroke-width="0.5"><title>room 82</title></rect><rect x="96.6774" y="149.429" width="2.5" height="2.5" fill="red" stroke="black" stroke-width="0.5"></rect><rect x="108.677" y="151.904" width="2.5" height="2.5" fill="red" stroke="black" stroke-width="0.5"></rect>
<rect x="-7.04291" y="-295.668" width="30" height="30" fill="yellow" stroke="black" stroke-width="0.5"><title>room 83</title></rect><rect x="8.98677" y="-272.918" width="2.5" height="2.5" fill="red" stroke="black" stroke-width="0.5"></rect><rect x="15.7071" y="-290.918" width="2.5" height="2.5" fill="red" stroke="black" stroke-width="0.5"></rect>
<rect x="-231.737" y="33.7483" width="40" height="40" fill="yellow" stroke="black" stroke-width="0.5"><title>room 84</title></rect><rect x="-200.987" y="64.4983" width="2.5" height="2.5" fill="red" stroke="black" stroke-width="0.5"></rect>
<rect x="187.871" y="70.6745" width="40" height="40" fill="yellow" stroke="black" stroke-width="0.5"><title>room 85</title></rect><rect x="194.621" y="101.424" width="2.5" height="2.5" fill="red" stroke="black" stroke-width="0.5"></rect><rect x="218.621" y="101.424" width="2.5" height="2.5" fill="red" stroke="black" stroke-width="0.5"></rect>
<rect x="47.761" y="-122.112" width="20" height="20" fill="yellow" stroke="black" stroke-width="0.5"><title>room 86</title></rect><rect x="50.511" y="-107.362" width="2.5" height="2.5" fill="red" stroke="black" stroke-width="0.5"></rect>
<rect x="248.136" y="319.128" width="40" height="40" fill="yellow" stroke="black" stroke-width="0.5"><title>room 87</title></rect><rect x="254.886" y="325.878" width="2.5" height="2.5" fill="red" stroke="black" stroke-width="0.5"></rect>
<rect x="-241.115" y="-193.394" width="20" height="40" fill="yellow" stroke="black" stroke-width="0.5"><title>room 88</title></rect><rect x="-226.365" y="-162.644" width="2.5" height="2.5" fill="red" stroke="black" stroke-width="0.5"></rect>
<rect x="-273.226" y="-26.1428" width="40" height="40" fill="yellow" stroke="black" stroke-width="0.5"><title>room 89</title></rect><rect x="-242.476" y="-19.3928" width="2.5" height="2.5" fill="red" stroke="black" stroke-width="0.5"></rect><rect x="-266.476" y="4.60723" width="2.5" height="2.5" fill="red" stroke="black" stroke-width="0.5"></rect>
<rect x="123.818" y="139.629" width="20" height="20" fill="yellow" stroke="black" stroke-width="0.5"><title>room 90</title></rect><rect x="126.568" y="151.904" width="2.5" height="2.5" fill="red" stroke="black" stroke-width="0.5"></rect>
<rect x="-96.908" y="169.167" width="40" height="20" fill="yellow" stroke="black" stroke-width="0.5"><title>room 91</title></rect><rect x="-66.158" y="171.917" width="2.5" height="2.5" fill="red" stroke="black" stroke-width="0.5"></rect>
<rect x="243.648" y="127.561" width="20" height="20" fill="yellow" stroke="black" stroke-width="0.5"><title>room 92</title></rect><rect x="246.398" y="130.311" width="2.5" height="2.5" fill="red" stroke="black" stroke-width="0.5"></rect>
<rect x="9.13059" y="-327.921" width="40" height="20" fill="yellow" stroke="black" stroke-width="0.5"><title>room 93</title></rect><rect x="15.8806" y="-313.171" width="2.5" height="2.5" fill="red" stroke="black" stroke-width="0.5"></rect>
<rect x="68.5898" y="62.2699" width="40" height="40" fill="yellow" stroke="black" stroke-width="0.5"><title>room 94</title></rect><rect x="77.1958" y="93.0199" width="2.5" height="2.5" fill="red" stroke="black" stroke-width="0.5"></rect>
<rect x="-66.6559" y="-251.084" width="30" height="30" fill="yellow" stroke="black" stroke-width="0.5"><title>room 95</title></rect><rect x="-43.9059" y="-228.334" width="2.5" height="2.5" fill="red" stroke="black" stroke-width="0.5"></rect>
<rect x="-114.04" y="-234.172" width="20" height="40" fill="yellow" stroke="black" stroke-width="0.5"><title>room 96</title></rect><rect x="-99.2896" y="-203.422" width="2.5" height="2.5" fill="red" stroke="black" stroke-width="0.5"></rect>
<rect x="-174.495" y="105.608" width="30" height="30" fill="yellow" stroke="black" stroke-width="0.5"><title>room 97</title></rect><rect x="-166.143" y="110.358" width="2.5" height="2.5" fill="red" stroke="black" stroke-width="0.5"></rect>
<rect x="-282.309" y="28.511" width="20" height="20" fill="yellow" stroke="black" stroke-width="0.5"><title>room 98</title></rect><rect x="-267.559" y="31.261" width="2.5" height="2.5" fill="red" stroke="black" stroke-width="0.5"></rect><rect x="-279.559" y="31.261" width="2.5" height="2.5" fill="red" stroke="black" stroke-width="0.5"></rect>
<rect x="-312.139" y="0.465685" width="20" height="40" fill="yellow" stroke="black" stroke-width="0.5"><title>room 99</title></rect><rect x="-297.389" y="31.2157" width="2.5" height="2.5" fill="red" stroke="black" stroke-width="0.5"></rect>
<line x1="-3.662426691720464" y1="26.56681486619049" x2="-23.110761364623755" y2="-43.00259524181277" stroke-width="0.5" stroke="blue" />
<line x1="32.33757330827954" y1="26.56681486619049" x2="67.33378995911184" y2="-16.012392531120906" stroke-width="0.5" stroke="blue" />
<line x1="32.33757330827954" y1="26.56681486619049" x2="67.3446200172567" y2="13.847025314554326" stroke-width="0.5" stroke="blue" />
<line x1="-3.662426691720464" y1="26.56681486619049" x2="-47.83148411367999" y2="21.067672214654955" stroke-width="0.5" stroke="blue" />
<line x1="-3.662426691720464" y1="62.56681486619049" x2="-37.07318929484802" y2="98.56239795855522" stroke-width="0.5" stroke="blue" />
<line x1="32.33757330827954" y1="62.56681486619049" x2="68.30170962333752" y2="120.9915386747287" stroke-width="0.5" stroke="blue" />
<line x1="-3.662426691720464" y1="55.230232384094855" x2="-47.823432177896365" y2="55.230231295331095" stroke-width="0.5" stroke="blue" />
<line x1="9.510370625826667" y1="62.56681486619049" x2="9.510375941862149" y2="102.56383399690098" stroke-width="0.5" stroke="blue" />
<line x1="29.61686391223202" y1="26.56681486619049" x2="29.61686664280159" y2="-13.308487086202472" stroke-width="0.5" stroke="blue" />
<line x1="-3.662426691720464" y1="26.56681486619049" x2="-4.530975502218553" y2="-8.754631216832578" stroke-width="0.5" stroke="blue" />
<line x1="-41.110761364623755" y1="-46.87034229212238" x2="-63.40521485593102" y2="-46.870344254279615" stroke-width="0.5" stroke="blue" />
<line x1="-23.110761364623755" y1="-57.149655420547234" x2="-0.8163786388542515" y2="-57.14964735268333" stroke-width="0.5" stroke="blue" />
<line x1="-41.110761364623755" y1="-61.00259524181277" x2="-67.67871990328103" y2="-93.09760395503184" stroke-width="0.5" stroke="blue" />
<line x1="-23.110761364623755" y1="-61.00259524181277" x2="-15.507508931542311" y2="-83.17201570231428" stroke-width="0.5" stroke="blue" />
<line x1="79.33378995911184" y1="-28.012392531120906" x2="115.13547241596574" y2="-50.27014779118708" stroke-width="0.5" stroke="blue" />
<line x1="79.33378995911184" y1="-17.542985705455017" x2="106.0184683020545" y2="-17.542985964207" stroke-width="0.5" stroke="blue" />
<line x1="-75.40521485593102" y1="-38.73809130458974" x2="-75.66222620892157" y2="-20.910624992253773" stroke-width="0.5" stroke="blue" />
<line x1="79.3446200172567" y1="13.847025314554326" x2="79.74196985298285" y2="31.60375720962837" stroke-width="0.5" stroke="blue" />
<line x1="-71.83148411367999" y1="21.067672214654955" x2="-98.5419266466672" y2="21.45092367035577" stroke-width="0.5" stroke="blue" />
<line x1="-47.833690873666086" y1="110.56239795855522" x2="-47.83368363735123" y2="132.91268368525226" stroke-width="0.5" stroke="blue" />
<line x1="-49.07318929484802" y1="104.60581090928693" x2="-66.89276838358028" y2="104.60580351862689" stroke-width="0.5" stroke="blue" />
<line x1="-49.07318929484802" y1="98.56239795855522" x2="-107.04236394043927" y2="89.44093104642486" stroke-width="0.5" stroke="blue" />
<line x1="11.183621361145748" y1="-65.29670753141798" x2="33.432358806211234" y2="-65.86165830787424" stroke-width="0.5" stroke="blue" />
<line x1="-85.67871990328103" y1="-100.0348472981033" x2="-108.05303621338719" y2="-100.03484363661455" stroke-width="0.5" stroke="blue" />
<line x1="-67.67871990328103" y1="-111.09760395503184" x2="-53.63868839096393" y2="-152.49132681625196" stroke-width="0.5" stroke="blue" />
<line x1="-85.67871990328103" y1="-111.09760395503184" x2="-112.08172108108121" y2="-123.24319344378011" stroke-width="0.5" stroke="blue" />
<line x1="-85.67871990328103" y1="-93.09760395503184" x2="-102.39837708142717" y2="-66.63492934128112" stroke-width="0.5" stroke="blue" />
<line x1="-80.85702404877573" y1="-111.09760395503184" x2="-80.85702364786837" y2="-142.24261067204156" stroke-width="0.5" stroke="blue" />
<line x1="133.13547241596575" y1="-65.35830294017917" x2="155.3877600553655" y2="-65.35829833195535" stroke-width="0.5" stroke="blue" />
<line x1="133.13547241596575" y1="-68.27014779118707" x2="148.64913786067197" y2="-101.14490613012768" stroke-width="0.5" stroke="blue" />
<line x1="133.13547241596575" y1="-50.27014779118708" x2="165.55708414900786" y2="-35.555479811541446" stroke-width="0.5" stroke="blue" />
<line x1="-120.05303621338719" y1="-100.97208697968713" x2="-152.37527455980552" y2="-119.23237311357352" stroke-width="0.5" stroke="blue" />
<line x1="155.3877600553655" y1="-74.4464534809482" x2="130.8326542593279" y2="-90.59403519107398" stroke-width="0.5" stroke="blue" />
<line x1="167.3877600553655" y1="-74.4464534809482" x2="178.51581739145425" y2="-92.17856186648662" stroke-width="0.5" stroke="blue" />
<line x1="167.3877600553655" y1="-68.37932527891952" x2="185.25362129133055" y2="-68.37932263562895" stroke-width="0.5" stroke="blue" />
<line x1="80.30170962333752" y1="132.9915386747287" x2="97.70154947971211" y2="180.52934793512244" stroke-width="0.5" stroke="blue" />
<line x1="80.30170962333752" y1="126.92510262286564" x2="98.16692433588038" y2="126.9250941797523" stroke-width="0.5" stroke="blue" />
<line x1="80.30170962333752" y1="132.9915386747287" x2="97.92742335841088" y2="150.67892656853306" stroke-width="0.5" stroke="blue" />
<line x1="78.44575290746249" y1="120.9915386747287" x2="78.44575099598285" y2="94.26987516528222" stroke-width="0.5" stroke="blue" />
<line x1="-35.63868839096393" y1="-170.49132681625196" x2="-20.49782008964776" y2="-203.90302347736957" stroke-width="0.5" stroke="blue" />
<line x1="-50.45176018105228" y1="-170.49132681625196" x2="-50.45177463900509" y2="-192.80360091961563" stroke-width="0.5" stroke="blue" />
<line x1="-71.82343217789636" y1="71.89364881323706" x2="-96.72338088548157" y2="107.23507148551545" stroke-width="0.5" stroke="blue" />
<line x1="-130.0817210810812" y1="-123.24319344378011" x2="-146.83032116909231" y2="-101.36592582161714" stroke-width="0.5" stroke="blue" />
<line x1="-130.0817210810812" y1="-141.24319344378011" x2="-135.71729386962855" y2="-163.42752255662458" stroke-width="0.5" stroke="blue" />
<line x1="160.64913786067197" y1="-125.14490613012768" x2="178.47749479556185" y2="-125.81158782817499" stroke-width="0.5" stroke="blue" />
<line x1="148.64913786067197" y1="-125.14490613012768" x2="126.4006660009372" y2="-125.57774666122464" stroke-width="0.5" stroke="blue" />
<line x1="13.398545797449817" y1="120.56383399690098" x2="35.54208590325963" y2="128.05671626231396" stroke-width="0.5" stroke="blue" />
<line x1="2.014957135452886" y1="120.56383399690098" x2="2.0149552845536647" y2="151.7092854384596" stroke-width="0.5" stroke="blue" />
<line x1="-164.37527455980552" y1="-131.23237311357352" x2="-174.45245123784176" y2="-148.9734773762463" stroke-width="0.5" stroke="blue" />
<line x1="-8.497820089647758" y1="-215.90302347736957" x2="9.516450210665854" y2="-237.262332285489" stroke-width="0.5" stroke="blue" />
<line x1="-8.497820089647758" y1="-203.90302347736957" x2="-4.39460718794535" y2="-186.10147868113089" stroke-width="0.5" stroke="blue" />
<line x1="-20.49782008964776" y1="-215.90302347736957" x2="-42.65585298192145" y2="-227.08350051122477" stroke-width="0.5" stroke="blue" />
<line x1="-110.5419266466672" y1="41.33721213062948" x2="-132.87025116816847" y2="41.337199395715025" stroke-width="0.5" stroke="blue" />
<line x1="-120.39837708142717" y1="-48.63492934128113" x2="-137.08506534405902" y2="-17.950307593426132" stroke-width="0.5" stroke="blue" />
<line x1="-120.39837708142717" y1="-57.86277545019262" x2="-147.1341326757432" y2="-57.86278711643725" stroke-width="0.5" stroke="blue" />
<line x1="-198.45245123784176" y1="-160.9734773762463" x2="-225.11481724575546" y2="-161.39374326612102" stroke-width="0.5" stroke="blue" />
<line x1="-64.59418521616904" y1="146.40704490029503" x2="-95.70281691317827" y2="146.40704610669167" stroke-width="0.5" stroke="blue" />
<line x1="-64.59418521616904" y1="150.91268368525226" x2="-64.90803473306414" y2="173.16719705248454" stroke-width="0.5" stroke="blue" />
<line x1="109.70154947971211" y1="183.06236943485837" x2="127.75217456216265" y2="183.06237622358506" stroke-width="0.5" stroke="blue" />
<line x1="109.70154947971211" y1="192.52934793512244" x2="147.76058760065987" y2="212.47055888023908" stroke-width="0.5" stroke="blue" />
<line x1="105.63699487525211" y1="192.52934793512244" x2="105.63699302905903" y2="214.83423416050914" stroke-width="0.5" stroke="blue" />
<line x1="97.70154947971211" y1="180.52934793512244" x2="71.15017959533346" y2="173.88873881405246" stroke-width="0.5" stroke="blue" />
<line x1="97.70154947971211" y1="192.52934793512244" x2="67.51382068169148" y2="200.7203460666546" stroke-width="0.5" stroke="blue" />
<line x1="-15.507508931542311" y1="-95.17201570231428" x2="-33.31454533500327" y2="-95.45106355294661" stroke-width="0.5" stroke="blue" />
<line x1="139.75217456216265" y1="179.66722378811778" x2="166.560373026963" y2="179.6672177921154" stroke-width="0.5" stroke="blue" />
<line x1="190.47749479556185" y1="-137.811587828175" x2="190.94438818802385" y2="-155.63846685035102" stroke-width="0.5" stroke="blue" />
<line x1="-150.87025116816847" y1="55.223487855989305" x2="-161.2905518686744" y2="77.3049682874025" stroke-width="0.5" stroke="blue" />
<line x1="9.516450210665854" y1="-243.38306909592373" x2="-8.333435326267749" y2="-243.38307620916666" stroke-width="0.5" stroke="blue" />
<line x1="21.51645021066585" y1="-237.262332285489" x2="39.30739780041716" y2="-232.4775406700161" stroke-width="0.5" stroke="blue" />
<line x1="21.51645021066585" y1="-249.262332285489" x2="43.742415846340116" y2="-254.85100969418664" stroke-width="0.5" stroke="blue" />
<line x1="10.236769253215158" y1="-249.262332285489" x2="10.236771833152524" y2="-271.66825243960994" stroke-width="0.5" stroke="blue" />
<line x1="-173.2905518686744" y1="89.3049682874025" x2="-199.7656444747024" y2="101.45237097871527" stroke-width="0.5" stroke="blue" />
<line x1="-173.2905518686744" y1="77.3049682874025" x2="-199.73655859172354" y2="65.7483016210025" stroke-width="0.5" stroke="blue" />
<line x1="-164.89291367926612" y1="89.3049682874025" x2="-164.89291732061739" y2="111.60751148495751" stroke-width="0.5" stroke="blue" />
<line x1="171.76058760065987" y1="236.47055888023908" x2="207.2060436776138" y2="237.80215113565734" stroke-width="0.5" stroke="blue" />
<line x1="-20.333435326267747" y1="-249.50381301960138" x2="-27.8693960640395" y2="-271.8104210066133" stroke-width="0.5" stroke="blue" />
<line x1="98.62609362816737" y1="232.83423416050914" x2="98.44617405076103" y2="263.90228100606043" stroke-width="0.5" stroke="blue" />
<line x1="42.579512211277795" y1="128.05671626231396" x2="42.57950580372273" y2="110.20871474734439" stroke-width="0.5" stroke="blue" />
<line x1="231.2060436776138" y1="261.80215113565737" x2="231.76552165352717" y2="288.4649408370985" stroke-width="0.5" stroke="blue" />
<line x1="-161.08506534405902" y1="-17.950307593426132" x2="-192.1562082539846" y2="-18.29147701123246" stroke-width="0.5" stroke="blue" />
<line x1="51.432358806211234" y1="-83.86165830787424" x2="51.761032870908785" y2="-106.11178427250162" stroke-width="0.5" stroke="blue" />
<line x1="110.16692433588038" y1="120.85865812788924" x2="136.20530764582296" y2="102.43970858047697" stroke-width="0.5" stroke="blue" />
<line x1="-210.1562082539846" y1="-18.29147701123246" x2="-241.22639033024416" y2="-18.142771119849694" stroke-width="0.5" stroke="blue" />
<line x1="255.76552165352717" y1="300.4649408370985" x2="256.1363889145304" y2="327.1276695080106" stroke-width="0.5" stroke="blue" />
<line x1="12.912761838267254" y1="-186.10147868113089" x2="12.91276159934754" y2="-203.9613225597542" stroke-width="0.5" stroke="blue" />
<line x1="43.513820681691485" y1="224.7203460666546" x2="43.101231629179665" y2="260.17587534215926" stroke-width="0.5" stroke="blue" />
<line x1="190.560373026963" y1="173.7390438569122" x2="207.36327365034492" y2="151.80496309183667" stroke-width="0.5" stroke="blue" />
<line x1="160.20530764582296" y1="102.43970858047697" x2="162.57287250506073" y2="133.4025259055312" stroke-width="0.5" stroke="blue" />
<line x1="98.44617405076103" y1="287.90228100606043" x2="125.1061774308443" y2="288.54575662022927" stroke-width="0.5" stroke="blue" />
<line x1="225.36327365034492" y1="133.80496309183667" x2="255.46605487380958" y2="104.87297802987915" stroke-width="0.5" stroke="blue" />
<line x1="180.57287250506073" y1="133.4025259055312" x2="195.8708329760639" y2="102.67445188980041" stroke-width="0.5" stroke="blue" />
<line x1="-223.7656444747024" y1="125.45237097871527" x2="-259.21130383514605" y2="126.03609819868612" stroke-width="0.5" stroke="blue" />
<line x1="-88.03532779336368" y1="-164.86820690610625" x2="-105.84228737055773" y2="-164.86821258113164" stroke-width="0.5" stroke="blue" />
<line x1="-88.03532779336368" y1="-166.24261067204156" x2="-98.03958857000895" y2="-202.17220062650034" stroke-width="0.5" stroke="blue" />
<line x1="109.92742335841088" y1="153.15393284218678" x2="127.81760600106657" y2="153.15393912484677" stroke-width="0.5" stroke="blue" />
<line x1="16.957090875701496" y1="-289.66825243960994" x2="17.130592440919656" y2="-311.92138122576245" stroke-width="0.5" stroke="blue" />
<line x1="219.8708329760639" y1="102.67445188980041" x2="247.6476135302927" y2="131.56078236554833" stroke-width="0.5" stroke="blue" />
<line x1="-265.22639033024416" y1="5.857228880150306" x2="-266.3087839352493" y2="32.51101547771665" stroke-width="0.5" stroke="blue" />
<line x1="-278.3087839352493" y1="32.51101547771665" x2="-296.13928659872147" y2="32.4656847157592" stroke-width="0.5" stroke="blue" />
</svg>