<svg width="100%" height="100%" viewBox="-320.417 -303.511 610.444 623.725"  xmlns="http://www.w3.org/2000/svg" xmlns:xlink="http://www.w3.org/1999/xlink" version="1.1">
<rect x="-63.8139" y="24.7831" width="80" height="80" fill="yellow" stroke="black" stroke-width="0.5"><title>room 0</title></rect><rect x="-34.763" y="87.5331" width="2.5" height="2.5" fill="red" stroke="black" stroke-width="0.5"></rect><rect x="-1.06394" y="39.5331" width="2.5" height="2.5" fill="red" stroke="black" stroke-width="0.5"></rect><rect x="-49.0639" y="39.5331" width="2.5" height="2.5" fill="red" stroke="black" stroke-width="0.5"></rect><rect x="-49.0639" y="39.5331" width="2.5" height="2.5" fill="red" stroke="black" stroke-width="0.5"></rect><rect x="-1.06394" y="87.5331" width="2.5" height="2.5" fill="red" stroke="black" stroke-width="0.5"></rect><rect x="-49.0639" y="87.5331" width="2.5" height="2.5" fill="red" stroke="black" stroke-width="0.5"></rect><rect x="-1.06394" y="42.1793" width="2.5" height="2.5" fill="red" stroke="black" stroke-width="0.5"></rect><rect x="-49.0639" y="87.5331" width="2.5" height="2.5" fill="red" stroke="black" stroke-width="0.5"></rect><rect x="-1.06394" y="87.5331" width="2.5" height="2.5" fill="red" stroke="black" stroke-width="0.5"></rect><rect x="-9.30922" y="87.5331" width="2.5" height="2.5" fill="red" stroke="black" stroke-width="0.5"></rect>
<rect x="-43.0579" y="119.177" width="20" height="40" fill="yellow" stroke="black" stroke-width="0.5"><title>room 1</title></rect><rect x="-34.763" y="125.927" width="2.5" height="2.5" fill="red" stroke="black" stroke-width="0.5"></rect>
<rect x="14.206" y="-17.5346" width="30" height="30" fill="yellow" stroke="black" stroke-width="0.5"><title>room 2</title></rect><rect x="18.956" y="5.21535" width="2.5" height="2.5" fill="red" stroke="black" stroke-width="0.5"></rect><rect x="36.956" y="-12.7846" width="2.5" height="2.5" fill="red" stroke="black" stroke-width="0.5"></rect><rect x="36.956" y="5.21535" width="2.5" height="2.5" fill="red" stroke="black" stroke-width="0.5"></rect>
<rect x="-72.6062" y="-18.2266" width="30" height="30" fill="yellow" stroke="black" stroke-width="0.5"><title>room 3</title></rect><rect x="-49.8562" y="4.52336" width="2.5" height="2.5" fill="red" stroke="black" stroke-width="0.5"></rect><rect x="-65.9891" y="-13.4766" width="2.5" height="2.5" fill="red" stroke="black" stroke-width="0.5"></rect><rect x="-49.8562" y="-13.4766" width="2.5" height="2.5" fill="red" stroke="black" stroke-width="0.5"></rect>
<rect x="-95.7005" y="24.3958" width="20" height="20" fill="yellow" stroke="black" stroke-width="0.5"><title>room 4</title></rect><rect x="-80.9505" y="39.1458" width="2.5" height="2.5" fill="red" stroke="black" stroke-width="0.5"></rect><rect x="-92.9505" y="27.1458" width="2.5" height="2.5" fill="red" stroke="black" stroke-width="0.5"></rect><rect x="-92.9505" y="36.6774" width="2.5" height="2.5" fill="red" stroke="black" stroke-width="0.5"></rect>
<rect x="30.342" y="85.7196" width="40" height="20" fill="yellow" stroke="black" stroke-width="0.5"><title>room 5</title></rect><rect x="37.092" y="88.4696" width="2.5" height="2.5" fill="red" stroke="black" stroke-width="0.5"></rect><rect x="61.092" y="95.3071" width="2.5" height="2.5" fill="red" stroke="black" stroke-width="0.5"></rect>
<rect x="-79.1886" y="117.642" width="30" height="30" fill="yellow" stroke="black" stroke-width="0.5"><title>room 6</title></rect><rect x="-56.4386" y="122.392" width="2.5" height="2.5" fill="red" stroke="black" stroke-width="0.5"></rect><rect x="-60.8707" y="140.392" width="2.5" height="2.5" fill="red" stroke="black" stroke-width="0.5"></rect><rect x="-74.4386" y="140.392" width="2.5" height="2.5" fill="red" stroke="black" stroke-width="0.5"></rect>
<rect x="30.3631" y="30.0756" width="40" height="20" fill="yellow" stroke="black" stroke-width="0.5"><title>room 7</title></rect><rect x="37.1131" y="42.1793" width="2.5" height="2.5" fill="red" stroke="black" stroke-width="0.5"></rect><rect x="61.1131" y="44.8256" width="2.5" height="2.5" fill="red" stroke="black" stroke-width="0.5"></rect>
<rect x="-117.932" y="89.3168" width="40" height="20" fill="yellow" stroke="black" stroke-width="0.5"><title>room 8</title></rect><rect x="-87.1816" y="92.0668" width="2.5" height="2.5" fill="red" stroke="black" stroke-width="0.5"></rect><rect x="-111.182" y="92.0668" width="2.5" height="2.5" fill="red" stroke="black" stroke-width="0.5"></rect><rect x="-111.182" y="104.067" width="2.5" height="2.5" fill="red" stroke="black" stroke-width="0.5"></rect>
<rect x="6.75507" y="116.434" width="20" height="20" fill="yellow" stroke="black" stroke-width="0.5"><title>room 9</title></rect><rect x="9.50507" y="119.184" width="2.5" height="2.5" fill="red" stroke="black" stroke-width="0.5"></rect><rect x="21.5051" y="131.184" width="2.5" height="2.5" fill="red" stroke="black" stroke-width="0.5"></rect><rect x="21.5051" y="122.761" width="2.5" height="2.5" fill="red" stroke="black" stroke-width="0.5"></rect>
<rect x="-18.1438" y="119.148" width="20" height="40" fill="yellow" stroke="black" stroke-width="0.5"><title>room 10</title></rect><rect x="-9.30922" y="125.898" width="2.5" height="2.5" fill="red" stroke="black" stroke-width="0.5"></rect><rect x="-9.08269" y="149.898" width="2.5" height="2.5" fill="red" stroke="black" stroke-width="0.5"></rect>
<rect x="36.0947" y="-45.6092" width="20" height="20" fill="yellow" stroke="black" stroke-width="0.5"><title>room 11</title></rect><rect x="38.8447" y="-30.8592" width="2.5" height="2.5" fill="red" stroke="black" stroke-width="0.5"></rect><rect x="38.8447" y="-42.8592" width="2.5" height="2.5" fill="red" stroke="black" stroke-width="0.5"></rect><rect x="50.8447" y="-42.8592" width="2.5" height="2.5" fill="red" stroke="black" stroke-width="0.5"></rect>
<rect x="50.7976" y="5.07866" width="20" height="20" fill="yellow" stroke="black" stroke-width="0.5"><title>room 12</title></rect><rect x="53.5476" y="7.82866" width="2.5" height="2.5" fill="red" stroke="black" stroke-width="0.5"></rect><rect x="65.5476" y="7.82866" width="2.5" height="2.5" fill="red" stroke="black" stroke-width="0.5"></rect><rect x="65.5476" y="19.8287" width="2.5" height="2.5" fill="red" stroke="black" stroke-width="0.5"></rect>
<rect x="-78.8721" y="-44.3116" width="20" height="20" fill="yellow" stroke="black" stroke-width="0.5"><title>room 13</title></rect><rect x="-65.9891" y="-29.5616" width="2.5" height="2.5" fill="red" stroke="black" stroke-width="0.5"></rect>
<rect x="-36.5512" y="-44.2771" width="20" height="40" fill="yellow" stroke="black" stroke-width="0.5"><title>room 14</title></rect><rect x="-33.8012" y="-13.5271" width="2.5" height="2.5" fill="red" stroke="black" stroke-width="0.5"></rect>
<rect x="-116.9" y="-11.6463" width="30" height="30" fill="yellow" stroke="black" stroke-width="0.5"><title>room 15</title></rect><rect x="-94.1497" y="11.1037" width="2.5" height="2.5" fill="red" stroke="black" stroke-width="0.5"></rect><rect x="-112.15" y="-6.89625" width="2.5" height="2.5" fill="red" stroke="black" stroke-width="0.5"></rect>
<rect x="-120.589" y="27.459" width="20" height="40" fill="yellow" stroke="black" stroke-width="0.5"><title>room 16</title></rect><rect x="-105.839" y="36.6774" width="2.5" height="2.5" fill="red" stroke="black" stroke-width="0.5"></rect>
<rect x="80.0477" y="87.3946" width="40" height="20" fill="yellow" stroke="black" stroke-width="0.5"><title>room 17</title></rect><rect x="86.7977" y="95.3071" width="2.5" height="2.5" fill="red" stroke="black" stroke-width="0.5"></rect><rect x="110.798" y="102.145" width="2.5" height="2.5" fill="red" stroke="black" stroke-width="0.5"></rect>
<rect x="-68.0528" y="153.749" width="20" height="20" fill="yellow" stroke="black" stroke-width="0.5"><title>room 18</title></rect><rect x="-60.8707" y="156.499" width="2.5" height="2.5" fill="red" stroke="black" stroke-width="0.5"></rect>
<rect x="-127.557" y="139.083" width="40" height="20" fill="yellow" stroke="black" stroke-width="0.5"><title>room 19</title></rect><rect x="-96.8068" y="141.833" width="2.5" height="2.5" fill="red" stroke="black" stroke-width="0.5"></rect><rect x="-120.807" y="141.833" width="2.5" height="2.5" fill="red" stroke="black" stroke-width="0.5"></rect><rect x="-96.8068" y="153.833" width="2.5" height="2.5" fill="red" stroke="black" stroke-width="0.5"></rect>
<rect x="54.6533" y="54.9412" width="40" height="20" fill="yellow" stroke="black" stroke-width="0.5"><title>room 20</title></rect><rect x="61.4033" y="57.6912" width="2.5" height="2.5" fill="red" stroke="black" stroke-width="0.5"></rect>
<rect x="-145.074" y="72.8563" width="20" height="20" fill="yellow" stroke="black" stroke-width="0.5"><title>room 21</title></rect><rect x="-130.324" y="87.6063" width="2.5" height="2.5" fill="red" stroke="black" stroke-width="0.5"></rect><rect x="-142.324" y="87.6063" width="2.5" height="2.5" fill="red" stroke="black" stroke-width="0.5"></rect><rect x="-142.324" y="75.6063" width="2.5" height="2.5" fill="red" stroke="black" stroke-width="0.5"></rect>
<rect x="-129.629" y="114.196" width="20" height="20" fill="yellow" stroke="black" stroke-width="0.5"><title>room 22</title></rect><rect x="-114.879" y="116.946" width="2.5" height="2.5" fill="red" stroke="black" stroke-width="0.5"></rect><rect x="-126.879" y="128.946" width="2.5" height="2.5" fill="red" stroke="black" stroke-width="0.5"></rect>
<rect x="17.8843" y="142.504" width="30" height="30" fill="yellow" stroke="black" stroke-width="0.5"><title>room 23</title></rect><rect x="22.6343" y="147.254" width="2.5" height="2.5" fill="red" stroke="black" stroke-width="0.5"></rect><rect x="40.6343" y="165.254" width="2.5" height="2.5" fill="red" stroke="black" stroke-width="0.5"></rect><rect x="40.6343" y="151.091" width="2.5" height="2.5" fill="red" stroke="black" stroke-width="0.5"></rect>
<rect x="34.0582" y="111.589" width="40" height="20" fill="yellow" stroke="black" stroke-width="0.5"><title>room 24</title></rect><rect x="40.8082" y="122.761" width="2.5" height="2.5" fill="red" stroke="black" stroke-width="0.5"></rect>
<rect x="-19.5216" y="167.658" width="30" height="30" fill="yellow" stroke="black" stroke-width="0.5"><title>room 25</title></rect><rect x="-9.08268" y="172.408" width="2.5" height="2.5" fill="red" stroke="black" stroke-width="0.5"></rect><rect x="3.22841" y="190.408" width="2.5" height="2.5" fill="red" stroke="black" stroke-width="0.5"></rect>
<rect x="10.7945" y="-83.7112" width="30" height="30" fill="yellow" stroke="black" stroke-width="0.5"><title>room 26</title></rect><rect x="33.5445" y="-60.9612" width="2.5" height="2.5" fill="red" stroke="black" stroke-width="0.5"></rect><rect x="23.0398" y="-78.9612" width="2.5" height="2.5" fill="red" stroke="black" stroke-width="0.5"></rect><rect x="15.5445" y="-69.325" width="2.5" height="2.5" fill="red" stroke="black" stroke-width="0.5"></rect>
<rect x="60.9921" y="-57.6316" width="20" height="20" fill="yellow" stroke="black" stroke-width="0.5"><title>room 27</title></rect><rect x="63.7421" y="-42.8816" width="2.5" height="2.5" fill="red" stroke="black" stroke-width="0.5"></rect><rect x="75.7421" y="-54.2877" width="2.5" height="2.5" fill="red" stroke="black" stroke-width="0.5"></rect>
<rect x="75.5823" y="-12.2148" width="20" height="20" fill="yellow" stroke="black" stroke-width="0.5"><title>room 28</title></rect><rect x="78.3323" y="2.5352" width="2.5" height="2.5" fill="red" stroke="black" stroke-width="0.5"></rect><rect x="90.3323" y="-9.4648" width="2.5" height="2.5" fill="red" stroke="black" stroke-width="0.5"></rect>
<rect x="77.6833" y="24.5917" width="20" height="20" fill="yellow" stroke="black" stroke-width="0.5"><title>room 29</title></rect><rect x="80.4333" y="27.3417" width="2.5" height="2.5" fill="red" stroke="black" stroke-width="0.5"></rect><rect x="92.4333" y="27.3729" width="2.5" height="2.5" fill="red" stroke="black" stroke-width="0.5"></rect><rect x="92.4333" y="39.3417" width="2.5" height="2.5" fill="red" stroke="black" stroke-width="0.5"></rect>
<rect x="-154.137" y="-29.8542" width="30" height="30" fill="yellow" stroke="black" stroke-width="0.5"><title>room 30</title></rect><rect x="-131.387" y="-7.10417" width="2.5" height="2.5" fill="red" stroke="black" stroke-width="0.5"></rect>
<rect x="109.036" y="112.258" width="20" height="20" fill="yellow" stroke="black" stroke-width="0.5"><title>room 31</title></rect><rect x="111.786" y="115.008" width="2.5" height="2.5" fill="red" stroke="black" stroke-width="0.5"></rect><rect x="123.786" y="127.008" width="2.5" height="2.5" fill="red" stroke="black" stroke-width="0.5"></rect>
<rect x="-176.982" y="122.612" width="40" height="20" fill="yellow" stroke="black" stroke-width="0.5"><title>room 32</title></rect><rect x="-146.232" y="137.362" width="2.5" height="2.5" fill="red" stroke="black" stroke-width="0.5"></rect><rect x="-170.232" y="129.404" width="2.5" height="2.5" fill="red" stroke="black" stroke-width="0.5"></rect>
<rect x="-99.5203" y="166.322" width="20" height="40" fill="yellow" stroke="black" stroke-width="0.5"><title>room 33</title></rect><rect x="-96.7703" y="173.072" width="2.5" height="2.5" fill="red" stroke="black" stroke-width="0.5"></rect>
<rect x="-176.906" y="97.6766" width="40" height="20" fill="yellow" stroke="black" stroke-width="0.5"><title>room 34</title></rect><rect x="-146.156" y="100.427" width="2.5" height="2.5" fill="red" stroke="black" stroke-width="0.5"></rect>
<rect x="-173.572" y="47.9931" width="40" height="20" fill="yellow" stroke="black" stroke-width="0.5"><title>room 35</title></rect><rect x="-142.822" y="62.7431" width="2.5" height="2.5" fill="red" stroke="black" stroke-width="0.5"></rect>
<rect x="-154.881" y="147.517" width="20" height="20" fill="yellow" stroke="black" stroke-width="0.5"><title>room 36</title></rect><rect x="-140.131" y="150.267" width="2.5" height="2.5" fill="red" stroke="black" stroke-width="0.5"></rect><rect x="-152.131" y="162.267" width="2.5" height="2.5" fill="red" stroke="black" stroke-width="0.5"></rect><rect x="-140.131" y="162.267" width="2.5" height="2.5" fill="red" stroke="black" stroke-width="0.5"></rect>
<rect x="53.8864" y="163.905" width="20" height="40" fill="yellow" stroke="black" stroke-width="0.5"><title>room 37</title></rect><rect x="56.6364" y="170.655" width="2.5" height="2.5" fill="red" stroke="black" stroke-width="0.5"></rect>
<rect x="53.9713" y="136.519" width="20" height="20" fill="yellow" stroke="black" stroke-width="0.5"><title>room 38</title></rect><rect x="56.7213" y="151.091" width="2.5" height="2.5" fill="red" stroke="black" stroke-width="0.5"></rect>
<rect x="16.53" y="184.286" width="20" height="40" fill="yellow" stroke="black" stroke-width="0.5"><title>room 39</title></rect><rect x="19.28" y="191.036" width="2.5" height="2.5" fill="red" stroke="black" stroke-width="0.5"></rect>
<rect x="5.78518" y="-111.676" width="40" height="20" fill="yellow" stroke="black" stroke-width="0.5"><title>room 40</title></rect><rect x="23.0398" y="-96.926" width="2.5" height="2.5" fill="red" stroke="black" stroke-width="0.5"></rect><rect x="36.5352" y="-108.926" width="2.5" height="2.5" fill="red" stroke="black" stroke-width="0.5"></rect><rect x="12.5352" y="-108.926" width="2.5" height="2.5" fill="red" stroke="black" stroke-width="0.5"></rect>
<rect x="-37.7297" y="-74.4389" width="40" height="20" fill="yellow" stroke="black" stroke-width="0.5"><title>room 41</title></rect><rect x="-6.97969" y="-69.325" width="2.5" height="2.5" fill="red" stroke="black" stroke-width="0.5"></rect><rect x="-30.9797" y="-71.6889" width="2.5" height="2.5" fill="red" stroke="black" stroke-width="0.5"></rect>
<rect x="85.8942" y="-84.4438" width="20" height="40" fill="yellow" stroke="black" stroke-width="0.5"><title>room 42</title></rect><rect x="88.6442" y="-54.2877" width="2.5" height="2.5" fill="red" stroke="black" stroke-width="0.5"></rect><rect x="100.644" y="-77.6938" width="2.5" height="2.5" fill="red" stroke="black" stroke-width="0.5"></rect><rect x="100.644" y="-71.8855" width="2.5" height="2.5" fill="red" stroke="black" stroke-width="0.5"></rect>
<rect x="91.4057" y="-37.0579" width="20" height="20" fill="yellow" stroke="black" stroke-width="0.5"><title>room 43</title></rect><rect x="94.1557" y="-22.3079" width="2.5" height="2.5" fill="red" stroke="black" stroke-width="0.5"></rect><rect x="106.156" y="-22.3079" width="2.5" height="2.5" fill="red" stroke="black" stroke-width="0.5"></rect>
<rect x="102.551" y="12.654" width="20" height="20" fill="yellow" stroke="black" stroke-width="0.5"><title>room 44</title></rect><rect x="105.301" y="27.3729" width="2.5" height="2.5" fill="red" stroke="black" stroke-width="0.5"></rect>
<rect x="102.47" y="40.0062" width="20" height="40" fill="yellow" stroke="black" stroke-width="0.5"><title>room 45</title></rect><rect x="105.22" y="46.7562" width="2.5" height="2.5" fill="red" stroke="black" stroke-width="0.5"></rect>
<rect x="119.635" y="138.309" width="30" height="30" fill="yellow" stroke="black" stroke-width="0.5"><title>room 46</title></rect><rect x="124.385" y="143.059" width="2.5" height="2.5" fill="red" stroke="black" stroke-width="0.5"></rect>
<rect x="-204.299" y="114.697" width="20" height="40" fill="yellow" stroke="black" stroke-width="0.5"><title>room 47</title></rect><rect x="-189.549" y="129.404" width="2.5" height="2.5" fill="red" stroke="black" stroke-width="0.5"></rect>
<rect x="-179.732" y="162.189" width="20" height="20" fill="yellow" stroke="black" stroke-width="0.5"><title>room 48</title></rect><rect x="-164.982" y="164.939" width="2.5" height="2.5" fill="red" stroke="black" stroke-width="0.5"></rect><rect x="-164.982" y="176.939" width="2.5" height="2.5" fill="red" stroke="black" stroke-width="0.5"></rect><rect x="-176.982" y="176.939" width="2.5" height="2.5" fill="red" stroke="black" stroke-width="0.5"></rect>
<rect x="-130.183" y="166.408" width="20" height="40" fill="yellow" stroke="black" stroke-width="0.5"><title>room 49</title></rect><rect x="-127.433" y="173.158" width="2.5" height="2.5" fill="red" stroke="black" stroke-width="0.5"></rect>
<rect x="36.0762" y="-136.538" width="20" height="20" fill="yellow" stroke="black" stroke-width="0.5"><title>room 50</title></rect><rect x="38.8262" y="-121.788" width="2.5" height="2.5" fill="red" stroke="black" stroke-width="0.5"></rect><rect x="50.8262" y="-133.788" width="2.5" height="2.5" fill="red" stroke="black" stroke-width="0.5"></rect><rect x="50.8262" y="-122.447" width="2.5" height="2.5" fill="red" stroke="black" stroke-width="0.5"></rect>
<rect x="-12.4413" y="-147.832" width="30" height="30" fill="yellow" stroke="black" stroke-width="0.5"><title>room 51</title></rect><rect x="10.3087" y="-125.082" width="2.5" height="2.5" fill="red" stroke="black" stroke-width="0.5"></rect><rect x="10.3087" y="-143.082" width="2.5" height="2.5" fill="red" stroke="black" stroke-width="0.5"></rect><rect x="-7.69125" y="-143.082" width="2.5" height="2.5" fill="red" stroke="black" stroke-width="0.5"></rect>
<rect x="-66.943" y="-99.2741" width="40" height="20" fill="yellow" stroke="black" stroke-width="0.5"><title>room 52</title></rect><rect x="-36.193" y="-84.5241" width="2.5" height="2.5" fill="red" stroke="black" stroke-width="0.5"></rect><rect x="-60.193" y="-84.5241" width="2.5" height="2.5" fill="red" stroke="black" stroke-width="0.5"></rect><rect x="-60.193" y="-96.5241" width="2.5" height="2.5" fill="red" stroke="black" stroke-width="0.5"></rect>
<rect x="135.612" y="-93.5726" width="20" height="20" fill="yellow" stroke="black" stroke-width="0.5"><title>room 53</title></rect><rect x="138.362" y="-78.8226" width="2.5" height="2.5" fill="red" stroke="black" stroke-width="0.5"></rect><rect x="150.362" y="-90.8226" width="2.5" height="2.5" fill="red" stroke="black" stroke-width="0.5"></rect><rect x="150.362" y="-78.8226" width="2.5" height="2.5" fill="red" stroke="black" stroke-width="0.5"></rect>
<rect x="110.739" y="-96.8272" width="20" height="40" fill="yellow" stroke="black" stroke-width="0.5"><title>room 54</title></rect><rect x="113.489" y="-71.8855" width="2.5" height="2.5" fill="red" stroke="black" stroke-width="0.5"></rect><rect x="125.489" y="-66.0772" width="2.5" height="2.5" fill="red" stroke="black" stroke-width="0.5"></rect><rect x="125.489" y="-90.0772" width="2.5" height="2.5" fill="red" stroke="black" stroke-width="0.5"></rect>
<rect x="102.988" y="-12.2511" width="40" height="20" fill="yellow" stroke="black" stroke-width="0.5"><title>room 55</title></rect><rect x="109.738" y="-9.50113" width="2.5" height="2.5" fill="red" stroke="black" stroke-width="0.5"></rect><rect x="133.738" y="2.49887" width="2.5" height="2.5" fill="red" stroke="black" stroke-width="0.5"></rect>
<rect x="-166.355" y="188.198" width="30" height="30" fill="yellow" stroke="black" stroke-width="0.5"><title>room 56</title></rect><rect x="-161.605" y="192.948" width="2.5" height="2.5" fill="red" stroke="black" stroke-width="0.5"></rect>
<rect x="-214.949" y="186.988" width="40" height="20" fill="yellow" stroke="black" stroke-width="0.5"><title>room 57</title></rect><rect x="-184.199" y="189.738" width="2.5" height="2.5" fill="red" stroke="black" stroke-width="0.5"></rect><rect x="-208.199" y="201.738" width="2.5" height="2.5" fill="red" stroke="black" stroke-width="0.5"></rect><rect x="-208.199" y="189.738" width="2.5" height="2.5" fill="red" stroke="black" stroke-width="0.5"></rect>
<rect x="60.8498" y="-173.311" width="20" height="40" fill="yellow" stroke="black" stroke-width="0.5"><title>room 58</title></rect><rect x="63.5998" y="-142.561" width="2.5" height="2.5" fill="red" stroke="black" stroke-width="0.5"></rect><rect x="75.5998" y="-166.561" width="2.5" height="2.5" fill="red" stroke="black" stroke-width="0.5"></rect>
<rect x="60.9513" y="-125.856" width="20" height="20" fill="yellow" stroke="black" stroke-width="0.5"><title>room 59</title></rect><rect x="63.7013" y="-122.447" width="2.5" height="2.5" fill="red" stroke="black" stroke-width="0.5"></rect><rect x="75.7013" y="-113.314" width="2.5" height="2.5" fill="red" stroke="black" stroke-width="0.5"></rect>
<rect x="24.6506" y="-172.682" width="30" height="30" fill="yellow" stroke="black" stroke-width="0.5"><title>room 60</title></rect><rect x="29.4006" y="-149.932" width="2.5" height="2.5" fill="red" stroke="black" stroke-width="0.5"></rect>
<rect x="-40.0549" y="-173.915" width="40" height="20" fill="yellow" stroke="black" stroke-width="0.5"><title>room 61</title></rect><rect x="-9.30488" y="-159.165" width="2.5" height="2.5" fill="red" stroke="black" stroke-width="0.5"></rect><rect x="-9.30488" y="-171.165" width="2.5" height="2.5" fill="red" stroke="black" stroke-width="0.5"></rect><rect x="-33.3049" y="-171.165" width="2.5" height="2.5" fill="red" stroke="black" stroke-width="0.5"></rect>
<rect x="-94.4323" y="-74.398" width="40" height="20" fill="yellow" stroke="black" stroke-width="0.5"><title>room 62</title></rect><rect x="-63.6823" y="-71.648" width="2.5" height="2.5" fill="red" stroke="black" stroke-width="0.5"></rect><rect x="-87.6823" y="-59.648" width="2.5" height="2.5" fill="red" stroke="black" stroke-width="0.5"></rect><rect x="-87.6823" y="-71.648" width="2.5" height="2.5" fill="red" stroke="black" stroke-width="0.5"></rect>
<rect x="-76.3967" y="-124.156" width="20" height="20" fill="yellow" stroke="black" stroke-width="0.5"><title>room 63</title></rect><rect x="-61.6467" y="-109.406" width="2.5" height="2.5" fill="red" stroke="black" stroke-width="0.5"></rect><rect x="-61.6467" y="-121.406" width="2.5" height="2.5" fill="red" stroke="black" stroke-width="0.5"></rect><rect x="-73.6467" y="-121.406" width="2.5" height="2.5" fill="red" stroke="black" stroke-width="0.5"></rect>
<rect x="160.442" y="-125.752" width="20" height="40" fill="yellow" stroke="black" stroke-width="0.5"><title>room 64</title></rect><rect x="163.192" y="-95.0016" width="2.5" height="2.5" fill="red" stroke="black" stroke-width="0.5"></rect><rect x="175.192" y="-119.002" width="2.5" height="2.5" fill="red" stroke="black" stroke-width="0.5"></rect>
<rect x="160.499" y="-78.3564" width="20" height="20" fill="yellow" stroke="black" stroke-width="0.5"><title>room 65</title></rect><rect x="163.249" y="-75.6064" width="2.5" height="2.5" fill="red" stroke="black" stroke-width="0.5"></rect><rect x="175.249" y="-75.6064" width="2.5" height="2.5" fill="red" stroke="black" stroke-width="0.5"></rect>
<rect x="135.588" y="-68.5919" width="20" height="20" fill="yellow" stroke="black" stroke-width="0.5"><title>room 66</title></rect><rect x="138.338" y="-65.8419" width="2.5" height="2.5" fill="red" stroke="black" stroke-width="0.5"></rect>
<rect x="121.554" y="-135.222" width="30" height="30" fill="yellow" stroke="black" stroke-width="0.5"><title>room 67</title></rect><rect x="126.304" y="-112.472" width="2.5" height="2.5" fill="red" stroke="black" stroke-width="0.5"></rect>
<rect x="129.705" y="13.8002" width="30" height="30" fill="yellow" stroke="black" stroke-width="0.5"><title>room 68</title></rect><rect x="134.455" y="18.5502" width="2.5" height="2.5" fill="red" stroke="black" stroke-width="0.5"></rect>
<rect x="-232.016" y="213.04" width="30" height="30" fill="yellow" stroke="black" stroke-width="0.5"><title>room 69</title></rect><rect x="-209.266" y="217.79" width="2.5" height="2.5" fill="red" stroke="black" stroke-width="0.5"></rect><rect x="-227.266" y="235.79" width="2.5" height="2.5" fill="red" stroke="black" stroke-width="0.5"></rect>
<rect x="-239.385" y="162.126" width="40" height="20" fill="yellow" stroke="black" stroke-width="0.5"><title>room 70</title></rect><rect x="-208.635" y="176.876" width="2.5" height="2.5" fill="red" stroke="black" stroke-width="0.5"></rect>
<rect x="86.8112" y="-197.462" width="30" height="30" fill="yellow" stroke="black" stroke-width="0.5"><title>room 71</title></rect><rect x="91.5612" y="-174.712" width="2.5" height="2.5" fill="red" stroke="black" stroke-width="0.5"></rect><rect x="109.561" y="-174.712" width="2.5" height="2.5" fill="red" stroke="black" stroke-width="0.5"></rect><rect x="109.561" y="-192.712" width="2.5" height="2.5" fill="red" stroke="black" stroke-width="0.5"></rect>
<rect x="85.8552" y="-134.271" width="20" height="40" fill="yellow" stroke="black" stroke-width="0.5"><title>room 72</title></rect><rect x="88.6052" y="-113.314" width="2.5" height="2.5" fill="red" stroke="black" stroke-width="0.5"></rect>
<rect x="-5.84187" y="-221.05" width="20" height="40" fill="yellow" stroke="black" stroke-width="0.5"><title>room 73</title></rect><rect x="-3.09187" y="-190.3" width="2.5" height="2.5" fill="red" stroke="black" stroke-width="0.5"></rect><rect x="-3.09187" y="-214.3" width="2.5" height="2.5" fill="red" stroke="black" stroke-width="0.5"></rect>
<rect x="-55.4987" y="-198.714" width="20" height="20" fill="yellow" stroke="black" stroke-width="0.5"><title>room 74</title></rect><rect x="-40.7487" y="-183.964" width="2.5" height="2.5" fill="red" stroke="black" stroke-width="0.5"></rect><rect x="-52.7487" y="-195.964" width="2.5" height="2.5" fill="red" stroke="black" stroke-width="0.5"></rect><rect x="-52.7487" y="-184.53" width="2.5" height="2.5" fill="red" stroke="black" stroke-width="0.5"></rect>
<rect x="-103.844" y="-49.5411" width="20" height="20" fill="yellow" stroke="black" stroke-width="0.5"><title>room 75</title></rect><rect x="-89.0943" y="-46.7911" width="2.5" height="2.5" fill="red" stroke="black" stroke-width="0.5"></rect><rect x="-101.094" y="-46.7911" width="2.5" height="2.5" fill="red" stroke="black" stroke-width="0.5"></rect>
<rect x="-104.322" y="-99.2314" width="20" height="20" fill="yellow" stroke="black" stroke-width="0.5"><title>room 76</title></rect><rect x="-89.5716" y="-84.4814" width="2.5" height="2.5" fill="red" stroke="black" stroke-width="0.5"></rect><rect x="-101.572" y="-96.4814" width="2.5" height="2.5" fill="red" stroke="black" stroke-width="0.5"></rect>
<rect x="-65.2532" y="-148.992" width="40" height="20" fill="yellow" stroke="black" stroke-width="0.5"><title>room 77</title></rect><rect x="-58.5032" y="-134.242" width="2.5" height="2.5" fill="red" stroke="black" stroke-width="0.5"></rect>
<rect x="-92.6496" y="-149.007" width="20" height="20" fill="yellow" stroke="black" stroke-width="0.5"><title>room 78</title></rect><rect x="-77.8996" y="-134.257" width="2.5" height="2.5" fill="red" stroke="black" stroke-width="0.5"></rect><rect x="-89.8996" y="-146.257" width="2.5" height="2.5" fill="red" stroke="black" stroke-width="0.5"></rect><rect x="-89.6874" y="-134.257" width="2.5" height="2.5" fill="red" stroke="black" stroke-width="0.5"></rect>
<rect x="185.31" y="-150.307" width="20" height="40" fill="yellow" stroke="black" stroke-width="0.5"><title>room 79</title></rect><rect x="188.06" y="-119.557" width="2.5" height="2.5" fill="red" stroke="black" stroke-width="0.5"></rect><rect x="200.06" y="-143.557" width="2.5" height="2.5" fill="red" stroke="black" stroke-width="0.5"></rect>
<rect x="187.746" y="-90.7136" width="40" height="20" fill="yellow" stroke="black" stroke-width="0.5"><title>room 80</title></rect><rect x="194.496" y="-75.9636" width="2.5" height="2.5" fill="red" stroke="black" stroke-width="0.5"></rect><rect x="218.496" y="-87.9636" width="2.5" height="2.5" fill="red" stroke="black" stroke-width="0.5"></rect>
<rect x="-258.067" y="233.661" width="20" height="20" fill="yellow" stroke="black" stroke-width="0.5"><title>room 81</title></rect><rect x="-243.317" y="236.411" width="2.5" height="2.5" fill="red" stroke="black" stroke-width="0.5"></rect><rect x="-255.317" y="248.411" width="2.5" height="2.5" fill="red" stroke="black" stroke-width="0.5"></rect>
<rect x="103.412" y="-161.432" width="40" height="20" fill="yellow" stroke="black" stroke-width="0.5"><title>room 82</title></rect><rect x="110.162" y="-158.682" width="2.5" height="2.5" fill="red" stroke="black" stroke-width="0.5"></rect>
<rect x="122.859" y="-225.047" width="20" height="40" fill="yellow" stroke="black" stroke-width="0.5"><title>room 83</title></rect><rect x="125.609" y="-194.297" width="2.5" height="2.5" fill="red" stroke="black" stroke-width="0.5"></rect><rect x="137.609" y="-218.297" width="2.5" height="2.5" fill="red" stroke="black" stroke-width="0.5"></rect><rect x="137.609" y="-197.071" width="2.5" height="2.5" fill="red" stroke="black" stroke-width="0.5"></rect>
<rect x="-41.8563" y="-239.16" width="30" height="30" fill="yellow" stroke="black" stroke-width="0.5"><title>room 84</title></rect><rect x="-19.1063" y="-216.41" width="2.5" height="2.5" fill="red" stroke="black" stroke-width="0.5"></rect><rect x="-19.1063" y="-234.41" width="2.5" height="2.5" fill="red" stroke="black" stroke-width="0.5"></rect><rect x="-37.1063" y="-234.41" width="2.5" height="2.5" fill="red" stroke="black" stroke-width="0.5"></rect>
<rect x="-80.3778" y="-212.815" width="20" height="20" fill="yellow" stroke="black" stroke-width="0.5"><title>room 85</title></rect><rect x="-65.6278" y="-198.065" width="2.5" height="2.5" fill="red" stroke="black" stroke-width="0.5"></rect><rect x="-77.6278" y="-210.065" width="2.5" height="2.5" fill="red" stroke="black" stroke-width="0.5"></rect><rect x="-65.6278" y="-210.065" width="2.5" height="2.5" fill="red" stroke="black" stroke-width="0.5"></rect>
<rect x="-80.3749" y="-187.846" width="20" height="20" fill="yellow" stroke="black" stroke-width="0.5"><title>room 86</title></rect><rect x="-65.6249" y="-184.53" width="2.5" height="2.5" fill="red" stroke="black" stroke-width="0.5"></rect>
<rect x="-139.901" y="-69.7527" width="30" height="30" fill="yellow" stroke="black" stroke-width="0.5"><title>room 87</title></rect><rect x="-117.151" y="-47.0027" width="2.5" height="2.5" fill="red" stroke="black" stroke-width="0.5"></rect>
<rect x="-129.191" y="-127.48" width="20" height="40" fill="yellow" stroke="black" stroke-width="0.5"><title>room 88</title></rect><rect x="-114.441" y="-96.7298" width="2.5" height="2.5" fill="red" stroke="black" stroke-width="0.5"></rect>
<rect x="-117.515" y="-177.45" width="20" height="40" fill="yellow" stroke="black" stroke-width="0.5"><title>room 89</title></rect><rect x="-102.765" y="-146.7" width="2.5" height="2.5" fill="red" stroke="black" stroke-width="0.5"></rect>
<rect x="-104.225" y="-124.156" width="20" height="20" fill="yellow" stroke="black" stroke-width="0.5"><title>room 90</title></rect><rect x="-89.6874" y="-121.406" width="2.5" height="2.5" fill="red" stroke="black" stroke-width="0.5"></rect>
<rect x="212.544" y="-158.8" width="40" height="20" fill="yellow" stroke="black" stroke-width="0.5"><title>room 91</title></rect><rect x="219.294" y="-144.05" width="2.5" height="2.5" fill="red" stroke="black" stroke-width="0.5"></rect>
<rect x="214.489" y="-126.764" width="30" height="30" fill="yellow" stroke="black" stroke-width="0.5"><title>room 92</title></rect><rect x="219.239" y="-104.014" width="2.5" height="2.5" fill="red" stroke="black" stroke-width="0.5"></rect>
<rect x="-282.933" y="241.915" width="20" height="40" fill="yellow" stroke="black" stroke-width="0.5"><title>room 93</title></rect><rect x="-268.183" y="248.665" width="2.5" height="2.5" fill="red" stroke="black" stroke-width="0.5"></rect>
<rect x="147.722" y="-250.028" width="20" height="40" fill="yellow" stroke="black" stroke-width="0.5"><title>room 94</title></rect><rect x="150.472" y="-219.278" width="2.5" height="2.5" fill="red" stroke="black" stroke-width="0.5"></rect>
<rect x="150.144" y="-202.595" width="40" height="20" fill="yellow" stroke="black" stroke-width="0.5"><title>room 95</title></rect><rect x="156.894" y="-197.071" width="2.5" height="2.5" fill="red" stroke="black" stroke-width="0.5"></rect>
<rect x="-21.1836" y="-265.211" width="20" height="20" fill="yellow" stroke="black" stroke-width="0.5"><title>room 96</title></rect><rect x="-18.4336" y="-250.461" width="2.5" height="2.5" fill="red" stroke="black" stroke-width="0.5"></rect>
<rect x="-68.6234" y="-265.212" width="40" height="20" fill="yellow" stroke="black" stroke-width="0.5"><title>room 97</title></rect><rect x="-37.8734" y="-250.462" width="2.5" height="2.5" fill="red" stroke="black" stroke-width="0.5"></rect>
<rect x="-115.374" y="-237.611" width="40" height="20" fill="yellow" stroke="black" stroke-width="0.5"><title>room 98</title></rect><rect x="-84.6237" y="-222.861" width="2.5" height="2.5" fill="red" stroke="black" stroke-width="0.5"></rect>
<rect x="-68.0046" y="-237.68" width="20" height="20" fill="yellow" stroke="black" stroke-width="0.5"><title>room 99</title></rect><rect x="-65.2546" y="-222.93" width="2.5" height="2.5" fill="red" stroke="black" stroke-width="0.5"></rect>
<line x1="-33.51302220602925" y1="88.78307526639585" x2="-33.51302331375717" y2="127.17727434730057" stroke-width="0.5" stroke="blue" />
<line x1="0.18606427060407071" y1="40.783075266395855" x2="20.20604521033595" y2="6.465352105234712" stroke-width="0.5" stroke="blue" />
<line x1="-47.81393572939593" y1="40.783075266395855" x2="-48.60619232148334" y2="5.773362732669423" stroke-width="0.5" stroke="blue" />
<line x1="-47.81393572939593" y1="40.783075266395855" x2="-79.70046577544275" y2="40.39576244060932" stroke-width="0.5" stroke="blue" />
<line x1="0.18606427060407071" y1="88.78307526639585" x2="38.34198165733821" y2="89.7195735146342" stroke-width="0.5" stroke="blue" />
<line x1="-47.81393572939593" y1="88.78307526639585" x2="-55.18862119372859" y2="123.64218516193009" stroke-width="0.5" stroke="blue" />
<line x1="0.18606427060407071" y1="43.42933507996254" x2="38.36307400851832" y2="43.42933857279299" stroke-width="0.5" stroke="blue" />
<line x1="-47.81393572939593" y1="88.78307526639585" x2="-85.9316180191085" y2="93.31680379303724" stroke-width="0.5" stroke="blue" />
<line x1="0.18606427060407071" y1="88.78307526639585" x2="10.755073308997709" y2="120.43367105905733" stroke-width="0.5" stroke="blue" />
<line x1="-8.0592192446967" y1="88.78307526639585" x2="-8.059222622424173" y2="127.14778280517982" stroke-width="0.5" stroke="blue" />
<line x1="38.20604521033595" y1="-11.534647894765289" x2="40.09469790273901" y2="-29.609239927635905" stroke-width="0.5" stroke="blue" />
<line x1="38.20604521033595" y1="6.465352105234712" x2="54.79762234407592" y2="9.078664724667336" stroke-width="0.5" stroke="blue" />
<line x1="-64.73913068739918" y1="-12.226637267330577" x2="-64.73912467470625" y2="-28.311610077223236" stroke-width="0.5" stroke="blue" />
<line x1="-48.60619232148334" y1="-12.226637267330577" x2="-32.55124258509178" y2="-12.27713864109867" stroke-width="0.5" stroke="blue" />
<line x1="-91.70046577544275" y1="28.395762440609317" x2="-92.89971557245225" y2="12.353747110002134" stroke-width="0.5" stroke="blue" />
<line x1="-91.70046577544275" y1="37.92738056802485" x2="-104.5889267881331" y2="37.927375667621625" stroke-width="0.5" stroke="blue" />
<line x1="62.34198165733821" y1="96.55706583959373" x2="88.04766468164352" y2="96.5570676930746" stroke-width="0.5" stroke="blue" />
<line x1="-59.62068305623147" y1="141.6421851619301" x2="-59.62068821015693" y2="157.74922135136177" stroke-width="0.5" stroke="blue" />
<line x1="-73.1886211937286" y1="141.6421851619301" x2="-95.55681003576437" y2="143.08343552571722" stroke-width="0.5" stroke="blue" />
<line x1="62.36307400851832" y1="46.075598386365535" x2="62.653325489638576" y2="58.9412085126327" stroke-width="0.5" stroke="blue" />
<line x1="-109.9316180191085" y1="93.31680379303724" x2="-129.07422066404064" y2="88.85630034678557" stroke-width="0.5" stroke="blue" />
<line x1="-109.9316180191085" y1="105.31680379303724" x2="-113.62935537597919" y2="118.1964915030322" stroke-width="0.5" stroke="blue" />
<line x1="22.75507330899771" y1="132.43367105905733" x2="23.884301644449017" y2="148.50363514427892" stroke-width="0.5" stroke="blue" />
<line x1="22.75507330899771" y1="124.01140754630218" x2="42.058242725938776" y2="124.01140758417961" stroke-width="0.5" stroke="blue" />
<line x1="-7.832690226550287" y1="151.14778280517982" x2="-7.832681535171474" y2="173.65763880700632" stroke-width="0.5" stroke="blue" />
<line x1="40.09469790273901" y1="-41.609239927635905" x2="34.7944530766695" y2="-59.71118653398099" stroke-width="0.5" stroke="blue" />
<line x1="52.09469790273901" y1="-41.609239927635905" x2="64.99205074488576" y2="-41.63159603451082" stroke-width="0.5" stroke="blue" />
<line x1="66.79762234407592" y1="9.078664724667336" x2="79.58227174428222" y2="3.7852007624181643" stroke-width="0.5" stroke="blue" />
<line x1="66.79762234407592" y1="21.078664724667334" x2="81.68333648542587" y2="28.59170485045395" stroke-width="0.5" stroke="blue" />
<line x1="-110.89971557245225" y1="-5.646252889997866" x2="-130.13678543850043" y2="-5.854172270981591" stroke-width="0.5" stroke="blue" />
<line x1="112.04766468164352" y1="103.39456001803413" x2="113.03624905674735" y2="116.25776505991897" stroke-width="0.5" stroke="blue" />
<line x1="-119.55681003576437" y1="143.08343552571722" x2="-144.9824085505093" y2="138.61198466987827" stroke-width="0.5" stroke="blue" />
<line x1="-95.55681003576437" y1="155.08343552571722" x2="-95.52028527504754" y2="174.32206722187792" stroke-width="0.5" stroke="blue" />
<line x1="-141.07422066404064" y1="88.85630034678557" x2="-144.90583493416753" y2="101.67660588109521" stroke-width="0.5" stroke="blue" />
<line x1="-141.07422066404064" y1="76.85630034678557" x2="-141.57152069571836" y2="63.99312854219456" stroke-width="0.5" stroke="blue" />
<line x1="-125.62935537597919" y1="130.1964915030322" x2="-138.88059839447928" y2="151.51700002229134" stroke-width="0.5" stroke="blue" />
<line x1="41.88430164444902" y1="166.50363514427892" x2="57.886379021261796" y2="171.90514875807833" stroke-width="0.5" stroke="blue" />
<line x1="41.88430164444902" y1="152.34101617503543" x2="57.97125018645107" y2="152.3410073417052" stroke-width="0.5" stroke="blue" />
<line x1="4.478410610367244" y1="191.65763880700632" x2="20.52998081809802" y2="192.2861241384017" stroke-width="0.5" stroke="blue" />
<line x1="24.289813939958524" y1="-77.71118653398099" x2="24.289814408326308" y2="-95.67595811295743" stroke-width="0.5" stroke="blue" />
<line x1="16.794453076669498" y1="-68.07504753229034" x2="-5.729692271445142" y2="-68.07503468037575" stroke-width="0.5" stroke="blue" />
<line x1="76.99205074488576" y1="-53.037686202468215" x2="89.89421405202052" y2="-53.037676859281696" stroke-width="0.5" stroke="blue" />
<line x1="91.58227174428222" y1="-8.214799237581836" x2="95.40573899324603" y2="-21.057895468745087" stroke-width="0.5" stroke="blue" />
<line x1="93.68333648542587" y1="28.622868039301878" x2="106.55146924611581" y2="28.622871329691137" stroke-width="0.5" stroke="blue" />
<line x1="93.68333648542587" y1="40.59170485045395" x2="106.47049822798616" y2="48.00619417075921" stroke-width="0.5" stroke="blue" />
<line x1="125.03624905674735" y1="128.25776505991897" x2="125.63489224493864" y2="144.30925833987666" stroke-width="0.5" stroke="blue" />
<line x1="-168.9824085505093" y1="130.65445025555331" x2="-188.29857668304604" y2="130.65444605583863" stroke-width="0.5" stroke="blue" />
<line x1="-150.88059839447928" y1="163.51700002229134" x2="-163.7324367175324" y2="166.18885575595576" stroke-width="0.5" stroke="blue" />
<line x1="-138.88059839447928" y1="163.51700002229134" x2="-126.18313215593204" y2="174.40849182979034" stroke-width="0.5" stroke="blue" />
<line x1="37.78517527161525" y1="-107.67595811295743" x2="40.07615180436402" y2="-120.53760431808196" stroke-width="0.5" stroke="blue" />
<line x1="13.785175271615252" y1="-107.67595811295743" x2="11.55874658828815" y2="-123.8323407681097" stroke-width="0.5" stroke="blue" />
<line x1="-29.729692271445142" y1="-70.4388956786862" x2="-34.94295762244076" y2="-83.27407462066722" stroke-width="0.5" stroke="blue" />
<line x1="101.89421405202052" y1="-76.44376702723787" x2="139.61170872535004" y2="-77.57257832188634" stroke-width="0.5" stroke="blue" />
<line x1="101.89421405202052" y1="-70.6354665139326" x2="114.73946645205366" y2="-70.63546158048202" stroke-width="0.5" stroke="blue" />
<line x1="107.40573899324603" y1="-21.057895468745087" x2="110.98829431539215" y2="-8.251131131461378" stroke-width="0.5" stroke="blue" />
<line x1="-163.7324367175324" y1="178.18885575595576" x2="-160.3551127341325" y2="194.19846148494238" stroke-width="0.5" stroke="blue" />
<line x1="-175.7324367175324" y1="178.18885575595576" x2="-182.94862408971036" y2="190.98841295173708" stroke-width="0.5" stroke="blue" />
<line x1="52.07615180436402" y1="-132.53760431808195" x2="64.84984559556774" y2="-141.31051437809145" stroke-width="0.5" stroke="blue" />
<line x1="52.07615180436402" y1="-121.19700326927912" x2="64.95130557583022" y2="-121.19699275303188" stroke-width="0.5" stroke="blue" />
<line x1="11.55874658828815" y1="-141.8323407681097" x2="30.650637453001636" y2="-148.68157715114984" stroke-width="0.5" stroke="blue" />
<line x1="-6.44125341171185" y1="-141.8323407681097" x2="-8.054881979658195" y2="-157.91509889816396" stroke-width="0.5" stroke="blue" />
<line x1="-58.94295762244076" y1="-83.27407462066722" x2="-62.43226986326586" y2="-70.39803980296603" stroke-width="0.5" stroke="blue" />
<line x1="-58.94295762244076" y1="-95.27407462066722" x2="-60.396654307427426" y2="-108.15632028516634" stroke-width="0.5" stroke="blue" />
<line x1="151.61170872535004" y1="-89.57257832188634" x2="164.44248897373876" y2="-93.75162842040359" stroke-width="0.5" stroke="blue" />
<line x1="151.61170872535004" y1="-77.57257832188634" x2="164.49936624063338" y2="-74.35637894090064" stroke-width="0.5" stroke="blue" />
<line x1="126.73946645205366" y1="-64.82716106717675" x2="139.58832778317094" y2="-64.5918546453913" stroke-width="0.5" stroke="blue" />
<line x1="126.73946645205366" y1="-88.82716106717675" x2="127.55385199317004" y2="-111.22200998273037" stroke-width="0.5" stroke="blue" />
<line x1="134.98829431539215" y1="3.7488688685386213" x2="135.70492486163448" y2="19.800229381331075" stroke-width="0.5" stroke="blue" />
<line x1="-206.94862408971036" y1="202.98841295173708" x2="-208.01556986811386" y2="219.03952553916687" stroke-width="0.5" stroke="blue" />
<line x1="-206.94862408971036" y1="190.98841295173708" x2="-207.3854269695911" y2="178.12573246052054" stroke-width="0.5" stroke="blue" />
<line x1="76.84984559556774" y1="-165.31051437809145" x2="92.81117761099607" y2="-173.4615217062282" stroke-width="0.5" stroke="blue" />
<line x1="76.95130557583022" y1="-112.06369034570265" x2="89.85522432479432" y2="-112.06369301194775" stroke-width="0.5" stroke="blue" />
<line x1="-8.054881979658195" y1="-169.91509889816396" x2="-1.8418664056240415" y2="-189.04990308630266" stroke-width="0.5" stroke="blue" />
<line x1="-32.05488197965819" y1="-169.91509889816396" x2="-39.49872781996354" y2="-182.71437795655999" stroke-width="0.5" stroke="blue" />
<line x1="-86.43226986326586" y1="-58.398039802966025" x2="-87.84431653113298" y2="-45.54111585530421" stroke-width="0.5" stroke="blue" />
<line x1="-86.43226986326586" y1="-70.39803980296603" x2="-88.32157528575124" y2="-83.23137218847786" stroke-width="0.5" stroke="blue" />
<line x1="-60.396654307427426" y1="-120.15632028516634" x2="-57.25316984679036" y2="-132.99192179667017" stroke-width="0.5" stroke="blue" />
<line x1="-72.39665430742743" y1="-120.15632028516634" x2="-76.64959297427167" y2="-133.00728004025402" stroke-width="0.5" stroke="blue" />
<line x1="176.44248897373876" y1="-117.75162842040359" x2="189.31039551625184" y2="-118.30681428174088" stroke-width="0.5" stroke="blue" />
<line x1="176.49936624063338" y1="-74.35637894090064" x2="195.74637401667613" y2="-74.71361558337894" stroke-width="0.5" stroke="blue" />
<line x1="-226.01556986811386" y1="237.03952553916687" x2="-242.06747122197407" y2="237.6609260643239" stroke-width="0.5" stroke="blue" />
<line x1="110.81117761099607" y1="-173.4615217062282" x2="111.41246157955905" y2="-157.4321606041018" stroke-width="0.5" stroke="blue" />
<line x1="110.81117761099607" y1="-191.4615217062282" x2="126.85922645956339" y2="-193.04668075605466" stroke-width="0.5" stroke="blue" />
<line x1="-1.8418664056240415" y1="-213.04990308630266" x2="-17.856307765521464" y2="-215.15978296038637" stroke-width="0.5" stroke="blue" />
<line x1="-51.49872781996354" y1="-194.71437795655999" x2="-64.37781560052488" y2="-196.8151493812071" stroke-width="0.5" stroke="blue" />
<line x1="-51.49872781996354" y1="-183.28001111441927" x2="-64.3749422244844" y2="-183.28001956227385" stroke-width="0.5" stroke="blue" />
<line x1="-99.84431653113298" y1="-45.54111585530421" x2="-115.90066214930437" y2="-45.752722210971825" stroke-width="0.5" stroke="blue" />
<line x1="-100.32157528575124" y1="-95.23137218847786" x2="-113.19068175496939" y2="-95.47980008936561" stroke-width="0.5" stroke="blue" />
<line x1="-88.64959297427167" y1="-145.00728004025402" x2="-101.51535462821337" y2="-145.4502234443989" stroke-width="0.5" stroke="blue" />
<line x1="-88.43736667798917" y1="-133.00728004025402" x2="-88.43736136496167" y2="-120.15649639469197" stroke-width="0.5" stroke="blue" />
<line x1="201.31039551625184" y1="-142.30681428174088" x2="220.54374623335514" y2="-142.80045492018024" stroke-width="0.5" stroke="blue" />
<line x1="219.74637401667613" y1="-86.71361558337894" x2="220.48912585532582" y2="-102.76422326208126" stroke-width="0.5" stroke="blue" />
<line x1="-254.06747122197407" y1="249.6609260643239" x2="-266.93334465238917" y2="249.91518676449624" stroke-width="0.5" stroke="blue" />
<line x1="138.8592264595634" y1="-217.04668075605466" x2="151.7221473881854" y2="-218.0278271995317" stroke-width="0.5" stroke="blue" />
<line x1="138.8592264595634" y1="-195.82069092745698" x2="158.14428770347584" y2="-195.8206906994132" stroke-width="0.5" stroke="blue" />
<line x1="-17.856307765521464" y1="-233.15978296038637" x2="-17.183635127052373" y2="-249.21062145944225" stroke-width="0.5" stroke="blue" />
<line x1="-35.856307765521464" y1="-233.15978296038637" x2="-36.62343775300709" y2="-249.21235511911289" stroke-width="0.5" stroke="blue" />
<line x1="-76.37781560052488" y1="-208.8151493812071" x2="-83.3737494696535" y2="-221.61068348070393" stroke-width="0.5" stroke="blue" />
<line x1="-64.37781560052488" y1="-208.8151493812071" x2="-64.0046477215447" y2="-221.67987433593626" stroke-width="0.5" stroke="blue" />
</svg>