<svg width="100%" height="100%" viewBox="-242.957 -188.405 461.168 388.383"  xmlns="http://www.w3.org/2000/svg" xmlns:xlink="http://www.w3.org/1999/xlink" version="1.1">
<rect x="-37.2078" y="-40.6572" width="60" height="60" fill="yellow" stroke="black" stroke-width="0.5"><title>room 0</title></rect><rect x="-26.4578" y="-29.9072" width="2.5" height="2.5" fill="red" stroke="black" stroke-width="0.5"></rect><rect x="1.49919" y="-29.9072" width="2.5" height="2.5" fill="red" stroke="black" stroke-width="0.5"></rect><rect x="9.54218" y="6.09284" width="2.5" height="2.5" fill="red" stroke="black" stroke-width="0.5"></rect><rect x="9.54218" y="-29.9072" width="2.5" height="2.5" fill="red" stroke="black" stroke-width="0.5"></rect><rect x="-26.4578" y="-29.9072" width="2.5" height="2.5" fill="red" stroke="black" stroke-width="0.5"></rect>
<rect x="-76.6002" y="-49.837" width="20" height="20" fill="yellow" stroke="black" stroke-width="0.5"><title>room 1</title></rect><rect x="-61.8502" y="-35.087" width="2.5" height="2.5" fill="red" stroke="black" stroke-width="0.5"></rect><rect x="-71.1336" y="-35.087" width="2.5" height="2.5" fill="red" stroke="black" stroke-width="0.5"></rect><rect x="-73.8502" y="-47.087" width="2.5" height="2.5" fill="red" stroke="black" stroke-width="0.5"></rect><rect x="-73.8502" y="-41.1572" width="2.5" height="2.5" fill="red" stroke="black" stroke-width="0.5"></rect>
<rect x="-5.98769" y="-105.007" width="20" height="40" fill="yellow" stroke="black" stroke-width="0.5"><title>room 2</title></rect><rect x="1.49919" y="-74.2568" width="2.5" height="2.5" fill="red" stroke="black" stroke-width="0.5"></rect><rect x="8.76231" y="-98.2568" width="2.5" height="2.5" fill="red" stroke="black" stroke-width="0.5"></rect>
<rect x="46.6572" y="14.4588" width="40" height="40" fill="yellow" stroke="black" stroke-width="0.5"><title>room 3</title></rect><rect x="53.4072" y="21.2088" width="2.5" height="2.5" fill="red" stroke="black" stroke-width="0.5"></rect><rect x="53.4072" y="45.2088" width="2.5" height="2.5" fill="red" stroke="black" stroke-width="0.5"></rect><rect x="77.4072" y="43.6879" width="2.5" height="2.5" fill="red" stroke="black" stroke-width="0.5"></rect>
<rect x="42.196" y="-50.3399" width="20" height="20" fill="yellow" stroke="black" stroke-width="0.5"><title>room 4</title></rect><rect x="44.946" y="-35.5899" width="2.5" height="2.5" fill="red" stroke="black" stroke-width="0.5"></rect><rect x="56.946" y="-47.5899" width="2.5" height="2.5" fill="red" stroke="black" stroke-width="0.5"></rect><rect x="44.946" y="-47.5899" width="2.5" height="2.5" fill="red" stroke="black" stroke-width="0.5"></rect>
<rect x="-60.8555" y="-104.813" width="40" height="40" fill="yellow" stroke="black" stroke-width="0.5"><title>room 5</title></rect><rect x="-30.1055" y="-74.0625" width="2.5" height="2.5" fill="red" stroke="black" stroke-width="0.5"></rect>
<rect x="-83.167" y="-15.063" width="20" height="40" fill="yellow" stroke="black" stroke-width="0.5"><title>room 6</title></rect><rect x="-71.1336" y="-8.31297" width="2.5" height="2.5" fill="red" stroke="black" stroke-width="0.5"></rect><rect x="-80.417" y="-6.83921" width="2.5" height="2.5" fill="red" stroke="black" stroke-width="0.5"></rect><rect x="-80.417" y="15.687" width="2.5" height="2.5" fill="red" stroke="black" stroke-width="0.5"></rect><rect x="-68.417" y="15.687" width="2.5" height="2.5" fill="red" stroke="black" stroke-width="0.5"></rect>
<rect x="-106.415" y="-79.8474" width="20" height="20" fill="yellow" stroke="black" stroke-width="0.5"><title>room 7</title></rect><rect x="-91.665" y="-65.0974" width="2.5" height="2.5" fill="red" stroke="black" stroke-width="0.5"></rect><rect x="-103.665" y="-77.0974" width="2.5" height="2.5" fill="red" stroke="black" stroke-width="0.5"></rect><rect x="-92.3606" y="-77.0974" width="2.5" height="2.5" fill="red" stroke="black" stroke-width="0.5"></rect><rect x="-103.665" y="-65.0974" width="2.5" height="2.5" fill="red" stroke="black" stroke-width="0.5"></rect>
<rect x="-106.433" y="-49.9775" width="20" height="20" fill="yellow" stroke="black" stroke-width="0.5"><title>room 8</title></rect><rect x="-91.6831" y="-41.1572" width="2.5" height="2.5" fill="red" stroke="black" stroke-width="0.5"></rect>
<rect x="23.8269" y="-113.837" width="20" height="20" fill="yellow" stroke="black" stroke-width="0.5"><title>room 9</title></rect><rect x="26.5769" y="-99.0872" width="2.5" height="2.5" fill="red" stroke="black" stroke-width="0.5"></rect><rect x="38.5769" y="-111.087" width="2.5" height="2.5" fill="red" stroke="black" stroke-width="0.5"></rect>
<rect x="22.9577" y="68.8258" width="20" height="20" fill="yellow" stroke="black" stroke-width="0.5"><title>room 10</title></rect><rect x="37.7077" y="71.5758" width="2.5" height="2.5" fill="red" stroke="black" stroke-width="0.5"></rect><rect x="35.5921" y="83.5758" width="2.5" height="2.5" fill="red" stroke="black" stroke-width="0.5"></rect><rect x="25.7077" y="83.5758" width="2.5" height="2.5" fill="red" stroke="black" stroke-width="0.5"></rect><rect x="25.7077" y="71.5758" width="2.5" height="2.5" fill="red" stroke="black" stroke-width="0.5"></rect>
<rect x="101.358" y="39.417" width="20" height="20" fill="yellow" stroke="black" stroke-width="0.5"><title>room 11</title></rect><rect x="104.108" y="43.6879" width="2.5" height="2.5" fill="red" stroke="black" stroke-width="0.5"></rect><rect x="116.108" y="42.167" width="2.5" height="2.5" fill="red" stroke="black" stroke-width="0.5"></rect><rect x="116.108" y="54.167" width="2.5" height="2.5" fill="red" stroke="black" stroke-width="0.5"></rect><rect x="105.497" y="54.167" width="2.5" height="2.5" fill="red" stroke="black" stroke-width="0.5"></rect>
<rect x="60.0912" y="-80.0882" width="40" height="20" fill="yellow" stroke="black" stroke-width="0.5"><title>room 12</title></rect><rect x="66.8412" y="-65.3382" width="2.5" height="2.5" fill="red" stroke="black" stroke-width="0.5"></rect><rect x="90.8412" y="-77.3382" width="2.5" height="2.5" fill="red" stroke="black" stroke-width="0.5"></rect><rect x="67.6686" y="-77.3382" width="2.5" height="2.5" fill="red" stroke="black" stroke-width="0.5"></rect>
<rect x="25.2443" y="-80.1321" width="20" height="20" fill="yellow" stroke="black" stroke-width="0.5"><title>room 13</title></rect><rect x="39.9943" y="-65.3821" width="2.5" height="2.5" fill="red" stroke="black" stroke-width="0.5"></rect>
<rect x="-113.009" y="-20.1155" width="20" height="20" fill="yellow" stroke="black" stroke-width="0.5"><title>room 14</title></rect><rect x="-98.2591" y="-6.83921" width="2.5" height="2.5" fill="red" stroke="black" stroke-width="0.5"></rect>
<rect x="-137.787" y="14.6227" width="40" height="40" fill="yellow" stroke="black" stroke-width="0.5"><title>room 15</title></rect><rect x="-107.037" y="21.3727" width="2.5" height="2.5" fill="red" stroke="black" stroke-width="0.5"></rect><rect x="-131.037" y="45.3727" width="2.5" height="2.5" fill="red" stroke="black" stroke-width="0.5"></rect>
<rect x="-72.7253" y="44.3953" width="40" height="40" fill="yellow" stroke="black" stroke-width="0.5"><title>room 16</title></rect><rect x="-65.9753" y="51.1453" width="2.5" height="2.5" fill="red" stroke="black" stroke-width="0.5"></rect><rect x="-65.9753" y="75.1453" width="2.5" height="2.5" fill="red" stroke="black" stroke-width="0.5"></rect>
<rect x="-136.303" y="-95.5381" width="20" height="20" fill="yellow" stroke="black" stroke-width="0.5"><title>room 17</title></rect><rect x="-121.553" y="-80.7881" width="2.5" height="2.5" fill="red" stroke="black" stroke-width="0.5"></rect><rect x="-133.553" y="-80.7881" width="2.5" height="2.5" fill="red" stroke="black" stroke-width="0.5"></rect><rect x="-127.393" y="-92.7881" width="2.5" height="2.5" fill="red" stroke="black" stroke-width="0.5"></rect><rect x="-133.553" y="-92.7881" width="2.5" height="2.5" fill="red" stroke="black" stroke-width="0.5"></rect>
<rect x="-95.8061" y="-134.529" width="20" height="40" fill="yellow" stroke="black" stroke-width="0.5"><title>room 18</title></rect><rect x="-92.3606" y="-103.779" width="2.5" height="2.5" fill="red" stroke="black" stroke-width="0.5"></rect>
<rect x="-136.234" y="-65.6083" width="20" height="20" fill="yellow" stroke="black" stroke-width="0.5"><title>room 19</title></rect><rect x="-121.484" y="-62.8583" width="2.5" height="2.5" fill="red" stroke="black" stroke-width="0.5"></rect><rect x="-133.484" y="-50.8583" width="2.5" height="2.5" fill="red" stroke="black" stroke-width="0.5"></rect>
<rect x="34.08" y="-156.089" width="30" height="30" fill="yellow" stroke="black" stroke-width="0.5"><title>room 20</title></rect><rect x="38.83" y="-133.339" width="2.5" height="2.5" fill="red" stroke="black" stroke-width="0.5"></rect>
<rect x="28.7265" y="101.109" width="30" height="30" fill="yellow" stroke="black" stroke-width="0.5"><title>room 21</title></rect><rect x="35.5921" y="105.859" width="2.5" height="2.5" fill="red" stroke="black" stroke-width="0.5"></rect><rect x="51.4765" y="123.859" width="2.5" height="2.5" fill="red" stroke="black" stroke-width="0.5"></rect><rect x="33.4765" y="123.859" width="2.5" height="2.5" fill="red" stroke="black" stroke-width="0.5"></rect>
<rect x="-6.84556" y="86.3516" width="20" height="20" fill="yellow" stroke="black" stroke-width="0.5"><title>room 22</title></rect><rect x="7.90444" y="89.1016" width="2.5" height="2.5" fill="red" stroke="black" stroke-width="0.5"></rect><rect x="-4.09556" y="101.102" width="2.5" height="2.5" fill="red" stroke="black" stroke-width="0.5"></rect>
<rect x="-12.9856" y="39.0853" width="40" height="20" fill="yellow" stroke="black" stroke-width="0.5"><title>room 23</title></rect><rect x="17.7644" y="53.8353" width="2.5" height="2.5" fill="red" stroke="black" stroke-width="0.5"></rect>
<rect x="114.748" y="9.53232" width="20" height="20" fill="yellow" stroke="black" stroke-width="0.5"><title>room 24</title></rect><rect x="117.498" y="24.2823" width="2.5" height="2.5" fill="red" stroke="black" stroke-width="0.5"></rect><rect x="129.498" y="12.2823" width="2.5" height="2.5" fill="red" stroke="black" stroke-width="0.5"></rect><rect x="117.498" y="12.2823" width="2.5" height="2.5" fill="red" stroke="black" stroke-width="0.5"></rect><rect x="129.498" y="20.5629" width="2.5" height="2.5" fill="red" stroke="black" stroke-width="0.5"></rect>
<rect x="133.509" y="56.9014" width="30" height="30" fill="yellow" stroke="black" stroke-width="0.5"><title>room 25</title></rect><rect x="138.259" y="61.6514" width="2.5" height="2.5" fill="red" stroke="black" stroke-width="0.5"></rect><rect x="156.259" y="79.6514" width="2.5" height="2.5" fill="red" stroke="black" stroke-width="0.5"></rect>
<rect x="76.1363" y="74.1291" width="40" height="40" fill="yellow" stroke="black" stroke-width="0.5"><title>room 26</title></rect><rect x="105.497" y="80.8791" width="2.5" height="2.5" fill="red" stroke="black" stroke-width="0.5"></rect><rect x="106.886" y="104.879" width="2.5" height="2.5" fill="red" stroke="black" stroke-width="0.5"></rect>
<rect x="88.6076" y="-109.903" width="40" height="20" fill="yellow" stroke="black" stroke-width="0.5"><title>room 27</title></rect><rect x="95.3576" y="-95.1526" width="2.5" height="2.5" fill="red" stroke="black" stroke-width="0.5"></rect><rect x="95.3576" y="-107.153" width="2.5" height="2.5" fill="red" stroke="black" stroke-width="0.5"></rect><rect x="119.358" y="-107.153" width="2.5" height="2.5" fill="red" stroke="black" stroke-width="0.5"></rect>
<rect x="53.7459" y="-109.924" width="20" height="20" fill="yellow" stroke="black" stroke-width="0.5"><title>room 28</title></rect><rect x="67.6686" y="-95.1744" width="2.5" height="2.5" fill="red" stroke="black" stroke-width="0.5"></rect>
<rect x="-172.449" y="43.4412" width="20" height="20" fill="yellow" stroke="black" stroke-width="0.5"><title>room 29</title></rect><rect x="-157.699" y="46.1912" width="2.5" height="2.5" fill="red" stroke="black" stroke-width="0.5"></rect><rect x="-163.577" y="58.1912" width="2.5" height="2.5" fill="red" stroke="black" stroke-width="0.5"></rect><rect x="-169.699" y="58.1912" width="2.5" height="2.5" fill="red" stroke="black" stroke-width="0.5"></rect><rect x="-169.699" y="46.1912" width="2.5" height="2.5" fill="red" stroke="black" stroke-width="0.5"></rect>
<rect x="-93.8359" y="101.467" width="30" height="30" fill="yellow" stroke="black" stroke-width="0.5"><title>room 30</title></rect><rect x="-71.0859" y="106.217" width="2.5" height="2.5" fill="red" stroke="black" stroke-width="0.5"></rect><rect x="-89.0859" y="106.217" width="2.5" height="2.5" fill="red" stroke="black" stroke-width="0.5"></rect><rect x="-89.0859" y="124.217" width="2.5" height="2.5" fill="red" stroke="black" stroke-width="0.5"></rect><rect x="-71.0859" y="115.32" width="2.5" height="2.5" fill="red" stroke="black" stroke-width="0.5"></rect>
<rect x="-178.556" y="-78.5454" width="30" height="30" fill="yellow" stroke="black" stroke-width="0.5"><title>room 31</title></rect><rect x="-155.806" y="-73.7954" width="2.5" height="2.5" fill="red" stroke="black" stroke-width="0.5"></rect>
<rect x="-135.984" y="-125.404" width="20" height="20" fill="yellow" stroke="black" stroke-width="0.5"><title>room 32</title></rect><rect x="-127.393" y="-110.654" width="2.5" height="2.5" fill="red" stroke="black" stroke-width="0.5"></rect>
<rect x="-178.441" y="-123.373" width="30" height="30" fill="yellow" stroke="black" stroke-width="0.5"><title>room 33</title></rect><rect x="-155.691" y="-100.623" width="2.5" height="2.5" fill="red" stroke="black" stroke-width="0.5"></rect>
<rect x="-148.679" y="-35.7821" width="20" height="20" fill="yellow" stroke="black" stroke-width="0.5"><title>room 34</title></rect><rect x="-133.929" y="-33.0321" width="2.5" height="2.5" fill="red" stroke="black" stroke-width="0.5"></rect>
<rect x="51.2431" y="145.719" width="30" height="30" fill="yellow" stroke="black" stroke-width="0.5"><title>room 35</title></rect><rect x="55.9931" y="150.469" width="2.5" height="2.5" fill="red" stroke="black" stroke-width="0.5"></rect>
<rect x="6.3884" y="145.722" width="30" height="30" fill="yellow" stroke="black" stroke-width="0.5"><title>room 36</title></rect><rect x="29.1384" y="150.472" width="2.5" height="2.5" fill="red" stroke="black" stroke-width="0.5"></rect>
<rect x="134.533" y="-20.2218" width="20" height="20" fill="yellow" stroke="black" stroke-width="0.5"><title>room 37</title></rect><rect x="137.283" y="-5.47179" width="2.5" height="2.5" fill="red" stroke="black" stroke-width="0.5"></rect>
<rect x="79.7056" y="-20.2755" width="40" height="20" fill="yellow" stroke="black" stroke-width="0.5"><title>room 38</title></rect><rect x="110.456" y="-5.52547" width="2.5" height="2.5" fill="red" stroke="black" stroke-width="0.5"></rect>
<rect x="147.042" y="12.0934" width="30" height="30" fill="yellow" stroke="black" stroke-width="0.5"><title>room 39</title></rect><rect x="151.792" y="20.5629" width="2.5" height="2.5" fill="red" stroke="black" stroke-width="0.5"></rect>
<rect x="149.894" y="99.1522" width="40" height="20" fill="yellow" stroke="black" stroke-width="0.5"><title>room 40</title></rect><rect x="156.644" y="101.902" width="2.5" height="2.5" fill="red" stroke="black" stroke-width="0.5"></rect>
<rect x="104.556" y="128.791" width="20" height="20" fill="yellow" stroke="black" stroke-width="0.5"><title>room 41</title></rect><rect x="107.306" y="131.541" width="2.5" height="2.5" fill="red" stroke="black" stroke-width="0.5"></rect>
<rect x="79.356" y="-164.557" width="20" height="40" fill="yellow" stroke="black" stroke-width="0.5"><title>room 42</title></rect><rect x="94.106" y="-133.807" width="2.5" height="2.5" fill="red" stroke="black" stroke-width="0.5"></rect>
<rect x="114.239" y="-139.727" width="40" height="20" fill="yellow" stroke="black" stroke-width="0.5"><title>room 43</title></rect><rect x="120.989" y="-124.977" width="2.5" height="2.5" fill="red" stroke="black" stroke-width="0.5"></rect>
<rect x="-172.204" y="78.1758" width="20" height="40" fill="yellow" stroke="black" stroke-width="0.5"><title>room 44</title></rect><rect x="-163.577" y="84.9258" width="2.5" height="2.5" fill="red" stroke="black" stroke-width="0.5"></rect>
<rect x="-214.639" y="58.7828" width="30" height="30" fill="yellow" stroke="black" stroke-width="0.5"><title>room 45</title></rect><rect x="-191.889" y="63.5328" width="2.5" height="2.5" fill="red" stroke="black" stroke-width="0.5"></rect>
<rect x="-202.223" y="26.4095" width="20" height="20" fill="yellow" stroke="black" stroke-width="0.5"><title>room 46</title></rect><rect x="-187.473" y="41.1595" width="2.5" height="2.5" fill="red" stroke="black" stroke-width="0.5"></rect>
<rect x="-132.373" y="69.4228" width="40" height="20" fill="yellow" stroke="black" stroke-width="0.5"><title>room 47</title></rect><rect x="-101.623" y="84.1728" width="2.5" height="2.5" fill="red" stroke="black" stroke-width="0.5"></rect>
<rect x="-112.181" y="146.13" width="30" height="30" fill="yellow" stroke="black" stroke-width="0.5"><title>room 48</title></rect><rect x="-89.4308" y="150.88" width="2.5" height="2.5" fill="red" stroke="black" stroke-width="0.5"></rect>
<rect x="-49.0739" y="101.673" width="30" height="30" fill="yellow" stroke="black" stroke-width="0.5"><title>room 49</title></rect><rect x="-26.3239" y="106.423" width="2.5" height="2.5" fill="red" stroke="black" stroke-width="0.5"></rect><rect x="-44.3239" y="115.32" width="2.5" height="2.5" fill="red" stroke="black" stroke-width="0.5"></rect>
<line x1="-25.20781691871461" y1="-28.657160327380968" x2="-60.60019581684979" y2="-33.83698367821378" stroke-width="0.5" stroke="blue" />
<line x1="2.749189505192949" y1="-28.657160327380968" x2="2.749193220107294" y2="-73.00679221398312" stroke-width="0.5" stroke="blue" />
<line x1="10.79218308128539" y1="7.342839672619032" x2="54.65720576109021" y2="22.458825404808714" stroke-width="0.5" stroke="blue" />
<line x1="10.79218308128539" y1="-28.657160327380968" x2="46.19603783789513" y2="-34.33988146240637" stroke-width="0.5" stroke="blue" />
<line x1="-25.20781691871461" y1="-28.657160327380968" x2="-28.85553996253946" y2="-72.81251537144783" stroke-width="0.5" stroke="blue" />
<line x1="-69.8836206200759" y1="-33.83698367821378" x2="-69.88362240650247" y2="-7.062968874477342" stroke-width="0.5" stroke="blue" />
<line x1="-72.60019581684979" y1="-45.83698367821378" x2="-90.41504522713116" y2="-63.84742190144432" stroke-width="0.5" stroke="blue" />
<line x1="-72.60019581684979" y1="-39.90724667618566" x2="-90.4331470776823" y2="-39.907236448734594" stroke-width="0.5" stroke="blue" />
<line x1="10.012305414879194" y1="-97.00679221398312" x2="27.82688488350358" y2="-97.83721787508051" stroke-width="0.5" stroke="blue" />
<line x1="54.65720576109021" y1="46.458825404808714" x2="38.95766425734738" y2="72.82580558604361" stroke-width="0.5" stroke="blue" />
<line x1="78.65720576109021" y1="44.93793271422893" x2="105.35752928476408" y2="44.93792561907386" stroke-width="0.5" stroke="blue" />
<line x1="58.19603783789513" y1="-46.33988146240637" x2="68.09124732478502" y2="-64.08822692144" stroke-width="0.5" stroke="blue" />
<line x1="46.19603783789513" y1="-46.33988146240637" x2="41.24432548623723" y2="-64.13208316384237" stroke-width="0.5" stroke="blue" />
<line x1="-79.16704720972858" y1="-5.589211852518529" x2="-97.00905064275213" y2="-5.589208828344659" stroke-width="0.5" stroke="blue" />
<line x1="-79.16704720972858" y1="16.937031125522658" x2="-105.78706146270639" y2="22.62269628969692" stroke-width="0.5" stroke="blue" />
<line x1="-67.16704720972858" y1="16.937031125522658" x2="-64.7252822985754" y2="52.39534681720697" stroke-width="0.5" stroke="blue" />
<line x1="-102.41504522713116" y1="-75.84742190144432" x2="-120.30276508255982" y2="-79.53806497641405" stroke-width="0.5" stroke="blue" />
<line x1="-91.11058358812453" y1="-75.84742190144432" x2="-91.11059270429531" y2="-102.52897917196948" stroke-width="0.5" stroke="blue" />
<line x1="-102.41504522713116" y1="-63.84742190144432" x2="-120.23414794328066" y2="-61.6082899666409" stroke-width="0.5" stroke="blue" />
<line x1="39.82688488350358" y1="-109.83721787508051" x2="40.079965933359524" y2="-132.08893268595406" stroke-width="0.5" stroke="blue" />
<line x1="36.8420824784801" y1="84.82580558604361" x2="36.84207698847976" y2="107.10880711692192" stroke-width="0.5" stroke="blue" />
<line x1="26.957664257347382" y1="84.82580558604361" x2="9.15444385666337" y2="90.35156996607765" stroke-width="0.5" stroke="blue" />
<line x1="26.957664257347382" y1="72.82580558604361" x2="19.014446562181604" y2="55.0852768604727" stroke-width="0.5" stroke="blue" />
<line x1="117.35752928476408" y1="43.41703292849371" x2="118.74792453289304" y2="25.532323681345964" stroke-width="0.5" stroke="blue" />
<line x1="117.35752928476408" y1="55.41703292849371" x2="139.5086246693847" y2="62.901381034043055" stroke-width="0.5" stroke="blue" />
<line x1="106.74692771479675" y1="55.41703292849371" x2="106.74692388961026" y2="82.1290773776693" stroke-width="0.5" stroke="blue" />
<line x1="92.09124732478502" y1="-76.08822692144" x2="96.60759398399095" y2="-93.90256272866259" stroke-width="0.5" stroke="blue" />
<line x1="68.91857478214483" y1="-76.08822692144" x2="68.91857446946582" y2="-93.9244040951839" stroke-width="0.5" stroke="blue" />
<line x1="-129.7870614627064" y1="46.62269628969692" x2="-156.44923616386933" y2="47.44121851989547" stroke-width="0.5" stroke="blue" />
<line x1="-64.7252822985754" y1="76.39534681720697" x2="-69.83585157302359" y2="107.46732867798416" stroke-width="0.5" stroke="blue" />
<line x1="-132.3027650825598" y1="-79.53806497641405" x2="-154.55634433585297" y2="-72.54544807600438" stroke-width="0.5" stroke="blue" />
<line x1="-126.14313526566032" y1="-91.53806497641405" x2="-126.14313622918154" y2="-109.40373402472996" stroke-width="0.5" stroke="blue" />
<line x1="-132.3027650825598" y1="-91.53806497641405" x2="-154.44116513792093" y2="-99.37266147784086" stroke-width="0.5" stroke="blue" />
<line x1="-132.23414794328068" y1="-49.6082899666409" x2="-132.67895643746726" y2="-31.782080972932643" stroke-width="0.5" stroke="blue" />
<line x1="52.72649520961242" y1="125.10880711692192" x2="57.24307835364887" y2="151.71907012789347" stroke-width="0.5" stroke="blue" />
<line x1="34.72649520961242" y1="125.10880711692192" x2="30.388400345058233" y2="151.72192908945644" stroke-width="0.5" stroke="blue" />
<line x1="-2.84555614333663" y1="102.35156996607765" x2="-25.073913483020647" y2="107.67266324981169" stroke-width="0.5" stroke="blue" />
<line x1="130.74792453289302" y1="13.532323681345964" x2="138.5325228225472" y2="-4.221793620607166" stroke-width="0.5" stroke="blue" />
<line x1="118.74792453289304" y1="13.532323681345964" x2="111.70564633066454" y2="-4.275465482969105" stroke-width="0.5" stroke="blue" />
<line x1="130.74792453289302" y1="21.812884968521665" x2="153.04176446614446" y2="21.81287697835788" stroke-width="0.5" stroke="blue" />
<line x1="157.5086246693847" y1="80.90138103404306" x2="157.89429682323652" y2="103.15220642339557" stroke-width="0.5" stroke="blue" />
<line x1="108.13632231964296" y1="106.1290773776693" x2="108.55560412284028" y2="132.79069831569788" stroke-width="0.5" stroke="blue" />
<line x1="96.60759398399095" y1="-105.90256272866259" x2="95.35601022430191" y2="-132.5567589483879" stroke-width="0.5" stroke="blue" />
<line x1="120.60759398399095" y1="-105.90256272866259" x2="122.23853800390276" y2="-123.72650929785087" stroke-width="0.5" stroke="blue" />
<line x1="-162.3267482915482" y1="59.44121851989547" x2="-162.3267474145779" y2="86.17578973912214" stroke-width="0.5" stroke="blue" />
<line x1="-168.44923616386933" y1="59.44121851989547" x2="-190.6393459463382" y2="64.78282650757126" stroke-width="0.5" stroke="blue" />
<line x1="-168.44923616386933" y1="47.44121851989547" x2="-186.22296444434855" y2="42.40949063848744" stroke-width="0.5" stroke="blue" />
<line x1="-87.83585157302359" y1="107.46732867798416" x2="-100.37318418475468" y2="85.42281210795008" stroke-width="0.5" stroke="blue" />
<line x1="-87.83585157302359" y1="125.46732867798416" x2="-88.18077993926265" y2="152.12996946782482" stroke-width="0.5" stroke="blue" />
<line x1="-69.83585157302359" y1="116.56999811532258" x2="-43.07391348302065" y2="116.56999381247327" stroke-width="0.5" stroke="blue" />
</svg>