<svg width="100%" height="100%" viewBox="-196.974 -202.451 388.247 418.984"  xmlns="http://www.w3.org/2000/svg" xmlns:xlink="http://www.w3.org/1999/xlink" version="1.1">
<rect x="-53.7163" y="1.36049" width="40" height="20" fill="yellow" stroke="black" stroke-width="0.5"><title>room 0</title></rect><rect x="-34.9663" y="10.1105" width="2.5" height="2.5" fill="red" stroke="black" stroke-width="0.5"></rect>
<rect x="-14.1744" y="-52.4489" width="30" height="30" fill="yellow" stroke="black" stroke-width="0.5"><title>room 1</title></rect><rect x="-0.424351" y="-38.6989" width="2.5" height="2.5" fill="red" stroke="black" stroke-width="0.5"></rect>
<rect x="37.8422" y="-87.635" width="20" height="20" fill="yellow" stroke="black" stroke-width="0.5"><title>room 2</title></rect><rect x="46.5922" y="-78.885" width="2.5" height="2.5" fill="red" stroke="black" stroke-width="0.5"></rect>
<rect x="-4.08189" y="41.6489" width="40" height="20" fill="yellow" stroke="black" stroke-width="0.5"><title>room 3</title></rect><rect x="14.6681" y="50.3989" width="2.5" height="2.5" fill="red" stroke="black" stroke-width="0.5"></rect>
<rect x="15.1495" y="21.7967" width="40" height="20" fill="yellow" stroke="black" stroke-width="0.5"><title>room 4</title></rect><rect x="33.8995" y="30.5467" width="2.5" height="2.5" fill="red" stroke="black" stroke-width="0.5"></rect>
<rect x="76.0178" y="-117.334" width="30" height="30" fill="yellow" stroke="black" stroke-width="0.5"><title>room 5</title></rect><rect x="89.7678" y="-103.584" width="2.5" height="2.5" fill="red" stroke="black" stroke-width="0.5"></rect>
<rect x="15.5763" y="91.2266" width="20" height="20" fill="yellow" stroke="black" stroke-width="0.5"><title>room 6</title></rect><rect x="24.3263" y="99.9766" width="2.5" height="2.5" fill="red" stroke="black" stroke-width="0.5"></rect>
<rect x="-63.828" y="51.0185" width="20" height="20" fill="yellow" stroke="black" stroke-width="0.5"><title>room 7</title></rect><rect x="-55.078" y="59.7685" width="2.5" height="2.5" fill="red" stroke="black" stroke-width="0.5"></rect>
<rect x="35.7335" y="41.777" width="40" height="20" fill="yellow" stroke="black" stroke-width="0.5"><title>room 8</title></rect><rect x="54.4835" y="50.527" width="2.5" height="2.5" fill="red" stroke="black" stroke-width="0.5"></rect>
<rect x="-133.325" y="51.0719" width="20" height="40" fill="yellow" stroke="black" stroke-width="0.5"><title>room 9</title></rect><rect x="-124.575" y="69.8219" width="2.5" height="2.5" fill="red" stroke="black" stroke-width="0.5"></rect>
<rect x="50.4077" y="61.6984" width="40" height="20" fill="yellow" stroke="black" stroke-width="0.5"><title>room 10</title></rect><rect x="69.1577" y="70.4484" width="2.5" height="2.5" fill="red" stroke="black" stroke-width="0.5"></rect>
<rect x="-74.1891" y="-58.185" width="40" height="20" fill="yellow" stroke="black" stroke-width="0.5"><title>room 11</title></rect><rect x="-55.4391" y="-49.435" width="2.5" height="2.5" fill="red" stroke="black" stroke-width="0.5"></rect>
<rect x="15.4301" y="130.994" width="40" height="20" fill="yellow" stroke="black" stroke-width="0.5"><title>room 12</title></rect><rect x="34.1801" y="139.744" width="2.5" height="2.5" fill="red" stroke="black" stroke-width="0.5"></rect>
<rect x="90.1486" y="61.6889" width="40" height="20" fill="yellow" stroke="black" stroke-width="0.5"><title>room 13</title></rect><rect x="108.899" y="70.4389" width="2.5" height="2.5" fill="red" stroke="black" stroke-width="0.5"></rect>
<rect x="-14.5224" y="-82.3022" width="30" height="30" fill="yellow" stroke="black" stroke-width="0.5"><title>room 14</title></rect><rect x="-0.7724" y="-68.5522" width="2.5" height="2.5" fill="red" stroke="black" stroke-width="0.5"></rect>
<rect x="105.898" y="-107.303" width="20" height="20" fill="yellow" stroke="black" stroke-width="0.5"><title>room 15</title></rect><rect x="114.648" y="-98.5532" width="2.5" height="2.5" fill="red" stroke="black" stroke-width="0.5"></rect>
<rect x="-92.7558" y="-87.9198" width="30" height="30" fill="yellow" stroke="black" stroke-width="0.5"><title>room 16</title></rect><rect x="-79.0058" y="-74.1698" width="2.5" height="2.5" fill="red" stroke="black" stroke-width="0.5"></rect>
<rect x="46.1842" y="-117.477" width="30" height="30" fill="yellow" stroke="black" stroke-width="0.5"><title>room 17</title></rect><rect x="59.9342" y="-103.727" width="2.5" height="2.5" fill="red" stroke="black" stroke-width="0.5"></rect>
<rect x="-74.006" y="90.7098" width="30" height="30" fill="yellow" stroke="black" stroke-width="0.5"><title>room 18</title></rect><rect x="-60.256" y="104.46" width="2.5" height="2.5" fill="red" stroke="black" stroke-width="0.5"></rect>
<rect x="-43.9978" y="51.0291" width="40" height="20" fill="yellow" stroke="black" stroke-width="0.5"><title>room 19</title></rect><rect x="-25.2478" y="59.7791" width="2.5" height="2.5" fill="red" stroke="black" stroke-width="0.5"></rect>
<rect x="75.5716" y="21.8608" width="20" height="40" fill="yellow" stroke="black" stroke-width="0.5"><title>room 20</title></rect><rect x="84.3216" y="40.6108" width="2.5" height="2.5" fill="red" stroke="black" stroke-width="0.5"></rect>
<rect x="81.3869" y="-137.234" width="20" height="20" fill="yellow" stroke="black" stroke-width="0.5"><title>room 21</title></rect><rect x="90.1369" y="-128.484" width="2.5" height="2.5" fill="red" stroke="black" stroke-width="0.5"></rect>
<rect x="6.01137" y="-18.021" width="20" height="40" fill="yellow" stroke="black" stroke-width="0.5"><title>room 22</title></rect><rect x="14.7614" y="0.729033" width="2.5" height="2.5" fill="red" stroke="black" stroke-width="0.5"></rect>
<rect x="-113.528" y="46.0779" width="30" height="30" fill="yellow" stroke="black" stroke-width="0.5"><title>room 23</title></rect><rect x="-99.7775" y="59.8279" width="2.5" height="2.5" fill="red" stroke="black" stroke-width="0.5"></rect>
<rect x="-33.2063" y="-112.096" width="30" height="30" fill="yellow" stroke="black" stroke-width="0.5"><title>room 24</title></rect><rect x="-19.4563" y="-98.3456" width="2.5" height="2.5" fill="red" stroke="black" stroke-width="0.5"></rect>
<rect x="-74.1776" y="1.43237" width="20" height="40" fill="yellow" stroke="black" stroke-width="0.5"><title>room 25</title></rect><rect x="-65.4276" y="20.1824" width="2.5" height="2.5" fill="red" stroke="black" stroke-width="0.5"></rect>
<rect x="100.149" y="81.5287" width="20" height="40" fill="yellow" stroke="black" stroke-width="0.5"><title>room 26</title></rect><rect x="108.899" y="100.279" width="2.5" height="2.5" fill="red" stroke="black" stroke-width="0.5"></rect>
<rect x="101.293" y="-156.884" width="20" height="40" fill="yellow" stroke="black" stroke-width="0.5"><title>room 27</title></rect><rect x="110.043" y="-138.134" width="2.5" height="2.5" fill="red" stroke="black" stroke-width="0.5"></rect>
<rect x="-93.0375" y="-117.76" width="30" height="30" fill="yellow" stroke="black" stroke-width="0.5"><title>room 28</title></rect><rect x="-79.2875" y="-104.01" width="2.5" height="2.5" fill="red" stroke="black" stroke-width="0.5"></rect>
<rect x="16.5866" y="-137.289" width="30" height="30" fill="yellow" stroke="black" stroke-width="0.5"><title>room 29</title></rect><rect x="30.3366" y="-123.539" width="2.5" height="2.5" fill="red" stroke="black" stroke-width="0.5"></rect>
<rect x="-61.0087" y="-78.0958" width="20" height="20" fill="yellow" stroke="black" stroke-width="0.5"><title>room 30</title></rect><rect x="-52.2587" y="-69.3458" width="2.5" height="2.5" fill="red" stroke="black" stroke-width="0.5"></rect>
<rect x="57.8316" y="-57.748" width="20" height="20" fill="yellow" stroke="black" stroke-width="0.5"><title>room 31</title></rect><rect x="66.5816" y="-48.998" width="2.5" height="2.5" fill="red" stroke="black" stroke-width="0.5"></rect>
<rect x="5.55496" y="150.84" width="30" height="30" fill="yellow" stroke="black" stroke-width="0.5"><title>room 32</title></rect><rect x="19.305" y="164.59" width="2.5" height="2.5" fill="red" stroke="black" stroke-width="0.5"></rect>
<rect x="-83.7127" y="45.9477" width="20" height="40" fill="yellow" stroke="black" stroke-width="0.5"><title>room 33</title></rect><rect x="-74.9627" y="64.6977" width="2.5" height="2.5" fill="red" stroke="black" stroke-width="0.5"></rect>
<rect x="-13.9159" y="-18.1215" width="20" height="40" fill="yellow" stroke="black" stroke-width="0.5"><title>room 34</title></rect><rect x="-5.16591" y="0.628454" width="2.5" height="2.5" fill="red" stroke="black" stroke-width="0.5"></rect>
<rect x="25.6991" y="71.3246" width="20" height="20" fill="yellow" stroke="black" stroke-width="0.5"><title>room 35</title></rect><rect x="34.4491" y="80.0746" width="2.5" height="2.5" fill="red" stroke="black" stroke-width="0.5"></rect>
<rect x="25.9061" y="-8.02932" width="30" height="30" fill="yellow" stroke="black" stroke-width="0.5"><title>room 36</title></rect><rect x="39.6561" y="5.72068" width="2.5" height="2.5" fill="red" stroke="black" stroke-width="0.5"></rect>
<rect x="125.814" y="-102.144" width="20" height="20" fill="yellow" stroke="black" stroke-width="0.5"><title>room 37</title></rect><rect x="134.564" y="-93.3935" width="2.5" height="2.5" fill="red" stroke="black" stroke-width="0.5"></rect>
<rect x="-41.0901" y="-78.1997" width="20" height="20" fill="yellow" stroke="black" stroke-width="0.5"><title>room 38</title></rect><rect x="-32.3401" y="-69.4497" width="2.5" height="2.5" fill="red" stroke="black" stroke-width="0.5"></rect>
<rect x="-153.344" y="90.8843" width="40" height="20" fill="yellow" stroke="black" stroke-width="0.5"><title>room 39</title></rect><rect x="-134.594" y="99.6343" width="2.5" height="2.5" fill="red" stroke="black" stroke-width="0.5"></rect>
<rect x="-114.083" y="-58.0846" width="40" height="20" fill="yellow" stroke="black" stroke-width="0.5"><title>room 40</title></rect><rect x="-95.333" y="-49.3346" width="2.5" height="2.5" fill="red" stroke="black" stroke-width="0.5"></rect>
<rect x="91.2924" y="-176.724" width="40" height="20" fill="yellow" stroke="black" stroke-width="0.5"><title>room 41</title></rect><rect x="110.042" y="-167.974" width="2.5" height="2.5" fill="red" stroke="black" stroke-width="0.5"></rect>
<rect x="-33.0075" y="-151.878" width="20" height="40" fill="yellow" stroke="black" stroke-width="0.5"><title>room 42</title></rect><rect x="-24.2575" y="-133.128" width="2.5" height="2.5" fill="red" stroke="black" stroke-width="0.5"></rect>
<rect x="-104.061" y="-3.71559" width="30" height="30" fill="yellow" stroke="black" stroke-width="0.5"><title>room 43</title></rect><rect x="-90.3107" y="10.0344" width="2.5" height="2.5" fill="red" stroke="black" stroke-width="0.5"></rect>
<rect x="-107.364" y="-33.5531" width="30" height="30" fill="yellow" stroke="black" stroke-width="0.5"><title>room 44</title></rect><rect x="-93.6142" y="-19.8031" width="2.5" height="2.5" fill="red" stroke="black" stroke-width="0.5"></rect>
<rect x="-122.633" y="-87.9377" width="30" height="30" fill="yellow" stroke="black" stroke-width="0.5"><title>room 45</title></rect><rect x="-108.883" y="-74.1877" width="2.5" height="2.5" fill="red" stroke="black" stroke-width="0.5"></rect>
<rect x="-54.3367" y="21.1882" width="30" height="30" fill="yellow" stroke="black" stroke-width="0.5"><title>room 46</title></rect><rect x="-40.5867" y="34.9382" width="2.5" height="2.5" fill="red" stroke="black" stroke-width="0.5"></rect>
<rect x="15.6185" y="-47.7883" width="40" height="20" fill="yellow" stroke="black" stroke-width="0.5"><title>room 47</title></rect><rect x="34.3685" y="-39.0383" width="2.5" height="2.5" fill="red" stroke="black" stroke-width="0.5"></rect>
<rect x="17.9369" y="-107.492" width="20" height="40" fill="yellow" stroke="black" stroke-width="0.5"><title>room 48</title></rect><rect x="26.6869" y="-88.7421" width="2.5" height="2.5" fill="red" stroke="black" stroke-width="0.5"></rect>
<rect x="-24.1658" y="81.3212" width="20" height="40" fill="yellow" stroke="black" stroke-width="0.5"><title>room 49</title></rect><rect x="-15.4158" y="100.071" width="2.5" height="2.5" fill="red" stroke="black" stroke-width="0.5"></rect>
<rect x="-63.9156" y="70.8992" width="40" height="20" fill="yellow" stroke="black" stroke-width="0.5"><title>room 50</title></rect><rect x="-45.1656" y="79.6492" width="2.5" height="2.5" fill="red" stroke="black" stroke-width="0.5"></rect>
<rect x="-34.0816" y="-58.3545" width="20" height="40" fill="yellow" stroke="black" stroke-width="0.5"><title>room 51</title></rect><rect x="-25.3316" y="-39.6045" width="2.5" height="2.5" fill="red" stroke="black" stroke-width="0.5"></rect>
<rect x="15.5472" y="111.097" width="40" height="20" fill="yellow" stroke="black" stroke-width="0.5"><title>room 52</title></rect><rect x="34.2972" y="119.847" width="2.5" height="2.5" fill="red" stroke="black" stroke-width="0.5"></rect>
<rect x="-73.9818" y="120.55" width="30" height="30" fill="yellow" stroke="black" stroke-width="0.5"><title>room 53</title></rect><rect x="-60.2318" y="134.3" width="2.5" height="2.5" fill="red" stroke="black" stroke-width="0.5"></rect>
<rect x="25.6057" y="-27.8861" width="40" height="20" fill="yellow" stroke="black" stroke-width="0.5"><title>room 54</title></rect><rect x="44.3557" y="-19.1361" width="2.5" height="2.5" fill="red" stroke="black" stroke-width="0.5"></rect>
<rect x="137.433" y="-82.3331" width="30" height="30" fill="yellow" stroke="black" stroke-width="0.5"><title>room 55</title></rect><rect x="151.183" y="-68.5831" width="2.5" height="2.5" fill="red" stroke="black" stroke-width="0.5"></rect>
<rect x="-113.515" y="75.938" width="30" height="30" fill="yellow" stroke="black" stroke-width="0.5"><title>room 56</title></rect><rect x="-99.7653" y="89.688" width="2.5" height="2.5" fill="red" stroke="black" stroke-width="0.5"></rect>
<rect x="-153.23" y="51.083" width="20" height="20" fill="yellow" stroke="black" stroke-width="0.5"><title>room 57</title></rect><rect x="-144.48" y="59.833" width="2.5" height="2.5" fill="red" stroke="black" stroke-width="0.5"></rect>
<rect x="65.3171" y="-37.89" width="40" height="20" fill="yellow" stroke="black" stroke-width="0.5"><title>room 58</title></rect><rect x="84.0671" y="-29.14" width="2.5" height="2.5" fill="red" stroke="black" stroke-width="0.5"></rect>
<rect x="75.212" y="81.5804" width="20" height="20" fill="yellow" stroke="black" stroke-width="0.5"><title>room 59</title></rect><rect x="83.962" y="90.3304" width="2.5" height="2.5" fill="red" stroke="black" stroke-width="0.5"></rect>
<rect x="-114.05" y="26.1487" width="40" height="20" fill="yellow" stroke="black" stroke-width="0.5"><title>room 60</title></rect><rect x="-95.3003" y="34.8987" width="2.5" height="2.5" fill="red" stroke="black" stroke-width="0.5"></rect>
<rect x="-153.4" y="110.803" width="40" height="20" fill="yellow" stroke="black" stroke-width="0.5"><title>room 61</title></rect><rect x="-134.65" y="119.553" width="2.5" height="2.5" fill="red" stroke="black" stroke-width="0.5"></rect>
<rect x="-52.8923" y="-127.849" width="20" height="20" fill="yellow" stroke="black" stroke-width="0.5"><title>room 62</title></rect><rect x="-44.1423" y="-119.099" width="2.5" height="2.5" fill="red" stroke="black" stroke-width="0.5"></rect>
<rect x="-44.078" y="91.3161" width="20" height="20" fill="yellow" stroke="black" stroke-width="0.5"><title>room 63</title></rect><rect x="-35.328" y="100.066" width="2.5" height="2.5" fill="red" stroke="black" stroke-width="0.5"></rect>
<rect x="-77.4799" y="-38.3183" width="40" height="20" fill="yellow" stroke="black" stroke-width="0.5"><title>room 64</title></rect><rect x="-58.7299" y="-29.5683" width="2.5" height="2.5" fill="red" stroke="black" stroke-width="0.5"></rect>
<rect x="-44.1" y="115.551" width="20" height="40" fill="yellow" stroke="black" stroke-width="0.5"><title>room 65</title></rect><rect x="-35.35" y="134.301" width="2.5" height="2.5" fill="red" stroke="black" stroke-width="0.5"></rect>
<rect x="95.4534" y="26.8608" width="30" height="30" fill="yellow" stroke="black" stroke-width="0.5"><title>room 66</title></rect><rect x="109.203" y="40.6108" width="2.5" height="2.5" fill="red" stroke="black" stroke-width="0.5"></rect>
<rect x="75.7301" y="-17.9715" width="20" height="20" fill="yellow" stroke="black" stroke-width="0.5"><title>room 67</title></rect><rect x="84.4801" y="-9.22146" width="2.5" height="2.5" fill="red" stroke="black" stroke-width="0.5"></rect>
<rect x="57.7132" y="-87.6156" width="30" height="30" fill="yellow" stroke="black" stroke-width="0.5"><title>room 68</title></rect><rect x="71.4632" y="-73.8656" width="2.5" height="2.5" fill="red" stroke="black" stroke-width="0.5"></rect>
<rect x="141.07" y="-162.033" width="20" height="40" fill="yellow" stroke="black" stroke-width="0.5"><title>room 69</title></rect><rect x="149.82" y="-143.283" width="2.5" height="2.5" fill="red" stroke="black" stroke-width="0.5"></rect>
<rect x="87.6244" y="-87.5625" width="20" height="40" fill="yellow" stroke="black" stroke-width="0.5"><title>room 70</title></rect><rect x="96.3744" y="-68.8125" width="2.5" height="2.5" fill="red" stroke="black" stroke-width="0.5"></rect>
<rect x="-3.29737" y="-122.049" width="20" height="40" fill="yellow" stroke="black" stroke-width="0.5"><title>room 71</title></rect><rect x="5.45263" y="-103.299" width="2.5" height="2.5" fill="red" stroke="black" stroke-width="0.5"></rect>
<rect x="-127.246" y="-28.5531" width="20" height="20" fill="yellow" stroke="black" stroke-width="0.5"><title>room 72</title></rect><rect x="-118.496" y="-19.8031" width="2.5" height="2.5" fill="red" stroke="black" stroke-width="0.5"></rect>
<rect x="35.4526" y="150.806" width="20" height="40" fill="yellow" stroke="black" stroke-width="0.5"><title>room 73</title></rect><rect x="44.2026" y="169.556" width="2.5" height="2.5" fill="red" stroke="black" stroke-width="0.5"></rect>
<rect x="-140.783" y="31.2076" width="20" height="20" fill="yellow" stroke="black" stroke-width="0.5"><title>room 74</title></rect><rect x="-132.033" y="39.9576" width="2.5" height="2.5" fill="red" stroke="black" stroke-width="0.5"></rect>
<rect x="55.3028" y="121.128" width="20" height="40" fill="yellow" stroke="black" stroke-width="0.5"><title>room 75</title></rect><rect x="64.0528" y="139.878" width="2.5" height="2.5" fill="red" stroke="black" stroke-width="0.5"></rect>
<rect x="-170.684" y="21.2291" width="30" height="30" fill="yellow" stroke="black" stroke-width="0.5"><title>room 76</title></rect><rect x="-156.934" y="34.9791" width="2.5" height="2.5" fill="red" stroke="black" stroke-width="0.5"></rect>
<rect x="-113.419" y="105.778" width="30" height="30" fill="yellow" stroke="black" stroke-width="0.5"><title>room 77</title></rect><rect x="-99.6694" y="119.528" width="2.5" height="2.5" fill="red" stroke="black" stroke-width="0.5"></rect>
<rect x="35.3929" y="91.1894" width="40" height="20" fill="yellow" stroke="black" stroke-width="0.5"><title>room 78</title></rect><rect x="54.1429" y="99.9394" width="2.5" height="2.5" fill="red" stroke="black" stroke-width="0.5"></rect>
<rect x="-4.20895" y="61.4733" width="30" height="30" fill="yellow" stroke="black" stroke-width="0.5"><title>room 79</title></rect><rect x="9.54105" y="75.2233" width="2.5" height="2.5" fill="red" stroke="black" stroke-width="0.5"></rect>
<rect x="17.9353" y="-67.6988" width="40" height="20" fill="yellow" stroke="black" stroke-width="0.5"><title>room 80</title></rect><rect x="36.6853" y="-58.9488" width="2.5" height="2.5" fill="red" stroke="black" stroke-width="0.5"></rect>
<rect x="-13.1306" y="-151.887" width="30" height="30" fill="yellow" stroke="black" stroke-width="0.5"><title>room 81</title></rect><rect x="0.619398" y="-138.137" width="2.5" height="2.5" fill="red" stroke="black" stroke-width="0.5"></rect>
<rect x="-147.165" y="-28.5531" width="20" height="20" fill="yellow" stroke="black" stroke-width="0.5"><title>room 82</title></rect><rect x="-138.415" y="-19.8031" width="2.5" height="2.5" fill="red" stroke="black" stroke-width="0.5"></rect>
<rect x="46.7351" y="-147.317" width="30" height="30" fill="yellow" stroke="black" stroke-width="0.5"><title>room 83</title></rect><rect x="60.4851" y="-133.567" width="2.5" height="2.5" fill="red" stroke="black" stroke-width="0.5"></rect>
<rect x="-24.6071" y="21.7695" width="40" height="20" fill="yellow" stroke="black" stroke-width="0.5"><title>room 84</title></rect><rect x="-5.85708" y="30.5195" width="2.5" height="2.5" fill="red" stroke="black" stroke-width="0.5"></rect>
<rect x="-53.8032" y="-18.5088" width="40" height="20" fill="yellow" stroke="black" stroke-width="0.5"><title>room 85</title></rect><rect x="-35.0532" y="-9.75877" width="2.5" height="2.5" fill="red" stroke="black" stroke-width="0.5"></rect>
<rect x="55.7693" y="-8.08292" width="20" height="40" fill="yellow" stroke="black" stroke-width="0.5"><title>room 86</title></rect><rect x="64.5193" y="10.6671" width="2.5" height="2.5" fill="red" stroke="black" stroke-width="0.5"></rect>
<rect x="75.3574" y="101.499" width="20" height="20" fill="yellow" stroke="black" stroke-width="0.5"><title>room 87</title></rect><rect x="84.1074" y="110.249" width="2.5" height="2.5" fill="red" stroke="black" stroke-width="0.5"></rect>
<rect x="-63.0687" y="-107.968" width="30" height="30" fill="yellow" stroke="black" stroke-width="0.5"><title>room 88</title></rect><rect x="-49.3187" y="-94.2177" width="2.5" height="2.5" fill="red" stroke="black" stroke-width="0.5"></rect>
<rect x="120.068" y="81.6434" width="20" height="40" fill="yellow" stroke="black" stroke-width="0.5"><title>room 89</title></rect><rect x="128.818" y="100.393" width="2.5" height="2.5" fill="red" stroke="black" stroke-width="0.5"></rect>
<rect x="16.8108" y="-167.129" width="30" height="30" fill="yellow" stroke="black" stroke-width="0.5"><title>room 90</title></rect><rect x="30.5608" y="-153.379" width="2.5" height="2.5" fill="red" stroke="black" stroke-width="0.5"></rect>
<rect x="-133.9" y="-3.78815" width="30" height="30" fill="yellow" stroke="black" stroke-width="0.5"><title>room 91</title></rect><rect x="-120.15" y="9.96185" width="2.5" height="2.5" fill="red" stroke="black" stroke-width="0.5"></rect>
<rect x="-4.28996" y="91.3291" width="20" height="40" fill="yellow" stroke="black" stroke-width="0.5"><title>room 92</title></rect><rect x="4.46004" y="110.079" width="2.5" height="2.5" fill="red" stroke="black" stroke-width="0.5"></rect>
<rect x="-142.514" y="-92.9377" width="20" height="40" fill="yellow" stroke="black" stroke-width="0.5"><title>room 93</title></rect><rect x="-133.764" y="-74.1877" width="2.5" height="2.5" fill="red" stroke="black" stroke-width="0.5"></rect>
<rect x="105.157" y="-47.7926" width="20" height="40" fill="yellow" stroke="black" stroke-width="0.5"><title>room 94</title></rect><rect x="113.907" y="-29.0426" width="2.5" height="2.5" fill="red" stroke="black" stroke-width="0.5"></rect>
<rect x="145.719" y="-122.173" width="20" height="40" fill="yellow" stroke="black" stroke-width="0.5"><title>room 95</title></rect><rect x="154.469" y="-103.423" width="2.5" height="2.5" fill="red" stroke="black" stroke-width="0.5"></rect>
<rect x="-173.135" y="51.0747" width="20" height="40" fill="yellow" stroke="black" stroke-width="0.5"><title>room 96</title></rect><rect x="-164.385" y="69.8247" width="2.5" height="2.5" fill="red" stroke="black" stroke-width="0.5"></rect>
<rect x="107.565" y="-82.3278" width="30" height="30" fill="yellow" stroke="black" stroke-width="0.5"><title>room 97</title></rect><rect x="121.315" y="-68.5778" width="2.5" height="2.5" fill="red" stroke="black" stroke-width="0.5"></rect>
<rect x="121.175" y="-156.767" width="20" height="40" fill="yellow" stroke="black" stroke-width="0.5"><title>room 98</title></rect><rect x="129.925" y="-138.017" width="2.5" height="2.5" fill="red" stroke="black" stroke-width="0.5"></rect>
<rect x="-73.7087" y="-18.4273" width="20" height="20" fill="yellow" stroke="black" stroke-width="0.5"><title>room 99</title></rect><rect x="-64.9587" y="-9.67732" width="2.5" height="2.5" fill="red" stroke="black" stroke-width="0.5"></rect>
<line x1="0.8256490833275881" y1="-37.44889607983707" x2="-33.716251643065945" y2="11.360492187398533" stroke-width="0.5" stroke="blue" />
<line x1="47.8421850956184" y1="-77.63496034118396" x2="0.8256490833275881" y2="-37.44889607983707" stroke-width="0.5" stroke="blue" />
<line x1="15.918113526119619" y1="51.64886327339738" x2="-33.716251643065945" y2="11.360492187398533" stroke-width="0.5" stroke="blue" />
<line x1="35.14946120088859" y1="31.7966876625666" x2="15.918113526119619" y2="51.64886327339738" stroke-width="0.5" stroke="blue" />
<line x1="91.01775794264876" y1="-102.33419358995002" x2="47.8421850956184" y2="-77.63496034118396" stroke-width="0.5" stroke="blue" />
<line x1="25.576289577282985" y1="101.22663523667798" x2="15.918113526119619" y2="51.64886327339738" stroke-width="0.5" stroke="blue" />
<line x1="-53.828019461662834" y1="61.018504717566756" x2="-33.716251643065945" y2="11.360492187398533" stroke-width="0.5" stroke="blue" />
<line x1="55.733460656518346" y1="51.776992858694506" x2="15.918113526119619" y2="51.64886327339738" stroke-width="0.5" stroke="blue" />
<line x1="-123.32545108727604" y1="71.07190192010948" x2="-53.828019461662834" y2="61.018504717566756" stroke-width="0.5" stroke="blue" />
<line x1="70.40765064736591" y1="71.69835237921477" x2="55.733460656518346" y2="51.776992858694506" stroke-width="0.5" stroke="blue" />
<line x1="-54.189138721396404" y1="-48.18496100206981" x2="-33.716251643065945" y2="11.360492187398533" stroke-width="0.5" stroke="blue" />
<line x1="35.430090982661405" y1="140.9939749564443" x2="25.576289577282985" y2="101.22663523667798" stroke-width="0.5" stroke="blue" />
<line x1="110.14862404992466" y1="71.68889516230783" x2="70.40765064736591" y2="71.69835237921477" stroke-width="0.5" stroke="blue" />
<line x1="0.4775999322899686" y1="-67.30215570724857" x2="0.8256490833275881" y2="-37.44889607983707" stroke-width="0.5" stroke="blue" />
<line x1="115.89840367290059" y1="-97.30315186298144" x2="91.01775794264876" y2="-102.33419358995002" stroke-width="0.5" stroke="blue" />
<line x1="-77.7557984794063" y1="-72.91982012009132" x2="-54.189138721396404" y2="-48.18496100206981" stroke-width="0.5" stroke="blue" />
<line x1="61.184220532006336" y1="-102.47731065233596" x2="47.8421850956184" y2="-77.63496034118396" stroke-width="0.5" stroke="blue" />
<line x1="-59.00597494927545" y1="105.70980236609358" x2="-53.828019461662834" y2="61.018504717566756" stroke-width="0.5" stroke="blue" />
<line x1="-23.997840406271813" y1="61.02913988631845" x2="-53.828019461662834" y2="61.018504717566756" stroke-width="0.5" stroke="blue" />
<line x1="85.57160488590696" y1="41.860848254852165" x2="55.733460656518346" y2="51.776992858694506" stroke-width="0.5" stroke="blue" />
<line x1="91.3868786975107" y1="-127.2343725620429" x2="91.01775794264876" y2="-102.33419358995002" stroke-width="0.5" stroke="blue" />
<line x1="16.01136819241485" y1="1.979032837392239" x2="35.14946120088859" y2="31.7966876625666" stroke-width="0.5" stroke="blue" />
<line x1="-98.52752724590643" y1="61.077875704653515" x2="-123.32545108727604" y2="71.07190192010948" stroke-width="0.5" stroke="blue" />
<line x1="-18.206320372619928" y1="-97.09556281012749" x2="0.4775999322899686" y2="-67.30215570724857" stroke-width="0.5" stroke="blue" />
<line x1="-64.17757669320144" y1="21.432369180059396" x2="-33.716251643065945" y2="11.360492187398533" stroke-width="0.5" stroke="blue" />
<line x1="110.14903066654051" y1="101.52871670943561" x2="110.14862404992466" y2="71.68889516230783" stroke-width="0.5" stroke="blue" />
<line x1="111.29267812435087" y1="-136.88410074195846" x2="91.3868786975107" y2="-127.2343725620429" stroke-width="0.5" stroke="blue" />
<line x1="-78.0374528401886" y1="-102.75952981328668" x2="-77.7557984794063" y2="-72.91982012009132" stroke-width="0.5" stroke="blue" />
<line x1="31.586586561596487" y1="-122.28938155941931" x2="47.8421850956184" y2="-77.63496034118396" stroke-width="0.5" stroke="blue" />
<line x1="-51.00869587523419" y1="-68.09578830411728" x2="-54.189138721396404" y2="-48.18496100206981" stroke-width="0.5" stroke="blue" />
<line x1="67.83162112710964" y1="-47.748017535589696" x2="47.8421850956184" y2="-77.63496034118396" stroke-width="0.5" stroke="blue" />
<line x1="20.5549634204128" y1="165.83954908989816" x2="35.430090982661405" y2="140.9939749564443" stroke-width="0.5" stroke="blue" />
<line x1="-73.71265690869366" y1="65.94767580957257" x2="-98.52752724590643" y2="61.077875704653515" stroke-width="0.5" stroke="blue" />
<line x1="-3.91590709402192" y1="1.8784535891700518" x2="-33.716251643065945" y2="11.360492187398533" stroke-width="0.5" stroke="blue" />
<line x1="35.69911038591709" y1="81.32456602845383" x2="25.576289577282985" y2="101.22663523667798" stroke-width="0.5" stroke="blue" />
<line x1="40.90606114061098" y1="6.970679273956083" x2="35.14946120088859" y2="31.7966876625666" stroke-width="0.5" stroke="blue" />
<line x1="135.81426592976624" y1="-92.14354555721305" x2="115.89840367290059" y2="-97.30315186298144" stroke-width="0.5" stroke="blue" />
<line x1="-31.090109939258035" y1="-68.19972914631748" x2="-51.00869587523419" y2="-68.09578830411728" stroke-width="0.5" stroke="blue" />
<line x1="-133.34375115244117" y1="100.88425566853319" x2="-123.32545108727604" y2="71.07190192010948" stroke-width="0.5" stroke="blue" />
<line x1="-94.08297263469133" y1="-48.08463289944383" x2="-77.7557984794063" y2="-72.91982012009132" stroke-width="0.5" stroke="blue" />
<line x1="111.29237791541445" y1="-166.7239341405129" x2="111.29267812435087" y2="-136.88410074195846" stroke-width="0.5" stroke="blue" />
<line x1="-23.007462680545395" y1="-131.87751723693745" x2="-18.206320372619928" y2="-97.09556281012749" stroke-width="0.5" stroke="blue" />
<line x1="-89.06065832385555" y1="11.284406895895735" x2="-64.17757669320144" y2="21.432369180059396" stroke-width="0.5" stroke="blue" />
<line x1="-92.36423150649054" y1="-18.55313556234575" x2="-89.06065832385555" y2="11.284406895895735" stroke-width="0.5" stroke="blue" />
<line x1="-107.63266575169288" y1="-72.93771942652646" x2="-94.08297263469133" y2="-48.08463289944383" stroke-width="0.5" stroke="blue" />
<line x1="-39.33668955483051" y1="36.18822854493468" x2="-33.716251643065945" y2="11.360492187398533" stroke-width="0.5" stroke="blue" />
<line x1="35.618488770115356" y1="-37.788335210829786" x2="0.8256490833275881" y2="-37.44889607983707" stroke-width="0.5" stroke="blue" />
<line x1="27.93685597149824" y1="-87.49213252172211" x2="47.8421850956184" y2="-77.63496034118396" stroke-width="0.5" stroke="blue" />
<line x1="-14.165754550573885" y1="101.32120492880512" x2="25.576289577282985" y2="101.22663523667798" stroke-width="0.5" stroke="blue" />
<line x1="-43.91559663246154" y1="80.89923823387285" x2="-53.828019461662834" y2="61.018504717566756" stroke-width="0.5" stroke="blue" />
<line x1="-24.08158543912816" y1="-38.354465609957884" x2="0.8256490833275881" y2="-37.44889607983707" stroke-width="0.5" stroke="blue" />
<line x1="35.54723767000671" y1="121.0967025621039" x2="25.576289577282985" y2="101.22663523667798" stroke-width="0.5" stroke="blue" />
<line x1="-58.98177085697694" y1="135.54952418345266" x2="-59.00597494927545" y2="105.70980236609358" stroke-width="0.5" stroke="blue" />
<line x1="45.60570124231218" y1="-17.88605259554266" x2="16.01136819241485" y2="1.979032837392239" stroke-width="0.5" stroke="blue" />
<line x1="152.43317631612805" y1="-67.33310253860645" x2="135.81426592976624" y2="-92.14354555721305" stroke-width="0.5" stroke="blue" />
<line x1="-98.51532600052062" y1="90.93797059985768" x2="-123.32545108727604" y2="71.07190192010948" stroke-width="0.5" stroke="blue" />
<line x1="-143.2300877424721" y1="61.08304997283277" x2="-123.32545108727604" y2="71.07190192010948" stroke-width="0.5" stroke="blue" />
<line x1="85.31707845526533" y1="-27.89001604240802" x2="67.83162112710964" y2="-47.748017535589696" stroke-width="0.5" stroke="blue" />
<line x1="85.21201461672784" y1="91.58044185778765" x2="70.40765064736591" y2="71.69835237921477" stroke-width="0.5" stroke="blue" />
<line x1="-94.05034769331554" y1="36.1486684687759" x2="-89.06065832385555" y2="11.284406895895735" stroke-width="0.5" stroke="blue" />
<line x1="-133.40046785873858" y1="120.80278084373921" x2="-133.34375115244117" y2="100.88425566853319" stroke-width="0.5" stroke="blue" />
<line x1="-42.89227346927822" y1="-117.84924307843059" x2="-18.206320372619928" y2="-97.09556281012749" stroke-width="0.5" stroke="blue" />
<line x1="-34.077983309791236" y1="101.31607350047818" x2="-14.165754550573885" y2="101.32120492880512" stroke-width="0.5" stroke="blue" />
<line x1="-57.47992029791468" y1="-28.318256841278064" x2="-54.189138721396404" y2="-48.18496100206981" stroke-width="0.5" stroke="blue" />
<line x1="-34.0999652918913" y1="135.5514749810307" x2="-58.98177085697694" y2="135.54952418345266" stroke-width="0.5" stroke="blue" />
<line x1="110.45338662966375" y1="41.860844314223904" x2="85.57160488590696" y2="41.860848254852165" stroke-width="0.5" stroke="blue" />
<line x1="85.73010983322665" y1="-7.971462448347525" x2="85.31707845526533" y2="-27.89001604240802" stroke-width="0.5" stroke="blue" />
<line x1="72.71323522217119" y1="-72.61557756288137" x2="47.8421850956184" y2="-77.63496034118396" stroke-width="0.5" stroke="blue" />
<line x1="151.0699857617408" y1="-142.0334021466014" x2="111.29267812435087" y2="-136.88410074195846" stroke-width="0.5" stroke="blue" />
<line x1="97.62442299805267" y1="-67.56253037730241" x2="91.01775794264876" y2="-102.33419358995002" stroke-width="0.5" stroke="blue" />
<line x1="6.702628108026589" y1="-102.04895045990683" x2="0.4775999322899686" y2="-67.30215570724857" stroke-width="0.5" stroke="blue" />
<line x1="-117.2460134455075" y1="-18.553146165669745" x2="-92.36423150649054" y2="-18.55313556234575" stroke-width="0.5" stroke="blue" />
<line x1="45.452642223261634" y1="170.80628911522234" x2="35.430090982661405" y2="140.9939749564443" stroke-width="0.5" stroke="blue" />
<line x1="-130.7833995988647" y1="41.20762472253514" x2="-143.2300877424721" y2="61.08304997283277" stroke-width="0.5" stroke="blue" />
<line x1="65.30284974104163" y1="141.12823710689761" x2="35.430090982661405" y2="140.9939749564443" stroke-width="0.5" stroke="blue" />
<line x1="-155.68443009289243" y1="36.22911949644202" x2="-143.2300877424721" y2="61.08304997283277" stroke-width="0.5" stroke="blue" />
<line x1="-98.41938515206068" y1="120.77772187333979" x2="-98.51532600052062" y2="90.93797059985768" stroke-width="0.5" stroke="blue" />
<line x1="55.3929125938646" y1="101.18942975813087" x2="25.576289577282985" y2="101.22663523667798" stroke-width="0.5" stroke="blue" />
<line x1="10.791045973537123" y1="76.47329082080095" x2="15.918113526119619" y2="51.64886327339738" stroke-width="0.5" stroke="blue" />
<line x1="37.93531530475723" y1="-57.6988476275713" x2="47.8421850956184" y2="-77.63496034118396" stroke-width="0.5" stroke="blue" />
<line x1="1.8693978667247975" y1="-136.88692163489415" x2="31.586586561596487" y2="-122.28938155941931" stroke-width="0.5" stroke="blue" />
<line x1="-137.16453820513797" y1="-18.55314962986003" x2="-117.2460134455075" y2="-18.553146165669745" stroke-width="0.5" stroke="blue" />
<line x1="61.73506511812982" y1="-132.3170938453278" x2="61.184220532006336" y2="-102.47731065233596" stroke-width="0.5" stroke="blue" />
<line x1="-4.6070828785526725" y1="31.76950998407489" x2="-39.33668955483051" y2="36.18822854493468" stroke-width="0.5" stroke="blue" />
<line x1="-33.803229260292646" y1="-8.508771728088881" x2="-33.716251643065945" y2="11.360492187398533" stroke-width="0.5" stroke="blue" />
<line x1="65.76928523718547" y1="11.917078801426452" x2="40.90606114061098" y2="6.970679273956083" stroke-width="0.5" stroke="blue" />
<line x1="85.3573757752336" y1="111.49896021236451" x2="85.21201461672784" y2="91.58044185778765" stroke-width="0.5" stroke="blue" />
<line x1="-48.06871385671957" y1="-92.96767073722185" x2="-51.00869587523419" y2="-68.09578830411728" stroke-width="0.5" stroke="blue" />
<line x1="130.0675497593244" y1="101.64335325023374" x2="110.14903066654051" y2="101.52871670943561" stroke-width="0.5" stroke="blue" />
<line x1="31.81075495025908" y1="-152.12906120813358" x2="31.586586561596487" y2="-122.28938155941931" stroke-width="0.5" stroke="blue" />
<line x1="-118.90034561135508" y1="11.211848803963422" x2="-89.06065832385555" y2="11.284406895895735" stroke-width="0.5" stroke="blue" />
<line x1="5.710043652185796" y1="111.32911474327578" x2="25.576289577282985" y2="101.22663523667798" stroke-width="0.5" stroke="blue" />
<line x1="-132.51444756759952" y1="-72.9377248268033" x2="-107.63266575169288" y2="-72.93771942652646" stroke-width="0.5" stroke="blue" />
<line x1="115.15679260441492" y1="-27.792616431079175" x2="85.31707845526533" y2="-27.89001604240802" stroke-width="0.5" stroke="blue" />
<line x1="155.71884440284816" y1="-102.17312314789636" x2="135.81426592976624" y2="-92.14354555721305" stroke-width="0.5" stroke="blue" />
<line x1="-163.13473483459222" y1="71.0747188091974" x2="-143.2300877424721" y2="61.08304997283277" stroke-width="0.5" stroke="blue" />
<line x1="122.56459989205172" y1="-67.32776568957688" x2="135.81426592976624" y2="-92.14354555721305" stroke-width="0.5" stroke="blue" />
<line x1="131.17506214742346" y1="-136.76727342213064" x2="111.29267812435087" y2="-136.88410074195846" stroke-width="0.5" stroke="blue" />
<line x1="-63.708726295105954" y1="-8.427320113794279" x2="-57.47992029791468" y2="-28.318256841278064" stroke-width="0.5" stroke="blue" />
</svg>