<svg width="100%" height="100%" viewBox="-104.879 -82.9256 198.864 192.013"  xmlns="http://www.w3.org/2000/svg" xmlns:xlink="http://www.w3.org/1999/xlink" version="1.1">
<rect x="8.40654" y="18.014" width="40" height="20" fill="yellow" stroke="black" stroke-width="0.5"><title>room 0</title></rect><rect x="27.1565" y="26.764" width="2.5" height="2.5" fill="red" stroke="black" stroke-width="0.5"></rect>
<rect x="32.0194" y="37.6287" width="30" height="30" fill="yellow" stroke="black" stroke-width="0.5"><title>room 1</title></rect><rect x="45.7694" y="51.3787" width="2.5" height="2.5" fill="red" stroke="black" stroke-width="0.5"></rect>
<rect x="61.7746" y="42.6287" width="20" height="20" fill="yellow" stroke="black" stroke-width="0.5"><title>room 2</title></rect><rect x="70.5246" y="51.3787" width="2.5" height="2.5" fill="red" stroke="black" stroke-width="0.5"></rect>
<rect x="-14.1965" y="-1.7558" width="40" height="20" fill="yellow" stroke="black" stroke-width="0.5"><title>room 3</title></rect><rect x="4.55348" y="6.9942" width="2.5" height="2.5" fill="red" stroke="black" stroke-width="0.5"></rect>
<rect x="-39.6997" y="-21.5089" width="40" height="20" fill="yellow" stroke="black" stroke-width="0.5"><title>room 4</title></rect><rect x="-20.9497" y="-12.7589" width="2.5" height="2.5" fill="red" stroke="black" stroke-width="0.5"></rect>
<rect x="-52.7793" y="-51.1641" width="30" height="30" fill="yellow" stroke="black" stroke-width="0.5"><title>room 5</title></rect><rect x="-39.0293" y="-37.4141" width="2.5" height="2.5" fill="red" stroke="black" stroke-width="0.5"></rect>
<rect x="25.6143" y="-1.78993" width="20" height="20" fill="yellow" stroke="black" stroke-width="0.5"><title>room 6</title></rect><rect x="34.3643" y="6.96007" width="2.5" height="2.5" fill="red" stroke="black" stroke-width="0.5"></rect>
<rect x="-72.5712" y="-51.1527" width="20" height="20" fill="yellow" stroke="black" stroke-width="0.5"><title>room 7</title></rect><rect x="-63.8212" y="-42.4027" width="2.5" height="2.5" fill="red" stroke="black" stroke-width="0.5"></rect>
<rect x="-53.6106" y="-1.67902" width="40" height="20" fill="yellow" stroke="black" stroke-width="0.5"><title>room 8</title></rect><rect x="-34.8606" y="7.07098" width="2.5" height="2.5" fill="red" stroke="black" stroke-width="0.5"></rect>
<rect x="-73.0824" y="-31.4847" width="20" height="40" fill="yellow" stroke="black" stroke-width="0.5"><title>room 9</title></rect><rect x="-64.3324" y="-12.7347" width="2.5" height="2.5" fill="red" stroke="black" stroke-width="0.5"></rect>
<rect x="-31.3046" y="18.083" width="40" height="20" fill="yellow" stroke="black" stroke-width="0.5"><title>room 10</title></rect><rect x="-12.5546" y="26.833" width="2.5" height="2.5" fill="red" stroke="black" stroke-width="0.5"></rect>
<rect x="-0.00668083" y="-21.5911" width="40" height="20" fill="yellow" stroke="black" stroke-width="0.5"><title>room 11</title></rect><rect x="18.7433" y="-12.8411" width="2.5" height="2.5" fill="red" stroke="black" stroke-width="0.5"></rect>
<rect x="18.1818" y="-41.3587" width="40" height="20" fill="yellow" stroke="black" stroke-width="0.5"><title>room 12</title></rect><rect x="36.9318" y="-32.6087" width="2.5" height="2.5" fill="red" stroke="black" stroke-width="0.5"></rect>
<rect x="-73.1589" y="-70.976" width="40" height="20" fill="yellow" stroke="black" stroke-width="0.5"><title>room 13</title></rect><rect x="-54.4089" y="-62.226" width="2.5" height="2.5" fill="red" stroke="black" stroke-width="0.5"></rect>
<rect x="45.3672" y="-10.4152" width="30" height="30" fill="yellow" stroke="black" stroke-width="0.5"><title>room 14</title></rect><rect x="59.1172" y="3.3348" width="2.5" height="2.5" fill="red" stroke="black" stroke-width="0.5"></rect>
<rect x="10.5314" y="37.8294" width="20" height="20" fill="yellow" stroke="black" stroke-width="0.5"><title>room 15</title></rect><rect x="19.2814" y="46.5794" width="2.5" height="2.5" fill="red" stroke="black" stroke-width="0.5"></rect>
<rect x="-36.821" y="37.8039" width="30" height="30" fill="yellow" stroke="black" stroke-width="0.5"><title>room 16</title></rect><rect x="-23.071" y="51.5539" width="2.5" height="2.5" fill="red" stroke="black" stroke-width="0.5"></rect>
<rect x="26.5871" y="-71.1109" width="30" height="30" fill="yellow" stroke="black" stroke-width="0.5"><title>room 17</title></rect><rect x="40.3371" y="-57.3609" width="2.5" height="2.5" fill="red" stroke="black" stroke-width="0.5"></rect>
<rect x="32.5087" y="67.2967" width="30" height="30" fill="yellow" stroke="black" stroke-width="0.5"><title>room 18</title></rect><rect x="46.2587" y="81.0467" width="2.5" height="2.5" fill="red" stroke="black" stroke-width="0.5"></rect>
<rect x="-7.34372" y="57.6448" width="40" height="20" fill="yellow" stroke="black" stroke-width="0.5"><title>room 19</title></rect><rect x="11.4063" y="66.3948" width="2.5" height="2.5" fill="red" stroke="black" stroke-width="0.5"></rect>
<rect x="-92.6678" y="-61.1606" width="20" height="40" fill="yellow" stroke="black" stroke-width="0.5"><title>room 20</title></rect><rect x="-83.9178" y="-42.4106" width="2.5" height="2.5" fill="red" stroke="black" stroke-width="0.5"></rect>
<rect x="-1.55528" y="-41.3838" width="20" height="20" fill="yellow" stroke="black" stroke-width="0.5"><title>room 21</title></rect><rect x="7.19472" y="-32.6338" width="2.5" height="2.5" fill="red" stroke="black" stroke-width="0.5"></rect>
<rect x="-23.0515" y="-61.3135" width="20" height="40" fill="yellow" stroke="black" stroke-width="0.5"><title>room 22</title></rect><rect x="-14.3015" y="-42.5635" width="2.5" height="2.5" fill="red" stroke="black" stroke-width="0.5"></rect>
<rect x="-66.4891" y="37.8039" width="30" height="30" fill="yellow" stroke="black" stroke-width="0.5"><title>room 23</title></rect><rect x="-52.7391" y="51.5539" width="2.5" height="2.5" fill="red" stroke="black" stroke-width="0.5"></rect>
<rect x="-3.25497" y="-71.1354" width="30" height="30" fill="yellow" stroke="black" stroke-width="0.5"><title>room 24</title></rect><rect x="10.495" y="-57.3854" width="2.5" height="2.5" fill="red" stroke="black" stroke-width="0.5"></rect>
<line x1="47.01938083513626" y1="52.62868202662774" x2="28.40654225394821" y2="28.013953704390005" stroke-width="0.5" stroke="blue" />
<line x1="71.77462890514549" y1="52.628680562805464" x2="47.01938083513626" y2="52.62868202662774" stroke-width="0.5" stroke="blue" />
<line x1="5.803481338575761" y1="8.244203324415018" x2="28.40654225394821" y2="28.013953704390005" stroke-width="0.5" stroke="blue" />
<line x1="-19.69971884910867" y1="-11.508888239706662" x2="5.803481338575761" y2="8.244203324415018" stroke-width="0.5" stroke="blue" />
<line x1="-37.77928317512918" y1="-36.164081673479956" x2="-19.69971884910867" y2="-11.508888239706662" stroke-width="0.5" stroke="blue" />
<line x1="35.61428276590083" y1="8.210065575181387" x2="28.40654225394821" y2="28.013953704390005" stroke-width="0.5" stroke="blue" />
<line x1="-62.571219896906925" y1="-41.15271713508198" x2="-37.77928317512918" y2="-36.164081673479956" stroke-width="0.5" stroke="blue" />
<line x1="-33.610580975994495" y1="8.320981189420092" x2="5.803481338575761" y2="8.244203324415018" stroke-width="0.5" stroke="blue" />
<line x1="-63.08238010743857" y1="-11.484742587264828" x2="-62.571219896906925" y2="-41.15271713508198" stroke-width="0.5" stroke="blue" />
<line x1="-11.304555282116876" y1="28.082976632651768" x2="5.803481338575761" y2="8.244203324415018" stroke-width="0.5" stroke="blue" />
<line x1="19.993319170681403" y1="-11.59112519355478" x2="5.803481338575761" y2="8.244203324415018" stroke-width="0.5" stroke="blue" />
<line x1="38.18176852514173" y1="-31.358715496667713" x2="19.993319170681403" y2="-11.59112519355478" stroke-width="0.5" stroke="blue" />
<line x1="-53.158852207028" y1="-60.97595012775783" x2="-62.571219896906925" y2="-41.15271713508198" stroke-width="0.5" stroke="blue" />
<line x1="60.36717711290173" y1="4.58479961896056" x2="35.61428276590083" y2="8.210065575181387" stroke-width="0.5" stroke="blue" />
<line x1="20.531420557214553" y1="47.82940226987829" x2="28.40654225394821" y2="28.013953704390005" stroke-width="0.5" stroke="blue" />
<line x1="-21.821028200730606" y1="52.80391304506251" x2="-11.304555282116876" y2="28.082976632651768" stroke-width="0.5" stroke="blue" />
<line x1="41.587118402860284" y1="-56.110899777694414" x2="38.18176852514173" y2="-31.358715496667713" stroke-width="0.5" stroke="blue" />
<line x1="47.50868817907301" y1="82.29672639155072" x2="47.01938083513626" y2="52.62868202662774" stroke-width="0.5" stroke="blue" />
<line x1="12.656276782298892" y1="67.64479013610075" x2="20.531420557214553" y2="47.82940226987829" stroke-width="0.5" stroke="blue" />
<line x1="-82.66778027663261" y1="-41.16061666255796" x2="-62.571219896906925" y2="-41.15271713508198" stroke-width="0.5" stroke="blue" />
<line x1="8.44471708804974" y1="-31.383841703977964" x2="19.993319170681403" y2="-11.59112519355478" stroke-width="0.5" stroke="blue" />
<line x1="-13.051457890494886" y1="-41.31348181480512" x2="-37.77928317512918" y2="-36.164081673479956" stroke-width="0.5" stroke="blue" />
<line x1="-51.48914865630745" y1="52.803921710656965" x2="-21.821028200730606" y2="52.80391304506251" stroke-width="0.5" stroke="blue" />
<line x1="11.745029515627083" y1="-56.135396045904464" x2="8.44471708804974" y2="-31.383841703977964" stroke-width="0.5" stroke="blue" />
</svg>